%TF.GenerationSoftware,KiCad,Pcbnew,(6.0.6)*%
%TF.CreationDate,2022-08-23T20:39:57+01:00*%
%TF.ProjectId,rearcase,72656172-6361-4736-952e-6b696361645f,rev?*%
%TF.SameCoordinates,Original*%
%TF.FileFunction,Copper,L2,Bot*%
%TF.FilePolarity,Positive*%
%FSLAX46Y46*%
G04 Gerber Fmt 4.6, Leading zero omitted, Abs format (unit mm)*
G04 Created by KiCad (PCBNEW (6.0.6)) date 2022-08-23 20:39:57*
%MOMM*%
%LPD*%
G01*
G04 APERTURE LIST*
%TA.AperFunction,ViaPad*%
%ADD10C,0.600000*%
%TD*%
G04 APERTURE END LIST*
D10*
%TO.N,GND*%
X171250000Y-105500000D03*
X171250000Y-90500000D03*
X136750000Y-90500000D03*
X136750000Y-105500000D03*
X154000000Y-96250000D03*
%TD*%
%TA.AperFunction,NonConductor*%
G36*
X171249962Y-86501066D02*
G01*
X171250000Y-86501082D01*
X171250034Y-86501068D01*
X171252903Y-86501134D01*
X171595532Y-86516975D01*
X171599579Y-86517174D01*
X171614092Y-86517887D01*
X171625314Y-86518943D01*
X171869912Y-86553063D01*
X171870991Y-86553219D01*
X171920889Y-86560620D01*
X171991252Y-86571058D01*
X172001582Y-86573035D01*
X172132766Y-86603889D01*
X172222031Y-86624884D01*
X172223798Y-86625313D01*
X172361543Y-86659816D01*
X172370970Y-86662572D01*
X172577622Y-86731836D01*
X172580027Y-86732669D01*
X172666825Y-86763725D01*
X172721632Y-86783335D01*
X172730050Y-86786694D01*
X172849388Y-86839387D01*
X172925337Y-86872922D01*
X172928315Y-86874283D01*
X173068246Y-86940465D01*
X173075684Y-86944291D01*
X173259894Y-87046896D01*
X173263306Y-87048867D01*
X173398231Y-87129738D01*
X173404659Y-87133861D01*
X173577392Y-87252185D01*
X173581162Y-87254873D01*
X173708621Y-87349403D01*
X173714058Y-87353671D01*
X173874464Y-87486871D01*
X173878585Y-87490447D01*
X173996613Y-87597421D01*
X174001092Y-87601686D01*
X174148314Y-87748908D01*
X174152579Y-87753387D01*
X174259553Y-87871415D01*
X174263129Y-87875536D01*
X174396329Y-88035942D01*
X174400591Y-88041371D01*
X174495127Y-88168838D01*
X174497815Y-88172608D01*
X174616138Y-88345339D01*
X174620261Y-88351768D01*
X174701133Y-88486694D01*
X174703104Y-88490106D01*
X174805708Y-88674314D01*
X174809535Y-88681754D01*
X174875717Y-88821685D01*
X174877078Y-88824663D01*
X174895515Y-88866418D01*
X174963306Y-89019950D01*
X174966665Y-89028368D01*
X174986275Y-89083175D01*
X175017331Y-89169973D01*
X175018164Y-89172378D01*
X175087428Y-89379030D01*
X175090184Y-89388457D01*
X175124687Y-89526202D01*
X175125116Y-89527969D01*
X175146111Y-89617234D01*
X175176965Y-89748418D01*
X175178942Y-89758748D01*
X175189380Y-89829111D01*
X175196781Y-89879009D01*
X175196937Y-89880088D01*
X175231057Y-90124686D01*
X175232113Y-90135908D01*
X175233006Y-90154075D01*
X175233024Y-90154442D01*
X175248866Y-90497097D01*
X175248932Y-90499966D01*
X175248918Y-90500000D01*
X175248934Y-90500038D01*
X175249000Y-90502916D01*
X175249000Y-97375757D01*
X175228998Y-97443878D01*
X175175342Y-97490371D01*
X175105068Y-97500475D01*
X175040488Y-97470981D01*
X175002104Y-97411255D01*
X174999030Y-97396804D01*
X174998891Y-97396831D01*
X174998241Y-97393425D01*
X174997780Y-97389991D01*
X174948203Y-97190404D01*
X174912367Y-97046136D01*
X174912365Y-97046129D01*
X174911530Y-97042768D01*
X174787698Y-96707108D01*
X174696822Y-96525238D01*
X174629326Y-96390156D01*
X174629322Y-96390149D01*
X174627780Y-96387063D01*
X174433709Y-96086499D01*
X174304419Y-95927691D01*
X174210012Y-95811729D01*
X174210005Y-95811722D01*
X174207827Y-95809046D01*
X173952863Y-95558056D01*
X173671897Y-95336560D01*
X173368322Y-95147234D01*
X173365196Y-95145733D01*
X173365187Y-95145728D01*
X173195759Y-95064370D01*
X173045804Y-94992363D01*
X173004019Y-94977689D01*
X172711499Y-94874963D01*
X172711491Y-94874961D01*
X172708240Y-94873819D01*
X172704878Y-94873040D01*
X172704872Y-94873038D01*
X172492887Y-94823903D01*
X172359705Y-94793033D01*
X172356288Y-94792629D01*
X172356279Y-94792627D01*
X172007115Y-94751301D01*
X172007114Y-94751301D01*
X172004411Y-94750981D01*
X172001696Y-94750896D01*
X172001687Y-94750895D01*
X171976731Y-94750111D01*
X171957286Y-94749500D01*
X171710183Y-94749500D01*
X171708464Y-94749595D01*
X171708449Y-94749595D01*
X171566311Y-94757418D01*
X171442766Y-94764217D01*
X171439354Y-94764785D01*
X171439344Y-94764786D01*
X171196045Y-94805283D01*
X171089847Y-94822959D01*
X170745505Y-94920073D01*
X170413900Y-95054387D01*
X170410848Y-95056034D01*
X170102086Y-95222633D01*
X170102082Y-95222636D01*
X170099036Y-95224279D01*
X170096188Y-95226248D01*
X170096187Y-95226248D01*
X169807557Y-95425731D01*
X169807551Y-95425735D01*
X169804716Y-95427695D01*
X169534496Y-95662181D01*
X169532148Y-95664721D01*
X169532146Y-95664723D01*
X169398735Y-95809046D01*
X169291638Y-95924903D01*
X169289579Y-95927691D01*
X169081140Y-96209894D01*
X169081135Y-96209902D01*
X169079077Y-96212688D01*
X168899379Y-96522060D01*
X168754715Y-96849283D01*
X168646833Y-97190404D01*
X168646158Y-97193797D01*
X168646156Y-97193805D01*
X168601182Y-97419906D01*
X168577034Y-97541304D01*
X168546163Y-97897744D01*
X168549271Y-98029639D01*
X168553347Y-98202575D01*
X168554592Y-98255419D01*
X168602220Y-98610009D01*
X168603056Y-98613373D01*
X168603056Y-98613375D01*
X168663782Y-98857842D01*
X168688470Y-98957232D01*
X168812302Y-99292892D01*
X168888756Y-99445899D01*
X168970674Y-99609844D01*
X168970678Y-99609851D01*
X168972220Y-99612937D01*
X169166291Y-99913501D01*
X169180414Y-99930848D01*
X169389988Y-100188271D01*
X169389995Y-100188278D01*
X169392173Y-100190954D01*
X169647137Y-100441944D01*
X169928103Y-100663440D01*
X170231678Y-100852766D01*
X170234804Y-100854267D01*
X170234813Y-100854272D01*
X170356590Y-100912748D01*
X170554196Y-101007637D01*
X170557465Y-101008785D01*
X170888501Y-101125037D01*
X170888509Y-101125039D01*
X170891760Y-101126181D01*
X170895122Y-101126960D01*
X170895128Y-101126962D01*
X171033671Y-101159074D01*
X171240295Y-101206967D01*
X171243712Y-101207371D01*
X171243721Y-101207373D01*
X171592885Y-101248699D01*
X171595589Y-101249019D01*
X171598304Y-101249104D01*
X171598313Y-101249105D01*
X171623269Y-101249889D01*
X171642714Y-101250500D01*
X171889817Y-101250500D01*
X171891536Y-101250405D01*
X171891551Y-101250405D01*
X172033689Y-101242582D01*
X172157234Y-101235783D01*
X172160646Y-101235215D01*
X172160656Y-101235214D01*
X172411406Y-101193477D01*
X172510153Y-101177041D01*
X172854495Y-101079927D01*
X173186100Y-100945613D01*
X173416038Y-100821545D01*
X173497914Y-100777367D01*
X173497918Y-100777364D01*
X173500964Y-100775721D01*
X173663422Y-100663440D01*
X173792443Y-100574269D01*
X173792449Y-100574265D01*
X173795284Y-100572305D01*
X174065504Y-100337819D01*
X174199019Y-100193384D01*
X174306014Y-100077637D01*
X174308362Y-100075097D01*
X174425738Y-99916183D01*
X174518860Y-99790106D01*
X174518865Y-99790098D01*
X174520923Y-99787312D01*
X174549302Y-99738455D01*
X174698880Y-99480937D01*
X174700621Y-99477940D01*
X174845285Y-99150717D01*
X174953167Y-98809596D01*
X174990037Y-98624243D01*
X174999421Y-98577064D01*
X175032329Y-98514155D01*
X175094024Y-98479023D01*
X175164919Y-98482823D01*
X175222505Y-98524349D01*
X175248499Y-98590416D01*
X175249000Y-98601646D01*
X175249000Y-105497084D01*
X175248934Y-105499962D01*
X175248918Y-105500000D01*
X175248932Y-105500034D01*
X175248866Y-105502903D01*
X175233024Y-105845558D01*
X175233006Y-105845925D01*
X175232113Y-105864092D01*
X175231057Y-105875314D01*
X175196937Y-106119912D01*
X175196781Y-106120991D01*
X175178942Y-106241252D01*
X175176965Y-106251582D01*
X175146111Y-106382766D01*
X175125116Y-106472031D01*
X175124687Y-106473798D01*
X175090184Y-106611543D01*
X175087428Y-106620970D01*
X175018164Y-106827622D01*
X175017331Y-106830027D01*
X174986275Y-106916825D01*
X174966665Y-106971632D01*
X174963306Y-106980050D01*
X174910613Y-107099388D01*
X174877078Y-107175337D01*
X174875717Y-107178315D01*
X174809535Y-107318246D01*
X174805709Y-107325684D01*
X174703104Y-107509894D01*
X174701133Y-107513306D01*
X174620262Y-107648231D01*
X174616139Y-107654659D01*
X174497815Y-107827392D01*
X174495127Y-107831162D01*
X174400597Y-107958621D01*
X174396329Y-107964058D01*
X174263129Y-108124464D01*
X174259553Y-108128585D01*
X174152579Y-108246613D01*
X174148314Y-108251092D01*
X174001092Y-108398314D01*
X173996613Y-108402579D01*
X173878585Y-108509553D01*
X173874464Y-108513129D01*
X173714058Y-108646329D01*
X173708629Y-108650591D01*
X173581162Y-108745127D01*
X173577392Y-108747815D01*
X173404661Y-108866138D01*
X173398232Y-108870261D01*
X173263306Y-108951133D01*
X173259894Y-108953104D01*
X173075686Y-109055708D01*
X173068246Y-109059535D01*
X172928315Y-109125717D01*
X172925337Y-109127078D01*
X172849388Y-109160613D01*
X172730050Y-109213306D01*
X172721632Y-109216665D01*
X172666825Y-109236275D01*
X172580027Y-109267331D01*
X172577622Y-109268164D01*
X172370970Y-109337428D01*
X172361543Y-109340184D01*
X172223798Y-109374687D01*
X172222031Y-109375116D01*
X172132766Y-109396111D01*
X172001582Y-109426965D01*
X171991252Y-109428942D01*
X171920889Y-109439380D01*
X171870991Y-109446781D01*
X171869912Y-109446937D01*
X171625314Y-109481057D01*
X171614092Y-109482113D01*
X171599579Y-109482826D01*
X171595532Y-109483025D01*
X171252903Y-109498866D01*
X171250034Y-109498932D01*
X171250000Y-109498918D01*
X171249962Y-109498934D01*
X171247084Y-109499000D01*
X136752916Y-109499000D01*
X136750038Y-109498934D01*
X136750000Y-109498918D01*
X136749966Y-109498932D01*
X136747097Y-109498866D01*
X136404468Y-109483025D01*
X136400421Y-109482826D01*
X136385908Y-109482113D01*
X136374686Y-109481057D01*
X136130088Y-109446937D01*
X136129009Y-109446781D01*
X136079111Y-109439380D01*
X136008748Y-109428942D01*
X135998418Y-109426965D01*
X135867234Y-109396111D01*
X135777969Y-109375116D01*
X135776202Y-109374687D01*
X135638457Y-109340184D01*
X135629030Y-109337428D01*
X135422378Y-109268164D01*
X135419973Y-109267331D01*
X135333175Y-109236275D01*
X135278368Y-109216665D01*
X135269950Y-109213306D01*
X135150612Y-109160613D01*
X135074663Y-109127078D01*
X135071685Y-109125717D01*
X134931754Y-109059535D01*
X134924314Y-109055708D01*
X134740106Y-108953104D01*
X134736694Y-108951133D01*
X134601768Y-108870261D01*
X134595339Y-108866138D01*
X134422608Y-108747815D01*
X134418838Y-108745127D01*
X134291371Y-108650591D01*
X134285942Y-108646329D01*
X134125536Y-108513129D01*
X134121415Y-108509553D01*
X134003387Y-108402579D01*
X133998908Y-108398314D01*
X133851686Y-108251092D01*
X133847421Y-108246613D01*
X133740447Y-108128585D01*
X133736871Y-108124464D01*
X133603671Y-107964058D01*
X133599403Y-107958621D01*
X133504873Y-107831162D01*
X133502185Y-107827392D01*
X133383861Y-107654659D01*
X133379738Y-107648231D01*
X133298867Y-107513306D01*
X133296896Y-107509894D01*
X133194291Y-107325684D01*
X133190465Y-107318246D01*
X133124283Y-107178315D01*
X133122922Y-107175337D01*
X133089387Y-107099388D01*
X133036694Y-106980050D01*
X133033335Y-106971632D01*
X133013725Y-106916825D01*
X132982669Y-106830027D01*
X132981836Y-106827622D01*
X132912572Y-106620970D01*
X132909816Y-106611543D01*
X132875313Y-106473798D01*
X132874884Y-106472031D01*
X132853889Y-106382766D01*
X132823035Y-106251582D01*
X132821058Y-106241252D01*
X132803219Y-106120991D01*
X132803063Y-106119912D01*
X132768943Y-105875314D01*
X132767887Y-105864092D01*
X132766994Y-105845925D01*
X132766976Y-105845558D01*
X132751134Y-105502903D01*
X132751068Y-105500034D01*
X132751082Y-105500000D01*
X132751066Y-105499962D01*
X132751000Y-105497084D01*
X132751000Y-103800000D01*
X164145052Y-103800000D01*
X164164812Y-104051069D01*
X164223604Y-104295956D01*
X164319981Y-104528631D01*
X164451570Y-104743365D01*
X164615130Y-104934870D01*
X164806635Y-105098430D01*
X165021369Y-105230019D01*
X165025939Y-105231912D01*
X165025943Y-105231914D01*
X165249471Y-105324502D01*
X165254044Y-105326396D01*
X165338907Y-105346770D01*
X165494118Y-105384033D01*
X165494124Y-105384034D01*
X165498931Y-105385188D01*
X165750000Y-105404948D01*
X166001069Y-105385188D01*
X166005876Y-105384034D01*
X166005882Y-105384033D01*
X166161093Y-105346770D01*
X166245956Y-105326396D01*
X166250529Y-105324502D01*
X166474057Y-105231914D01*
X166474061Y-105231912D01*
X166478631Y-105230019D01*
X166693365Y-105098430D01*
X166884870Y-104934870D01*
X167048430Y-104743365D01*
X167180019Y-104528631D01*
X167276396Y-104295956D01*
X167335188Y-104051069D01*
X167354948Y-103800000D01*
X167335188Y-103548931D01*
X167276396Y-103304044D01*
X167180019Y-103071369D01*
X167048430Y-102856635D01*
X166884870Y-102665130D01*
X166693365Y-102501570D01*
X166478631Y-102369981D01*
X166474061Y-102368088D01*
X166474057Y-102368086D01*
X166250529Y-102275498D01*
X166250527Y-102275497D01*
X166245956Y-102273604D01*
X166161093Y-102253230D01*
X166005882Y-102215967D01*
X166005876Y-102215966D01*
X166001069Y-102214812D01*
X165750000Y-102195052D01*
X165498931Y-102214812D01*
X165494124Y-102215966D01*
X165494118Y-102215967D01*
X165338907Y-102253230D01*
X165254044Y-102273604D01*
X165249473Y-102275497D01*
X165249471Y-102275498D01*
X165025943Y-102368086D01*
X165025939Y-102368088D01*
X165021369Y-102369981D01*
X164806635Y-102501570D01*
X164615130Y-102665130D01*
X164451570Y-102856635D01*
X164319981Y-103071369D01*
X164223604Y-103304044D01*
X164164812Y-103548931D01*
X164145052Y-103800000D01*
X132751000Y-103800000D01*
X132751000Y-103700000D01*
X147248918Y-103700000D01*
X147249000Y-103700198D01*
X147249235Y-103700765D01*
X147250000Y-103701082D01*
X147250198Y-103701000D01*
X160749802Y-103701000D01*
X160750000Y-103701082D01*
X160750765Y-103700765D01*
X160751000Y-103700198D01*
X160751082Y-103700000D01*
X160751000Y-103699802D01*
X160751000Y-97400198D01*
X160751082Y-97400000D01*
X160750765Y-97399235D01*
X160750198Y-97399000D01*
X160750000Y-97398918D01*
X160749802Y-97399000D01*
X147250198Y-97399000D01*
X147250000Y-97398918D01*
X147249802Y-97399000D01*
X147249235Y-97399235D01*
X147248918Y-97400000D01*
X147249000Y-97400198D01*
X147249000Y-103699802D01*
X147248918Y-103700000D01*
X132751000Y-103700000D01*
X132751000Y-98624243D01*
X132771002Y-98556122D01*
X132824658Y-98509629D01*
X132894932Y-98499525D01*
X132959512Y-98529019D01*
X132997896Y-98588745D01*
X133000970Y-98603196D01*
X133001109Y-98603169D01*
X133001759Y-98606574D01*
X133002220Y-98610009D01*
X133003056Y-98613373D01*
X133003056Y-98613375D01*
X133063782Y-98857842D01*
X133088470Y-98957232D01*
X133212302Y-99292892D01*
X133288756Y-99445899D01*
X133370674Y-99609844D01*
X133370678Y-99609851D01*
X133372220Y-99612937D01*
X133566291Y-99913501D01*
X133580414Y-99930848D01*
X133789988Y-100188271D01*
X133789995Y-100188278D01*
X133792173Y-100190954D01*
X134047137Y-100441944D01*
X134328103Y-100663440D01*
X134631678Y-100852766D01*
X134634804Y-100854267D01*
X134634813Y-100854272D01*
X134756590Y-100912748D01*
X134954196Y-101007637D01*
X134957465Y-101008785D01*
X135288501Y-101125037D01*
X135288509Y-101125039D01*
X135291760Y-101126181D01*
X135295122Y-101126960D01*
X135295128Y-101126962D01*
X135433671Y-101159074D01*
X135640295Y-101206967D01*
X135643712Y-101207371D01*
X135643721Y-101207373D01*
X135992885Y-101248699D01*
X135995589Y-101249019D01*
X135998304Y-101249104D01*
X135998313Y-101249105D01*
X136023269Y-101249889D01*
X136042714Y-101250500D01*
X136289817Y-101250500D01*
X136291536Y-101250405D01*
X136291551Y-101250405D01*
X136433689Y-101242582D01*
X136557234Y-101235783D01*
X136560646Y-101235215D01*
X136560656Y-101235214D01*
X136811406Y-101193477D01*
X136910153Y-101177041D01*
X137254495Y-101079927D01*
X137586100Y-100945613D01*
X137816038Y-100821545D01*
X137897914Y-100777367D01*
X137897918Y-100777364D01*
X137900964Y-100775721D01*
X138063422Y-100663440D01*
X138192443Y-100574269D01*
X138192449Y-100574265D01*
X138195284Y-100572305D01*
X138465504Y-100337819D01*
X138475287Y-100327236D01*
X139994958Y-100327236D01*
X139995321Y-100331384D01*
X139995321Y-100331389D01*
X140004780Y-100439508D01*
X140021014Y-100625065D01*
X140086232Y-100916832D01*
X140087676Y-100920756D01*
X140087676Y-100920757D01*
X140155142Y-101104126D01*
X140189464Y-101197410D01*
X140191415Y-101201110D01*
X140191417Y-101201115D01*
X140217405Y-101250405D01*
X140328898Y-101461870D01*
X140502084Y-101705565D01*
X140705979Y-101924216D01*
X140937000Y-102113979D01*
X141191090Y-102271521D01*
X141463783Y-102394074D01*
X141638027Y-102446018D01*
X141746290Y-102478293D01*
X141746292Y-102478293D01*
X141750289Y-102479485D01*
X141754409Y-102480138D01*
X141754411Y-102480138D01*
X141872423Y-102498829D01*
X142045575Y-102526254D01*
X142088135Y-102528187D01*
X142137659Y-102530436D01*
X142137678Y-102530436D01*
X142139078Y-102530500D01*
X142325834Y-102530500D01*
X142548309Y-102515723D01*
X142841377Y-102456630D01*
X143124056Y-102359296D01*
X143127789Y-102357427D01*
X143127793Y-102357425D01*
X143387640Y-102227303D01*
X143387642Y-102227302D01*
X143391378Y-102225431D01*
X143638647Y-102057387D01*
X143861520Y-101858117D01*
X144056079Y-101631120D01*
X144218908Y-101380386D01*
X144347145Y-101110319D01*
X144356601Y-101080869D01*
X144437258Y-100829651D01*
X144437258Y-100829650D01*
X144438538Y-100825664D01*
X144467396Y-100665278D01*
X144490741Y-100535531D01*
X144490742Y-100535526D01*
X144491480Y-100531422D01*
X144495544Y-100441944D01*
X144504853Y-100236934D01*
X144504853Y-100236929D01*
X144505042Y-100232764D01*
X144501150Y-100188271D01*
X144491004Y-100072309D01*
X144478986Y-99934935D01*
X144413768Y-99643168D01*
X144310536Y-99362590D01*
X144275423Y-99295991D01*
X144173055Y-99101834D01*
X144173054Y-99101833D01*
X144171102Y-99098130D01*
X143997916Y-98854435D01*
X143794021Y-98635784D01*
X143563000Y-98446021D01*
X143308910Y-98288479D01*
X143036217Y-98165926D01*
X142811007Y-98098788D01*
X142753710Y-98081707D01*
X142753708Y-98081707D01*
X142749711Y-98080515D01*
X142745591Y-98079862D01*
X142745589Y-98079862D01*
X142627577Y-98061171D01*
X142454425Y-98033746D01*
X142411865Y-98031813D01*
X142362341Y-98029564D01*
X142362322Y-98029564D01*
X142360922Y-98029500D01*
X142174166Y-98029500D01*
X141951691Y-98044277D01*
X141658623Y-98103370D01*
X141375944Y-98200704D01*
X141372211Y-98202573D01*
X141372207Y-98202575D01*
X141196268Y-98290679D01*
X141108622Y-98334569D01*
X140861353Y-98502613D01*
X140858239Y-98505397D01*
X140858238Y-98505398D01*
X140725316Y-98624243D01*
X140638480Y-98701883D01*
X140443921Y-98928880D01*
X140385986Y-99018092D01*
X140302013Y-99147399D01*
X140281092Y-99179614D01*
X140152855Y-99449681D01*
X140061462Y-99734336D01*
X140008520Y-100028578D01*
X140008331Y-100032745D01*
X140008330Y-100032752D01*
X139995147Y-100323066D01*
X139994958Y-100327236D01*
X138475287Y-100327236D01*
X138599019Y-100193384D01*
X138706014Y-100077637D01*
X138708362Y-100075097D01*
X138825738Y-99916183D01*
X138918860Y-99790106D01*
X138918865Y-99790098D01*
X138920923Y-99787312D01*
X138949302Y-99738455D01*
X139098880Y-99480937D01*
X139100621Y-99477940D01*
X139245285Y-99150717D01*
X139353167Y-98809596D01*
X139390037Y-98624243D01*
X139422291Y-98462089D01*
X139422966Y-98458696D01*
X139424255Y-98443820D01*
X139453538Y-98105712D01*
X139453538Y-98105706D01*
X139453837Y-98102256D01*
X139449099Y-97901212D01*
X139445490Y-97748045D01*
X139445489Y-97748038D01*
X139445408Y-97744581D01*
X139397780Y-97389991D01*
X139348203Y-97190404D01*
X139312367Y-97046136D01*
X139312365Y-97046129D01*
X139311530Y-97042768D01*
X139187698Y-96707108D01*
X139096822Y-96525238D01*
X139029326Y-96390156D01*
X139029322Y-96390149D01*
X139027780Y-96387063D01*
X138833709Y-96086499D01*
X138704419Y-95927691D01*
X138610012Y-95811729D01*
X138610005Y-95811722D01*
X138607827Y-95809046D01*
X138352863Y-95558056D01*
X138071897Y-95336560D01*
X137768322Y-95147234D01*
X137765196Y-95145733D01*
X137765187Y-95145728D01*
X137595759Y-95064370D01*
X137461708Y-95000000D01*
X147248918Y-95000000D01*
X147249000Y-95000198D01*
X147249235Y-95000765D01*
X147250000Y-95001082D01*
X147250198Y-95001000D01*
X160749802Y-95001000D01*
X160750000Y-95001082D01*
X160750765Y-95000765D01*
X160751000Y-95000198D01*
X160751082Y-95000000D01*
X160751000Y-94999802D01*
X160751000Y-88860198D01*
X160751082Y-88860000D01*
X160750765Y-88859235D01*
X160750198Y-88859000D01*
X160750000Y-88858918D01*
X160749802Y-88859000D01*
X147250198Y-88859000D01*
X147250000Y-88858918D01*
X147249802Y-88859000D01*
X147249235Y-88859235D01*
X147248918Y-88860000D01*
X147249000Y-88860198D01*
X147249000Y-94999802D01*
X147248918Y-95000000D01*
X137461708Y-95000000D01*
X137445804Y-94992363D01*
X137404019Y-94977689D01*
X137111499Y-94874963D01*
X137111491Y-94874961D01*
X137108240Y-94873819D01*
X137104878Y-94873040D01*
X137104872Y-94873038D01*
X136892887Y-94823903D01*
X136759705Y-94793033D01*
X136756288Y-94792629D01*
X136756279Y-94792627D01*
X136407115Y-94751301D01*
X136407114Y-94751301D01*
X136404411Y-94750981D01*
X136401696Y-94750896D01*
X136401687Y-94750895D01*
X136376731Y-94750111D01*
X136357286Y-94749500D01*
X136110183Y-94749500D01*
X136108464Y-94749595D01*
X136108449Y-94749595D01*
X135966311Y-94757418D01*
X135842766Y-94764217D01*
X135839354Y-94764785D01*
X135839344Y-94764786D01*
X135596045Y-94805283D01*
X135489847Y-94822959D01*
X135145505Y-94920073D01*
X134813900Y-95054387D01*
X134810848Y-95056034D01*
X134502086Y-95222633D01*
X134502082Y-95222636D01*
X134499036Y-95224279D01*
X134496188Y-95226248D01*
X134496187Y-95226248D01*
X134207557Y-95425731D01*
X134207551Y-95425735D01*
X134204716Y-95427695D01*
X133934496Y-95662181D01*
X133932148Y-95664721D01*
X133932146Y-95664723D01*
X133798735Y-95809046D01*
X133691638Y-95924903D01*
X133689579Y-95927691D01*
X133481140Y-96209894D01*
X133481135Y-96209902D01*
X133479077Y-96212688D01*
X133299379Y-96522060D01*
X133154715Y-96849283D01*
X133046833Y-97190404D01*
X133046158Y-97193797D01*
X133046156Y-97193805D01*
X133000579Y-97422936D01*
X132967671Y-97485845D01*
X132905976Y-97520977D01*
X132835081Y-97517177D01*
X132777495Y-97475651D01*
X132751501Y-97409584D01*
X132751000Y-97398354D01*
X132751000Y-90502916D01*
X132751066Y-90500038D01*
X132751082Y-90500000D01*
X132751068Y-90499966D01*
X132751134Y-90497097D01*
X132766976Y-90154442D01*
X132766994Y-90154075D01*
X132767887Y-90135908D01*
X132768943Y-90124686D01*
X132803063Y-89880088D01*
X132803219Y-89879009D01*
X132810620Y-89829111D01*
X132821058Y-89758748D01*
X132823035Y-89748418D01*
X132853889Y-89617234D01*
X132874884Y-89527969D01*
X132875313Y-89526202D01*
X132909816Y-89388457D01*
X132912572Y-89379030D01*
X132981836Y-89172378D01*
X132982669Y-89169973D01*
X133013725Y-89083175D01*
X133033335Y-89028368D01*
X133036694Y-89019950D01*
X133104485Y-88866418D01*
X133122922Y-88824663D01*
X133124283Y-88821685D01*
X133190465Y-88681754D01*
X133194292Y-88674314D01*
X133296896Y-88490106D01*
X133298867Y-88486694D01*
X133379739Y-88351768D01*
X133383862Y-88345339D01*
X133502185Y-88172608D01*
X133504873Y-88168838D01*
X133599409Y-88041371D01*
X133603671Y-88035942D01*
X133736871Y-87875536D01*
X133740447Y-87871415D01*
X133847421Y-87753387D01*
X133851686Y-87748908D01*
X133998908Y-87601686D01*
X134003387Y-87597421D01*
X134121415Y-87490447D01*
X134125536Y-87486871D01*
X134285942Y-87353671D01*
X134291379Y-87349403D01*
X134418838Y-87254873D01*
X134422608Y-87252185D01*
X134595341Y-87133861D01*
X134601769Y-87129738D01*
X134736694Y-87048867D01*
X134740106Y-87046896D01*
X134924316Y-86944291D01*
X134931754Y-86940465D01*
X135071685Y-86874283D01*
X135074663Y-86872922D01*
X135150612Y-86839387D01*
X135269950Y-86786694D01*
X135278368Y-86783335D01*
X135333175Y-86763725D01*
X135419973Y-86732669D01*
X135422378Y-86731836D01*
X135629030Y-86662572D01*
X135638457Y-86659816D01*
X135776202Y-86625313D01*
X135777969Y-86624884D01*
X135867234Y-86603889D01*
X135998418Y-86573035D01*
X136008748Y-86571058D01*
X136079111Y-86560620D01*
X136129009Y-86553219D01*
X136130088Y-86553063D01*
X136374686Y-86518943D01*
X136385908Y-86517887D01*
X136400421Y-86517174D01*
X136404468Y-86516975D01*
X136747097Y-86501134D01*
X136749966Y-86501068D01*
X136750000Y-86501082D01*
X136750038Y-86501066D01*
X136752916Y-86501000D01*
X171247084Y-86501000D01*
X171249962Y-86501066D01*
G37*
%TD.AperFunction*%
M02*
