%TF.GenerationSoftware,KiCad,Pcbnew,(6.0.6)*%
%TF.CreationDate,2022-11-01T14:40:16+00:00*%
%TF.ProjectId,rearcase,72656172-6361-4736-952e-6b696361645f,rev?*%
%TF.SameCoordinates,Original*%
%TF.FileFunction,Copper,L2,Bot*%
%TF.FilePolarity,Positive*%
%FSLAX46Y46*%
G04 Gerber Fmt 4.6, Leading zero omitted, Abs format (unit mm)*
G04 Created by KiCad (PCBNEW (6.0.6)) date 2022-11-01 14:40:16*
%MOMM*%
%LPD*%
G01*
G04 APERTURE LIST*
%TA.AperFunction,ComponentPad*%
%ADD10C,5.000000*%
%TD*%
%TA.AperFunction,ComponentPad*%
%ADD11C,13.000000*%
%TD*%
G04 APERTURE END LIST*
D10*
%TO.P,REF\u002A\u002A,1*%
%TO.N,GND*%
X128000000Y-86500000D03*
X179500000Y-108000000D03*
X128000000Y-108000000D03*
X150500000Y-97300000D03*
X179500000Y-86500000D03*
X175490000Y-97300000D03*
D11*
%TO.P,REF\u002A\u002A,2*%
%TO.N,N/C*%
X136950000Y-97100000D03*
%TD*%
%TA.AperFunction,Conductor*%
%TO.N,GND*%
G36*
X183504122Y-81501270D02*
G01*
X183667113Y-81511953D01*
X183667430Y-81511975D01*
X183757453Y-81518413D01*
X183773042Y-81520513D01*
X183915622Y-81548874D01*
X183917823Y-81549332D01*
X183989488Y-81564921D01*
X184025795Y-81572819D01*
X184039502Y-81576624D01*
X184173370Y-81622066D01*
X184176875Y-81623314D01*
X184284080Y-81663299D01*
X184295769Y-81668347D01*
X184363557Y-81701776D01*
X184421129Y-81730167D01*
X184425748Y-81732565D01*
X184478077Y-81761139D01*
X184527492Y-81788122D01*
X184537107Y-81793944D01*
X184612445Y-81844282D01*
X184652694Y-81871177D01*
X184658174Y-81875054D01*
X184724383Y-81924617D01*
X184751478Y-81944901D01*
X184759046Y-81951036D01*
X184863336Y-82042496D01*
X184869353Y-82048133D01*
X184951867Y-82130647D01*
X184957504Y-82136664D01*
X185048964Y-82240954D01*
X185055097Y-82248519D01*
X185124946Y-82341826D01*
X185128830Y-82347315D01*
X185206056Y-82462893D01*
X185211878Y-82472508D01*
X185238861Y-82521923D01*
X185267435Y-82574252D01*
X185269843Y-82578890D01*
X185331653Y-82704231D01*
X185336703Y-82715925D01*
X185376677Y-82823099D01*
X185377932Y-82826625D01*
X185423376Y-82960498D01*
X185427182Y-82974210D01*
X185450668Y-83082177D01*
X185451126Y-83084378D01*
X185479487Y-83226958D01*
X185481587Y-83242547D01*
X185488025Y-83332570D01*
X185488047Y-83332887D01*
X185498730Y-83495877D01*
X185499000Y-83504118D01*
X185499000Y-109495882D01*
X185498730Y-109504122D01*
X185488047Y-109667113D01*
X185488025Y-109667430D01*
X185481587Y-109757451D01*
X185479487Y-109773042D01*
X185451126Y-109915622D01*
X185450668Y-109917823D01*
X185427182Y-110025790D01*
X185423376Y-110039502D01*
X185377934Y-110173370D01*
X185376677Y-110176901D01*
X185336703Y-110284075D01*
X185331653Y-110295769D01*
X185269843Y-110421110D01*
X185267435Y-110425748D01*
X185238861Y-110478077D01*
X185211878Y-110527492D01*
X185206056Y-110537107D01*
X185128830Y-110652685D01*
X185124946Y-110658174D01*
X185075383Y-110724383D01*
X185055099Y-110751478D01*
X185048964Y-110759046D01*
X184957504Y-110863336D01*
X184951867Y-110869353D01*
X184869353Y-110951867D01*
X184863336Y-110957504D01*
X184759046Y-111048964D01*
X184751478Y-111055099D01*
X184658174Y-111124946D01*
X184652694Y-111128823D01*
X184612445Y-111155718D01*
X184537107Y-111206056D01*
X184527492Y-111211878D01*
X184478077Y-111238861D01*
X184425748Y-111267435D01*
X184421129Y-111269833D01*
X184363557Y-111298224D01*
X184295769Y-111331653D01*
X184284080Y-111336701D01*
X184176875Y-111376686D01*
X184173375Y-111377932D01*
X184039502Y-111423376D01*
X184025795Y-111427181D01*
X183989488Y-111435079D01*
X183917823Y-111450668D01*
X183915622Y-111451126D01*
X183773042Y-111479487D01*
X183757453Y-111481587D01*
X183667430Y-111488025D01*
X183667113Y-111488047D01*
X183504122Y-111498730D01*
X183495882Y-111499000D01*
X124004118Y-111499000D01*
X123995878Y-111498730D01*
X123832887Y-111488047D01*
X123832570Y-111488025D01*
X123742547Y-111481587D01*
X123726958Y-111479487D01*
X123584378Y-111451126D01*
X123582177Y-111450668D01*
X123510512Y-111435079D01*
X123474205Y-111427181D01*
X123460498Y-111423376D01*
X123326625Y-111377932D01*
X123323125Y-111376686D01*
X123215920Y-111336701D01*
X123204231Y-111331653D01*
X123136443Y-111298224D01*
X123078871Y-111269833D01*
X123074252Y-111267435D01*
X123021923Y-111238861D01*
X122972508Y-111211878D01*
X122962893Y-111206056D01*
X122887871Y-111155928D01*
X122847302Y-111128821D01*
X122841830Y-111124950D01*
X122748513Y-111055094D01*
X122740971Y-111048979D01*
X122636648Y-110957490D01*
X122630647Y-110951868D01*
X122548132Y-110869353D01*
X122542510Y-110863352D01*
X122451021Y-110759029D01*
X122444902Y-110751481D01*
X122444900Y-110751478D01*
X122375050Y-110658170D01*
X122371172Y-110652688D01*
X122293944Y-110537107D01*
X122288122Y-110527492D01*
X122261139Y-110478077D01*
X122232565Y-110425748D01*
X122230157Y-110421110D01*
X122168347Y-110295769D01*
X122163297Y-110284075D01*
X122123323Y-110176901D01*
X122122066Y-110173370D01*
X122076624Y-110039502D01*
X122072818Y-110025790D01*
X122049332Y-109917823D01*
X122048874Y-109915622D01*
X122020513Y-109773042D01*
X122018413Y-109757451D01*
X122011975Y-109667430D01*
X122011953Y-109667113D01*
X122001270Y-109504122D01*
X122001000Y-109495882D01*
X122001000Y-97135476D01*
X130174621Y-97135476D01*
X130196353Y-97643386D01*
X130196629Y-97645715D01*
X130247803Y-98078081D01*
X130256106Y-98148236D01*
X130256558Y-98150549D01*
X130256558Y-98150551D01*
X130339582Y-98575692D01*
X130353543Y-98647185D01*
X130488118Y-99137424D01*
X130488912Y-99139647D01*
X130488913Y-99139651D01*
X130635498Y-99550177D01*
X130659070Y-99616192D01*
X130660036Y-99618366D01*
X130837065Y-100016916D01*
X130865439Y-100080796D01*
X130866563Y-100082888D01*
X130866567Y-100082896D01*
X131052439Y-100428820D01*
X131106063Y-100528618D01*
X131379586Y-100957137D01*
X131684469Y-101363943D01*
X132018996Y-101746743D01*
X132020679Y-101748400D01*
X132020683Y-101748404D01*
X132067836Y-101794822D01*
X132381283Y-102103383D01*
X132383080Y-102104904D01*
X132383083Y-102104907D01*
X132767486Y-102430328D01*
X132769291Y-102431856D01*
X132771196Y-102433238D01*
X132771203Y-102433243D01*
X133055594Y-102639486D01*
X133180835Y-102730312D01*
X133182838Y-102731547D01*
X133182846Y-102731552D01*
X133611584Y-102995830D01*
X133611593Y-102995835D01*
X133613598Y-102997071D01*
X133615704Y-102998160D01*
X133615707Y-102998162D01*
X134063038Y-103229541D01*
X134063045Y-103229544D01*
X134065144Y-103230630D01*
X134067309Y-103231551D01*
X134067317Y-103231555D01*
X134299038Y-103330153D01*
X134532932Y-103429676D01*
X135014326Y-103593088D01*
X135016609Y-103593676D01*
X135016608Y-103593676D01*
X135504328Y-103719355D01*
X135504337Y-103719357D01*
X135506619Y-103719945D01*
X135766224Y-103766422D01*
X136004700Y-103809116D01*
X136004710Y-103809117D01*
X136007037Y-103809534D01*
X136009392Y-103809775D01*
X136009397Y-103809776D01*
X136312498Y-103840831D01*
X136512763Y-103861349D01*
X136574900Y-103863356D01*
X136795066Y-103870468D01*
X136795094Y-103870468D01*
X136796071Y-103870500D01*
X137082438Y-103870500D01*
X137083624Y-103870455D01*
X137083649Y-103870455D01*
X137455648Y-103856489D01*
X137455651Y-103856489D01*
X137458016Y-103856400D01*
X137963173Y-103799291D01*
X138462625Y-103704467D01*
X138953562Y-103572462D01*
X139362790Y-103428751D01*
X139430990Y-103404801D01*
X139430995Y-103404799D01*
X139433219Y-103404018D01*
X139898896Y-103200085D01*
X140283853Y-102995830D01*
X140345890Y-102962914D01*
X140345896Y-102962910D01*
X140347972Y-102961809D01*
X140777918Y-102690533D01*
X140779799Y-102689138D01*
X140779813Y-102689129D01*
X141184420Y-102389188D01*
X141186314Y-102387784D01*
X141515216Y-102103383D01*
X141569070Y-102056816D01*
X141569075Y-102056812D01*
X141570861Y-102055267D01*
X141929393Y-101694852D01*
X142259893Y-101308569D01*
X142266187Y-101299986D01*
X142468739Y-101023740D01*
X142560500Y-100898594D01*
X142829521Y-100467233D01*
X142847657Y-100432617D01*
X143064348Y-100019002D01*
X143065441Y-100016916D01*
X143066368Y-100014768D01*
X143066375Y-100014754D01*
X143266001Y-99552339D01*
X143266004Y-99552331D01*
X143266934Y-99550177D01*
X143432864Y-99069645D01*
X143544698Y-98644871D01*
X143561695Y-98580310D01*
X143561696Y-98580307D01*
X143562297Y-98578023D01*
X143654504Y-98078081D01*
X143708967Y-97572633D01*
X143723087Y-97135476D01*
X143725303Y-97066884D01*
X143725303Y-97066878D01*
X143725379Y-97064524D01*
X143703647Y-96556614D01*
X143652474Y-96124254D01*
X143644171Y-96054101D01*
X143644169Y-96054091D01*
X143643894Y-96051764D01*
X143643442Y-96049449D01*
X143546909Y-95555129D01*
X143546908Y-95555126D01*
X143546457Y-95552815D01*
X143411882Y-95062576D01*
X143265300Y-94652057D01*
X143241730Y-94586048D01*
X143241728Y-94586044D01*
X143240930Y-94583808D01*
X143190379Y-94470000D01*
X152754420Y-94470000D01*
X152757913Y-94470000D01*
X152757884Y-94470484D01*
X152759034Y-94470281D01*
X153754640Y-100105409D01*
X153754529Y-100130000D01*
X153754420Y-100130000D01*
X153772725Y-100432617D01*
X153827373Y-100730821D01*
X153917567Y-101020264D01*
X154041992Y-101296725D01*
X154043961Y-101299982D01*
X154043963Y-101299986D01*
X154083702Y-101365722D01*
X154198833Y-101556172D01*
X154201174Y-101559160D01*
X154201176Y-101559163D01*
X154382386Y-101790459D01*
X154385804Y-101794822D01*
X154600178Y-102009196D01*
X154603178Y-102011546D01*
X154603181Y-102011549D01*
X154722344Y-102104907D01*
X154838828Y-102196167D01*
X154842082Y-102198134D01*
X155095014Y-102351037D01*
X155095018Y-102351039D01*
X155098275Y-102353008D01*
X155178664Y-102389188D01*
X155371260Y-102475869D01*
X155371266Y-102475871D01*
X155374736Y-102477433D01*
X155664179Y-102567627D01*
X155962383Y-102622275D01*
X155966175Y-102622504D01*
X155966180Y-102622505D01*
X156172354Y-102634976D01*
X156265000Y-102640580D01*
X156265000Y-102637287D01*
X156276382Y-102636000D01*
X169709232Y-102636000D01*
X169725000Y-102637455D01*
X169725000Y-102640580D01*
X169740444Y-102639646D01*
X169740445Y-102639646D01*
X170023820Y-102622505D01*
X170023825Y-102622504D01*
X170027617Y-102622275D01*
X170325821Y-102567627D01*
X170615264Y-102477433D01*
X170618734Y-102475871D01*
X170618740Y-102475869D01*
X170811336Y-102389188D01*
X170891725Y-102353008D01*
X170894982Y-102351039D01*
X170894986Y-102351037D01*
X171147918Y-102198134D01*
X171151172Y-102196167D01*
X171267657Y-102104907D01*
X171386819Y-102011549D01*
X171386822Y-102011546D01*
X171389822Y-102009196D01*
X171604196Y-101794822D01*
X171607614Y-101790459D01*
X171788824Y-101559163D01*
X171788826Y-101559160D01*
X171791167Y-101556172D01*
X171906298Y-101365722D01*
X171946037Y-101299986D01*
X171946039Y-101299982D01*
X171948008Y-101296725D01*
X172072433Y-101020264D01*
X172162627Y-100730821D01*
X172217275Y-100432617D01*
X172235580Y-100130000D01*
X172235759Y-100130011D01*
X172235167Y-100106498D01*
X173225520Y-94501106D01*
X173226380Y-94499302D01*
X173226321Y-94499291D01*
X173231772Y-94470000D01*
X173235580Y-94470000D01*
X173217275Y-94167383D01*
X173162627Y-93869179D01*
X173072433Y-93579736D01*
X172948008Y-93303275D01*
X172945729Y-93299504D01*
X172793134Y-93047082D01*
X172791167Y-93043828D01*
X172628389Y-92836057D01*
X172606549Y-92808181D01*
X172606546Y-92808178D01*
X172604196Y-92805178D01*
X172389822Y-92590804D01*
X172280491Y-92505148D01*
X172154163Y-92406176D01*
X172154160Y-92406174D01*
X172151172Y-92403833D01*
X172086508Y-92364743D01*
X171894986Y-92248963D01*
X171894982Y-92248961D01*
X171891725Y-92246992D01*
X171753494Y-92184779D01*
X171618740Y-92124131D01*
X171618734Y-92124129D01*
X171615264Y-92122567D01*
X171325821Y-92032373D01*
X171027617Y-91977725D01*
X171023825Y-91977496D01*
X171023820Y-91977495D01*
X170800716Y-91964000D01*
X170725000Y-91959420D01*
X170725000Y-91962713D01*
X170713618Y-91964000D01*
X155280768Y-91964000D01*
X155265000Y-91962545D01*
X155265000Y-91959420D01*
X155249556Y-91960354D01*
X155249555Y-91960354D01*
X154966180Y-91977495D01*
X154966175Y-91977496D01*
X154962383Y-91977725D01*
X154664179Y-92032373D01*
X154374736Y-92122567D01*
X154371266Y-92124129D01*
X154371260Y-92124131D01*
X154236506Y-92184779D01*
X154098275Y-92246992D01*
X154095018Y-92248961D01*
X154095014Y-92248963D01*
X153903492Y-92364743D01*
X153838828Y-92403833D01*
X153835840Y-92406174D01*
X153835837Y-92406176D01*
X153709509Y-92505148D01*
X153600178Y-92590804D01*
X153385804Y-92805178D01*
X153383454Y-92808178D01*
X153383451Y-92808181D01*
X153361612Y-92836057D01*
X153198833Y-93043828D01*
X153196866Y-93047082D01*
X153044272Y-93299504D01*
X153041992Y-93303275D01*
X152917567Y-93579736D01*
X152827373Y-93869179D01*
X152772725Y-94167383D01*
X152754420Y-94470000D01*
X143190379Y-94470000D01*
X143063896Y-94185246D01*
X143035530Y-94121385D01*
X143035527Y-94121380D01*
X143034561Y-94119204D01*
X142900218Y-93869179D01*
X142795061Y-93673474D01*
X142793937Y-93671382D01*
X142557782Y-93301406D01*
X142521691Y-93244863D01*
X142521686Y-93244856D01*
X142520414Y-93242863D01*
X142215531Y-92836057D01*
X141881004Y-92453257D01*
X141830798Y-92403833D01*
X141635546Y-92211625D01*
X141518717Y-92096617D01*
X141379087Y-91978411D01*
X141132514Y-91769672D01*
X141132513Y-91769671D01*
X141130709Y-91768144D01*
X141128804Y-91766762D01*
X141128797Y-91766757D01*
X140721076Y-91471074D01*
X140719165Y-91469688D01*
X140717162Y-91468453D01*
X140717154Y-91468448D01*
X140288416Y-91204170D01*
X140288407Y-91204165D01*
X140286402Y-91202929D01*
X140284293Y-91201838D01*
X139836962Y-90970459D01*
X139836955Y-90970456D01*
X139834856Y-90969370D01*
X139832691Y-90968449D01*
X139832683Y-90968445D01*
X139600962Y-90869847D01*
X139367068Y-90770324D01*
X138885674Y-90606912D01*
X138835120Y-90593885D01*
X138395672Y-90480645D01*
X138395663Y-90480643D01*
X138393381Y-90480055D01*
X138133776Y-90433578D01*
X137895300Y-90390884D01*
X137895290Y-90390883D01*
X137892963Y-90390466D01*
X137890608Y-90390225D01*
X137890603Y-90390224D01*
X137587502Y-90359169D01*
X137387237Y-90338651D01*
X137325100Y-90336644D01*
X137104934Y-90329532D01*
X137104906Y-90329532D01*
X137103929Y-90329500D01*
X136817562Y-90329500D01*
X136816376Y-90329545D01*
X136816351Y-90329545D01*
X136444352Y-90343511D01*
X136444349Y-90343511D01*
X136441984Y-90343600D01*
X135936827Y-90400709D01*
X135437375Y-90495533D01*
X134946438Y-90627538D01*
X134617595Y-90743020D01*
X134469010Y-90795199D01*
X134469005Y-90795201D01*
X134466781Y-90795982D01*
X134001104Y-90999915D01*
X133717120Y-91150594D01*
X133554110Y-91237086D01*
X133554104Y-91237090D01*
X133552028Y-91238191D01*
X133122082Y-91509467D01*
X133120201Y-91510862D01*
X133120187Y-91510871D01*
X132775008Y-91766757D01*
X132713686Y-91812216D01*
X132711902Y-91813759D01*
X132347659Y-92128719D01*
X132329139Y-92144733D01*
X131970607Y-92505148D01*
X131640107Y-92891431D01*
X131339500Y-93301406D01*
X131338253Y-93303406D01*
X131338252Y-93303407D01*
X131269111Y-93414270D01*
X131070479Y-93732767D01*
X130834559Y-94183084D01*
X130833632Y-94185232D01*
X130833625Y-94185246D01*
X130662503Y-94581634D01*
X130633066Y-94649823D01*
X130467136Y-95130355D01*
X130466538Y-95132627D01*
X130466536Y-95132633D01*
X130338305Y-95619690D01*
X130337703Y-95621977D01*
X130245496Y-96121919D01*
X130191033Y-96627367D01*
X130190956Y-96629746D01*
X130190956Y-96629748D01*
X130176837Y-97066884D01*
X130174621Y-97135476D01*
X122001000Y-97135476D01*
X122001000Y-83504118D01*
X122001270Y-83495877D01*
X122011953Y-83332887D01*
X122011975Y-83332570D01*
X122018413Y-83242547D01*
X122020513Y-83226958D01*
X122048874Y-83084378D01*
X122049332Y-83082177D01*
X122072818Y-82974210D01*
X122076624Y-82960498D01*
X122122068Y-82826625D01*
X122123323Y-82823099D01*
X122163297Y-82715925D01*
X122168347Y-82704231D01*
X122230157Y-82578890D01*
X122232565Y-82574252D01*
X122261139Y-82521923D01*
X122288122Y-82472508D01*
X122293944Y-82462893D01*
X122371172Y-82347312D01*
X122375050Y-82341830D01*
X122444906Y-82248513D01*
X122451021Y-82240971D01*
X122542510Y-82136648D01*
X122548132Y-82130647D01*
X122630647Y-82048132D01*
X122636648Y-82042510D01*
X122740971Y-81951021D01*
X122748519Y-81944902D01*
X122841830Y-81875050D01*
X122847302Y-81871179D01*
X122887871Y-81844072D01*
X122962893Y-81793944D01*
X122972508Y-81788122D01*
X123021923Y-81761139D01*
X123074252Y-81732565D01*
X123078871Y-81730167D01*
X123136443Y-81701776D01*
X123204231Y-81668347D01*
X123215920Y-81663299D01*
X123323125Y-81623314D01*
X123326630Y-81622066D01*
X123460498Y-81576624D01*
X123474205Y-81572819D01*
X123510512Y-81564921D01*
X123582177Y-81549332D01*
X123584378Y-81548874D01*
X123726958Y-81520513D01*
X123742547Y-81518413D01*
X123832570Y-81511975D01*
X123832887Y-81511953D01*
X123995878Y-81501270D01*
X124004118Y-81501000D01*
X183495882Y-81501000D01*
X183504122Y-81501270D01*
G37*
%TD.AperFunction*%
%TD*%
M02*
