%TF.GenerationSoftware,KiCad,Pcbnew,(6.0.6)*%
%TF.CreationDate,2022-08-24T09:27:37+01:00*%
%TF.ProjectId,frontcase,66726f6e-7463-4617-9365-2e6b69636164,rev?*%
%TF.SameCoordinates,Original*%
%TF.FileFunction,Copper,L1,Top*%
%TF.FilePolarity,Positive*%
%FSLAX46Y46*%
G04 Gerber Fmt 4.6, Leading zero omitted, Abs format (unit mm)*
G04 Created by KiCad (PCBNEW (6.0.6)) date 2022-08-24 09:27:37*
%MOMM*%
%LPD*%
G01*
G04 APERTURE LIST*
G04 APERTURE END LIST*
%TA.AperFunction,NonConductor*%
G36*
X162249962Y-85501066D02*
G01*
X162250000Y-85501082D01*
X162250034Y-85501068D01*
X162252903Y-85501134D01*
X162595532Y-85516975D01*
X162599579Y-85517174D01*
X162614092Y-85517887D01*
X162625314Y-85518943D01*
X162869912Y-85553063D01*
X162870991Y-85553219D01*
X162920889Y-85560620D01*
X162991252Y-85571058D01*
X163001582Y-85573035D01*
X163132766Y-85603889D01*
X163222031Y-85624884D01*
X163223798Y-85625313D01*
X163361543Y-85659816D01*
X163370970Y-85662572D01*
X163577622Y-85731836D01*
X163580027Y-85732669D01*
X163666825Y-85763725D01*
X163721632Y-85783335D01*
X163730050Y-85786694D01*
X163849388Y-85839387D01*
X163925337Y-85872922D01*
X163928315Y-85874283D01*
X164068246Y-85940465D01*
X164075684Y-85944291D01*
X164259894Y-86046896D01*
X164263306Y-86048867D01*
X164391889Y-86125937D01*
X164398231Y-86129738D01*
X164404659Y-86133861D01*
X164577392Y-86252185D01*
X164581162Y-86254873D01*
X164703145Y-86345342D01*
X164708621Y-86349403D01*
X164714052Y-86353666D01*
X164780136Y-86408542D01*
X164874464Y-86486871D01*
X164878585Y-86490447D01*
X164996613Y-86597421D01*
X165001092Y-86601686D01*
X165148314Y-86748908D01*
X165152579Y-86753387D01*
X165259553Y-86871415D01*
X165263129Y-86875536D01*
X165339900Y-86967987D01*
X165393423Y-87032442D01*
X165396329Y-87035942D01*
X165400591Y-87041371D01*
X165495127Y-87168838D01*
X165497815Y-87172608D01*
X165594360Y-87313547D01*
X165616138Y-87345339D01*
X165620261Y-87351768D01*
X165701133Y-87486694D01*
X165703104Y-87490106D01*
X165798449Y-87661281D01*
X165805708Y-87674314D01*
X165809535Y-87681754D01*
X165875717Y-87821685D01*
X165877078Y-87824663D01*
X165899053Y-87874431D01*
X165963306Y-88019950D01*
X165966665Y-88028368D01*
X165980051Y-88065779D01*
X166017331Y-88169973D01*
X166018164Y-88172378D01*
X166087428Y-88379030D01*
X166090184Y-88388457D01*
X166124687Y-88526202D01*
X166125116Y-88527969D01*
X166141870Y-88599202D01*
X166176965Y-88748418D01*
X166178942Y-88758748D01*
X166186639Y-88810633D01*
X166196781Y-88879009D01*
X166196937Y-88880088D01*
X166231057Y-89124686D01*
X166232113Y-89135908D01*
X166233006Y-89154075D01*
X166233023Y-89154415D01*
X166244021Y-89392312D01*
X166248866Y-89497097D01*
X166248932Y-89499966D01*
X166248918Y-89500000D01*
X166248934Y-89500038D01*
X166249000Y-89502916D01*
X166249000Y-104497084D01*
X166248934Y-104499962D01*
X166248918Y-104500000D01*
X166248932Y-104500034D01*
X166248866Y-104502903D01*
X166233024Y-104845558D01*
X166233006Y-104845925D01*
X166232113Y-104864092D01*
X166231057Y-104875314D01*
X166196937Y-105119912D01*
X166196781Y-105120991D01*
X166178942Y-105241252D01*
X166176965Y-105251582D01*
X166146111Y-105382766D01*
X166125116Y-105472031D01*
X166124687Y-105473798D01*
X166090184Y-105611543D01*
X166087428Y-105620970D01*
X166018164Y-105827622D01*
X166017331Y-105830027D01*
X165986275Y-105916825D01*
X165966665Y-105971632D01*
X165963306Y-105980050D01*
X165910613Y-106099388D01*
X165877078Y-106175337D01*
X165875717Y-106178315D01*
X165809535Y-106318246D01*
X165805709Y-106325684D01*
X165703104Y-106509894D01*
X165701133Y-106513306D01*
X165620262Y-106648231D01*
X165616139Y-106654659D01*
X165497815Y-106827392D01*
X165495127Y-106831162D01*
X165400597Y-106958621D01*
X165396329Y-106964058D01*
X165263129Y-107124464D01*
X165259553Y-107128585D01*
X165152579Y-107246613D01*
X165148314Y-107251092D01*
X165001092Y-107398314D01*
X164996613Y-107402579D01*
X164878585Y-107509553D01*
X164874464Y-107513129D01*
X164714058Y-107646329D01*
X164708629Y-107650591D01*
X164581162Y-107745127D01*
X164577392Y-107747815D01*
X164404661Y-107866138D01*
X164398232Y-107870261D01*
X164263306Y-107951133D01*
X164259894Y-107953104D01*
X164075686Y-108055708D01*
X164068246Y-108059535D01*
X163928315Y-108125717D01*
X163925337Y-108127078D01*
X163849388Y-108160613D01*
X163730050Y-108213306D01*
X163721632Y-108216665D01*
X163666825Y-108236275D01*
X163580027Y-108267331D01*
X163577622Y-108268164D01*
X163370970Y-108337428D01*
X163361543Y-108340184D01*
X163223798Y-108374687D01*
X163222031Y-108375116D01*
X163132766Y-108396111D01*
X163001582Y-108426965D01*
X162991252Y-108428942D01*
X162920889Y-108439380D01*
X162870991Y-108446781D01*
X162869912Y-108446937D01*
X162625314Y-108481057D01*
X162614092Y-108482113D01*
X162599579Y-108482826D01*
X162595532Y-108483025D01*
X162252903Y-108498866D01*
X162250034Y-108498932D01*
X162250000Y-108498918D01*
X162249962Y-108498934D01*
X162247084Y-108499000D01*
X127752916Y-108499000D01*
X127750038Y-108498934D01*
X127750000Y-108498918D01*
X127749966Y-108498932D01*
X127747097Y-108498866D01*
X127404468Y-108483025D01*
X127400421Y-108482826D01*
X127385908Y-108482113D01*
X127374686Y-108481057D01*
X127130088Y-108446937D01*
X127129009Y-108446781D01*
X127079111Y-108439380D01*
X127008748Y-108428942D01*
X126998418Y-108426965D01*
X126867234Y-108396111D01*
X126777969Y-108375116D01*
X126776202Y-108374687D01*
X126638457Y-108340184D01*
X126629030Y-108337428D01*
X126422378Y-108268164D01*
X126419973Y-108267331D01*
X126333175Y-108236275D01*
X126278368Y-108216665D01*
X126269950Y-108213306D01*
X126150612Y-108160613D01*
X126074663Y-108127078D01*
X126071685Y-108125717D01*
X125931754Y-108059535D01*
X125924314Y-108055708D01*
X125740106Y-107953104D01*
X125736694Y-107951133D01*
X125601768Y-107870261D01*
X125595339Y-107866138D01*
X125422608Y-107747815D01*
X125418838Y-107745127D01*
X125291371Y-107650591D01*
X125285942Y-107646329D01*
X125125536Y-107513129D01*
X125121415Y-107509553D01*
X125003387Y-107402579D01*
X124998908Y-107398314D01*
X124851686Y-107251092D01*
X124847421Y-107246613D01*
X124740447Y-107128585D01*
X124736871Y-107124464D01*
X124603671Y-106964058D01*
X124599403Y-106958621D01*
X124504873Y-106831162D01*
X124502185Y-106827392D01*
X124383861Y-106654659D01*
X124379738Y-106648231D01*
X124298867Y-106513306D01*
X124296896Y-106509894D01*
X124194291Y-106325684D01*
X124190465Y-106318246D01*
X124124283Y-106178315D01*
X124122922Y-106175337D01*
X124089387Y-106099388D01*
X124036694Y-105980050D01*
X124033335Y-105971632D01*
X124013725Y-105916825D01*
X123982669Y-105830027D01*
X123981836Y-105827622D01*
X123912572Y-105620970D01*
X123909816Y-105611543D01*
X123875313Y-105473798D01*
X123874884Y-105472031D01*
X123853889Y-105382766D01*
X123823035Y-105251582D01*
X123821058Y-105241252D01*
X123803219Y-105120991D01*
X123803063Y-105119912D01*
X123768943Y-104875314D01*
X123767887Y-104864092D01*
X123766994Y-104845925D01*
X123766976Y-104845558D01*
X123751134Y-104502903D01*
X123751068Y-104500034D01*
X123751082Y-104500000D01*
X123751066Y-104499962D01*
X123751000Y-104497084D01*
X123751000Y-96985572D01*
X124444511Y-96985572D01*
X124462735Y-97316712D01*
X124463396Y-97320439D01*
X124463396Y-97320443D01*
X124490539Y-97473599D01*
X124520608Y-97643265D01*
X124521713Y-97646890D01*
X124521714Y-97646895D01*
X124592877Y-97880385D01*
X124617294Y-97960500D01*
X124751391Y-98263821D01*
X124761626Y-98281024D01*
X124919017Y-98545576D01*
X124919021Y-98545582D01*
X124920957Y-98548836D01*
X125123536Y-98811415D01*
X125126194Y-98814115D01*
X125337840Y-99029112D01*
X125356193Y-99047756D01*
X125615558Y-99254434D01*
X125897874Y-99428455D01*
X125901321Y-99430044D01*
X126195607Y-99565713D01*
X126195617Y-99565717D01*
X126199051Y-99567300D01*
X126202651Y-99568459D01*
X126202658Y-99568462D01*
X126511119Y-99667795D01*
X126511122Y-99667796D01*
X126514728Y-99668957D01*
X126518444Y-99669676D01*
X126518452Y-99669678D01*
X126836613Y-99731234D01*
X126836622Y-99731235D01*
X126840332Y-99731953D01*
X126844108Y-99732220D01*
X126844113Y-99732221D01*
X126942748Y-99739205D01*
X127102279Y-99750500D01*
X127283386Y-99750500D01*
X127285252Y-99750388D01*
X127285269Y-99750387D01*
X127527262Y-99735798D01*
X127527266Y-99735798D01*
X127531040Y-99735570D01*
X127534762Y-99734890D01*
X127534764Y-99734890D01*
X127608632Y-99721399D01*
X127857285Y-99675987D01*
X128174009Y-99577641D01*
X128476625Y-99441958D01*
X128760748Y-99270902D01*
X128763732Y-99268575D01*
X128763739Y-99268570D01*
X129019268Y-99069287D01*
X129019270Y-99069285D01*
X129022263Y-99066951D01*
X129257382Y-98833060D01*
X129462699Y-98572617D01*
X129635240Y-98289393D01*
X129639045Y-98281024D01*
X129685446Y-98227289D01*
X129753533Y-98207170D01*
X129821688Y-98227056D01*
X129868272Y-98280632D01*
X129877412Y-98309020D01*
X129910008Y-98475934D01*
X129923030Y-98542614D01*
X129923655Y-98544890D01*
X130056576Y-99029112D01*
X130056580Y-99029126D01*
X130057206Y-99031405D01*
X130227654Y-99508759D01*
X130228619Y-99510931D01*
X130405123Y-99908299D01*
X130433413Y-99971990D01*
X130434537Y-99974082D01*
X130434541Y-99974090D01*
X130672205Y-100416404D01*
X130672213Y-100416418D01*
X130673326Y-100418489D01*
X130946041Y-100845743D01*
X131250024Y-101251347D01*
X131251572Y-101253119D01*
X131251579Y-101253127D01*
X131539807Y-101582947D01*
X131583562Y-101633016D01*
X131585238Y-101634666D01*
X131585240Y-101634668D01*
X131943087Y-101986938D01*
X131943096Y-101986946D01*
X131944779Y-101988603D01*
X132331641Y-102316106D01*
X132333546Y-102317488D01*
X132333553Y-102317493D01*
X132643826Y-102542506D01*
X132741969Y-102613680D01*
X132743972Y-102614915D01*
X132743980Y-102614920D01*
X133171435Y-102878406D01*
X133171445Y-102878412D01*
X133173454Y-102879650D01*
X133623666Y-103112520D01*
X133625845Y-103113447D01*
X133625851Y-103113450D01*
X134087909Y-103310058D01*
X134087917Y-103310061D01*
X134090072Y-103310978D01*
X134092305Y-103311736D01*
X134509463Y-103453342D01*
X134570045Y-103473907D01*
X134572330Y-103474496D01*
X134572334Y-103474497D01*
X134917571Y-103563460D01*
X135060882Y-103600389D01*
X135063214Y-103600807D01*
X135063221Y-103600808D01*
X135254605Y-103635071D01*
X135559822Y-103689713D01*
X135814199Y-103715776D01*
X136061874Y-103741153D01*
X136061887Y-103741154D01*
X136064055Y-103741376D01*
X136082038Y-103741957D01*
X136345527Y-103750468D01*
X136345555Y-103750468D01*
X136346532Y-103750500D01*
X136632036Y-103750500D01*
X136633222Y-103750455D01*
X136633247Y-103750455D01*
X137004147Y-103736530D01*
X137004149Y-103736530D01*
X137006516Y-103736441D01*
X137510180Y-103679501D01*
X138008157Y-103584957D01*
X138418966Y-103474497D01*
X138495364Y-103453955D01*
X138495369Y-103453953D01*
X138497643Y-103453342D01*
X138499854Y-103452566D01*
X138499859Y-103452564D01*
X138618824Y-103410786D01*
X138975883Y-103285396D01*
X138978026Y-103284457D01*
X138978040Y-103284452D01*
X139438023Y-103083012D01*
X139438027Y-103083010D01*
X139440185Y-103082065D01*
X139824019Y-102878406D01*
X139885852Y-102845598D01*
X139885858Y-102845594D01*
X139887934Y-102844493D01*
X140316610Y-102574019D01*
X140318491Y-102572624D01*
X140318505Y-102572615D01*
X140721898Y-102273574D01*
X140723800Y-102272164D01*
X140861049Y-102153484D01*
X141105417Y-101942180D01*
X141105428Y-101942170D01*
X141107211Y-101940628D01*
X141464684Y-101581278D01*
X141794207Y-101196137D01*
X142051128Y-100845743D01*
X142092517Y-100789295D01*
X142092520Y-100789290D01*
X142093926Y-100787373D01*
X142322738Y-100420485D01*
X142360897Y-100359299D01*
X142360902Y-100359291D01*
X142362152Y-100357286D01*
X142597376Y-99908299D01*
X142740793Y-99576087D01*
X142797340Y-99445101D01*
X142797343Y-99445093D01*
X142798273Y-99442939D01*
X142927297Y-99069287D01*
X142962942Y-98966060D01*
X142962945Y-98966050D01*
X142963713Y-98963826D01*
X142964313Y-98961548D01*
X143092165Y-98475934D01*
X143092168Y-98475922D01*
X143092764Y-98473657D01*
X143093193Y-98471334D01*
X143172229Y-98042802D01*
X143184699Y-97975192D01*
X143239001Y-97471237D01*
X143239078Y-97468856D01*
X143253079Y-97035371D01*
X146744636Y-97035371D01*
X146766303Y-97541780D01*
X146782060Y-97674910D01*
X146819466Y-97990945D01*
X146825880Y-98045139D01*
X146826332Y-98047452D01*
X146826332Y-98047454D01*
X146871869Y-98280632D01*
X146923030Y-98542614D01*
X146923655Y-98544890D01*
X147056576Y-99029112D01*
X147056580Y-99029126D01*
X147057206Y-99031405D01*
X147227654Y-99508759D01*
X147228619Y-99510931D01*
X147405123Y-99908299D01*
X147433413Y-99971990D01*
X147434537Y-99974082D01*
X147434541Y-99974090D01*
X147672205Y-100416404D01*
X147672213Y-100416418D01*
X147673326Y-100418489D01*
X147946041Y-100845743D01*
X148250024Y-101251347D01*
X148251572Y-101253119D01*
X148251579Y-101253127D01*
X148539807Y-101582947D01*
X148583562Y-101633016D01*
X148585238Y-101634666D01*
X148585240Y-101634668D01*
X148943087Y-101986938D01*
X148943096Y-101986946D01*
X148944779Y-101988603D01*
X149331641Y-102316106D01*
X149333546Y-102317488D01*
X149333553Y-102317493D01*
X149643826Y-102542506D01*
X149741969Y-102613680D01*
X149743972Y-102614915D01*
X149743980Y-102614920D01*
X150171435Y-102878406D01*
X150171445Y-102878412D01*
X150173454Y-102879650D01*
X150623666Y-103112520D01*
X150625845Y-103113447D01*
X150625851Y-103113450D01*
X151087909Y-103310058D01*
X151087917Y-103310061D01*
X151090072Y-103310978D01*
X151092305Y-103311736D01*
X151509463Y-103453342D01*
X151570045Y-103473907D01*
X151572330Y-103474496D01*
X151572334Y-103474497D01*
X151917571Y-103563460D01*
X152060882Y-103600389D01*
X152063214Y-103600807D01*
X152063221Y-103600808D01*
X152254605Y-103635071D01*
X152559822Y-103689713D01*
X152814199Y-103715776D01*
X153061874Y-103741153D01*
X153061887Y-103741154D01*
X153064055Y-103741376D01*
X153082038Y-103741957D01*
X153345527Y-103750468D01*
X153345555Y-103750468D01*
X153346532Y-103750500D01*
X153632036Y-103750500D01*
X153633222Y-103750455D01*
X153633247Y-103750455D01*
X154004147Y-103736530D01*
X154004149Y-103736530D01*
X154006516Y-103736441D01*
X154510180Y-103679501D01*
X155008157Y-103584957D01*
X155418966Y-103474497D01*
X155495364Y-103453955D01*
X155495369Y-103453953D01*
X155497643Y-103453342D01*
X155499854Y-103452566D01*
X155499859Y-103452564D01*
X155618824Y-103410786D01*
X155975883Y-103285396D01*
X155978026Y-103284457D01*
X155978040Y-103284452D01*
X156438023Y-103083012D01*
X156438027Y-103083010D01*
X156440185Y-103082065D01*
X156824019Y-102878406D01*
X156885852Y-102845598D01*
X156885858Y-102845594D01*
X156887934Y-102844493D01*
X157316610Y-102574019D01*
X157318491Y-102572624D01*
X157318505Y-102572615D01*
X157721898Y-102273574D01*
X157723800Y-102272164D01*
X157861049Y-102153484D01*
X158105417Y-101942180D01*
X158105428Y-101942170D01*
X158107211Y-101940628D01*
X158464684Y-101581278D01*
X158794207Y-101196137D01*
X159051128Y-100845743D01*
X159092517Y-100789295D01*
X159092520Y-100789290D01*
X159093926Y-100787373D01*
X159322738Y-100420485D01*
X159360897Y-100359299D01*
X159360902Y-100359291D01*
X159362152Y-100357286D01*
X159597376Y-99908299D01*
X159740793Y-99576087D01*
X159797340Y-99445101D01*
X159797343Y-99445093D01*
X159798273Y-99442939D01*
X159927297Y-99069287D01*
X159962942Y-98966060D01*
X159962945Y-98966050D01*
X159963713Y-98963826D01*
X159964313Y-98961548D01*
X160092165Y-98475934D01*
X160092168Y-98475922D01*
X160092764Y-98473657D01*
X160093192Y-98471338D01*
X160093193Y-98471334D01*
X160122709Y-98311296D01*
X160154734Y-98247933D01*
X160215933Y-98211943D01*
X160286874Y-98214752D01*
X160345034Y-98255470D01*
X160354904Y-98269726D01*
X160519017Y-98545576D01*
X160519021Y-98545582D01*
X160520957Y-98548836D01*
X160723536Y-98811415D01*
X160726194Y-98814115D01*
X160937840Y-99029112D01*
X160956193Y-99047756D01*
X161215558Y-99254434D01*
X161497874Y-99428455D01*
X161501321Y-99430044D01*
X161795607Y-99565713D01*
X161795617Y-99565717D01*
X161799051Y-99567300D01*
X161802651Y-99568459D01*
X161802658Y-99568462D01*
X162111119Y-99667795D01*
X162111122Y-99667796D01*
X162114728Y-99668957D01*
X162118444Y-99669676D01*
X162118452Y-99669678D01*
X162436613Y-99731234D01*
X162436622Y-99731235D01*
X162440332Y-99731953D01*
X162444108Y-99732220D01*
X162444113Y-99732221D01*
X162542748Y-99739205D01*
X162702279Y-99750500D01*
X162883386Y-99750500D01*
X162885252Y-99750388D01*
X162885269Y-99750387D01*
X163127262Y-99735798D01*
X163127266Y-99735798D01*
X163131040Y-99735570D01*
X163134762Y-99734890D01*
X163134764Y-99734890D01*
X163208632Y-99721399D01*
X163457285Y-99675987D01*
X163774009Y-99577641D01*
X164076625Y-99441958D01*
X164360748Y-99270902D01*
X164363732Y-99268575D01*
X164363739Y-99268570D01*
X164619268Y-99069287D01*
X164619270Y-99069285D01*
X164622263Y-99066951D01*
X164857382Y-98833060D01*
X165062699Y-98572617D01*
X165235240Y-98289393D01*
X165290021Y-98168909D01*
X165370937Y-97990945D01*
X165370940Y-97990937D01*
X165372506Y-97987493D01*
X165472509Y-97671288D01*
X165533799Y-97345359D01*
X165555489Y-97014428D01*
X165537265Y-96683288D01*
X165510302Y-96531144D01*
X165480053Y-96360465D01*
X165479392Y-96356735D01*
X165470852Y-96328712D01*
X165383815Y-96043139D01*
X165382706Y-96039500D01*
X165248609Y-95736179D01*
X165125152Y-95528666D01*
X165080983Y-95454424D01*
X165080979Y-95454418D01*
X165079043Y-95451164D01*
X164876464Y-95188585D01*
X164724230Y-95033940D01*
X164646470Y-94954949D01*
X164646469Y-94954948D01*
X164643807Y-94952244D01*
X164384442Y-94745566D01*
X164102126Y-94571545D01*
X163932778Y-94493474D01*
X163804393Y-94434287D01*
X163804383Y-94434283D01*
X163800949Y-94432700D01*
X163797349Y-94431541D01*
X163797342Y-94431538D01*
X163488881Y-94332205D01*
X163488878Y-94332204D01*
X163485272Y-94331043D01*
X163481556Y-94330324D01*
X163481548Y-94330322D01*
X163163387Y-94268766D01*
X163163378Y-94268765D01*
X163159668Y-94268047D01*
X163155892Y-94267780D01*
X163155887Y-94267779D01*
X163057252Y-94260795D01*
X162897721Y-94249500D01*
X162716614Y-94249500D01*
X162714748Y-94249612D01*
X162714731Y-94249613D01*
X162472738Y-94264202D01*
X162472734Y-94264202D01*
X162468960Y-94264430D01*
X162465238Y-94265110D01*
X162465236Y-94265110D01*
X162449155Y-94268047D01*
X162142715Y-94324013D01*
X161825991Y-94422359D01*
X161523375Y-94558042D01*
X161239252Y-94729098D01*
X161236268Y-94731425D01*
X161236261Y-94731430D01*
X161215103Y-94747931D01*
X160977737Y-94933049D01*
X160742618Y-95166940D01*
X160537301Y-95427383D01*
X160364760Y-95710607D01*
X160363194Y-95714050D01*
X160363193Y-95714053D01*
X160360955Y-95718976D01*
X160314554Y-95772711D01*
X160246467Y-95792830D01*
X160178312Y-95772944D01*
X160131728Y-95719368D01*
X160122588Y-95690980D01*
X160077422Y-95459700D01*
X160077421Y-95459697D01*
X160076970Y-95457386D01*
X160003183Y-95188585D01*
X159943424Y-94970888D01*
X159943420Y-94970874D01*
X159942794Y-94968595D01*
X159772346Y-94491241D01*
X159595838Y-94093863D01*
X159567556Y-94030191D01*
X159567553Y-94030186D01*
X159566587Y-94028010D01*
X159359560Y-93642714D01*
X159327795Y-93583596D01*
X159327787Y-93583582D01*
X159326674Y-93581511D01*
X159053959Y-93154257D01*
X158749976Y-92748653D01*
X158748428Y-92746881D01*
X158748421Y-92746873D01*
X158417984Y-92368753D01*
X158417983Y-92368752D01*
X158416438Y-92366984D01*
X158414760Y-92365332D01*
X158056913Y-92013062D01*
X158056904Y-92013054D01*
X158055221Y-92011397D01*
X157668359Y-91683894D01*
X157666454Y-91682512D01*
X157666447Y-91682507D01*
X157259942Y-91387706D01*
X157258031Y-91386320D01*
X157256028Y-91385085D01*
X157256020Y-91385080D01*
X156828565Y-91121594D01*
X156828555Y-91121588D01*
X156826546Y-91120350D01*
X156376334Y-90887480D01*
X156374155Y-90886553D01*
X156374149Y-90886550D01*
X155912091Y-90689942D01*
X155912083Y-90689939D01*
X155909928Y-90689022D01*
X155665645Y-90606099D01*
X155432194Y-90526853D01*
X155432193Y-90526853D01*
X155429955Y-90526093D01*
X155427670Y-90525504D01*
X155427666Y-90525503D01*
X154999005Y-90415043D01*
X154939118Y-90399611D01*
X154936786Y-90399193D01*
X154936779Y-90399192D01*
X154708410Y-90358308D01*
X154440178Y-90310287D01*
X154177818Y-90283406D01*
X153938126Y-90258847D01*
X153938113Y-90258846D01*
X153935945Y-90258624D01*
X153917962Y-90258043D01*
X153654473Y-90249532D01*
X153654445Y-90249532D01*
X153653468Y-90249500D01*
X153367964Y-90249500D01*
X153366778Y-90249545D01*
X153366753Y-90249545D01*
X152995853Y-90263470D01*
X152995851Y-90263470D01*
X152993484Y-90263559D01*
X152489820Y-90320499D01*
X151991843Y-90415043D01*
X151780064Y-90471987D01*
X151504636Y-90546045D01*
X151504631Y-90546047D01*
X151502357Y-90546658D01*
X151500146Y-90547434D01*
X151500141Y-90547436D01*
X151392446Y-90585256D01*
X151024117Y-90714604D01*
X151021974Y-90715543D01*
X151021960Y-90715548D01*
X150561977Y-90916988D01*
X150559815Y-90917935D01*
X150314423Y-91048138D01*
X150114148Y-91154402D01*
X150114142Y-91154406D01*
X150112066Y-91155507D01*
X149683390Y-91425981D01*
X149681509Y-91427376D01*
X149681495Y-91427385D01*
X149337347Y-91682507D01*
X149276200Y-91727836D01*
X149274401Y-91729392D01*
X148894583Y-92057820D01*
X148894572Y-92057830D01*
X148892789Y-92059372D01*
X148535316Y-92418722D01*
X148205793Y-92803863D01*
X148204405Y-92805756D01*
X148204401Y-92805761D01*
X147947401Y-93156264D01*
X147906074Y-93212627D01*
X147904812Y-93214651D01*
X147904809Y-93214655D01*
X147676018Y-93581511D01*
X147637848Y-93642714D01*
X147402624Y-94091701D01*
X147327763Y-94265110D01*
X147229178Y-94493474D01*
X147201727Y-94557061D01*
X147196726Y-94571545D01*
X147058831Y-94970888D01*
X147036287Y-95036174D01*
X147035689Y-95038446D01*
X147035687Y-95038452D01*
X146924782Y-95459700D01*
X146907236Y-95526343D01*
X146906810Y-95528655D01*
X146906808Y-95528662D01*
X146877291Y-95688704D01*
X146815301Y-96024808D01*
X146760999Y-96528763D01*
X146760922Y-96531141D01*
X146760922Y-96531144D01*
X146745435Y-97010647D01*
X146744636Y-97035371D01*
X143253079Y-97035371D01*
X143255288Y-96966989D01*
X143255288Y-96966983D01*
X143255364Y-96964629D01*
X143233697Y-96458220D01*
X143193620Y-96119615D01*
X143174397Y-95957198D01*
X143174395Y-95957188D01*
X143174120Y-95954861D01*
X143142478Y-95792830D01*
X143077422Y-95459700D01*
X143077421Y-95459697D01*
X143076970Y-95457386D01*
X143003183Y-95188585D01*
X142943424Y-94970888D01*
X142943420Y-94970874D01*
X142942794Y-94968595D01*
X142772346Y-94491241D01*
X142595838Y-94093863D01*
X142567556Y-94030191D01*
X142567553Y-94030186D01*
X142566587Y-94028010D01*
X142359560Y-93642714D01*
X142327795Y-93583596D01*
X142327787Y-93583582D01*
X142326674Y-93581511D01*
X142053959Y-93154257D01*
X141749976Y-92748653D01*
X141748428Y-92746881D01*
X141748421Y-92746873D01*
X141417984Y-92368753D01*
X141417983Y-92368752D01*
X141416438Y-92366984D01*
X141414760Y-92365332D01*
X141056913Y-92013062D01*
X141056904Y-92013054D01*
X141055221Y-92011397D01*
X140668359Y-91683894D01*
X140666454Y-91682512D01*
X140666447Y-91682507D01*
X140259942Y-91387706D01*
X140258031Y-91386320D01*
X140256028Y-91385085D01*
X140256020Y-91385080D01*
X139828565Y-91121594D01*
X139828555Y-91121588D01*
X139826546Y-91120350D01*
X139588929Y-90997444D01*
X142453091Y-90997444D01*
X142453148Y-91005364D01*
X142455263Y-91104848D01*
X144178557Y-91106771D01*
X145883735Y-91108671D01*
X145883736Y-91108671D01*
X145901852Y-91108691D01*
X145876254Y-91057869D01*
X145875630Y-91056611D01*
X145871343Y-91047838D01*
X145870137Y-91045295D01*
X145866477Y-91037337D01*
X145865293Y-91034681D01*
X145863987Y-91031659D01*
X145862089Y-91027265D01*
X145860890Y-91024391D01*
X145858326Y-91018021D01*
X145856983Y-91014537D01*
X145856149Y-91012271D01*
X145849991Y-90988773D01*
X145849835Y-90987803D01*
X145849609Y-90986120D01*
X145849144Y-90983656D01*
X145848865Y-90982444D01*
X145848859Y-90982418D01*
X145848738Y-90981897D01*
X145848509Y-90980903D01*
X145847716Y-90977890D01*
X145846773Y-90974644D01*
X145845691Y-90971193D01*
X145844478Y-90967565D01*
X145841701Y-90959890D01*
X145838519Y-90951844D01*
X145837292Y-90948980D01*
X145835276Y-90944274D01*
X145835268Y-90944256D01*
X145835008Y-90943649D01*
X145833154Y-90939566D01*
X145831527Y-90936124D01*
X145831362Y-90935774D01*
X145831220Y-90935474D01*
X145827877Y-90928352D01*
X145826897Y-90926209D01*
X145824005Y-90919730D01*
X145823148Y-90917763D01*
X145820322Y-90911119D01*
X145819496Y-90909130D01*
X145816945Y-90902836D01*
X145816086Y-90900659D01*
X145813948Y-90895089D01*
X145812982Y-90892487D01*
X145811478Y-90888295D01*
X145810270Y-90884765D01*
X145809673Y-90882932D01*
X145808023Y-90877443D01*
X145807708Y-90876302D01*
X145807030Y-90873742D01*
X145806787Y-90872783D01*
X145806128Y-90870465D01*
X145805394Y-90868110D01*
X145804592Y-90865737D01*
X145804356Y-90865086D01*
X145804342Y-90865046D01*
X145803993Y-90864086D01*
X145803731Y-90863362D01*
X145803471Y-90862691D01*
X145803454Y-90862646D01*
X145803186Y-90861955D01*
X145803175Y-90861927D01*
X145802816Y-90861002D01*
X145800861Y-90856394D01*
X145799836Y-90854181D01*
X145798788Y-90852050D01*
X145797726Y-90850020D01*
X145797268Y-90849200D01*
X145797149Y-90848985D01*
X145797135Y-90848961D01*
X145796658Y-90848106D01*
X145795590Y-90846326D01*
X145794531Y-90844697D01*
X145793739Y-90843587D01*
X145792966Y-90842451D01*
X145793066Y-90842383D01*
X145784647Y-90828564D01*
X145783234Y-90825814D01*
X145782886Y-90825136D01*
X145781574Y-90822507D01*
X145777788Y-90814691D01*
X145776883Y-90812782D01*
X145772322Y-90802949D01*
X145771648Y-90801470D01*
X145766618Y-90790218D01*
X145765996Y-90788803D01*
X145760750Y-90776666D01*
X145760139Y-90775229D01*
X145754592Y-90761946D01*
X145754574Y-90761903D01*
X145748872Y-90748234D01*
X145748818Y-90748106D01*
X145748748Y-90747939D01*
X145742923Y-90734419D01*
X145739523Y-90726773D01*
X145737457Y-90722125D01*
X145737422Y-90722048D01*
X145737274Y-90721715D01*
X145731954Y-90710157D01*
X145727116Y-90700072D01*
X145722916Y-90691788D01*
X145719506Y-90685635D01*
X145718146Y-90683459D01*
X145717497Y-90682566D01*
X145707715Y-90665180D01*
X145706719Y-90663016D01*
X145704877Y-90658813D01*
X145699690Y-90646364D01*
X145698100Y-90642357D01*
X145692236Y-90626805D01*
X145691060Y-90623550D01*
X145685022Y-90606099D01*
X145683986Y-90602973D01*
X145678370Y-90585256D01*
X145677305Y-90581717D01*
X145672502Y-90564864D01*
X145671617Y-90561593D01*
X145669953Y-90555086D01*
X145669277Y-90552309D01*
X145667862Y-90546194D01*
X145667858Y-90546179D01*
X145667534Y-90544778D01*
X145664686Y-90534632D01*
X145660029Y-90521736D01*
X145653754Y-90506449D01*
X145646052Y-90489126D01*
X145627126Y-90449803D01*
X145609454Y-90415662D01*
X145605124Y-90407298D01*
X145605120Y-90407291D01*
X145604775Y-90406624D01*
X145603819Y-90404881D01*
X145580918Y-90363165D01*
X145580524Y-90362447D01*
X145578599Y-90359139D01*
X145556393Y-90320983D01*
X145556368Y-90320941D01*
X145555895Y-90320128D01*
X145532414Y-90282523D01*
X145521580Y-90266381D01*
X145520995Y-90265566D01*
X145511874Y-90252864D01*
X145511833Y-90252807D01*
X145511604Y-90252489D01*
X145495098Y-90230170D01*
X145494193Y-90228930D01*
X145479101Y-90207994D01*
X145478162Y-90206673D01*
X145465899Y-90189147D01*
X145464733Y-90187450D01*
X145460974Y-90181881D01*
X145459523Y-90179682D01*
X145456828Y-90175501D01*
X145456280Y-90174642D01*
X145450598Y-90165619D01*
X145444854Y-90156825D01*
X145444541Y-90156366D01*
X145444515Y-90156327D01*
X145439702Y-90149269D01*
X145439691Y-90149253D01*
X145439281Y-90148652D01*
X145438863Y-90148069D01*
X145438843Y-90148040D01*
X145434328Y-90141740D01*
X145433844Y-90141064D01*
X145431273Y-90137672D01*
X145429094Y-90134797D01*
X145429091Y-90134793D01*
X145428508Y-90134024D01*
X145423235Y-90127494D01*
X145417990Y-90121438D01*
X145412737Y-90115819D01*
X145407439Y-90110599D01*
X145402062Y-90105743D01*
X145396569Y-90101212D01*
X145390924Y-90096970D01*
X145385091Y-90092980D01*
X145379034Y-90089205D01*
X145377958Y-90088592D01*
X145377934Y-90088578D01*
X145373710Y-90086173D01*
X145373692Y-90086163D01*
X145372717Y-90085608D01*
X145371735Y-90085095D01*
X145371721Y-90085087D01*
X145366223Y-90082213D01*
X145366171Y-90082186D01*
X145366104Y-90082151D01*
X145359434Y-90078699D01*
X145356878Y-90077339D01*
X145354328Y-90075944D01*
X145351248Y-90074258D01*
X145348961Y-90072976D01*
X145343383Y-90069770D01*
X145341098Y-90068424D01*
X145335938Y-90065312D01*
X145333486Y-90063795D01*
X145333115Y-90063560D01*
X145329266Y-90061116D01*
X145326348Y-90059205D01*
X145323626Y-90057368D01*
X145319758Y-90054651D01*
X145319224Y-90054261D01*
X145313666Y-90049947D01*
X145312764Y-90049167D01*
X145309809Y-90046848D01*
X145308471Y-90045797D01*
X145308462Y-90045790D01*
X145306577Y-90044311D01*
X145303076Y-90041975D01*
X145298858Y-90039160D01*
X145298845Y-90039152D01*
X145297459Y-90038227D01*
X145272005Y-90023165D01*
X145239549Y-90005550D01*
X145238933Y-90005235D01*
X145238913Y-90005224D01*
X145203816Y-89987252D01*
X145203236Y-89986955D01*
X145202687Y-89986688D01*
X145202649Y-89986669D01*
X145166839Y-89969252D01*
X145166806Y-89969236D01*
X145166213Y-89968948D01*
X145165620Y-89968676D01*
X145165594Y-89968664D01*
X145141595Y-89957668D01*
X145131626Y-89953100D01*
X145102622Y-89940982D01*
X145101291Y-89940496D01*
X145101280Y-89940492D01*
X145092938Y-89937448D01*
X145092929Y-89937445D01*
X145091197Y-89936813D01*
X145082348Y-89934165D01*
X145081676Y-89933980D01*
X145081621Y-89933964D01*
X145076509Y-89932556D01*
X145071662Y-89931116D01*
X145066010Y-89929309D01*
X145062664Y-89928186D01*
X145054965Y-89925481D01*
X145052273Y-89924501D01*
X145043315Y-89921123D01*
X145040983Y-89920217D01*
X145031501Y-89916422D01*
X145029286Y-89915510D01*
X145027280Y-89914661D01*
X145019810Y-89911501D01*
X145017512Y-89910501D01*
X145008500Y-89906466D01*
X145005943Y-89905284D01*
X144996534Y-89900798D01*
X144985759Y-89895688D01*
X144974110Y-89890544D01*
X144966182Y-89887257D01*
X144962552Y-89885752D01*
X144962531Y-89885743D01*
X144961958Y-89885506D01*
X144961382Y-89885281D01*
X144961334Y-89885262D01*
X144950318Y-89880965D01*
X144950288Y-89880953D01*
X144949671Y-89880713D01*
X144937618Y-89876306D01*
X144932037Y-89874413D01*
X144927059Y-89872724D01*
X144927045Y-89872719D01*
X144926168Y-89872422D01*
X144919762Y-89870454D01*
X144916908Y-89869577D01*
X144916899Y-89869575D01*
X144915690Y-89869203D01*
X144906553Y-89866787D01*
X144906217Y-89866703D01*
X144906137Y-89866682D01*
X144903950Y-89866133D01*
X144900736Y-89865281D01*
X144899465Y-89864926D01*
X144896535Y-89864070D01*
X144894948Y-89863585D01*
X144892323Y-89862751D01*
X144891140Y-89862361D01*
X144887368Y-89861051D01*
X144886818Y-89860850D01*
X144882883Y-89859413D01*
X144878080Y-89857545D01*
X144876372Y-89856841D01*
X144874424Y-89856037D01*
X144869532Y-89853895D01*
X144867297Y-89852860D01*
X144842812Y-89837744D01*
X144842741Y-89837837D01*
X144841823Y-89837134D01*
X144841822Y-89837133D01*
X144840929Y-89836423D01*
X144840038Y-89835766D01*
X144840010Y-89835744D01*
X144836246Y-89832967D01*
X144836242Y-89832964D01*
X144835525Y-89832435D01*
X144829576Y-89828294D01*
X144829035Y-89827936D01*
X144829001Y-89827913D01*
X144824486Y-89824927D01*
X144823274Y-89824125D01*
X144816813Y-89820053D01*
X144816218Y-89819696D01*
X144811066Y-89816609D01*
X144811051Y-89816600D01*
X144810388Y-89816203D01*
X144807318Y-89814468D01*
X144805019Y-89813167D01*
X144804987Y-89813149D01*
X144804190Y-89812699D01*
X144798414Y-89809667D01*
X144798395Y-89809657D01*
X144793027Y-89806838D01*
X144788695Y-89804454D01*
X144785759Y-89802762D01*
X144781455Y-89800166D01*
X144779586Y-89798987D01*
X144778799Y-89798491D01*
X144774447Y-89795617D01*
X144772096Y-89793994D01*
X144767799Y-89790892D01*
X144765678Y-89789292D01*
X144761450Y-89785959D01*
X144759601Y-89784436D01*
X144755388Y-89780807D01*
X144753738Y-89779321D01*
X144749666Y-89775486D01*
X144748254Y-89774096D01*
X144744264Y-89769986D01*
X144743562Y-89769229D01*
X144743000Y-89768622D01*
X144739151Y-89764275D01*
X144738061Y-89762985D01*
X144734374Y-89758408D01*
X144733405Y-89757147D01*
X144729961Y-89752435D01*
X144729139Y-89751254D01*
X144725809Y-89746216D01*
X144725072Y-89745039D01*
X144722012Y-89739887D01*
X144721365Y-89738736D01*
X144718524Y-89733385D01*
X144718423Y-89733183D01*
X145723337Y-89733183D01*
X145723399Y-89735723D01*
X145723673Y-89746948D01*
X145723752Y-89750200D01*
X145724097Y-89753117D01*
X145724098Y-89753128D01*
X145724576Y-89757163D01*
X145725621Y-89765993D01*
X145726355Y-89769225D01*
X145726356Y-89769229D01*
X145727755Y-89775384D01*
X145728945Y-89780623D01*
X145730166Y-89784075D01*
X145732423Y-89790458D01*
X145732426Y-89790465D01*
X145733729Y-89794149D01*
X145735483Y-89797652D01*
X145738042Y-89802762D01*
X145739978Y-89806629D01*
X145742208Y-89809950D01*
X145742209Y-89809952D01*
X145745510Y-89814869D01*
X145745514Y-89814875D01*
X145747696Y-89818124D01*
X145756886Y-89828693D01*
X145767554Y-89838394D01*
X145770252Y-89840369D01*
X145776814Y-89845174D01*
X145776819Y-89845177D01*
X145779702Y-89847288D01*
X145782810Y-89849059D01*
X145790658Y-89853532D01*
X145790671Y-89853538D01*
X145792872Y-89854793D01*
X145795187Y-89855874D01*
X145806274Y-89861051D01*
X145810576Y-89863060D01*
X145832231Y-89871925D01*
X145857252Y-89881225D01*
X145858250Y-89881557D01*
X145858269Y-89881564D01*
X145914081Y-89900148D01*
X145914098Y-89900153D01*
X145915064Y-89900475D01*
X145916050Y-89900767D01*
X145916060Y-89900770D01*
X145978474Y-89919245D01*
X145978500Y-89919252D01*
X145979347Y-89919503D01*
X146045434Y-89937002D01*
X146060388Y-89940470D01*
X146107736Y-89951451D01*
X146107755Y-89951455D01*
X146108660Y-89951665D01*
X146109580Y-89951850D01*
X146109583Y-89951851D01*
X146136926Y-89957360D01*
X146136955Y-89957365D01*
X146137742Y-89957524D01*
X146164359Y-89962184D01*
X146173137Y-89963412D01*
X146186339Y-89965260D01*
X146186353Y-89965262D01*
X146187928Y-89965482D01*
X146196067Y-89966205D01*
X146206759Y-89967155D01*
X146206773Y-89967156D01*
X146207865Y-89967253D01*
X146249526Y-89969470D01*
X146253778Y-89957707D01*
X146253779Y-89957706D01*
X146255788Y-89952148D01*
X146297758Y-89894885D01*
X146364025Y-89869403D01*
X146433548Y-89883793D01*
X146481084Y-89928131D01*
X146481101Y-89928158D01*
X146489739Y-89941927D01*
X146491161Y-89944194D01*
X146491831Y-89945274D01*
X146495749Y-89951665D01*
X146503743Y-89964707D01*
X146504232Y-89965513D01*
X146516589Y-89986015D01*
X146517126Y-89986914D01*
X146528532Y-90006200D01*
X146528619Y-90006345D01*
X146528726Y-90006526D01*
X146534541Y-90016155D01*
X146541073Y-90026406D01*
X146541414Y-90026918D01*
X146541434Y-90026949D01*
X146544480Y-90031524D01*
X146548100Y-90036962D01*
X146555399Y-90047508D01*
X146555693Y-90047917D01*
X146555710Y-90047941D01*
X146561548Y-90056061D01*
X146562749Y-90057731D01*
X146563075Y-90058166D01*
X146563110Y-90058214D01*
X146569498Y-90066742D01*
X146569520Y-90066771D01*
X146569927Y-90067314D01*
X146576711Y-90075944D01*
X146577178Y-90076502D01*
X146602823Y-90130820D01*
X146603061Y-90131992D01*
X146604475Y-90140412D01*
X146605299Y-90146591D01*
X146606064Y-90153982D01*
X146606653Y-90161971D01*
X146606965Y-90168582D01*
X146607163Y-90178006D01*
X146607145Y-90184011D01*
X146606859Y-90194602D01*
X146606583Y-90200197D01*
X146605755Y-90211697D01*
X146605265Y-90216952D01*
X146603889Y-90228930D01*
X146603874Y-90229064D01*
X146603173Y-90234219D01*
X146601215Y-90246694D01*
X146600318Y-90251735D01*
X146598948Y-90258624D01*
X146597783Y-90264475D01*
X146596682Y-90269470D01*
X146593586Y-90282261D01*
X146592247Y-90287327D01*
X146588652Y-90299862D01*
X146587035Y-90305072D01*
X146585292Y-90310287D01*
X146582049Y-90319990D01*
X146571517Y-90351872D01*
X146571347Y-90352418D01*
X146556444Y-90400204D01*
X146554985Y-90404881D01*
X146554900Y-90405160D01*
X146554866Y-90405272D01*
X146548599Y-90425917D01*
X146534719Y-90471643D01*
X146512984Y-90544780D01*
X146487755Y-90629117D01*
X146487660Y-90629431D01*
X146457857Y-90726773D01*
X146457686Y-90727323D01*
X146427883Y-90822898D01*
X146427091Y-90825437D01*
X146426922Y-90825973D01*
X146399001Y-90913633D01*
X146355841Y-91047925D01*
X146355676Y-91048437D01*
X146355614Y-91048635D01*
X146355588Y-91048717D01*
X146343694Y-91086737D01*
X146337656Y-91106038D01*
X146349391Y-91106565D01*
X146357787Y-91106688D01*
X146382736Y-91107052D01*
X146382785Y-91107053D01*
X146383024Y-91107056D01*
X146383294Y-91107058D01*
X146383407Y-91107059D01*
X146506551Y-91107890D01*
X146912620Y-91108660D01*
X147487585Y-91108660D01*
X147491904Y-91083894D01*
X147544216Y-90789936D01*
X147544313Y-90789395D01*
X147606348Y-90449529D01*
X147606385Y-90449323D01*
X147614063Y-90406624D01*
X147623698Y-90353047D01*
X147637586Y-90270028D01*
X147643543Y-90230170D01*
X147647959Y-90200625D01*
X147647964Y-90200588D01*
X147648080Y-90199812D01*
X147655252Y-90141740D01*
X147655964Y-90133280D01*
X147659002Y-90097149D01*
X147659170Y-90095153D01*
X147659692Y-90069770D01*
X147659855Y-90061847D01*
X147659855Y-90061835D01*
X147659905Y-90059391D01*
X147659406Y-90050679D01*
X147659242Y-90047815D01*
X147659241Y-90047803D01*
X147659101Y-90045363D01*
X147657527Y-90033794D01*
X147655191Y-90024602D01*
X147652104Y-90017704D01*
X147651005Y-90016074D01*
X147649302Y-90013834D01*
X147644229Y-90007683D01*
X147642375Y-90005550D01*
X147640475Y-90003366D01*
X147637173Y-89999568D01*
X147628421Y-89989804D01*
X147628225Y-89989590D01*
X147618495Y-89978967D01*
X147618414Y-89978880D01*
X147618258Y-89978709D01*
X147618106Y-89978545D01*
X147618035Y-89978469D01*
X147607080Y-89966712D01*
X147606973Y-89966597D01*
X147606922Y-89966543D01*
X147606848Y-89966464D01*
X147595127Y-89954078D01*
X147595057Y-89954005D01*
X147594851Y-89953787D01*
X147582426Y-89940849D01*
X147582063Y-89940470D01*
X147576061Y-89934165D01*
X147570222Y-89928031D01*
X147568530Y-89926217D01*
X147558996Y-89915792D01*
X147556850Y-89913385D01*
X147549030Y-89904382D01*
X147546378Y-89901226D01*
X147540279Y-89893722D01*
X147537127Y-89889678D01*
X147532866Y-89883972D01*
X147508127Y-89817428D01*
X147512266Y-89775384D01*
X147512618Y-89774096D01*
X147513020Y-89772624D01*
X147515101Y-89764553D01*
X147519282Y-89747256D01*
X147519356Y-89746948D01*
X147519360Y-89746931D01*
X147519475Y-89746455D01*
X147523693Y-89727642D01*
X147525578Y-89718679D01*
X147525900Y-89717061D01*
X147527225Y-89710389D01*
X147527254Y-89710238D01*
X147528091Y-89705928D01*
X147534542Y-89672678D01*
X147537086Y-89659794D01*
X147541748Y-89636183D01*
X147541753Y-89636158D01*
X147541880Y-89635513D01*
X147543250Y-89627684D01*
X147544413Y-89621040D01*
X147544416Y-89621020D01*
X147544672Y-89619557D01*
X147546670Y-89603678D01*
X147546930Y-89600322D01*
X147547769Y-89589456D01*
X147547769Y-89589450D01*
X147547886Y-89587940D01*
X147548333Y-89572408D01*
X147548026Y-89557146D01*
X147546978Y-89542219D01*
X147545201Y-89527692D01*
X147542709Y-89513628D01*
X147541798Y-89509767D01*
X147539946Y-89501915D01*
X147539945Y-89501909D01*
X147539516Y-89500093D01*
X147535634Y-89487151D01*
X147531078Y-89474867D01*
X147525859Y-89463304D01*
X147519992Y-89452529D01*
X147515854Y-89446212D01*
X147515029Y-89444953D01*
X147515027Y-89444951D01*
X147513490Y-89442604D01*
X147510051Y-89438256D01*
X147508268Y-89436000D01*
X147508260Y-89435990D01*
X147506366Y-89433596D01*
X147505824Y-89433033D01*
X147476250Y-89368923D01*
X147475009Y-89345231D01*
X147476401Y-89312087D01*
X147476401Y-89312071D01*
X147476482Y-89310146D01*
X147475792Y-89275813D01*
X147472950Y-89243112D01*
X147468004Y-89212120D01*
X147461000Y-89182910D01*
X147459893Y-89179549D01*
X147452865Y-89158230D01*
X147451985Y-89155560D01*
X147449235Y-89149193D01*
X147441901Y-89132217D01*
X147441901Y-89132216D01*
X147441005Y-89130143D01*
X147434793Y-89118184D01*
X147428107Y-89106737D01*
X147422235Y-89097767D01*
X147421864Y-89097200D01*
X147421852Y-89097183D01*
X147420954Y-89095811D01*
X147419210Y-89093431D01*
X147414340Y-89086782D01*
X147414330Y-89086769D01*
X147413338Y-89085415D01*
X147410858Y-89082386D01*
X147406376Y-89076914D01*
X147406374Y-89076912D01*
X147405267Y-89075560D01*
X147396745Y-89066254D01*
X147387779Y-89057508D01*
X147378374Y-89049329D01*
X147368536Y-89041729D01*
X147358271Y-89034716D01*
X147347585Y-89028299D01*
X147336484Y-89022489D01*
X147329872Y-89019505D01*
X147326620Y-89018037D01*
X147326611Y-89018033D01*
X147324973Y-89017294D01*
X147323290Y-89016649D01*
X147323277Y-89016643D01*
X147319379Y-89015148D01*
X147313059Y-89012724D01*
X147300746Y-89008789D01*
X147288042Y-89005497D01*
X147274952Y-89002859D01*
X147261481Y-89000884D01*
X147261215Y-89000847D01*
X147261199Y-89000845D01*
X147259796Y-89000651D01*
X147195058Y-88971506D01*
X147156353Y-88911988D01*
X147152190Y-88888810D01*
X147151732Y-88888858D01*
X147151549Y-88887106D01*
X147151418Y-88885380D01*
X147150350Y-88877303D01*
X147149713Y-88872481D01*
X147149711Y-88872469D01*
X147149465Y-88870608D01*
X147147987Y-88862957D01*
X147147137Y-88858560D01*
X147147136Y-88858554D01*
X147146753Y-88856574D01*
X147143293Y-88843300D01*
X147139097Y-88830806D01*
X147138197Y-88828666D01*
X147138191Y-88828651D01*
X147135146Y-88821414D01*
X147135143Y-88821407D01*
X147134178Y-88819114D01*
X147128549Y-88808245D01*
X147122220Y-88798221D01*
X147115205Y-88789063D01*
X147107515Y-88780792D01*
X147099163Y-88773430D01*
X147090161Y-88766998D01*
X147080521Y-88761516D01*
X147070255Y-88757008D01*
X147067220Y-88756027D01*
X147067211Y-88756024D01*
X147059874Y-88753654D01*
X147059376Y-88753493D01*
X147054477Y-88751996D01*
X147049290Y-88750288D01*
X147044216Y-88748494D01*
X147040989Y-88747304D01*
X147033127Y-88744278D01*
X147030757Y-88743338D01*
X147021212Y-88739437D01*
X147019211Y-88738599D01*
X147008736Y-88734106D01*
X147006957Y-88733327D01*
X146996034Y-88728434D01*
X146994288Y-88727635D01*
X146983592Y-88722635D01*
X146981598Y-88721682D01*
X146976829Y-88719350D01*
X146970398Y-88716205D01*
X146935202Y-88699346D01*
X146899077Y-88683521D01*
X146898129Y-88683142D01*
X146898118Y-88683137D01*
X146885556Y-88678110D01*
X146862710Y-88668967D01*
X146861792Y-88668633D01*
X146861759Y-88668621D01*
X146827801Y-88656289D01*
X146827793Y-88656286D01*
X146826790Y-88655922D01*
X146825776Y-88655592D01*
X146825754Y-88655585D01*
X146793173Y-88645000D01*
X146793166Y-88644998D01*
X146792006Y-88644621D01*
X146759045Y-88635303D01*
X146743464Y-88631461D01*
X146739660Y-88630628D01*
X146738549Y-88630384D01*
X146676289Y-88596262D01*
X146642361Y-88533897D01*
X146640559Y-88491178D01*
X146644586Y-88459971D01*
X146645586Y-88452224D01*
X146646252Y-88446566D01*
X146664783Y-88289013D01*
X146677626Y-88179819D01*
X146678273Y-88173667D01*
X146703279Y-87935689D01*
X146711804Y-87854559D01*
X146721124Y-87756924D01*
X146743463Y-87522923D01*
X146743469Y-87522856D01*
X146743497Y-87522562D01*
X146759150Y-87336263D01*
X146768048Y-87230365D01*
X146768051Y-87230321D01*
X146768083Y-87229945D01*
X146774067Y-87146645D01*
X146774092Y-87146211D01*
X146777764Y-87081958D01*
X146777765Y-87081932D01*
X146777818Y-87081006D01*
X146779135Y-87030662D01*
X146779043Y-87024791D01*
X146778840Y-87011802D01*
X146778839Y-87011783D01*
X146778819Y-87010487D01*
X146777818Y-86993250D01*
X146776109Y-86978655D01*
X146773665Y-86966406D01*
X146772552Y-86962862D01*
X146771758Y-86960330D01*
X146771755Y-86960323D01*
X146770463Y-86956207D01*
X146766475Y-86947764D01*
X146761678Y-86940781D01*
X146756047Y-86934962D01*
X146749555Y-86930012D01*
X146749711Y-86929807D01*
X146748735Y-86928939D01*
X146749529Y-86928046D01*
X146711984Y-86885273D01*
X146711264Y-86883831D01*
X146711118Y-86883540D01*
X146709776Y-86880894D01*
X146709769Y-86880882D01*
X146709307Y-86879970D01*
X146707321Y-86876366D01*
X146705180Y-86872754D01*
X146704704Y-86872002D01*
X146704689Y-86871977D01*
X146703353Y-86869866D01*
X146702904Y-86869156D01*
X146700512Y-86865599D01*
X146698025Y-86862105D01*
X146695461Y-86858700D01*
X146694198Y-86857112D01*
X146693401Y-86856109D01*
X146693382Y-86856086D01*
X146692843Y-86855408D01*
X146692147Y-86854580D01*
X146690785Y-86852962D01*
X146690188Y-86852252D01*
X146687517Y-86849258D01*
X146686688Y-86848385D01*
X146685594Y-86847232D01*
X146685578Y-86847216D01*
X146684851Y-86846450D01*
X146682208Y-86843852D01*
X146682467Y-86843589D01*
X146647541Y-86783857D01*
X146646840Y-86781055D01*
X146646339Y-86779052D01*
X146644275Y-86772628D01*
X146641778Y-86766265D01*
X146638856Y-86759971D01*
X146635518Y-86753754D01*
X146634432Y-86751974D01*
X146632638Y-86749037D01*
X146631774Y-86747621D01*
X146627633Y-86741579D01*
X146626527Y-86740127D01*
X146624020Y-86736839D01*
X146624020Y-86736838D01*
X146623103Y-86735636D01*
X146618194Y-86729799D01*
X146612914Y-86724075D01*
X146607274Y-86718472D01*
X146601281Y-86712997D01*
X146594946Y-86707657D01*
X146588276Y-86702461D01*
X146584242Y-86699550D01*
X146582214Y-86698086D01*
X146582194Y-86698072D01*
X146581282Y-86697414D01*
X146573972Y-86692525D01*
X146566355Y-86687800D01*
X146558441Y-86683248D01*
X146550238Y-86678875D01*
X146541756Y-86674689D01*
X146540900Y-86674299D01*
X146540884Y-86674291D01*
X146533855Y-86671085D01*
X146533823Y-86671071D01*
X146533003Y-86670697D01*
X146532177Y-86670350D01*
X146532148Y-86670337D01*
X146528546Y-86668823D01*
X146523989Y-86666907D01*
X146514723Y-86663326D01*
X146513910Y-86663038D01*
X146513893Y-86663032D01*
X146506037Y-86660252D01*
X146506022Y-86660247D01*
X146505214Y-86659961D01*
X146495470Y-86656819D01*
X146489650Y-86655120D01*
X146486308Y-86654144D01*
X146486288Y-86654139D01*
X146485502Y-86653909D01*
X146475318Y-86651237D01*
X146474519Y-86651050D01*
X146474509Y-86651048D01*
X146470572Y-86650129D01*
X146464926Y-86648811D01*
X146454337Y-86646637D01*
X146453659Y-86646515D01*
X146453625Y-86646508D01*
X146442963Y-86644583D01*
X146434031Y-86642970D01*
X146433299Y-86642857D01*
X146433270Y-86642852D01*
X146416420Y-86640248D01*
X146416401Y-86640245D01*
X146415415Y-86640093D01*
X146414404Y-86639971D01*
X146414397Y-86639970D01*
X146399719Y-86638198D01*
X146399700Y-86638196D01*
X146398390Y-86638038D01*
X146397071Y-86637936D01*
X146397064Y-86637935D01*
X146394240Y-86637716D01*
X146382854Y-86636833D01*
X146368709Y-86636509D01*
X146355855Y-86637095D01*
X146349430Y-86637935D01*
X146346530Y-86638314D01*
X146346528Y-86638314D01*
X146344190Y-86638620D01*
X146338773Y-86639745D01*
X146337095Y-86640191D01*
X146337087Y-86640193D01*
X146335405Y-86640640D01*
X146335393Y-86640644D01*
X146333616Y-86641116D01*
X146331302Y-86641880D01*
X146330590Y-86642114D01*
X146330579Y-86642118D01*
X146328706Y-86642736D01*
X146326884Y-86643466D01*
X146326874Y-86643470D01*
X146326439Y-86643645D01*
X146324031Y-86644610D01*
X146319579Y-86646741D01*
X146317723Y-86647788D01*
X146317187Y-86648090D01*
X146317179Y-86648095D01*
X146315337Y-86649134D01*
X146313573Y-86650293D01*
X146313062Y-86650628D01*
X146313055Y-86650633D01*
X146311292Y-86651791D01*
X146307432Y-86654716D01*
X146303745Y-86657914D01*
X146300218Y-86661387D01*
X146293593Y-86669176D01*
X146288173Y-86677072D01*
X146233129Y-86721914D01*
X146207982Y-86729427D01*
X146207597Y-86729482D01*
X146205086Y-86730053D01*
X146205083Y-86730054D01*
X146203324Y-86730454D01*
X146203314Y-86730457D01*
X146200817Y-86731025D01*
X146197819Y-86731972D01*
X146196689Y-86732329D01*
X146196680Y-86732332D01*
X146194225Y-86733108D01*
X146191837Y-86734085D01*
X146191827Y-86734088D01*
X146190852Y-86734487D01*
X146187839Y-86735719D01*
X146185562Y-86736874D01*
X146183936Y-86737698D01*
X146183929Y-86737702D01*
X146181679Y-86738843D01*
X146179519Y-86740167D01*
X146177901Y-86741158D01*
X146177888Y-86741167D01*
X146175765Y-86742468D01*
X146173737Y-86743945D01*
X146172105Y-86745133D01*
X146172097Y-86745139D01*
X146170116Y-86746582D01*
X146164750Y-86751171D01*
X146159687Y-86756222D01*
X146154947Y-86761724D01*
X146150549Y-86767661D01*
X146149851Y-86767144D01*
X146097419Y-86809853D01*
X146086514Y-86813857D01*
X146085405Y-86814207D01*
X146082630Y-86815083D01*
X146079971Y-86816160D01*
X146079477Y-86816360D01*
X146079466Y-86816365D01*
X146077220Y-86817275D01*
X146074503Y-86818626D01*
X146074120Y-86818817D01*
X146074114Y-86818820D01*
X146071992Y-86819876D01*
X146069955Y-86821089D01*
X146069950Y-86821092D01*
X146069023Y-86821644D01*
X146069016Y-86821649D01*
X146066982Y-86822860D01*
X146065034Y-86824227D01*
X146065033Y-86824228D01*
X146064179Y-86824827D01*
X146064170Y-86824834D01*
X146062228Y-86826197D01*
X146060404Y-86827695D01*
X146060391Y-86827705D01*
X146059877Y-86828128D01*
X146057767Y-86829861D01*
X146056022Y-86831534D01*
X146056015Y-86831540D01*
X146055740Y-86831804D01*
X146053635Y-86833822D01*
X146051977Y-86835685D01*
X146051654Y-86836048D01*
X146049869Y-86838053D01*
X146046507Y-86842525D01*
X146044988Y-86844843D01*
X146043585Y-86847211D01*
X146042300Y-86849626D01*
X146041140Y-86852083D01*
X146040108Y-86854580D01*
X146039209Y-86857112D01*
X146038448Y-86859677D01*
X146037830Y-86862270D01*
X146032966Y-86885707D01*
X146032905Y-86886017D01*
X146032896Y-86886062D01*
X146032696Y-86887082D01*
X146031086Y-86895281D01*
X146029593Y-86903643D01*
X146028501Y-86910959D01*
X146027822Y-86917390D01*
X146027572Y-86923102D01*
X146027764Y-86928256D01*
X146028412Y-86933018D01*
X146029529Y-86937551D01*
X146031130Y-86942018D01*
X146033229Y-86946583D01*
X146035838Y-86951410D01*
X146038974Y-86956663D01*
X146039446Y-86957405D01*
X146039451Y-86957414D01*
X146046443Y-86968419D01*
X146047300Y-86969787D01*
X146055032Y-86982308D01*
X146057632Y-86986718D01*
X146063237Y-86996683D01*
X146066172Y-87002222D01*
X146070426Y-87010756D01*
X146073503Y-87017405D01*
X146076670Y-87024809D01*
X146079639Y-87032426D01*
X146080879Y-87035942D01*
X146081975Y-87039048D01*
X146084597Y-87047394D01*
X146086355Y-87053755D01*
X146088428Y-87062446D01*
X146089777Y-87069145D01*
X146091199Y-87077729D01*
X146092195Y-87085368D01*
X146092985Y-87093451D01*
X146093580Y-87102567D01*
X146093843Y-87109857D01*
X146093921Y-87120864D01*
X146093805Y-87127204D01*
X146093234Y-87140372D01*
X146092887Y-87145728D01*
X146091547Y-87161271D01*
X146091096Y-87165619D01*
X146090013Y-87174519D01*
X146088899Y-87183672D01*
X146088418Y-87187205D01*
X146085313Y-87207829D01*
X146084871Y-87210557D01*
X146080832Y-87233854D01*
X146080461Y-87235888D01*
X146075340Y-87262682D01*
X146071305Y-87284344D01*
X146066915Y-87310265D01*
X146057632Y-87370982D01*
X146057573Y-87371416D01*
X146057570Y-87371435D01*
X146055223Y-87388631D01*
X146048618Y-87437025D01*
X146048574Y-87437396D01*
X146048568Y-87437439D01*
X146041000Y-87500589D01*
X146034011Y-87562113D01*
X146033910Y-87562975D01*
X146026587Y-87623705D01*
X146026471Y-87624633D01*
X146019704Y-87677452D01*
X146019499Y-87678978D01*
X146014055Y-87717707D01*
X146014048Y-87717759D01*
X146014016Y-87717995D01*
X146013997Y-87718128D01*
X146012140Y-87731671D01*
X146011642Y-87735305D01*
X146009051Y-87757480D01*
X146003642Y-87812119D01*
X146003603Y-87812588D01*
X146003600Y-87812622D01*
X145998850Y-87869915D01*
X145998472Y-87874470D01*
X145998443Y-87874890D01*
X145998439Y-87874948D01*
X145994202Y-87937178D01*
X145994170Y-87937679D01*
X145991419Y-87982311D01*
X145991346Y-87983425D01*
X145988932Y-88017642D01*
X145988732Y-88020124D01*
X145986528Y-88044494D01*
X145986010Y-88049220D01*
X145983880Y-88065779D01*
X145983031Y-88071384D01*
X145982347Y-88075300D01*
X145981429Y-88080020D01*
X145980767Y-88083105D01*
X145979477Y-88088527D01*
X145978991Y-88090385D01*
X145976854Y-88097653D01*
X145976837Y-88097705D01*
X145974480Y-88104291D01*
X145972296Y-88109897D01*
X145969068Y-88117445D01*
X145964221Y-88127829D01*
X145958264Y-88140946D01*
X145957718Y-88142315D01*
X145953888Y-88151917D01*
X145952262Y-88155992D01*
X145946251Y-88172805D01*
X145945971Y-88173666D01*
X145945971Y-88173667D01*
X145941530Y-88187341D01*
X145940268Y-88191225D01*
X145934350Y-88211091D01*
X145932262Y-88218685D01*
X145929556Y-88228524D01*
X145928533Y-88232243D01*
X145917349Y-88277764D01*
X145907011Y-88326503D01*
X145906854Y-88327369D01*
X145898844Y-88371483D01*
X145897810Y-88377175D01*
X145897678Y-88378047D01*
X145890310Y-88426722D01*
X145890041Y-88428496D01*
X145889921Y-88429502D01*
X145889919Y-88429517D01*
X145884315Y-88476509D01*
X145883996Y-88479182D01*
X145879267Y-88522086D01*
X145878320Y-88530672D01*
X145878139Y-88532218D01*
X145874137Y-88564634D01*
X145871478Y-88586172D01*
X145871279Y-88587708D01*
X145864769Y-88635587D01*
X145864439Y-88638011D01*
X145864136Y-88640106D01*
X145857841Y-88681112D01*
X145854893Y-88699854D01*
X145851951Y-88720796D01*
X145851900Y-88721198D01*
X145849213Y-88742309D01*
X145849095Y-88743233D01*
X145846402Y-88766459D01*
X145846364Y-88766816D01*
X145846360Y-88766856D01*
X145844256Y-88786872D01*
X145843951Y-88789768D01*
X145841819Y-88812454D01*
X145840084Y-88833813D01*
X145838824Y-88853139D01*
X145833939Y-88929366D01*
X145833922Y-88929626D01*
X145833766Y-88931762D01*
X145827728Y-89006110D01*
X145827713Y-89006289D01*
X145827529Y-89008346D01*
X145825077Y-89033360D01*
X145820941Y-89075560D01*
X145820492Y-89080136D01*
X145820255Y-89082348D01*
X145812509Y-89149193D01*
X145812192Y-89151707D01*
X145804036Y-89211382D01*
X145803565Y-89214516D01*
X145795392Y-89264433D01*
X145794494Y-89269309D01*
X145787026Y-89305836D01*
X145784905Y-89314601D01*
X145778333Y-89338050D01*
X145776406Y-89344296D01*
X145775086Y-89348210D01*
X145775071Y-89348258D01*
X145774770Y-89349150D01*
X145772475Y-89356726D01*
X145770569Y-89363948D01*
X145769050Y-89370833D01*
X145767920Y-89377403D01*
X145767727Y-89379040D01*
X145767724Y-89379060D01*
X145767600Y-89380116D01*
X145767180Y-89383676D01*
X145766830Y-89389671D01*
X145766872Y-89395409D01*
X145767306Y-89400907D01*
X145768133Y-89406186D01*
X145769354Y-89411265D01*
X145770969Y-89416164D01*
X145772980Y-89420901D01*
X145774168Y-89423168D01*
X145775238Y-89425429D01*
X145786301Y-89495559D01*
X145780488Y-89520345D01*
X145779815Y-89522300D01*
X145779352Y-89523621D01*
X145776894Y-89530513D01*
X145774384Y-89537548D01*
X145774109Y-89538313D01*
X145767935Y-89555268D01*
X145760736Y-89574850D01*
X145751103Y-89602086D01*
X145750823Y-89602959D01*
X145750822Y-89602962D01*
X145745500Y-89619557D01*
X145742893Y-89627684D01*
X145736111Y-89651704D01*
X145730760Y-89674205D01*
X145726844Y-89695245D01*
X145726613Y-89697077D01*
X145726611Y-89697090D01*
X145725998Y-89701957D01*
X145724368Y-89714885D01*
X145724246Y-89717050D01*
X145724245Y-89717061D01*
X145724077Y-89720046D01*
X145723337Y-89733183D01*
X144718423Y-89733183D01*
X144717977Y-89732292D01*
X144715350Y-89726705D01*
X144714853Y-89725577D01*
X144712571Y-89720046D01*
X144712114Y-89718857D01*
X144710076Y-89713156D01*
X144709933Y-89712722D01*
X144709676Y-89711945D01*
X144707906Y-89706120D01*
X144707541Y-89704805D01*
X144706083Y-89699023D01*
X144705764Y-89697619D01*
X144704591Y-89691832D01*
X144704320Y-89690313D01*
X144703422Y-89684502D01*
X144703204Y-89682823D01*
X144702590Y-89677098D01*
X144702430Y-89675194D01*
X144702084Y-89669506D01*
X144702008Y-89667515D01*
X144701918Y-89661975D01*
X144701933Y-89659740D01*
X144702089Y-89654202D01*
X144702211Y-89651785D01*
X144702593Y-89646459D01*
X144702838Y-89643827D01*
X144703441Y-89638560D01*
X144703827Y-89635717D01*
X144704621Y-89630652D01*
X144704637Y-89630564D01*
X144705168Y-89627575D01*
X144706148Y-89622643D01*
X144706887Y-89619284D01*
X144708020Y-89614567D01*
X144708956Y-89610985D01*
X144710253Y-89606381D01*
X144712061Y-89600402D01*
X144712085Y-89600322D01*
X144713834Y-89594483D01*
X144713838Y-89594467D01*
X144714249Y-89593096D01*
X144716080Y-89585790D01*
X144717549Y-89578435D01*
X144718655Y-89570983D01*
X144719392Y-89563384D01*
X144719467Y-89561794D01*
X144719576Y-89560271D01*
X144720172Y-89560314D01*
X144743126Y-89495444D01*
X144799234Y-89451943D01*
X144849016Y-89443293D01*
X144855341Y-89443482D01*
X144891695Y-89443614D01*
X144892690Y-89443586D01*
X144892718Y-89443586D01*
X144920018Y-89442826D01*
X144925420Y-89442676D01*
X144950158Y-89441054D01*
X144955215Y-89440723D01*
X144955219Y-89440723D01*
X144956617Y-89440631D01*
X144985389Y-89437445D01*
X144997098Y-89435513D01*
X145009890Y-89433402D01*
X145009906Y-89433399D01*
X145011838Y-89433080D01*
X145013733Y-89432644D01*
X145013751Y-89432640D01*
X145033836Y-89428014D01*
X145033846Y-89428011D01*
X145036066Y-89427500D01*
X145058174Y-89420670D01*
X145078267Y-89412552D01*
X145096444Y-89403112D01*
X145099188Y-89401301D01*
X145099195Y-89401297D01*
X145109888Y-89394240D01*
X145109892Y-89394237D01*
X145112809Y-89392312D01*
X145115983Y-89389671D01*
X145124719Y-89382400D01*
X145124722Y-89382398D01*
X145127463Y-89380116D01*
X145140509Y-89366489D01*
X145143385Y-89362728D01*
X145150045Y-89354015D01*
X145152049Y-89351394D01*
X145153994Y-89348210D01*
X145160625Y-89337351D01*
X145162186Y-89334795D01*
X145171020Y-89316655D01*
X145173017Y-89312087D01*
X145202008Y-89245742D01*
X145202011Y-89245736D01*
X145202302Y-89245069D01*
X145202584Y-89244379D01*
X145203193Y-89242888D01*
X145203199Y-89242873D01*
X145203719Y-89241599D01*
X145205147Y-89237612D01*
X145206578Y-89233153D01*
X145208001Y-89228269D01*
X145208239Y-89227340D01*
X145208249Y-89227305D01*
X145210510Y-89218491D01*
X145210786Y-89217417D01*
X145213427Y-89205429D01*
X145215847Y-89192682D01*
X145217968Y-89179549D01*
X145219715Y-89166406D01*
X145221010Y-89153629D01*
X145222325Y-89140124D01*
X145222727Y-89136539D01*
X145224125Y-89125479D01*
X145224663Y-89121685D01*
X145226298Y-89111326D01*
X145226997Y-89107326D01*
X145228835Y-89097739D01*
X145229740Y-89093431D01*
X145231740Y-89084677D01*
X145232873Y-89080114D01*
X145235026Y-89072083D01*
X145236413Y-89067288D01*
X145238691Y-89059964D01*
X145240366Y-89054953D01*
X145242738Y-89048321D01*
X145244717Y-89043149D01*
X145247176Y-89037123D01*
X145249508Y-89031767D01*
X145252015Y-89026355D01*
X145254671Y-89020962D01*
X145255250Y-89019854D01*
X145257242Y-89016044D01*
X145260284Y-89010560D01*
X145262900Y-89006110D01*
X145266288Y-89000668D01*
X145268953Y-88996621D01*
X145272695Y-88991248D01*
X145275454Y-88987498D01*
X145279518Y-88982268D01*
X145282390Y-88978766D01*
X145286744Y-88973735D01*
X145291161Y-88968895D01*
X145292833Y-88967100D01*
X145301159Y-88958329D01*
X145301197Y-88958288D01*
X145301632Y-88957830D01*
X145302028Y-88957396D01*
X145302062Y-88957360D01*
X145309453Y-88949269D01*
X145309475Y-88949244D01*
X145310089Y-88948572D01*
X145317404Y-88940073D01*
X145323609Y-88932206D01*
X145326304Y-88928470D01*
X145328732Y-88924845D01*
X145330898Y-88921315D01*
X145332805Y-88917865D01*
X145334457Y-88914479D01*
X145335857Y-88911140D01*
X145337010Y-88907834D01*
X145337920Y-88904545D01*
X145338589Y-88901256D01*
X145339021Y-88897952D01*
X145339222Y-88894617D01*
X145339193Y-88891237D01*
X145338940Y-88887794D01*
X145338466Y-88884273D01*
X145337774Y-88880658D01*
X145336868Y-88876934D01*
X145335753Y-88873086D01*
X145335382Y-88871965D01*
X145335058Y-88870921D01*
X145333976Y-88799933D01*
X145345874Y-88771699D01*
X145345752Y-88771633D01*
X145346446Y-88770342D01*
X145348555Y-88766419D01*
X145349389Y-88764596D01*
X145349396Y-88764583D01*
X145350300Y-88762607D01*
X145351092Y-88760877D01*
X145353362Y-88755010D01*
X145355366Y-88748820D01*
X145356702Y-88743817D01*
X145356711Y-88743782D01*
X145356721Y-88743742D01*
X145357104Y-88742309D01*
X145358574Y-88735480D01*
X145359778Y-88728335D01*
X145360494Y-88722635D01*
X145360559Y-88722119D01*
X145360560Y-88722112D01*
X145360715Y-88720876D01*
X145361385Y-88713106D01*
X145361787Y-88705028D01*
X145361922Y-88696642D01*
X145361789Y-88687952D01*
X145361388Y-88678961D01*
X145360719Y-88669669D01*
X145359782Y-88660081D01*
X145359366Y-88656961D01*
X145357282Y-88641361D01*
X145357282Y-88641359D01*
X145357103Y-88640021D01*
X145353350Y-88618801D01*
X145348521Y-88596438D01*
X145342614Y-88572951D01*
X145341171Y-88567870D01*
X145341806Y-88496876D01*
X145380722Y-88437496D01*
X145421518Y-88414594D01*
X145421423Y-88414327D01*
X145434675Y-88409592D01*
X145436296Y-88409013D01*
X145450619Y-88402995D01*
X145452245Y-88402199D01*
X145462828Y-88397018D01*
X145462837Y-88397013D01*
X145464492Y-88396203D01*
X145473079Y-88391356D01*
X145476438Y-88389460D01*
X145476447Y-88389454D01*
X145478014Y-88388570D01*
X145491286Y-88380027D01*
X145501352Y-88372723D01*
X145503061Y-88371483D01*
X145503068Y-88371477D01*
X145504407Y-88370506D01*
X145505685Y-88369473D01*
X145505695Y-88369465D01*
X145516323Y-88360871D01*
X145517477Y-88359938D01*
X145518581Y-88358955D01*
X145529617Y-88349128D01*
X145529623Y-88349122D01*
X145530596Y-88348256D01*
X145531539Y-88347342D01*
X145543022Y-88336208D01*
X145543038Y-88336192D01*
X145543864Y-88335391D01*
X145544672Y-88334547D01*
X145544692Y-88334527D01*
X145556682Y-88322004D01*
X145557381Y-88321274D01*
X145571245Y-88305837D01*
X145585558Y-88289013D01*
X145591930Y-88281175D01*
X145599696Y-88271622D01*
X145599709Y-88271605D01*
X145600419Y-88270732D01*
X145601738Y-88268987D01*
X145604461Y-88265386D01*
X145604471Y-88265372D01*
X145605481Y-88264036D01*
X145610089Y-88257216D01*
X145610981Y-88255722D01*
X145610991Y-88255706D01*
X145613297Y-88251843D01*
X145613305Y-88251828D01*
X145614239Y-88250264D01*
X145615074Y-88248659D01*
X145615083Y-88248643D01*
X145617066Y-88244831D01*
X145617069Y-88244825D01*
X145617930Y-88243170D01*
X145621161Y-88235926D01*
X145623928Y-88228524D01*
X145626230Y-88220954D01*
X145628065Y-88213208D01*
X145629431Y-88205278D01*
X145630325Y-88197153D01*
X145630747Y-88188827D01*
X145630693Y-88180290D01*
X145630162Y-88171533D01*
X145629152Y-88162548D01*
X145628092Y-88155992D01*
X145627890Y-88154741D01*
X145627888Y-88154731D01*
X145627661Y-88153326D01*
X145625686Y-88143858D01*
X145623227Y-88134136D01*
X145620280Y-88124150D01*
X145616843Y-88113893D01*
X145616482Y-88112925D01*
X145616472Y-88112896D01*
X145613251Y-88104255D01*
X145612916Y-88103356D01*
X145610609Y-88097705D01*
X145608836Y-88093363D01*
X145608813Y-88093308D01*
X145608495Y-88092529D01*
X145608078Y-88091586D01*
X145604071Y-88082516D01*
X145604059Y-88082490D01*
X145603579Y-88081404D01*
X145597319Y-88068593D01*
X145592866Y-88059478D01*
X145592861Y-88059469D01*
X145592254Y-88058226D01*
X145589477Y-88053128D01*
X145579478Y-88034771D01*
X145579467Y-88034752D01*
X145578923Y-88033753D01*
X145563571Y-88007913D01*
X145546181Y-87980638D01*
X145526738Y-87951859D01*
X145526698Y-87951799D01*
X145515809Y-87935689D01*
X145514141Y-87933156D01*
X145505102Y-87919064D01*
X145503357Y-87916264D01*
X145495455Y-87903197D01*
X145493583Y-87899993D01*
X145487033Y-87888392D01*
X145484933Y-87884516D01*
X145479870Y-87874767D01*
X145477481Y-87869915D01*
X145473638Y-87861668D01*
X145471615Y-87857091D01*
X145470855Y-87855275D01*
X145469364Y-87851546D01*
X145468757Y-87849955D01*
X145467198Y-87845634D01*
X145467068Y-87845252D01*
X145465319Y-87839694D01*
X145465033Y-87838706D01*
X145464398Y-87836433D01*
X145452998Y-87794097D01*
X145452952Y-87793929D01*
X145452914Y-87793788D01*
X145452844Y-87793535D01*
X145439251Y-87744584D01*
X145439139Y-87744177D01*
X145435711Y-87731593D01*
X145434948Y-87728649D01*
X145432464Y-87718551D01*
X145431548Y-87714544D01*
X145429725Y-87705924D01*
X145428785Y-87700992D01*
X145428657Y-87700238D01*
X145427483Y-87693332D01*
X145426660Y-87687725D01*
X145425763Y-87680481D01*
X145425174Y-87674591D01*
X145424603Y-87667089D01*
X145424296Y-87661281D01*
X145424047Y-87652884D01*
X145424003Y-87647492D01*
X145424132Y-87637681D01*
X145424284Y-87632933D01*
X145424879Y-87621243D01*
X145425142Y-87617290D01*
X145425233Y-87616182D01*
X145426297Y-87603295D01*
X145426600Y-87600127D01*
X145428371Y-87583789D01*
X145428661Y-87581335D01*
X145431122Y-87562209D01*
X145431379Y-87560327D01*
X145434540Y-87538410D01*
X145434731Y-87537133D01*
X145437055Y-87522212D01*
X145438573Y-87512461D01*
X145438788Y-87511129D01*
X145448693Y-87451742D01*
X145448919Y-87450435D01*
X145451071Y-87438400D01*
X145451360Y-87436845D01*
X145453659Y-87424904D01*
X145453976Y-87423316D01*
X145456331Y-87411878D01*
X145456679Y-87410243D01*
X145458997Y-87399695D01*
X145459416Y-87397853D01*
X145461588Y-87388631D01*
X145462157Y-87386311D01*
X145463943Y-87379329D01*
X145464839Y-87376019D01*
X145465803Y-87372642D01*
X145467633Y-87366783D01*
X145468571Y-87364018D01*
X145468619Y-87363876D01*
X145472311Y-87352819D01*
X145475237Y-87340706D01*
X145475975Y-87336263D01*
X145477097Y-87329498D01*
X145477413Y-87327595D01*
X145478857Y-87313547D01*
X145478929Y-87310684D01*
X145479556Y-87285476D01*
X145479621Y-87282874D01*
X145479201Y-87275600D01*
X145477793Y-87251254D01*
X145477672Y-87249161D01*
X145473151Y-87212885D01*
X145466201Y-87174519D01*
X145463648Y-87163471D01*
X145457266Y-87135854D01*
X145457262Y-87135839D01*
X145456962Y-87134540D01*
X145454937Y-87127224D01*
X145445912Y-87094628D01*
X145445911Y-87094623D01*
X145445578Y-87093422D01*
X145443291Y-87086283D01*
X145440549Y-87077729D01*
X145432190Y-87051641D01*
X145416940Y-87009671D01*
X145399970Y-86967987D01*
X145381422Y-86927066D01*
X145361439Y-86887381D01*
X145340161Y-86849408D01*
X145326395Y-86827444D01*
X145318668Y-86815115D01*
X145318664Y-86815109D01*
X145317732Y-86813622D01*
X145294292Y-86780498D01*
X145284172Y-86767945D01*
X145283325Y-86766978D01*
X145283308Y-86766958D01*
X145271634Y-86753634D01*
X145271632Y-86753632D01*
X145270891Y-86752786D01*
X145270145Y-86751993D01*
X145270128Y-86751974D01*
X145237139Y-86716896D01*
X145237128Y-86716885D01*
X145236534Y-86716253D01*
X145208649Y-86688228D01*
X145195028Y-86674538D01*
X145195020Y-86674530D01*
X145194598Y-86674106D01*
X145192272Y-86671859D01*
X145157538Y-86638314D01*
X145148462Y-86629549D01*
X145101506Y-86585788D01*
X145057108Y-86546029D01*
X145018647Y-86513477D01*
X145002698Y-86500905D01*
X144999155Y-86498336D01*
X144990576Y-86492116D01*
X144990564Y-86492107D01*
X144989501Y-86491337D01*
X144925161Y-86448688D01*
X144906103Y-86436751D01*
X144865033Y-86411028D01*
X144864999Y-86411008D01*
X144864200Y-86410507D01*
X144805809Y-86376380D01*
X144768099Y-86356076D01*
X144750268Y-86346475D01*
X144750254Y-86346468D01*
X144749179Y-86345889D01*
X144748081Y-86345351D01*
X144748063Y-86345342D01*
X144694379Y-86319050D01*
X144694378Y-86319050D01*
X144693501Y-86318620D01*
X144665766Y-86306064D01*
X144637967Y-86294156D01*
X144637082Y-86293808D01*
X144637064Y-86293801D01*
X144604347Y-86280951D01*
X144581767Y-86272082D01*
X144580367Y-86271594D01*
X144524445Y-86252102D01*
X144524406Y-86252089D01*
X144524094Y-86251980D01*
X144503492Y-86245127D01*
X144471581Y-86234512D01*
X144470705Y-86234217D01*
X144420216Y-86217010D01*
X144419216Y-86216664D01*
X144376884Y-86201839D01*
X144375133Y-86201212D01*
X144346354Y-86190654D01*
X144346327Y-86190645D01*
X144345516Y-86190347D01*
X144318612Y-86181346D01*
X144297504Y-86174284D01*
X144297494Y-86174281D01*
X144295264Y-86173535D01*
X144239025Y-86159300D01*
X144177712Y-86147617D01*
X144144675Y-86142998D01*
X144113586Y-86138651D01*
X144113564Y-86138648D01*
X144112238Y-86138463D01*
X144110909Y-86138334D01*
X144110889Y-86138332D01*
X144064699Y-86133862D01*
X144043518Y-86131812D01*
X144042343Y-86131743D01*
X144042317Y-86131741D01*
X143988483Y-86128581D01*
X143972465Y-86127641D01*
X143971371Y-86127615D01*
X143971344Y-86127614D01*
X143929843Y-86126633D01*
X143899991Y-86125927D01*
X143898961Y-86125937D01*
X143898945Y-86125937D01*
X143828083Y-86126633D01*
X143828055Y-86126634D01*
X143827012Y-86126644D01*
X143754439Y-86129768D01*
X143753357Y-86129852D01*
X143753351Y-86129852D01*
X143739970Y-86130886D01*
X143683187Y-86135276D01*
X143682058Y-86135405D01*
X143682034Y-86135407D01*
X143640204Y-86140176D01*
X143614169Y-86143144D01*
X143612905Y-86143340D01*
X143612896Y-86143341D01*
X143566119Y-86150587D01*
X143548299Y-86153347D01*
X143486489Y-86165861D01*
X143484811Y-86166298D01*
X143431746Y-86180117D01*
X143431741Y-86180119D01*
X143429654Y-86180662D01*
X143427610Y-86181346D01*
X143427612Y-86181346D01*
X143381366Y-86196835D01*
X143381358Y-86196838D01*
X143378707Y-86197726D01*
X143376134Y-86198851D01*
X143376129Y-86198853D01*
X143335304Y-86216704D01*
X143334561Y-86217029D01*
X143333882Y-86217347D01*
X143333824Y-86217373D01*
X143326291Y-86220899D01*
X143321652Y-86222957D01*
X143312457Y-86226817D01*
X143309296Y-86228094D01*
X143296953Y-86232887D01*
X143294573Y-86233783D01*
X143280198Y-86239025D01*
X143278106Y-86239766D01*
X143262542Y-86245127D01*
X143260531Y-86245801D01*
X143251253Y-86248823D01*
X143244489Y-86251026D01*
X143242501Y-86251655D01*
X143226610Y-86256525D01*
X143224363Y-86257190D01*
X143208319Y-86261767D01*
X143207663Y-86261951D01*
X143176810Y-86270546D01*
X143172611Y-86271716D01*
X143172243Y-86271824D01*
X143172188Y-86271840D01*
X143141226Y-86280951D01*
X143141187Y-86280963D01*
X143140514Y-86281161D01*
X143122195Y-86286989D01*
X143112262Y-86290148D01*
X143112242Y-86290155D01*
X143111364Y-86290434D01*
X143101796Y-86293801D01*
X143085907Y-86299392D01*
X143085893Y-86299397D01*
X143084757Y-86299797D01*
X143083606Y-86300254D01*
X143061706Y-86308947D01*
X143061695Y-86308952D01*
X143060286Y-86309511D01*
X143058918Y-86310132D01*
X143058909Y-86310136D01*
X143050368Y-86314014D01*
X143037547Y-86319836D01*
X143016134Y-86331035D01*
X142995641Y-86343368D01*
X142975664Y-86357095D01*
X142955796Y-86372479D01*
X142935632Y-86389781D01*
X142914768Y-86409260D01*
X142892796Y-86431180D01*
X142892287Y-86431714D01*
X142892271Y-86431730D01*
X142869837Y-86455249D01*
X142869811Y-86455277D01*
X142869313Y-86455799D01*
X142868811Y-86456351D01*
X142868807Y-86456355D01*
X142827544Y-86501704D01*
X142816188Y-86514184D01*
X142795101Y-86538947D01*
X142790199Y-86544703D01*
X142781050Y-86555446D01*
X142780199Y-86556541D01*
X142780195Y-86556546D01*
X142748150Y-86597782D01*
X142748139Y-86597797D01*
X142747333Y-86598834D01*
X142746565Y-86599914D01*
X142746556Y-86599926D01*
X142717601Y-86640640D01*
X142715155Y-86644079D01*
X142714446Y-86645166D01*
X142714441Y-86645174D01*
X142689931Y-86682775D01*
X142684630Y-86690908D01*
X142684006Y-86691953D01*
X142683997Y-86691968D01*
X142656684Y-86737698D01*
X142655876Y-86739050D01*
X142648816Y-86751974D01*
X142629587Y-86787172D01*
X142629574Y-86787197D01*
X142629008Y-86788233D01*
X142604143Y-86838187D01*
X142603639Y-86839305D01*
X142582511Y-86886167D01*
X142581396Y-86888639D01*
X142580938Y-86889772D01*
X142580937Y-86889773D01*
X142561540Y-86937699D01*
X142560884Y-86939319D01*
X142560464Y-86940491D01*
X142560456Y-86940511D01*
X142543874Y-86986743D01*
X142542722Y-86989955D01*
X142542334Y-86991199D01*
X142542330Y-86991211D01*
X142536222Y-87010797D01*
X142527028Y-87040275D01*
X142513916Y-87090008D01*
X142513604Y-87091474D01*
X142513602Y-87091481D01*
X142509735Y-87109630D01*
X142503503Y-87138883D01*
X142495906Y-87186628D01*
X142491239Y-87232972D01*
X142491165Y-87235004D01*
X142491165Y-87235009D01*
X142490652Y-87249161D01*
X142489620Y-87277643D01*
X142491316Y-87337381D01*
X142493428Y-87370527D01*
X142496012Y-87411069D01*
X142496097Y-87412410D01*
X142503301Y-87496721D01*
X142512263Y-87584309D01*
X142522323Y-87669167D01*
X142532816Y-87745289D01*
X142543081Y-87806668D01*
X142547920Y-87829952D01*
X142552454Y-87847298D01*
X142552701Y-87848142D01*
X142552715Y-87848194D01*
X142559830Y-87872540D01*
X142560366Y-87874431D01*
X142569452Y-87907427D01*
X142569782Y-87908649D01*
X142579625Y-87945850D01*
X142579934Y-87947041D01*
X142589327Y-87983997D01*
X142589357Y-87984113D01*
X142589445Y-87984458D01*
X142599199Y-88020687D01*
X142610258Y-88056012D01*
X142610695Y-88057229D01*
X142610701Y-88057248D01*
X142619368Y-88081404D01*
X142622591Y-88090387D01*
X142636167Y-88123764D01*
X142636736Y-88125008D01*
X142636739Y-88125015D01*
X142645951Y-88145155D01*
X142650956Y-88156098D01*
X142666926Y-88187341D01*
X142667623Y-88188566D01*
X142667635Y-88188589D01*
X142681635Y-88213208D01*
X142684047Y-88217449D01*
X142692211Y-88230394D01*
X142701316Y-88244831D01*
X142702288Y-88246373D01*
X142721619Y-88274069D01*
X142742007Y-88300488D01*
X142752426Y-88312699D01*
X142759744Y-88321274D01*
X142763423Y-88325586D01*
X142785836Y-88349315D01*
X142787041Y-88350465D01*
X142806948Y-88369465D01*
X142809215Y-88371629D01*
X142810479Y-88372713D01*
X142810490Y-88372723D01*
X142830006Y-88389460D01*
X142833529Y-88392481D01*
X142834895Y-88393529D01*
X142834905Y-88393537D01*
X142837197Y-88395295D01*
X142858747Y-88411826D01*
X142884838Y-88429616D01*
X142885148Y-88429821D01*
X142885198Y-88429855D01*
X142890939Y-88433657D01*
X142895003Y-88436349D01*
X142897427Y-88437996D01*
X142904932Y-88443226D01*
X142907795Y-88445221D01*
X142909596Y-88446501D01*
X142921182Y-88454897D01*
X142922711Y-88456024D01*
X142934680Y-88464993D01*
X142936152Y-88466113D01*
X142948070Y-88475327D01*
X142949573Y-88476509D01*
X142960791Y-88485469D01*
X142962542Y-88486893D01*
X142972552Y-88495186D01*
X142974721Y-88497024D01*
X142983965Y-88505041D01*
X142984426Y-88505444D01*
X142993622Y-88513498D01*
X142993656Y-88513527D01*
X142994061Y-88513882D01*
X143003772Y-88522086D01*
X143010014Y-88527169D01*
X143050206Y-88585689D01*
X143056055Y-88614854D01*
X143056463Y-88619974D01*
X143056753Y-88623608D01*
X143056910Y-88625816D01*
X143058074Y-88644621D01*
X143058701Y-88654762D01*
X143058814Y-88656914D01*
X143060013Y-88683932D01*
X143062218Y-88733663D01*
X143062285Y-88735466D01*
X143065266Y-88834848D01*
X143065296Y-88836002D01*
X143067844Y-88958329D01*
X143067858Y-88959130D01*
X143069954Y-89103995D01*
X143069961Y-89104581D01*
X143070095Y-89118184D01*
X143071607Y-89272238D01*
X143072179Y-89344296D01*
X143072206Y-89347739D01*
X143054681Y-89412849D01*
X143032202Y-89450882D01*
X143031670Y-89451773D01*
X143010869Y-89486315D01*
X143010047Y-89487661D01*
X142985957Y-89526554D01*
X142985058Y-89527985D01*
X142929467Y-89615104D01*
X142928437Y-89616690D01*
X142870458Y-89704613D01*
X142869579Y-89705928D01*
X142842440Y-89745980D01*
X142841661Y-89747117D01*
X142838791Y-89751254D01*
X142816357Y-89783595D01*
X142816199Y-89783828D01*
X142816151Y-89783898D01*
X142801386Y-89805695D01*
X142800336Y-89807245D01*
X142784639Y-89832180D01*
X142784177Y-89832967D01*
X142784172Y-89832975D01*
X142780584Y-89839085D01*
X142769326Y-89858257D01*
X142768880Y-89859069D01*
X142754888Y-89884542D01*
X142754871Y-89884574D01*
X142754453Y-89885335D01*
X142740079Y-89913272D01*
X142726261Y-89941927D01*
X142720772Y-89954078D01*
X142713819Y-89969470D01*
X142713057Y-89971156D01*
X142700526Y-90000819D01*
X142688724Y-90030774D01*
X142677711Y-90060879D01*
X142677458Y-90061628D01*
X142677450Y-90061651D01*
X142667816Y-90090182D01*
X142667805Y-90090216D01*
X142667543Y-90090992D01*
X142667289Y-90091814D01*
X142659583Y-90116750D01*
X142658278Y-90120972D01*
X142658055Y-90121770D01*
X142658047Y-90121797D01*
X142656685Y-90126671D01*
X142649975Y-90150677D01*
X142649756Y-90151559D01*
X142649748Y-90151588D01*
X142643763Y-90175657D01*
X142642692Y-90179964D01*
X142636485Y-90208693D01*
X142636299Y-90209721D01*
X142632713Y-90229544D01*
X142631414Y-90236721D01*
X142622630Y-90287327D01*
X142621411Y-90294352D01*
X142621013Y-90296528D01*
X142609169Y-90358308D01*
X142608824Y-90360044D01*
X142595529Y-90424451D01*
X142595225Y-90425875D01*
X142581137Y-90489947D01*
X142580791Y-90491473D01*
X142566541Y-90552431D01*
X142566084Y-90554318D01*
X142552375Y-90609132D01*
X142551717Y-90611649D01*
X142542260Y-90646364D01*
X142539371Y-90656968D01*
X142538173Y-90661088D01*
X142527474Y-90695670D01*
X142526777Y-90697852D01*
X142526256Y-90699435D01*
X142523894Y-90706605D01*
X142521153Y-90715563D01*
X142518846Y-90723765D01*
X142516905Y-90731345D01*
X142515260Y-90738438D01*
X142513842Y-90745180D01*
X142511412Y-90758146D01*
X142510734Y-90761949D01*
X142509243Y-90770304D01*
X142508869Y-90772307D01*
X142506510Y-90784394D01*
X142505930Y-90787193D01*
X142504719Y-90792727D01*
X142504217Y-90794928D01*
X142502654Y-90801504D01*
X142502090Y-90803783D01*
X142500199Y-90811128D01*
X142499610Y-90813331D01*
X142497479Y-90821027D01*
X142497471Y-90821058D01*
X142496962Y-90822898D01*
X142496565Y-90824770D01*
X142496563Y-90824778D01*
X142495798Y-90828385D01*
X142494088Y-90835438D01*
X142493283Y-90838385D01*
X142491717Y-90843660D01*
X142490186Y-90848434D01*
X142488964Y-90852054D01*
X142486600Y-90858723D01*
X142485884Y-90860691D01*
X142471184Y-90900067D01*
X142467469Y-90911133D01*
X142463974Y-90922691D01*
X142460797Y-90934796D01*
X142460513Y-90936104D01*
X142460508Y-90936124D01*
X142458359Y-90946016D01*
X142458037Y-90947499D01*
X142455794Y-90960854D01*
X142454165Y-90974914D01*
X142453612Y-90982226D01*
X142453572Y-90983064D01*
X142453321Y-90988267D01*
X142453250Y-90989733D01*
X142453091Y-90997444D01*
X139588929Y-90997444D01*
X139376334Y-90887480D01*
X139374155Y-90886553D01*
X139374149Y-90886550D01*
X138912091Y-90689942D01*
X138912083Y-90689939D01*
X138909928Y-90689022D01*
X138665645Y-90606099D01*
X138432194Y-90526853D01*
X138432193Y-90526853D01*
X138429955Y-90526093D01*
X138427670Y-90525504D01*
X138427666Y-90525503D01*
X137999005Y-90415043D01*
X137939118Y-90399611D01*
X137936786Y-90399193D01*
X137936779Y-90399192D01*
X137708410Y-90358308D01*
X137440178Y-90310287D01*
X137177818Y-90283406D01*
X136938126Y-90258847D01*
X136938113Y-90258846D01*
X136935945Y-90258624D01*
X136917962Y-90258043D01*
X136654473Y-90249532D01*
X136654445Y-90249532D01*
X136653468Y-90249500D01*
X136367964Y-90249500D01*
X136366778Y-90249545D01*
X136366753Y-90249545D01*
X135995853Y-90263470D01*
X135995851Y-90263470D01*
X135993484Y-90263559D01*
X135489820Y-90320499D01*
X134991843Y-90415043D01*
X134780064Y-90471987D01*
X134504636Y-90546045D01*
X134504631Y-90546047D01*
X134502357Y-90546658D01*
X134500146Y-90547434D01*
X134500141Y-90547436D01*
X134392446Y-90585256D01*
X134024117Y-90714604D01*
X134021974Y-90715543D01*
X134021960Y-90715548D01*
X133561977Y-90916988D01*
X133559815Y-90917935D01*
X133314423Y-91048138D01*
X133114148Y-91154402D01*
X133114142Y-91154406D01*
X133112066Y-91155507D01*
X132683390Y-91425981D01*
X132681509Y-91427376D01*
X132681495Y-91427385D01*
X132337347Y-91682507D01*
X132276200Y-91727836D01*
X132274401Y-91729392D01*
X131894583Y-92057820D01*
X131894572Y-92057830D01*
X131892789Y-92059372D01*
X131535316Y-92418722D01*
X131205793Y-92803863D01*
X131204405Y-92805756D01*
X131204401Y-92805761D01*
X130947401Y-93156264D01*
X130906074Y-93212627D01*
X130904812Y-93214651D01*
X130904809Y-93214655D01*
X130676018Y-93581511D01*
X130637848Y-93642714D01*
X130402624Y-94091701D01*
X130327763Y-94265110D01*
X130229178Y-94493474D01*
X130201727Y-94557061D01*
X130196726Y-94571545D01*
X130058831Y-94970888D01*
X130036287Y-95036174D01*
X130035689Y-95038446D01*
X130035687Y-95038452D01*
X129924782Y-95459700D01*
X129907236Y-95526343D01*
X129906810Y-95528652D01*
X129906807Y-95528666D01*
X129877291Y-95688704D01*
X129845266Y-95752067D01*
X129784067Y-95788057D01*
X129713126Y-95785248D01*
X129654966Y-95744530D01*
X129645096Y-95730274D01*
X129480983Y-95454424D01*
X129480979Y-95454418D01*
X129479043Y-95451164D01*
X129276464Y-95188585D01*
X129124230Y-95033940D01*
X129046470Y-94954949D01*
X129046469Y-94954948D01*
X129043807Y-94952244D01*
X128784442Y-94745566D01*
X128502126Y-94571545D01*
X128332778Y-94493474D01*
X128204393Y-94434287D01*
X128204383Y-94434283D01*
X128200949Y-94432700D01*
X128197349Y-94431541D01*
X128197342Y-94431538D01*
X127888881Y-94332205D01*
X127888878Y-94332204D01*
X127885272Y-94331043D01*
X127881556Y-94330324D01*
X127881548Y-94330322D01*
X127563387Y-94268766D01*
X127563378Y-94268765D01*
X127559668Y-94268047D01*
X127555892Y-94267780D01*
X127555887Y-94267779D01*
X127457252Y-94260795D01*
X127297721Y-94249500D01*
X127116614Y-94249500D01*
X127114748Y-94249612D01*
X127114731Y-94249613D01*
X126872738Y-94264202D01*
X126872734Y-94264202D01*
X126868960Y-94264430D01*
X126865238Y-94265110D01*
X126865236Y-94265110D01*
X126849155Y-94268047D01*
X126542715Y-94324013D01*
X126225991Y-94422359D01*
X125923375Y-94558042D01*
X125639252Y-94729098D01*
X125636268Y-94731425D01*
X125636261Y-94731430D01*
X125615103Y-94747931D01*
X125377737Y-94933049D01*
X125142618Y-95166940D01*
X124937301Y-95427383D01*
X124764760Y-95710607D01*
X124753133Y-95736179D01*
X124629063Y-96009055D01*
X124629060Y-96009063D01*
X124627494Y-96012507D01*
X124527491Y-96328712D01*
X124466201Y-96654641D01*
X124444511Y-96985572D01*
X123751000Y-96985572D01*
X123751000Y-89502916D01*
X123751066Y-89500038D01*
X123751082Y-89500000D01*
X123751068Y-89499966D01*
X123751134Y-89497097D01*
X123755979Y-89392312D01*
X123766977Y-89154415D01*
X123766994Y-89154075D01*
X123767887Y-89135908D01*
X123768943Y-89124686D01*
X123803063Y-88880088D01*
X123803219Y-88879009D01*
X123813361Y-88810633D01*
X123821058Y-88758748D01*
X123823035Y-88748418D01*
X123858130Y-88599202D01*
X123874884Y-88527969D01*
X123875313Y-88526202D01*
X123909816Y-88388457D01*
X123912572Y-88379030D01*
X123981836Y-88172378D01*
X123982669Y-88169973D01*
X124019949Y-88065779D01*
X124033335Y-88028368D01*
X124036694Y-88019950D01*
X124100947Y-87874431D01*
X124122922Y-87824663D01*
X124124283Y-87821685D01*
X124190465Y-87681754D01*
X124194292Y-87674314D01*
X124201551Y-87661281D01*
X124296896Y-87490106D01*
X124298867Y-87486694D01*
X124379739Y-87351768D01*
X124383862Y-87345339D01*
X124405640Y-87313547D01*
X124502185Y-87172608D01*
X124504873Y-87168838D01*
X124599409Y-87041371D01*
X124603671Y-87035942D01*
X124606578Y-87032442D01*
X124660100Y-86967987D01*
X124736871Y-86875536D01*
X124740447Y-86871415D01*
X124847421Y-86753387D01*
X124851686Y-86748908D01*
X124998908Y-86601686D01*
X125003387Y-86597421D01*
X125121415Y-86490447D01*
X125125536Y-86486871D01*
X125219864Y-86408542D01*
X125285948Y-86353666D01*
X125291379Y-86349403D01*
X125296855Y-86345342D01*
X125418838Y-86254873D01*
X125422608Y-86252185D01*
X125595341Y-86133861D01*
X125601769Y-86129738D01*
X125608111Y-86125937D01*
X125736694Y-86048867D01*
X125740106Y-86046896D01*
X125924316Y-85944291D01*
X125931754Y-85940465D01*
X126071685Y-85874283D01*
X126074663Y-85872922D01*
X126150612Y-85839387D01*
X126269950Y-85786694D01*
X126278368Y-85783335D01*
X126333175Y-85763725D01*
X126419973Y-85732669D01*
X126422378Y-85731836D01*
X126629030Y-85662572D01*
X126638457Y-85659816D01*
X126776202Y-85625313D01*
X126777969Y-85624884D01*
X126867234Y-85603889D01*
X126998418Y-85573035D01*
X127008748Y-85571058D01*
X127079111Y-85560620D01*
X127129009Y-85553219D01*
X127130088Y-85553063D01*
X127374686Y-85518943D01*
X127385908Y-85517887D01*
X127400421Y-85517174D01*
X127404468Y-85516975D01*
X127747097Y-85501134D01*
X127749966Y-85501068D01*
X127750000Y-85501082D01*
X127750038Y-85501066D01*
X127752916Y-85501000D01*
X162247084Y-85501000D01*
X162249962Y-85501066D01*
G37*
%TD.AperFunction*%
M02*
