%TF.GenerationSoftware,KiCad,Pcbnew,(6.0.6)*%
%TF.CreationDate,2022-08-24T09:27:37+01:00*%
%TF.ProjectId,frontcase,66726f6e-7463-4617-9365-2e6b69636164,rev?*%
%TF.SameCoordinates,Original*%
%TF.FileFunction,Copper,L2,Bot*%
%TF.FilePolarity,Positive*%
%FSLAX46Y46*%
G04 Gerber Fmt 4.6, Leading zero omitted, Abs format (unit mm)*
G04 Created by KiCad (PCBNEW (6.0.6)) date 2022-08-24 09:27:37*
%MOMM*%
%LPD*%
G01*
G04 APERTURE LIST*
G04 APERTURE END LIST*
%TA.AperFunction,NonConductor*%
G36*
X162249962Y-85501066D02*
G01*
X162250000Y-85501082D01*
X162250034Y-85501068D01*
X162252903Y-85501134D01*
X162595532Y-85516975D01*
X162599579Y-85517174D01*
X162614092Y-85517887D01*
X162625314Y-85518943D01*
X162869912Y-85553063D01*
X162870991Y-85553219D01*
X162920889Y-85560620D01*
X162991252Y-85571058D01*
X163001582Y-85573035D01*
X163132766Y-85603889D01*
X163222031Y-85624884D01*
X163223798Y-85625313D01*
X163361543Y-85659816D01*
X163370970Y-85662572D01*
X163577622Y-85731836D01*
X163580027Y-85732669D01*
X163666825Y-85763725D01*
X163721632Y-85783335D01*
X163730050Y-85786694D01*
X163849388Y-85839387D01*
X163925337Y-85872922D01*
X163928315Y-85874283D01*
X164068246Y-85940465D01*
X164075684Y-85944291D01*
X164259894Y-86046896D01*
X164263306Y-86048867D01*
X164398231Y-86129738D01*
X164404659Y-86133861D01*
X164577392Y-86252185D01*
X164581162Y-86254873D01*
X164708621Y-86349403D01*
X164714058Y-86353671D01*
X164874464Y-86486871D01*
X164878585Y-86490447D01*
X164996613Y-86597421D01*
X165001092Y-86601686D01*
X165148314Y-86748908D01*
X165152579Y-86753387D01*
X165259553Y-86871415D01*
X165263129Y-86875536D01*
X165396329Y-87035942D01*
X165400591Y-87041371D01*
X165495127Y-87168838D01*
X165497815Y-87172608D01*
X165616138Y-87345339D01*
X165620261Y-87351768D01*
X165701133Y-87486694D01*
X165703104Y-87490106D01*
X165805708Y-87674314D01*
X165809535Y-87681754D01*
X165875717Y-87821685D01*
X165877078Y-87824663D01*
X165963306Y-88019950D01*
X165966665Y-88028368D01*
X165986275Y-88083175D01*
X166017331Y-88169973D01*
X166018164Y-88172378D01*
X166087428Y-88379030D01*
X166090184Y-88388457D01*
X166124687Y-88526202D01*
X166125116Y-88527969D01*
X166146111Y-88617234D01*
X166176965Y-88748418D01*
X166178942Y-88758748D01*
X166189380Y-88829111D01*
X166196781Y-88879009D01*
X166196937Y-88880088D01*
X166231057Y-89124686D01*
X166232113Y-89135908D01*
X166233006Y-89154074D01*
X166233024Y-89154441D01*
X166245252Y-89418928D01*
X166245386Y-89424747D01*
X166245386Y-104575253D01*
X166245252Y-104581072D01*
X166233024Y-104845558D01*
X166233006Y-104845925D01*
X166232113Y-104864092D01*
X166231057Y-104875314D01*
X166196937Y-105119912D01*
X166196781Y-105120991D01*
X166178942Y-105241252D01*
X166176965Y-105251582D01*
X166146111Y-105382766D01*
X166125116Y-105472031D01*
X166124687Y-105473798D01*
X166090184Y-105611543D01*
X166087428Y-105620970D01*
X166018164Y-105827622D01*
X166017331Y-105830027D01*
X165986275Y-105916825D01*
X165966665Y-105971632D01*
X165963306Y-105980050D01*
X165910613Y-106099388D01*
X165877078Y-106175337D01*
X165875717Y-106178315D01*
X165809535Y-106318246D01*
X165805709Y-106325684D01*
X165703104Y-106509894D01*
X165701133Y-106513306D01*
X165620262Y-106648231D01*
X165616139Y-106654659D01*
X165497815Y-106827392D01*
X165495127Y-106831162D01*
X165400597Y-106958621D01*
X165396329Y-106964058D01*
X165263129Y-107124464D01*
X165259553Y-107128585D01*
X165152579Y-107246613D01*
X165148314Y-107251092D01*
X165001092Y-107398314D01*
X164996613Y-107402579D01*
X164878585Y-107509553D01*
X164874464Y-107513129D01*
X164714058Y-107646329D01*
X164708629Y-107650591D01*
X164581162Y-107745127D01*
X164577392Y-107747815D01*
X164404661Y-107866138D01*
X164398232Y-107870261D01*
X164263306Y-107951133D01*
X164259894Y-107953104D01*
X164075686Y-108055708D01*
X164068246Y-108059535D01*
X163928315Y-108125717D01*
X163925337Y-108127078D01*
X163849388Y-108160613D01*
X163730050Y-108213306D01*
X163721632Y-108216665D01*
X163666825Y-108236275D01*
X163580027Y-108267331D01*
X163577622Y-108268164D01*
X163370970Y-108337428D01*
X163361543Y-108340184D01*
X163223798Y-108374687D01*
X163222031Y-108375116D01*
X163132766Y-108396111D01*
X163001582Y-108426965D01*
X162991252Y-108428942D01*
X162920889Y-108439380D01*
X162870991Y-108446781D01*
X162869912Y-108446937D01*
X162625314Y-108481057D01*
X162614092Y-108482113D01*
X162599649Y-108482823D01*
X162595531Y-108483025D01*
X162256234Y-108498712D01*
X162250415Y-108498846D01*
X127749585Y-108498846D01*
X127743766Y-108498712D01*
X127404469Y-108483025D01*
X127400351Y-108482823D01*
X127385908Y-108482113D01*
X127374686Y-108481057D01*
X127130088Y-108446937D01*
X127129009Y-108446781D01*
X127079111Y-108439380D01*
X127008748Y-108428942D01*
X126998418Y-108426965D01*
X126867234Y-108396111D01*
X126777969Y-108375116D01*
X126776202Y-108374687D01*
X126638457Y-108340184D01*
X126629030Y-108337428D01*
X126422378Y-108268164D01*
X126419973Y-108267331D01*
X126333175Y-108236275D01*
X126278368Y-108216665D01*
X126269950Y-108213306D01*
X126150612Y-108160613D01*
X126074663Y-108127078D01*
X126071685Y-108125717D01*
X125931754Y-108059535D01*
X125924314Y-108055708D01*
X125740106Y-107953104D01*
X125736694Y-107951133D01*
X125601768Y-107870261D01*
X125595339Y-107866138D01*
X125422608Y-107747815D01*
X125418838Y-107745127D01*
X125291371Y-107650591D01*
X125285942Y-107646329D01*
X125125536Y-107513129D01*
X125121415Y-107509553D01*
X125003387Y-107402579D01*
X124998908Y-107398314D01*
X124851686Y-107251092D01*
X124847421Y-107246613D01*
X124740447Y-107128585D01*
X124736871Y-107124464D01*
X124603671Y-106964058D01*
X124599403Y-106958621D01*
X124504873Y-106831162D01*
X124502185Y-106827392D01*
X124383861Y-106654659D01*
X124379738Y-106648231D01*
X124298867Y-106513306D01*
X124296896Y-106509894D01*
X124194291Y-106325684D01*
X124190465Y-106318246D01*
X124124283Y-106178315D01*
X124122922Y-106175337D01*
X124089387Y-106099388D01*
X124036694Y-105980050D01*
X124033335Y-105971632D01*
X124013725Y-105916825D01*
X123982669Y-105830027D01*
X123981836Y-105827622D01*
X123912572Y-105620970D01*
X123909816Y-105611543D01*
X123875313Y-105473798D01*
X123874884Y-105472031D01*
X123853889Y-105382766D01*
X123823035Y-105251582D01*
X123821058Y-105241252D01*
X123803219Y-105120991D01*
X123803063Y-105119912D01*
X123768943Y-104875314D01*
X123767887Y-104864092D01*
X123766994Y-104845925D01*
X123766976Y-104845558D01*
X123751134Y-104502903D01*
X123751068Y-104500034D01*
X123751082Y-104500000D01*
X123751066Y-104499962D01*
X123751000Y-104497084D01*
X123751000Y-96985572D01*
X124444511Y-96985572D01*
X124462735Y-97316712D01*
X124463396Y-97320439D01*
X124463396Y-97320443D01*
X124490539Y-97473599D01*
X124520608Y-97643265D01*
X124521713Y-97646890D01*
X124521714Y-97646895D01*
X124592877Y-97880385D01*
X124617294Y-97960500D01*
X124751391Y-98263821D01*
X124761626Y-98281024D01*
X124919017Y-98545576D01*
X124919021Y-98545582D01*
X124920957Y-98548836D01*
X125123536Y-98811415D01*
X125126194Y-98814115D01*
X125337840Y-99029112D01*
X125356193Y-99047756D01*
X125615558Y-99254434D01*
X125897874Y-99428455D01*
X125901321Y-99430044D01*
X126195607Y-99565713D01*
X126195617Y-99565717D01*
X126199051Y-99567300D01*
X126202651Y-99568459D01*
X126202658Y-99568462D01*
X126511119Y-99667795D01*
X126511122Y-99667796D01*
X126514728Y-99668957D01*
X126518444Y-99669676D01*
X126518452Y-99669678D01*
X126836613Y-99731234D01*
X126836622Y-99731235D01*
X126840332Y-99731953D01*
X126844108Y-99732220D01*
X126844113Y-99732221D01*
X126942748Y-99739205D01*
X127102279Y-99750500D01*
X127283386Y-99750500D01*
X127285252Y-99750388D01*
X127285269Y-99750387D01*
X127527262Y-99735798D01*
X127527266Y-99735798D01*
X127531040Y-99735570D01*
X127534762Y-99734890D01*
X127534764Y-99734890D01*
X127608632Y-99721399D01*
X127857285Y-99675987D01*
X128174009Y-99577641D01*
X128476625Y-99441958D01*
X128760748Y-99270902D01*
X128763732Y-99268575D01*
X128763739Y-99268570D01*
X129019268Y-99069287D01*
X129019270Y-99069285D01*
X129022263Y-99066951D01*
X129257382Y-98833060D01*
X129462699Y-98572617D01*
X129635240Y-98289393D01*
X129639045Y-98281024D01*
X129685446Y-98227289D01*
X129753533Y-98207170D01*
X129821688Y-98227056D01*
X129868272Y-98280632D01*
X129877412Y-98309020D01*
X129910008Y-98475934D01*
X129923030Y-98542614D01*
X129923655Y-98544890D01*
X130056576Y-99029112D01*
X130056580Y-99029126D01*
X130057206Y-99031405D01*
X130227654Y-99508759D01*
X130228619Y-99510931D01*
X130405123Y-99908299D01*
X130433413Y-99971990D01*
X130434537Y-99974082D01*
X130434541Y-99974090D01*
X130672205Y-100416404D01*
X130672213Y-100416418D01*
X130673326Y-100418489D01*
X130946041Y-100845743D01*
X131250024Y-101251347D01*
X131251572Y-101253119D01*
X131251579Y-101253127D01*
X131539807Y-101582947D01*
X131583562Y-101633016D01*
X131585238Y-101634666D01*
X131585240Y-101634668D01*
X131943087Y-101986938D01*
X131943096Y-101986946D01*
X131944779Y-101988603D01*
X132331641Y-102316106D01*
X132333546Y-102317488D01*
X132333553Y-102317493D01*
X132643826Y-102542506D01*
X132741969Y-102613680D01*
X132743972Y-102614915D01*
X132743980Y-102614920D01*
X133171435Y-102878406D01*
X133171445Y-102878412D01*
X133173454Y-102879650D01*
X133623666Y-103112520D01*
X133625845Y-103113447D01*
X133625851Y-103113450D01*
X134087909Y-103310058D01*
X134087917Y-103310061D01*
X134090072Y-103310978D01*
X134092305Y-103311736D01*
X134509463Y-103453342D01*
X134570045Y-103473907D01*
X134572330Y-103474496D01*
X134572334Y-103474497D01*
X134917571Y-103563460D01*
X135060882Y-103600389D01*
X135063214Y-103600807D01*
X135063221Y-103600808D01*
X135254605Y-103635071D01*
X135559822Y-103689713D01*
X135814199Y-103715776D01*
X136061874Y-103741153D01*
X136061887Y-103741154D01*
X136064055Y-103741376D01*
X136082038Y-103741957D01*
X136345527Y-103750468D01*
X136345555Y-103750468D01*
X136346532Y-103750500D01*
X136632036Y-103750500D01*
X136633222Y-103750455D01*
X136633247Y-103750455D01*
X137004147Y-103736530D01*
X137004149Y-103736530D01*
X137006516Y-103736441D01*
X137510180Y-103679501D01*
X138008157Y-103584957D01*
X138418966Y-103474497D01*
X138495364Y-103453955D01*
X138495369Y-103453953D01*
X138497643Y-103453342D01*
X138499854Y-103452566D01*
X138499859Y-103452564D01*
X138618824Y-103410786D01*
X138975883Y-103285396D01*
X138978026Y-103284457D01*
X138978040Y-103284452D01*
X139438023Y-103083012D01*
X139438027Y-103083010D01*
X139440185Y-103082065D01*
X139824019Y-102878406D01*
X139885852Y-102845598D01*
X139885858Y-102845594D01*
X139887934Y-102844493D01*
X140316610Y-102574019D01*
X140318491Y-102572624D01*
X140318505Y-102572615D01*
X140721898Y-102273574D01*
X140723800Y-102272164D01*
X140861049Y-102153484D01*
X141105417Y-101942180D01*
X141105428Y-101942170D01*
X141107211Y-101940628D01*
X141464684Y-101581278D01*
X141794207Y-101196137D01*
X142051128Y-100845743D01*
X142092517Y-100789295D01*
X142092520Y-100789290D01*
X142093926Y-100787373D01*
X142322738Y-100420485D01*
X142360897Y-100359299D01*
X142360902Y-100359291D01*
X142362152Y-100357286D01*
X142597376Y-99908299D01*
X142740793Y-99576087D01*
X142797340Y-99445101D01*
X142797343Y-99445093D01*
X142798273Y-99442939D01*
X142927297Y-99069287D01*
X142962942Y-98966060D01*
X142962945Y-98966050D01*
X142963713Y-98963826D01*
X142964313Y-98961548D01*
X143092165Y-98475934D01*
X143092168Y-98475922D01*
X143092764Y-98473657D01*
X143093193Y-98471334D01*
X143172229Y-98042802D01*
X143184699Y-97975192D01*
X143239001Y-97471237D01*
X143239078Y-97468856D01*
X143253079Y-97035371D01*
X146744636Y-97035371D01*
X146766303Y-97541780D01*
X146782060Y-97674910D01*
X146819466Y-97990945D01*
X146825880Y-98045139D01*
X146826332Y-98047452D01*
X146826332Y-98047454D01*
X146871869Y-98280632D01*
X146923030Y-98542614D01*
X146923655Y-98544890D01*
X147056576Y-99029112D01*
X147056580Y-99029126D01*
X147057206Y-99031405D01*
X147227654Y-99508759D01*
X147228619Y-99510931D01*
X147405123Y-99908299D01*
X147433413Y-99971990D01*
X147434537Y-99974082D01*
X147434541Y-99974090D01*
X147672205Y-100416404D01*
X147672213Y-100416418D01*
X147673326Y-100418489D01*
X147946041Y-100845743D01*
X148250024Y-101251347D01*
X148251572Y-101253119D01*
X148251579Y-101253127D01*
X148539807Y-101582947D01*
X148583562Y-101633016D01*
X148585238Y-101634666D01*
X148585240Y-101634668D01*
X148943087Y-101986938D01*
X148943096Y-101986946D01*
X148944779Y-101988603D01*
X149331641Y-102316106D01*
X149333546Y-102317488D01*
X149333553Y-102317493D01*
X149643826Y-102542506D01*
X149741969Y-102613680D01*
X149743972Y-102614915D01*
X149743980Y-102614920D01*
X150171435Y-102878406D01*
X150171445Y-102878412D01*
X150173454Y-102879650D01*
X150623666Y-103112520D01*
X150625845Y-103113447D01*
X150625851Y-103113450D01*
X151087909Y-103310058D01*
X151087917Y-103310061D01*
X151090072Y-103310978D01*
X151092305Y-103311736D01*
X151509463Y-103453342D01*
X151570045Y-103473907D01*
X151572330Y-103474496D01*
X151572334Y-103474497D01*
X151917571Y-103563460D01*
X152060882Y-103600389D01*
X152063214Y-103600807D01*
X152063221Y-103600808D01*
X152254605Y-103635071D01*
X152559822Y-103689713D01*
X152814199Y-103715776D01*
X153061874Y-103741153D01*
X153061887Y-103741154D01*
X153064055Y-103741376D01*
X153082038Y-103741957D01*
X153345527Y-103750468D01*
X153345555Y-103750468D01*
X153346532Y-103750500D01*
X153632036Y-103750500D01*
X153633222Y-103750455D01*
X153633247Y-103750455D01*
X154004147Y-103736530D01*
X154004149Y-103736530D01*
X154006516Y-103736441D01*
X154510180Y-103679501D01*
X155008157Y-103584957D01*
X155418966Y-103474497D01*
X155495364Y-103453955D01*
X155495369Y-103453953D01*
X155497643Y-103453342D01*
X155499854Y-103452566D01*
X155499859Y-103452564D01*
X155618824Y-103410786D01*
X155975883Y-103285396D01*
X155978026Y-103284457D01*
X155978040Y-103284452D01*
X156438023Y-103083012D01*
X156438027Y-103083010D01*
X156440185Y-103082065D01*
X156824019Y-102878406D01*
X156885852Y-102845598D01*
X156885858Y-102845594D01*
X156887934Y-102844493D01*
X157316610Y-102574019D01*
X157318491Y-102572624D01*
X157318505Y-102572615D01*
X157721898Y-102273574D01*
X157723800Y-102272164D01*
X157861049Y-102153484D01*
X158105417Y-101942180D01*
X158105428Y-101942170D01*
X158107211Y-101940628D01*
X158464684Y-101581278D01*
X158794207Y-101196137D01*
X159051128Y-100845743D01*
X159092517Y-100789295D01*
X159092520Y-100789290D01*
X159093926Y-100787373D01*
X159322738Y-100420485D01*
X159360897Y-100359299D01*
X159360902Y-100359291D01*
X159362152Y-100357286D01*
X159597376Y-99908299D01*
X159740793Y-99576087D01*
X159797340Y-99445101D01*
X159797343Y-99445093D01*
X159798273Y-99442939D01*
X159927297Y-99069287D01*
X159962942Y-98966060D01*
X159962945Y-98966050D01*
X159963713Y-98963826D01*
X159964313Y-98961548D01*
X160092165Y-98475934D01*
X160092168Y-98475922D01*
X160092764Y-98473657D01*
X160093192Y-98471338D01*
X160093193Y-98471334D01*
X160122709Y-98311296D01*
X160154734Y-98247933D01*
X160215933Y-98211943D01*
X160286874Y-98214752D01*
X160345034Y-98255470D01*
X160354904Y-98269726D01*
X160519017Y-98545576D01*
X160519021Y-98545582D01*
X160520957Y-98548836D01*
X160723536Y-98811415D01*
X160726194Y-98814115D01*
X160937840Y-99029112D01*
X160956193Y-99047756D01*
X161215558Y-99254434D01*
X161497874Y-99428455D01*
X161501321Y-99430044D01*
X161795607Y-99565713D01*
X161795617Y-99565717D01*
X161799051Y-99567300D01*
X161802651Y-99568459D01*
X161802658Y-99568462D01*
X162111119Y-99667795D01*
X162111122Y-99667796D01*
X162114728Y-99668957D01*
X162118444Y-99669676D01*
X162118452Y-99669678D01*
X162436613Y-99731234D01*
X162436622Y-99731235D01*
X162440332Y-99731953D01*
X162444108Y-99732220D01*
X162444113Y-99732221D01*
X162542748Y-99739205D01*
X162702279Y-99750500D01*
X162883386Y-99750500D01*
X162885252Y-99750388D01*
X162885269Y-99750387D01*
X163127262Y-99735798D01*
X163127266Y-99735798D01*
X163131040Y-99735570D01*
X163134762Y-99734890D01*
X163134764Y-99734890D01*
X163208632Y-99721399D01*
X163457285Y-99675987D01*
X163774009Y-99577641D01*
X164076625Y-99441958D01*
X164360748Y-99270902D01*
X164363732Y-99268575D01*
X164363739Y-99268570D01*
X164619268Y-99069287D01*
X164619270Y-99069285D01*
X164622263Y-99066951D01*
X164857382Y-98833060D01*
X165062699Y-98572617D01*
X165235240Y-98289393D01*
X165290021Y-98168909D01*
X165370937Y-97990945D01*
X165370940Y-97990937D01*
X165372506Y-97987493D01*
X165472509Y-97671288D01*
X165533799Y-97345359D01*
X165555489Y-97014428D01*
X165537265Y-96683288D01*
X165510302Y-96531144D01*
X165480053Y-96360465D01*
X165479392Y-96356735D01*
X165470852Y-96328712D01*
X165383815Y-96043139D01*
X165382706Y-96039500D01*
X165248609Y-95736179D01*
X165125152Y-95528666D01*
X165080983Y-95454424D01*
X165080979Y-95454418D01*
X165079043Y-95451164D01*
X164876464Y-95188585D01*
X164724230Y-95033940D01*
X164646470Y-94954949D01*
X164646469Y-94954948D01*
X164643807Y-94952244D01*
X164384442Y-94745566D01*
X164102126Y-94571545D01*
X163932778Y-94493474D01*
X163804393Y-94434287D01*
X163804383Y-94434283D01*
X163800949Y-94432700D01*
X163797349Y-94431541D01*
X163797342Y-94431538D01*
X163488881Y-94332205D01*
X163488878Y-94332204D01*
X163485272Y-94331043D01*
X163481556Y-94330324D01*
X163481548Y-94330322D01*
X163163387Y-94268766D01*
X163163378Y-94268765D01*
X163159668Y-94268047D01*
X163155892Y-94267780D01*
X163155887Y-94267779D01*
X163057252Y-94260795D01*
X162897721Y-94249500D01*
X162716614Y-94249500D01*
X162714748Y-94249612D01*
X162714731Y-94249613D01*
X162472738Y-94264202D01*
X162472734Y-94264202D01*
X162468960Y-94264430D01*
X162465238Y-94265110D01*
X162465236Y-94265110D01*
X162449155Y-94268047D01*
X162142715Y-94324013D01*
X161825991Y-94422359D01*
X161523375Y-94558042D01*
X161239252Y-94729098D01*
X161236268Y-94731425D01*
X161236261Y-94731430D01*
X161215103Y-94747931D01*
X160977737Y-94933049D01*
X160742618Y-95166940D01*
X160537301Y-95427383D01*
X160364760Y-95710607D01*
X160363194Y-95714050D01*
X160363193Y-95714053D01*
X160360955Y-95718976D01*
X160314554Y-95772711D01*
X160246467Y-95792830D01*
X160178312Y-95772944D01*
X160131728Y-95719368D01*
X160122588Y-95690980D01*
X160077422Y-95459700D01*
X160077421Y-95459697D01*
X160076970Y-95457386D01*
X160003183Y-95188585D01*
X159943424Y-94970888D01*
X159943420Y-94970874D01*
X159942794Y-94968595D01*
X159772346Y-94491241D01*
X159595838Y-94093863D01*
X159567556Y-94030191D01*
X159567553Y-94030186D01*
X159566587Y-94028010D01*
X159359560Y-93642714D01*
X159327795Y-93583596D01*
X159327787Y-93583582D01*
X159326674Y-93581511D01*
X159053959Y-93154257D01*
X158749976Y-92748653D01*
X158748428Y-92746881D01*
X158748421Y-92746873D01*
X158417984Y-92368753D01*
X158417983Y-92368752D01*
X158416438Y-92366984D01*
X158414760Y-92365332D01*
X158056913Y-92013062D01*
X158056904Y-92013054D01*
X158055221Y-92011397D01*
X157668359Y-91683894D01*
X157666454Y-91682512D01*
X157666447Y-91682507D01*
X157259942Y-91387706D01*
X157258031Y-91386320D01*
X157256028Y-91385085D01*
X157256020Y-91385080D01*
X156828565Y-91121594D01*
X156828555Y-91121588D01*
X156826546Y-91120350D01*
X156376334Y-90887480D01*
X156374155Y-90886553D01*
X156374149Y-90886550D01*
X155912091Y-90689942D01*
X155912083Y-90689939D01*
X155909928Y-90689022D01*
X155885158Y-90680614D01*
X155432194Y-90526853D01*
X155432193Y-90526853D01*
X155429955Y-90526093D01*
X155427670Y-90525504D01*
X155427666Y-90525503D01*
X154999005Y-90415043D01*
X154939118Y-90399611D01*
X154936786Y-90399193D01*
X154936779Y-90399192D01*
X154745395Y-90364929D01*
X154440178Y-90310287D01*
X154185801Y-90284224D01*
X153938126Y-90258847D01*
X153938113Y-90258846D01*
X153935945Y-90258624D01*
X153917962Y-90258043D01*
X153654473Y-90249532D01*
X153654445Y-90249532D01*
X153653468Y-90249500D01*
X153367964Y-90249500D01*
X153366778Y-90249545D01*
X153366753Y-90249545D01*
X152995853Y-90263470D01*
X152995851Y-90263470D01*
X152993484Y-90263559D01*
X152489820Y-90320499D01*
X151991843Y-90415043D01*
X151706961Y-90491643D01*
X151504636Y-90546045D01*
X151504631Y-90546047D01*
X151502357Y-90546658D01*
X151500146Y-90547434D01*
X151500141Y-90547436D01*
X151381176Y-90589214D01*
X151024117Y-90714604D01*
X151021974Y-90715543D01*
X151021960Y-90715548D01*
X150561977Y-90916988D01*
X150559815Y-90917935D01*
X150276610Y-91068201D01*
X150114148Y-91154402D01*
X150114142Y-91154406D01*
X150112066Y-91155507D01*
X149683390Y-91425981D01*
X149681509Y-91427376D01*
X149681495Y-91427385D01*
X149337347Y-91682507D01*
X149276200Y-91727836D01*
X149274401Y-91729392D01*
X148894583Y-92057820D01*
X148894572Y-92057830D01*
X148892789Y-92059372D01*
X148535316Y-92418722D01*
X148205793Y-92803863D01*
X148204405Y-92805756D01*
X148204401Y-92805761D01*
X147947401Y-93156264D01*
X147906074Y-93212627D01*
X147904812Y-93214651D01*
X147904809Y-93214655D01*
X147676018Y-93581511D01*
X147637848Y-93642714D01*
X147402624Y-94091701D01*
X147327763Y-94265110D01*
X147229178Y-94493474D01*
X147201727Y-94557061D01*
X147196726Y-94571545D01*
X147058831Y-94970888D01*
X147036287Y-95036174D01*
X147035689Y-95038446D01*
X147035687Y-95038452D01*
X146924782Y-95459700D01*
X146907236Y-95526343D01*
X146906810Y-95528655D01*
X146906808Y-95528662D01*
X146877291Y-95688704D01*
X146815301Y-96024808D01*
X146760999Y-96528763D01*
X146760922Y-96531141D01*
X146760922Y-96531144D01*
X146745435Y-97010647D01*
X146744636Y-97035371D01*
X143253079Y-97035371D01*
X143255288Y-96966989D01*
X143255288Y-96966983D01*
X143255364Y-96964629D01*
X143233697Y-96458220D01*
X143193620Y-96119615D01*
X143174397Y-95957198D01*
X143174395Y-95957188D01*
X143174120Y-95954861D01*
X143142478Y-95792830D01*
X143077422Y-95459700D01*
X143077421Y-95459697D01*
X143076970Y-95457386D01*
X143003183Y-95188585D01*
X142943424Y-94970888D01*
X142943420Y-94970874D01*
X142942794Y-94968595D01*
X142772346Y-94491241D01*
X142595838Y-94093863D01*
X142567556Y-94030191D01*
X142567553Y-94030186D01*
X142566587Y-94028010D01*
X142359560Y-93642714D01*
X142327795Y-93583596D01*
X142327787Y-93583582D01*
X142326674Y-93581511D01*
X142053959Y-93154257D01*
X141749976Y-92748653D01*
X141748428Y-92746881D01*
X141748421Y-92746873D01*
X141417984Y-92368753D01*
X141417983Y-92368752D01*
X141416438Y-92366984D01*
X141414760Y-92365332D01*
X141056913Y-92013062D01*
X141056904Y-92013054D01*
X141055221Y-92011397D01*
X140668359Y-91683894D01*
X140666454Y-91682512D01*
X140666447Y-91682507D01*
X140259942Y-91387706D01*
X140258031Y-91386320D01*
X140256028Y-91385085D01*
X140256020Y-91385080D01*
X139828565Y-91121594D01*
X139828555Y-91121588D01*
X139826546Y-91120350D01*
X139376334Y-90887480D01*
X139374155Y-90886553D01*
X139374149Y-90886550D01*
X138912091Y-90689942D01*
X138912083Y-90689939D01*
X138909928Y-90689022D01*
X138885158Y-90680614D01*
X138432194Y-90526853D01*
X138432193Y-90526853D01*
X138429955Y-90526093D01*
X138427670Y-90525504D01*
X138427666Y-90525503D01*
X137999005Y-90415043D01*
X137939118Y-90399611D01*
X137936786Y-90399193D01*
X137936779Y-90399192D01*
X137745395Y-90364929D01*
X137440178Y-90310287D01*
X137185801Y-90284224D01*
X136938126Y-90258847D01*
X136938113Y-90258846D01*
X136935945Y-90258624D01*
X136917962Y-90258043D01*
X136654473Y-90249532D01*
X136654445Y-90249532D01*
X136653468Y-90249500D01*
X136367964Y-90249500D01*
X136366778Y-90249545D01*
X136366753Y-90249545D01*
X135995853Y-90263470D01*
X135995851Y-90263470D01*
X135993484Y-90263559D01*
X135489820Y-90320499D01*
X134991843Y-90415043D01*
X134706961Y-90491643D01*
X134504636Y-90546045D01*
X134504631Y-90546047D01*
X134502357Y-90546658D01*
X134500146Y-90547434D01*
X134500141Y-90547436D01*
X134381176Y-90589214D01*
X134024117Y-90714604D01*
X134021974Y-90715543D01*
X134021960Y-90715548D01*
X133561977Y-90916988D01*
X133559815Y-90917935D01*
X133276610Y-91068201D01*
X133114148Y-91154402D01*
X133114142Y-91154406D01*
X133112066Y-91155507D01*
X132683390Y-91425981D01*
X132681509Y-91427376D01*
X132681495Y-91427385D01*
X132337347Y-91682507D01*
X132276200Y-91727836D01*
X132274401Y-91729392D01*
X131894583Y-92057820D01*
X131894572Y-92057830D01*
X131892789Y-92059372D01*
X131535316Y-92418722D01*
X131205793Y-92803863D01*
X131204405Y-92805756D01*
X131204401Y-92805761D01*
X130947401Y-93156264D01*
X130906074Y-93212627D01*
X130904812Y-93214651D01*
X130904809Y-93214655D01*
X130676018Y-93581511D01*
X130637848Y-93642714D01*
X130402624Y-94091701D01*
X130327763Y-94265110D01*
X130229178Y-94493474D01*
X130201727Y-94557061D01*
X130196726Y-94571545D01*
X130058831Y-94970888D01*
X130036287Y-95036174D01*
X130035689Y-95038446D01*
X130035687Y-95038452D01*
X129924782Y-95459700D01*
X129907236Y-95526343D01*
X129906810Y-95528652D01*
X129906807Y-95528666D01*
X129877291Y-95688704D01*
X129845266Y-95752067D01*
X129784067Y-95788057D01*
X129713126Y-95785248D01*
X129654966Y-95744530D01*
X129645096Y-95730274D01*
X129480983Y-95454424D01*
X129480979Y-95454418D01*
X129479043Y-95451164D01*
X129276464Y-95188585D01*
X129124230Y-95033940D01*
X129046470Y-94954949D01*
X129046469Y-94954948D01*
X129043807Y-94952244D01*
X128784442Y-94745566D01*
X128502126Y-94571545D01*
X128332778Y-94493474D01*
X128204393Y-94434287D01*
X128204383Y-94434283D01*
X128200949Y-94432700D01*
X128197349Y-94431541D01*
X128197342Y-94431538D01*
X127888881Y-94332205D01*
X127888878Y-94332204D01*
X127885272Y-94331043D01*
X127881556Y-94330324D01*
X127881548Y-94330322D01*
X127563387Y-94268766D01*
X127563378Y-94268765D01*
X127559668Y-94268047D01*
X127555892Y-94267780D01*
X127555887Y-94267779D01*
X127457252Y-94260795D01*
X127297721Y-94249500D01*
X127116614Y-94249500D01*
X127114748Y-94249612D01*
X127114731Y-94249613D01*
X126872738Y-94264202D01*
X126872734Y-94264202D01*
X126868960Y-94264430D01*
X126865238Y-94265110D01*
X126865236Y-94265110D01*
X126849155Y-94268047D01*
X126542715Y-94324013D01*
X126225991Y-94422359D01*
X125923375Y-94558042D01*
X125639252Y-94729098D01*
X125636268Y-94731425D01*
X125636261Y-94731430D01*
X125615103Y-94747931D01*
X125377737Y-94933049D01*
X125142618Y-95166940D01*
X124937301Y-95427383D01*
X124764760Y-95710607D01*
X124753133Y-95736179D01*
X124629063Y-96009055D01*
X124629060Y-96009063D01*
X124627494Y-96012507D01*
X124527491Y-96328712D01*
X124466201Y-96654641D01*
X124444511Y-96985572D01*
X123751000Y-96985572D01*
X123751000Y-89502916D01*
X123751066Y-89500038D01*
X123751082Y-89500000D01*
X123751068Y-89499966D01*
X123751134Y-89497097D01*
X123766976Y-89154442D01*
X123766994Y-89154075D01*
X123767887Y-89135908D01*
X123768943Y-89124686D01*
X123803063Y-88880088D01*
X123803219Y-88879009D01*
X123810620Y-88829111D01*
X123821058Y-88758748D01*
X123823035Y-88748418D01*
X123853889Y-88617234D01*
X123874884Y-88527969D01*
X123875313Y-88526202D01*
X123909816Y-88388457D01*
X123912572Y-88379030D01*
X123981836Y-88172378D01*
X123982669Y-88169973D01*
X124013725Y-88083175D01*
X124033335Y-88028368D01*
X124036694Y-88019950D01*
X124122922Y-87824663D01*
X124124283Y-87821685D01*
X124190465Y-87681754D01*
X124194292Y-87674314D01*
X124296896Y-87490106D01*
X124298867Y-87486694D01*
X124379739Y-87351768D01*
X124383862Y-87345339D01*
X124502185Y-87172608D01*
X124504873Y-87168838D01*
X124599409Y-87041371D01*
X124603671Y-87035942D01*
X124736871Y-86875536D01*
X124740447Y-86871415D01*
X124847421Y-86753387D01*
X124851686Y-86748908D01*
X124998908Y-86601686D01*
X125003387Y-86597421D01*
X125121415Y-86490447D01*
X125125536Y-86486871D01*
X125285942Y-86353671D01*
X125291379Y-86349403D01*
X125418838Y-86254873D01*
X125422608Y-86252185D01*
X125595341Y-86133861D01*
X125601769Y-86129738D01*
X125736694Y-86048867D01*
X125740106Y-86046896D01*
X125924316Y-85944291D01*
X125931754Y-85940465D01*
X126071685Y-85874283D01*
X126074663Y-85872922D01*
X126150612Y-85839387D01*
X126269950Y-85786694D01*
X126278368Y-85783335D01*
X126333175Y-85763725D01*
X126419973Y-85732669D01*
X126422378Y-85731836D01*
X126629030Y-85662572D01*
X126638457Y-85659816D01*
X126776202Y-85625313D01*
X126777969Y-85624884D01*
X126867234Y-85603889D01*
X126998418Y-85573035D01*
X127008748Y-85571058D01*
X127079111Y-85560620D01*
X127129009Y-85553219D01*
X127130088Y-85553063D01*
X127374686Y-85518943D01*
X127385908Y-85517887D01*
X127400421Y-85517174D01*
X127404468Y-85516975D01*
X127747097Y-85501134D01*
X127749966Y-85501068D01*
X127750000Y-85501082D01*
X127750038Y-85501066D01*
X127752916Y-85501000D01*
X162247084Y-85501000D01*
X162249962Y-85501066D01*
G37*
%TD.AperFunction*%
M02*
