%TF.GenerationSoftware,KiCad,Pcbnew,8.0.1*%
%TF.CreationDate,2024-05-28T16:45:22+01:00*%
%TF.ProjectId,ps2usb,70733275-7362-42e6-9b69-6361645f7063,rev?*%
%TF.SameCoordinates,Original*%
%TF.FileFunction,Soldermask,Bot*%
%TF.FilePolarity,Negative*%
%FSLAX46Y46*%
G04 Gerber Fmt 4.6, Leading zero omitted, Abs format (unit mm)*
G04 Created by KiCad (PCBNEW 8.0.1) date 2024-05-28 16:45:22*
%MOMM*%
%LPD*%
G01*
G04 APERTURE LIST*
%ADD10C,0.080000*%
%ADD11C,0.100000*%
%ADD12O,1.700000X1.700000*%
%ADD13R,1.700000X1.700000*%
%ADD14C,1.800000*%
%ADD15O,4.400000X3.000000*%
%ADD16C,4.400000*%
%ADD17O,3.000000X1.500000*%
%ADD18O,5.000000X3.500000*%
%ADD19C,2.000000*%
%ADD20C,2.600000*%
%ADD21C,4.000000*%
%ADD22R,1.600000X1.600000*%
%ADD23C,1.600000*%
G04 APERTURE END LIST*
D10*
X120501405Y-73916652D02*
X119404360Y-73916652D01*
X119325639Y-73915698D01*
X119250981Y-73912836D01*
X119180384Y-73908066D01*
X119113850Y-73901388D01*
X119082106Y-73897333D01*
X119051378Y-73892802D01*
X119021665Y-73887793D01*
X118992968Y-73882307D01*
X118965287Y-73876345D01*
X118938621Y-73869905D01*
X118912971Y-73862988D01*
X118888336Y-73855594D01*
X118856500Y-73845000D01*
X118825494Y-73833898D01*
X118795320Y-73822288D01*
X118765977Y-73810171D01*
X118737464Y-73797546D01*
X118709783Y-73784413D01*
X118682932Y-73770772D01*
X118656912Y-73756624D01*
X118631723Y-73741967D01*
X118607365Y-73726803D01*
X118583838Y-73711131D01*
X118561142Y-73694952D01*
X118539277Y-73678264D01*
X118518243Y-73661069D01*
X118498040Y-73643366D01*
X118478667Y-73625155D01*
X118453917Y-73600313D01*
X118429890Y-73574531D01*
X118406586Y-73547812D01*
X118384005Y-73520153D01*
X118362148Y-73491556D01*
X118341014Y-73462021D01*
X118320602Y-73431546D01*
X118300915Y-73400133D01*
X118281950Y-73367782D01*
X118263708Y-73334492D01*
X118246190Y-73300263D01*
X118229395Y-73265096D01*
X118213323Y-73228990D01*
X118197974Y-73191945D01*
X118183349Y-73153962D01*
X118169446Y-73115040D01*
X118158714Y-73082404D01*
X118148674Y-73048998D01*
X118130671Y-72979879D01*
X118115437Y-72907682D01*
X118102974Y-72832408D01*
X118093280Y-72754056D01*
X118086356Y-72672627D01*
X118082201Y-72588120D01*
X118080816Y-72500536D01*
X118081197Y-72474935D01*
X118683501Y-72474935D01*
X118684425Y-72556457D01*
X118687194Y-72633609D01*
X118691810Y-72706390D01*
X118698273Y-72774802D01*
X118706582Y-72838843D01*
X118711429Y-72869225D01*
X118716738Y-72898515D01*
X118722508Y-72926712D01*
X118728740Y-72953816D01*
X118735433Y-72979828D01*
X118742588Y-73004747D01*
X118750113Y-73028451D01*
X118757914Y-73051309D01*
X118765992Y-73073320D01*
X118774347Y-73094485D01*
X118782979Y-73114803D01*
X118791888Y-73134276D01*
X118801075Y-73152902D01*
X118810538Y-73170681D01*
X118820278Y-73187615D01*
X118830295Y-73203702D01*
X118840589Y-73218943D01*
X118851160Y-73233338D01*
X118862008Y-73246887D01*
X118873132Y-73259589D01*
X118884534Y-73271445D01*
X118896213Y-73282455D01*
X118907977Y-73292849D01*
X118920125Y-73302858D01*
X118932658Y-73312482D01*
X118945575Y-73321722D01*
X118958878Y-73330577D01*
X118972565Y-73339048D01*
X118986636Y-73347134D01*
X119001092Y-73354835D01*
X119015933Y-73362151D01*
X119031159Y-73369083D01*
X119046769Y-73375630D01*
X119062764Y-73381793D01*
X119079144Y-73387571D01*
X119095908Y-73392964D01*
X119113057Y-73397972D01*
X119130591Y-73402596D01*
X119159796Y-73409059D01*
X119193248Y-73414659D01*
X119230947Y-73419399D01*
X119272892Y-73423276D01*
X119319084Y-73426292D01*
X119369524Y-73428446D01*
X119424210Y-73429739D01*
X119483142Y-73430170D01*
X119918415Y-73430170D01*
X119918415Y-71517727D01*
X119656463Y-71517729D01*
X119571003Y-71518160D01*
X119492867Y-71519453D01*
X119422055Y-71521607D01*
X119358568Y-71524623D01*
X119302404Y-71528500D01*
X119253566Y-71533239D01*
X119212051Y-71538840D01*
X119194040Y-71541964D01*
X119177860Y-71545303D01*
X119157649Y-71549988D01*
X119137884Y-71555181D01*
X119118566Y-71560883D01*
X119099693Y-71567091D01*
X119081267Y-71573808D01*
X119063287Y-71581032D01*
X119045754Y-71588764D01*
X119028666Y-71597004D01*
X119012025Y-71605752D01*
X118995830Y-71615007D01*
X118980081Y-71624770D01*
X118964779Y-71635041D01*
X118949922Y-71645820D01*
X118935512Y-71657106D01*
X118921548Y-71668900D01*
X118908031Y-71681202D01*
X118894921Y-71694066D01*
X118882180Y-71707545D01*
X118869809Y-71721640D01*
X118857807Y-71736350D01*
X118846174Y-71751675D01*
X118834911Y-71767616D01*
X118824017Y-71784173D01*
X118813492Y-71801345D01*
X118803337Y-71819133D01*
X118793550Y-71837536D01*
X118784133Y-71856554D01*
X118775086Y-71876189D01*
X118766407Y-71896438D01*
X118758098Y-71917303D01*
X118750159Y-71938784D01*
X118742588Y-71960880D01*
X118728740Y-72008119D01*
X118716738Y-72060220D01*
X118706582Y-72117184D01*
X118698273Y-72179010D01*
X118691810Y-72245698D01*
X118687194Y-72317248D01*
X118684425Y-72393661D01*
X118683501Y-72474935D01*
X118081197Y-72474935D01*
X118082294Y-72401135D01*
X118086725Y-72305796D01*
X118094111Y-72214519D01*
X118098912Y-72170404D01*
X118104451Y-72127305D01*
X118110729Y-72085221D01*
X118117746Y-72044152D01*
X118125501Y-72004100D01*
X118133995Y-71965062D01*
X118143227Y-71927041D01*
X118153198Y-71890034D01*
X118163907Y-71854044D01*
X118175356Y-71819069D01*
X118187511Y-71784694D01*
X118200344Y-71750996D01*
X118213854Y-71717975D01*
X118228041Y-71685631D01*
X118242905Y-71653964D01*
X118258447Y-71622975D01*
X118274665Y-71592662D01*
X118291560Y-71563026D01*
X118309132Y-71534067D01*
X118327381Y-71505786D01*
X118346307Y-71478181D01*
X118365910Y-71451254D01*
X118386191Y-71425003D01*
X118407148Y-71399430D01*
X118428782Y-71374533D01*
X118451093Y-71350314D01*
X118474028Y-71326887D01*
X118497532Y-71304368D01*
X118521606Y-71282757D01*
X118546248Y-71262053D01*
X118571460Y-71242258D01*
X118597241Y-71223370D01*
X118623592Y-71205390D01*
X118650512Y-71188318D01*
X118678001Y-71172154D01*
X118706060Y-71156898D01*
X118734687Y-71142549D01*
X118763885Y-71129108D01*
X118793651Y-71116576D01*
X118823987Y-71104951D01*
X118854892Y-71094233D01*
X118886366Y-71084424D01*
X118936313Y-71071499D01*
X118991615Y-71060297D01*
X119052271Y-71050818D01*
X119118282Y-71043063D01*
X119189647Y-71037031D01*
X119266368Y-71032723D01*
X119348443Y-71030138D01*
X119435873Y-71029276D01*
X120501405Y-71029276D01*
X120501405Y-71517727D01*
X120501405Y-73916652D01*
G36*
X120501405Y-73916652D02*
G01*
X119404360Y-73916652D01*
X119325639Y-73915698D01*
X119250981Y-73912836D01*
X119180384Y-73908066D01*
X119113850Y-73901388D01*
X119082106Y-73897333D01*
X119051378Y-73892802D01*
X119021665Y-73887793D01*
X118992968Y-73882307D01*
X118965287Y-73876345D01*
X118938621Y-73869905D01*
X118912971Y-73862988D01*
X118888336Y-73855594D01*
X118856500Y-73845000D01*
X118825494Y-73833898D01*
X118795320Y-73822288D01*
X118765977Y-73810171D01*
X118737464Y-73797546D01*
X118709783Y-73784413D01*
X118682932Y-73770772D01*
X118656912Y-73756624D01*
X118631723Y-73741967D01*
X118607365Y-73726803D01*
X118583838Y-73711131D01*
X118561142Y-73694952D01*
X118539277Y-73678264D01*
X118518243Y-73661069D01*
X118498040Y-73643366D01*
X118478667Y-73625155D01*
X118453917Y-73600313D01*
X118429890Y-73574531D01*
X118406586Y-73547812D01*
X118384005Y-73520153D01*
X118362148Y-73491556D01*
X118341014Y-73462021D01*
X118320602Y-73431546D01*
X118300915Y-73400133D01*
X118281950Y-73367782D01*
X118263708Y-73334492D01*
X118246190Y-73300263D01*
X118229395Y-73265096D01*
X118213323Y-73228990D01*
X118197974Y-73191945D01*
X118183349Y-73153962D01*
X118169446Y-73115040D01*
X118158714Y-73082404D01*
X118148674Y-73048998D01*
X118130671Y-72979879D01*
X118115437Y-72907682D01*
X118102974Y-72832408D01*
X118093280Y-72754056D01*
X118086356Y-72672627D01*
X118082201Y-72588120D01*
X118080816Y-72500536D01*
X118081197Y-72474935D01*
X118683501Y-72474935D01*
X118684425Y-72556457D01*
X118687194Y-72633609D01*
X118691810Y-72706390D01*
X118698273Y-72774802D01*
X118706582Y-72838843D01*
X118711429Y-72869225D01*
X118716738Y-72898515D01*
X118722508Y-72926712D01*
X118728740Y-72953816D01*
X118735433Y-72979828D01*
X118742588Y-73004747D01*
X118750113Y-73028451D01*
X118757914Y-73051309D01*
X118765992Y-73073320D01*
X118774347Y-73094485D01*
X118782979Y-73114803D01*
X118791888Y-73134276D01*
X118801075Y-73152902D01*
X118810538Y-73170681D01*
X118820278Y-73187615D01*
X118830295Y-73203702D01*
X118840589Y-73218943D01*
X118851160Y-73233338D01*
X118862008Y-73246887D01*
X118873132Y-73259589D01*
X118884534Y-73271445D01*
X118896213Y-73282455D01*
X118907977Y-73292849D01*
X118920125Y-73302858D01*
X118932658Y-73312482D01*
X118945575Y-73321722D01*
X118958878Y-73330577D01*
X118972565Y-73339048D01*
X118986636Y-73347134D01*
X119001092Y-73354835D01*
X119015933Y-73362151D01*
X119031159Y-73369083D01*
X119046769Y-73375630D01*
X119062764Y-73381793D01*
X119079144Y-73387571D01*
X119095908Y-73392964D01*
X119113057Y-73397972D01*
X119130591Y-73402596D01*
X119159796Y-73409059D01*
X119193248Y-73414659D01*
X119230947Y-73419399D01*
X119272892Y-73423276D01*
X119319084Y-73426292D01*
X119369524Y-73428446D01*
X119424210Y-73429739D01*
X119483142Y-73430170D01*
X119918415Y-73430170D01*
X119918415Y-71517727D01*
X119656463Y-71517729D01*
X119571003Y-71518160D01*
X119492867Y-71519453D01*
X119422055Y-71521607D01*
X119358568Y-71524623D01*
X119302404Y-71528500D01*
X119253566Y-71533239D01*
X119212051Y-71538840D01*
X119194040Y-71541964D01*
X119177860Y-71545303D01*
X119157649Y-71549988D01*
X119137884Y-71555181D01*
X119118566Y-71560883D01*
X119099693Y-71567091D01*
X119081267Y-71573808D01*
X119063287Y-71581032D01*
X119045754Y-71588764D01*
X119028666Y-71597004D01*
X119012025Y-71605752D01*
X118995830Y-71615007D01*
X118980081Y-71624770D01*
X118964779Y-71635041D01*
X118949922Y-71645820D01*
X118935512Y-71657106D01*
X118921548Y-71668900D01*
X118908031Y-71681202D01*
X118894921Y-71694066D01*
X118882180Y-71707545D01*
X118869809Y-71721640D01*
X118857807Y-71736350D01*
X118846174Y-71751675D01*
X118834911Y-71767616D01*
X118824017Y-71784173D01*
X118813492Y-71801345D01*
X118803337Y-71819133D01*
X118793550Y-71837536D01*
X118784133Y-71856554D01*
X118775086Y-71876189D01*
X118766407Y-71896438D01*
X118758098Y-71917303D01*
X118750159Y-71938784D01*
X118742588Y-71960880D01*
X118728740Y-72008119D01*
X118716738Y-72060220D01*
X118706582Y-72117184D01*
X118698273Y-72179010D01*
X118691810Y-72245698D01*
X118687194Y-72317248D01*
X118684425Y-72393661D01*
X118683501Y-72474935D01*
X118081197Y-72474935D01*
X118082294Y-72401135D01*
X118086725Y-72305796D01*
X118094111Y-72214519D01*
X118098912Y-72170404D01*
X118104451Y-72127305D01*
X118110729Y-72085221D01*
X118117746Y-72044152D01*
X118125501Y-72004100D01*
X118133995Y-71965062D01*
X118143227Y-71927041D01*
X118153198Y-71890034D01*
X118163907Y-71854044D01*
X118175356Y-71819069D01*
X118187511Y-71784694D01*
X118200344Y-71750996D01*
X118213854Y-71717975D01*
X118228041Y-71685631D01*
X118242905Y-71653964D01*
X118258447Y-71622975D01*
X118274665Y-71592662D01*
X118291560Y-71563026D01*
X118309132Y-71534067D01*
X118327381Y-71505786D01*
X118346307Y-71478181D01*
X118365910Y-71451254D01*
X118386191Y-71425003D01*
X118407148Y-71399430D01*
X118428782Y-71374533D01*
X118451093Y-71350314D01*
X118474028Y-71326887D01*
X118497532Y-71304368D01*
X118521606Y-71282757D01*
X118546248Y-71262053D01*
X118571460Y-71242258D01*
X118597241Y-71223370D01*
X118623592Y-71205390D01*
X118650512Y-71188318D01*
X118678001Y-71172154D01*
X118706060Y-71156898D01*
X118734687Y-71142549D01*
X118763885Y-71129108D01*
X118793651Y-71116576D01*
X118823987Y-71104951D01*
X118854892Y-71094233D01*
X118886366Y-71084424D01*
X118936313Y-71071499D01*
X118991615Y-71060297D01*
X119052271Y-71050818D01*
X119118282Y-71043063D01*
X119189647Y-71037031D01*
X119266368Y-71032723D01*
X119348443Y-71030138D01*
X119435873Y-71029276D01*
X120501405Y-71029276D01*
X120501405Y-71517727D01*
X120501405Y-73916652D01*
G37*
X122192673Y-72165712D02*
X123335018Y-72165712D01*
X123335018Y-71029276D01*
X123918007Y-71029276D01*
X123918007Y-73916649D01*
X123335018Y-73916649D01*
X123335018Y-72654161D01*
X122192673Y-72654161D01*
X122192673Y-73916649D01*
X121609684Y-73916649D01*
X121609684Y-71029276D01*
X122192673Y-71029276D01*
X122192673Y-72165712D01*
G36*
X122192673Y-72165712D02*
G01*
X123335018Y-72165712D01*
X123335018Y-71029276D01*
X123918007Y-71029276D01*
X123918007Y-73916649D01*
X123335018Y-73916649D01*
X123335018Y-72654161D01*
X122192673Y-72654161D01*
X122192673Y-73916649D01*
X121609684Y-73916649D01*
X121609684Y-71029276D01*
X122192673Y-71029276D01*
X122192673Y-72165712D01*
G37*
D11*
X97000000Y-67500000D02*
X137000000Y-67500000D01*
X137000000Y-69500000D01*
X97000000Y-69500000D01*
X97000000Y-67500000D01*
G36*
X97000000Y-67500000D02*
G01*
X137000000Y-67500000D01*
X137000000Y-69500000D01*
X97000000Y-69500000D01*
X97000000Y-67500000D01*
G37*
X97000000Y-120500000D02*
X137000000Y-120500000D01*
X137000000Y-122500000D01*
X97000000Y-122500000D01*
X97000000Y-120500000D01*
G36*
X97000000Y-120500000D02*
G01*
X137000000Y-120500000D01*
X137000000Y-122500000D01*
X97000000Y-122500000D01*
X97000000Y-120500000D01*
G37*
D10*
X121331283Y-73916649D02*
X120748293Y-73916649D01*
X120748293Y-71029276D01*
X121331283Y-71029276D01*
X121331283Y-73916649D01*
G36*
X121331283Y-73916649D02*
G01*
X120748293Y-73916649D01*
X120748293Y-71029276D01*
X121331283Y-71029276D01*
X121331283Y-73916649D01*
G37*
D12*
%TO.C,J5*%
X119761000Y-85344000D03*
X117221000Y-85344000D03*
D13*
X114681000Y-85344000D03*
%TD*%
D14*
%TO.C,J3*%
X128500000Y-110500000D03*
X128500000Y-113100000D03*
X128500000Y-108400000D03*
X126000000Y-110500000D03*
X128500000Y-115200000D03*
X126000000Y-108400000D03*
X126000000Y-112700000D03*
X126000000Y-115200000D03*
D15*
X131500000Y-105050000D03*
D16*
X132300000Y-111800000D03*
D15*
X131500000Y-118550000D03*
%TD*%
D17*
%TO.C,J2*%
X113360000Y-105250000D03*
X109340000Y-105250000D03*
X113360000Y-107750000D03*
X109340000Y-107750000D03*
X113360000Y-109750000D03*
X109340000Y-109750000D03*
X113360000Y-112250000D03*
X109340000Y-112250000D03*
D18*
X113010000Y-102180000D03*
X107330000Y-102180000D03*
X113010000Y-115320000D03*
X107330000Y-115320000D03*
%TD*%
D19*
%TO.C,S1*%
X101750000Y-90250000D03*
X101750000Y-94750000D03*
D20*
X104250000Y-89000000D03*
X104250000Y-96000000D03*
%TD*%
D21*
%TO.C,J4*%
X127489669Y-98190000D03*
X127489669Y-73190000D03*
D22*
X126069669Y-80150000D03*
D23*
X126069669Y-82920000D03*
X126069669Y-85690000D03*
X126069669Y-88460000D03*
X126069669Y-91230000D03*
X128909669Y-81535000D03*
X128909669Y-84305000D03*
X128909669Y-87075000D03*
X128909669Y-89845000D03*
%TD*%
D14*
%TO.C,J1*%
X105500000Y-79500000D03*
X105500000Y-76900000D03*
X105500000Y-81600000D03*
X108000000Y-79500000D03*
X105500000Y-74800000D03*
X108000000Y-81600000D03*
X108000000Y-77300000D03*
X108000000Y-74800000D03*
D15*
X102500000Y-84950000D03*
D16*
X101700000Y-78200000D03*
D15*
X102500000Y-71450000D03*
%TD*%
M02*
