%TF.GenerationSoftware,KiCad,Pcbnew,(7.0.0)*%
%TF.CreationDate,2023-02-18T15:12:11+00:00*%
%TF.ProjectId,ps2usb,70733275-7362-42e6-9b69-6361645f7063,rev?*%
%TF.SameCoordinates,Original*%
%TF.FileFunction,Soldermask,Top*%
%TF.FilePolarity,Negative*%
%FSLAX46Y46*%
G04 Gerber Fmt 4.6, Leading zero omitted, Abs format (unit mm)*
G04 Created by KiCad (PCBNEW (7.0.0)) date 2023-02-18 15:12:11*
%MOMM*%
%LPD*%
G01*
G04 APERTURE LIST*
G04 Aperture macros list*
%AMRoundRect*
0 Rectangle with rounded corners*
0 $1 Rounding radius*
0 $2 $3 $4 $5 $6 $7 $8 $9 X,Y pos of 4 corners*
0 Add a 4 corners polygon primitive as box body*
4,1,4,$2,$3,$4,$5,$6,$7,$8,$9,$2,$3,0*
0 Add four circle primitives for the rounded corners*
1,1,$1+$1,$2,$3*
1,1,$1+$1,$4,$5*
1,1,$1+$1,$6,$7*
1,1,$1+$1,$8,$9*
0 Add four rect primitives between the rounded corners*
20,1,$1+$1,$2,$3,$4,$5,0*
20,1,$1+$1,$4,$5,$6,$7,0*
20,1,$1+$1,$6,$7,$8,$9,0*
20,1,$1+$1,$8,$9,$2,$3,0*%
G04 Aperture macros list end*
%ADD10C,0.100000*%
%ADD11RoundRect,0.225000X-0.250000X0.225000X-0.250000X-0.225000X0.250000X-0.225000X0.250000X0.225000X0*%
%ADD12RoundRect,0.225000X-0.225000X-0.250000X0.225000X-0.250000X0.225000X0.250000X-0.225000X0.250000X0*%
%ADD13C,1.800000*%
%ADD14O,4.400000X3.000000*%
%ADD15C,4.400000*%
%ADD16RoundRect,0.150000X0.300000X0.150000X-0.300000X0.150000X-0.300000X-0.150000X0.300000X-0.150000X0*%
%ADD17RoundRect,0.137500X0.137500X0.162500X-0.137500X0.162500X-0.137500X-0.162500X0.137500X-0.162500X0*%
%ADD18R,0.900000X0.900000*%
%ADD19O,3.000000X1.500000*%
%ADD20O,5.000000X3.500000*%
%ADD21O,0.300000X1.400000*%
%ADD22O,1.400000X0.300000*%
%ADD23RoundRect,0.150000X-0.825000X-0.150000X0.825000X-0.150000X0.825000X0.150000X-0.825000X0.150000X0*%
%ADD24RoundRect,0.225000X0.250000X-0.225000X0.250000X0.225000X-0.250000X0.225000X-0.250000X-0.225000X0*%
%ADD25C,2.000000*%
%ADD26C,2.600000*%
%ADD27R,1.700000X1.700000*%
%ADD28O,1.700000X1.700000*%
%ADD29C,4.000000*%
%ADD30R,1.600000X1.600000*%
%ADD31C,1.600000*%
%ADD32RoundRect,0.250000X-0.625000X0.375000X-0.625000X-0.375000X0.625000X-0.375000X0.625000X0.375000X0*%
G04 APERTURE END LIST*
D10*
X97000000Y-120500000D02*
X137000000Y-120500000D01*
X137000000Y-120500000D02*
X137000000Y-122500000D01*
X137000000Y-122500000D02*
X97000000Y-122500000D01*
X97000000Y-122500000D02*
X97000000Y-120500000D01*
G36*
X97000000Y-120500000D02*
G01*
X137000000Y-120500000D01*
X137000000Y-122500000D01*
X97000000Y-122500000D01*
X97000000Y-120500000D01*
G37*
X97000000Y-67500000D02*
X137000000Y-67500000D01*
X137000000Y-67500000D02*
X137000000Y-69500000D01*
X137000000Y-69500000D02*
X97000000Y-69500000D01*
X97000000Y-69500000D02*
X97000000Y-67500000D01*
G36*
X97000000Y-67500000D02*
G01*
X137000000Y-67500000D01*
X137000000Y-69500000D01*
X97000000Y-69500000D01*
X97000000Y-67500000D01*
G37*
D11*
%TO.C,C4*%
X122800000Y-88725000D03*
X122800000Y-90275000D03*
%TD*%
D12*
%TO.C,C7*%
X120225000Y-71700000D03*
X121775000Y-71700000D03*
%TD*%
D13*
%TO.C,J3*%
X128500000Y-110500000D03*
X128500000Y-113100000D03*
X128500000Y-108400000D03*
X126000000Y-110500000D03*
X128500000Y-115200000D03*
X126000000Y-108400000D03*
X126000000Y-112700000D03*
X126000000Y-115200000D03*
D14*
X131499999Y-105049999D03*
D15*
X132300000Y-111800000D03*
D14*
X131499999Y-118549999D03*
%TD*%
D16*
%TO.C,D1*%
X98500000Y-91100000D03*
D17*
X98825000Y-92050000D03*
X98825000Y-92950000D03*
D16*
X98500000Y-93900000D03*
%TD*%
D18*
%TO.C,RN3*%
X107999999Y-92499999D03*
X107999999Y-93839999D03*
X107999999Y-95159999D03*
X107999999Y-96499999D03*
X110999999Y-96499999D03*
X110999999Y-95159999D03*
X110999999Y-93839999D03*
X110999999Y-92499999D03*
%TD*%
%TO.C,RN1*%
X111999999Y-86499999D03*
X110659999Y-86499999D03*
X109339999Y-86499999D03*
X107999999Y-86499999D03*
X107999999Y-89499999D03*
X109339999Y-89499999D03*
X110659999Y-89499999D03*
X111999999Y-89499999D03*
%TD*%
D12*
%TO.C,C1*%
X100571000Y-117348000D03*
X102121000Y-117348000D03*
%TD*%
D19*
%TO.C,J2*%
X113359999Y-105249999D03*
X109339999Y-105249999D03*
X113359999Y-107749999D03*
X109339999Y-107749999D03*
X113359999Y-109749999D03*
X109339999Y-109749999D03*
X113359999Y-112249999D03*
X109339999Y-112249999D03*
D20*
X113009999Y-102179999D03*
X107329999Y-102179999D03*
X113009999Y-115319999D03*
X107329999Y-115319999D03*
%TD*%
D21*
%TO.C,U1*%
X120351999Y-90234999D03*
X119851999Y-90234999D03*
X119351999Y-90234999D03*
X118851999Y-90234999D03*
X118351999Y-90234999D03*
X117851999Y-90234999D03*
X117351999Y-90234999D03*
X116851999Y-90234999D03*
X116351999Y-90234999D03*
X115851999Y-90234999D03*
X115351999Y-90234999D03*
X114851999Y-90234999D03*
D22*
X113401999Y-91684999D03*
X113401999Y-92184999D03*
X113401999Y-92684999D03*
X113401999Y-93184999D03*
X113401999Y-93684999D03*
X113401999Y-94184999D03*
X113401999Y-94684999D03*
X113401999Y-95184999D03*
X113401999Y-95684999D03*
X113401999Y-96184999D03*
X113401999Y-96684999D03*
X113401999Y-97184999D03*
D21*
X114851999Y-98634999D03*
X115351999Y-98634999D03*
X115851999Y-98634999D03*
X116351999Y-98634999D03*
X116851999Y-98634999D03*
X117351999Y-98634999D03*
X117851999Y-98634999D03*
X118351999Y-98634999D03*
X118851999Y-98634999D03*
X119351999Y-98634999D03*
X119851999Y-98634999D03*
X120351999Y-98634999D03*
D22*
X121801999Y-97184999D03*
X121801999Y-96684999D03*
X121801999Y-96184999D03*
X121801999Y-95684999D03*
X121801999Y-95184999D03*
X121801999Y-94684999D03*
X121801999Y-94184999D03*
X121801999Y-93684999D03*
X121801999Y-93184999D03*
X121801999Y-92684999D03*
X121801999Y-92184999D03*
X121801999Y-91684999D03*
%TD*%
D18*
%TO.C,RN2*%
X122629999Y-112053999D03*
X122629999Y-110713999D03*
X122629999Y-109393999D03*
X122629999Y-108053999D03*
X119629999Y-108053999D03*
X119629999Y-109393999D03*
X119629999Y-110713999D03*
X119629999Y-112053999D03*
%TD*%
D23*
%TO.C,U2*%
X116275000Y-73788800D03*
X116275000Y-75058800D03*
X116275000Y-76328800D03*
X116275000Y-77598800D03*
X116275000Y-78868800D03*
X116275000Y-80138800D03*
X116275000Y-81408800D03*
X116275000Y-82678800D03*
X121225000Y-82678800D03*
X121225000Y-81408800D03*
X121225000Y-80138800D03*
X121225000Y-78868800D03*
X121225000Y-77598800D03*
X121225000Y-76328800D03*
X121225000Y-75058800D03*
X121225000Y-73788800D03*
%TD*%
D24*
%TO.C,C6*%
X113250000Y-74599000D03*
X113250000Y-73049000D03*
%TD*%
D25*
%TO.C,S1*%
X102128000Y-90250000D03*
X102128000Y-94750000D03*
D26*
X104628000Y-89000000D03*
X104628000Y-96000000D03*
%TD*%
D27*
%TO.C,J5*%
X114709999Y-85499999D03*
D28*
X117249999Y-85499999D03*
X119789999Y-85499999D03*
%TD*%
D12*
%TO.C,C10*%
X115275000Y-71715800D03*
X116825000Y-71715800D03*
%TD*%
D11*
%TO.C,C9*%
X113256000Y-80161000D03*
X113256000Y-81711000D03*
%TD*%
D12*
%TO.C,C2*%
X118097000Y-114046000D03*
X119647000Y-114046000D03*
%TD*%
D29*
%TO.C,J4*%
X127489669Y-98190000D03*
X127489669Y-73190000D03*
D30*
X126069668Y-80149999D03*
D31*
X126069669Y-82920000D03*
X126069669Y-85690000D03*
X126069669Y-88460000D03*
X126069669Y-91230000D03*
X128909669Y-81535000D03*
X128909669Y-84305000D03*
X128909669Y-87075000D03*
X128909669Y-89845000D03*
%TD*%
D24*
%TO.C,C3*%
X122400000Y-99975000D03*
X122400000Y-98425000D03*
%TD*%
%TO.C,C8*%
X113250000Y-78155000D03*
X113250000Y-76605000D03*
%TD*%
D13*
%TO.C,J1*%
X105500000Y-79500000D03*
X105500000Y-76900000D03*
X105500000Y-81600000D03*
X108000000Y-79500000D03*
X105500000Y-74800000D03*
X108000000Y-81600000D03*
X108000000Y-77300000D03*
X108000000Y-74800000D03*
D14*
X102499999Y-84949999D03*
D15*
X101700000Y-78200000D03*
D14*
X102499999Y-71449999D03*
%TD*%
D32*
%TO.C,F1*%
X121920000Y-115186000D03*
X121920000Y-117986000D03*
%TD*%
M02*
