%TF.GenerationSoftware,KiCad,Pcbnew,8.0.1*%
%TF.CreationDate,2024-05-28T16:45:22+01:00*%
%TF.ProjectId,ps2usb,70733275-7362-42e6-9b69-6361645f7063,rev?*%
%TF.SameCoordinates,Original*%
%TF.FileFunction,Legend,Top*%
%TF.FilePolarity,Positive*%
%FSLAX46Y46*%
G04 Gerber Fmt 4.6, Leading zero omitted, Abs format (unit mm)*
G04 Created by KiCad (PCBNEW 8.0.1) date 2024-05-28 16:45:22*
%MOMM*%
%LPD*%
G01*
G04 APERTURE LIST*
%ADD10C,0.150000*%
%ADD11C,0.120000*%
%ADD12C,0.250000*%
%ADD13C,0.310000*%
G04 APERTURE END LIST*
D10*
X112442666Y-83147819D02*
X112442666Y-83862104D01*
X112442666Y-83862104D02*
X112395047Y-84004961D01*
X112395047Y-84004961D02*
X112299809Y-84100200D01*
X112299809Y-84100200D02*
X112156952Y-84147819D01*
X112156952Y-84147819D02*
X112061714Y-84147819D01*
X113395047Y-83147819D02*
X112918857Y-83147819D01*
X112918857Y-83147819D02*
X112871238Y-83624009D01*
X112871238Y-83624009D02*
X112918857Y-83576390D01*
X112918857Y-83576390D02*
X113014095Y-83528771D01*
X113014095Y-83528771D02*
X113252190Y-83528771D01*
X113252190Y-83528771D02*
X113347428Y-83576390D01*
X113347428Y-83576390D02*
X113395047Y-83624009D01*
X113395047Y-83624009D02*
X113442666Y-83719247D01*
X113442666Y-83719247D02*
X113442666Y-83957342D01*
X113442666Y-83957342D02*
X113395047Y-84052580D01*
X113395047Y-84052580D02*
X113347428Y-84100200D01*
X113347428Y-84100200D02*
X113252190Y-84147819D01*
X113252190Y-84147819D02*
X113014095Y-84147819D01*
X113014095Y-84147819D02*
X112918857Y-84100200D01*
X112918857Y-84100200D02*
X112871238Y-84052580D01*
X117800523Y-109293819D02*
X117467190Y-108817628D01*
X117229095Y-109293819D02*
X117229095Y-108293819D01*
X117229095Y-108293819D02*
X117610047Y-108293819D01*
X117610047Y-108293819D02*
X117705285Y-108341438D01*
X117705285Y-108341438D02*
X117752904Y-108389057D01*
X117752904Y-108389057D02*
X117800523Y-108484295D01*
X117800523Y-108484295D02*
X117800523Y-108627152D01*
X117800523Y-108627152D02*
X117752904Y-108722390D01*
X117752904Y-108722390D02*
X117705285Y-108770009D01*
X117705285Y-108770009D02*
X117610047Y-108817628D01*
X117610047Y-108817628D02*
X117229095Y-108817628D01*
X118229095Y-109293819D02*
X118229095Y-108293819D01*
X118229095Y-108293819D02*
X118800523Y-109293819D01*
X118800523Y-109293819D02*
X118800523Y-108293819D01*
X119229095Y-108389057D02*
X119276714Y-108341438D01*
X119276714Y-108341438D02*
X119371952Y-108293819D01*
X119371952Y-108293819D02*
X119610047Y-108293819D01*
X119610047Y-108293819D02*
X119705285Y-108341438D01*
X119705285Y-108341438D02*
X119752904Y-108389057D01*
X119752904Y-108389057D02*
X119800523Y-108484295D01*
X119800523Y-108484295D02*
X119800523Y-108579533D01*
X119800523Y-108579533D02*
X119752904Y-108722390D01*
X119752904Y-108722390D02*
X119181476Y-109293819D01*
X119181476Y-109293819D02*
X119800523Y-109293819D01*
X112974523Y-88465819D02*
X112641190Y-87989628D01*
X112403095Y-88465819D02*
X112403095Y-87465819D01*
X112403095Y-87465819D02*
X112784047Y-87465819D01*
X112784047Y-87465819D02*
X112879285Y-87513438D01*
X112879285Y-87513438D02*
X112926904Y-87561057D01*
X112926904Y-87561057D02*
X112974523Y-87656295D01*
X112974523Y-87656295D02*
X112974523Y-87799152D01*
X112974523Y-87799152D02*
X112926904Y-87894390D01*
X112926904Y-87894390D02*
X112879285Y-87942009D01*
X112879285Y-87942009D02*
X112784047Y-87989628D01*
X112784047Y-87989628D02*
X112403095Y-87989628D01*
X113403095Y-88465819D02*
X113403095Y-87465819D01*
X113403095Y-87465819D02*
X113974523Y-88465819D01*
X113974523Y-88465819D02*
X113974523Y-87465819D01*
X114974523Y-88465819D02*
X114403095Y-88465819D01*
X114688809Y-88465819D02*
X114688809Y-87465819D01*
X114688809Y-87465819D02*
X114593571Y-87608676D01*
X114593571Y-87608676D02*
X114498333Y-87703914D01*
X114498333Y-87703914D02*
X114403095Y-87751533D01*
X102814523Y-99895819D02*
X102481190Y-99419628D01*
X102243095Y-99895819D02*
X102243095Y-98895819D01*
X102243095Y-98895819D02*
X102624047Y-98895819D01*
X102624047Y-98895819D02*
X102719285Y-98943438D01*
X102719285Y-98943438D02*
X102766904Y-98991057D01*
X102766904Y-98991057D02*
X102814523Y-99086295D01*
X102814523Y-99086295D02*
X102814523Y-99229152D01*
X102814523Y-99229152D02*
X102766904Y-99324390D01*
X102766904Y-99324390D02*
X102719285Y-99372009D01*
X102719285Y-99372009D02*
X102624047Y-99419628D01*
X102624047Y-99419628D02*
X102243095Y-99419628D01*
X103243095Y-99895819D02*
X103243095Y-98895819D01*
X103243095Y-98895819D02*
X103814523Y-99895819D01*
X103814523Y-99895819D02*
X103814523Y-98895819D01*
X104195476Y-98895819D02*
X104814523Y-98895819D01*
X104814523Y-98895819D02*
X104481190Y-99276771D01*
X104481190Y-99276771D02*
X104624047Y-99276771D01*
X104624047Y-99276771D02*
X104719285Y-99324390D01*
X104719285Y-99324390D02*
X104766904Y-99372009D01*
X104766904Y-99372009D02*
X104814523Y-99467247D01*
X104814523Y-99467247D02*
X104814523Y-99705342D01*
X104814523Y-99705342D02*
X104766904Y-99800580D01*
X104766904Y-99800580D02*
X104719285Y-99848200D01*
X104719285Y-99848200D02*
X104624047Y-99895819D01*
X104624047Y-99895819D02*
X104338333Y-99895819D01*
X104338333Y-99895819D02*
X104243095Y-99848200D01*
X104243095Y-99848200D02*
X104195476Y-99800580D01*
X122633333Y-87451580D02*
X122585714Y-87499200D01*
X122585714Y-87499200D02*
X122442857Y-87546819D01*
X122442857Y-87546819D02*
X122347619Y-87546819D01*
X122347619Y-87546819D02*
X122204762Y-87499200D01*
X122204762Y-87499200D02*
X122109524Y-87403961D01*
X122109524Y-87403961D02*
X122061905Y-87308723D01*
X122061905Y-87308723D02*
X122014286Y-87118247D01*
X122014286Y-87118247D02*
X122014286Y-86975390D01*
X122014286Y-86975390D02*
X122061905Y-86784914D01*
X122061905Y-86784914D02*
X122109524Y-86689676D01*
X122109524Y-86689676D02*
X122204762Y-86594438D01*
X122204762Y-86594438D02*
X122347619Y-86546819D01*
X122347619Y-86546819D02*
X122442857Y-86546819D01*
X122442857Y-86546819D02*
X122585714Y-86594438D01*
X122585714Y-86594438D02*
X122633333Y-86642057D01*
X123490476Y-86880152D02*
X123490476Y-87546819D01*
X123252381Y-86499200D02*
X123014286Y-87213485D01*
X123014286Y-87213485D02*
X123633333Y-87213485D01*
X108357142Y-99359580D02*
X108309523Y-99407200D01*
X108309523Y-99407200D02*
X108166666Y-99454819D01*
X108166666Y-99454819D02*
X108071428Y-99454819D01*
X108071428Y-99454819D02*
X107928571Y-99407200D01*
X107928571Y-99407200D02*
X107833333Y-99311961D01*
X107833333Y-99311961D02*
X107785714Y-99216723D01*
X107785714Y-99216723D02*
X107738095Y-99026247D01*
X107738095Y-99026247D02*
X107738095Y-98883390D01*
X107738095Y-98883390D02*
X107785714Y-98692914D01*
X107785714Y-98692914D02*
X107833333Y-98597676D01*
X107833333Y-98597676D02*
X107928571Y-98502438D01*
X107928571Y-98502438D02*
X108071428Y-98454819D01*
X108071428Y-98454819D02*
X108166666Y-98454819D01*
X108166666Y-98454819D02*
X108309523Y-98502438D01*
X108309523Y-98502438D02*
X108357142Y-98550057D01*
X109309523Y-99454819D02*
X108738095Y-99454819D01*
X109023809Y-99454819D02*
X109023809Y-98454819D01*
X109023809Y-98454819D02*
X108928571Y-98597676D01*
X108928571Y-98597676D02*
X108833333Y-98692914D01*
X108833333Y-98692914D02*
X108738095Y-98740533D01*
X110261904Y-99454819D02*
X109690476Y-99454819D01*
X109976190Y-99454819D02*
X109976190Y-98454819D01*
X109976190Y-98454819D02*
X109880952Y-98597676D01*
X109880952Y-98597676D02*
X109785714Y-98692914D01*
X109785714Y-98692914D02*
X109690476Y-98740533D01*
X120833333Y-70609580D02*
X120785714Y-70657200D01*
X120785714Y-70657200D02*
X120642857Y-70704819D01*
X120642857Y-70704819D02*
X120547619Y-70704819D01*
X120547619Y-70704819D02*
X120404762Y-70657200D01*
X120404762Y-70657200D02*
X120309524Y-70561961D01*
X120309524Y-70561961D02*
X120261905Y-70466723D01*
X120261905Y-70466723D02*
X120214286Y-70276247D01*
X120214286Y-70276247D02*
X120214286Y-70133390D01*
X120214286Y-70133390D02*
X120261905Y-69942914D01*
X120261905Y-69942914D02*
X120309524Y-69847676D01*
X120309524Y-69847676D02*
X120404762Y-69752438D01*
X120404762Y-69752438D02*
X120547619Y-69704819D01*
X120547619Y-69704819D02*
X120642857Y-69704819D01*
X120642857Y-69704819D02*
X120785714Y-69752438D01*
X120785714Y-69752438D02*
X120833333Y-69800057D01*
X121166667Y-69704819D02*
X121833333Y-69704819D01*
X121833333Y-69704819D02*
X121404762Y-70704819D01*
X124666666Y-103704819D02*
X124666666Y-104419104D01*
X124666666Y-104419104D02*
X124619047Y-104561961D01*
X124619047Y-104561961D02*
X124523809Y-104657200D01*
X124523809Y-104657200D02*
X124380952Y-104704819D01*
X124380952Y-104704819D02*
X124285714Y-104704819D01*
X125047619Y-103704819D02*
X125666666Y-103704819D01*
X125666666Y-103704819D02*
X125333333Y-104085771D01*
X125333333Y-104085771D02*
X125476190Y-104085771D01*
X125476190Y-104085771D02*
X125571428Y-104133390D01*
X125571428Y-104133390D02*
X125619047Y-104181009D01*
X125619047Y-104181009D02*
X125666666Y-104276247D01*
X125666666Y-104276247D02*
X125666666Y-104514342D01*
X125666666Y-104514342D02*
X125619047Y-104609580D01*
X125619047Y-104609580D02*
X125571428Y-104657200D01*
X125571428Y-104657200D02*
X125476190Y-104704819D01*
X125476190Y-104704819D02*
X125190476Y-104704819D01*
X125190476Y-104704819D02*
X125095238Y-104657200D01*
X125095238Y-104657200D02*
X125047619Y-104609580D01*
X97761905Y-89954819D02*
X97761905Y-88954819D01*
X97761905Y-88954819D02*
X98000000Y-88954819D01*
X98000000Y-88954819D02*
X98142857Y-89002438D01*
X98142857Y-89002438D02*
X98238095Y-89097676D01*
X98238095Y-89097676D02*
X98285714Y-89192914D01*
X98285714Y-89192914D02*
X98333333Y-89383390D01*
X98333333Y-89383390D02*
X98333333Y-89526247D01*
X98333333Y-89526247D02*
X98285714Y-89716723D01*
X98285714Y-89716723D02*
X98238095Y-89811961D01*
X98238095Y-89811961D02*
X98142857Y-89907200D01*
X98142857Y-89907200D02*
X98000000Y-89954819D01*
X98000000Y-89954819D02*
X97761905Y-89954819D01*
X99285714Y-89954819D02*
X98714286Y-89954819D01*
X99000000Y-89954819D02*
X99000000Y-88954819D01*
X99000000Y-88954819D02*
X98904762Y-89097676D01*
X98904762Y-89097676D02*
X98809524Y-89192914D01*
X98809524Y-89192914D02*
X98714286Y-89240533D01*
X103333333Y-119359580D02*
X103285714Y-119407200D01*
X103285714Y-119407200D02*
X103142857Y-119454819D01*
X103142857Y-119454819D02*
X103047619Y-119454819D01*
X103047619Y-119454819D02*
X102904762Y-119407200D01*
X102904762Y-119407200D02*
X102809524Y-119311961D01*
X102809524Y-119311961D02*
X102761905Y-119216723D01*
X102761905Y-119216723D02*
X102714286Y-119026247D01*
X102714286Y-119026247D02*
X102714286Y-118883390D01*
X102714286Y-118883390D02*
X102761905Y-118692914D01*
X102761905Y-118692914D02*
X102809524Y-118597676D01*
X102809524Y-118597676D02*
X102904762Y-118502438D01*
X102904762Y-118502438D02*
X103047619Y-118454819D01*
X103047619Y-118454819D02*
X103142857Y-118454819D01*
X103142857Y-118454819D02*
X103285714Y-118502438D01*
X103285714Y-118502438D02*
X103333333Y-118550057D01*
X104285714Y-119454819D02*
X103714286Y-119454819D01*
X104000000Y-119454819D02*
X104000000Y-118454819D01*
X104000000Y-118454819D02*
X103904762Y-118597676D01*
X103904762Y-118597676D02*
X103809524Y-118692914D01*
X103809524Y-118692914D02*
X103714286Y-118740533D01*
X115916666Y-104704819D02*
X115916666Y-105419104D01*
X115916666Y-105419104D02*
X115869047Y-105561961D01*
X115869047Y-105561961D02*
X115773809Y-105657200D01*
X115773809Y-105657200D02*
X115630952Y-105704819D01*
X115630952Y-105704819D02*
X115535714Y-105704819D01*
X116345238Y-104800057D02*
X116392857Y-104752438D01*
X116392857Y-104752438D02*
X116488095Y-104704819D01*
X116488095Y-104704819D02*
X116726190Y-104704819D01*
X116726190Y-104704819D02*
X116821428Y-104752438D01*
X116821428Y-104752438D02*
X116869047Y-104800057D01*
X116869047Y-104800057D02*
X116916666Y-104895295D01*
X116916666Y-104895295D02*
X116916666Y-104990533D01*
X116916666Y-104990533D02*
X116869047Y-105133390D01*
X116869047Y-105133390D02*
X116297619Y-105704819D01*
X116297619Y-105704819D02*
X116916666Y-105704819D01*
X118237095Y-88100819D02*
X118237095Y-88910342D01*
X118237095Y-88910342D02*
X118284714Y-89005580D01*
X118284714Y-89005580D02*
X118332333Y-89053200D01*
X118332333Y-89053200D02*
X118427571Y-89100819D01*
X118427571Y-89100819D02*
X118618047Y-89100819D01*
X118618047Y-89100819D02*
X118713285Y-89053200D01*
X118713285Y-89053200D02*
X118760904Y-89005580D01*
X118760904Y-89005580D02*
X118808523Y-88910342D01*
X118808523Y-88910342D02*
X118808523Y-88100819D01*
X119808523Y-89100819D02*
X119237095Y-89100819D01*
X119522809Y-89100819D02*
X119522809Y-88100819D01*
X119522809Y-88100819D02*
X119427571Y-88243676D01*
X119427571Y-88243676D02*
X119332333Y-88338914D01*
X119332333Y-88338914D02*
X119237095Y-88386533D01*
X111593333Y-91164580D02*
X111545714Y-91212200D01*
X111545714Y-91212200D02*
X111402857Y-91259819D01*
X111402857Y-91259819D02*
X111307619Y-91259819D01*
X111307619Y-91259819D02*
X111164762Y-91212200D01*
X111164762Y-91212200D02*
X111069524Y-91116961D01*
X111069524Y-91116961D02*
X111021905Y-91021723D01*
X111021905Y-91021723D02*
X110974286Y-90831247D01*
X110974286Y-90831247D02*
X110974286Y-90688390D01*
X110974286Y-90688390D02*
X111021905Y-90497914D01*
X111021905Y-90497914D02*
X111069524Y-90402676D01*
X111069524Y-90402676D02*
X111164762Y-90307438D01*
X111164762Y-90307438D02*
X111307619Y-90259819D01*
X111307619Y-90259819D02*
X111402857Y-90259819D01*
X111402857Y-90259819D02*
X111545714Y-90307438D01*
X111545714Y-90307438D02*
X111593333Y-90355057D01*
X112498095Y-90259819D02*
X112021905Y-90259819D01*
X112021905Y-90259819D02*
X111974286Y-90736009D01*
X111974286Y-90736009D02*
X112021905Y-90688390D01*
X112021905Y-90688390D02*
X112117143Y-90640771D01*
X112117143Y-90640771D02*
X112355238Y-90640771D01*
X112355238Y-90640771D02*
X112450476Y-90688390D01*
X112450476Y-90688390D02*
X112498095Y-90736009D01*
X112498095Y-90736009D02*
X112545714Y-90831247D01*
X112545714Y-90831247D02*
X112545714Y-91069342D01*
X112545714Y-91069342D02*
X112498095Y-91164580D01*
X112498095Y-91164580D02*
X112450476Y-91212200D01*
X112450476Y-91212200D02*
X112355238Y-91259819D01*
X112355238Y-91259819D02*
X112117143Y-91259819D01*
X112117143Y-91259819D02*
X112021905Y-91212200D01*
X112021905Y-91212200D02*
X111974286Y-91164580D01*
X117766222Y-71879656D02*
X117766222Y-72689179D01*
X117766222Y-72689179D02*
X117813841Y-72784417D01*
X117813841Y-72784417D02*
X117861460Y-72832037D01*
X117861460Y-72832037D02*
X117956698Y-72879656D01*
X117956698Y-72879656D02*
X118147174Y-72879656D01*
X118147174Y-72879656D02*
X118242412Y-72832037D01*
X118242412Y-72832037D02*
X118290031Y-72784417D01*
X118290031Y-72784417D02*
X118337650Y-72689179D01*
X118337650Y-72689179D02*
X118337650Y-71879656D01*
X118766222Y-71974894D02*
X118813841Y-71927275D01*
X118813841Y-71927275D02*
X118909079Y-71879656D01*
X118909079Y-71879656D02*
X119147174Y-71879656D01*
X119147174Y-71879656D02*
X119242412Y-71927275D01*
X119242412Y-71927275D02*
X119290031Y-71974894D01*
X119290031Y-71974894D02*
X119337650Y-72070132D01*
X119337650Y-72070132D02*
X119337650Y-72165370D01*
X119337650Y-72165370D02*
X119290031Y-72308227D01*
X119290031Y-72308227D02*
X118718603Y-72879656D01*
X118718603Y-72879656D02*
X119337650Y-72879656D01*
X111301782Y-94665061D02*
X111301782Y-95141252D01*
X110968449Y-94141252D02*
X111301782Y-94665061D01*
X111301782Y-94665061D02*
X111635115Y-94141252D01*
X112492258Y-95141252D02*
X111920830Y-95141252D01*
X112206544Y-95141252D02*
X112206544Y-94141252D01*
X112206544Y-94141252D02*
X112111306Y-94284109D01*
X112111306Y-94284109D02*
X112016068Y-94379347D01*
X112016068Y-94379347D02*
X111920830Y-94426966D01*
X111333333Y-74359580D02*
X111285714Y-74407200D01*
X111285714Y-74407200D02*
X111142857Y-74454819D01*
X111142857Y-74454819D02*
X111047619Y-74454819D01*
X111047619Y-74454819D02*
X110904762Y-74407200D01*
X110904762Y-74407200D02*
X110809524Y-74311961D01*
X110809524Y-74311961D02*
X110761905Y-74216723D01*
X110761905Y-74216723D02*
X110714286Y-74026247D01*
X110714286Y-74026247D02*
X110714286Y-73883390D01*
X110714286Y-73883390D02*
X110761905Y-73692914D01*
X110761905Y-73692914D02*
X110809524Y-73597676D01*
X110809524Y-73597676D02*
X110904762Y-73502438D01*
X110904762Y-73502438D02*
X111047619Y-73454819D01*
X111047619Y-73454819D02*
X111142857Y-73454819D01*
X111142857Y-73454819D02*
X111285714Y-73502438D01*
X111285714Y-73502438D02*
X111333333Y-73550057D01*
X112190476Y-73454819D02*
X112000000Y-73454819D01*
X112000000Y-73454819D02*
X111904762Y-73502438D01*
X111904762Y-73502438D02*
X111857143Y-73550057D01*
X111857143Y-73550057D02*
X111761905Y-73692914D01*
X111761905Y-73692914D02*
X111714286Y-73883390D01*
X111714286Y-73883390D02*
X111714286Y-74264342D01*
X111714286Y-74264342D02*
X111761905Y-74359580D01*
X111761905Y-74359580D02*
X111809524Y-74407200D01*
X111809524Y-74407200D02*
X111904762Y-74454819D01*
X111904762Y-74454819D02*
X112095238Y-74454819D01*
X112095238Y-74454819D02*
X112190476Y-74407200D01*
X112190476Y-74407200D02*
X112238095Y-74359580D01*
X112238095Y-74359580D02*
X112285714Y-74264342D01*
X112285714Y-74264342D02*
X112285714Y-74026247D01*
X112285714Y-74026247D02*
X112238095Y-73931009D01*
X112238095Y-73931009D02*
X112190476Y-73883390D01*
X112190476Y-73883390D02*
X112095238Y-73835771D01*
X112095238Y-73835771D02*
X111904762Y-73835771D01*
X111904762Y-73835771D02*
X111809524Y-73883390D01*
X111809524Y-73883390D02*
X111761905Y-73931009D01*
X111761905Y-73931009D02*
X111714286Y-74026247D01*
X100238095Y-88407200D02*
X100380952Y-88454819D01*
X100380952Y-88454819D02*
X100619047Y-88454819D01*
X100619047Y-88454819D02*
X100714285Y-88407200D01*
X100714285Y-88407200D02*
X100761904Y-88359580D01*
X100761904Y-88359580D02*
X100809523Y-88264342D01*
X100809523Y-88264342D02*
X100809523Y-88169104D01*
X100809523Y-88169104D02*
X100761904Y-88073866D01*
X100761904Y-88073866D02*
X100714285Y-88026247D01*
X100714285Y-88026247D02*
X100619047Y-87978628D01*
X100619047Y-87978628D02*
X100428571Y-87931009D01*
X100428571Y-87931009D02*
X100333333Y-87883390D01*
X100333333Y-87883390D02*
X100285714Y-87835771D01*
X100285714Y-87835771D02*
X100238095Y-87740533D01*
X100238095Y-87740533D02*
X100238095Y-87645295D01*
X100238095Y-87645295D02*
X100285714Y-87550057D01*
X100285714Y-87550057D02*
X100333333Y-87502438D01*
X100333333Y-87502438D02*
X100428571Y-87454819D01*
X100428571Y-87454819D02*
X100666666Y-87454819D01*
X100666666Y-87454819D02*
X100809523Y-87502438D01*
X101761904Y-88454819D02*
X101190476Y-88454819D01*
X101476190Y-88454819D02*
X101476190Y-87454819D01*
X101476190Y-87454819D02*
X101380952Y-87597676D01*
X101380952Y-87597676D02*
X101285714Y-87692914D01*
X101285714Y-87692914D02*
X101190476Y-87740533D01*
X111357142Y-71859580D02*
X111309523Y-71907200D01*
X111309523Y-71907200D02*
X111166666Y-71954819D01*
X111166666Y-71954819D02*
X111071428Y-71954819D01*
X111071428Y-71954819D02*
X110928571Y-71907200D01*
X110928571Y-71907200D02*
X110833333Y-71811961D01*
X110833333Y-71811961D02*
X110785714Y-71716723D01*
X110785714Y-71716723D02*
X110738095Y-71526247D01*
X110738095Y-71526247D02*
X110738095Y-71383390D01*
X110738095Y-71383390D02*
X110785714Y-71192914D01*
X110785714Y-71192914D02*
X110833333Y-71097676D01*
X110833333Y-71097676D02*
X110928571Y-71002438D01*
X110928571Y-71002438D02*
X111071428Y-70954819D01*
X111071428Y-70954819D02*
X111166666Y-70954819D01*
X111166666Y-70954819D02*
X111309523Y-71002438D01*
X111309523Y-71002438D02*
X111357142Y-71050057D01*
X112309523Y-71954819D02*
X111738095Y-71954819D01*
X112023809Y-71954819D02*
X112023809Y-70954819D01*
X112023809Y-70954819D02*
X111928571Y-71097676D01*
X111928571Y-71097676D02*
X111833333Y-71192914D01*
X111833333Y-71192914D02*
X111738095Y-71240533D01*
X112928571Y-70954819D02*
X113023809Y-70954819D01*
X113023809Y-70954819D02*
X113119047Y-71002438D01*
X113119047Y-71002438D02*
X113166666Y-71050057D01*
X113166666Y-71050057D02*
X113214285Y-71145295D01*
X113214285Y-71145295D02*
X113261904Y-71335771D01*
X113261904Y-71335771D02*
X113261904Y-71573866D01*
X113261904Y-71573866D02*
X113214285Y-71764342D01*
X113214285Y-71764342D02*
X113166666Y-71859580D01*
X113166666Y-71859580D02*
X113119047Y-71907200D01*
X113119047Y-71907200D02*
X113023809Y-71954819D01*
X113023809Y-71954819D02*
X112928571Y-71954819D01*
X112928571Y-71954819D02*
X112833333Y-71907200D01*
X112833333Y-71907200D02*
X112785714Y-71859580D01*
X112785714Y-71859580D02*
X112738095Y-71764342D01*
X112738095Y-71764342D02*
X112690476Y-71573866D01*
X112690476Y-71573866D02*
X112690476Y-71335771D01*
X112690476Y-71335771D02*
X112738095Y-71145295D01*
X112738095Y-71145295D02*
X112785714Y-71050057D01*
X112785714Y-71050057D02*
X112833333Y-71002438D01*
X112833333Y-71002438D02*
X112928571Y-70954819D01*
X111333333Y-81004580D02*
X111285714Y-81052200D01*
X111285714Y-81052200D02*
X111142857Y-81099819D01*
X111142857Y-81099819D02*
X111047619Y-81099819D01*
X111047619Y-81099819D02*
X110904762Y-81052200D01*
X110904762Y-81052200D02*
X110809524Y-80956961D01*
X110809524Y-80956961D02*
X110761905Y-80861723D01*
X110761905Y-80861723D02*
X110714286Y-80671247D01*
X110714286Y-80671247D02*
X110714286Y-80528390D01*
X110714286Y-80528390D02*
X110761905Y-80337914D01*
X110761905Y-80337914D02*
X110809524Y-80242676D01*
X110809524Y-80242676D02*
X110904762Y-80147438D01*
X110904762Y-80147438D02*
X111047619Y-80099819D01*
X111047619Y-80099819D02*
X111142857Y-80099819D01*
X111142857Y-80099819D02*
X111285714Y-80147438D01*
X111285714Y-80147438D02*
X111333333Y-80195057D01*
X111809524Y-81099819D02*
X112000000Y-81099819D01*
X112000000Y-81099819D02*
X112095238Y-81052200D01*
X112095238Y-81052200D02*
X112142857Y-81004580D01*
X112142857Y-81004580D02*
X112238095Y-80861723D01*
X112238095Y-80861723D02*
X112285714Y-80671247D01*
X112285714Y-80671247D02*
X112285714Y-80290295D01*
X112285714Y-80290295D02*
X112238095Y-80195057D01*
X112238095Y-80195057D02*
X112190476Y-80147438D01*
X112190476Y-80147438D02*
X112095238Y-80099819D01*
X112095238Y-80099819D02*
X111904762Y-80099819D01*
X111904762Y-80099819D02*
X111809524Y-80147438D01*
X111809524Y-80147438D02*
X111761905Y-80195057D01*
X111761905Y-80195057D02*
X111714286Y-80290295D01*
X111714286Y-80290295D02*
X111714286Y-80528390D01*
X111714286Y-80528390D02*
X111761905Y-80623628D01*
X111761905Y-80623628D02*
X111809524Y-80671247D01*
X111809524Y-80671247D02*
X111904762Y-80718866D01*
X111904762Y-80718866D02*
X112095238Y-80718866D01*
X112095238Y-80718866D02*
X112190476Y-80671247D01*
X112190476Y-80671247D02*
X112238095Y-80623628D01*
X112238095Y-80623628D02*
X112285714Y-80528390D01*
X103357142Y-117859580D02*
X103309523Y-117907200D01*
X103309523Y-117907200D02*
X103166666Y-117954819D01*
X103166666Y-117954819D02*
X103071428Y-117954819D01*
X103071428Y-117954819D02*
X102928571Y-117907200D01*
X102928571Y-117907200D02*
X102833333Y-117811961D01*
X102833333Y-117811961D02*
X102785714Y-117716723D01*
X102785714Y-117716723D02*
X102738095Y-117526247D01*
X102738095Y-117526247D02*
X102738095Y-117383390D01*
X102738095Y-117383390D02*
X102785714Y-117192914D01*
X102785714Y-117192914D02*
X102833333Y-117097676D01*
X102833333Y-117097676D02*
X102928571Y-117002438D01*
X102928571Y-117002438D02*
X103071428Y-116954819D01*
X103071428Y-116954819D02*
X103166666Y-116954819D01*
X103166666Y-116954819D02*
X103309523Y-117002438D01*
X103309523Y-117002438D02*
X103357142Y-117050057D01*
X104309523Y-117954819D02*
X103738095Y-117954819D01*
X104023809Y-117954819D02*
X104023809Y-116954819D01*
X104023809Y-116954819D02*
X103928571Y-117097676D01*
X103928571Y-117097676D02*
X103833333Y-117192914D01*
X103833333Y-117192914D02*
X103738095Y-117240533D01*
X104690476Y-117050057D02*
X104738095Y-117002438D01*
X104738095Y-117002438D02*
X104833333Y-116954819D01*
X104833333Y-116954819D02*
X105071428Y-116954819D01*
X105071428Y-116954819D02*
X105166666Y-117002438D01*
X105166666Y-117002438D02*
X105214285Y-117050057D01*
X105214285Y-117050057D02*
X105261904Y-117145295D01*
X105261904Y-117145295D02*
X105261904Y-117240533D01*
X105261904Y-117240533D02*
X105214285Y-117383390D01*
X105214285Y-117383390D02*
X104642857Y-117954819D01*
X104642857Y-117954819D02*
X105261904Y-117954819D01*
X117689333Y-112881580D02*
X117641714Y-112929200D01*
X117641714Y-112929200D02*
X117498857Y-112976819D01*
X117498857Y-112976819D02*
X117403619Y-112976819D01*
X117403619Y-112976819D02*
X117260762Y-112929200D01*
X117260762Y-112929200D02*
X117165524Y-112833961D01*
X117165524Y-112833961D02*
X117117905Y-112738723D01*
X117117905Y-112738723D02*
X117070286Y-112548247D01*
X117070286Y-112548247D02*
X117070286Y-112405390D01*
X117070286Y-112405390D02*
X117117905Y-112214914D01*
X117117905Y-112214914D02*
X117165524Y-112119676D01*
X117165524Y-112119676D02*
X117260762Y-112024438D01*
X117260762Y-112024438D02*
X117403619Y-111976819D01*
X117403619Y-111976819D02*
X117498857Y-111976819D01*
X117498857Y-111976819D02*
X117641714Y-112024438D01*
X117641714Y-112024438D02*
X117689333Y-112072057D01*
X118070286Y-112072057D02*
X118117905Y-112024438D01*
X118117905Y-112024438D02*
X118213143Y-111976819D01*
X118213143Y-111976819D02*
X118451238Y-111976819D01*
X118451238Y-111976819D02*
X118546476Y-112024438D01*
X118546476Y-112024438D02*
X118594095Y-112072057D01*
X118594095Y-112072057D02*
X118641714Y-112167295D01*
X118641714Y-112167295D02*
X118641714Y-112262533D01*
X118641714Y-112262533D02*
X118594095Y-112405390D01*
X118594095Y-112405390D02*
X118022667Y-112976819D01*
X118022667Y-112976819D02*
X118641714Y-112976819D01*
X124666666Y-101454819D02*
X124666666Y-102169104D01*
X124666666Y-102169104D02*
X124619047Y-102311961D01*
X124619047Y-102311961D02*
X124523809Y-102407200D01*
X124523809Y-102407200D02*
X124380952Y-102454819D01*
X124380952Y-102454819D02*
X124285714Y-102454819D01*
X125571428Y-101788152D02*
X125571428Y-102454819D01*
X125333333Y-101407200D02*
X125095238Y-102121485D01*
X125095238Y-102121485D02*
X125714285Y-102121485D01*
X120991333Y-101578580D02*
X120943714Y-101626200D01*
X120943714Y-101626200D02*
X120800857Y-101673819D01*
X120800857Y-101673819D02*
X120705619Y-101673819D01*
X120705619Y-101673819D02*
X120562762Y-101626200D01*
X120562762Y-101626200D02*
X120467524Y-101530961D01*
X120467524Y-101530961D02*
X120419905Y-101435723D01*
X120419905Y-101435723D02*
X120372286Y-101245247D01*
X120372286Y-101245247D02*
X120372286Y-101102390D01*
X120372286Y-101102390D02*
X120419905Y-100911914D01*
X120419905Y-100911914D02*
X120467524Y-100816676D01*
X120467524Y-100816676D02*
X120562762Y-100721438D01*
X120562762Y-100721438D02*
X120705619Y-100673819D01*
X120705619Y-100673819D02*
X120800857Y-100673819D01*
X120800857Y-100673819D02*
X120943714Y-100721438D01*
X120943714Y-100721438D02*
X120991333Y-100769057D01*
X121324667Y-100673819D02*
X121943714Y-100673819D01*
X121943714Y-100673819D02*
X121610381Y-101054771D01*
X121610381Y-101054771D02*
X121753238Y-101054771D01*
X121753238Y-101054771D02*
X121848476Y-101102390D01*
X121848476Y-101102390D02*
X121896095Y-101150009D01*
X121896095Y-101150009D02*
X121943714Y-101245247D01*
X121943714Y-101245247D02*
X121943714Y-101483342D01*
X121943714Y-101483342D02*
X121896095Y-101578580D01*
X121896095Y-101578580D02*
X121848476Y-101626200D01*
X121848476Y-101626200D02*
X121753238Y-101673819D01*
X121753238Y-101673819D02*
X121467524Y-101673819D01*
X121467524Y-101673819D02*
X121372286Y-101626200D01*
X121372286Y-101626200D02*
X121324667Y-101578580D01*
X111333333Y-77859580D02*
X111285714Y-77907200D01*
X111285714Y-77907200D02*
X111142857Y-77954819D01*
X111142857Y-77954819D02*
X111047619Y-77954819D01*
X111047619Y-77954819D02*
X110904762Y-77907200D01*
X110904762Y-77907200D02*
X110809524Y-77811961D01*
X110809524Y-77811961D02*
X110761905Y-77716723D01*
X110761905Y-77716723D02*
X110714286Y-77526247D01*
X110714286Y-77526247D02*
X110714286Y-77383390D01*
X110714286Y-77383390D02*
X110761905Y-77192914D01*
X110761905Y-77192914D02*
X110809524Y-77097676D01*
X110809524Y-77097676D02*
X110904762Y-77002438D01*
X110904762Y-77002438D02*
X111047619Y-76954819D01*
X111047619Y-76954819D02*
X111142857Y-76954819D01*
X111142857Y-76954819D02*
X111285714Y-77002438D01*
X111285714Y-77002438D02*
X111333333Y-77050057D01*
X111904762Y-77383390D02*
X111809524Y-77335771D01*
X111809524Y-77335771D02*
X111761905Y-77288152D01*
X111761905Y-77288152D02*
X111714286Y-77192914D01*
X111714286Y-77192914D02*
X111714286Y-77145295D01*
X111714286Y-77145295D02*
X111761905Y-77050057D01*
X111761905Y-77050057D02*
X111809524Y-77002438D01*
X111809524Y-77002438D02*
X111904762Y-76954819D01*
X111904762Y-76954819D02*
X112095238Y-76954819D01*
X112095238Y-76954819D02*
X112190476Y-77002438D01*
X112190476Y-77002438D02*
X112238095Y-77050057D01*
X112238095Y-77050057D02*
X112285714Y-77145295D01*
X112285714Y-77145295D02*
X112285714Y-77192914D01*
X112285714Y-77192914D02*
X112238095Y-77288152D01*
X112238095Y-77288152D02*
X112190476Y-77335771D01*
X112190476Y-77335771D02*
X112095238Y-77383390D01*
X112095238Y-77383390D02*
X111904762Y-77383390D01*
X111904762Y-77383390D02*
X111809524Y-77431009D01*
X111809524Y-77431009D02*
X111761905Y-77478628D01*
X111761905Y-77478628D02*
X111714286Y-77573866D01*
X111714286Y-77573866D02*
X111714286Y-77764342D01*
X111714286Y-77764342D02*
X111761905Y-77859580D01*
X111761905Y-77859580D02*
X111809524Y-77907200D01*
X111809524Y-77907200D02*
X111904762Y-77954819D01*
X111904762Y-77954819D02*
X112095238Y-77954819D01*
X112095238Y-77954819D02*
X112190476Y-77907200D01*
X112190476Y-77907200D02*
X112238095Y-77859580D01*
X112238095Y-77859580D02*
X112285714Y-77764342D01*
X112285714Y-77764342D02*
X112285714Y-77573866D01*
X112285714Y-77573866D02*
X112238095Y-77478628D01*
X112238095Y-77478628D02*
X112190476Y-77431009D01*
X112190476Y-77431009D02*
X112095238Y-77383390D01*
X108604166Y-69704819D02*
X108604166Y-70419104D01*
X108604166Y-70419104D02*
X108556547Y-70561961D01*
X108556547Y-70561961D02*
X108461309Y-70657200D01*
X108461309Y-70657200D02*
X108318452Y-70704819D01*
X108318452Y-70704819D02*
X108223214Y-70704819D01*
X109604166Y-70704819D02*
X109032738Y-70704819D01*
X109318452Y-70704819D02*
X109318452Y-69704819D01*
X109318452Y-69704819D02*
X109223214Y-69847676D01*
X109223214Y-69847676D02*
X109127976Y-69942914D01*
X109127976Y-69942914D02*
X109032738Y-69990533D01*
X121666666Y-119681009D02*
X121333333Y-119681009D01*
X121333333Y-120204819D02*
X121333333Y-119204819D01*
X121333333Y-119204819D02*
X121809523Y-119204819D01*
X122714285Y-120204819D02*
X122142857Y-120204819D01*
X122428571Y-120204819D02*
X122428571Y-119204819D01*
X122428571Y-119204819D02*
X122333333Y-119347676D01*
X122333333Y-119347676D02*
X122238095Y-119442914D01*
X122238095Y-119442914D02*
X122142857Y-119490533D01*
D11*
%TO.C,J5*%
X115951000Y-84014000D02*
X121091000Y-84014000D01*
X121091000Y-86674000D02*
X121091000Y-84014000D01*
X115951000Y-86674000D02*
X115951000Y-84014000D01*
X115951000Y-86674000D02*
X121091000Y-86674000D01*
X114681000Y-86674000D02*
X113351000Y-86674000D01*
X113351000Y-86674000D02*
X113351000Y-85344000D01*
%TO.C,RN2*%
X121420000Y-108302000D02*
X122420000Y-108302000D01*
X121420000Y-111662000D02*
X122420000Y-111662000D01*
%TO.C,RN1*%
X108320000Y-88500000D02*
X108320000Y-87500000D01*
X111680000Y-88500000D02*
X111680000Y-87500000D01*
%TO.C,RN3*%
X101680000Y-100000000D02*
X101680000Y-99000000D01*
X98320000Y-100000000D02*
X98320000Y-99000000D01*
%TO.C,C4*%
X122290000Y-89359420D02*
X122290000Y-89640580D01*
X123310000Y-89359420D02*
X123310000Y-89640580D01*
%TO.C,C11*%
X109109420Y-96740000D02*
X109390580Y-96740000D01*
X109109420Y-97760000D02*
X109390580Y-97760000D01*
%TO.C,C7*%
X120859420Y-71190000D02*
X121140580Y-71190000D01*
X120859420Y-72210000D02*
X121140580Y-72210000D01*
D12*
%TO.C,J3*%
X124000000Y-105050000D02*
X124000000Y-118550000D01*
X124000000Y-118550000D02*
X129000000Y-118550000D01*
X129000000Y-105050000D02*
X124000000Y-105050000D01*
X134000000Y-105050000D02*
X136500000Y-105050000D01*
X134000000Y-118550000D02*
X136500000Y-118550000D01*
D11*
%TO.C,D1*%
X98000000Y-93500000D02*
X98000000Y-91500000D01*
X98000000Y-93500000D02*
G75*
G02*
X98000000Y-91500000I0J1000000D01*
G01*
%TO.C,C1*%
X100859420Y-116490000D02*
X101140580Y-116490000D01*
X100859420Y-117510000D02*
X101140580Y-117510000D01*
%TO.C,J2*%
X104550000Y-102250000D02*
X104550000Y-115250000D01*
X105550000Y-108750000D02*
X106300000Y-108000000D01*
X105550000Y-108750000D02*
X106300000Y-109500000D01*
X107300000Y-108750000D02*
X105550000Y-108750000D01*
%TO.C,U1*%
D13*
X120507000Y-88935000D02*
G75*
G02*
X120197000Y-88935000I-155000J0D01*
G01*
X120197000Y-88935000D02*
G75*
G02*
X120507000Y-88935000I155000J0D01*
G01*
D11*
X120602000Y-97435000D02*
X114602000Y-97435000D01*
X120602000Y-92435000D02*
X120602000Y-97435000D01*
X119602000Y-91435000D02*
X120602000Y-92435000D01*
X114602000Y-97435000D02*
X114602000Y-91435000D01*
X114602000Y-91435000D02*
X119602000Y-91435000D01*
%TO.C,C5*%
X109390580Y-90740000D02*
X109109420Y-90740000D01*
X109390580Y-91760000D02*
X109109420Y-91760000D01*
%TO.C,U2*%
X118750000Y-73173800D02*
X115300000Y-73173800D01*
X118750000Y-73173800D02*
X120700000Y-73173800D01*
X118750000Y-83293800D02*
X116800000Y-83293800D01*
X118750000Y-83293800D02*
X120700000Y-83293800D01*
%TO.C,Y1*%
X107600000Y-92250000D02*
X107600000Y-96250000D01*
X110900000Y-92250000D02*
X107600000Y-92250000D01*
%TO.C,C6*%
X112740000Y-73964580D02*
X112740000Y-73683420D01*
X113760000Y-73964580D02*
X113760000Y-73683420D01*
%TO.C,S1*%
X100500000Y-89000000D02*
X102750000Y-89000000D01*
X100500000Y-96000000D02*
X100500000Y-89000000D01*
X102750000Y-96000000D02*
X100500000Y-96000000D01*
X103250000Y-92500000D02*
X104000000Y-91750000D01*
X103250000Y-92500000D02*
X104000000Y-93250000D01*
X105000000Y-92500000D02*
X103250000Y-92500000D01*
X105750000Y-89000000D02*
X106750000Y-89000000D01*
X106750000Y-89000000D02*
X106750000Y-96000000D01*
X106750000Y-96000000D02*
X105750000Y-96000000D01*
%TO.C,C10*%
X115909420Y-71205800D02*
X116190580Y-71205800D01*
X115909420Y-72225800D02*
X116190580Y-72225800D01*
%TO.C,C9*%
X112746000Y-80795420D02*
X112746000Y-81076580D01*
X113766000Y-80795420D02*
X113766000Y-81076580D01*
%TO.C,C12*%
X100859420Y-118490000D02*
X101140580Y-118490000D01*
X100859420Y-119510000D02*
X101140580Y-119510000D01*
%TO.C,C2*%
X118731420Y-113536000D02*
X119012580Y-113536000D01*
X118731420Y-114556000D02*
X119012580Y-114556000D01*
%TO.C,J4*%
X123315331Y-79900000D02*
X123748344Y-80150000D01*
X123315331Y-80400000D02*
X123315331Y-79900000D01*
X123748344Y-80150000D02*
X123315331Y-80400000D01*
X124209669Y-70205000D02*
X136549669Y-70205000D01*
X124209669Y-101175000D02*
X124209669Y-70205000D01*
X136549669Y-101175000D02*
X124209669Y-101175000D01*
%TO.C,C3*%
X121890000Y-99340580D02*
X121890000Y-99059420D01*
X122910000Y-99340580D02*
X122910000Y-99059420D01*
%TO.C,C8*%
X112740000Y-77520580D02*
X112740000Y-77239420D01*
X113760000Y-77520580D02*
X113760000Y-77239420D01*
D12*
%TO.C,J1*%
X100000000Y-71450000D02*
X97500000Y-71450000D01*
X100000000Y-84950000D02*
X97500000Y-84950000D01*
X105000000Y-84950000D02*
X110000000Y-84950000D01*
X110000000Y-71450000D02*
X105000000Y-71450000D01*
X110000000Y-84950000D02*
X110000000Y-71450000D01*
D11*
%TO.C,F1*%
X121010000Y-115983936D02*
X121010000Y-117188064D01*
X122830000Y-115983936D02*
X122830000Y-117188064D01*
%TD*%
M02*
