M48
; DRILL file {KiCad (7.0.0)} date Sat Feb 18 15:12:19 2023
; FORMAT={-:-/ absolute / inch / decimal}
; #@! TF.CreationDate,2023-02-18T15:12:19+00:00
; #@! TF.GenerationSoftware,Kicad,Pcbnew,(7.0.0)
; #@! TF.FileFunction,Plated,1,2,PTH
FMAT,2
INCH
; #@! TA.AperFunction,Plated,PTH,ViaDrill
T1C0.0157
; #@! TA.AperFunction,Plated,PTH,ComponentDrill
T2C0.0354
; #@! TA.AperFunction,Plated,PTH,ComponentDrill
T3C0.0394
; #@! TA.AperFunction,Plated,PTH,ComponentDrill
T4C0.0512
; #@! TA.AperFunction,Plated,PTH,ComponentDrill
T5C0.0866
; #@! TA.AperFunction,Plated,PTH,ComponentDrill
T6C0.0906
; #@! TA.AperFunction,Plated,PTH,ComponentDrill
T7C0.1260
%
G90
G05
T1
X3.8484Y-2.687
X3.8484Y-4.7933
X3.9Y-4.62
X3.9272Y-3.5827
X4.2965Y-3.6158
X4.2971Y-3.7059
X4.3996Y-3.2185
X4.4789Y-2.8235
X4.525Y-3.61
X4.5276Y-3.7205
X4.5374Y-3.6811
X4.5687Y-3.4744
X4.5965Y-3.7992
X4.6Y-3.65
X4.6063Y-2.687
X4.6063Y-4.7933
X4.6289Y-4.0157
X4.645Y-3.72
X4.65Y-4.54
X4.6929Y-2.9567
X4.7029Y-3.0295
X4.7049Y-3.0815
X4.71Y-4.04
X4.71Y-4.08
X4.74Y-3.72
X4.8346Y-3.4252
X4.8365Y-3.9869
X4.8383Y-3.0283
X4.8389Y-3.0835
X4.8425Y-3.1496
X4.85Y-4.04
X4.85Y-4.08
X5.3642Y-2.687
X5.3642Y-4.7933
T2
X4.1535Y-2.9449
X4.1535Y-3.0276
X4.1535Y-3.1299
X4.1535Y-3.2126
X4.252Y-2.9449
X4.252Y-3.0433
X4.252Y-3.1299
X4.252Y-3.2126
X4.9606Y-4.2677
X4.9606Y-4.3504
X4.9606Y-4.437
X4.9606Y-4.5354
X5.0591Y-4.2677
X5.0591Y-4.3504
X5.0591Y-4.4528
X5.0591Y-4.5354
T3
X4.0208Y-3.5531
X4.0208Y-3.7303
X4.3323Y-4.1437
X4.3323Y-4.2421
X4.3323Y-4.3209
X4.3323Y-4.4193
X4.4354Y-4.1437
X4.4354Y-4.2421
X4.4354Y-4.3209
X4.4354Y-4.4193
X4.5161Y-3.3661
X4.6161Y-3.3661
X4.7161Y-3.3661
X4.9634Y-3.1555
X4.9634Y-3.2646
X4.9634Y-3.3736
X4.9634Y-3.4827
X4.9634Y-3.5917
X5.0752Y-3.21
X5.0752Y-3.3191
X5.0752Y-3.4281
X5.0752Y-3.5372
T4
X4.1192Y-3.5039
X4.1192Y-3.7795
T5
X4.0039Y-3.0787
X4.0354Y-2.813
X4.0354Y-3.3445
X5.1772Y-4.1358
X5.1772Y-4.6673
X5.2087Y-4.4016
T6
X4.2256Y-4.0228
X4.2256Y-4.5402
X4.4492Y-4.0228
X4.4492Y-4.5402
T7
X5.0193Y-2.8815
X5.0193Y-3.8657
T0
M30
