%TF.GenerationSoftware,KiCad,Pcbnew,8.0.1*%
%TF.CreationDate,2024-05-28T16:45:22+01:00*%
%TF.ProjectId,ps2usb,70733275-7362-42e6-9b69-6361645f7063,rev?*%
%TF.SameCoordinates,Original*%
%TF.FileFunction,Soldermask,Top*%
%TF.FilePolarity,Negative*%
%FSLAX46Y46*%
G04 Gerber Fmt 4.6, Leading zero omitted, Abs format (unit mm)*
G04 Created by KiCad (PCBNEW 8.0.1) date 2024-05-28 16:45:22*
%MOMM*%
%LPD*%
G01*
G04 APERTURE LIST*
G04 Aperture macros list*
%AMRoundRect*
0 Rectangle with rounded corners*
0 $1 Rounding radius*
0 $2 $3 $4 $5 $6 $7 $8 $9 X,Y pos of 4 corners*
0 Add a 4 corners polygon primitive as box body*
4,1,4,$2,$3,$4,$5,$6,$7,$8,$9,$2,$3,0*
0 Add four circle primitives for the rounded corners*
1,1,$1+$1,$2,$3*
1,1,$1+$1,$4,$5*
1,1,$1+$1,$6,$7*
1,1,$1+$1,$8,$9*
0 Add four rect primitives between the rounded corners*
20,1,$1+$1,$2,$3,$4,$5,0*
20,1,$1+$1,$4,$5,$6,$7,0*
20,1,$1+$1,$6,$7,$8,$9,0*
20,1,$1+$1,$8,$9,$2,$3,0*%
G04 Aperture macros list end*
%ADD10C,0.100000*%
%ADD11O,1.700000X1.700000*%
%ADD12R,1.700000X1.700000*%
%ADD13R,0.800000X0.500000*%
%ADD14R,0.800000X0.400000*%
%ADD15R,0.500000X0.800000*%
%ADD16R,0.400000X0.800000*%
%ADD17RoundRect,0.225000X-0.250000X0.225000X-0.250000X-0.225000X0.250000X-0.225000X0.250000X0.225000X0*%
%ADD18RoundRect,0.225000X-0.225000X-0.250000X0.225000X-0.250000X0.225000X0.250000X-0.225000X0.250000X0*%
%ADD19C,1.800000*%
%ADD20O,4.400000X3.000000*%
%ADD21C,4.400000*%
%ADD22RoundRect,0.150000X0.300000X0.150000X-0.300000X0.150000X-0.300000X-0.150000X0.300000X-0.150000X0*%
%ADD23RoundRect,0.137500X0.137500X0.162500X-0.137500X0.162500X-0.137500X-0.162500X0.137500X-0.162500X0*%
%ADD24O,3.000000X1.500000*%
%ADD25O,5.000000X3.500000*%
%ADD26O,1.400000X0.300000*%
%ADD27O,0.300000X1.400000*%
%ADD28RoundRect,0.225000X0.225000X0.250000X-0.225000X0.250000X-0.225000X-0.250000X0.225000X-0.250000X0*%
%ADD29RoundRect,0.150000X-0.825000X-0.150000X0.825000X-0.150000X0.825000X0.150000X-0.825000X0.150000X0*%
%ADD30R,1.200000X1.400000*%
%ADD31RoundRect,0.225000X0.250000X-0.225000X0.250000X0.225000X-0.250000X0.225000X-0.250000X-0.225000X0*%
%ADD32C,2.000000*%
%ADD33C,2.600000*%
%ADD34C,4.000000*%
%ADD35R,1.600000X1.600000*%
%ADD36C,1.600000*%
%ADD37RoundRect,0.250000X-0.625000X0.375000X-0.625000X-0.375000X0.625000X-0.375000X0.625000X0.375000X0*%
G04 APERTURE END LIST*
D10*
X97000000Y-120500000D02*
X137000000Y-120500000D01*
X137000000Y-122500000D01*
X97000000Y-122500000D01*
X97000000Y-120500000D01*
G36*
X97000000Y-120500000D02*
G01*
X137000000Y-120500000D01*
X137000000Y-122500000D01*
X97000000Y-122500000D01*
X97000000Y-120500000D01*
G37*
X97000000Y-67500000D02*
X137000000Y-67500000D01*
X137000000Y-69500000D01*
X97000000Y-69500000D01*
X97000000Y-67500000D01*
G36*
X97000000Y-67500000D02*
G01*
X137000000Y-67500000D01*
X137000000Y-69500000D01*
X97000000Y-69500000D01*
X97000000Y-67500000D01*
G37*
D11*
%TO.C,J5*%
X119761000Y-85344000D03*
X117221000Y-85344000D03*
D12*
X114681000Y-85344000D03*
%TD*%
D13*
%TO.C,RN2*%
X121020000Y-111182000D03*
D14*
X121020000Y-110382000D03*
X121020000Y-109582000D03*
D13*
X121020000Y-108782000D03*
X122820000Y-108782000D03*
D14*
X122820000Y-109582000D03*
X122820000Y-110382000D03*
D13*
X122820000Y-111182000D03*
%TD*%
D15*
%TO.C,RN1*%
X111200000Y-88900000D03*
D16*
X110400000Y-88900000D03*
X109600000Y-88900000D03*
D15*
X108800000Y-88900000D03*
X108800000Y-87100000D03*
D16*
X109600000Y-87100000D03*
X110400000Y-87100000D03*
D15*
X111200000Y-87100000D03*
%TD*%
%TO.C,RN3*%
X101200000Y-98600000D03*
D16*
X100400000Y-98600000D03*
X99600000Y-98600000D03*
D15*
X98800000Y-98600000D03*
X98800000Y-100400000D03*
D16*
X99600000Y-100400000D03*
X100400000Y-100400000D03*
D15*
X101200000Y-100400000D03*
%TD*%
D17*
%TO.C,C4*%
X122800000Y-88725000D03*
X122800000Y-90275000D03*
%TD*%
D18*
%TO.C,C11*%
X108475000Y-97250000D03*
X110025000Y-97250000D03*
%TD*%
%TO.C,C7*%
X120225000Y-71700000D03*
X121775000Y-71700000D03*
%TD*%
D19*
%TO.C,J3*%
X128500000Y-110500000D03*
X128500000Y-113100000D03*
X128500000Y-108400000D03*
X126000000Y-110500000D03*
X128500000Y-115200000D03*
X126000000Y-108400000D03*
X126000000Y-112700000D03*
X126000000Y-115200000D03*
D20*
X131500000Y-105050000D03*
D21*
X132300000Y-111800000D03*
D20*
X131500000Y-118550000D03*
%TD*%
D22*
%TO.C,D1*%
X98250000Y-91100000D03*
D23*
X98575000Y-92050000D03*
X98575000Y-92950000D03*
D22*
X98250000Y-93900000D03*
%TD*%
D18*
%TO.C,C1*%
X100225000Y-117000000D03*
X101775000Y-117000000D03*
%TD*%
D24*
%TO.C,J2*%
X113360000Y-105250000D03*
X109340000Y-105250000D03*
X113360000Y-107750000D03*
X109340000Y-107750000D03*
X113360000Y-109750000D03*
X109340000Y-109750000D03*
X113360000Y-112250000D03*
X109340000Y-112250000D03*
D25*
X113010000Y-102180000D03*
X107330000Y-102180000D03*
X113010000Y-115320000D03*
X107330000Y-115320000D03*
%TD*%
D26*
%TO.C,U1*%
X121802000Y-91685000D03*
X121802000Y-92185000D03*
X121802000Y-92685000D03*
X121802000Y-93185000D03*
X121802000Y-93685000D03*
X121802000Y-94185000D03*
X121802000Y-94685000D03*
X121802000Y-95185000D03*
X121802000Y-95685000D03*
X121802000Y-96185000D03*
X121802000Y-96685000D03*
X121802000Y-97185000D03*
D27*
X120352000Y-98635000D03*
X119852000Y-98635000D03*
X119352000Y-98635000D03*
X118852000Y-98635000D03*
X118352000Y-98635000D03*
X117852000Y-98635000D03*
X117352000Y-98635000D03*
X116852000Y-98635000D03*
X116352000Y-98635000D03*
X115852000Y-98635000D03*
X115352000Y-98635000D03*
X114852000Y-98635000D03*
D26*
X113402000Y-97185000D03*
X113402000Y-96685000D03*
X113402000Y-96185000D03*
X113402000Y-95685000D03*
X113402000Y-95185000D03*
X113402000Y-94685000D03*
X113402000Y-94185000D03*
X113402000Y-93685000D03*
X113402000Y-93185000D03*
X113402000Y-92685000D03*
X113402000Y-92185000D03*
X113402000Y-91685000D03*
D27*
X114852000Y-90235000D03*
X115352000Y-90235000D03*
X115852000Y-90235000D03*
X116352000Y-90235000D03*
X116852000Y-90235000D03*
X117352000Y-90235000D03*
X117852000Y-90235000D03*
X118352000Y-90235000D03*
X118852000Y-90235000D03*
X119352000Y-90235000D03*
X119852000Y-90235000D03*
X120352000Y-90235000D03*
%TD*%
D28*
%TO.C,C5*%
X110025000Y-91250000D03*
X108475000Y-91250000D03*
%TD*%
D29*
%TO.C,U2*%
X116275000Y-73788800D03*
X116275000Y-75058800D03*
X116275000Y-76328800D03*
X116275000Y-77598800D03*
X116275000Y-78868800D03*
X116275000Y-80138800D03*
X116275000Y-81408800D03*
X116275000Y-82678800D03*
X121225000Y-82678800D03*
X121225000Y-81408800D03*
X121225000Y-80138800D03*
X121225000Y-78868800D03*
X121225000Y-77598800D03*
X121225000Y-76328800D03*
X121225000Y-75058800D03*
X121225000Y-73788800D03*
%TD*%
D30*
%TO.C,Y1*%
X108400000Y-93150000D03*
X108400000Y-95350000D03*
X110100000Y-95350000D03*
X110100000Y-93150000D03*
%TD*%
D31*
%TO.C,C6*%
X113250000Y-74599000D03*
X113250000Y-73049000D03*
%TD*%
D32*
%TO.C,S1*%
X101750000Y-90250000D03*
X101750000Y-94750000D03*
D33*
X104250000Y-89000000D03*
X104250000Y-96000000D03*
%TD*%
D18*
%TO.C,C10*%
X115275000Y-71715800D03*
X116825000Y-71715800D03*
%TD*%
D17*
%TO.C,C9*%
X113256000Y-80161000D03*
X113256000Y-81711000D03*
%TD*%
D18*
%TO.C,C12*%
X100225000Y-119000000D03*
X101775000Y-119000000D03*
%TD*%
%TO.C,C2*%
X118097000Y-114046000D03*
X119647000Y-114046000D03*
%TD*%
D34*
%TO.C,J4*%
X127489669Y-98190000D03*
X127489669Y-73190000D03*
D35*
X126069669Y-80150000D03*
D36*
X126069669Y-82920000D03*
X126069669Y-85690000D03*
X126069669Y-88460000D03*
X126069669Y-91230000D03*
X128909669Y-81535000D03*
X128909669Y-84305000D03*
X128909669Y-87075000D03*
X128909669Y-89845000D03*
%TD*%
D31*
%TO.C,C3*%
X122400000Y-99975000D03*
X122400000Y-98425000D03*
%TD*%
%TO.C,C8*%
X113250000Y-78155000D03*
X113250000Y-76605000D03*
%TD*%
D19*
%TO.C,J1*%
X105500000Y-79500000D03*
X105500000Y-76900000D03*
X105500000Y-81600000D03*
X108000000Y-79500000D03*
X105500000Y-74800000D03*
X108000000Y-81600000D03*
X108000000Y-77300000D03*
X108000000Y-74800000D03*
D20*
X102500000Y-84950000D03*
D21*
X101700000Y-78200000D03*
D20*
X102500000Y-71450000D03*
%TD*%
D37*
%TO.C,F1*%
X121920000Y-115186000D03*
X121920000Y-117986000D03*
%TD*%
M02*
