M48
; DRILL file {KiCad 8.0.1} date 2024-05-28T16:45:26+0100
; FORMAT={-:-/ absolute / inch / decimal}
; #@! TF.CreationDate,2024-05-28T16:45:26+01:00
; #@! TF.GenerationSoftware,Kicad,Pcbnew,8.0.1
; #@! TF.FileFunction,Plated,1,2,PTH
FMAT,2
INCH
; #@! TA.AperFunction,Plated,PTH,ViaDrill
T1C0.0157
; #@! TA.AperFunction,Plated,PTH,ComponentDrill
T2C0.0354
; #@! TA.AperFunction,Plated,PTH,ComponentDrill
T3C0.0394
; #@! TA.AperFunction,Plated,PTH,ComponentDrill
T4C0.0512
; #@! TA.AperFunction,Plated,PTH,ComponentDrill
T5C0.0866
; #@! TA.AperFunction,Plated,PTH,ComponentDrill
T6C0.0906
; #@! TA.AperFunction,Plated,PTH,ComponentDrill
T7C0.1260
%
G90
G05
T1
X3.8484Y-2.687
X3.8484Y-4.7933
X3.8583Y-4.6063
X3.8583Y-4.685
X3.937Y-4.065
X3.9961Y-3.6417
X4.1929Y-3.4252
X4.2182Y-3.8283
X4.345Y-3.355
X4.3898Y-3.5728
X4.3996Y-3.2185
X4.3996Y-3.8287
X4.4094Y-3.9014
X4.425Y-3.355
X4.4789Y-2.8235
X4.485Y-3.505
X4.5213Y-3.615
X4.535Y-3.7081
X4.54Y-3.755
X4.57Y-3.61
X4.59Y-3.5
X4.6063Y-2.687
X4.6063Y-4.7933
X4.6289Y-4.0157
X4.645Y-3.67
X4.645Y-3.72
X4.6457Y-3.8091
X4.6457Y-4.3504
X4.65Y-4.54
X4.6929Y-2.9567
X4.7029Y-3.0295
X4.7049Y-3.0815
X4.71Y-4.04
X4.71Y-4.08
X4.74Y-3.72
X4.8031Y-4.4685
X4.8346Y-3.4252
X4.8365Y-3.9869
X4.8383Y-3.0283
X4.8389Y-3.0835
X4.8425Y-3.1496
X4.85Y-4.04
X4.85Y-4.08
X4.89Y-4.22
X4.89Y-4.325
X5.2953Y-3.4463
X5.3642Y-2.687
X5.3642Y-4.7933
T2
X4.1535Y-2.9449
X4.1535Y-3.0276
X4.1535Y-3.1299
X4.1535Y-3.2126
X4.252Y-2.9449
X4.252Y-3.0433
X4.252Y-3.1299
X4.252Y-3.2126
X4.9606Y-4.2677
X4.9606Y-4.3504
X4.9606Y-4.437
X4.9606Y-4.5354
X5.0591Y-4.2677
X5.0591Y-4.3504
X5.0591Y-4.4528
X5.0591Y-4.5354
T3
X4.0059Y-3.5531
X4.0059Y-3.7303
X4.3323Y-4.1437
X4.3323Y-4.2421
X4.3323Y-4.3209
X4.3323Y-4.4193
X4.4354Y-4.1437
X4.4354Y-4.2421
X4.4354Y-4.3209
X4.4354Y-4.4193
X4.515Y-3.36
X4.615Y-3.36
X4.715Y-3.36
X4.9634Y-3.1555
X4.9634Y-3.2646
X4.9634Y-3.3736
X4.9634Y-3.4827
X4.9634Y-3.5917
X5.0752Y-3.21
X5.0752Y-3.3191
X5.0752Y-3.4281
X5.0752Y-3.5372
T4
X4.1043Y-3.5039
X4.1043Y-3.7795
T5
X4.0039Y-3.0787
X4.0354Y-2.813
X4.0354Y-3.3445
X5.1772Y-4.1358
X5.1772Y-4.6673
X5.2087Y-4.4016
T6
X4.2256Y-4.0228
X4.2256Y-4.5402
X4.4492Y-4.0228
X4.4492Y-4.5402
T7
X5.0193Y-2.8815
X5.0193Y-3.8657
M30
