M48
; DRILL file {KiCad (6.0.6)} date Wed Aug 24 09:56:41 2022
; FORMAT={-:-/ absolute / inch / decimal}
; #@! TF.CreationDate,2022-08-24T09:56:41+01:00
; #@! TF.GenerationSoftware,Kicad,Pcbnew,(6.0.6)
; #@! TF.FileFunction,Plated,1,2,PTH
FMAT,2
INCH
; #@! TA.AperFunction,Plated,PTH,ViaDrill
T1C0.0157
; #@! TA.AperFunction,Plated,PTH,ComponentDrill
T2C0.0354
; #@! TA.AperFunction,Plated,PTH,ComponentDrill
T3C0.0394
; #@! TA.AperFunction,Plated,PTH,ComponentDrill
T4C0.0512
; #@! TA.AperFunction,Plated,PTH,ComponentDrill
T5C0.0866
; #@! TA.AperFunction,Plated,PTH,ComponentDrill
T6C0.0906
%
G90
G05
T1
X3.987Y-4.2244
X3.9961Y-3.248
X3.9961Y-4.6654
X4.107Y-4.4144
X4.327Y-3.8744
X4.5079Y-3.248
X4.5374Y-4.6654
X4.813Y-4.4193
X4.8622Y-3.7444
X4.8819Y-4.0856
X4.9213Y-4.0856
X4.997Y-4.1544
X5.0394Y-3.248
X5.1378Y-4.6654
X5.157Y-3.8444
X5.1969Y-4.5472
X5.2854Y-4.0846
X5.296Y-3.8634
X5.297Y-3.9944
X5.3346Y-4.5472
X5.337Y-3.7644
X5.344Y-3.8544
X5.374Y-3.7205
X5.4035Y-4.311
X5.4724Y-4.5472
X5.509Y-3.8874
X5.509Y-3.9654
X5.6594Y-3.5925
X5.6988Y-3.248
X5.7185Y-4.6654
X5.748Y-4.4193
X6.2106Y-3.248
X6.2402Y-4.6654
T2
X5.8661Y-3.4882
X5.8661Y-3.5709
X5.8661Y-3.6575
X5.8661Y-3.7559
X5.8661Y-4.1575
X5.8661Y-4.2402
X5.8661Y-4.3268
X5.8661Y-4.4252
X5.9646Y-3.4882
X5.9646Y-3.5709
X5.9646Y-3.6732
X5.9646Y-3.7559
X5.9646Y-4.1575
X5.9646Y-4.2402
X5.9646Y-4.3425
X5.9646Y-4.4252
T3
X4.0524Y-3.4055
X4.0524Y-3.5827
X4.4472Y-3.8189
X4.4472Y-3.9173
X4.4472Y-3.9961
X4.4472Y-4.0945
X4.5504Y-3.8189
X4.5504Y-3.9173
X4.5504Y-3.9961
X4.5504Y-4.0945
T4
X4.1508Y-3.3563
X4.1508Y-3.6319
T5
X6.0827Y-3.3563
X6.0827Y-3.8878
X6.0827Y-4.0256
X6.0827Y-4.5571
X6.1142Y-3.622
X6.1142Y-4.2913
T6
X4.3406Y-3.698
X4.3406Y-4.2154
X4.5642Y-3.698
X4.5642Y-4.2154
T0
M30
