%TF.GenerationSoftware,KiCad,Pcbnew,(7.0.0)*%
%TF.CreationDate,2023-02-18T15:12:11+00:00*%
%TF.ProjectId,ps2usb,70733275-7362-42e6-9b69-6361645f7063,rev?*%
%TF.SameCoordinates,Original*%
%TF.FileFunction,Copper,L2,Bot*%
%TF.FilePolarity,Positive*%
%FSLAX46Y46*%
G04 Gerber Fmt 4.6, Leading zero omitted, Abs format (unit mm)*
G04 Created by KiCad (PCBNEW (7.0.0)) date 2023-02-18 15:12:11*
%MOMM*%
%LPD*%
G01*
G04 APERTURE LIST*
%TA.AperFunction,ComponentPad*%
%ADD10C,1.800000*%
%TD*%
%TA.AperFunction,ComponentPad*%
%ADD11O,4.400000X3.000000*%
%TD*%
%TA.AperFunction,ComponentPad*%
%ADD12C,4.400000*%
%TD*%
%TA.AperFunction,ComponentPad*%
%ADD13O,3.000000X1.500000*%
%TD*%
%TA.AperFunction,ComponentPad*%
%ADD14O,5.000000X3.500000*%
%TD*%
%TA.AperFunction,ComponentPad*%
%ADD15C,2.000000*%
%TD*%
%TA.AperFunction,ComponentPad*%
%ADD16C,2.600000*%
%TD*%
%TA.AperFunction,ComponentPad*%
%ADD17R,1.700000X1.700000*%
%TD*%
%TA.AperFunction,ComponentPad*%
%ADD18O,1.700000X1.700000*%
%TD*%
%TA.AperFunction,ComponentPad*%
%ADD19C,4.000000*%
%TD*%
%TA.AperFunction,ComponentPad*%
%ADD20R,1.600000X1.600000*%
%TD*%
%TA.AperFunction,ComponentPad*%
%ADD21C,1.600000*%
%TD*%
%TA.AperFunction,ViaPad*%
%ADD22C,0.800000*%
%TD*%
%TA.AperFunction,Conductor*%
%ADD23C,0.889000*%
%TD*%
%TA.AperFunction,Conductor*%
%ADD24C,0.254000*%
%TD*%
G04 APERTURE END LIST*
D10*
%TO.P,J3,1,1*%
%TO.N,/DIN2-1*%
X128500000Y-110500000D03*
%TO.P,J3,2,2*%
%TO.N,/DIN2-2*%
X128500000Y-113100000D03*
%TO.P,J3,3,3*%
%TO.N,GND*%
X128500000Y-108400000D03*
%TO.P,J3,4,4*%
%TO.N,unconnected-(J3-Pad4)*%
X126000000Y-110500000D03*
%TO.P,J3,5,5*%
%TO.N,Net-(F1-Pad2)*%
X128500000Y-115200000D03*
%TO.P,J3,6,6*%
%TO.N,/DIN2-6*%
X126000000Y-108400000D03*
%TO.P,J3,7,7*%
%TO.N,unconnected-(J3-Pad7)*%
X126000000Y-112700000D03*
%TO.P,J3,8,8*%
%TO.N,/DIN2-8*%
X126000000Y-115200000D03*
D11*
%TO.P,J3,S,S*%
%TO.N,GND*%
X131499999Y-105049999D03*
D12*
X132300000Y-111800000D03*
D11*
X131499999Y-118549999D03*
%TD*%
D13*
%TO.P,J2,1A,VBUS*%
%TO.N,+5V*%
X113359999Y-105249999D03*
%TO.P,J2,1B,VBUS*%
X109339999Y-105249999D03*
%TO.P,J2,2A,D-*%
%TO.N,Net-(U1A-P5.4{slash}HM{slash}ALE{slash}XB)*%
X113359999Y-107749999D03*
%TO.P,J2,2B,D-*%
%TO.N,Net-(U1A-P5.0{slash}DM)*%
X109339999Y-107749999D03*
%TO.P,J2,3A,D+*%
%TO.N,Net-(U1A-P5.5{slash}HP{slash}!A15{slash}XA)*%
X113359999Y-109749999D03*
%TO.P,J2,3B,D+*%
%TO.N,Net-(U1A-P5.1{slash}DP)*%
X109339999Y-109749999D03*
%TO.P,J2,4A,GND*%
%TO.N,GND*%
X113359999Y-112249999D03*
%TO.P,J2,4B,GND*%
X109339999Y-112249999D03*
D14*
%TO.P,J2,S,SHIELD*%
X113009999Y-102179999D03*
X107329999Y-102179999D03*
X113009999Y-115319999D03*
X107329999Y-115319999D03*
%TD*%
D15*
%TO.P,S1,1,1*%
%TO.N,GND*%
X102128000Y-90250000D03*
%TO.P,S1,2,2*%
%TO.N,Net-(U1A-P4.6{slash}XI{slash}SCS_)*%
X102128000Y-94750000D03*
D16*
%TO.P,S1,M,M*%
%TO.N,GND*%
X104628000Y-89000000D03*
X104628000Y-96000000D03*
%TD*%
D17*
%TO.P,J5,1,Pin_1*%
%TO.N,GND*%
X114709999Y-85499999D03*
D18*
%TO.P,J5,2,Pin_2*%
%TO.N,Net-(J5-Pin_2)*%
X117249999Y-85499999D03*
%TO.P,J5,3,Pin_3*%
%TO.N,Net-(J5-Pin_3)*%
X119789999Y-85499999D03*
%TD*%
D19*
%TO.P,J4,0,PAD*%
%TO.N,GND*%
X127489669Y-98190000D03*
X127489669Y-73190000D03*
D20*
%TO.P,J4,1,1*%
%TO.N,unconnected-(J4-Pad1)*%
X126069668Y-80149999D03*
D21*
%TO.P,J4,2,2*%
%TO.N,Net-(U2-T1OUT)*%
X126069669Y-82920000D03*
%TO.P,J4,3,3*%
%TO.N,Net-(U2-R1IN)*%
X126069669Y-85690000D03*
%TO.P,J4,4,4*%
%TO.N,unconnected-(J4-Pad4)*%
X126069669Y-88460000D03*
%TO.P,J4,5,5*%
%TO.N,GND*%
X126069669Y-91230000D03*
%TO.P,J4,6,6*%
%TO.N,unconnected-(J4-Pad6)*%
X128909669Y-81535000D03*
%TO.P,J4,7,7*%
%TO.N,Net-(U2-R2IN)*%
X128909669Y-84305000D03*
%TO.P,J4,8,8*%
%TO.N,Net-(U2-T2OUT)*%
X128909669Y-87075000D03*
%TO.P,J4,9,9*%
%TO.N,unconnected-(J4-Pad9)*%
X128909669Y-89845000D03*
%TD*%
D10*
%TO.P,J1,1,1*%
%TO.N,/DIN1-1*%
X105500000Y-79500000D03*
%TO.P,J1,2,2*%
%TO.N,/DIN1-2*%
X105500000Y-76900000D03*
%TO.P,J1,3,3*%
%TO.N,GND*%
X105500000Y-81600000D03*
%TO.P,J1,4,4*%
%TO.N,unconnected-(J1-Pad4)*%
X108000000Y-79500000D03*
%TO.P,J1,5,5*%
%TO.N,Net-(F1-Pad2)*%
X105500000Y-74800000D03*
%TO.P,J1,6,6*%
%TO.N,/DIN1-6*%
X108000000Y-81600000D03*
%TO.P,J1,7,7*%
%TO.N,unconnected-(J1-Pad7)*%
X108000000Y-77300000D03*
%TO.P,J1,8,8*%
%TO.N,/DIN1-8*%
X108000000Y-74800000D03*
D11*
%TO.P,J1,S,S*%
%TO.N,GND*%
X102499999Y-84949999D03*
D12*
X101700000Y-78200000D03*
D11*
X102499999Y-71449999D03*
%TD*%
D22*
%TO.N,GND*%
X116750000Y-96500000D03*
X119200000Y-75100000D03*
X136250000Y-68250000D03*
X117000000Y-68250000D03*
X136250000Y-121750000D03*
X123000000Y-80000000D03*
X109132031Y-91841992D03*
X122848345Y-101267487D03*
X118110000Y-115316000D03*
X109145173Y-94128651D03*
X111750000Y-81750000D03*
X97750000Y-121750000D03*
X117000000Y-121750000D03*
X115000000Y-94500000D03*
X97750000Y-68250000D03*
X113764000Y-71715800D03*
X99060000Y-117348000D03*
X117573100Y-102000000D03*
X122800000Y-87000000D03*
%TO.N,+5V*%
X119634000Y-102616000D03*
X123190000Y-102616000D03*
X119634000Y-103632000D03*
X123190000Y-103632000D03*
%TO.N,+3.3V*%
X120396000Y-94488000D03*
X114935000Y-91694000D03*
X117983000Y-94488000D03*
X99750000Y-91000000D03*
%TO.N,Net-(U2-R2IN)*%
X119453600Y-76948200D03*
X122891973Y-76919900D03*
%TO.N,Net-(U2-T2OUT)*%
X122908000Y-78319800D03*
X119504400Y-78269000D03*
%TO.N,Net-(U1A-P4.6{slash}XI{slash}SCS_)*%
X115250000Y-93500000D03*
%TO.N,Net-(U1A-P4.0{slash}LED2{slash}A0{slash}RXD1_)*%
X116045000Y-88250000D03*
X116840000Y-92710000D03*
%TD*%
D23*
%TO.N,+5V*%
X122936000Y-102870000D02*
X123190000Y-102616000D01*
X119634000Y-103632000D02*
X123190000Y-103632000D01*
X119634000Y-102616000D02*
X119888000Y-102870000D01*
X119888000Y-102870000D02*
X122936000Y-102870000D01*
D24*
%TO.N,+3.3V*%
X117983000Y-94488000D02*
X120396000Y-94488000D01*
X99750000Y-91000000D02*
X101500000Y-92750000D01*
X101500000Y-92750000D02*
X113879000Y-92750000D01*
X113879000Y-92750000D02*
X114935000Y-91694000D01*
%TO.N,Net-(U2-R2IN)*%
X122891973Y-76919900D02*
X122863673Y-76948200D01*
X122863673Y-76948200D02*
X119453600Y-76948200D01*
%TO.N,Net-(U2-T2OUT)*%
X122806400Y-78218200D02*
X119555200Y-78218200D01*
X119555200Y-78218200D02*
X119504400Y-78269000D01*
X122908000Y-78319800D02*
X122806400Y-78218200D01*
%TO.N,Net-(U1A-P4.6{slash}XI{slash}SCS_)*%
X115000000Y-93250000D02*
X103628000Y-93250000D01*
X115250000Y-93500000D02*
X115000000Y-93250000D01*
X103628000Y-93250000D02*
X102128000Y-94750000D01*
%TO.N,Net-(U1A-P4.0{slash}LED2{slash}A0{slash}RXD1_)*%
X116045000Y-88250000D02*
X116045000Y-89545000D01*
X116840000Y-90340000D02*
X116840000Y-92710000D01*
X116045000Y-89545000D02*
X116840000Y-90340000D01*
%TD*%
%TA.AperFunction,Conductor*%
%TO.N,GND*%
G36*
X136936500Y-67517381D02*
G01*
X136982619Y-67563500D01*
X136999500Y-67626500D01*
X136999500Y-122373500D01*
X136982619Y-122436500D01*
X136936500Y-122482619D01*
X136873500Y-122499500D01*
X97126500Y-122499500D01*
X97063500Y-122482619D01*
X97017381Y-122436500D01*
X97000500Y-122373500D01*
X97000500Y-118817588D01*
X128808206Y-118817588D01*
X128846126Y-119032642D01*
X128848246Y-119041142D01*
X128932307Y-119299857D01*
X128935599Y-119308004D01*
X129054847Y-119552499D01*
X129059233Y-119560095D01*
X129211351Y-119785620D01*
X129216756Y-119792538D01*
X129398775Y-119994691D01*
X129405091Y-120000789D01*
X129613471Y-120175642D01*
X129620575Y-120180804D01*
X129851274Y-120324960D01*
X129859008Y-120329073D01*
X130107532Y-120439722D01*
X130115773Y-120442722D01*
X130377266Y-120517703D01*
X130385846Y-120519527D01*
X130655234Y-120557388D01*
X130663984Y-120558000D01*
X131229410Y-120558000D01*
X131242493Y-120554493D01*
X131246000Y-120541410D01*
X131754000Y-120541410D01*
X131757506Y-120554493D01*
X131770590Y-120558000D01*
X132267923Y-120558000D01*
X132272308Y-120557846D01*
X132475757Y-120543620D01*
X132484437Y-120542400D01*
X132750529Y-120485841D01*
X132758966Y-120483421D01*
X133014586Y-120390382D01*
X133022602Y-120386813D01*
X133262790Y-120259104D01*
X133270238Y-120254450D01*
X133490305Y-120094561D01*
X133497035Y-120088914D01*
X133692715Y-119899948D01*
X133698587Y-119893426D01*
X133866063Y-119679067D01*
X133870970Y-119671793D01*
X134006983Y-119436211D01*
X134010833Y-119428319D01*
X134112735Y-119176103D01*
X134115450Y-119167746D01*
X134181257Y-118903808D01*
X134182781Y-118895163D01*
X134190512Y-118821611D01*
X134188086Y-118807851D01*
X134174656Y-118804000D01*
X131770590Y-118804000D01*
X131757506Y-118807506D01*
X131754000Y-118820590D01*
X131754000Y-120541410D01*
X131246000Y-120541410D01*
X131246000Y-118820590D01*
X131242493Y-118807506D01*
X131229410Y-118804000D01*
X128819608Y-118804000D01*
X128808694Y-118806419D01*
X128808206Y-118817588D01*
X97000500Y-118817588D01*
X97000500Y-118278388D01*
X128809487Y-118278388D01*
X128811913Y-118292148D01*
X128825344Y-118296000D01*
X131229410Y-118296000D01*
X131242493Y-118292493D01*
X131246000Y-118279410D01*
X131754000Y-118279410D01*
X131757506Y-118292493D01*
X131770590Y-118296000D01*
X134180392Y-118296000D01*
X134191305Y-118293580D01*
X134191793Y-118282411D01*
X134153873Y-118067357D01*
X134151753Y-118058857D01*
X134067692Y-117800142D01*
X134064400Y-117791995D01*
X133945152Y-117547500D01*
X133940766Y-117539904D01*
X133788648Y-117314379D01*
X133783243Y-117307461D01*
X133601224Y-117105308D01*
X133594908Y-117099210D01*
X133386528Y-116924357D01*
X133379424Y-116919195D01*
X133148725Y-116775039D01*
X133140991Y-116770926D01*
X132892467Y-116660277D01*
X132884226Y-116657277D01*
X132622733Y-116582296D01*
X132614153Y-116580472D01*
X132344765Y-116542611D01*
X132336016Y-116542000D01*
X131770590Y-116542000D01*
X131757506Y-116545506D01*
X131754000Y-116558590D01*
X131754000Y-118279410D01*
X131246000Y-118279410D01*
X131246000Y-116558590D01*
X131242493Y-116545506D01*
X131229410Y-116542000D01*
X130732077Y-116542000D01*
X130727691Y-116542153D01*
X130524242Y-116556379D01*
X130515562Y-116557599D01*
X130249470Y-116614158D01*
X130241033Y-116616578D01*
X129985413Y-116709617D01*
X129977397Y-116713186D01*
X129737209Y-116840895D01*
X129729761Y-116845549D01*
X129509694Y-117005438D01*
X129502964Y-117011085D01*
X129307284Y-117200051D01*
X129301412Y-117206573D01*
X129133936Y-117420932D01*
X129129029Y-117428206D01*
X128993016Y-117663788D01*
X128989166Y-117671680D01*
X128887264Y-117923896D01*
X128884549Y-117932253D01*
X128818742Y-118196191D01*
X128817218Y-118204836D01*
X128809487Y-118278388D01*
X97000500Y-118278388D01*
X97000500Y-115591571D01*
X104337922Y-115591571D01*
X104348047Y-115692213D01*
X104349447Y-115700512D01*
X104417576Y-115986396D01*
X104420062Y-115994411D01*
X104525694Y-116268677D01*
X104529224Y-116276284D01*
X104670467Y-116534020D01*
X104674983Y-116541094D01*
X104849321Y-116777708D01*
X104854737Y-116784113D01*
X105059053Y-116995374D01*
X105065276Y-117001003D01*
X105295928Y-117183148D01*
X105302855Y-117187902D01*
X105555716Y-117337671D01*
X105563217Y-117341462D01*
X105833789Y-117456194D01*
X105841719Y-117458948D01*
X106125166Y-117536592D01*
X106133406Y-117538267D01*
X106424668Y-117577438D01*
X106433061Y-117578000D01*
X107059410Y-117578000D01*
X107072493Y-117574493D01*
X107076000Y-117561410D01*
X107584000Y-117561410D01*
X107587506Y-117574493D01*
X107600590Y-117578000D01*
X108153391Y-117578000D01*
X108157597Y-117577859D01*
X108377437Y-117563143D01*
X108385763Y-117562023D01*
X108673755Y-117503485D01*
X108681871Y-117501262D01*
X108959480Y-117404866D01*
X108967243Y-117401573D01*
X109229523Y-117269038D01*
X109236765Y-117264749D01*
X109479057Y-117098424D01*
X109485648Y-117093219D01*
X109703611Y-116896084D01*
X109709458Y-116890039D01*
X109899197Y-116665615D01*
X109904182Y-116658849D01*
X110064585Y-116407582D01*
X110065356Y-116408074D01*
X110108487Y-116363458D01*
X110172703Y-116345856D01*
X110236924Y-116363441D01*
X110283215Y-116411302D01*
X110350464Y-116534014D01*
X110354983Y-116541094D01*
X110529321Y-116777708D01*
X110534737Y-116784113D01*
X110739053Y-116995374D01*
X110745276Y-117001003D01*
X110975928Y-117183148D01*
X110982855Y-117187902D01*
X111235716Y-117337671D01*
X111243217Y-117341462D01*
X111513789Y-117456194D01*
X111521719Y-117458948D01*
X111805166Y-117536592D01*
X111813406Y-117538267D01*
X112104668Y-117577438D01*
X112113061Y-117578000D01*
X112739410Y-117578000D01*
X112752493Y-117574493D01*
X112756000Y-117561410D01*
X113264000Y-117561410D01*
X113267506Y-117574493D01*
X113280590Y-117578000D01*
X113833391Y-117578000D01*
X113837597Y-117577859D01*
X114057437Y-117563143D01*
X114065763Y-117562023D01*
X114353755Y-117503485D01*
X114361871Y-117501262D01*
X114639480Y-117404866D01*
X114647243Y-117401573D01*
X114909523Y-117269038D01*
X114916765Y-117264749D01*
X115159057Y-117098424D01*
X115165648Y-117093219D01*
X115383611Y-116896084D01*
X115389458Y-116890039D01*
X115579197Y-116665615D01*
X115584182Y-116658849D01*
X115742319Y-116411130D01*
X115746358Y-116403759D01*
X115870065Y-116137178D01*
X115873084Y-116129341D01*
X115960159Y-115848636D01*
X115962104Y-115840477D01*
X116004768Y-115587549D01*
X116004209Y-115576404D01*
X115993315Y-115574000D01*
X113280590Y-115574000D01*
X113267506Y-115577506D01*
X113264000Y-115590590D01*
X113264000Y-117561410D01*
X112756000Y-117561410D01*
X112756000Y-115590590D01*
X112752493Y-115577506D01*
X112739410Y-115574000D01*
X107600590Y-115574000D01*
X107587506Y-115577506D01*
X107584000Y-115590590D01*
X107584000Y-117561410D01*
X107076000Y-117561410D01*
X107076000Y-115590590D01*
X107072493Y-115577506D01*
X107059410Y-115574000D01*
X104353817Y-115574000D01*
X104340397Y-115577837D01*
X104337922Y-115591571D01*
X97000500Y-115591571D01*
X97000500Y-115200000D01*
X124789536Y-115200000D01*
X124810146Y-115422422D01*
X124811738Y-115428020D01*
X124811739Y-115428021D01*
X124868385Y-115627112D01*
X124871276Y-115637270D01*
X124970843Y-115837227D01*
X124974351Y-115841873D01*
X124974354Y-115841877D01*
X125101943Y-116010833D01*
X125101947Y-116010837D01*
X125105456Y-116015484D01*
X125109758Y-116019406D01*
X125109761Y-116019409D01*
X125206351Y-116107462D01*
X125270532Y-116165971D01*
X125460450Y-116283563D01*
X125668741Y-116364255D01*
X125888312Y-116405300D01*
X126105860Y-116405300D01*
X126111688Y-116405300D01*
X126331259Y-116364255D01*
X126539550Y-116283563D01*
X126729468Y-116165971D01*
X126894544Y-116015484D01*
X127029157Y-115837227D01*
X127128724Y-115637270D01*
X127130318Y-115631667D01*
X127132422Y-115626237D01*
X127134680Y-115627112D01*
X127161697Y-115581568D01*
X127217748Y-115549647D01*
X127282252Y-115549647D01*
X127338303Y-115581568D01*
X127365319Y-115627112D01*
X127367578Y-115626237D01*
X127369682Y-115631669D01*
X127371276Y-115637270D01*
X127470843Y-115837227D01*
X127474351Y-115841873D01*
X127474354Y-115841877D01*
X127601943Y-116010833D01*
X127601947Y-116010837D01*
X127605456Y-116015484D01*
X127609758Y-116019406D01*
X127609761Y-116019409D01*
X127706351Y-116107462D01*
X127770532Y-116165971D01*
X127960450Y-116283563D01*
X128168741Y-116364255D01*
X128388312Y-116405300D01*
X128605860Y-116405300D01*
X128611688Y-116405300D01*
X128831259Y-116364255D01*
X129039550Y-116283563D01*
X129229468Y-116165971D01*
X129394544Y-116015484D01*
X129529157Y-115837227D01*
X129628724Y-115637270D01*
X129689854Y-115422422D01*
X129710464Y-115200000D01*
X129689854Y-114977578D01*
X129628724Y-114762730D01*
X129529157Y-114562773D01*
X129489802Y-114510658D01*
X129398056Y-114389166D01*
X129398053Y-114389162D01*
X129394544Y-114384516D01*
X129390240Y-114380593D01*
X129390238Y-114380590D01*
X129327172Y-114323098D01*
X129239432Y-114243113D01*
X129203130Y-114184482D01*
X129203130Y-114115518D01*
X129239432Y-114056886D01*
X129394544Y-113915484D01*
X129416545Y-113886350D01*
X130578379Y-113886350D01*
X130586579Y-113897733D01*
X130755877Y-114030370D01*
X130762122Y-114034680D01*
X131035968Y-114200226D01*
X131042704Y-114203762D01*
X131334498Y-114335087D01*
X131341609Y-114337784D01*
X131647111Y-114432983D01*
X131654500Y-114434804D01*
X131969247Y-114492484D01*
X131976787Y-114493399D01*
X132296198Y-114512720D01*
X132303802Y-114512720D01*
X132623212Y-114493399D01*
X132630752Y-114492484D01*
X132945499Y-114434804D01*
X132952888Y-114432983D01*
X133258390Y-114337784D01*
X133265501Y-114335087D01*
X133557295Y-114203762D01*
X133564031Y-114200226D01*
X133837877Y-114034680D01*
X133844121Y-114030370D01*
X134013420Y-113897733D01*
X134021619Y-113886351D01*
X134014850Y-113874061D01*
X132311729Y-112170939D01*
X132300000Y-112164167D01*
X132288270Y-112170939D01*
X130585148Y-113874061D01*
X130578379Y-113886350D01*
X129416545Y-113886350D01*
X129529157Y-113737227D01*
X129628724Y-113537270D01*
X129689854Y-113322422D01*
X129703205Y-113178337D01*
X129724215Y-113119497D01*
X129770907Y-113077982D01*
X129831802Y-113064002D01*
X129891926Y-113080993D01*
X129936496Y-113124778D01*
X130065319Y-113337877D01*
X130069629Y-113344122D01*
X130202265Y-113513419D01*
X130213648Y-113521619D01*
X130225937Y-113514850D01*
X131929059Y-111811729D01*
X131935831Y-111800000D01*
X132664167Y-111800000D01*
X132670939Y-111811729D01*
X134374061Y-113514850D01*
X134386351Y-113521619D01*
X134397733Y-113513420D01*
X134530370Y-113344121D01*
X134534680Y-113337877D01*
X134700226Y-113064031D01*
X134703762Y-113057295D01*
X134835087Y-112765501D01*
X134837784Y-112758390D01*
X134932983Y-112452888D01*
X134934804Y-112445499D01*
X134992484Y-112130752D01*
X134993399Y-112123212D01*
X135012720Y-111803802D01*
X135012720Y-111796198D01*
X134993399Y-111476787D01*
X134992484Y-111469247D01*
X134934804Y-111154500D01*
X134932983Y-111147111D01*
X134837784Y-110841609D01*
X134835087Y-110834498D01*
X134703762Y-110542704D01*
X134700226Y-110535968D01*
X134534680Y-110262122D01*
X134530370Y-110255877D01*
X134397733Y-110086579D01*
X134386350Y-110078379D01*
X134374061Y-110085148D01*
X132670939Y-111788270D01*
X132664167Y-111800000D01*
X131935831Y-111800000D01*
X131929059Y-111788270D01*
X130225937Y-110085148D01*
X130213648Y-110078379D01*
X130202264Y-110086580D01*
X130069640Y-110255864D01*
X130065312Y-110262133D01*
X129936496Y-110475221D01*
X129891926Y-110519006D01*
X129831802Y-110535997D01*
X129770907Y-110522017D01*
X129724215Y-110480502D01*
X129703205Y-110421662D01*
X129689854Y-110277578D01*
X129628724Y-110062730D01*
X129529157Y-109862773D01*
X129525645Y-109858122D01*
X129416544Y-109713648D01*
X130578379Y-109713648D01*
X130585148Y-109725937D01*
X132288270Y-111429059D01*
X132300000Y-111435831D01*
X132311729Y-111429059D01*
X134014850Y-109725937D01*
X134021619Y-109713648D01*
X134013419Y-109702265D01*
X133844122Y-109569629D01*
X133837877Y-109565319D01*
X133564031Y-109399773D01*
X133557295Y-109396237D01*
X133265501Y-109264912D01*
X133258390Y-109262215D01*
X132952888Y-109167016D01*
X132945499Y-109165195D01*
X132630752Y-109107515D01*
X132623212Y-109106600D01*
X132303802Y-109087280D01*
X132296198Y-109087280D01*
X131976787Y-109106600D01*
X131969247Y-109107515D01*
X131654500Y-109165195D01*
X131647111Y-109167016D01*
X131341609Y-109262215D01*
X131334498Y-109264912D01*
X131042704Y-109396237D01*
X131035968Y-109399773D01*
X130762133Y-109565312D01*
X130755864Y-109569640D01*
X130586580Y-109702264D01*
X130578379Y-109713648D01*
X129416544Y-109713648D01*
X129398056Y-109689166D01*
X129398053Y-109689162D01*
X129394544Y-109684516D01*
X129338903Y-109633792D01*
X129307000Y-109587967D01*
X129305440Y-109578382D01*
X129288650Y-109547861D01*
X128511730Y-108770940D01*
X128499999Y-108764167D01*
X128488270Y-108770939D01*
X127711350Y-109547859D01*
X127694556Y-109578387D01*
X127692995Y-109587977D01*
X127661096Y-109633793D01*
X127609763Y-109680590D01*
X127605456Y-109684516D01*
X127601947Y-109689162D01*
X127601943Y-109689167D01*
X127474354Y-109858122D01*
X127474348Y-109858131D01*
X127470843Y-109862773D01*
X127468249Y-109867980D01*
X127468246Y-109867987D01*
X127373870Y-110057519D01*
X127373867Y-110057526D01*
X127371276Y-110062730D01*
X127369683Y-110068327D01*
X127367578Y-110073763D01*
X127365337Y-110072895D01*
X127338256Y-110118477D01*
X127282231Y-110150358D01*
X127217769Y-110150358D01*
X127161744Y-110118477D01*
X127134662Y-110072895D01*
X127132422Y-110073763D01*
X127130317Y-110068330D01*
X127128724Y-110062730D01*
X127029157Y-109862773D01*
X127025645Y-109858122D01*
X126898056Y-109689166D01*
X126898053Y-109689162D01*
X126894544Y-109684516D01*
X126890240Y-109680592D01*
X126890238Y-109680590D01*
X126778126Y-109578387D01*
X126739432Y-109543113D01*
X126703130Y-109484482D01*
X126703130Y-109415518D01*
X126739432Y-109356886D01*
X126894544Y-109215484D01*
X127029157Y-109037227D01*
X127029325Y-109037354D01*
X127077009Y-108993403D01*
X127143280Y-108979884D01*
X127206995Y-109002582D01*
X127249792Y-109054956D01*
X127255364Y-109067658D01*
X127260309Y-109076797D01*
X127333108Y-109188225D01*
X127341202Y-109196072D01*
X127350735Y-109190052D01*
X128129058Y-108411730D01*
X128135831Y-108399999D01*
X128864167Y-108399999D01*
X128870940Y-108411730D01*
X129649263Y-109190052D01*
X129658797Y-109196072D01*
X129666888Y-109188228D01*
X129739693Y-109076792D01*
X129744636Y-109067657D01*
X129834181Y-108863516D01*
X129837554Y-108853691D01*
X129892275Y-108637602D01*
X129893987Y-108627348D01*
X129912396Y-108405189D01*
X129912396Y-108394811D01*
X129893987Y-108172651D01*
X129892275Y-108162397D01*
X129837554Y-107946308D01*
X129834181Y-107936483D01*
X129744637Y-107732344D01*
X129739690Y-107723203D01*
X129666890Y-107611773D01*
X129658796Y-107603926D01*
X129649262Y-107609947D01*
X128870939Y-108388270D01*
X128864167Y-108399999D01*
X128135831Y-108399999D01*
X128129059Y-108388270D01*
X127350736Y-107609947D01*
X127341202Y-107603927D01*
X127333108Y-107611773D01*
X127260304Y-107723210D01*
X127255364Y-107732339D01*
X127249791Y-107745045D01*
X127206994Y-107797417D01*
X127143283Y-107820115D01*
X127077013Y-107806598D01*
X127029324Y-107762646D01*
X127029157Y-107762773D01*
X127019511Y-107750000D01*
X126898056Y-107589166D01*
X126898053Y-107589162D01*
X126894544Y-107584516D01*
X126890240Y-107580593D01*
X126890238Y-107580590D01*
X126733770Y-107437951D01*
X126733771Y-107437951D01*
X126729468Y-107434029D01*
X126644580Y-107381469D01*
X126544509Y-107319507D01*
X126544505Y-107319505D01*
X126539550Y-107316437D01*
X126534119Y-107314333D01*
X126534115Y-107314331D01*
X126341817Y-107239835D01*
X127704581Y-107239835D01*
X127711349Y-107252138D01*
X128488270Y-108029059D01*
X128499999Y-108035831D01*
X128511730Y-108029058D01*
X129288650Y-107252137D01*
X129295417Y-107239836D01*
X129287179Y-107228465D01*
X129276856Y-107220430D01*
X129268161Y-107214749D01*
X129072111Y-107108653D01*
X129062594Y-107104478D01*
X128851758Y-107032098D01*
X128841688Y-107029548D01*
X128621807Y-106992857D01*
X128611459Y-106992000D01*
X128388541Y-106992000D01*
X128378192Y-106992857D01*
X128158311Y-107029548D01*
X128148241Y-107032098D01*
X127937405Y-107104478D01*
X127927888Y-107108653D01*
X127731835Y-107214751D01*
X127723150Y-107220425D01*
X127712817Y-107228467D01*
X127704581Y-107239835D01*
X126341817Y-107239835D01*
X126336685Y-107237847D01*
X126336684Y-107237846D01*
X126331259Y-107235745D01*
X126325540Y-107234676D01*
X126325537Y-107234675D01*
X126117414Y-107195770D01*
X126117410Y-107195769D01*
X126111688Y-107194700D01*
X125888312Y-107194700D01*
X125882590Y-107195769D01*
X125882585Y-107195770D01*
X125674462Y-107234675D01*
X125674456Y-107234676D01*
X125668741Y-107235745D01*
X125663318Y-107237845D01*
X125663314Y-107237847D01*
X125465884Y-107314331D01*
X125465876Y-107314334D01*
X125460450Y-107316437D01*
X125455499Y-107319502D01*
X125455490Y-107319507D01*
X125275485Y-107430962D01*
X125270532Y-107434029D01*
X125266233Y-107437947D01*
X125266229Y-107437951D01*
X125109761Y-107580590D01*
X125109753Y-107580598D01*
X125105456Y-107584516D01*
X125101951Y-107589156D01*
X125101943Y-107589166D01*
X124974354Y-107758122D01*
X124974348Y-107758131D01*
X124970843Y-107762773D01*
X124968249Y-107767980D01*
X124968246Y-107767987D01*
X124873870Y-107957519D01*
X124873867Y-107957526D01*
X124871276Y-107962730D01*
X124869684Y-107968323D01*
X124869682Y-107968330D01*
X124818028Y-108149875D01*
X124810146Y-108177578D01*
X124789536Y-108400000D01*
X124810146Y-108622422D01*
X124871276Y-108837270D01*
X124873869Y-108842477D01*
X124873870Y-108842480D01*
X124949021Y-108993403D01*
X124970843Y-109037227D01*
X124974351Y-109041873D01*
X124974354Y-109041877D01*
X125101943Y-109210833D01*
X125101947Y-109210837D01*
X125105456Y-109215484D01*
X125109758Y-109219406D01*
X125109761Y-109219409D01*
X125260565Y-109356885D01*
X125296869Y-109415519D01*
X125296869Y-109484481D01*
X125260565Y-109543115D01*
X125109761Y-109680590D01*
X125109753Y-109680598D01*
X125105456Y-109684516D01*
X125101951Y-109689156D01*
X125101943Y-109689166D01*
X124974354Y-109858122D01*
X124974348Y-109858131D01*
X124970843Y-109862773D01*
X124968249Y-109867980D01*
X124968246Y-109867987D01*
X124873870Y-110057519D01*
X124873867Y-110057526D01*
X124871276Y-110062730D01*
X124869684Y-110068323D01*
X124869682Y-110068330D01*
X124811739Y-110271978D01*
X124810146Y-110277578D01*
X124789536Y-110500000D01*
X124810146Y-110722422D01*
X124811738Y-110728020D01*
X124811739Y-110728021D01*
X124868385Y-110927112D01*
X124871276Y-110937270D01*
X124873869Y-110942477D01*
X124873870Y-110942480D01*
X124957292Y-111110013D01*
X124970843Y-111137227D01*
X124974351Y-111141873D01*
X124974354Y-111141877D01*
X125101943Y-111310833D01*
X125101947Y-111310837D01*
X125105456Y-111315484D01*
X125109758Y-111319406D01*
X125109761Y-111319409D01*
X125168993Y-111373406D01*
X125270532Y-111465971D01*
X125313981Y-111492874D01*
X125357726Y-111538688D01*
X125373650Y-111600000D01*
X125357726Y-111661312D01*
X125313981Y-111707125D01*
X125313979Y-111707128D01*
X125275480Y-111730965D01*
X125275477Y-111730966D01*
X125270532Y-111734029D01*
X125266233Y-111737947D01*
X125266229Y-111737951D01*
X125109761Y-111880590D01*
X125109753Y-111880598D01*
X125105456Y-111884516D01*
X125101951Y-111889156D01*
X125101943Y-111889166D01*
X124974354Y-112058122D01*
X124974348Y-112058131D01*
X124970843Y-112062773D01*
X124968249Y-112067980D01*
X124968246Y-112067987D01*
X124873870Y-112257519D01*
X124873867Y-112257526D01*
X124871276Y-112262730D01*
X124869684Y-112268323D01*
X124869682Y-112268330D01*
X124811739Y-112471978D01*
X124810146Y-112477578D01*
X124789536Y-112700000D01*
X124810146Y-112922422D01*
X124811738Y-112928020D01*
X124811739Y-112928021D01*
X124867721Y-113124778D01*
X124871276Y-113137270D01*
X124873869Y-113142477D01*
X124873870Y-113142480D01*
X124952353Y-113300095D01*
X124970843Y-113337227D01*
X124974351Y-113341873D01*
X124974354Y-113341877D01*
X125101943Y-113510833D01*
X125101947Y-113510837D01*
X125105456Y-113515484D01*
X125109758Y-113519406D01*
X125109761Y-113519409D01*
X125206351Y-113607462D01*
X125270532Y-113665971D01*
X125460450Y-113783563D01*
X125465885Y-113785668D01*
X125465884Y-113785668D01*
X125586792Y-113832508D01*
X125635944Y-113866849D01*
X125663657Y-113920020D01*
X125663657Y-113979980D01*
X125635944Y-114033151D01*
X125586792Y-114067492D01*
X125465884Y-114114331D01*
X125465876Y-114114334D01*
X125460450Y-114116437D01*
X125455499Y-114119502D01*
X125455490Y-114119507D01*
X125275485Y-114230962D01*
X125270532Y-114234029D01*
X125266233Y-114237947D01*
X125266229Y-114237951D01*
X125109761Y-114380590D01*
X125109753Y-114380598D01*
X125105456Y-114384516D01*
X125101951Y-114389156D01*
X125101943Y-114389166D01*
X124974354Y-114558122D01*
X124974348Y-114558131D01*
X124970843Y-114562773D01*
X124968249Y-114567980D01*
X124968246Y-114567987D01*
X124873870Y-114757519D01*
X124873867Y-114757526D01*
X124871276Y-114762730D01*
X124869684Y-114768323D01*
X124869682Y-114768330D01*
X124811739Y-114971978D01*
X124810146Y-114977578D01*
X124809609Y-114983370D01*
X124809609Y-114983372D01*
X124801953Y-115066000D01*
X124789536Y-115200000D01*
X97000500Y-115200000D01*
X97000500Y-115052450D01*
X104335231Y-115052450D01*
X104335790Y-115063595D01*
X104346685Y-115066000D01*
X107059410Y-115066000D01*
X107072493Y-115062493D01*
X107076000Y-115049410D01*
X107076000Y-113078590D01*
X107072493Y-113065506D01*
X107059410Y-113062000D01*
X106506609Y-113062000D01*
X106502402Y-113062140D01*
X106282562Y-113076856D01*
X106274236Y-113077976D01*
X105986244Y-113136514D01*
X105978128Y-113138737D01*
X105700519Y-113235133D01*
X105692756Y-113238426D01*
X105430476Y-113370961D01*
X105423234Y-113375250D01*
X105180942Y-113541575D01*
X105174351Y-113546780D01*
X104956388Y-113743915D01*
X104950541Y-113749960D01*
X104760802Y-113974384D01*
X104755817Y-113981150D01*
X104597680Y-114228869D01*
X104593641Y-114236240D01*
X104469934Y-114502821D01*
X104466915Y-114510658D01*
X104379840Y-114791363D01*
X104377895Y-114799522D01*
X104335231Y-115052450D01*
X97000500Y-115052450D01*
X97000500Y-112521866D01*
X107357337Y-112521866D01*
X107357824Y-112525460D01*
X107360331Y-112536443D01*
X107426810Y-112741045D01*
X107431237Y-112751403D01*
X107533181Y-112940847D01*
X107539389Y-112950251D01*
X107558860Y-112974667D01*
X107583693Y-113027489D01*
X107582726Y-113062000D01*
X107584000Y-113062000D01*
X107584000Y-115049410D01*
X107587506Y-115062493D01*
X107600590Y-115066000D01*
X115986183Y-115066000D01*
X115999602Y-115062162D01*
X116002077Y-115048428D01*
X115991952Y-114947786D01*
X115990552Y-114939487D01*
X115922423Y-114653603D01*
X115919937Y-114645588D01*
X115814305Y-114371322D01*
X115810775Y-114363715D01*
X115669532Y-114105979D01*
X115665016Y-114098905D01*
X115490678Y-113862291D01*
X115485262Y-113855886D01*
X115280946Y-113644625D01*
X115274723Y-113638996D01*
X115044071Y-113456851D01*
X115037144Y-113452097D01*
X114958069Y-113405261D01*
X114915785Y-113364190D01*
X114896809Y-113308381D01*
X114905294Y-113250048D01*
X114939384Y-113201959D01*
X114944947Y-113197098D01*
X115093610Y-113041609D01*
X115100636Y-113032799D01*
X115219146Y-112853262D01*
X115224493Y-112843326D01*
X115309038Y-112645523D01*
X115312524Y-112634796D01*
X115339219Y-112517840D01*
X115339219Y-112506520D01*
X115328180Y-112504000D01*
X111392945Y-112504000D01*
X111387205Y-112505677D01*
X111323836Y-112507573D01*
X111308182Y-112504000D01*
X107372945Y-112504000D01*
X107359435Y-112507946D01*
X107357337Y-112521866D01*
X97000500Y-112521866D01*
X97000500Y-111993480D01*
X107360781Y-111993480D01*
X107371820Y-111996000D01*
X111307051Y-111996000D01*
X111312787Y-111994324D01*
X111376167Y-111992427D01*
X111391820Y-111996000D01*
X115327055Y-111996000D01*
X115340564Y-111992053D01*
X115342662Y-111978133D01*
X115342175Y-111974539D01*
X115339668Y-111963556D01*
X115273189Y-111758954D01*
X115268762Y-111748596D01*
X115166818Y-111559152D01*
X115160611Y-111549749D01*
X115026476Y-111381550D01*
X115018689Y-111373406D01*
X114856687Y-111231868D01*
X114847563Y-111225239D01*
X114662884Y-111114899D01*
X114652739Y-111110013D01*
X114451322Y-111034420D01*
X114440460Y-111031423D01*
X114378453Y-111020170D01*
X114318532Y-110991499D01*
X114281518Y-110936339D01*
X114277701Y-110870021D01*
X114308140Y-110810978D01*
X114364374Y-110775622D01*
X114515800Y-110729687D01*
X114699130Y-110631695D01*
X114859820Y-110499820D01*
X114991695Y-110339130D01*
X115089687Y-110155800D01*
X115150031Y-109956875D01*
X115170406Y-109750000D01*
X115150031Y-109543125D01*
X115089687Y-109344200D01*
X114991695Y-109160870D01*
X114859820Y-109000180D01*
X114699130Y-108868305D01*
X114685692Y-108861122D01*
X114637014Y-108814778D01*
X114619087Y-108750000D01*
X114637014Y-108685222D01*
X114685693Y-108638877D01*
X114699130Y-108631695D01*
X114859820Y-108499820D01*
X114991695Y-108339130D01*
X115089687Y-108155800D01*
X115150031Y-107956875D01*
X115170406Y-107750000D01*
X115150031Y-107543125D01*
X115089687Y-107344200D01*
X114991695Y-107160870D01*
X114859820Y-107000180D01*
X114699130Y-106868305D01*
X114599997Y-106815317D01*
X114521258Y-106773230D01*
X114521254Y-106773228D01*
X114515800Y-106770313D01*
X114509880Y-106768517D01*
X114509875Y-106768515D01*
X114322803Y-106711767D01*
X114322800Y-106711766D01*
X114316875Y-106709969D01*
X114310716Y-106709362D01*
X114310709Y-106709361D01*
X114164923Y-106695003D01*
X114164915Y-106695002D01*
X114161843Y-106694700D01*
X112558157Y-106694700D01*
X112555085Y-106695002D01*
X112555076Y-106695003D01*
X112409290Y-106709361D01*
X112409281Y-106709362D01*
X112403125Y-106709969D01*
X112397201Y-106711765D01*
X112397196Y-106711767D01*
X112210124Y-106768515D01*
X112210115Y-106768518D01*
X112204200Y-106770313D01*
X112198748Y-106773226D01*
X112198741Y-106773230D01*
X112026329Y-106865387D01*
X112020870Y-106868305D01*
X112016091Y-106872226D01*
X112016085Y-106872231D01*
X111864959Y-106996257D01*
X111864953Y-106996262D01*
X111860180Y-107000180D01*
X111856262Y-107004953D01*
X111856257Y-107004959D01*
X111732231Y-107156085D01*
X111732226Y-107156091D01*
X111728305Y-107160870D01*
X111725387Y-107166328D01*
X111725387Y-107166329D01*
X111633230Y-107338741D01*
X111633226Y-107338748D01*
X111630313Y-107344200D01*
X111628518Y-107350115D01*
X111628515Y-107350124D01*
X111571767Y-107537196D01*
X111571765Y-107537201D01*
X111569969Y-107543125D01*
X111569362Y-107549281D01*
X111569361Y-107549290D01*
X111551333Y-107732339D01*
X111549594Y-107750000D01*
X111550201Y-107756163D01*
X111569361Y-107950709D01*
X111569362Y-107950716D01*
X111569969Y-107956875D01*
X111571766Y-107962800D01*
X111571767Y-107962803D01*
X111628515Y-108149875D01*
X111628517Y-108149880D01*
X111630313Y-108155800D01*
X111633228Y-108161254D01*
X111633230Y-108161258D01*
X111675317Y-108239997D01*
X111728305Y-108339130D01*
X111732230Y-108343913D01*
X111732231Y-108343914D01*
X111783015Y-108405795D01*
X111860180Y-108499820D01*
X112020870Y-108631695D01*
X112026328Y-108634612D01*
X112026329Y-108634613D01*
X112034310Y-108638879D01*
X112082986Y-108685224D01*
X112100912Y-108750000D01*
X112082986Y-108814776D01*
X112034310Y-108861121D01*
X112026329Y-108865386D01*
X112026320Y-108865391D01*
X112020870Y-108868305D01*
X112016091Y-108872226D01*
X112016085Y-108872231D01*
X111864959Y-108996257D01*
X111864953Y-108996262D01*
X111860180Y-109000180D01*
X111856262Y-109004953D01*
X111856257Y-109004959D01*
X111732231Y-109156085D01*
X111732226Y-109156091D01*
X111728305Y-109160870D01*
X111725387Y-109166328D01*
X111725387Y-109166329D01*
X111633230Y-109338741D01*
X111633226Y-109338748D01*
X111630313Y-109344200D01*
X111628518Y-109350115D01*
X111628515Y-109350124D01*
X111571767Y-109537196D01*
X111571765Y-109537201D01*
X111569969Y-109543125D01*
X111569362Y-109549281D01*
X111569361Y-109549290D01*
X111555585Y-109689167D01*
X111549594Y-109750000D01*
X111550201Y-109756163D01*
X111569361Y-109950709D01*
X111569362Y-109950716D01*
X111569969Y-109956875D01*
X111571766Y-109962800D01*
X111571767Y-109962803D01*
X111628515Y-110149875D01*
X111628517Y-110149880D01*
X111630313Y-110155800D01*
X111728305Y-110339130D01*
X111860180Y-110499820D01*
X112020870Y-110631695D01*
X112204200Y-110729687D01*
X112352801Y-110774765D01*
X112407487Y-110808468D01*
X112438452Y-110864755D01*
X112437642Y-110928993D01*
X112405266Y-110984482D01*
X112349742Y-111016796D01*
X112171641Y-111065950D01*
X112161080Y-111069913D01*
X111967267Y-111163248D01*
X111957583Y-111169034D01*
X111783543Y-111295481D01*
X111775057Y-111302895D01*
X111626389Y-111458390D01*
X111619363Y-111467200D01*
X111500853Y-111646737D01*
X111495508Y-111656670D01*
X111467213Y-111722868D01*
X111423107Y-111776919D01*
X111357005Y-111799219D01*
X111289171Y-111782933D01*
X111240398Y-111733053D01*
X111146818Y-111559152D01*
X111140611Y-111549749D01*
X111006476Y-111381550D01*
X110998689Y-111373406D01*
X110836687Y-111231868D01*
X110827563Y-111225239D01*
X110642884Y-111114899D01*
X110632739Y-111110013D01*
X110431322Y-111034420D01*
X110420460Y-111031423D01*
X110358453Y-111020170D01*
X110298532Y-110991499D01*
X110261518Y-110936339D01*
X110257701Y-110870021D01*
X110288140Y-110810978D01*
X110344374Y-110775622D01*
X110495800Y-110729687D01*
X110679130Y-110631695D01*
X110839820Y-110499820D01*
X110971695Y-110339130D01*
X111069687Y-110155800D01*
X111130031Y-109956875D01*
X111150406Y-109750000D01*
X111130031Y-109543125D01*
X111069687Y-109344200D01*
X110971695Y-109160870D01*
X110839820Y-109000180D01*
X110679130Y-108868305D01*
X110665692Y-108861122D01*
X110617014Y-108814778D01*
X110599087Y-108750000D01*
X110617014Y-108685222D01*
X110665693Y-108638877D01*
X110679130Y-108631695D01*
X110839820Y-108499820D01*
X110971695Y-108339130D01*
X111069687Y-108155800D01*
X111130031Y-107956875D01*
X111150406Y-107750000D01*
X111130031Y-107543125D01*
X111069687Y-107344200D01*
X110971695Y-107160870D01*
X110839820Y-107000180D01*
X110679130Y-106868305D01*
X110579997Y-106815317D01*
X110501258Y-106773230D01*
X110501254Y-106773228D01*
X110495800Y-106770313D01*
X110489880Y-106768517D01*
X110489875Y-106768515D01*
X110302803Y-106711767D01*
X110302800Y-106711766D01*
X110296875Y-106709969D01*
X110290716Y-106709362D01*
X110290709Y-106709361D01*
X110144923Y-106695003D01*
X110144915Y-106695002D01*
X110141843Y-106694700D01*
X108538157Y-106694700D01*
X108535085Y-106695002D01*
X108535076Y-106695003D01*
X108389290Y-106709361D01*
X108389281Y-106709362D01*
X108383125Y-106709969D01*
X108377201Y-106711765D01*
X108377196Y-106711767D01*
X108190124Y-106768515D01*
X108190115Y-106768518D01*
X108184200Y-106770313D01*
X108178748Y-106773226D01*
X108178741Y-106773230D01*
X108006329Y-106865387D01*
X108000870Y-106868305D01*
X107996091Y-106872226D01*
X107996085Y-106872231D01*
X107844959Y-106996257D01*
X107844953Y-106996262D01*
X107840180Y-107000180D01*
X107836262Y-107004953D01*
X107836257Y-107004959D01*
X107712231Y-107156085D01*
X107712226Y-107156091D01*
X107708305Y-107160870D01*
X107705387Y-107166328D01*
X107705387Y-107166329D01*
X107613230Y-107338741D01*
X107613226Y-107338748D01*
X107610313Y-107344200D01*
X107608518Y-107350115D01*
X107608515Y-107350124D01*
X107551767Y-107537196D01*
X107551765Y-107537201D01*
X107549969Y-107543125D01*
X107549362Y-107549281D01*
X107549361Y-107549290D01*
X107531333Y-107732339D01*
X107529594Y-107750000D01*
X107530201Y-107756163D01*
X107549361Y-107950709D01*
X107549362Y-107950716D01*
X107549969Y-107956875D01*
X107551766Y-107962800D01*
X107551767Y-107962803D01*
X107608515Y-108149875D01*
X107608517Y-108149880D01*
X107610313Y-108155800D01*
X107613228Y-108161254D01*
X107613230Y-108161258D01*
X107655317Y-108239997D01*
X107708305Y-108339130D01*
X107712230Y-108343913D01*
X107712231Y-108343914D01*
X107763015Y-108405795D01*
X107840180Y-108499820D01*
X108000870Y-108631695D01*
X108006328Y-108634612D01*
X108006329Y-108634613D01*
X108014310Y-108638879D01*
X108062986Y-108685224D01*
X108080912Y-108750000D01*
X108062986Y-108814776D01*
X108014310Y-108861121D01*
X108006329Y-108865386D01*
X108006320Y-108865391D01*
X108000870Y-108868305D01*
X107996091Y-108872226D01*
X107996085Y-108872231D01*
X107844959Y-108996257D01*
X107844953Y-108996262D01*
X107840180Y-109000180D01*
X107836262Y-109004953D01*
X107836257Y-109004959D01*
X107712231Y-109156085D01*
X107712226Y-109156091D01*
X107708305Y-109160870D01*
X107705387Y-109166328D01*
X107705387Y-109166329D01*
X107613230Y-109338741D01*
X107613226Y-109338748D01*
X107610313Y-109344200D01*
X107608518Y-109350115D01*
X107608515Y-109350124D01*
X107551767Y-109537196D01*
X107551765Y-109537201D01*
X107549969Y-109543125D01*
X107549362Y-109549281D01*
X107549361Y-109549290D01*
X107535585Y-109689167D01*
X107529594Y-109750000D01*
X107530201Y-109756163D01*
X107549361Y-109950709D01*
X107549362Y-109950716D01*
X107549969Y-109956875D01*
X107551766Y-109962800D01*
X107551767Y-109962803D01*
X107608515Y-110149875D01*
X107608517Y-110149880D01*
X107610313Y-110155800D01*
X107708305Y-110339130D01*
X107840180Y-110499820D01*
X108000870Y-110631695D01*
X108184200Y-110729687D01*
X108332801Y-110774765D01*
X108387487Y-110808468D01*
X108418452Y-110864755D01*
X108417642Y-110928993D01*
X108385266Y-110984482D01*
X108329742Y-111016796D01*
X108151641Y-111065950D01*
X108141080Y-111069913D01*
X107947267Y-111163248D01*
X107937583Y-111169034D01*
X107763543Y-111295481D01*
X107755057Y-111302895D01*
X107606389Y-111458390D01*
X107599363Y-111467200D01*
X107480853Y-111646737D01*
X107475506Y-111656673D01*
X107390961Y-111854476D01*
X107387475Y-111865203D01*
X107360781Y-111982160D01*
X107360781Y-111993480D01*
X97000500Y-111993480D01*
X97000500Y-105250000D01*
X107529594Y-105250000D01*
X107530201Y-105256163D01*
X107549361Y-105450709D01*
X107549362Y-105450716D01*
X107549969Y-105456875D01*
X107551766Y-105462800D01*
X107551767Y-105462803D01*
X107608515Y-105649875D01*
X107608517Y-105649880D01*
X107610313Y-105655800D01*
X107708305Y-105839130D01*
X107712230Y-105843913D01*
X107712231Y-105843914D01*
X107781500Y-105928319D01*
X107840180Y-105999820D01*
X108000870Y-106131695D01*
X108184200Y-106229687D01*
X108383125Y-106290031D01*
X108538157Y-106305300D01*
X110138751Y-106305300D01*
X110141843Y-106305300D01*
X110296875Y-106290031D01*
X110495800Y-106229687D01*
X110679130Y-106131695D01*
X110839820Y-105999820D01*
X110971695Y-105839130D01*
X111069687Y-105655800D01*
X111130031Y-105456875D01*
X111150406Y-105250000D01*
X111130031Y-105043125D01*
X111069687Y-104844200D01*
X110971695Y-104660870D01*
X110839820Y-104500180D01*
X110679130Y-104368305D01*
X110546639Y-104297487D01*
X110501258Y-104273230D01*
X110501254Y-104273228D01*
X110495800Y-104270313D01*
X110489880Y-104268517D01*
X110489875Y-104268515D01*
X110302803Y-104211767D01*
X110302800Y-104211766D01*
X110296875Y-104209969D01*
X110290716Y-104209362D01*
X110290709Y-104209361D01*
X110144923Y-104195003D01*
X110144915Y-104195002D01*
X110141843Y-104194700D01*
X109541050Y-104194700D01*
X109479759Y-104178788D01*
X109433949Y-104135072D01*
X109415188Y-104074593D01*
X109428216Y-104012625D01*
X109469741Y-103964820D01*
X109479057Y-103958424D01*
X109485648Y-103953219D01*
X109703611Y-103756084D01*
X109709458Y-103750039D01*
X109899197Y-103525615D01*
X109904182Y-103518849D01*
X110064585Y-103267582D01*
X110065356Y-103268074D01*
X110108487Y-103223458D01*
X110172703Y-103205856D01*
X110236924Y-103223441D01*
X110283215Y-103271302D01*
X110350464Y-103394014D01*
X110354983Y-103401094D01*
X110529321Y-103637708D01*
X110534737Y-103644113D01*
X110739053Y-103855374D01*
X110745276Y-103861003D01*
X110975928Y-104043148D01*
X110982855Y-104047902D01*
X111235716Y-104197671D01*
X111243217Y-104201462D01*
X111513789Y-104316194D01*
X111521723Y-104318949D01*
X111732161Y-104376594D01*
X111786135Y-104407225D01*
X111818940Y-104459907D01*
X111822616Y-104521858D01*
X111796273Y-104578050D01*
X111742205Y-104643933D01*
X111728305Y-104660870D01*
X111725387Y-104666328D01*
X111725387Y-104666329D01*
X111633230Y-104838741D01*
X111633226Y-104838748D01*
X111630313Y-104844200D01*
X111628518Y-104850115D01*
X111628515Y-104850124D01*
X111571767Y-105037196D01*
X111571765Y-105037201D01*
X111569969Y-105043125D01*
X111569362Y-105049281D01*
X111569361Y-105049290D01*
X111550426Y-105241549D01*
X111549594Y-105250000D01*
X111550201Y-105256163D01*
X111569361Y-105450709D01*
X111569362Y-105450716D01*
X111569969Y-105456875D01*
X111571766Y-105462800D01*
X111571767Y-105462803D01*
X111628515Y-105649875D01*
X111628517Y-105649880D01*
X111630313Y-105655800D01*
X111728305Y-105839130D01*
X111732230Y-105843913D01*
X111732231Y-105843914D01*
X111801500Y-105928319D01*
X111860180Y-105999820D01*
X112020870Y-106131695D01*
X112204200Y-106229687D01*
X112403125Y-106290031D01*
X112558157Y-106305300D01*
X114158751Y-106305300D01*
X114161843Y-106305300D01*
X114316875Y-106290031D01*
X114515800Y-106229687D01*
X114699130Y-106131695D01*
X114859820Y-105999820D01*
X114991695Y-105839130D01*
X115089687Y-105655800D01*
X115150031Y-105456875D01*
X115163749Y-105317588D01*
X128808206Y-105317588D01*
X128846126Y-105532642D01*
X128848246Y-105541142D01*
X128932307Y-105799857D01*
X128935599Y-105808004D01*
X129054847Y-106052499D01*
X129059233Y-106060095D01*
X129211351Y-106285620D01*
X129216756Y-106292538D01*
X129398775Y-106494691D01*
X129405091Y-106500789D01*
X129613471Y-106675642D01*
X129620575Y-106680804D01*
X129851274Y-106824960D01*
X129859008Y-106829073D01*
X130107532Y-106939722D01*
X130115773Y-106942722D01*
X130377266Y-107017703D01*
X130385846Y-107019527D01*
X130655234Y-107057388D01*
X130663984Y-107058000D01*
X131229410Y-107058000D01*
X131242493Y-107054493D01*
X131246000Y-107041410D01*
X131754000Y-107041410D01*
X131757506Y-107054493D01*
X131770590Y-107058000D01*
X132267923Y-107058000D01*
X132272308Y-107057846D01*
X132475757Y-107043620D01*
X132484437Y-107042400D01*
X132750529Y-106985841D01*
X132758966Y-106983421D01*
X133014586Y-106890382D01*
X133022602Y-106886813D01*
X133262790Y-106759104D01*
X133270238Y-106754450D01*
X133490305Y-106594561D01*
X133497035Y-106588914D01*
X133692715Y-106399948D01*
X133698587Y-106393426D01*
X133866063Y-106179067D01*
X133870970Y-106171793D01*
X134006983Y-105936211D01*
X134010833Y-105928319D01*
X134112735Y-105676103D01*
X134115450Y-105667746D01*
X134181257Y-105403808D01*
X134182781Y-105395163D01*
X134190512Y-105321611D01*
X134188086Y-105307851D01*
X134174656Y-105304000D01*
X131770590Y-105304000D01*
X131757506Y-105307506D01*
X131754000Y-105320590D01*
X131754000Y-107041410D01*
X131246000Y-107041410D01*
X131246000Y-105320590D01*
X131242493Y-105307506D01*
X131229410Y-105304000D01*
X128819608Y-105304000D01*
X128808694Y-105306419D01*
X128808206Y-105317588D01*
X115163749Y-105317588D01*
X115170406Y-105250000D01*
X115150031Y-105043125D01*
X115089687Y-104844200D01*
X115054510Y-104778388D01*
X128809487Y-104778388D01*
X128811913Y-104792148D01*
X128825344Y-104796000D01*
X131229410Y-104796000D01*
X131242493Y-104792493D01*
X131246000Y-104779410D01*
X131754000Y-104779410D01*
X131757506Y-104792493D01*
X131770590Y-104796000D01*
X134180392Y-104796000D01*
X134191305Y-104793580D01*
X134191793Y-104782411D01*
X134153873Y-104567357D01*
X134151753Y-104558857D01*
X134067692Y-104300142D01*
X134064400Y-104291995D01*
X133945152Y-104047500D01*
X133940766Y-104039904D01*
X133788648Y-103814379D01*
X133783243Y-103807461D01*
X133601224Y-103605308D01*
X133594908Y-103599210D01*
X133386528Y-103424357D01*
X133379424Y-103419195D01*
X133148725Y-103275039D01*
X133140991Y-103270926D01*
X132892467Y-103160277D01*
X132884226Y-103157277D01*
X132622733Y-103082296D01*
X132614153Y-103080472D01*
X132344765Y-103042611D01*
X132336016Y-103042000D01*
X131770590Y-103042000D01*
X131757506Y-103045506D01*
X131754000Y-103058590D01*
X131754000Y-104779410D01*
X131246000Y-104779410D01*
X131246000Y-103058590D01*
X131242493Y-103045506D01*
X131229410Y-103042000D01*
X130732077Y-103042000D01*
X130727691Y-103042153D01*
X130524242Y-103056379D01*
X130515562Y-103057599D01*
X130249470Y-103114158D01*
X130241033Y-103116578D01*
X129985413Y-103209617D01*
X129977397Y-103213186D01*
X129737209Y-103340895D01*
X129729761Y-103345549D01*
X129509694Y-103505438D01*
X129502964Y-103511085D01*
X129307284Y-103700051D01*
X129301412Y-103706573D01*
X129133936Y-103920932D01*
X129129029Y-103928206D01*
X128993016Y-104163788D01*
X128989166Y-104171680D01*
X128887264Y-104423896D01*
X128884549Y-104432253D01*
X128818742Y-104696191D01*
X128817218Y-104704836D01*
X128809487Y-104778388D01*
X115054510Y-104778388D01*
X114991695Y-104660870D01*
X114859820Y-104500180D01*
X114748321Y-104408675D01*
X114711572Y-104358826D01*
X114703013Y-104297487D01*
X114724713Y-104239480D01*
X114771429Y-104198819D01*
X114909535Y-104129031D01*
X114916765Y-104124749D01*
X115159057Y-103958424D01*
X115165648Y-103953219D01*
X115383611Y-103756084D01*
X115389458Y-103750039D01*
X115579197Y-103525615D01*
X115584182Y-103518849D01*
X115742319Y-103271130D01*
X115746358Y-103263759D01*
X115870065Y-102997178D01*
X115873084Y-102989341D01*
X115960159Y-102708636D01*
X115962104Y-102700477D01*
X115980057Y-102594044D01*
X118879415Y-102594044D01*
X118880054Y-102601350D01*
X118880054Y-102601358D01*
X118894051Y-102761337D01*
X118894052Y-102761343D01*
X118894692Y-102768654D01*
X118897001Y-102775622D01*
X118923108Y-102854411D01*
X118949825Y-102935037D01*
X118953672Y-102941275D01*
X118953675Y-102941280D01*
X119024375Y-103055902D01*
X119043121Y-103120217D01*
X119026253Y-103185049D01*
X118944507Y-103326637D01*
X118944505Y-103326640D01*
X118940835Y-103332998D01*
X118938729Y-103340030D01*
X118938729Y-103340032D01*
X118892669Y-103493881D01*
X118892667Y-103493888D01*
X118890565Y-103500912D01*
X118890138Y-103508235D01*
X118890138Y-103508238D01*
X118880799Y-103668567D01*
X118880799Y-103668573D01*
X118880373Y-103675894D01*
X118881646Y-103683118D01*
X118881647Y-103683120D01*
X118893447Y-103750039D01*
X118910810Y-103848509D01*
X118980234Y-104009452D01*
X118984615Y-104015337D01*
X118984617Y-104015340D01*
X119080524Y-104144165D01*
X119084903Y-104150047D01*
X119090516Y-104154757D01*
X119090520Y-104154761D01*
X119156315Y-104209969D01*
X119219173Y-104262713D01*
X119375808Y-104341378D01*
X119546361Y-104381800D01*
X123229998Y-104381800D01*
X123233667Y-104381800D01*
X123364093Y-104366555D01*
X123528800Y-104306607D01*
X123675243Y-104210290D01*
X123795526Y-104082797D01*
X123883165Y-103931002D01*
X123933435Y-103763088D01*
X123943627Y-103588106D01*
X123913190Y-103415491D01*
X123843766Y-103254548D01*
X123803157Y-103200001D01*
X123780827Y-103150238D01*
X123781621Y-103095700D01*
X123805388Y-103046609D01*
X123832511Y-103012307D01*
X123906587Y-102853452D01*
X123942031Y-102681794D01*
X123936933Y-102506590D01*
X123891568Y-102337285D01*
X123808381Y-102183005D01*
X123742754Y-102109261D01*
X123696740Y-102057555D01*
X123691857Y-102052068D01*
X123548277Y-101951533D01*
X123541461Y-101948825D01*
X123541457Y-101948823D01*
X123392197Y-101889526D01*
X123392196Y-101889525D01*
X123385383Y-101886819D01*
X123378130Y-101885756D01*
X123378128Y-101885756D01*
X123219216Y-101862478D01*
X123219210Y-101862477D01*
X123211955Y-101861415D01*
X123204648Y-101862054D01*
X123204640Y-101862054D01*
X123044659Y-101876052D01*
X123044658Y-101876052D01*
X123037345Y-101876692D01*
X123030381Y-101878999D01*
X123030379Y-101879000D01*
X122877923Y-101929518D01*
X122877917Y-101929520D01*
X122870963Y-101931825D01*
X122864724Y-101935672D01*
X122864720Y-101935675D01*
X122728028Y-102019987D01*
X122728023Y-102019990D01*
X122721781Y-102023841D01*
X122716591Y-102029030D01*
X122716587Y-102029034D01*
X122662327Y-102083295D01*
X122621450Y-102110609D01*
X122573232Y-102120200D01*
X120250767Y-102120200D01*
X120202549Y-102110609D01*
X120161672Y-102083295D01*
X120135909Y-102057532D01*
X120135908Y-102057531D01*
X120133311Y-102054934D01*
X120030306Y-101973489D01*
X119949214Y-101935675D01*
X119878099Y-101902513D01*
X119878098Y-101902512D01*
X119871451Y-101899413D01*
X119864266Y-101897929D01*
X119864265Y-101897929D01*
X119706976Y-101865452D01*
X119699794Y-101863969D01*
X119692465Y-101864182D01*
X119692463Y-101864182D01*
X119531926Y-101868853D01*
X119531921Y-101868853D01*
X119524590Y-101869067D01*
X119517506Y-101870965D01*
X119517500Y-101870966D01*
X119362372Y-101912532D01*
X119362363Y-101912535D01*
X119355285Y-101914432D01*
X119348829Y-101917912D01*
X119348824Y-101917915D01*
X119207466Y-101994135D01*
X119201005Y-101997619D01*
X119195526Y-102002494D01*
X119195520Y-102002499D01*
X119075552Y-102109261D01*
X119075548Y-102109264D01*
X119070067Y-102114143D01*
X119065859Y-102120152D01*
X119065856Y-102120156D01*
X119025690Y-102177520D01*
X118969532Y-102257722D01*
X118966826Y-102264533D01*
X118966823Y-102264539D01*
X118907526Y-102413801D01*
X118904819Y-102420616D01*
X118903756Y-102427866D01*
X118903756Y-102427870D01*
X118880478Y-102586782D01*
X118880477Y-102586788D01*
X118879415Y-102594044D01*
X115980057Y-102594044D01*
X116004768Y-102447549D01*
X116004209Y-102436404D01*
X115993315Y-102434000D01*
X107600590Y-102434000D01*
X107587506Y-102437506D01*
X107584000Y-102450590D01*
X107584000Y-104421410D01*
X107587506Y-104434493D01*
X107600590Y-104438000D01*
X107624805Y-104438000D01*
X107692215Y-104457548D01*
X107738708Y-104510128D01*
X107749857Y-104579424D01*
X107722204Y-104643933D01*
X107712235Y-104656079D01*
X107712226Y-104656091D01*
X107708305Y-104660870D01*
X107705387Y-104666328D01*
X107705387Y-104666329D01*
X107613230Y-104838741D01*
X107613226Y-104838748D01*
X107610313Y-104844200D01*
X107608518Y-104850115D01*
X107608515Y-104850124D01*
X107551767Y-105037196D01*
X107551765Y-105037201D01*
X107549969Y-105043125D01*
X107549362Y-105049281D01*
X107549361Y-105049290D01*
X107530426Y-105241549D01*
X107529594Y-105250000D01*
X97000500Y-105250000D01*
X97000500Y-102451571D01*
X104337922Y-102451571D01*
X104348047Y-102552213D01*
X104349447Y-102560512D01*
X104417576Y-102846396D01*
X104420062Y-102854411D01*
X104525694Y-103128677D01*
X104529224Y-103136284D01*
X104670467Y-103394020D01*
X104674983Y-103401094D01*
X104849321Y-103637708D01*
X104854737Y-103644113D01*
X105059053Y-103855374D01*
X105065276Y-103861003D01*
X105295928Y-104043148D01*
X105302855Y-104047902D01*
X105555716Y-104197671D01*
X105563217Y-104201462D01*
X105833789Y-104316194D01*
X105841719Y-104318948D01*
X106125166Y-104396592D01*
X106133406Y-104398267D01*
X106424668Y-104437438D01*
X106433061Y-104438000D01*
X107059410Y-104438000D01*
X107072493Y-104434493D01*
X107076000Y-104421410D01*
X107076000Y-102450590D01*
X107072493Y-102437506D01*
X107059410Y-102434000D01*
X104353817Y-102434000D01*
X104340397Y-102437837D01*
X104337922Y-102451571D01*
X97000500Y-102451571D01*
X97000500Y-101912450D01*
X104335231Y-101912450D01*
X104335790Y-101923595D01*
X104346685Y-101926000D01*
X107059410Y-101926000D01*
X107072493Y-101922493D01*
X107076000Y-101909410D01*
X107584000Y-101909410D01*
X107587506Y-101922493D01*
X107600590Y-101926000D01*
X112739410Y-101926000D01*
X112752493Y-101922493D01*
X112756000Y-101909410D01*
X113264000Y-101909410D01*
X113267506Y-101922493D01*
X113280590Y-101926000D01*
X115986183Y-101926000D01*
X115999602Y-101922162D01*
X116002077Y-101908428D01*
X115991952Y-101807786D01*
X115990552Y-101799487D01*
X115922423Y-101513603D01*
X115919937Y-101505588D01*
X115814305Y-101231322D01*
X115810775Y-101223715D01*
X115669532Y-100965979D01*
X115665016Y-100958905D01*
X115490678Y-100722291D01*
X115485262Y-100715886D01*
X115280946Y-100504625D01*
X115274723Y-100498996D01*
X115044071Y-100316851D01*
X115037144Y-100312097D01*
X114784283Y-100162328D01*
X114776782Y-100158537D01*
X114724576Y-100136400D01*
X125905851Y-100136400D01*
X125913242Y-100144718D01*
X126139949Y-100309429D01*
X126146630Y-100313669D01*
X126416241Y-100461889D01*
X126423376Y-100465247D01*
X126709438Y-100578507D01*
X126716964Y-100580952D01*
X127014947Y-100657462D01*
X127022719Y-100658944D01*
X127327947Y-100697503D01*
X127335838Y-100698000D01*
X127643500Y-100698000D01*
X127651390Y-100697503D01*
X127956618Y-100658944D01*
X127964390Y-100657462D01*
X128262373Y-100580952D01*
X128269899Y-100578507D01*
X128555961Y-100465247D01*
X128563096Y-100461889D01*
X128832707Y-100313669D01*
X128839388Y-100309429D01*
X129066095Y-100144717D01*
X129073486Y-100136400D01*
X129067484Y-100127025D01*
X127501398Y-98560939D01*
X127489669Y-98554167D01*
X127477939Y-98560939D01*
X125911852Y-100127025D01*
X125905851Y-100136400D01*
X114724576Y-100136400D01*
X114506210Y-100043805D01*
X114498280Y-100041051D01*
X114214833Y-99963407D01*
X114206593Y-99961732D01*
X113915331Y-99922561D01*
X113906939Y-99922000D01*
X113280590Y-99922000D01*
X113267506Y-99925506D01*
X113264000Y-99938590D01*
X113264000Y-101909410D01*
X112756000Y-101909410D01*
X112756000Y-99938590D01*
X112752493Y-99925506D01*
X112739410Y-99922000D01*
X112186609Y-99922000D01*
X112182402Y-99922140D01*
X111962562Y-99936856D01*
X111954236Y-99937976D01*
X111666244Y-99996514D01*
X111658128Y-99998737D01*
X111380519Y-100095133D01*
X111372756Y-100098426D01*
X111110476Y-100230961D01*
X111103234Y-100235250D01*
X110860942Y-100401575D01*
X110854351Y-100406780D01*
X110636388Y-100603915D01*
X110630541Y-100609960D01*
X110440802Y-100834384D01*
X110435817Y-100841150D01*
X110275415Y-101092418D01*
X110274650Y-101091930D01*
X110231485Y-101136557D01*
X110167274Y-101154143D01*
X110103065Y-101136552D01*
X110056783Y-101088696D01*
X109989532Y-100965979D01*
X109985016Y-100958905D01*
X109810678Y-100722291D01*
X109805262Y-100715886D01*
X109600946Y-100504625D01*
X109594723Y-100498996D01*
X109364071Y-100316851D01*
X109357144Y-100312097D01*
X109104283Y-100162328D01*
X109096782Y-100158537D01*
X108826210Y-100043805D01*
X108818280Y-100041051D01*
X108534833Y-99963407D01*
X108526593Y-99961732D01*
X108235331Y-99922561D01*
X108226939Y-99922000D01*
X107600590Y-99922000D01*
X107587506Y-99925506D01*
X107584000Y-99938590D01*
X107584000Y-101909410D01*
X107076000Y-101909410D01*
X107076000Y-99938590D01*
X107072493Y-99925506D01*
X107059410Y-99922000D01*
X106506609Y-99922000D01*
X106502402Y-99922140D01*
X106282562Y-99936856D01*
X106274236Y-99937976D01*
X105986244Y-99996514D01*
X105978128Y-99998737D01*
X105700519Y-100095133D01*
X105692756Y-100098426D01*
X105430476Y-100230961D01*
X105423234Y-100235250D01*
X105180942Y-100401575D01*
X105174351Y-100406780D01*
X104956388Y-100603915D01*
X104950541Y-100609960D01*
X104760802Y-100834384D01*
X104755817Y-100841150D01*
X104597680Y-101088869D01*
X104593641Y-101096240D01*
X104469934Y-101362821D01*
X104466915Y-101370658D01*
X104379840Y-101651363D01*
X104377895Y-101659522D01*
X104335231Y-101912450D01*
X97000500Y-101912450D01*
X97000500Y-98193958D01*
X124976959Y-98193958D01*
X124996275Y-98500994D01*
X124997268Y-98508855D01*
X125054914Y-98811046D01*
X125056885Y-98818723D01*
X125151953Y-99111309D01*
X125154868Y-99118672D01*
X125285858Y-99397040D01*
X125289670Y-99403974D01*
X125454516Y-99663730D01*
X125459169Y-99670135D01*
X125534495Y-99761187D01*
X125545978Y-99769079D01*
X125558155Y-99762302D01*
X127118729Y-98201729D01*
X127125501Y-98189999D01*
X127853836Y-98189999D01*
X127860608Y-98201729D01*
X129421182Y-99762303D01*
X129433357Y-99769080D01*
X129444841Y-99761187D01*
X129520168Y-99670135D01*
X129524821Y-99663730D01*
X129689667Y-99403974D01*
X129693479Y-99397040D01*
X129824469Y-99118672D01*
X129827384Y-99111309D01*
X129922452Y-98818723D01*
X129924423Y-98811046D01*
X129982069Y-98508855D01*
X129983062Y-98500994D01*
X130002379Y-98193958D01*
X130002379Y-98186042D01*
X129983062Y-97879005D01*
X129982069Y-97871144D01*
X129924423Y-97568953D01*
X129922452Y-97561276D01*
X129827384Y-97268690D01*
X129824469Y-97261327D01*
X129693479Y-96982959D01*
X129689667Y-96976025D01*
X129524821Y-96716269D01*
X129520168Y-96709864D01*
X129444841Y-96618811D01*
X129433358Y-96610919D01*
X129421181Y-96617696D01*
X127860608Y-98178270D01*
X127853836Y-98189999D01*
X127125501Y-98189999D01*
X127118729Y-98178270D01*
X125558155Y-96617696D01*
X125545979Y-96610919D01*
X125534494Y-96618812D01*
X125459164Y-96709870D01*
X125454519Y-96716263D01*
X125289670Y-96976025D01*
X125285858Y-96982959D01*
X125154868Y-97261327D01*
X125151953Y-97268690D01*
X125056885Y-97561276D01*
X125054914Y-97568953D01*
X124997268Y-97871144D01*
X124996275Y-97879005D01*
X124976959Y-98186042D01*
X124976959Y-98193958D01*
X97000500Y-98193958D01*
X97000500Y-97446396D01*
X103544270Y-97446396D01*
X103551939Y-97454584D01*
X103717570Y-97567509D01*
X103725714Y-97572211D01*
X103961361Y-97685692D01*
X103970118Y-97689129D01*
X104220052Y-97766224D01*
X104229209Y-97768314D01*
X104487847Y-97807297D01*
X104497225Y-97808000D01*
X104758775Y-97808000D01*
X104768152Y-97807297D01*
X105026790Y-97768314D01*
X105035947Y-97766224D01*
X105285881Y-97689129D01*
X105294638Y-97685692D01*
X105530285Y-97572211D01*
X105538429Y-97567509D01*
X105704062Y-97454581D01*
X105711728Y-97446397D01*
X105705714Y-97436924D01*
X104639729Y-96370939D01*
X104628000Y-96364167D01*
X104616270Y-96370939D01*
X103550284Y-97436924D01*
X103544270Y-97446396D01*
X97000500Y-97446396D01*
X97000500Y-94052399D01*
X97010091Y-94004181D01*
X97037404Y-93963304D01*
X97100961Y-93899746D01*
X97250282Y-93750424D01*
X97250383Y-93750383D01*
X97250500Y-93750099D01*
X97250541Y-93750000D01*
X97250500Y-93749901D01*
X97250500Y-91250099D01*
X97250541Y-91250000D01*
X97250500Y-91249901D01*
X97250383Y-91249617D01*
X97250282Y-91249575D01*
X97163167Y-91162460D01*
X97037404Y-91036696D01*
X97012885Y-91000000D01*
X99039520Y-91000000D01*
X99060165Y-91170029D01*
X99062865Y-91177149D01*
X99062867Y-91177156D01*
X99095122Y-91262203D01*
X99120901Y-91330177D01*
X99218198Y-91471135D01*
X99346401Y-91584714D01*
X99353143Y-91588252D01*
X99353144Y-91588253D01*
X99377315Y-91600939D01*
X99498060Y-91664310D01*
X99664361Y-91705300D01*
X99671978Y-91705300D01*
X99791745Y-91705300D01*
X99839963Y-91714891D01*
X99880840Y-91742205D01*
X101172142Y-93033507D01*
X101181558Y-93044042D01*
X101202640Y-93070478D01*
X101210439Y-93075795D01*
X101210440Y-93075796D01*
X101247870Y-93101315D01*
X101251669Y-93104010D01*
X101295718Y-93136520D01*
X101303500Y-93139243D01*
X101310313Y-93143888D01*
X101319339Y-93146672D01*
X101319341Y-93146673D01*
X101342418Y-93153791D01*
X101362595Y-93160015D01*
X101367025Y-93161472D01*
X101418723Y-93179562D01*
X101426964Y-93179870D01*
X101434841Y-93182300D01*
X101489549Y-93182300D01*
X101494260Y-93182388D01*
X101548949Y-93184434D01*
X101555460Y-93182689D01*
X101562394Y-93182300D01*
X102780144Y-93182300D01*
X102837347Y-93196033D01*
X102882080Y-93234239D01*
X102904593Y-93288590D01*
X102899977Y-93347237D01*
X102869239Y-93397396D01*
X102755664Y-93510970D01*
X102713089Y-93538972D01*
X102662904Y-93547821D01*
X102613319Y-93536069D01*
X102581126Y-93521057D01*
X102581124Y-93521056D01*
X102576144Y-93518734D01*
X102355529Y-93459620D01*
X102350053Y-93459140D01*
X102350048Y-93459140D01*
X102133475Y-93440193D01*
X102128000Y-93439714D01*
X102122525Y-93440193D01*
X101905951Y-93459140D01*
X101905944Y-93459141D01*
X101900471Y-93459620D01*
X101895157Y-93461043D01*
X101895156Y-93461044D01*
X101685166Y-93517311D01*
X101685164Y-93517311D01*
X101679856Y-93518734D01*
X101674878Y-93521054D01*
X101674873Y-93521057D01*
X101477844Y-93612933D01*
X101477839Y-93612935D01*
X101472857Y-93615259D01*
X101468358Y-93618409D01*
X101468348Y-93618415D01*
X101290275Y-93743104D01*
X101290272Y-93743106D01*
X101285764Y-93746263D01*
X101281872Y-93750154D01*
X101281866Y-93750160D01*
X101128160Y-93903866D01*
X101128154Y-93903872D01*
X101124263Y-93907764D01*
X101121106Y-93912272D01*
X101121104Y-93912275D01*
X100996415Y-94090348D01*
X100996409Y-94090358D01*
X100993259Y-94094857D01*
X100990935Y-94099839D01*
X100990933Y-94099844D01*
X100899057Y-94296873D01*
X100899054Y-94296878D01*
X100896734Y-94301856D01*
X100895311Y-94307164D01*
X100895311Y-94307166D01*
X100839044Y-94517156D01*
X100837620Y-94522471D01*
X100837141Y-94527944D01*
X100837140Y-94527951D01*
X100825760Y-94658029D01*
X100817714Y-94750000D01*
X100818193Y-94755475D01*
X100836452Y-94964187D01*
X100837620Y-94977529D01*
X100896734Y-95198144D01*
X100993259Y-95405143D01*
X100996412Y-95409646D01*
X100996415Y-95409651D01*
X101032506Y-95461194D01*
X101124263Y-95592236D01*
X101285764Y-95753737D01*
X101472857Y-95884741D01*
X101679856Y-95981266D01*
X101900471Y-96040380D01*
X102128000Y-96060286D01*
X102355529Y-96040380D01*
X102576144Y-95981266D01*
X102640239Y-95951377D01*
X102699378Y-95939710D01*
X102757169Y-95956847D01*
X102800386Y-95998869D01*
X102819138Y-96056156D01*
X102834827Y-96265518D01*
X102836230Y-96274825D01*
X102894430Y-96529812D01*
X102897204Y-96538805D01*
X102992756Y-96782269D01*
X102996839Y-96790749D01*
X103127610Y-97017250D01*
X103132914Y-97025030D01*
X103170999Y-97072787D01*
X103182419Y-97080889D01*
X103194670Y-97074118D01*
X104268789Y-96000000D01*
X104992167Y-96000000D01*
X104998939Y-96011729D01*
X106061328Y-97074118D01*
X106073580Y-97080890D01*
X106084998Y-97072788D01*
X106123086Y-97025029D01*
X106128388Y-97017252D01*
X106259160Y-96790749D01*
X106263243Y-96782269D01*
X106358795Y-96538805D01*
X106361569Y-96529812D01*
X106419769Y-96274825D01*
X106421172Y-96265518D01*
X106422815Y-96243598D01*
X125905850Y-96243598D01*
X125911852Y-96252973D01*
X127477939Y-97819060D01*
X127489668Y-97825832D01*
X127501398Y-97819060D01*
X129067484Y-96252973D01*
X129073485Y-96243598D01*
X129066094Y-96235280D01*
X128839388Y-96070570D01*
X128832707Y-96066330D01*
X128563096Y-95918110D01*
X128555961Y-95914752D01*
X128269899Y-95801492D01*
X128262373Y-95799047D01*
X127964390Y-95722537D01*
X127956618Y-95721055D01*
X127651390Y-95682496D01*
X127643500Y-95682000D01*
X127335838Y-95682000D01*
X127327947Y-95682496D01*
X127022719Y-95721055D01*
X127014947Y-95722537D01*
X126716964Y-95799047D01*
X126709438Y-95801492D01*
X126423376Y-95914752D01*
X126416241Y-95918110D01*
X126146630Y-96066330D01*
X126139949Y-96070570D01*
X125913241Y-96235281D01*
X125905850Y-96243598D01*
X106422815Y-96243598D01*
X106440718Y-96004697D01*
X106440718Y-95995303D01*
X106421172Y-95734481D01*
X106419769Y-95725174D01*
X106361569Y-95470187D01*
X106358795Y-95461194D01*
X106263243Y-95217730D01*
X106259160Y-95209250D01*
X106128384Y-94982741D01*
X106123093Y-94974980D01*
X106084997Y-94927208D01*
X106073580Y-94919108D01*
X106061328Y-94925880D01*
X104998939Y-95988270D01*
X104992167Y-96000000D01*
X104268789Y-96000000D01*
X104628000Y-95640790D01*
X105705714Y-94563074D01*
X105711728Y-94553602D01*
X105704060Y-94545415D01*
X105619848Y-94488000D01*
X117272520Y-94488000D01*
X117293165Y-94658029D01*
X117295865Y-94665149D01*
X117295867Y-94665156D01*
X117328045Y-94750000D01*
X117353901Y-94818177D01*
X117358229Y-94824447D01*
X117358230Y-94824449D01*
X117429160Y-94927208D01*
X117451198Y-94959135D01*
X117579401Y-95072714D01*
X117731060Y-95152310D01*
X117897361Y-95193300D01*
X118061022Y-95193300D01*
X118068639Y-95193300D01*
X118234940Y-95152310D01*
X118386599Y-95072714D01*
X118514802Y-94959135D01*
X118514991Y-94959349D01*
X118552977Y-94931400D01*
X118604688Y-94920300D01*
X119774312Y-94920300D01*
X119826023Y-94931400D01*
X119864008Y-94959349D01*
X119864198Y-94959135D01*
X119866554Y-94961223D01*
X119866558Y-94961226D01*
X119992401Y-95072714D01*
X120144060Y-95152310D01*
X120310361Y-95193300D01*
X120474022Y-95193300D01*
X120481639Y-95193300D01*
X120647940Y-95152310D01*
X120799599Y-95072714D01*
X120927802Y-94959135D01*
X121025099Y-94818177D01*
X121085835Y-94658029D01*
X121106480Y-94488000D01*
X121085835Y-94317971D01*
X121079723Y-94301856D01*
X121046819Y-94215094D01*
X121025099Y-94157823D01*
X120927802Y-94016865D01*
X120799599Y-93903286D01*
X120792858Y-93899748D01*
X120792855Y-93899746D01*
X120654684Y-93827229D01*
X120654680Y-93827227D01*
X120647940Y-93823690D01*
X120567153Y-93803777D01*
X120489032Y-93784522D01*
X120489030Y-93784521D01*
X120481639Y-93782700D01*
X120310361Y-93782700D01*
X120302970Y-93784521D01*
X120302967Y-93784522D01*
X120151456Y-93821867D01*
X120144060Y-93823690D01*
X120137321Y-93827226D01*
X120137315Y-93827229D01*
X119999144Y-93899746D01*
X119999137Y-93899750D01*
X119992401Y-93903286D01*
X119986701Y-93908334D01*
X119986699Y-93908337D01*
X119869900Y-94011813D01*
X119866565Y-94014767D01*
X119866554Y-94014776D01*
X119864198Y-94016865D01*
X119864008Y-94016650D01*
X119826023Y-94044600D01*
X119774312Y-94055700D01*
X118604688Y-94055700D01*
X118552977Y-94044600D01*
X118514991Y-94016650D01*
X118514802Y-94016865D01*
X118512445Y-94014776D01*
X118512439Y-94014771D01*
X118386599Y-93903286D01*
X118379858Y-93899748D01*
X118379855Y-93899746D01*
X118241684Y-93827229D01*
X118241680Y-93827227D01*
X118234940Y-93823690D01*
X118154153Y-93803777D01*
X118076032Y-93784522D01*
X118076030Y-93784521D01*
X118068639Y-93782700D01*
X117897361Y-93782700D01*
X117889970Y-93784521D01*
X117889967Y-93784522D01*
X117738456Y-93821867D01*
X117731060Y-93823690D01*
X117724321Y-93827226D01*
X117724315Y-93827229D01*
X117586144Y-93899746D01*
X117586137Y-93899750D01*
X117579401Y-93903286D01*
X117573701Y-93908334D01*
X117573699Y-93908337D01*
X117456901Y-94011812D01*
X117456900Y-94011813D01*
X117451198Y-94016865D01*
X117446873Y-94023129D01*
X117446870Y-94023134D01*
X117358230Y-94151550D01*
X117358226Y-94151555D01*
X117353901Y-94157823D01*
X117351198Y-94164949D01*
X117351197Y-94164952D01*
X117295867Y-94310843D01*
X117295864Y-94310852D01*
X117293165Y-94317971D01*
X117272520Y-94488000D01*
X105619848Y-94488000D01*
X105538431Y-94432491D01*
X105530286Y-94427789D01*
X105294638Y-94314307D01*
X105285881Y-94310870D01*
X105035947Y-94233775D01*
X105026790Y-94231685D01*
X104768152Y-94192702D01*
X104758775Y-94192000D01*
X104497225Y-94192000D01*
X104487847Y-94192702D01*
X104229209Y-94231685D01*
X104220052Y-94233775D01*
X103970118Y-94310870D01*
X103961361Y-94314307D01*
X103725713Y-94427789D01*
X103717568Y-94432491D01*
X103590932Y-94518830D01*
X103535231Y-94539794D01*
X103476122Y-94532854D01*
X103426792Y-94499558D01*
X103398247Y-94447335D01*
X103393010Y-94427789D01*
X103359266Y-94301856D01*
X103341929Y-94264678D01*
X103330178Y-94215094D01*
X103339027Y-94164909D01*
X103367030Y-94122333D01*
X103770160Y-93719204D01*
X103811037Y-93691891D01*
X103859255Y-93682300D01*
X114477847Y-93682300D01*
X114527235Y-93692383D01*
X114568718Y-93721017D01*
X114595659Y-93763619D01*
X114620901Y-93830177D01*
X114625229Y-93836447D01*
X114625230Y-93836449D01*
X114712793Y-93963304D01*
X114718198Y-93971135D01*
X114846401Y-94084714D01*
X114998060Y-94164310D01*
X115164361Y-94205300D01*
X115328022Y-94205300D01*
X115335639Y-94205300D01*
X115501940Y-94164310D01*
X115653599Y-94084714D01*
X115781802Y-93971135D01*
X115879099Y-93830177D01*
X115939835Y-93670029D01*
X115960480Y-93500000D01*
X115939835Y-93329971D01*
X115879099Y-93169823D01*
X115781802Y-93028865D01*
X115653599Y-92915286D01*
X115646858Y-92911748D01*
X115646855Y-92911746D01*
X115508684Y-92839229D01*
X115508680Y-92839227D01*
X115501940Y-92835690D01*
X115420295Y-92815566D01*
X115343032Y-92796522D01*
X115343030Y-92796521D01*
X115335639Y-92794700D01*
X115164361Y-92794700D01*
X115156972Y-92796521D01*
X115156965Y-92796522D01*
X115085898Y-92814039D01*
X115055745Y-92817700D01*
X115010451Y-92817700D01*
X115005740Y-92817612D01*
X114960489Y-92815919D01*
X114951051Y-92815566D01*
X114944539Y-92817310D01*
X114937606Y-92817700D01*
X114726855Y-92817700D01*
X114669652Y-92803967D01*
X114624919Y-92765761D01*
X114602406Y-92711411D01*
X114607022Y-92652764D01*
X114637759Y-92602605D01*
X114804158Y-92436205D01*
X114845036Y-92408891D01*
X114893254Y-92399300D01*
X115013022Y-92399300D01*
X115020639Y-92399300D01*
X115186940Y-92358310D01*
X115338599Y-92278714D01*
X115466802Y-92165135D01*
X115564099Y-92024177D01*
X115624835Y-91864029D01*
X115645480Y-91694000D01*
X115624835Y-91523971D01*
X115564099Y-91363823D01*
X115466802Y-91222865D01*
X115338599Y-91109286D01*
X115331858Y-91105748D01*
X115331855Y-91105746D01*
X115193684Y-91033229D01*
X115193680Y-91033227D01*
X115186940Y-91029690D01*
X115068201Y-91000423D01*
X115028032Y-90990522D01*
X115028030Y-90990521D01*
X115020639Y-90988700D01*
X114849361Y-90988700D01*
X114841970Y-90990521D01*
X114841967Y-90990522D01*
X114692026Y-91027480D01*
X114683060Y-91029690D01*
X114676321Y-91033226D01*
X114676315Y-91033229D01*
X114538144Y-91105746D01*
X114538137Y-91105750D01*
X114531401Y-91109286D01*
X114525701Y-91114334D01*
X114525699Y-91114337D01*
X114408901Y-91217812D01*
X114408898Y-91217814D01*
X114403198Y-91222865D01*
X114398873Y-91229129D01*
X114398870Y-91229134D01*
X114310230Y-91357550D01*
X114310226Y-91357555D01*
X114305901Y-91363823D01*
X114303198Y-91370949D01*
X114303197Y-91370952D01*
X114247867Y-91516843D01*
X114247864Y-91516852D01*
X114245165Y-91523971D01*
X114244246Y-91531538D01*
X114244246Y-91531539D01*
X114228555Y-91660770D01*
X114224520Y-91694000D01*
X114227857Y-91721482D01*
X114221882Y-91777770D01*
X114191871Y-91825762D01*
X113736840Y-92280795D01*
X113695962Y-92308109D01*
X113647744Y-92317700D01*
X101731255Y-92317700D01*
X101683037Y-92308109D01*
X101642160Y-92280795D01*
X100843984Y-91482619D01*
X101258183Y-91482619D01*
X101266286Y-91490565D01*
X101437044Y-91595206D01*
X101445839Y-91599687D01*
X101655987Y-91686733D01*
X101665373Y-91689783D01*
X101886554Y-91742884D01*
X101896300Y-91744428D01*
X102123070Y-91762275D01*
X102132930Y-91762275D01*
X102359699Y-91744428D01*
X102369445Y-91742884D01*
X102590626Y-91689783D01*
X102600012Y-91686733D01*
X102810162Y-91599686D01*
X102818957Y-91595205D01*
X102989708Y-91490568D01*
X102997814Y-91482619D01*
X102991787Y-91472997D01*
X102139729Y-90620939D01*
X102127999Y-90614167D01*
X102116271Y-90620938D01*
X101264208Y-91473000D01*
X101258183Y-91482619D01*
X100843984Y-91482619D01*
X100493129Y-91131764D01*
X100463116Y-91083770D01*
X100457143Y-91027480D01*
X100459561Y-91007567D01*
X100460480Y-91000000D01*
X100439835Y-90829971D01*
X100379099Y-90669823D01*
X100281802Y-90528865D01*
X100153599Y-90415286D01*
X100146858Y-90411748D01*
X100146855Y-90411746D01*
X100008684Y-90339229D01*
X100008680Y-90339227D01*
X100001940Y-90335690D01*
X99915471Y-90314377D01*
X99843032Y-90296522D01*
X99843030Y-90296521D01*
X99835639Y-90294700D01*
X99664361Y-90294700D01*
X99656970Y-90296521D01*
X99656967Y-90296522D01*
X99505456Y-90333867D01*
X99498060Y-90335690D01*
X99491321Y-90339226D01*
X99491315Y-90339229D01*
X99353144Y-90411746D01*
X99353137Y-90411750D01*
X99346401Y-90415286D01*
X99340701Y-90420334D01*
X99340699Y-90420337D01*
X99223901Y-90523812D01*
X99223898Y-90523814D01*
X99218198Y-90528865D01*
X99213873Y-90535129D01*
X99213870Y-90535134D01*
X99125230Y-90663550D01*
X99125226Y-90663555D01*
X99120901Y-90669823D01*
X99118198Y-90676949D01*
X99118197Y-90676952D01*
X99062867Y-90822843D01*
X99062864Y-90822852D01*
X99060165Y-90829971D01*
X99039520Y-91000000D01*
X97012885Y-91000000D01*
X97010091Y-90995819D01*
X97000500Y-90947601D01*
X97000500Y-90254930D01*
X100615725Y-90254930D01*
X100633571Y-90481699D01*
X100635115Y-90491445D01*
X100688216Y-90712626D01*
X100691266Y-90722012D01*
X100778312Y-90932160D01*
X100782793Y-90940955D01*
X100887433Y-91111712D01*
X100895379Y-91119816D01*
X100904997Y-91113791D01*
X101757059Y-90261730D01*
X101763832Y-90249999D01*
X101757060Y-90238270D01*
X100904999Y-89386209D01*
X100895378Y-89380183D01*
X100887433Y-89388285D01*
X100782793Y-89559044D01*
X100778312Y-89567839D01*
X100691266Y-89777987D01*
X100688216Y-89787373D01*
X100635115Y-90008554D01*
X100633571Y-90018300D01*
X100615725Y-90245070D01*
X100615725Y-90254930D01*
X97000500Y-90254930D01*
X97000500Y-89017378D01*
X101258183Y-89017378D01*
X101264209Y-89026999D01*
X103350997Y-91113787D01*
X103360619Y-91119814D01*
X103368568Y-91111708D01*
X103473205Y-90940957D01*
X103477686Y-90932162D01*
X103564733Y-90722012D01*
X103567784Y-90712622D01*
X103577904Y-90670469D01*
X103602576Y-90620497D01*
X103646390Y-90586055D01*
X103700776Y-90573881D01*
X103755092Y-90586359D01*
X103961361Y-90685692D01*
X103970118Y-90689129D01*
X104220052Y-90766224D01*
X104229209Y-90768314D01*
X104487847Y-90807297D01*
X104497225Y-90808000D01*
X104758775Y-90808000D01*
X104768152Y-90807297D01*
X105026790Y-90768314D01*
X105035947Y-90766224D01*
X105285881Y-90689129D01*
X105294638Y-90685692D01*
X105530285Y-90572211D01*
X105538429Y-90567509D01*
X105704062Y-90454581D01*
X105711728Y-90446397D01*
X105705714Y-90436924D01*
X104268790Y-89000000D01*
X104992167Y-89000000D01*
X104998939Y-89011729D01*
X106061328Y-90074118D01*
X106073580Y-90080890D01*
X106084998Y-90072788D01*
X106123086Y-90025029D01*
X106128388Y-90017252D01*
X106259160Y-89790749D01*
X106263243Y-89782269D01*
X106358795Y-89538805D01*
X106361569Y-89529812D01*
X106419769Y-89274825D01*
X106421172Y-89265518D01*
X106440718Y-89004697D01*
X106440718Y-88995303D01*
X106421172Y-88734481D01*
X106419769Y-88725174D01*
X106361569Y-88470187D01*
X106358795Y-88461194D01*
X106275908Y-88250000D01*
X115334520Y-88250000D01*
X115355165Y-88420029D01*
X115357865Y-88427149D01*
X115357867Y-88427156D01*
X115374187Y-88470187D01*
X115415901Y-88580177D01*
X115513198Y-88721135D01*
X115535361Y-88740770D01*
X115570254Y-88771683D01*
X115601600Y-88814283D01*
X115612700Y-88865995D01*
X115612700Y-89513646D01*
X115611908Y-89527753D01*
X115609179Y-89551964D01*
X115609179Y-89551972D01*
X115608123Y-89561347D01*
X115609877Y-89570622D01*
X115609878Y-89570624D01*
X115618298Y-89615132D01*
X115619086Y-89619772D01*
X115625832Y-89664526D01*
X115625833Y-89664530D01*
X115627240Y-89673862D01*
X115630817Y-89681289D01*
X115632350Y-89689392D01*
X115657937Y-89737806D01*
X115660039Y-89741971D01*
X115683782Y-89791274D01*
X115689390Y-89797318D01*
X115693243Y-89804608D01*
X115699921Y-89811286D01*
X115731933Y-89843298D01*
X115735202Y-89846691D01*
X115772421Y-89886803D01*
X115778255Y-89890171D01*
X115783437Y-89894802D01*
X116370795Y-90482160D01*
X116398109Y-90523037D01*
X116407700Y-90571255D01*
X116407700Y-92094005D01*
X116396600Y-92145717D01*
X116365254Y-92188317D01*
X116313901Y-92233812D01*
X116313898Y-92233814D01*
X116308198Y-92238865D01*
X116303873Y-92245129D01*
X116303870Y-92245134D01*
X116215230Y-92373550D01*
X116215226Y-92373555D01*
X116210901Y-92379823D01*
X116208198Y-92386949D01*
X116208197Y-92386952D01*
X116152867Y-92532843D01*
X116152864Y-92532852D01*
X116150165Y-92539971D01*
X116129520Y-92710000D01*
X116150165Y-92880029D01*
X116152865Y-92887149D01*
X116152867Y-92887156D01*
X116204695Y-93023812D01*
X116210901Y-93040177D01*
X116215229Y-93046447D01*
X116215230Y-93046449D01*
X116277402Y-93136520D01*
X116308198Y-93181135D01*
X116436401Y-93294714D01*
X116588060Y-93374310D01*
X116754361Y-93415300D01*
X116918022Y-93415300D01*
X116925639Y-93415300D01*
X117091940Y-93374310D01*
X117243599Y-93294714D01*
X117371802Y-93181135D01*
X117469099Y-93040177D01*
X117529835Y-92880029D01*
X117550480Y-92710000D01*
X117529835Y-92539971D01*
X117522877Y-92521625D01*
X117500071Y-92461489D01*
X117469099Y-92379823D01*
X117425576Y-92316770D01*
X125345529Y-92316770D01*
X125353083Y-92325014D01*
X125408665Y-92363933D01*
X125418151Y-92369410D01*
X125615615Y-92461489D01*
X125625907Y-92465235D01*
X125836356Y-92521625D01*
X125847149Y-92523528D01*
X126064194Y-92542517D01*
X126075144Y-92542517D01*
X126292188Y-92523528D01*
X126302981Y-92521625D01*
X126513430Y-92465235D01*
X126523722Y-92461489D01*
X126721179Y-92369413D01*
X126730675Y-92363931D01*
X126786255Y-92325013D01*
X126793807Y-92316771D01*
X126787797Y-92307338D01*
X126081398Y-91600939D01*
X126069668Y-91594167D01*
X126057940Y-91600938D01*
X125351536Y-92307341D01*
X125345529Y-92316770D01*
X117425576Y-92316770D01*
X117371802Y-92238865D01*
X117314746Y-92188317D01*
X117283400Y-92145717D01*
X117272300Y-92094005D01*
X117272300Y-91235475D01*
X124757152Y-91235475D01*
X124776140Y-91452519D01*
X124778043Y-91463312D01*
X124834433Y-91673761D01*
X124838179Y-91684053D01*
X124930256Y-91881513D01*
X124935735Y-91891002D01*
X124974654Y-91946586D01*
X124982897Y-91954138D01*
X124992325Y-91948132D01*
X125698728Y-91241730D01*
X125705501Y-91229999D01*
X126433836Y-91229999D01*
X126440608Y-91241729D01*
X127147007Y-91948128D01*
X127156440Y-91954138D01*
X127164682Y-91946586D01*
X127203600Y-91891006D01*
X127209082Y-91881510D01*
X127301158Y-91684053D01*
X127304904Y-91673761D01*
X127361294Y-91463312D01*
X127363197Y-91452519D01*
X127382186Y-91235475D01*
X127382186Y-91224525D01*
X127363197Y-91007480D01*
X127361294Y-90996687D01*
X127304904Y-90786238D01*
X127301158Y-90775946D01*
X127209079Y-90578482D01*
X127203602Y-90568996D01*
X127164683Y-90513414D01*
X127156439Y-90505860D01*
X127147010Y-90511867D01*
X126440607Y-91218271D01*
X126433836Y-91229999D01*
X125705501Y-91229999D01*
X125698729Y-91218270D01*
X124992328Y-90511869D01*
X124982896Y-90505860D01*
X124974654Y-90513413D01*
X124935736Y-90568995D01*
X124930256Y-90578485D01*
X124838179Y-90775946D01*
X124834433Y-90786238D01*
X124778043Y-90996687D01*
X124776140Y-91007480D01*
X124757152Y-91224525D01*
X124757152Y-91235475D01*
X117272300Y-91235475D01*
X117272300Y-90371361D01*
X117273092Y-90357252D01*
X117276878Y-90323653D01*
X117266690Y-90269816D01*
X117265915Y-90265253D01*
X117257760Y-90211138D01*
X117254183Y-90203710D01*
X117252650Y-90195608D01*
X117227070Y-90147208D01*
X117225060Y-90143227D01*
X125345529Y-90143227D01*
X125351538Y-90152659D01*
X126057939Y-90859060D01*
X126069668Y-90865832D01*
X126081399Y-90859059D01*
X126787801Y-90152656D01*
X126793807Y-90143228D01*
X126786255Y-90134985D01*
X126730671Y-90096066D01*
X126721182Y-90090587D01*
X126523722Y-89998510D01*
X126513430Y-89994764D01*
X126302981Y-89938374D01*
X126292188Y-89936471D01*
X126075144Y-89917483D01*
X126064194Y-89917483D01*
X125847149Y-89936471D01*
X125836356Y-89938374D01*
X125625907Y-89994764D01*
X125615615Y-89998510D01*
X125418154Y-90090587D01*
X125408664Y-90096067D01*
X125353082Y-90134985D01*
X125345529Y-90143227D01*
X117225060Y-90143227D01*
X117224964Y-90143037D01*
X117221086Y-90134985D01*
X117201218Y-90093726D01*
X117195609Y-90087681D01*
X117191757Y-90080392D01*
X117153064Y-90041699D01*
X117149796Y-90038307D01*
X117112579Y-89998197D01*
X117106742Y-89994826D01*
X117101562Y-89990197D01*
X116956365Y-89845000D01*
X127799634Y-89845000D01*
X127800171Y-89850795D01*
X127817705Y-90040027D01*
X127818534Y-90048968D01*
X127820126Y-90054566D01*
X127820127Y-90054567D01*
X127867332Y-90220477D01*
X127874592Y-90245991D01*
X127877185Y-90251198D01*
X127877186Y-90251201D01*
X127886486Y-90269878D01*
X127965898Y-90429358D01*
X127969406Y-90434004D01*
X127969409Y-90434008D01*
X128085830Y-90588175D01*
X128085834Y-90588179D01*
X128089343Y-90592826D01*
X128093645Y-90596748D01*
X128093648Y-90596751D01*
X128166924Y-90663550D01*
X128240723Y-90730827D01*
X128245674Y-90733892D01*
X128245676Y-90733894D01*
X128389334Y-90822843D01*
X128414884Y-90838663D01*
X128605894Y-90912660D01*
X128807248Y-90950300D01*
X129006263Y-90950300D01*
X129012090Y-90950300D01*
X129213444Y-90912660D01*
X129404454Y-90838663D01*
X129578615Y-90730827D01*
X129729995Y-90592826D01*
X129853440Y-90429358D01*
X129944746Y-90245991D01*
X130000804Y-90048968D01*
X130019704Y-89845000D01*
X130000804Y-89641032D01*
X129944746Y-89444009D01*
X129853440Y-89260642D01*
X129849928Y-89255991D01*
X129733507Y-89101824D01*
X129733504Y-89101820D01*
X129729995Y-89097174D01*
X129725692Y-89093251D01*
X129725689Y-89093248D01*
X129582917Y-88963095D01*
X129578615Y-88959173D01*
X129573665Y-88956108D01*
X129573661Y-88956105D01*
X129409413Y-88854407D01*
X129409408Y-88854405D01*
X129404454Y-88851337D01*
X129399023Y-88849233D01*
X129399019Y-88849231D01*
X129218873Y-88779443D01*
X129218871Y-88779442D01*
X129213444Y-88777340D01*
X129207722Y-88776270D01*
X129207721Y-88776270D01*
X129017814Y-88740770D01*
X129017813Y-88740769D01*
X129012090Y-88739700D01*
X128807248Y-88739700D01*
X128801525Y-88740769D01*
X128801523Y-88740770D01*
X128611616Y-88776270D01*
X128611612Y-88776271D01*
X128605894Y-88777340D01*
X128600469Y-88779441D01*
X128600464Y-88779443D01*
X128420318Y-88849231D01*
X128420310Y-88849234D01*
X128414884Y-88851337D01*
X128409933Y-88854402D01*
X128409924Y-88854407D01*
X128245676Y-88956105D01*
X128245666Y-88956111D01*
X128240723Y-88959173D01*
X128236424Y-88963091D01*
X128236420Y-88963095D01*
X128093648Y-89093248D01*
X128093640Y-89093256D01*
X128089343Y-89097174D01*
X128085838Y-89101814D01*
X128085830Y-89101824D01*
X127969409Y-89255991D01*
X127969403Y-89256000D01*
X127965898Y-89260642D01*
X127963304Y-89265849D01*
X127963301Y-89265856D01*
X127877186Y-89438798D01*
X127877183Y-89438804D01*
X127874592Y-89444009D01*
X127873000Y-89449602D01*
X127872998Y-89449609D01*
X127825903Y-89615132D01*
X127818534Y-89641032D01*
X127817997Y-89646824D01*
X127817997Y-89646826D01*
X127803416Y-89804180D01*
X127799634Y-89845000D01*
X116956365Y-89845000D01*
X116514205Y-89402840D01*
X116486891Y-89361963D01*
X116477300Y-89313745D01*
X116477300Y-88865995D01*
X116488400Y-88814283D01*
X116519746Y-88771683D01*
X116537932Y-88755571D01*
X116576802Y-88721135D01*
X116674099Y-88580177D01*
X116719676Y-88460000D01*
X124959634Y-88460000D01*
X124978534Y-88663968D01*
X124980126Y-88669566D01*
X124980127Y-88669567D01*
X125032718Y-88854407D01*
X125034592Y-88860991D01*
X125037185Y-88866198D01*
X125037186Y-88866201D01*
X125117254Y-89026999D01*
X125125898Y-89044358D01*
X125129406Y-89049004D01*
X125129409Y-89049008D01*
X125245830Y-89203175D01*
X125245834Y-89203179D01*
X125249343Y-89207826D01*
X125253645Y-89211748D01*
X125253648Y-89211751D01*
X125307279Y-89260642D01*
X125400723Y-89345827D01*
X125405674Y-89348892D01*
X125405676Y-89348894D01*
X125569924Y-89450592D01*
X125574884Y-89453663D01*
X125765894Y-89527660D01*
X125967248Y-89565300D01*
X126166263Y-89565300D01*
X126172090Y-89565300D01*
X126373444Y-89527660D01*
X126564454Y-89453663D01*
X126738615Y-89345827D01*
X126889995Y-89207826D01*
X127013440Y-89044358D01*
X127104746Y-88860991D01*
X127160804Y-88663968D01*
X127179704Y-88460000D01*
X127160804Y-88256032D01*
X127104746Y-88059009D01*
X127013440Y-87875642D01*
X127009928Y-87870991D01*
X126893507Y-87716824D01*
X126893504Y-87716820D01*
X126889995Y-87712174D01*
X126885692Y-87708251D01*
X126885689Y-87708248D01*
X126781826Y-87613565D01*
X126738615Y-87574173D01*
X126733665Y-87571108D01*
X126733661Y-87571105D01*
X126569413Y-87469407D01*
X126569408Y-87469405D01*
X126564454Y-87466337D01*
X126559023Y-87464233D01*
X126559019Y-87464231D01*
X126378873Y-87394443D01*
X126378871Y-87394442D01*
X126373444Y-87392340D01*
X126367722Y-87391270D01*
X126367721Y-87391270D01*
X126177814Y-87355770D01*
X126177813Y-87355769D01*
X126172090Y-87354700D01*
X125967248Y-87354700D01*
X125961525Y-87355769D01*
X125961523Y-87355770D01*
X125771616Y-87391270D01*
X125771612Y-87391271D01*
X125765894Y-87392340D01*
X125760469Y-87394441D01*
X125760464Y-87394443D01*
X125580318Y-87464231D01*
X125580310Y-87464234D01*
X125574884Y-87466337D01*
X125569933Y-87469402D01*
X125569924Y-87469407D01*
X125405676Y-87571105D01*
X125405666Y-87571111D01*
X125400723Y-87574173D01*
X125396424Y-87578091D01*
X125396420Y-87578095D01*
X125253648Y-87708248D01*
X125253640Y-87708256D01*
X125249343Y-87712174D01*
X125245838Y-87716814D01*
X125245830Y-87716824D01*
X125129409Y-87870991D01*
X125129403Y-87871000D01*
X125125898Y-87875642D01*
X125123304Y-87880849D01*
X125123301Y-87880856D01*
X125037186Y-88053798D01*
X125037183Y-88053804D01*
X125034592Y-88059009D01*
X125033000Y-88064602D01*
X125032998Y-88064609D01*
X124980250Y-88250000D01*
X124978534Y-88256032D01*
X124959634Y-88460000D01*
X116719676Y-88460000D01*
X116734835Y-88420029D01*
X116755480Y-88250000D01*
X116734835Y-88079971D01*
X116730546Y-88068663D01*
X116697961Y-87982743D01*
X116674099Y-87919823D01*
X116576802Y-87778865D01*
X116448599Y-87665286D01*
X116441858Y-87661748D01*
X116441855Y-87661746D01*
X116303684Y-87589229D01*
X116303680Y-87589227D01*
X116296940Y-87585690D01*
X116205184Y-87563074D01*
X116138032Y-87546522D01*
X116138030Y-87546521D01*
X116130639Y-87544700D01*
X115959361Y-87544700D01*
X115951970Y-87546521D01*
X115951967Y-87546522D01*
X115800456Y-87583867D01*
X115793060Y-87585690D01*
X115786321Y-87589226D01*
X115786315Y-87589229D01*
X115648144Y-87661746D01*
X115648137Y-87661750D01*
X115641401Y-87665286D01*
X115635701Y-87670334D01*
X115635699Y-87670337D01*
X115518901Y-87773812D01*
X115518898Y-87773814D01*
X115513198Y-87778865D01*
X115508873Y-87785129D01*
X115508870Y-87785134D01*
X115420230Y-87913550D01*
X115420226Y-87913555D01*
X115415901Y-87919823D01*
X115413198Y-87926949D01*
X115413197Y-87926952D01*
X115357867Y-88072843D01*
X115357864Y-88072852D01*
X115355165Y-88079971D01*
X115334520Y-88250000D01*
X106275908Y-88250000D01*
X106263243Y-88217730D01*
X106259160Y-88209250D01*
X106128384Y-87982741D01*
X106123093Y-87974980D01*
X106084997Y-87927208D01*
X106073580Y-87919108D01*
X106061328Y-87925880D01*
X104998939Y-88988270D01*
X104992167Y-89000000D01*
X104268790Y-89000000D01*
X103194671Y-87925881D01*
X103182417Y-87919109D01*
X103171000Y-87927210D01*
X103132907Y-87974979D01*
X103127614Y-87982743D01*
X102996839Y-88209250D01*
X102992756Y-88217730D01*
X102897204Y-88461194D01*
X102894430Y-88470187D01*
X102836230Y-88725174D01*
X102834125Y-88739141D01*
X102832699Y-88738926D01*
X102816992Y-88787756D01*
X102775409Y-88829514D01*
X102719385Y-88847795D01*
X102661176Y-88838601D01*
X102600012Y-88813266D01*
X102590626Y-88810216D01*
X102369445Y-88757115D01*
X102359699Y-88755571D01*
X102132930Y-88737725D01*
X102123070Y-88737725D01*
X101896300Y-88755571D01*
X101886554Y-88757115D01*
X101665373Y-88810216D01*
X101655987Y-88813266D01*
X101445839Y-88900312D01*
X101437044Y-88904793D01*
X101266285Y-89009433D01*
X101258183Y-89017378D01*
X97000500Y-89017378D01*
X97000500Y-87553602D01*
X103544270Y-87553602D01*
X103550284Y-87563074D01*
X104616270Y-88629060D01*
X104628000Y-88635832D01*
X104639729Y-88629060D01*
X105705714Y-87563074D01*
X105711728Y-87553602D01*
X105704060Y-87545415D01*
X105538431Y-87432491D01*
X105530286Y-87427789D01*
X105294638Y-87314307D01*
X105285881Y-87310870D01*
X105035947Y-87233775D01*
X105026790Y-87231685D01*
X104768152Y-87192702D01*
X104758775Y-87192000D01*
X104497225Y-87192000D01*
X104487847Y-87192702D01*
X104229209Y-87231685D01*
X104220052Y-87233775D01*
X103970118Y-87310870D01*
X103961361Y-87314307D01*
X103725713Y-87427789D01*
X103717568Y-87432491D01*
X103551937Y-87545416D01*
X103544270Y-87553602D01*
X97000500Y-87553602D01*
X97000500Y-87075000D01*
X127799634Y-87075000D01*
X127818534Y-87278968D01*
X127820126Y-87284566D01*
X127820127Y-87284567D01*
X127872718Y-87469407D01*
X127874592Y-87475991D01*
X127877185Y-87481198D01*
X127877186Y-87481201D01*
X127930978Y-87589229D01*
X127965898Y-87659358D01*
X127969406Y-87664004D01*
X127969409Y-87664008D01*
X128085830Y-87818175D01*
X128085834Y-87818179D01*
X128089343Y-87822826D01*
X128093645Y-87826748D01*
X128093648Y-87826751D01*
X128147279Y-87875642D01*
X128240723Y-87960827D01*
X128245674Y-87963892D01*
X128245676Y-87963894D01*
X128409924Y-88065592D01*
X128414884Y-88068663D01*
X128605894Y-88142660D01*
X128807248Y-88180300D01*
X129006263Y-88180300D01*
X129012090Y-88180300D01*
X129213444Y-88142660D01*
X129404454Y-88068663D01*
X129578615Y-87960827D01*
X129729995Y-87822826D01*
X129853440Y-87659358D01*
X129944746Y-87475991D01*
X130000804Y-87278968D01*
X130019704Y-87075000D01*
X130000804Y-86871032D01*
X129944746Y-86674009D01*
X129853440Y-86490642D01*
X129849928Y-86485991D01*
X129733507Y-86331824D01*
X129733504Y-86331820D01*
X129729995Y-86327174D01*
X129725692Y-86323251D01*
X129725689Y-86323248D01*
X129582917Y-86193095D01*
X129578615Y-86189173D01*
X129573665Y-86186108D01*
X129573661Y-86186105D01*
X129409413Y-86084407D01*
X129409408Y-86084405D01*
X129404454Y-86081337D01*
X129399023Y-86079233D01*
X129399019Y-86079231D01*
X129218873Y-86009443D01*
X129218871Y-86009442D01*
X129213444Y-86007340D01*
X129207722Y-86006270D01*
X129207721Y-86006270D01*
X129017814Y-85970770D01*
X129017813Y-85970769D01*
X129012090Y-85969700D01*
X128807248Y-85969700D01*
X128801525Y-85970769D01*
X128801523Y-85970770D01*
X128611616Y-86006270D01*
X128611612Y-86006271D01*
X128605894Y-86007340D01*
X128600469Y-86009441D01*
X128600464Y-86009443D01*
X128420318Y-86079231D01*
X128420310Y-86079234D01*
X128414884Y-86081337D01*
X128409933Y-86084402D01*
X128409924Y-86084407D01*
X128245676Y-86186105D01*
X128245666Y-86186111D01*
X128240723Y-86189173D01*
X128236424Y-86193091D01*
X128236420Y-86193095D01*
X128093648Y-86323248D01*
X128093640Y-86323256D01*
X128089343Y-86327174D01*
X128085838Y-86331814D01*
X128085830Y-86331824D01*
X127969409Y-86485991D01*
X127969403Y-86486000D01*
X127965898Y-86490642D01*
X127963304Y-86495849D01*
X127963301Y-86495856D01*
X127877186Y-86668798D01*
X127877183Y-86668804D01*
X127874592Y-86674009D01*
X127873000Y-86679602D01*
X127872998Y-86679609D01*
X127822344Y-86857640D01*
X127818534Y-86871032D01*
X127799634Y-87075000D01*
X97000500Y-87075000D01*
X97000500Y-85217588D01*
X99808206Y-85217588D01*
X99846126Y-85432642D01*
X99848246Y-85441142D01*
X99932307Y-85699857D01*
X99935599Y-85708004D01*
X100054847Y-85952499D01*
X100059233Y-85960095D01*
X100211351Y-86185620D01*
X100216756Y-86192538D01*
X100398775Y-86394691D01*
X100405091Y-86400789D01*
X100613471Y-86575642D01*
X100620575Y-86580804D01*
X100851274Y-86724960D01*
X100859008Y-86729073D01*
X101107532Y-86839722D01*
X101115773Y-86842722D01*
X101377266Y-86917703D01*
X101385846Y-86919527D01*
X101655234Y-86957388D01*
X101663984Y-86958000D01*
X102229410Y-86958000D01*
X102242493Y-86954493D01*
X102246000Y-86941410D01*
X102754000Y-86941410D01*
X102757506Y-86954493D01*
X102770590Y-86958000D01*
X103267923Y-86958000D01*
X103272308Y-86957846D01*
X103475757Y-86943620D01*
X103484437Y-86942400D01*
X103750529Y-86885841D01*
X103758966Y-86883421D01*
X104014586Y-86790382D01*
X104022602Y-86786813D01*
X104262790Y-86659104D01*
X104270238Y-86654450D01*
X104490305Y-86494561D01*
X104497035Y-86488914D01*
X104594055Y-86395223D01*
X113352000Y-86395223D01*
X113352359Y-86401938D01*
X113357662Y-86451257D01*
X113361259Y-86466478D01*
X113406405Y-86587519D01*
X113414954Y-86603175D01*
X113491697Y-86705692D01*
X113504307Y-86718302D01*
X113606824Y-86795045D01*
X113622480Y-86803594D01*
X113743521Y-86848740D01*
X113758742Y-86852337D01*
X113808061Y-86857640D01*
X113814777Y-86858000D01*
X114439410Y-86858000D01*
X114452493Y-86854493D01*
X114456000Y-86841410D01*
X114964000Y-86841410D01*
X114967506Y-86854493D01*
X114980590Y-86858000D01*
X115605223Y-86858000D01*
X115611938Y-86857640D01*
X115661257Y-86852337D01*
X115676478Y-86848740D01*
X115797519Y-86803594D01*
X115813175Y-86795045D01*
X115915692Y-86718302D01*
X115928302Y-86705692D01*
X116005045Y-86603175D01*
X116013594Y-86587519D01*
X116058740Y-86466478D01*
X116062337Y-86451257D01*
X116067640Y-86401938D01*
X116068000Y-86395223D01*
X116068000Y-86227793D01*
X116083362Y-86167501D01*
X116125701Y-86121910D01*
X116184695Y-86102137D01*
X116245957Y-86113004D01*
X116294550Y-86151861D01*
X116389053Y-86277004D01*
X116389057Y-86277008D01*
X116392566Y-86281655D01*
X116396868Y-86285577D01*
X116396871Y-86285580D01*
X116405478Y-86293426D01*
X116550794Y-86425899D01*
X116555748Y-86428966D01*
X116555749Y-86428967D01*
X116727882Y-86535547D01*
X116727886Y-86535549D01*
X116732833Y-86538612D01*
X116932483Y-86615957D01*
X117142946Y-86655300D01*
X117351227Y-86655300D01*
X117357054Y-86655300D01*
X117567517Y-86615957D01*
X117767167Y-86538612D01*
X117949206Y-86425899D01*
X118107434Y-86281655D01*
X118236464Y-86110792D01*
X118331900Y-85919130D01*
X118390494Y-85713195D01*
X118394537Y-85669562D01*
X118414966Y-85611591D01*
X118460390Y-85570182D01*
X118520000Y-85555189D01*
X118579610Y-85570182D01*
X118625034Y-85611591D01*
X118645462Y-85669562D01*
X118649506Y-85713195D01*
X118651098Y-85718793D01*
X118651099Y-85718794D01*
X118702533Y-85899567D01*
X118708100Y-85919130D01*
X118710691Y-85924334D01*
X118710694Y-85924341D01*
X118799226Y-86102137D01*
X118803536Y-86110792D01*
X118807044Y-86115438D01*
X118807047Y-86115442D01*
X118929053Y-86277004D01*
X118929057Y-86277008D01*
X118932566Y-86281655D01*
X118936868Y-86285577D01*
X118936871Y-86285580D01*
X118945478Y-86293426D01*
X119090794Y-86425899D01*
X119095748Y-86428966D01*
X119095749Y-86428967D01*
X119267882Y-86535547D01*
X119267886Y-86535549D01*
X119272833Y-86538612D01*
X119472483Y-86615957D01*
X119682946Y-86655300D01*
X119891227Y-86655300D01*
X119897054Y-86655300D01*
X120107517Y-86615957D01*
X120307167Y-86538612D01*
X120489206Y-86425899D01*
X120647434Y-86281655D01*
X120776464Y-86110792D01*
X120871900Y-85919130D01*
X120930494Y-85713195D01*
X120932643Y-85690000D01*
X124959634Y-85690000D01*
X124978534Y-85893968D01*
X124980126Y-85899566D01*
X124980127Y-85899567D01*
X125032718Y-86084407D01*
X125034592Y-86090991D01*
X125037185Y-86096198D01*
X125037186Y-86096201D01*
X125081953Y-86186105D01*
X125125898Y-86274358D01*
X125129406Y-86279004D01*
X125129409Y-86279008D01*
X125245830Y-86433175D01*
X125245834Y-86433179D01*
X125249343Y-86437826D01*
X125253645Y-86441748D01*
X125253648Y-86441751D01*
X125305384Y-86488914D01*
X125400723Y-86575827D01*
X125405674Y-86578892D01*
X125405676Y-86578894D01*
X125569924Y-86680592D01*
X125574884Y-86683663D01*
X125765894Y-86757660D01*
X125967248Y-86795300D01*
X126166263Y-86795300D01*
X126172090Y-86795300D01*
X126373444Y-86757660D01*
X126564454Y-86683663D01*
X126738615Y-86575827D01*
X126889995Y-86437826D01*
X127013440Y-86274358D01*
X127104746Y-86090991D01*
X127160804Y-85893968D01*
X127179704Y-85690000D01*
X127160804Y-85486032D01*
X127104746Y-85289009D01*
X127013440Y-85105642D01*
X126990797Y-85075658D01*
X126893507Y-84946824D01*
X126893504Y-84946820D01*
X126889995Y-84942174D01*
X126885692Y-84938251D01*
X126885689Y-84938248D01*
X126742917Y-84808095D01*
X126738615Y-84804173D01*
X126733665Y-84801108D01*
X126733661Y-84801105D01*
X126569413Y-84699407D01*
X126569408Y-84699405D01*
X126564454Y-84696337D01*
X126559023Y-84694233D01*
X126559019Y-84694231D01*
X126378873Y-84624443D01*
X126378871Y-84624442D01*
X126373444Y-84622340D01*
X126367722Y-84621270D01*
X126367721Y-84621270D01*
X126177814Y-84585770D01*
X126177813Y-84585769D01*
X126172090Y-84584700D01*
X125967248Y-84584700D01*
X125961525Y-84585769D01*
X125961523Y-84585770D01*
X125771616Y-84621270D01*
X125771612Y-84621271D01*
X125765894Y-84622340D01*
X125760469Y-84624441D01*
X125760464Y-84624443D01*
X125580318Y-84694231D01*
X125580310Y-84694234D01*
X125574884Y-84696337D01*
X125569933Y-84699402D01*
X125569924Y-84699407D01*
X125405676Y-84801105D01*
X125405666Y-84801111D01*
X125400723Y-84804173D01*
X125396424Y-84808091D01*
X125396420Y-84808095D01*
X125253648Y-84938248D01*
X125253640Y-84938256D01*
X125249343Y-84942174D01*
X125245838Y-84946814D01*
X125245830Y-84946824D01*
X125129409Y-85100991D01*
X125129403Y-85101000D01*
X125125898Y-85105642D01*
X125123304Y-85110849D01*
X125123301Y-85110856D01*
X125037186Y-85283798D01*
X125037183Y-85283804D01*
X125034592Y-85289009D01*
X125033000Y-85294602D01*
X125032998Y-85294609D01*
X124980127Y-85480432D01*
X124978534Y-85486032D01*
X124977997Y-85491824D01*
X124977997Y-85491826D01*
X124963379Y-85649575D01*
X124959634Y-85690000D01*
X120932643Y-85690000D01*
X120950249Y-85500000D01*
X120930494Y-85286805D01*
X120871900Y-85080870D01*
X120776464Y-84889208D01*
X120745450Y-84848139D01*
X120650946Y-84722995D01*
X120650943Y-84722991D01*
X120647434Y-84718345D01*
X120643131Y-84714422D01*
X120643128Y-84714419D01*
X120544428Y-84624443D01*
X120489206Y-84574101D01*
X120484252Y-84571034D01*
X120484250Y-84571032D01*
X120312117Y-84464452D01*
X120312109Y-84464448D01*
X120307167Y-84461388D01*
X120301740Y-84459285D01*
X120301735Y-84459283D01*
X120112952Y-84386148D01*
X120112946Y-84386146D01*
X120107517Y-84384043D01*
X120101797Y-84382973D01*
X120101791Y-84382972D01*
X119902778Y-84345770D01*
X119902777Y-84345769D01*
X119897054Y-84344700D01*
X119682946Y-84344700D01*
X119677223Y-84345769D01*
X119677221Y-84345770D01*
X119478208Y-84382972D01*
X119478199Y-84382974D01*
X119472483Y-84384043D01*
X119467055Y-84386145D01*
X119467047Y-84386148D01*
X119278264Y-84459283D01*
X119278254Y-84459287D01*
X119272833Y-84461388D01*
X119267894Y-84464445D01*
X119267882Y-84464452D01*
X119095749Y-84571032D01*
X119095741Y-84571037D01*
X119090794Y-84574101D01*
X119086487Y-84578026D01*
X119086486Y-84578028D01*
X118936871Y-84714419D01*
X118936863Y-84714427D01*
X118932566Y-84718345D01*
X118929061Y-84722985D01*
X118929053Y-84722995D01*
X118807047Y-84884557D01*
X118807041Y-84884566D01*
X118803536Y-84889208D01*
X118800942Y-84894415D01*
X118800939Y-84894422D01*
X118710694Y-85075658D01*
X118710689Y-85075669D01*
X118708100Y-85080870D01*
X118706508Y-85086463D01*
X118706506Y-85086470D01*
X118668055Y-85221611D01*
X118649506Y-85286805D01*
X118648969Y-85292597D01*
X118648969Y-85292599D01*
X118645463Y-85330436D01*
X118625034Y-85388408D01*
X118579610Y-85429818D01*
X118520000Y-85444810D01*
X118460390Y-85429818D01*
X118414966Y-85388408D01*
X118394537Y-85330436D01*
X118394246Y-85327300D01*
X118390494Y-85286805D01*
X118331900Y-85080870D01*
X118236464Y-84889208D01*
X118205450Y-84848139D01*
X118110946Y-84722995D01*
X118110943Y-84722991D01*
X118107434Y-84718345D01*
X118103131Y-84714422D01*
X118103128Y-84714419D01*
X118004428Y-84624443D01*
X117949206Y-84574101D01*
X117944252Y-84571034D01*
X117944250Y-84571032D01*
X117772117Y-84464452D01*
X117772109Y-84464448D01*
X117767167Y-84461388D01*
X117761740Y-84459285D01*
X117761735Y-84459283D01*
X117572952Y-84386148D01*
X117572946Y-84386146D01*
X117567517Y-84384043D01*
X117561797Y-84382973D01*
X117561791Y-84382972D01*
X117362778Y-84345770D01*
X117362777Y-84345769D01*
X117357054Y-84344700D01*
X117142946Y-84344700D01*
X117137223Y-84345769D01*
X117137221Y-84345770D01*
X116938208Y-84382972D01*
X116938199Y-84382974D01*
X116932483Y-84384043D01*
X116927055Y-84386145D01*
X116927047Y-84386148D01*
X116738264Y-84459283D01*
X116738254Y-84459287D01*
X116732833Y-84461388D01*
X116727894Y-84464445D01*
X116727882Y-84464452D01*
X116555749Y-84571032D01*
X116555741Y-84571037D01*
X116550794Y-84574101D01*
X116546487Y-84578026D01*
X116546486Y-84578028D01*
X116396871Y-84714419D01*
X116396863Y-84714427D01*
X116392566Y-84718345D01*
X116389061Y-84722985D01*
X116389053Y-84722995D01*
X116294550Y-84848139D01*
X116245957Y-84886996D01*
X116184695Y-84897863D01*
X116125701Y-84878090D01*
X116083362Y-84832499D01*
X116068000Y-84772207D01*
X116068000Y-84604777D01*
X116067640Y-84598061D01*
X116062337Y-84548742D01*
X116058740Y-84533521D01*
X116013594Y-84412480D01*
X116005045Y-84396824D01*
X115936307Y-84305000D01*
X127799634Y-84305000D01*
X127818534Y-84508968D01*
X127820126Y-84514566D01*
X127820127Y-84514567D01*
X127872718Y-84699407D01*
X127874592Y-84705991D01*
X127877185Y-84711198D01*
X127877186Y-84711201D01*
X127945373Y-84848139D01*
X127965898Y-84889358D01*
X127969406Y-84894004D01*
X127969409Y-84894008D01*
X128085830Y-85048175D01*
X128085834Y-85048179D01*
X128089343Y-85052826D01*
X128093645Y-85056748D01*
X128093648Y-85056751D01*
X128147279Y-85105642D01*
X128240723Y-85190827D01*
X128245674Y-85193892D01*
X128245676Y-85193894D01*
X128409231Y-85295163D01*
X128414884Y-85298663D01*
X128605894Y-85372660D01*
X128807248Y-85410300D01*
X129006263Y-85410300D01*
X129012090Y-85410300D01*
X129213444Y-85372660D01*
X129404454Y-85298663D01*
X129578615Y-85190827D01*
X129729995Y-85052826D01*
X129853440Y-84889358D01*
X129944746Y-84705991D01*
X130000804Y-84508968D01*
X130019704Y-84305000D01*
X130000804Y-84101032D01*
X129944746Y-83904009D01*
X129853440Y-83720642D01*
X129849928Y-83715991D01*
X129733507Y-83561824D01*
X129733504Y-83561820D01*
X129729995Y-83557174D01*
X129725692Y-83553251D01*
X129725689Y-83553248D01*
X129582917Y-83423095D01*
X129578615Y-83419173D01*
X129573665Y-83416108D01*
X129573661Y-83416105D01*
X129409413Y-83314407D01*
X129409408Y-83314405D01*
X129404454Y-83311337D01*
X129399023Y-83309233D01*
X129399019Y-83309231D01*
X129218873Y-83239443D01*
X129218871Y-83239442D01*
X129213444Y-83237340D01*
X129207722Y-83236270D01*
X129207721Y-83236270D01*
X129017814Y-83200770D01*
X129017813Y-83200769D01*
X129012090Y-83199700D01*
X128807248Y-83199700D01*
X128801525Y-83200769D01*
X128801523Y-83200770D01*
X128611616Y-83236270D01*
X128611612Y-83236271D01*
X128605894Y-83237340D01*
X128600469Y-83239441D01*
X128600464Y-83239443D01*
X128420318Y-83309231D01*
X128420310Y-83309234D01*
X128414884Y-83311337D01*
X128409933Y-83314402D01*
X128409924Y-83314407D01*
X128245676Y-83416105D01*
X128245666Y-83416111D01*
X128240723Y-83419173D01*
X128236424Y-83423091D01*
X128236420Y-83423095D01*
X128093648Y-83553248D01*
X128093640Y-83553256D01*
X128089343Y-83557174D01*
X128085838Y-83561814D01*
X128085830Y-83561824D01*
X127969409Y-83715991D01*
X127969403Y-83716000D01*
X127965898Y-83720642D01*
X127963304Y-83725849D01*
X127963301Y-83725856D01*
X127877186Y-83898798D01*
X127877183Y-83898804D01*
X127874592Y-83904009D01*
X127873000Y-83909602D01*
X127872998Y-83909609D01*
X127826885Y-84071680D01*
X127818534Y-84101032D01*
X127817997Y-84106824D01*
X127817997Y-84106826D01*
X127814413Y-84145506D01*
X127799634Y-84305000D01*
X115936307Y-84305000D01*
X115928302Y-84294307D01*
X115915692Y-84281697D01*
X115813175Y-84204954D01*
X115797519Y-84196405D01*
X115676478Y-84151259D01*
X115661257Y-84147662D01*
X115611938Y-84142359D01*
X115605223Y-84142000D01*
X114980590Y-84142000D01*
X114967506Y-84145506D01*
X114964000Y-84158590D01*
X114964000Y-86841410D01*
X114456000Y-86841410D01*
X114456000Y-85770590D01*
X114452493Y-85757506D01*
X114439410Y-85754000D01*
X113368590Y-85754000D01*
X113355506Y-85757506D01*
X113352000Y-85770590D01*
X113352000Y-86395223D01*
X104594055Y-86395223D01*
X104692715Y-86299948D01*
X104698587Y-86293426D01*
X104866063Y-86079067D01*
X104870970Y-86071793D01*
X105006983Y-85836211D01*
X105010833Y-85828319D01*
X105112735Y-85576103D01*
X105115450Y-85567746D01*
X105181257Y-85303808D01*
X105182781Y-85295163D01*
X105189692Y-85229410D01*
X113352000Y-85229410D01*
X113355506Y-85242493D01*
X113368590Y-85246000D01*
X114439410Y-85246000D01*
X114452493Y-85242493D01*
X114456000Y-85229410D01*
X114456000Y-84158590D01*
X114452493Y-84145506D01*
X114439410Y-84142000D01*
X113814777Y-84142000D01*
X113808061Y-84142359D01*
X113758742Y-84147662D01*
X113743521Y-84151259D01*
X113622480Y-84196405D01*
X113606824Y-84204954D01*
X113504307Y-84281697D01*
X113491697Y-84294307D01*
X113414954Y-84396824D01*
X113406405Y-84412480D01*
X113361259Y-84533521D01*
X113357662Y-84548742D01*
X113352359Y-84598061D01*
X113352000Y-84604777D01*
X113352000Y-85229410D01*
X105189692Y-85229410D01*
X105190512Y-85221611D01*
X105188086Y-85207851D01*
X105174656Y-85204000D01*
X102770590Y-85204000D01*
X102757506Y-85207506D01*
X102754000Y-85220590D01*
X102754000Y-86941410D01*
X102246000Y-86941410D01*
X102246000Y-85220590D01*
X102242493Y-85207506D01*
X102229410Y-85204000D01*
X99819608Y-85204000D01*
X99808694Y-85206419D01*
X99808206Y-85217588D01*
X97000500Y-85217588D01*
X97000500Y-84678388D01*
X99809487Y-84678388D01*
X99811913Y-84692148D01*
X99825344Y-84696000D01*
X102229410Y-84696000D01*
X102242493Y-84692493D01*
X102246000Y-84679410D01*
X102754000Y-84679410D01*
X102757506Y-84692493D01*
X102770590Y-84696000D01*
X105180392Y-84696000D01*
X105191305Y-84693580D01*
X105191793Y-84682411D01*
X105153873Y-84467357D01*
X105151753Y-84458857D01*
X105067692Y-84200142D01*
X105064400Y-84191995D01*
X104945152Y-83947500D01*
X104940766Y-83939904D01*
X104788648Y-83714379D01*
X104783243Y-83707461D01*
X104601224Y-83505308D01*
X104594908Y-83499210D01*
X104386528Y-83324357D01*
X104379424Y-83319195D01*
X104148725Y-83175039D01*
X104140991Y-83170926D01*
X103892467Y-83060277D01*
X103884226Y-83057277D01*
X103622733Y-82982296D01*
X103614153Y-82980472D01*
X103344765Y-82942611D01*
X103336016Y-82942000D01*
X102770590Y-82942000D01*
X102757506Y-82945506D01*
X102754000Y-82958590D01*
X102754000Y-84679410D01*
X102246000Y-84679410D01*
X102246000Y-82958590D01*
X102242493Y-82945506D01*
X102229410Y-82942000D01*
X101732077Y-82942000D01*
X101727691Y-82942153D01*
X101524242Y-82956379D01*
X101515562Y-82957599D01*
X101249470Y-83014158D01*
X101241033Y-83016578D01*
X100985413Y-83109617D01*
X100977397Y-83113186D01*
X100737209Y-83240895D01*
X100729761Y-83245549D01*
X100509694Y-83405438D01*
X100502964Y-83411085D01*
X100307284Y-83600051D01*
X100301412Y-83606573D01*
X100133936Y-83820932D01*
X100129029Y-83828206D01*
X99993016Y-84063788D01*
X99989166Y-84071680D01*
X99887264Y-84323896D01*
X99884549Y-84332253D01*
X99818742Y-84596191D01*
X99817218Y-84604836D01*
X99809487Y-84678388D01*
X97000500Y-84678388D01*
X97000500Y-82760163D01*
X104704581Y-82760163D01*
X104712817Y-82771531D01*
X104723147Y-82779572D01*
X104731836Y-82785249D01*
X104927888Y-82891346D01*
X104937405Y-82895521D01*
X105148241Y-82967901D01*
X105158311Y-82970451D01*
X105378192Y-83007142D01*
X105388541Y-83008000D01*
X105611459Y-83008000D01*
X105621807Y-83007142D01*
X105841688Y-82970451D01*
X105851758Y-82967901D01*
X105991289Y-82920000D01*
X124959634Y-82920000D01*
X124978534Y-83123968D01*
X124980126Y-83129566D01*
X124980127Y-83129567D01*
X125032718Y-83314407D01*
X125034592Y-83320991D01*
X125037185Y-83326198D01*
X125037186Y-83326201D01*
X125081953Y-83416105D01*
X125125898Y-83504358D01*
X125129406Y-83509004D01*
X125129409Y-83509008D01*
X125245830Y-83663175D01*
X125245834Y-83663179D01*
X125249343Y-83667826D01*
X125253645Y-83671748D01*
X125253648Y-83671751D01*
X125307279Y-83720642D01*
X125400723Y-83805827D01*
X125405674Y-83808892D01*
X125405676Y-83808894D01*
X125569924Y-83910592D01*
X125574884Y-83913663D01*
X125765894Y-83987660D01*
X125967248Y-84025300D01*
X126166263Y-84025300D01*
X126172090Y-84025300D01*
X126373444Y-83987660D01*
X126564454Y-83913663D01*
X126738615Y-83805827D01*
X126889995Y-83667826D01*
X127013440Y-83504358D01*
X127104746Y-83320991D01*
X127160804Y-83123968D01*
X127179704Y-82920000D01*
X127160804Y-82716032D01*
X127104746Y-82519009D01*
X127013440Y-82335642D01*
X127009928Y-82330991D01*
X126893507Y-82176824D01*
X126893504Y-82176820D01*
X126889995Y-82172174D01*
X126885692Y-82168251D01*
X126885689Y-82168248D01*
X126742917Y-82038095D01*
X126738615Y-82034173D01*
X126733665Y-82031108D01*
X126733661Y-82031105D01*
X126569413Y-81929407D01*
X126569408Y-81929405D01*
X126564454Y-81926337D01*
X126559023Y-81924233D01*
X126559019Y-81924231D01*
X126378873Y-81854443D01*
X126378871Y-81854442D01*
X126373444Y-81852340D01*
X126367722Y-81851270D01*
X126367721Y-81851270D01*
X126177814Y-81815770D01*
X126177813Y-81815769D01*
X126172090Y-81814700D01*
X125967248Y-81814700D01*
X125961525Y-81815769D01*
X125961523Y-81815770D01*
X125771616Y-81851270D01*
X125771612Y-81851271D01*
X125765894Y-81852340D01*
X125760469Y-81854441D01*
X125760464Y-81854443D01*
X125580318Y-81924231D01*
X125580310Y-81924234D01*
X125574884Y-81926337D01*
X125569933Y-81929402D01*
X125569924Y-81929407D01*
X125405676Y-82031105D01*
X125405666Y-82031111D01*
X125400723Y-82034173D01*
X125396424Y-82038091D01*
X125396420Y-82038095D01*
X125253648Y-82168248D01*
X125253640Y-82168256D01*
X125249343Y-82172174D01*
X125245838Y-82176814D01*
X125245830Y-82176824D01*
X125129409Y-82330991D01*
X125129403Y-82331000D01*
X125125898Y-82335642D01*
X125123304Y-82340849D01*
X125123301Y-82340856D01*
X125037186Y-82513798D01*
X125037183Y-82513804D01*
X125034592Y-82519009D01*
X125033000Y-82524602D01*
X125032998Y-82524609D01*
X124988646Y-82680492D01*
X124978534Y-82716032D01*
X124977997Y-82721824D01*
X124977997Y-82721826D01*
X124970262Y-82805300D01*
X124959634Y-82920000D01*
X105991289Y-82920000D01*
X106062594Y-82895521D01*
X106072111Y-82891346D01*
X106268159Y-82785251D01*
X106276855Y-82779569D01*
X106287181Y-82771532D01*
X106295417Y-82760162D01*
X106288651Y-82747862D01*
X105511730Y-81970940D01*
X105499999Y-81964167D01*
X105488270Y-81970939D01*
X104711350Y-82747859D01*
X104704581Y-82760163D01*
X97000500Y-82760163D01*
X97000500Y-81605189D01*
X104087604Y-81605189D01*
X104106012Y-81827348D01*
X104107724Y-81837602D01*
X104162445Y-82053691D01*
X104165818Y-82063516D01*
X104255362Y-82267655D01*
X104260309Y-82276797D01*
X104333108Y-82388225D01*
X104341202Y-82396072D01*
X104350735Y-82390052D01*
X105129058Y-81611730D01*
X105135831Y-81599999D01*
X105129059Y-81588270D01*
X104350736Y-80809947D01*
X104341202Y-80803927D01*
X104333108Y-80811773D01*
X104260304Y-80923210D01*
X104255363Y-80932340D01*
X104165818Y-81136483D01*
X104162445Y-81146308D01*
X104107724Y-81362397D01*
X104106012Y-81372651D01*
X104087604Y-81594811D01*
X104087604Y-81605189D01*
X97000500Y-81605189D01*
X97000500Y-80286350D01*
X99978379Y-80286350D01*
X99986579Y-80297733D01*
X100155877Y-80430370D01*
X100162122Y-80434680D01*
X100435968Y-80600226D01*
X100442704Y-80603762D01*
X100734498Y-80735087D01*
X100741609Y-80737784D01*
X101047111Y-80832983D01*
X101054500Y-80834804D01*
X101369247Y-80892484D01*
X101376787Y-80893399D01*
X101696198Y-80912720D01*
X101703802Y-80912720D01*
X102023212Y-80893399D01*
X102030752Y-80892484D01*
X102345499Y-80834804D01*
X102352888Y-80832983D01*
X102658390Y-80737784D01*
X102665501Y-80735087D01*
X102957295Y-80603762D01*
X102964031Y-80600226D01*
X103237877Y-80434680D01*
X103244121Y-80430370D01*
X103413420Y-80297733D01*
X103421619Y-80286351D01*
X103414850Y-80274061D01*
X101711729Y-78570939D01*
X101700000Y-78564167D01*
X101688270Y-78570939D01*
X99985148Y-80274061D01*
X99978379Y-80286350D01*
X97000500Y-80286350D01*
X97000500Y-78203802D01*
X98987280Y-78203802D01*
X99006600Y-78523212D01*
X99007515Y-78530752D01*
X99065195Y-78845499D01*
X99067016Y-78852888D01*
X99162215Y-79158390D01*
X99164912Y-79165501D01*
X99296237Y-79457295D01*
X99299773Y-79464031D01*
X99465319Y-79737877D01*
X99469629Y-79744122D01*
X99602265Y-79913419D01*
X99613648Y-79921619D01*
X99625937Y-79914850D01*
X101329059Y-78211729D01*
X101335831Y-78200000D01*
X102064167Y-78200000D01*
X102070939Y-78211729D01*
X103774061Y-79914850D01*
X103786351Y-79921619D01*
X103797733Y-79913420D01*
X103930370Y-79744121D01*
X103934677Y-79737882D01*
X104063502Y-79524779D01*
X104108072Y-79480994D01*
X104168196Y-79464002D01*
X104229091Y-79477982D01*
X104275784Y-79519496D01*
X104296793Y-79578337D01*
X104309607Y-79716616D01*
X104309608Y-79716626D01*
X104310146Y-79722422D01*
X104311738Y-79728020D01*
X104311739Y-79728021D01*
X104368385Y-79927112D01*
X104371276Y-79937270D01*
X104470843Y-80137227D01*
X104474351Y-80141873D01*
X104474354Y-80141877D01*
X104601943Y-80310833D01*
X104601947Y-80310837D01*
X104605456Y-80315484D01*
X104609758Y-80319406D01*
X104609761Y-80319409D01*
X104661095Y-80366206D01*
X104692995Y-80412023D01*
X104694556Y-80421610D01*
X104711350Y-80452139D01*
X105488270Y-81229059D01*
X105499999Y-81235831D01*
X105511730Y-81229058D01*
X106288650Y-80452137D01*
X106305440Y-80421615D01*
X106307001Y-80412029D01*
X106338903Y-80366207D01*
X106394544Y-80315484D01*
X106529157Y-80137227D01*
X106628724Y-79937270D01*
X106630318Y-79931667D01*
X106632422Y-79926237D01*
X106634680Y-79927112D01*
X106661697Y-79881568D01*
X106717748Y-79849647D01*
X106782252Y-79849647D01*
X106838303Y-79881568D01*
X106865319Y-79927112D01*
X106867578Y-79926237D01*
X106869682Y-79931669D01*
X106871276Y-79937270D01*
X106970843Y-80137227D01*
X106974351Y-80141873D01*
X106974354Y-80141877D01*
X107101943Y-80310833D01*
X107101947Y-80310837D01*
X107105456Y-80315484D01*
X107109758Y-80319406D01*
X107109761Y-80319409D01*
X107260565Y-80456885D01*
X107296869Y-80515519D01*
X107296869Y-80584481D01*
X107260565Y-80643115D01*
X107109761Y-80780590D01*
X107109753Y-80780598D01*
X107105456Y-80784516D01*
X107101951Y-80789156D01*
X107101943Y-80789166D01*
X106974349Y-80958129D01*
X106974344Y-80958136D01*
X106971535Y-80961855D01*
X106971532Y-80961859D01*
X106970843Y-80962773D01*
X106970677Y-80962647D01*
X106922977Y-81006603D01*
X106856707Y-81020114D01*
X106792998Y-80997413D01*
X106750206Y-80945040D01*
X106744636Y-80932342D01*
X106739690Y-80923203D01*
X106666890Y-80811773D01*
X106658796Y-80803926D01*
X106649262Y-80809947D01*
X105870939Y-81588270D01*
X105864167Y-81599999D01*
X105870940Y-81611730D01*
X106649263Y-82390052D01*
X106658797Y-82396072D01*
X106666888Y-82388228D01*
X106739693Y-82276792D01*
X106744636Y-82267657D01*
X106750205Y-82254962D01*
X106792998Y-82202586D01*
X106856710Y-82179885D01*
X106922981Y-82193398D01*
X106970676Y-82237352D01*
X106970843Y-82237227D01*
X106974353Y-82241875D01*
X107101943Y-82410833D01*
X107101947Y-82410837D01*
X107105456Y-82415484D01*
X107109758Y-82419406D01*
X107109761Y-82419409D01*
X107114681Y-82423894D01*
X107270532Y-82565971D01*
X107460450Y-82683563D01*
X107668741Y-82764255D01*
X107888312Y-82805300D01*
X108105860Y-82805300D01*
X108111688Y-82805300D01*
X108331259Y-82764255D01*
X108539550Y-82683563D01*
X108729468Y-82565971D01*
X108894544Y-82415484D01*
X109029157Y-82237227D01*
X109128724Y-82037270D01*
X109189854Y-81822422D01*
X109210464Y-81600000D01*
X109204441Y-81535000D01*
X127799634Y-81535000D01*
X127818534Y-81738968D01*
X127820126Y-81744566D01*
X127820127Y-81744567D01*
X127872718Y-81929407D01*
X127874592Y-81935991D01*
X127877185Y-81941198D01*
X127877186Y-81941201D01*
X127938092Y-82063516D01*
X127965898Y-82119358D01*
X127969406Y-82124004D01*
X127969409Y-82124008D01*
X128085830Y-82278175D01*
X128085834Y-82278179D01*
X128089343Y-82282826D01*
X128093645Y-82286748D01*
X128093648Y-82286751D01*
X128147279Y-82335642D01*
X128240723Y-82420827D01*
X128245674Y-82423892D01*
X128245676Y-82423894D01*
X128409924Y-82525592D01*
X128414884Y-82528663D01*
X128605894Y-82602660D01*
X128807248Y-82640300D01*
X129006263Y-82640300D01*
X129012090Y-82640300D01*
X129213444Y-82602660D01*
X129404454Y-82528663D01*
X129578615Y-82420827D01*
X129729995Y-82282826D01*
X129853440Y-82119358D01*
X129944746Y-81935991D01*
X130000804Y-81738968D01*
X130019704Y-81535000D01*
X130000804Y-81331032D01*
X129944746Y-81134009D01*
X129853440Y-80950642D01*
X129839619Y-80932340D01*
X129733507Y-80791824D01*
X129733504Y-80791820D01*
X129729995Y-80787174D01*
X129725692Y-80783251D01*
X129725689Y-80783248D01*
X129582917Y-80653095D01*
X129578615Y-80649173D01*
X129573665Y-80646108D01*
X129573661Y-80646105D01*
X129409413Y-80544407D01*
X129409408Y-80544405D01*
X129404454Y-80541337D01*
X129399023Y-80539233D01*
X129399019Y-80539231D01*
X129218873Y-80469443D01*
X129218871Y-80469442D01*
X129213444Y-80467340D01*
X129207722Y-80466270D01*
X129207721Y-80466270D01*
X129017814Y-80430770D01*
X129017813Y-80430769D01*
X129012090Y-80429700D01*
X128807248Y-80429700D01*
X128801525Y-80430769D01*
X128801523Y-80430770D01*
X128611616Y-80466270D01*
X128611612Y-80466271D01*
X128605894Y-80467340D01*
X128600469Y-80469441D01*
X128600464Y-80469443D01*
X128420318Y-80539231D01*
X128420310Y-80539234D01*
X128414884Y-80541337D01*
X128409933Y-80544402D01*
X128409924Y-80544407D01*
X128245676Y-80646105D01*
X128245666Y-80646111D01*
X128240723Y-80649173D01*
X128236424Y-80653091D01*
X128236420Y-80653095D01*
X128093648Y-80783248D01*
X128093640Y-80783256D01*
X128089343Y-80787174D01*
X128085838Y-80791814D01*
X128085830Y-80791824D01*
X127969409Y-80945991D01*
X127969403Y-80946000D01*
X127965898Y-80950642D01*
X127963304Y-80955849D01*
X127963301Y-80955856D01*
X127877186Y-81128798D01*
X127877183Y-81128804D01*
X127874592Y-81134009D01*
X127873000Y-81139602D01*
X127872998Y-81139609D01*
X127820127Y-81325432D01*
X127818534Y-81331032D01*
X127817997Y-81336824D01*
X127817997Y-81336826D01*
X127814221Y-81377578D01*
X127799634Y-81535000D01*
X109204441Y-81535000D01*
X109189854Y-81377578D01*
X109128724Y-81162730D01*
X109043689Y-80991958D01*
X124964369Y-80991958D01*
X124964370Y-80995578D01*
X124964789Y-80999190D01*
X124966238Y-81011692D01*
X124966239Y-81011697D01*
X124967331Y-81021109D01*
X124971158Y-81029776D01*
X124971159Y-81029780D01*
X125008718Y-81114843D01*
X125013435Y-81125525D01*
X125094144Y-81206234D01*
X125198560Y-81252338D01*
X125224090Y-81255300D01*
X126915247Y-81255299D01*
X126940778Y-81252338D01*
X127045194Y-81206234D01*
X127125903Y-81125525D01*
X127172007Y-81021109D01*
X127174969Y-80995579D01*
X127174968Y-79304422D01*
X127172007Y-79278891D01*
X127125903Y-79174475D01*
X127045194Y-79093766D01*
X127034513Y-79089050D01*
X127034512Y-79089049D01*
X126949450Y-79051491D01*
X126949449Y-79051490D01*
X126940778Y-79047662D01*
X126931360Y-79046569D01*
X126931359Y-79046569D01*
X126918874Y-79045120D01*
X126918862Y-79045119D01*
X126915248Y-79044700D01*
X126911601Y-79044700D01*
X125227727Y-79044700D01*
X125227709Y-79044700D01*
X125224091Y-79044701D01*
X125220478Y-79045119D01*
X125220478Y-79045120D01*
X125207976Y-79046569D01*
X125207969Y-79046570D01*
X125198560Y-79047662D01*
X125189894Y-79051488D01*
X125189888Y-79051490D01*
X125104825Y-79089049D01*
X125104821Y-79089051D01*
X125094144Y-79093766D01*
X125085889Y-79102020D01*
X125085886Y-79102023D01*
X125021692Y-79166217D01*
X125021689Y-79166220D01*
X125013435Y-79174475D01*
X125008720Y-79185152D01*
X125008718Y-79185156D01*
X124971160Y-79270218D01*
X124967331Y-79278891D01*
X124966238Y-79288306D01*
X124966238Y-79288309D01*
X124964789Y-79300794D01*
X124964788Y-79300807D01*
X124964369Y-79304421D01*
X124964369Y-79308066D01*
X124964369Y-79308067D01*
X124964369Y-80991941D01*
X124964369Y-80991958D01*
X109043689Y-80991958D01*
X109029157Y-80962773D01*
X108999281Y-80923210D01*
X108898056Y-80789166D01*
X108898053Y-80789162D01*
X108894544Y-80784516D01*
X108890240Y-80780593D01*
X108890238Y-80780590D01*
X108750382Y-80653095D01*
X108739432Y-80643113D01*
X108703130Y-80584482D01*
X108703130Y-80515518D01*
X108739432Y-80456886D01*
X108894544Y-80315484D01*
X109029157Y-80137227D01*
X109128724Y-79937270D01*
X109189854Y-79722422D01*
X109210464Y-79500000D01*
X109189854Y-79277578D01*
X109128724Y-79062730D01*
X109029157Y-78862773D01*
X109018501Y-78848662D01*
X108898056Y-78689166D01*
X108898053Y-78689162D01*
X108894544Y-78684516D01*
X108890240Y-78680593D01*
X108890238Y-78680590D01*
X108733770Y-78537951D01*
X108733771Y-78537951D01*
X108729468Y-78534029D01*
X108686015Y-78507124D01*
X108642273Y-78461313D01*
X108626349Y-78400000D01*
X108642273Y-78338687D01*
X108686015Y-78292875D01*
X108729468Y-78265971D01*
X108894544Y-78115484D01*
X109029157Y-77937227D01*
X109128724Y-77737270D01*
X109189854Y-77522422D01*
X109210464Y-77300000D01*
X109189854Y-77077578D01*
X109153043Y-76948200D01*
X118743120Y-76948200D01*
X118763765Y-77118229D01*
X118766465Y-77125349D01*
X118766467Y-77125356D01*
X118807860Y-77234498D01*
X118824501Y-77278377D01*
X118921798Y-77419335D01*
X119018057Y-77504614D01*
X119050001Y-77532914D01*
X119049218Y-77533797D01*
X119081115Y-77568727D01*
X119097135Y-77623015D01*
X119087774Y-77678839D01*
X119054920Y-77724932D01*
X118978302Y-77792811D01*
X118978299Y-77792814D01*
X118972598Y-77797865D01*
X118968273Y-77804129D01*
X118968270Y-77804134D01*
X118879630Y-77932550D01*
X118879626Y-77932555D01*
X118875301Y-77938823D01*
X118872598Y-77945949D01*
X118872597Y-77945952D01*
X118817267Y-78091843D01*
X118817264Y-78091852D01*
X118814565Y-78098971D01*
X118793920Y-78269000D01*
X118794839Y-78276569D01*
X118799169Y-78312231D01*
X118814565Y-78439029D01*
X118817265Y-78446149D01*
X118817267Y-78446156D01*
X118852081Y-78537951D01*
X118875301Y-78599177D01*
X118879629Y-78605447D01*
X118879630Y-78605449D01*
X118945920Y-78701486D01*
X118972598Y-78740135D01*
X119100801Y-78853714D01*
X119252460Y-78933310D01*
X119418761Y-78974300D01*
X119582422Y-78974300D01*
X119590039Y-78974300D01*
X119756340Y-78933310D01*
X119907999Y-78853714D01*
X120036202Y-78740135D01*
X120060507Y-78704924D01*
X120060508Y-78704923D01*
X120105649Y-78664932D01*
X120164203Y-78650500D01*
X122213132Y-78650500D01*
X122271687Y-78664932D01*
X122316828Y-78704924D01*
X122371867Y-78784662D01*
X122371870Y-78784665D01*
X122376198Y-78790935D01*
X122504401Y-78904514D01*
X122656060Y-78984110D01*
X122822361Y-79025100D01*
X122986022Y-79025100D01*
X122993639Y-79025100D01*
X123159940Y-78984110D01*
X123311599Y-78904514D01*
X123439802Y-78790935D01*
X123537099Y-78649977D01*
X123597835Y-78489829D01*
X123618480Y-78319800D01*
X123597835Y-78149771D01*
X123537099Y-77989623D01*
X123439802Y-77848665D01*
X123311599Y-77735086D01*
X123304857Y-77731547D01*
X123304852Y-77731544D01*
X123296458Y-77727139D01*
X123249202Y-77683983D01*
X123229242Y-77623180D01*
X123241726Y-77560413D01*
X123283435Y-77511876D01*
X123288826Y-77508154D01*
X123295572Y-77504614D01*
X123423775Y-77391035D01*
X123521072Y-77250077D01*
X123581808Y-77089929D01*
X123602453Y-76919900D01*
X123581808Y-76749871D01*
X123521072Y-76589723D01*
X123423775Y-76448765D01*
X123295572Y-76335186D01*
X123288831Y-76331648D01*
X123288828Y-76331646D01*
X123150657Y-76259129D01*
X123150653Y-76259127D01*
X123143913Y-76255590D01*
X123063126Y-76235677D01*
X122985005Y-76216422D01*
X122985003Y-76216421D01*
X122977612Y-76214600D01*
X122806334Y-76214600D01*
X122798943Y-76216421D01*
X122798940Y-76216422D01*
X122647429Y-76253767D01*
X122640033Y-76255590D01*
X122633294Y-76259126D01*
X122633288Y-76259129D01*
X122495117Y-76331646D01*
X122495110Y-76331650D01*
X122488374Y-76335186D01*
X122482674Y-76340234D01*
X122482672Y-76340237D01*
X122365876Y-76443710D01*
X122365872Y-76443713D01*
X122360171Y-76448765D01*
X122355845Y-76455031D01*
X122355838Y-76455040D01*
X122351396Y-76461477D01*
X122306255Y-76501468D01*
X122247701Y-76515900D01*
X120075288Y-76515900D01*
X120023577Y-76504800D01*
X119985591Y-76476850D01*
X119985402Y-76477065D01*
X119983045Y-76474976D01*
X119983039Y-76474971D01*
X119857199Y-76363486D01*
X119850458Y-76359948D01*
X119850455Y-76359946D01*
X119712284Y-76287429D01*
X119712280Y-76287427D01*
X119705540Y-76283890D01*
X119605082Y-76259129D01*
X119546632Y-76244722D01*
X119546630Y-76244721D01*
X119539239Y-76242900D01*
X119367961Y-76242900D01*
X119360570Y-76244721D01*
X119360567Y-76244722D01*
X119209056Y-76282067D01*
X119201660Y-76283890D01*
X119194921Y-76287426D01*
X119194915Y-76287429D01*
X119056744Y-76359946D01*
X119056737Y-76359950D01*
X119050001Y-76363486D01*
X119044301Y-76368534D01*
X119044299Y-76368537D01*
X118927501Y-76472012D01*
X118927500Y-76472013D01*
X118921798Y-76477065D01*
X118917473Y-76483329D01*
X118917470Y-76483334D01*
X118828830Y-76611750D01*
X118828826Y-76611755D01*
X118824501Y-76618023D01*
X118821798Y-76625149D01*
X118821797Y-76625152D01*
X118766467Y-76771043D01*
X118766464Y-76771052D01*
X118763765Y-76778171D01*
X118762846Y-76785738D01*
X118762846Y-76785739D01*
X118753498Y-76862730D01*
X118743120Y-76948200D01*
X109153043Y-76948200D01*
X109128724Y-76862730D01*
X109029157Y-76662773D01*
X109025645Y-76658122D01*
X108898056Y-76489166D01*
X108898053Y-76489162D01*
X108894544Y-76484516D01*
X108890240Y-76480593D01*
X108890238Y-76480590D01*
X108761781Y-76363486D01*
X108729468Y-76334029D01*
X108622806Y-76267987D01*
X108544509Y-76219507D01*
X108544505Y-76219505D01*
X108539550Y-76216437D01*
X108534119Y-76214333D01*
X108534115Y-76214331D01*
X108461487Y-76186195D01*
X108413205Y-76167491D01*
X108364055Y-76133151D01*
X108336342Y-76079980D01*
X108336342Y-76020020D01*
X108364055Y-75966849D01*
X108413205Y-75932508D01*
X108539550Y-75883563D01*
X108729468Y-75765971D01*
X108894544Y-75615484D01*
X109029157Y-75437227D01*
X109128724Y-75237270D01*
X109157424Y-75136400D01*
X125905851Y-75136400D01*
X125913242Y-75144718D01*
X126139949Y-75309429D01*
X126146630Y-75313669D01*
X126416241Y-75461889D01*
X126423376Y-75465247D01*
X126709438Y-75578507D01*
X126716964Y-75580952D01*
X127014947Y-75657462D01*
X127022719Y-75658944D01*
X127327947Y-75697503D01*
X127335838Y-75698000D01*
X127643500Y-75698000D01*
X127651390Y-75697503D01*
X127956618Y-75658944D01*
X127964390Y-75657462D01*
X128262373Y-75580952D01*
X128269899Y-75578507D01*
X128555961Y-75465247D01*
X128563096Y-75461889D01*
X128832707Y-75313669D01*
X128839388Y-75309429D01*
X129066095Y-75144717D01*
X129073486Y-75136400D01*
X129067484Y-75127025D01*
X127501398Y-73560939D01*
X127489669Y-73554167D01*
X127477939Y-73560939D01*
X125911852Y-75127025D01*
X125905851Y-75136400D01*
X109157424Y-75136400D01*
X109189854Y-75022422D01*
X109210464Y-74800000D01*
X109189854Y-74577578D01*
X109128724Y-74362730D01*
X109029157Y-74162773D01*
X108995854Y-74118672D01*
X108898056Y-73989166D01*
X108898053Y-73989162D01*
X108894544Y-73984516D01*
X108890240Y-73980593D01*
X108890238Y-73980590D01*
X108733770Y-73837951D01*
X108733771Y-73837951D01*
X108729468Y-73834029D01*
X108644580Y-73781469D01*
X108544509Y-73719507D01*
X108544505Y-73719505D01*
X108539550Y-73716437D01*
X108534119Y-73714333D01*
X108534115Y-73714331D01*
X108336685Y-73637847D01*
X108336684Y-73637846D01*
X108331259Y-73635745D01*
X108325540Y-73634676D01*
X108325537Y-73634675D01*
X108117414Y-73595770D01*
X108117410Y-73595769D01*
X108111688Y-73594700D01*
X107888312Y-73594700D01*
X107882590Y-73595769D01*
X107882585Y-73595770D01*
X107674462Y-73634675D01*
X107674456Y-73634676D01*
X107668741Y-73635745D01*
X107663318Y-73637845D01*
X107663314Y-73637847D01*
X107465884Y-73714331D01*
X107465876Y-73714334D01*
X107460450Y-73716437D01*
X107455499Y-73719502D01*
X107455490Y-73719507D01*
X107295252Y-73818723D01*
X107270532Y-73834029D01*
X107266233Y-73837947D01*
X107266229Y-73837951D01*
X107109761Y-73980590D01*
X107109753Y-73980598D01*
X107105456Y-73984516D01*
X107101951Y-73989156D01*
X107101943Y-73989166D01*
X106974354Y-74158122D01*
X106974348Y-74158131D01*
X106970843Y-74162773D01*
X106968249Y-74167980D01*
X106968246Y-74167987D01*
X106873870Y-74357519D01*
X106873867Y-74357526D01*
X106871276Y-74362730D01*
X106869683Y-74368327D01*
X106867578Y-74373763D01*
X106865337Y-74372895D01*
X106838256Y-74418477D01*
X106782231Y-74450358D01*
X106717769Y-74450358D01*
X106661744Y-74418477D01*
X106634662Y-74372895D01*
X106632422Y-74373763D01*
X106630317Y-74368330D01*
X106628724Y-74362730D01*
X106529157Y-74162773D01*
X106495854Y-74118672D01*
X106398056Y-73989166D01*
X106398053Y-73989162D01*
X106394544Y-73984516D01*
X106390240Y-73980593D01*
X106390238Y-73980590D01*
X106233770Y-73837951D01*
X106233771Y-73837951D01*
X106229468Y-73834029D01*
X106144580Y-73781469D01*
X106044509Y-73719507D01*
X106044505Y-73719505D01*
X106039550Y-73716437D01*
X106034119Y-73714333D01*
X106034115Y-73714331D01*
X105836685Y-73637847D01*
X105836684Y-73637846D01*
X105831259Y-73635745D01*
X105825540Y-73634676D01*
X105825537Y-73634675D01*
X105617414Y-73595770D01*
X105617410Y-73595769D01*
X105611688Y-73594700D01*
X105388312Y-73594700D01*
X105382590Y-73595769D01*
X105382585Y-73595770D01*
X105174462Y-73634675D01*
X105174456Y-73634676D01*
X105168741Y-73635745D01*
X105163318Y-73637845D01*
X105163314Y-73637847D01*
X104965884Y-73714331D01*
X104965876Y-73714334D01*
X104960450Y-73716437D01*
X104955499Y-73719502D01*
X104955490Y-73719507D01*
X104795252Y-73818723D01*
X104770532Y-73834029D01*
X104766233Y-73837947D01*
X104766229Y-73837951D01*
X104609761Y-73980590D01*
X104609753Y-73980598D01*
X104605456Y-73984516D01*
X104601951Y-73989156D01*
X104601943Y-73989166D01*
X104474354Y-74158122D01*
X104474348Y-74158131D01*
X104470843Y-74162773D01*
X104468249Y-74167980D01*
X104468246Y-74167987D01*
X104373870Y-74357519D01*
X104373867Y-74357526D01*
X104371276Y-74362730D01*
X104369684Y-74368323D01*
X104369682Y-74368330D01*
X104355414Y-74418477D01*
X104310146Y-74577578D01*
X104309609Y-74583370D01*
X104309609Y-74583372D01*
X104293537Y-74756815D01*
X104289536Y-74800000D01*
X104310146Y-75022422D01*
X104311738Y-75028020D01*
X104311739Y-75028021D01*
X104368385Y-75227112D01*
X104371276Y-75237270D01*
X104470843Y-75437227D01*
X104474351Y-75441873D01*
X104474354Y-75441877D01*
X104601943Y-75610833D01*
X104601947Y-75610837D01*
X104605456Y-75615484D01*
X104609758Y-75619406D01*
X104609761Y-75619409D01*
X104760565Y-75756885D01*
X104796869Y-75815519D01*
X104796869Y-75884481D01*
X104760565Y-75943115D01*
X104609761Y-76080590D01*
X104609753Y-76080598D01*
X104605456Y-76084516D01*
X104601951Y-76089156D01*
X104601943Y-76089166D01*
X104474354Y-76258122D01*
X104474348Y-76258131D01*
X104470843Y-76262773D01*
X104468249Y-76267980D01*
X104468246Y-76267987D01*
X104373870Y-76457519D01*
X104373867Y-76457526D01*
X104371276Y-76462730D01*
X104369684Y-76468323D01*
X104369682Y-76468330D01*
X104311739Y-76671978D01*
X104310146Y-76677578D01*
X104309609Y-76683371D01*
X104309607Y-76683383D01*
X104296793Y-76821662D01*
X104275784Y-76880503D01*
X104229091Y-76922017D01*
X104168197Y-76935997D01*
X104108072Y-76919006D01*
X104063502Y-76875220D01*
X103934677Y-76662117D01*
X103930370Y-76655877D01*
X103797733Y-76486579D01*
X103786350Y-76478379D01*
X103774061Y-76485148D01*
X102070939Y-78188270D01*
X102064167Y-78200000D01*
X101335831Y-78200000D01*
X101329059Y-78188270D01*
X99625937Y-76485148D01*
X99613648Y-76478379D01*
X99602264Y-76486580D01*
X99469640Y-76655864D01*
X99465312Y-76662133D01*
X99299773Y-76935968D01*
X99296237Y-76942704D01*
X99164912Y-77234498D01*
X99162215Y-77241609D01*
X99067016Y-77547111D01*
X99065195Y-77554500D01*
X99007515Y-77869247D01*
X99006600Y-77876787D01*
X98987280Y-78196198D01*
X98987280Y-78203802D01*
X97000500Y-78203802D01*
X97000500Y-76113648D01*
X99978379Y-76113648D01*
X99985148Y-76125937D01*
X101688270Y-77829059D01*
X101700000Y-77835831D01*
X101711729Y-77829059D01*
X103414850Y-76125937D01*
X103421619Y-76113648D01*
X103413419Y-76102265D01*
X103244122Y-75969629D01*
X103237877Y-75965319D01*
X102964031Y-75799773D01*
X102957295Y-75796237D01*
X102665501Y-75664912D01*
X102658390Y-75662215D01*
X102352888Y-75567016D01*
X102345499Y-75565195D01*
X102030752Y-75507515D01*
X102023212Y-75506600D01*
X101703802Y-75487280D01*
X101696198Y-75487280D01*
X101376787Y-75506600D01*
X101369247Y-75507515D01*
X101054500Y-75565195D01*
X101047111Y-75567016D01*
X100741609Y-75662215D01*
X100734498Y-75664912D01*
X100442704Y-75796237D01*
X100435968Y-75799773D01*
X100162133Y-75965312D01*
X100155864Y-75969640D01*
X99986580Y-76102264D01*
X99978379Y-76113648D01*
X97000500Y-76113648D01*
X97000500Y-71717588D01*
X99808206Y-71717588D01*
X99846126Y-71932642D01*
X99848246Y-71941142D01*
X99932307Y-72199857D01*
X99935599Y-72208004D01*
X100054847Y-72452499D01*
X100059233Y-72460095D01*
X100211351Y-72685620D01*
X100216756Y-72692538D01*
X100398775Y-72894691D01*
X100405091Y-72900789D01*
X100613471Y-73075642D01*
X100620575Y-73080804D01*
X100851274Y-73224960D01*
X100859008Y-73229073D01*
X101107532Y-73339722D01*
X101115773Y-73342722D01*
X101377266Y-73417703D01*
X101385846Y-73419527D01*
X101655234Y-73457388D01*
X101663984Y-73458000D01*
X102229410Y-73458000D01*
X102242493Y-73454493D01*
X102246000Y-73441410D01*
X102754000Y-73441410D01*
X102757506Y-73454493D01*
X102770590Y-73458000D01*
X103267923Y-73458000D01*
X103272308Y-73457846D01*
X103475757Y-73443620D01*
X103484437Y-73442400D01*
X103750529Y-73385841D01*
X103758966Y-73383421D01*
X104014586Y-73290382D01*
X104022602Y-73286813D01*
X104197239Y-73193958D01*
X124976959Y-73193958D01*
X124996275Y-73500994D01*
X124997268Y-73508855D01*
X125054914Y-73811046D01*
X125056885Y-73818723D01*
X125151953Y-74111309D01*
X125154868Y-74118672D01*
X125285858Y-74397040D01*
X125289670Y-74403974D01*
X125454516Y-74663730D01*
X125459169Y-74670135D01*
X125534495Y-74761187D01*
X125545978Y-74769079D01*
X125558155Y-74762302D01*
X127118729Y-73201729D01*
X127125501Y-73190000D01*
X127853836Y-73190000D01*
X127860608Y-73201729D01*
X129421182Y-74762303D01*
X129433357Y-74769080D01*
X129444841Y-74761187D01*
X129520168Y-74670135D01*
X129524821Y-74663730D01*
X129689667Y-74403974D01*
X129693479Y-74397040D01*
X129824469Y-74118672D01*
X129827384Y-74111309D01*
X129922452Y-73818723D01*
X129924423Y-73811046D01*
X129982069Y-73508855D01*
X129983062Y-73500994D01*
X130002379Y-73193958D01*
X130002379Y-73186042D01*
X129983062Y-72879005D01*
X129982069Y-72871144D01*
X129924423Y-72568953D01*
X129922452Y-72561276D01*
X129827384Y-72268690D01*
X129824469Y-72261327D01*
X129693479Y-71982959D01*
X129689667Y-71976025D01*
X129524821Y-71716269D01*
X129520168Y-71709864D01*
X129444841Y-71618811D01*
X129433358Y-71610919D01*
X129421181Y-71617696D01*
X127860608Y-73178270D01*
X127853836Y-73190000D01*
X127125501Y-73190000D01*
X127118729Y-73178270D01*
X125558155Y-71617696D01*
X125545979Y-71610919D01*
X125534494Y-71618812D01*
X125459164Y-71709870D01*
X125454519Y-71716263D01*
X125289670Y-71976025D01*
X125285858Y-71982959D01*
X125154868Y-72261327D01*
X125151953Y-72268690D01*
X125056885Y-72561276D01*
X125054914Y-72568953D01*
X124997268Y-72871144D01*
X124996275Y-72879005D01*
X124976959Y-73186042D01*
X124976959Y-73193958D01*
X104197239Y-73193958D01*
X104262790Y-73159104D01*
X104270238Y-73154450D01*
X104490305Y-72994561D01*
X104497035Y-72988914D01*
X104692715Y-72799948D01*
X104698587Y-72793426D01*
X104866063Y-72579067D01*
X104870970Y-72571793D01*
X105006983Y-72336211D01*
X105010833Y-72328319D01*
X105112735Y-72076103D01*
X105115450Y-72067746D01*
X105181257Y-71803808D01*
X105182781Y-71795163D01*
X105190512Y-71721611D01*
X105188086Y-71707851D01*
X105174656Y-71704000D01*
X102770590Y-71704000D01*
X102757506Y-71707506D01*
X102754000Y-71720590D01*
X102754000Y-73441410D01*
X102246000Y-73441410D01*
X102246000Y-71720590D01*
X102242493Y-71707506D01*
X102229410Y-71704000D01*
X99819608Y-71704000D01*
X99808694Y-71706419D01*
X99808206Y-71717588D01*
X97000500Y-71717588D01*
X97000500Y-71243598D01*
X125905850Y-71243598D01*
X125911852Y-71252973D01*
X127477939Y-72819060D01*
X127489669Y-72825832D01*
X127501398Y-72819060D01*
X129067484Y-71252973D01*
X129073485Y-71243598D01*
X129066094Y-71235280D01*
X128839388Y-71070570D01*
X128832707Y-71066330D01*
X128563096Y-70918110D01*
X128555961Y-70914752D01*
X128269899Y-70801492D01*
X128262373Y-70799047D01*
X127964390Y-70722537D01*
X127956618Y-70721055D01*
X127651390Y-70682496D01*
X127643500Y-70682000D01*
X127335838Y-70682000D01*
X127327947Y-70682496D01*
X127022719Y-70721055D01*
X127014947Y-70722537D01*
X126716964Y-70799047D01*
X126709438Y-70801492D01*
X126423376Y-70914752D01*
X126416241Y-70918110D01*
X126146630Y-71066330D01*
X126139949Y-71070570D01*
X125913241Y-71235281D01*
X125905850Y-71243598D01*
X97000500Y-71243598D01*
X97000500Y-71178388D01*
X99809487Y-71178388D01*
X99811913Y-71192148D01*
X99825344Y-71196000D01*
X102229410Y-71196000D01*
X102242493Y-71192493D01*
X102246000Y-71179410D01*
X102754000Y-71179410D01*
X102757506Y-71192493D01*
X102770590Y-71196000D01*
X105180392Y-71196000D01*
X105191305Y-71193580D01*
X105191793Y-71182411D01*
X105153873Y-70967357D01*
X105151753Y-70958857D01*
X105067692Y-70700142D01*
X105064400Y-70691995D01*
X104945152Y-70447500D01*
X104940766Y-70439904D01*
X104788648Y-70214379D01*
X104783243Y-70207461D01*
X104601224Y-70005308D01*
X104594908Y-69999210D01*
X104386528Y-69824357D01*
X104379424Y-69819195D01*
X104148725Y-69675039D01*
X104140991Y-69670926D01*
X103892467Y-69560277D01*
X103884226Y-69557277D01*
X103622733Y-69482296D01*
X103614153Y-69480472D01*
X103344765Y-69442611D01*
X103336016Y-69442000D01*
X102770590Y-69442000D01*
X102757506Y-69445506D01*
X102754000Y-69458590D01*
X102754000Y-71179410D01*
X102246000Y-71179410D01*
X102246000Y-69458590D01*
X102242493Y-69445506D01*
X102229410Y-69442000D01*
X101732077Y-69442000D01*
X101727691Y-69442153D01*
X101524242Y-69456379D01*
X101515562Y-69457599D01*
X101249470Y-69514158D01*
X101241033Y-69516578D01*
X100985413Y-69609617D01*
X100977397Y-69613186D01*
X100737209Y-69740895D01*
X100729761Y-69745549D01*
X100509694Y-69905438D01*
X100502964Y-69911085D01*
X100307284Y-70100051D01*
X100301412Y-70106573D01*
X100133936Y-70320932D01*
X100129029Y-70328206D01*
X99993016Y-70563788D01*
X99989166Y-70571680D01*
X99887264Y-70823896D01*
X99884549Y-70832253D01*
X99818742Y-71096191D01*
X99817218Y-71104836D01*
X99809487Y-71178388D01*
X97000500Y-71178388D01*
X97000500Y-67626500D01*
X97017381Y-67563500D01*
X97063500Y-67517381D01*
X97126500Y-67500500D01*
X136873500Y-67500500D01*
X136936500Y-67517381D01*
G37*
%TD.AperFunction*%
%TD*%
M02*
