%TF.GenerationSoftware,KiCad,Pcbnew,(6.0.6)*%
%TF.CreationDate,2022-08-24T09:56:22+01:00*%
%TF.ProjectId,ps2usb,70733275-7362-42e6-9b69-6361645f7063,rev?*%
%TF.SameCoordinates,Original*%
%TF.FileFunction,Legend,Top*%
%TF.FilePolarity,Positive*%
%FSLAX46Y46*%
G04 Gerber Fmt 4.6, Leading zero omitted, Abs format (unit mm)*
G04 Created by KiCad (PCBNEW (6.0.6)) date 2022-08-24 09:56:22*
%MOMM*%
%LPD*%
G01*
G04 APERTURE LIST*
%ADD10C,0.080000*%
%ADD11C,0.050000*%
%ADD12C,0.006000*%
%ADD13C,0.300000*%
%ADD14C,0.150000*%
%ADD15C,0.120000*%
%ADD16C,0.310000*%
%ADD17C,0.250000*%
G04 APERTURE END LIST*
D10*
G36*
X140857061Y-85466118D02*
G01*
X142033582Y-88340749D01*
X142033582Y-88353491D01*
X141603526Y-88353491D01*
X141266731Y-87479008D01*
X140059390Y-87479008D01*
X139742291Y-88353491D01*
X139343747Y-88353491D01*
X139343747Y-88334782D01*
X139791906Y-87167817D01*
X140169686Y-87167817D01*
X141148558Y-87167817D01*
X140847215Y-86368178D01*
X140782711Y-86194117D01*
X140727070Y-86036306D01*
X140680294Y-85894743D01*
X140660229Y-85830055D01*
X140642381Y-85769428D01*
X140627886Y-85838795D01*
X140611976Y-85908038D01*
X140594650Y-85977158D01*
X140575908Y-86046155D01*
X140555751Y-86115028D01*
X140534178Y-86183778D01*
X140511189Y-86252405D01*
X140486785Y-86320908D01*
X140169686Y-87167817D01*
X139791906Y-87167817D01*
X140445423Y-85466118D01*
X140857061Y-85466118D01*
G37*
X140857061Y-85466118D02*
X142033582Y-88340749D01*
X142033582Y-88353491D01*
X141603526Y-88353491D01*
X141266731Y-87479008D01*
X140059390Y-87479008D01*
X139742291Y-88353491D01*
X139343747Y-88353491D01*
X139343747Y-88334782D01*
X139791906Y-87167817D01*
X140169686Y-87167817D01*
X141148558Y-87167817D01*
X140847215Y-86368178D01*
X140782711Y-86194117D01*
X140727070Y-86036306D01*
X140680294Y-85894743D01*
X140660229Y-85830055D01*
X140642381Y-85769428D01*
X140627886Y-85838795D01*
X140611976Y-85908038D01*
X140594650Y-85977158D01*
X140575908Y-86046155D01*
X140555751Y-86115028D01*
X140534178Y-86183778D01*
X140511189Y-86252405D01*
X140486785Y-86320908D01*
X140169686Y-87167817D01*
X139791906Y-87167817D01*
X140445423Y-85466118D01*
X140857061Y-85466118D01*
D11*
G36*
X124115771Y-85541920D02*
G01*
X124137258Y-85545741D01*
X124158246Y-85552114D01*
X124178646Y-85561056D01*
X124198374Y-85572589D01*
X124217340Y-85586730D01*
X124235457Y-85603499D01*
X124252639Y-85622914D01*
X124268798Y-85644997D01*
X124283848Y-85669764D01*
X124297699Y-85697236D01*
X124310267Y-85727432D01*
X124321462Y-85760371D01*
X124331198Y-85796072D01*
X124338822Y-85822986D01*
X124350434Y-85857812D01*
X124383684Y-85946743D01*
X124427070Y-86053950D01*
X124476711Y-86170518D01*
X124528728Y-86287532D01*
X124579241Y-86396079D01*
X124624370Y-86487245D01*
X124643703Y-86523523D01*
X124660236Y-86552113D01*
X124670500Y-86569356D01*
X124679319Y-86585390D01*
X124686687Y-86600318D01*
X124692596Y-86614246D01*
X124695001Y-86620868D01*
X124697038Y-86627278D01*
X124698708Y-86633491D01*
X124700007Y-86639519D01*
X124700937Y-86645376D01*
X124701495Y-86651074D01*
X124701682Y-86656627D01*
X124701495Y-86662047D01*
X124700935Y-86667348D01*
X124699999Y-86672543D01*
X124698689Y-86677645D01*
X124697001Y-86682667D01*
X124694936Y-86687622D01*
X124692492Y-86692523D01*
X124689670Y-86697384D01*
X124686466Y-86702217D01*
X124682882Y-86707035D01*
X124678916Y-86711852D01*
X124669833Y-86721534D01*
X124659211Y-86731367D01*
X124647043Y-86741456D01*
X124636668Y-86748883D01*
X124624576Y-86756147D01*
X124610925Y-86763203D01*
X124595875Y-86770012D01*
X124579583Y-86776529D01*
X124562209Y-86782713D01*
X124543912Y-86788521D01*
X124524849Y-86793911D01*
X124505181Y-86798841D01*
X124485065Y-86803269D01*
X124464661Y-86807152D01*
X124444126Y-86810448D01*
X124423620Y-86813114D01*
X124403302Y-86815109D01*
X124383330Y-86816390D01*
X124363863Y-86816915D01*
X124357510Y-86816976D01*
X124351960Y-86817131D01*
X124349474Y-86817275D01*
X124347173Y-86817478D01*
X124345052Y-86817754D01*
X124343106Y-86818115D01*
X124341330Y-86818572D01*
X124339719Y-86819138D01*
X124338267Y-86819825D01*
X124336969Y-86820646D01*
X124335821Y-86821612D01*
X124334816Y-86822736D01*
X124333950Y-86824029D01*
X124333218Y-86825505D01*
X124332614Y-86827175D01*
X124332133Y-86829052D01*
X124331769Y-86831147D01*
X124331519Y-86833473D01*
X124331376Y-86836043D01*
X124331336Y-86838867D01*
X124331393Y-86841960D01*
X124331542Y-86845331D01*
X124332095Y-86852963D01*
X124332954Y-86861860D01*
X124335423Y-86883840D01*
X124337208Y-86911360D01*
X124339328Y-86964343D01*
X124344262Y-87134248D01*
X124349593Y-87368655D01*
X124354688Y-87642665D01*
X124361001Y-87958209D01*
X124368351Y-88209986D01*
X124376766Y-88398764D01*
X124386273Y-88525315D01*
X124400430Y-88661279D01*
X124406335Y-88720662D01*
X124406642Y-88721672D01*
X124407536Y-88722487D01*
X124408983Y-88723113D01*
X124410956Y-88723555D01*
X124416351Y-88723919D01*
X124423478Y-88723630D01*
X124432092Y-88722742D01*
X124441948Y-88721307D01*
X124452802Y-88719379D01*
X124464411Y-88717010D01*
X124476529Y-88714252D01*
X124488913Y-88711159D01*
X124501319Y-88707783D01*
X124513501Y-88704178D01*
X124525216Y-88700395D01*
X124536219Y-88696488D01*
X124546267Y-88692509D01*
X124555115Y-88688512D01*
X124564315Y-88683225D01*
X124573589Y-88676350D01*
X124582917Y-88667943D01*
X124592279Y-88658061D01*
X124601656Y-88646761D01*
X124611028Y-88634098D01*
X124629679Y-88604915D01*
X124648077Y-88570963D01*
X124666063Y-88532698D01*
X124683482Y-88490571D01*
X124700176Y-88445036D01*
X124715989Y-88396547D01*
X124730765Y-88345556D01*
X124744346Y-88292517D01*
X124756576Y-88237884D01*
X124767298Y-88182108D01*
X124776356Y-88125644D01*
X124783592Y-88068946D01*
X124788851Y-88012465D01*
X124802776Y-87826815D01*
X124758113Y-87760562D01*
X124744573Y-87739202D01*
X124732325Y-87717267D01*
X124721351Y-87694826D01*
X124711637Y-87671950D01*
X124703168Y-87648710D01*
X124695930Y-87625177D01*
X124689906Y-87601421D01*
X124685082Y-87577513D01*
X124681443Y-87553523D01*
X124678973Y-87529522D01*
X124677659Y-87505581D01*
X124677483Y-87481771D01*
X124678433Y-87458161D01*
X124680491Y-87434823D01*
X124683644Y-87411827D01*
X124687877Y-87389244D01*
X124693173Y-87367145D01*
X124699519Y-87345600D01*
X124706899Y-87324679D01*
X124715298Y-87304454D01*
X124724701Y-87284996D01*
X124735093Y-87266374D01*
X124746459Y-87248659D01*
X124758783Y-87231922D01*
X124772051Y-87216235D01*
X124786248Y-87201666D01*
X124801359Y-87188287D01*
X124817368Y-87176169D01*
X124834260Y-87165382D01*
X124852021Y-87155997D01*
X124870636Y-87148084D01*
X124890088Y-87141715D01*
X124937617Y-87130635D01*
X124983611Y-87124317D01*
X125027978Y-87122514D01*
X125070625Y-87124982D01*
X125111458Y-87131473D01*
X125150385Y-87141742D01*
X125187312Y-87155544D01*
X125222146Y-87172632D01*
X125254795Y-87192761D01*
X125285165Y-87215685D01*
X125313163Y-87241158D01*
X125338696Y-87268935D01*
X125361671Y-87298768D01*
X125381996Y-87330414D01*
X125399576Y-87363625D01*
X125414318Y-87398157D01*
X125426131Y-87433762D01*
X125434920Y-87470196D01*
X125440592Y-87507213D01*
X125443056Y-87544566D01*
X125442216Y-87582011D01*
X125437981Y-87619300D01*
X125430257Y-87656189D01*
X125418952Y-87692431D01*
X125403971Y-87727781D01*
X125385223Y-87761993D01*
X125362614Y-87794821D01*
X125336051Y-87826019D01*
X125305440Y-87855342D01*
X125270689Y-87882543D01*
X125231705Y-87907377D01*
X125188395Y-87929599D01*
X125121429Y-87960257D01*
X125112839Y-88122136D01*
X125107506Y-88202155D01*
X125100102Y-88281127D01*
X125090716Y-88358746D01*
X125079437Y-88434706D01*
X125066352Y-88508699D01*
X125051552Y-88580421D01*
X125035123Y-88649563D01*
X125017155Y-88715821D01*
X124997737Y-88778887D01*
X124976957Y-88838455D01*
X124954903Y-88894219D01*
X124931664Y-88945872D01*
X124907329Y-88993109D01*
X124881986Y-89035621D01*
X124855724Y-89073105D01*
X124828632Y-89105251D01*
X124815183Y-89119387D01*
X124802293Y-89132387D01*
X124789786Y-89144358D01*
X124777487Y-89155405D01*
X124765220Y-89165637D01*
X124752809Y-89175159D01*
X124740080Y-89184077D01*
X124726857Y-89192499D01*
X124712963Y-89200530D01*
X124698225Y-89208277D01*
X124682465Y-89215847D01*
X124665509Y-89223347D01*
X124647181Y-89230881D01*
X124627306Y-89238558D01*
X124605708Y-89246484D01*
X124582211Y-89254764D01*
X124476212Y-89291505D01*
X124476512Y-89543409D01*
X124477774Y-89829505D01*
X124480412Y-90163614D01*
X124484027Y-90531914D01*
X124416626Y-90591904D01*
X124390731Y-90614682D01*
X124379656Y-90624034D01*
X124369491Y-90632177D01*
X124359981Y-90639228D01*
X124350871Y-90645297D01*
X124346387Y-90648000D01*
X124341907Y-90650501D01*
X124337400Y-90652813D01*
X124332835Y-90654951D01*
X124328178Y-90656930D01*
X124323399Y-90658762D01*
X124318466Y-90660463D01*
X124313347Y-90662047D01*
X124302422Y-90664921D01*
X124290371Y-90667495D01*
X124276939Y-90669884D01*
X124261872Y-90672202D01*
X124225814Y-90677079D01*
X124179970Y-90682664D01*
X124142030Y-90686289D01*
X124125570Y-90687335D01*
X124110540Y-90687852D01*
X124096760Y-90687827D01*
X124084047Y-90687249D01*
X124072220Y-90686105D01*
X124061096Y-90684380D01*
X124050495Y-90682064D01*
X124040234Y-90679143D01*
X124030132Y-90675604D01*
X124020008Y-90671434D01*
X124009678Y-90666621D01*
X123998962Y-90661153D01*
X123998950Y-90661153D01*
X123989232Y-90655653D01*
X123980018Y-90649638D01*
X123971296Y-90643013D01*
X123963052Y-90635683D01*
X123955272Y-90627553D01*
X123947944Y-90618527D01*
X123941054Y-90608510D01*
X123934588Y-90597407D01*
X123928533Y-90585123D01*
X123922875Y-90571561D01*
X123917603Y-90556627D01*
X123912700Y-90540225D01*
X123908156Y-90522261D01*
X123903955Y-90502638D01*
X123900086Y-90481262D01*
X123896533Y-90458037D01*
X123893285Y-90432868D01*
X123890326Y-90405659D01*
X123887645Y-90376316D01*
X123885228Y-90344742D01*
X123883061Y-90310843D01*
X123881131Y-90274523D01*
X123877929Y-90194240D01*
X123875513Y-90103131D01*
X123873777Y-90000431D01*
X123872613Y-89885380D01*
X123871916Y-89757215D01*
X123871885Y-89596179D01*
X123870603Y-89478728D01*
X123868290Y-89434031D01*
X123864220Y-89397451D01*
X123857912Y-89368061D01*
X123853769Y-89355774D01*
X123848886Y-89344937D01*
X123843202Y-89335434D01*
X123836658Y-89327150D01*
X123829194Y-89319970D01*
X123820749Y-89313776D01*
X123811264Y-89308454D01*
X123800678Y-89303887D01*
X123775962Y-89296558D01*
X123746120Y-89290861D01*
X123710673Y-89285871D01*
X123621032Y-89274306D01*
X123567083Y-89265337D01*
X123516935Y-89253985D01*
X123493220Y-89247347D01*
X123470378Y-89240031D01*
X123448381Y-89232010D01*
X123427205Y-89223255D01*
X123406822Y-89213741D01*
X123387208Y-89203439D01*
X123368335Y-89192322D01*
X123350179Y-89180363D01*
X123332713Y-89167534D01*
X123315911Y-89153808D01*
X123299747Y-89139158D01*
X123284195Y-89123555D01*
X123269230Y-89106973D01*
X123254824Y-89089385D01*
X123240953Y-89070762D01*
X123227591Y-89051078D01*
X123214710Y-89030305D01*
X123202286Y-89008415D01*
X123190292Y-88985382D01*
X123178702Y-88961177D01*
X123156632Y-88909146D01*
X123135867Y-88852101D01*
X123116200Y-88789823D01*
X123097423Y-88722094D01*
X123073645Y-88628052D01*
X123054293Y-88544351D01*
X123038978Y-88468258D01*
X123027307Y-88397037D01*
X123018889Y-88327957D01*
X123013333Y-88258282D01*
X123010248Y-88185279D01*
X123009241Y-88106215D01*
X123009020Y-88026906D01*
X123007920Y-87967128D01*
X123006732Y-87943536D01*
X123004952Y-87923594D01*
X123002457Y-87906891D01*
X122999123Y-87893016D01*
X122994826Y-87881558D01*
X122989442Y-87872107D01*
X122982847Y-87864251D01*
X122974918Y-87857580D01*
X122965531Y-87851682D01*
X122954561Y-87846147D01*
X122927378Y-87834522D01*
X122904601Y-87824200D01*
X122883058Y-87812664D01*
X122862756Y-87799967D01*
X122843703Y-87786165D01*
X122825905Y-87771311D01*
X122809368Y-87755460D01*
X122794100Y-87738667D01*
X122780108Y-87720987D01*
X122767398Y-87702473D01*
X122755977Y-87683182D01*
X122745852Y-87663166D01*
X122737030Y-87642482D01*
X122729517Y-87621182D01*
X122723321Y-87599323D01*
X122718448Y-87576958D01*
X122714905Y-87554142D01*
X122712698Y-87530930D01*
X122711836Y-87507376D01*
X122712324Y-87483536D01*
X122714169Y-87459462D01*
X122717378Y-87435210D01*
X122721958Y-87410835D01*
X122727916Y-87386392D01*
X122735259Y-87361934D01*
X122743992Y-87337516D01*
X122754125Y-87313193D01*
X122765662Y-87289020D01*
X122778610Y-87265051D01*
X122792978Y-87241340D01*
X122808771Y-87217943D01*
X122825996Y-87194913D01*
X122844661Y-87172306D01*
X122865315Y-87149822D01*
X122886669Y-87129185D01*
X122908608Y-87110431D01*
X122931021Y-87093600D01*
X122953792Y-87078728D01*
X122976809Y-87065853D01*
X122999957Y-87055015D01*
X123023124Y-87046249D01*
X123046195Y-87039595D01*
X123057659Y-87037071D01*
X123069057Y-87035089D01*
X123080374Y-87033655D01*
X123091597Y-87032771D01*
X123102710Y-87032444D01*
X123113700Y-87032678D01*
X123124553Y-87033477D01*
X123135254Y-87034847D01*
X123145790Y-87036792D01*
X123156145Y-87039317D01*
X123166306Y-87042426D01*
X123176259Y-87046125D01*
X123185989Y-87050418D01*
X123195482Y-87055309D01*
X123220029Y-87069460D01*
X123243622Y-87084157D01*
X123266245Y-87099367D01*
X123287883Y-87115054D01*
X123308522Y-87131183D01*
X123328146Y-87147720D01*
X123346741Y-87164629D01*
X123364290Y-87181876D01*
X123380780Y-87199424D01*
X123396194Y-87217241D01*
X123410518Y-87235289D01*
X123423738Y-87253535D01*
X123435837Y-87271944D01*
X123446800Y-87290480D01*
X123456614Y-87309109D01*
X123465261Y-87327795D01*
X123472729Y-87346504D01*
X123479000Y-87365201D01*
X123484061Y-87383850D01*
X123487897Y-87402417D01*
X123490491Y-87420867D01*
X123491830Y-87439164D01*
X123491897Y-87457274D01*
X123490679Y-87475162D01*
X123488160Y-87492793D01*
X123484324Y-87510131D01*
X123479157Y-87527143D01*
X123472644Y-87543792D01*
X123464769Y-87560044D01*
X123455518Y-87575864D01*
X123444875Y-87591217D01*
X123432826Y-87606068D01*
X123411410Y-87633864D01*
X123393074Y-87664519D01*
X123377728Y-87697789D01*
X123365282Y-87733429D01*
X123355647Y-87771191D01*
X123348734Y-87810832D01*
X123344452Y-87852106D01*
X123342713Y-87894767D01*
X123343426Y-87938571D01*
X123346503Y-87983270D01*
X123359387Y-88074378D01*
X123380650Y-88166126D01*
X123409574Y-88256552D01*
X123445444Y-88343693D01*
X123487542Y-88425585D01*
X123510703Y-88463950D01*
X123535153Y-88500265D01*
X123560802Y-88534287D01*
X123587560Y-88565770D01*
X123615338Y-88594467D01*
X123644046Y-88620135D01*
X123673595Y-88642527D01*
X123703896Y-88661398D01*
X123734858Y-88676503D01*
X123766392Y-88687596D01*
X123798409Y-88694432D01*
X123830818Y-88696765D01*
X123833794Y-88694918D01*
X123836651Y-88689504D01*
X123841995Y-88668737D01*
X123846821Y-88635990D01*
X123851098Y-88592788D01*
X123857882Y-88481121D01*
X123862104Y-88345939D01*
X123863520Y-88199444D01*
X123861884Y-88053840D01*
X123856953Y-87921330D01*
X123853176Y-87863798D01*
X123848483Y-87814115D01*
X123845967Y-87784439D01*
X123843257Y-87738840D01*
X123837593Y-87608990D01*
X123832174Y-87442796D01*
X123827682Y-87258490D01*
X123820785Y-86937538D01*
X123817140Y-86803456D01*
X123813954Y-86802922D01*
X123805337Y-86801783D01*
X123774181Y-86797975D01*
X123728410Y-86792596D01*
X123672761Y-86786214D01*
X123636536Y-86781556D01*
X123603976Y-86776182D01*
X123575028Y-86770032D01*
X123549638Y-86763042D01*
X123538261Y-86759213D01*
X123527753Y-86755151D01*
X123518108Y-86750849D01*
X123509319Y-86746298D01*
X123501378Y-86741491D01*
X123494281Y-86736421D01*
X123488019Y-86731079D01*
X123482586Y-86725458D01*
X123477976Y-86719550D01*
X123474181Y-86713347D01*
X123471195Y-86706842D01*
X123469012Y-86700027D01*
X123467624Y-86692894D01*
X123467024Y-86685436D01*
X123467207Y-86677645D01*
X123468165Y-86669513D01*
X123469891Y-86661032D01*
X123472380Y-86652195D01*
X123475623Y-86642994D01*
X123479616Y-86633421D01*
X123489818Y-86613130D01*
X123502934Y-86591259D01*
X123506908Y-86584843D01*
X123510861Y-86578027D01*
X123514770Y-86570870D01*
X123518610Y-86563433D01*
X123522357Y-86555774D01*
X123525986Y-86547956D01*
X123532795Y-86532077D01*
X123535925Y-86524137D01*
X123538841Y-86516277D01*
X123541517Y-86508556D01*
X123543929Y-86501035D01*
X123546053Y-86493774D01*
X123547865Y-86486833D01*
X123549340Y-86480271D01*
X123550454Y-86474150D01*
X123553539Y-86459064D01*
X123558896Y-86437975D01*
X123566232Y-86411846D01*
X123575250Y-86381640D01*
X123585658Y-86348321D01*
X123597161Y-86312852D01*
X123609463Y-86276196D01*
X123622271Y-86239315D01*
X123679454Y-86074678D01*
X123728684Y-85928524D01*
X123743082Y-85887518D01*
X123758637Y-85848698D01*
X123775264Y-85812085D01*
X123792875Y-85777696D01*
X123811382Y-85745552D01*
X123830699Y-85715671D01*
X123850738Y-85688072D01*
X123871411Y-85662776D01*
X123892633Y-85639801D01*
X123914314Y-85619165D01*
X123936369Y-85600889D01*
X123958710Y-85584992D01*
X123981249Y-85571492D01*
X124003900Y-85560409D01*
X124026575Y-85551763D01*
X124049187Y-85545571D01*
X124071648Y-85541854D01*
X124093872Y-85540631D01*
X124115771Y-85541920D01*
G37*
X124115771Y-85541920D02*
X124137258Y-85545741D01*
X124158246Y-85552114D01*
X124178646Y-85561056D01*
X124198374Y-85572589D01*
X124217340Y-85586730D01*
X124235457Y-85603499D01*
X124252639Y-85622914D01*
X124268798Y-85644997D01*
X124283848Y-85669764D01*
X124297699Y-85697236D01*
X124310267Y-85727432D01*
X124321462Y-85760371D01*
X124331198Y-85796072D01*
X124338822Y-85822986D01*
X124350434Y-85857812D01*
X124383684Y-85946743D01*
X124427070Y-86053950D01*
X124476711Y-86170518D01*
X124528728Y-86287532D01*
X124579241Y-86396079D01*
X124624370Y-86487245D01*
X124643703Y-86523523D01*
X124660236Y-86552113D01*
X124670500Y-86569356D01*
X124679319Y-86585390D01*
X124686687Y-86600318D01*
X124692596Y-86614246D01*
X124695001Y-86620868D01*
X124697038Y-86627278D01*
X124698708Y-86633491D01*
X124700007Y-86639519D01*
X124700937Y-86645376D01*
X124701495Y-86651074D01*
X124701682Y-86656627D01*
X124701495Y-86662047D01*
X124700935Y-86667348D01*
X124699999Y-86672543D01*
X124698689Y-86677645D01*
X124697001Y-86682667D01*
X124694936Y-86687622D01*
X124692492Y-86692523D01*
X124689670Y-86697384D01*
X124686466Y-86702217D01*
X124682882Y-86707035D01*
X124678916Y-86711852D01*
X124669833Y-86721534D01*
X124659211Y-86731367D01*
X124647043Y-86741456D01*
X124636668Y-86748883D01*
X124624576Y-86756147D01*
X124610925Y-86763203D01*
X124595875Y-86770012D01*
X124579583Y-86776529D01*
X124562209Y-86782713D01*
X124543912Y-86788521D01*
X124524849Y-86793911D01*
X124505181Y-86798841D01*
X124485065Y-86803269D01*
X124464661Y-86807152D01*
X124444126Y-86810448D01*
X124423620Y-86813114D01*
X124403302Y-86815109D01*
X124383330Y-86816390D01*
X124363863Y-86816915D01*
X124357510Y-86816976D01*
X124351960Y-86817131D01*
X124349474Y-86817275D01*
X124347173Y-86817478D01*
X124345052Y-86817754D01*
X124343106Y-86818115D01*
X124341330Y-86818572D01*
X124339719Y-86819138D01*
X124338267Y-86819825D01*
X124336969Y-86820646D01*
X124335821Y-86821612D01*
X124334816Y-86822736D01*
X124333950Y-86824029D01*
X124333218Y-86825505D01*
X124332614Y-86827175D01*
X124332133Y-86829052D01*
X124331769Y-86831147D01*
X124331519Y-86833473D01*
X124331376Y-86836043D01*
X124331336Y-86838867D01*
X124331393Y-86841960D01*
X124331542Y-86845331D01*
X124332095Y-86852963D01*
X124332954Y-86861860D01*
X124335423Y-86883840D01*
X124337208Y-86911360D01*
X124339328Y-86964343D01*
X124344262Y-87134248D01*
X124349593Y-87368655D01*
X124354688Y-87642665D01*
X124361001Y-87958209D01*
X124368351Y-88209986D01*
X124376766Y-88398764D01*
X124386273Y-88525315D01*
X124400430Y-88661279D01*
X124406335Y-88720662D01*
X124406642Y-88721672D01*
X124407536Y-88722487D01*
X124408983Y-88723113D01*
X124410956Y-88723555D01*
X124416351Y-88723919D01*
X124423478Y-88723630D01*
X124432092Y-88722742D01*
X124441948Y-88721307D01*
X124452802Y-88719379D01*
X124464411Y-88717010D01*
X124476529Y-88714252D01*
X124488913Y-88711159D01*
X124501319Y-88707783D01*
X124513501Y-88704178D01*
X124525216Y-88700395D01*
X124536219Y-88696488D01*
X124546267Y-88692509D01*
X124555115Y-88688512D01*
X124564315Y-88683225D01*
X124573589Y-88676350D01*
X124582917Y-88667943D01*
X124592279Y-88658061D01*
X124601656Y-88646761D01*
X124611028Y-88634098D01*
X124629679Y-88604915D01*
X124648077Y-88570963D01*
X124666063Y-88532698D01*
X124683482Y-88490571D01*
X124700176Y-88445036D01*
X124715989Y-88396547D01*
X124730765Y-88345556D01*
X124744346Y-88292517D01*
X124756576Y-88237884D01*
X124767298Y-88182108D01*
X124776356Y-88125644D01*
X124783592Y-88068946D01*
X124788851Y-88012465D01*
X124802776Y-87826815D01*
X124758113Y-87760562D01*
X124744573Y-87739202D01*
X124732325Y-87717267D01*
X124721351Y-87694826D01*
X124711637Y-87671950D01*
X124703168Y-87648710D01*
X124695930Y-87625177D01*
X124689906Y-87601421D01*
X124685082Y-87577513D01*
X124681443Y-87553523D01*
X124678973Y-87529522D01*
X124677659Y-87505581D01*
X124677483Y-87481771D01*
X124678433Y-87458161D01*
X124680491Y-87434823D01*
X124683644Y-87411827D01*
X124687877Y-87389244D01*
X124693173Y-87367145D01*
X124699519Y-87345600D01*
X124706899Y-87324679D01*
X124715298Y-87304454D01*
X124724701Y-87284996D01*
X124735093Y-87266374D01*
X124746459Y-87248659D01*
X124758783Y-87231922D01*
X124772051Y-87216235D01*
X124786248Y-87201666D01*
X124801359Y-87188287D01*
X124817368Y-87176169D01*
X124834260Y-87165382D01*
X124852021Y-87155997D01*
X124870636Y-87148084D01*
X124890088Y-87141715D01*
X124937617Y-87130635D01*
X124983611Y-87124317D01*
X125027978Y-87122514D01*
X125070625Y-87124982D01*
X125111458Y-87131473D01*
X125150385Y-87141742D01*
X125187312Y-87155544D01*
X125222146Y-87172632D01*
X125254795Y-87192761D01*
X125285165Y-87215685D01*
X125313163Y-87241158D01*
X125338696Y-87268935D01*
X125361671Y-87298768D01*
X125381996Y-87330414D01*
X125399576Y-87363625D01*
X125414318Y-87398157D01*
X125426131Y-87433762D01*
X125434920Y-87470196D01*
X125440592Y-87507213D01*
X125443056Y-87544566D01*
X125442216Y-87582011D01*
X125437981Y-87619300D01*
X125430257Y-87656189D01*
X125418952Y-87692431D01*
X125403971Y-87727781D01*
X125385223Y-87761993D01*
X125362614Y-87794821D01*
X125336051Y-87826019D01*
X125305440Y-87855342D01*
X125270689Y-87882543D01*
X125231705Y-87907377D01*
X125188395Y-87929599D01*
X125121429Y-87960257D01*
X125112839Y-88122136D01*
X125107506Y-88202155D01*
X125100102Y-88281127D01*
X125090716Y-88358746D01*
X125079437Y-88434706D01*
X125066352Y-88508699D01*
X125051552Y-88580421D01*
X125035123Y-88649563D01*
X125017155Y-88715821D01*
X124997737Y-88778887D01*
X124976957Y-88838455D01*
X124954903Y-88894219D01*
X124931664Y-88945872D01*
X124907329Y-88993109D01*
X124881986Y-89035621D01*
X124855724Y-89073105D01*
X124828632Y-89105251D01*
X124815183Y-89119387D01*
X124802293Y-89132387D01*
X124789786Y-89144358D01*
X124777487Y-89155405D01*
X124765220Y-89165637D01*
X124752809Y-89175159D01*
X124740080Y-89184077D01*
X124726857Y-89192499D01*
X124712963Y-89200530D01*
X124698225Y-89208277D01*
X124682465Y-89215847D01*
X124665509Y-89223347D01*
X124647181Y-89230881D01*
X124627306Y-89238558D01*
X124605708Y-89246484D01*
X124582211Y-89254764D01*
X124476212Y-89291505D01*
X124476512Y-89543409D01*
X124477774Y-89829505D01*
X124480412Y-90163614D01*
X124484027Y-90531914D01*
X124416626Y-90591904D01*
X124390731Y-90614682D01*
X124379656Y-90624034D01*
X124369491Y-90632177D01*
X124359981Y-90639228D01*
X124350871Y-90645297D01*
X124346387Y-90648000D01*
X124341907Y-90650501D01*
X124337400Y-90652813D01*
X124332835Y-90654951D01*
X124328178Y-90656930D01*
X124323399Y-90658762D01*
X124318466Y-90660463D01*
X124313347Y-90662047D01*
X124302422Y-90664921D01*
X124290371Y-90667495D01*
X124276939Y-90669884D01*
X124261872Y-90672202D01*
X124225814Y-90677079D01*
X124179970Y-90682664D01*
X124142030Y-90686289D01*
X124125570Y-90687335D01*
X124110540Y-90687852D01*
X124096760Y-90687827D01*
X124084047Y-90687249D01*
X124072220Y-90686105D01*
X124061096Y-90684380D01*
X124050495Y-90682064D01*
X124040234Y-90679143D01*
X124030132Y-90675604D01*
X124020008Y-90671434D01*
X124009678Y-90666621D01*
X123998962Y-90661153D01*
X123998950Y-90661153D01*
X123989232Y-90655653D01*
X123980018Y-90649638D01*
X123971296Y-90643013D01*
X123963052Y-90635683D01*
X123955272Y-90627553D01*
X123947944Y-90618527D01*
X123941054Y-90608510D01*
X123934588Y-90597407D01*
X123928533Y-90585123D01*
X123922875Y-90571561D01*
X123917603Y-90556627D01*
X123912700Y-90540225D01*
X123908156Y-90522261D01*
X123903955Y-90502638D01*
X123900086Y-90481262D01*
X123896533Y-90458037D01*
X123893285Y-90432868D01*
X123890326Y-90405659D01*
X123887645Y-90376316D01*
X123885228Y-90344742D01*
X123883061Y-90310843D01*
X123881131Y-90274523D01*
X123877929Y-90194240D01*
X123875513Y-90103131D01*
X123873777Y-90000431D01*
X123872613Y-89885380D01*
X123871916Y-89757215D01*
X123871885Y-89596179D01*
X123870603Y-89478728D01*
X123868290Y-89434031D01*
X123864220Y-89397451D01*
X123857912Y-89368061D01*
X123853769Y-89355774D01*
X123848886Y-89344937D01*
X123843202Y-89335434D01*
X123836658Y-89327150D01*
X123829194Y-89319970D01*
X123820749Y-89313776D01*
X123811264Y-89308454D01*
X123800678Y-89303887D01*
X123775962Y-89296558D01*
X123746120Y-89290861D01*
X123710673Y-89285871D01*
X123621032Y-89274306D01*
X123567083Y-89265337D01*
X123516935Y-89253985D01*
X123493220Y-89247347D01*
X123470378Y-89240031D01*
X123448381Y-89232010D01*
X123427205Y-89223255D01*
X123406822Y-89213741D01*
X123387208Y-89203439D01*
X123368335Y-89192322D01*
X123350179Y-89180363D01*
X123332713Y-89167534D01*
X123315911Y-89153808D01*
X123299747Y-89139158D01*
X123284195Y-89123555D01*
X123269230Y-89106973D01*
X123254824Y-89089385D01*
X123240953Y-89070762D01*
X123227591Y-89051078D01*
X123214710Y-89030305D01*
X123202286Y-89008415D01*
X123190292Y-88985382D01*
X123178702Y-88961177D01*
X123156632Y-88909146D01*
X123135867Y-88852101D01*
X123116200Y-88789823D01*
X123097423Y-88722094D01*
X123073645Y-88628052D01*
X123054293Y-88544351D01*
X123038978Y-88468258D01*
X123027307Y-88397037D01*
X123018889Y-88327957D01*
X123013333Y-88258282D01*
X123010248Y-88185279D01*
X123009241Y-88106215D01*
X123009020Y-88026906D01*
X123007920Y-87967128D01*
X123006732Y-87943536D01*
X123004952Y-87923594D01*
X123002457Y-87906891D01*
X122999123Y-87893016D01*
X122994826Y-87881558D01*
X122989442Y-87872107D01*
X122982847Y-87864251D01*
X122974918Y-87857580D01*
X122965531Y-87851682D01*
X122954561Y-87846147D01*
X122927378Y-87834522D01*
X122904601Y-87824200D01*
X122883058Y-87812664D01*
X122862756Y-87799967D01*
X122843703Y-87786165D01*
X122825905Y-87771311D01*
X122809368Y-87755460D01*
X122794100Y-87738667D01*
X122780108Y-87720987D01*
X122767398Y-87702473D01*
X122755977Y-87683182D01*
X122745852Y-87663166D01*
X122737030Y-87642482D01*
X122729517Y-87621182D01*
X122723321Y-87599323D01*
X122718448Y-87576958D01*
X122714905Y-87554142D01*
X122712698Y-87530930D01*
X122711836Y-87507376D01*
X122712324Y-87483536D01*
X122714169Y-87459462D01*
X122717378Y-87435210D01*
X122721958Y-87410835D01*
X122727916Y-87386392D01*
X122735259Y-87361934D01*
X122743992Y-87337516D01*
X122754125Y-87313193D01*
X122765662Y-87289020D01*
X122778610Y-87265051D01*
X122792978Y-87241340D01*
X122808771Y-87217943D01*
X122825996Y-87194913D01*
X122844661Y-87172306D01*
X122865315Y-87149822D01*
X122886669Y-87129185D01*
X122908608Y-87110431D01*
X122931021Y-87093600D01*
X122953792Y-87078728D01*
X122976809Y-87065853D01*
X122999957Y-87055015D01*
X123023124Y-87046249D01*
X123046195Y-87039595D01*
X123057659Y-87037071D01*
X123069057Y-87035089D01*
X123080374Y-87033655D01*
X123091597Y-87032771D01*
X123102710Y-87032444D01*
X123113700Y-87032678D01*
X123124553Y-87033477D01*
X123135254Y-87034847D01*
X123145790Y-87036792D01*
X123156145Y-87039317D01*
X123166306Y-87042426D01*
X123176259Y-87046125D01*
X123185989Y-87050418D01*
X123195482Y-87055309D01*
X123220029Y-87069460D01*
X123243622Y-87084157D01*
X123266245Y-87099367D01*
X123287883Y-87115054D01*
X123308522Y-87131183D01*
X123328146Y-87147720D01*
X123346741Y-87164629D01*
X123364290Y-87181876D01*
X123380780Y-87199424D01*
X123396194Y-87217241D01*
X123410518Y-87235289D01*
X123423738Y-87253535D01*
X123435837Y-87271944D01*
X123446800Y-87290480D01*
X123456614Y-87309109D01*
X123465261Y-87327795D01*
X123472729Y-87346504D01*
X123479000Y-87365201D01*
X123484061Y-87383850D01*
X123487897Y-87402417D01*
X123490491Y-87420867D01*
X123491830Y-87439164D01*
X123491897Y-87457274D01*
X123490679Y-87475162D01*
X123488160Y-87492793D01*
X123484324Y-87510131D01*
X123479157Y-87527143D01*
X123472644Y-87543792D01*
X123464769Y-87560044D01*
X123455518Y-87575864D01*
X123444875Y-87591217D01*
X123432826Y-87606068D01*
X123411410Y-87633864D01*
X123393074Y-87664519D01*
X123377728Y-87697789D01*
X123365282Y-87733429D01*
X123355647Y-87771191D01*
X123348734Y-87810832D01*
X123344452Y-87852106D01*
X123342713Y-87894767D01*
X123343426Y-87938571D01*
X123346503Y-87983270D01*
X123359387Y-88074378D01*
X123380650Y-88166126D01*
X123409574Y-88256552D01*
X123445444Y-88343693D01*
X123487542Y-88425585D01*
X123510703Y-88463950D01*
X123535153Y-88500265D01*
X123560802Y-88534287D01*
X123587560Y-88565770D01*
X123615338Y-88594467D01*
X123644046Y-88620135D01*
X123673595Y-88642527D01*
X123703896Y-88661398D01*
X123734858Y-88676503D01*
X123766392Y-88687596D01*
X123798409Y-88694432D01*
X123830818Y-88696765D01*
X123833794Y-88694918D01*
X123836651Y-88689504D01*
X123841995Y-88668737D01*
X123846821Y-88635990D01*
X123851098Y-88592788D01*
X123857882Y-88481121D01*
X123862104Y-88345939D01*
X123863520Y-88199444D01*
X123861884Y-88053840D01*
X123856953Y-87921330D01*
X123853176Y-87863798D01*
X123848483Y-87814115D01*
X123845967Y-87784439D01*
X123843257Y-87738840D01*
X123837593Y-87608990D01*
X123832174Y-87442796D01*
X123827682Y-87258490D01*
X123820785Y-86937538D01*
X123817140Y-86803456D01*
X123813954Y-86802922D01*
X123805337Y-86801783D01*
X123774181Y-86797975D01*
X123728410Y-86792596D01*
X123672761Y-86786214D01*
X123636536Y-86781556D01*
X123603976Y-86776182D01*
X123575028Y-86770032D01*
X123549638Y-86763042D01*
X123538261Y-86759213D01*
X123527753Y-86755151D01*
X123518108Y-86750849D01*
X123509319Y-86746298D01*
X123501378Y-86741491D01*
X123494281Y-86736421D01*
X123488019Y-86731079D01*
X123482586Y-86725458D01*
X123477976Y-86719550D01*
X123474181Y-86713347D01*
X123471195Y-86706842D01*
X123469012Y-86700027D01*
X123467624Y-86692894D01*
X123467024Y-86685436D01*
X123467207Y-86677645D01*
X123468165Y-86669513D01*
X123469891Y-86661032D01*
X123472380Y-86652195D01*
X123475623Y-86642994D01*
X123479616Y-86633421D01*
X123489818Y-86613130D01*
X123502934Y-86591259D01*
X123506908Y-86584843D01*
X123510861Y-86578027D01*
X123514770Y-86570870D01*
X123518610Y-86563433D01*
X123522357Y-86555774D01*
X123525986Y-86547956D01*
X123532795Y-86532077D01*
X123535925Y-86524137D01*
X123538841Y-86516277D01*
X123541517Y-86508556D01*
X123543929Y-86501035D01*
X123546053Y-86493774D01*
X123547865Y-86486833D01*
X123549340Y-86480271D01*
X123550454Y-86474150D01*
X123553539Y-86459064D01*
X123558896Y-86437975D01*
X123566232Y-86411846D01*
X123575250Y-86381640D01*
X123585658Y-86348321D01*
X123597161Y-86312852D01*
X123609463Y-86276196D01*
X123622271Y-86239315D01*
X123679454Y-86074678D01*
X123728684Y-85928524D01*
X123743082Y-85887518D01*
X123758637Y-85848698D01*
X123775264Y-85812085D01*
X123792875Y-85777696D01*
X123811382Y-85745552D01*
X123830699Y-85715671D01*
X123850738Y-85688072D01*
X123871411Y-85662776D01*
X123892633Y-85639801D01*
X123914314Y-85619165D01*
X123936369Y-85600889D01*
X123958710Y-85584992D01*
X123981249Y-85571492D01*
X124003900Y-85560409D01*
X124026575Y-85551763D01*
X124049187Y-85545571D01*
X124071648Y-85541854D01*
X124093872Y-85540631D01*
X124115771Y-85541920D01*
D10*
G36*
X143942085Y-87733081D02*
G01*
X143942085Y-85466118D01*
X144308423Y-85466118D01*
X144308423Y-88353491D01*
X143916482Y-88353491D01*
X142399922Y-86084560D01*
X142399922Y-88353491D01*
X142038797Y-88353491D01*
X142033582Y-88340749D01*
X142033582Y-85466118D01*
X142425525Y-85466118D01*
X143942085Y-87733081D01*
G37*
X143942085Y-87733081D02*
X143942085Y-85466118D01*
X144308423Y-85466118D01*
X144308423Y-88353491D01*
X143916482Y-88353491D01*
X142399922Y-86084560D01*
X142399922Y-88353491D01*
X142038797Y-88353491D01*
X142033582Y-88340749D01*
X142033582Y-85466118D01*
X142425525Y-85466118D01*
X143942085Y-87733081D01*
D12*
G36*
X134479145Y-89180018D02*
G01*
X134543235Y-89186146D01*
X134605730Y-89196555D01*
X134666211Y-89211420D01*
X134695566Y-89220580D01*
X134724259Y-89230919D01*
X134752240Y-89242460D01*
X134779455Y-89255224D01*
X134805852Y-89269235D01*
X134831379Y-89284513D01*
X134855984Y-89301081D01*
X134879613Y-89318960D01*
X134902216Y-89338173D01*
X134923738Y-89358741D01*
X134944129Y-89380686D01*
X134963335Y-89404030D01*
X134981304Y-89428796D01*
X134997984Y-89455004D01*
X135013323Y-89482677D01*
X135027267Y-89511837D01*
X135039765Y-89542506D01*
X135050765Y-89574706D01*
X135060213Y-89608458D01*
X135068058Y-89643784D01*
X135074246Y-89680707D01*
X135078727Y-89719248D01*
X135081447Y-89759430D01*
X135082354Y-89801274D01*
X135082298Y-89945046D01*
X135080057Y-90034680D01*
X135073591Y-90122990D01*
X135063180Y-90209989D01*
X135049106Y-90295692D01*
X135031652Y-90380114D01*
X135011098Y-90463268D01*
X134987727Y-90545169D01*
X134961821Y-90625832D01*
X134903527Y-90783499D01*
X134838473Y-90936386D01*
X134768912Y-91084605D01*
X134697098Y-91228274D01*
X134555728Y-91502418D01*
X134490681Y-91633124D01*
X134432397Y-91759739D01*
X134383132Y-91882378D01*
X134362585Y-91942243D01*
X134345139Y-92001157D01*
X134331073Y-92059135D01*
X134320672Y-92116191D01*
X134314215Y-92172339D01*
X134311985Y-92227594D01*
X135081420Y-92227896D01*
X135081176Y-92657587D01*
X133743736Y-92657058D01*
X133743909Y-92227460D01*
X133746240Y-92168765D01*
X133752985Y-92108631D01*
X133778538Y-91984208D01*
X133818213Y-91854508D01*
X133869659Y-91719849D01*
X133930520Y-91580550D01*
X133998443Y-91436927D01*
X134146060Y-91137986D01*
X134293681Y-90825568D01*
X134361609Y-90665100D01*
X134422476Y-90502216D01*
X134473929Y-90337235D01*
X134513615Y-90170474D01*
X134528309Y-90086526D01*
X134539179Y-90002251D01*
X134545930Y-89917691D01*
X134548268Y-89832885D01*
X134548085Y-89823806D01*
X134547531Y-89814560D01*
X134546614Y-89805178D01*
X134545340Y-89795687D01*
X134543717Y-89786120D01*
X134541750Y-89776505D01*
X134539448Y-89766872D01*
X134536816Y-89757251D01*
X134533862Y-89747673D01*
X134530593Y-89738166D01*
X134527014Y-89728761D01*
X134523134Y-89719487D01*
X134518960Y-89710375D01*
X134514497Y-89701453D01*
X134509753Y-89692753D01*
X134504734Y-89684304D01*
X134499448Y-89676135D01*
X134493902Y-89668277D01*
X134488102Y-89660759D01*
X134482054Y-89653612D01*
X134475767Y-89646864D01*
X134469246Y-89640547D01*
X134462500Y-89634689D01*
X134455533Y-89629321D01*
X134448354Y-89624472D01*
X134440969Y-89620173D01*
X134433385Y-89616453D01*
X134425610Y-89613341D01*
X134417648Y-89610869D01*
X134409509Y-89609065D01*
X134401198Y-89607959D01*
X134392722Y-89607582D01*
X134384246Y-89607954D01*
X134375935Y-89609053D01*
X134367794Y-89610851D01*
X134359831Y-89613318D01*
X134352053Y-89616424D01*
X134344466Y-89620138D01*
X134337078Y-89624432D01*
X134329895Y-89629275D01*
X134322924Y-89634638D01*
X134316173Y-89640490D01*
X134309647Y-89646803D01*
X134303355Y-89653545D01*
X134291495Y-89668201D01*
X134280650Y-89684219D01*
X134270874Y-89701360D01*
X134262222Y-89719386D01*
X134254749Y-89738059D01*
X134248510Y-89757139D01*
X134243560Y-89776389D01*
X134239954Y-89795568D01*
X134237747Y-89814440D01*
X134236995Y-89832764D01*
X134236747Y-90462294D01*
X133744654Y-90462103D01*
X133744914Y-89800744D01*
X133745854Y-89758901D01*
X133748606Y-89718722D01*
X133753117Y-89680184D01*
X133759336Y-89643266D01*
X133767208Y-89607945D01*
X133776684Y-89574201D01*
X133787708Y-89542010D01*
X133800231Y-89511351D01*
X133814198Y-89482201D01*
X133829559Y-89454540D01*
X133846259Y-89428345D01*
X133864248Y-89403594D01*
X133883473Y-89380264D01*
X133903880Y-89358335D01*
X133925419Y-89337784D01*
X133948037Y-89318589D01*
X133971680Y-89300729D01*
X133996298Y-89284180D01*
X134021837Y-89268922D01*
X134048245Y-89254932D01*
X134075470Y-89242189D01*
X134103460Y-89230670D01*
X134161522Y-89211218D01*
X134222015Y-89196401D01*
X134284518Y-89186042D01*
X134348612Y-89179966D01*
X134413879Y-89177997D01*
X134479145Y-89180018D01*
G37*
X134479145Y-89180018D02*
X134543235Y-89186146D01*
X134605730Y-89196555D01*
X134666211Y-89211420D01*
X134695566Y-89220580D01*
X134724259Y-89230919D01*
X134752240Y-89242460D01*
X134779455Y-89255224D01*
X134805852Y-89269235D01*
X134831379Y-89284513D01*
X134855984Y-89301081D01*
X134879613Y-89318960D01*
X134902216Y-89338173D01*
X134923738Y-89358741D01*
X134944129Y-89380686D01*
X134963335Y-89404030D01*
X134981304Y-89428796D01*
X134997984Y-89455004D01*
X135013323Y-89482677D01*
X135027267Y-89511837D01*
X135039765Y-89542506D01*
X135050765Y-89574706D01*
X135060213Y-89608458D01*
X135068058Y-89643784D01*
X135074246Y-89680707D01*
X135078727Y-89719248D01*
X135081447Y-89759430D01*
X135082354Y-89801274D01*
X135082298Y-89945046D01*
X135080057Y-90034680D01*
X135073591Y-90122990D01*
X135063180Y-90209989D01*
X135049106Y-90295692D01*
X135031652Y-90380114D01*
X135011098Y-90463268D01*
X134987727Y-90545169D01*
X134961821Y-90625832D01*
X134903527Y-90783499D01*
X134838473Y-90936386D01*
X134768912Y-91084605D01*
X134697098Y-91228274D01*
X134555728Y-91502418D01*
X134490681Y-91633124D01*
X134432397Y-91759739D01*
X134383132Y-91882378D01*
X134362585Y-91942243D01*
X134345139Y-92001157D01*
X134331073Y-92059135D01*
X134320672Y-92116191D01*
X134314215Y-92172339D01*
X134311985Y-92227594D01*
X135081420Y-92227896D01*
X135081176Y-92657587D01*
X133743736Y-92657058D01*
X133743909Y-92227460D01*
X133746240Y-92168765D01*
X133752985Y-92108631D01*
X133778538Y-91984208D01*
X133818213Y-91854508D01*
X133869659Y-91719849D01*
X133930520Y-91580550D01*
X133998443Y-91436927D01*
X134146060Y-91137986D01*
X134293681Y-90825568D01*
X134361609Y-90665100D01*
X134422476Y-90502216D01*
X134473929Y-90337235D01*
X134513615Y-90170474D01*
X134528309Y-90086526D01*
X134539179Y-90002251D01*
X134545930Y-89917691D01*
X134548268Y-89832885D01*
X134548085Y-89823806D01*
X134547531Y-89814560D01*
X134546614Y-89805178D01*
X134545340Y-89795687D01*
X134543717Y-89786120D01*
X134541750Y-89776505D01*
X134539448Y-89766872D01*
X134536816Y-89757251D01*
X134533862Y-89747673D01*
X134530593Y-89738166D01*
X134527014Y-89728761D01*
X134523134Y-89719487D01*
X134518960Y-89710375D01*
X134514497Y-89701453D01*
X134509753Y-89692753D01*
X134504734Y-89684304D01*
X134499448Y-89676135D01*
X134493902Y-89668277D01*
X134488102Y-89660759D01*
X134482054Y-89653612D01*
X134475767Y-89646864D01*
X134469246Y-89640547D01*
X134462500Y-89634689D01*
X134455533Y-89629321D01*
X134448354Y-89624472D01*
X134440969Y-89620173D01*
X134433385Y-89616453D01*
X134425610Y-89613341D01*
X134417648Y-89610869D01*
X134409509Y-89609065D01*
X134401198Y-89607959D01*
X134392722Y-89607582D01*
X134384246Y-89607954D01*
X134375935Y-89609053D01*
X134367794Y-89610851D01*
X134359831Y-89613318D01*
X134352053Y-89616424D01*
X134344466Y-89620138D01*
X134337078Y-89624432D01*
X134329895Y-89629275D01*
X134322924Y-89634638D01*
X134316173Y-89640490D01*
X134309647Y-89646803D01*
X134303355Y-89653545D01*
X134291495Y-89668201D01*
X134280650Y-89684219D01*
X134270874Y-89701360D01*
X134262222Y-89719386D01*
X134254749Y-89738059D01*
X134248510Y-89757139D01*
X134243560Y-89776389D01*
X134239954Y-89795568D01*
X134237747Y-89814440D01*
X134236995Y-89832764D01*
X134236747Y-90462294D01*
X133744654Y-90462103D01*
X133744914Y-89800744D01*
X133745854Y-89758901D01*
X133748606Y-89718722D01*
X133753117Y-89680184D01*
X133759336Y-89643266D01*
X133767208Y-89607945D01*
X133776684Y-89574201D01*
X133787708Y-89542010D01*
X133800231Y-89511351D01*
X133814198Y-89482201D01*
X133829559Y-89454540D01*
X133846259Y-89428345D01*
X133864248Y-89403594D01*
X133883473Y-89380264D01*
X133903880Y-89358335D01*
X133925419Y-89337784D01*
X133948037Y-89318589D01*
X133971680Y-89300729D01*
X133996298Y-89284180D01*
X134021837Y-89268922D01*
X134048245Y-89254932D01*
X134075470Y-89242189D01*
X134103460Y-89230670D01*
X134161522Y-89211218D01*
X134222015Y-89196401D01*
X134284518Y-89186042D01*
X134348612Y-89179966D01*
X134413879Y-89177997D01*
X134479145Y-89180018D01*
G36*
X133882835Y-88885446D02*
G01*
X132917026Y-93120123D01*
X132833312Y-93113956D01*
X133799121Y-88879280D01*
X133882835Y-88885446D01*
G37*
X133882835Y-88885446D02*
X132917026Y-93120123D01*
X132833312Y-93113956D01*
X133799121Y-88879280D01*
X133882835Y-88885446D01*
G36*
X131140422Y-89243536D02*
G01*
X131177822Y-89245456D01*
X131219038Y-89250000D01*
X131243662Y-89253793D01*
X131270347Y-89258837D01*
X131298633Y-89265313D01*
X131328059Y-89273398D01*
X131358164Y-89283271D01*
X131388485Y-89295110D01*
X131418563Y-89309095D01*
X131447937Y-89325403D01*
X131462215Y-89334485D01*
X131476144Y-89344214D01*
X131489666Y-89354614D01*
X131502724Y-89365706D01*
X131519318Y-89381190D01*
X131534875Y-89396996D01*
X131549429Y-89413072D01*
X131563013Y-89429363D01*
X131575660Y-89445817D01*
X131587405Y-89462379D01*
X131598279Y-89478997D01*
X131608318Y-89495617D01*
X131617554Y-89512186D01*
X131626020Y-89528651D01*
X131633751Y-89544957D01*
X131640780Y-89561052D01*
X131647139Y-89576882D01*
X131652863Y-89592394D01*
X131662539Y-89622250D01*
X131670074Y-89650193D01*
X131675736Y-89675796D01*
X131679793Y-89698631D01*
X131682512Y-89718272D01*
X131685008Y-89746264D01*
X131685364Y-89756353D01*
X131684891Y-90743634D01*
X131684471Y-90752863D01*
X131681550Y-90778241D01*
X131678372Y-90795904D01*
X131673633Y-90816305D01*
X131667021Y-90839013D01*
X131658225Y-90863593D01*
X131646934Y-90889612D01*
X131632834Y-90916639D01*
X131615614Y-90944240D01*
X131605737Y-90958121D01*
X131594964Y-90971983D01*
X131583254Y-90985772D01*
X131570570Y-90999433D01*
X131556872Y-91012914D01*
X131542121Y-91026159D01*
X131526278Y-91039115D01*
X131509305Y-91051728D01*
X131491163Y-91063943D01*
X131471811Y-91075706D01*
X131454783Y-91085126D01*
X131437444Y-91093957D01*
X131419849Y-91102218D01*
X131402055Y-91109928D01*
X131384118Y-91117107D01*
X131366092Y-91123772D01*
X131330002Y-91135639D01*
X131294231Y-91145682D01*
X131259227Y-91154054D01*
X131225435Y-91160907D01*
X131193304Y-91166392D01*
X131163279Y-91170662D01*
X131135808Y-91173869D01*
X131090313Y-91177703D01*
X131049628Y-91179309D01*
X131049045Y-92655684D01*
X130520063Y-92655427D01*
X130520841Y-90771942D01*
X131049846Y-90771942D01*
X131150018Y-90771982D01*
X131153642Y-90771855D01*
X131157219Y-90771473D01*
X131160744Y-90770845D01*
X131164213Y-90769975D01*
X131167621Y-90768870D01*
X131170964Y-90767537D01*
X131174238Y-90765981D01*
X131177437Y-90764209D01*
X131180557Y-90762227D01*
X131183595Y-90760041D01*
X131186546Y-90757657D01*
X131189405Y-90755082D01*
X131194829Y-90749383D01*
X131199833Y-90742992D01*
X131204382Y-90735961D01*
X131208440Y-90728338D01*
X131211971Y-90720173D01*
X131214941Y-90711517D01*
X131217313Y-90702419D01*
X131219052Y-90692928D01*
X131220124Y-90683094D01*
X131220491Y-90672968D01*
X131220831Y-89822465D01*
X131220741Y-89817368D01*
X131220471Y-89812338D01*
X131220025Y-89807382D01*
X131219408Y-89802504D01*
X131218623Y-89797712D01*
X131217676Y-89793012D01*
X131216571Y-89788410D01*
X131215311Y-89783912D01*
X131213903Y-89779524D01*
X131212349Y-89775253D01*
X131210655Y-89771105D01*
X131208824Y-89767086D01*
X131206862Y-89763202D01*
X131204772Y-89759460D01*
X131202560Y-89755866D01*
X131200229Y-89752425D01*
X131197784Y-89749145D01*
X131195230Y-89746031D01*
X131192570Y-89743090D01*
X131189810Y-89740327D01*
X131186953Y-89737750D01*
X131184005Y-89735364D01*
X131180968Y-89733175D01*
X131177849Y-89731191D01*
X131174651Y-89729416D01*
X131171379Y-89727857D01*
X131168038Y-89726521D01*
X131164630Y-89725414D01*
X131161162Y-89724541D01*
X131157637Y-89723910D01*
X131154061Y-89723526D01*
X131150436Y-89723395D01*
X131050264Y-89723355D01*
X131049846Y-90771942D01*
X130520841Y-90771942D01*
X130521472Y-89243282D01*
X131140422Y-89243536D01*
G37*
X131140422Y-89243536D02*
X131177822Y-89245456D01*
X131219038Y-89250000D01*
X131243662Y-89253793D01*
X131270347Y-89258837D01*
X131298633Y-89265313D01*
X131328059Y-89273398D01*
X131358164Y-89283271D01*
X131388485Y-89295110D01*
X131418563Y-89309095D01*
X131447937Y-89325403D01*
X131462215Y-89334485D01*
X131476144Y-89344214D01*
X131489666Y-89354614D01*
X131502724Y-89365706D01*
X131519318Y-89381190D01*
X131534875Y-89396996D01*
X131549429Y-89413072D01*
X131563013Y-89429363D01*
X131575660Y-89445817D01*
X131587405Y-89462379D01*
X131598279Y-89478997D01*
X131608318Y-89495617D01*
X131617554Y-89512186D01*
X131626020Y-89528651D01*
X131633751Y-89544957D01*
X131640780Y-89561052D01*
X131647139Y-89576882D01*
X131652863Y-89592394D01*
X131662539Y-89622250D01*
X131670074Y-89650193D01*
X131675736Y-89675796D01*
X131679793Y-89698631D01*
X131682512Y-89718272D01*
X131685008Y-89746264D01*
X131685364Y-89756353D01*
X131684891Y-90743634D01*
X131684471Y-90752863D01*
X131681550Y-90778241D01*
X131678372Y-90795904D01*
X131673633Y-90816305D01*
X131667021Y-90839013D01*
X131658225Y-90863593D01*
X131646934Y-90889612D01*
X131632834Y-90916639D01*
X131615614Y-90944240D01*
X131605737Y-90958121D01*
X131594964Y-90971983D01*
X131583254Y-90985772D01*
X131570570Y-90999433D01*
X131556872Y-91012914D01*
X131542121Y-91026159D01*
X131526278Y-91039115D01*
X131509305Y-91051728D01*
X131491163Y-91063943D01*
X131471811Y-91075706D01*
X131454783Y-91085126D01*
X131437444Y-91093957D01*
X131419849Y-91102218D01*
X131402055Y-91109928D01*
X131384118Y-91117107D01*
X131366092Y-91123772D01*
X131330002Y-91135639D01*
X131294231Y-91145682D01*
X131259227Y-91154054D01*
X131225435Y-91160907D01*
X131193304Y-91166392D01*
X131163279Y-91170662D01*
X131135808Y-91173869D01*
X131090313Y-91177703D01*
X131049628Y-91179309D01*
X131049045Y-92655684D01*
X130520063Y-92655427D01*
X130520841Y-90771942D01*
X131049846Y-90771942D01*
X131150018Y-90771982D01*
X131153642Y-90771855D01*
X131157219Y-90771473D01*
X131160744Y-90770845D01*
X131164213Y-90769975D01*
X131167621Y-90768870D01*
X131170964Y-90767537D01*
X131174238Y-90765981D01*
X131177437Y-90764209D01*
X131180557Y-90762227D01*
X131183595Y-90760041D01*
X131186546Y-90757657D01*
X131189405Y-90755082D01*
X131194829Y-90749383D01*
X131199833Y-90742992D01*
X131204382Y-90735961D01*
X131208440Y-90728338D01*
X131211971Y-90720173D01*
X131214941Y-90711517D01*
X131217313Y-90702419D01*
X131219052Y-90692928D01*
X131220124Y-90683094D01*
X131220491Y-90672968D01*
X131220831Y-89822465D01*
X131220741Y-89817368D01*
X131220471Y-89812338D01*
X131220025Y-89807382D01*
X131219408Y-89802504D01*
X131218623Y-89797712D01*
X131217676Y-89793012D01*
X131216571Y-89788410D01*
X131215311Y-89783912D01*
X131213903Y-89779524D01*
X131212349Y-89775253D01*
X131210655Y-89771105D01*
X131208824Y-89767086D01*
X131206862Y-89763202D01*
X131204772Y-89759460D01*
X131202560Y-89755866D01*
X131200229Y-89752425D01*
X131197784Y-89749145D01*
X131195230Y-89746031D01*
X131192570Y-89743090D01*
X131189810Y-89740327D01*
X131186953Y-89737750D01*
X131184005Y-89735364D01*
X131180968Y-89733175D01*
X131177849Y-89731191D01*
X131174651Y-89729416D01*
X131171379Y-89727857D01*
X131168038Y-89726521D01*
X131164630Y-89725414D01*
X131161162Y-89724541D01*
X131157637Y-89723910D01*
X131154061Y-89723526D01*
X131150436Y-89723395D01*
X131050264Y-89723355D01*
X131049846Y-90771942D01*
X130520841Y-90771942D01*
X130521472Y-89243282D01*
X131140422Y-89243536D01*
D10*
G36*
X137846882Y-87510522D02*
G01*
X137928619Y-87760162D01*
X137959886Y-87858025D01*
X137984752Y-87937915D01*
X138012818Y-87849900D01*
X138047777Y-87743422D01*
X138089630Y-87618478D01*
X138138378Y-87475068D01*
X138829692Y-85466118D01*
X139343747Y-85466118D01*
X139343747Y-88334782D01*
X139336562Y-88353491D01*
X138975441Y-88353491D01*
X138975441Y-85936840D01*
X138136407Y-88353491D01*
X137791734Y-88353491D01*
X136956642Y-85895483D01*
X136956642Y-88353491D01*
X136588334Y-88353491D01*
X136588334Y-85466118D01*
X137163446Y-85466118D01*
X137846882Y-87510522D01*
G37*
X137846882Y-87510522D02*
X137928619Y-87760162D01*
X137959886Y-87858025D01*
X137984752Y-87937915D01*
X138012818Y-87849900D01*
X138047777Y-87743422D01*
X138089630Y-87618478D01*
X138138378Y-87475068D01*
X138829692Y-85466118D01*
X139343747Y-85466118D01*
X139343747Y-88334782D01*
X139336562Y-88353491D01*
X138975441Y-88353491D01*
X138975441Y-85936840D01*
X138136407Y-88353491D01*
X137791734Y-88353491D01*
X136956642Y-85895483D01*
X136956642Y-88353491D01*
X136588334Y-88353491D01*
X136588334Y-85466118D01*
X137163446Y-85466118D01*
X137846882Y-87510522D01*
D12*
G36*
X132449718Y-89205928D02*
G01*
X132500059Y-89210729D01*
X132547152Y-89218459D01*
X132591105Y-89228910D01*
X132632026Y-89241873D01*
X132670025Y-89257137D01*
X132705209Y-89274494D01*
X132737687Y-89293734D01*
X132767567Y-89314648D01*
X132794957Y-89337026D01*
X132819965Y-89360660D01*
X132842701Y-89385340D01*
X132863271Y-89410856D01*
X132881785Y-89437000D01*
X132898351Y-89463562D01*
X132913077Y-89490332D01*
X132926071Y-89517102D01*
X132937443Y-89543661D01*
X132955748Y-89595313D01*
X132968860Y-89643613D01*
X132977645Y-89686886D01*
X132982970Y-89723459D01*
X132985700Y-89751655D01*
X132986845Y-89776221D01*
X132986605Y-90390919D01*
X132494512Y-90390727D01*
X132494750Y-89745918D01*
X132494590Y-89741106D01*
X132493465Y-89728418D01*
X132492238Y-89719942D01*
X132490406Y-89710481D01*
X132487849Y-89700363D01*
X132484444Y-89689916D01*
X132482387Y-89684673D01*
X132480072Y-89679470D01*
X132477484Y-89674349D01*
X132474610Y-89669351D01*
X132471432Y-89664516D01*
X132467937Y-89659887D01*
X132464109Y-89655504D01*
X132459933Y-89651407D01*
X132455394Y-89647639D01*
X132450477Y-89644239D01*
X132445166Y-89641250D01*
X132439447Y-89638711D01*
X132433303Y-89636664D01*
X132426721Y-89635151D01*
X132419685Y-89634211D01*
X132412180Y-89633886D01*
X132404675Y-89634204D01*
X132397638Y-89635138D01*
X132391055Y-89636645D01*
X132384910Y-89638687D01*
X132379189Y-89641220D01*
X132373876Y-89644205D01*
X132368956Y-89647601D01*
X132364414Y-89651365D01*
X132360235Y-89655458D01*
X132356403Y-89659838D01*
X132352905Y-89664465D01*
X132349724Y-89669296D01*
X132346845Y-89674292D01*
X132344254Y-89679411D01*
X132341935Y-89684613D01*
X132339873Y-89689855D01*
X132336461Y-89700299D01*
X132333895Y-89710415D01*
X132332056Y-89719875D01*
X132330822Y-89728352D01*
X132329688Y-89741039D01*
X132329525Y-89745851D01*
X132329335Y-90181035D01*
X132329566Y-90194128D01*
X132330249Y-90207178D01*
X132331353Y-90220160D01*
X132332849Y-90233051D01*
X132334705Y-90245825D01*
X132336892Y-90258458D01*
X132339380Y-90270926D01*
X132342139Y-90283204D01*
X132348349Y-90307094D01*
X132355282Y-90329932D01*
X132362696Y-90351522D01*
X132370351Y-90371670D01*
X132378007Y-90390179D01*
X132385423Y-90406855D01*
X132392358Y-90421501D01*
X132398572Y-90433922D01*
X132407872Y-90451310D01*
X132411400Y-90457453D01*
X132904090Y-91213532D01*
X132911042Y-91224631D01*
X132917591Y-91235939D01*
X132923751Y-91247421D01*
X132929533Y-91259040D01*
X132934948Y-91270757D01*
X132940010Y-91282538D01*
X132949117Y-91306139D01*
X132956950Y-91329548D01*
X132963604Y-91352469D01*
X132969173Y-91374608D01*
X132973752Y-91395670D01*
X132977438Y-91415358D01*
X132980323Y-91433380D01*
X132982504Y-91449438D01*
X132984076Y-91463238D01*
X132986166Y-91489958D01*
X132985895Y-92140979D01*
X132984731Y-92165544D01*
X132981979Y-92193737D01*
X132976625Y-92230305D01*
X132967806Y-92273570D01*
X132954656Y-92321859D01*
X132936310Y-92373495D01*
X132924919Y-92400045D01*
X132911903Y-92426804D01*
X132897156Y-92453562D01*
X132880570Y-92480111D01*
X132862035Y-92506239D01*
X132841445Y-92531739D01*
X132818690Y-92556400D01*
X132793663Y-92580014D01*
X132766255Y-92602370D01*
X132736359Y-92623260D01*
X132703867Y-92642474D01*
X132668669Y-92659803D01*
X132630658Y-92675037D01*
X132589727Y-92687966D01*
X132545765Y-92698382D01*
X132498667Y-92706075D01*
X132448323Y-92710836D01*
X132394625Y-92712455D01*
X132340928Y-92710794D01*
X132290587Y-92705993D01*
X132243495Y-92698262D01*
X132199542Y-92687811D01*
X132158620Y-92674849D01*
X132120621Y-92659585D01*
X132085437Y-92642228D01*
X132052960Y-92622988D01*
X132023080Y-92602074D01*
X131995690Y-92579695D01*
X131970682Y-92556061D01*
X131947946Y-92531382D01*
X131927376Y-92505865D01*
X131908862Y-92479721D01*
X131892296Y-92453160D01*
X131877570Y-92426389D01*
X131864576Y-92399620D01*
X131853205Y-92373060D01*
X131834899Y-92321408D01*
X131821787Y-92273108D01*
X131813002Y-92229834D01*
X131807678Y-92193262D01*
X131804947Y-92165066D01*
X131803803Y-92140499D01*
X131804078Y-91451215D01*
X132328842Y-91451423D01*
X132328573Y-92140651D01*
X132328733Y-92145446D01*
X132329857Y-92158085D01*
X132331084Y-92166530D01*
X132332916Y-92175956D01*
X132335474Y-92186036D01*
X132338878Y-92196443D01*
X132340936Y-92201667D01*
X132343251Y-92206850D01*
X132345838Y-92211952D01*
X132348713Y-92216931D01*
X132351890Y-92221747D01*
X132355385Y-92226359D01*
X132359213Y-92230725D01*
X132363390Y-92234806D01*
X132367929Y-92238560D01*
X132372846Y-92241947D01*
X132378157Y-92244925D01*
X132383877Y-92247453D01*
X132390020Y-92249492D01*
X132396603Y-92251000D01*
X132403639Y-92251935D01*
X132411144Y-92252258D01*
X132418650Y-92251941D01*
X132425687Y-92251011D01*
X132432271Y-92249508D01*
X132438416Y-92247475D01*
X132444138Y-92244951D01*
X132449451Y-92241978D01*
X132454372Y-92238595D01*
X132458914Y-92234846D01*
X132463093Y-92230769D01*
X132466925Y-92226406D01*
X132470424Y-92221798D01*
X132473605Y-92216985D01*
X132476483Y-92212009D01*
X132479075Y-92206910D01*
X132481394Y-92201730D01*
X132483456Y-92196508D01*
X132486869Y-92186106D01*
X132489435Y-92176030D01*
X132491274Y-92166608D01*
X132492508Y-92158166D01*
X132493642Y-92145529D01*
X132493806Y-92140736D01*
X132494008Y-91661110D01*
X132493777Y-91648016D01*
X132493094Y-91634966D01*
X132491990Y-91621984D01*
X132490494Y-91609094D01*
X132488638Y-91596319D01*
X132486451Y-91583686D01*
X132483963Y-91571218D01*
X132481204Y-91558940D01*
X132474994Y-91535050D01*
X132468061Y-91512212D01*
X132460647Y-91490622D01*
X132452992Y-91470474D01*
X132445336Y-91451965D01*
X132437921Y-91435289D01*
X132430986Y-91420643D01*
X132424772Y-91408221D01*
X132415472Y-91390834D01*
X132411944Y-91384691D01*
X131886595Y-90578497D01*
X131879644Y-90567399D01*
X131873096Y-90556090D01*
X131866937Y-90544609D01*
X131861156Y-90532991D01*
X131855741Y-90521274D01*
X131850681Y-90509494D01*
X131841575Y-90485893D01*
X131833743Y-90462485D01*
X131827090Y-90439564D01*
X131821522Y-90417426D01*
X131816942Y-90396365D01*
X131813258Y-90376676D01*
X131810373Y-90358655D01*
X131808192Y-90342597D01*
X131806620Y-90328797D01*
X131804530Y-90302078D01*
X131804752Y-89775743D01*
X131805916Y-89751178D01*
X131808668Y-89722984D01*
X131814022Y-89686417D01*
X131822841Y-89643151D01*
X131835990Y-89594862D01*
X131854336Y-89543226D01*
X131865728Y-89516676D01*
X131878744Y-89489917D01*
X131893490Y-89463159D01*
X131910077Y-89436611D01*
X131928612Y-89410482D01*
X131949202Y-89384982D01*
X131971957Y-89360321D01*
X131996984Y-89336708D01*
X132024391Y-89314351D01*
X132054287Y-89293461D01*
X132086780Y-89274247D01*
X132121978Y-89256919D01*
X132159988Y-89241685D01*
X132200920Y-89228755D01*
X132244881Y-89218339D01*
X132291980Y-89210646D01*
X132342324Y-89205885D01*
X132396022Y-89204267D01*
X132449718Y-89205928D01*
G37*
X132449718Y-89205928D02*
X132500059Y-89210729D01*
X132547152Y-89218459D01*
X132591105Y-89228910D01*
X132632026Y-89241873D01*
X132670025Y-89257137D01*
X132705209Y-89274494D01*
X132737687Y-89293734D01*
X132767567Y-89314648D01*
X132794957Y-89337026D01*
X132819965Y-89360660D01*
X132842701Y-89385340D01*
X132863271Y-89410856D01*
X132881785Y-89437000D01*
X132898351Y-89463562D01*
X132913077Y-89490332D01*
X132926071Y-89517102D01*
X132937443Y-89543661D01*
X132955748Y-89595313D01*
X132968860Y-89643613D01*
X132977645Y-89686886D01*
X132982970Y-89723459D01*
X132985700Y-89751655D01*
X132986845Y-89776221D01*
X132986605Y-90390919D01*
X132494512Y-90390727D01*
X132494750Y-89745918D01*
X132494590Y-89741106D01*
X132493465Y-89728418D01*
X132492238Y-89719942D01*
X132490406Y-89710481D01*
X132487849Y-89700363D01*
X132484444Y-89689916D01*
X132482387Y-89684673D01*
X132480072Y-89679470D01*
X132477484Y-89674349D01*
X132474610Y-89669351D01*
X132471432Y-89664516D01*
X132467937Y-89659887D01*
X132464109Y-89655504D01*
X132459933Y-89651407D01*
X132455394Y-89647639D01*
X132450477Y-89644239D01*
X132445166Y-89641250D01*
X132439447Y-89638711D01*
X132433303Y-89636664D01*
X132426721Y-89635151D01*
X132419685Y-89634211D01*
X132412180Y-89633886D01*
X132404675Y-89634204D01*
X132397638Y-89635138D01*
X132391055Y-89636645D01*
X132384910Y-89638687D01*
X132379189Y-89641220D01*
X132373876Y-89644205D01*
X132368956Y-89647601D01*
X132364414Y-89651365D01*
X132360235Y-89655458D01*
X132356403Y-89659838D01*
X132352905Y-89664465D01*
X132349724Y-89669296D01*
X132346845Y-89674292D01*
X132344254Y-89679411D01*
X132341935Y-89684613D01*
X132339873Y-89689855D01*
X132336461Y-89700299D01*
X132333895Y-89710415D01*
X132332056Y-89719875D01*
X132330822Y-89728352D01*
X132329688Y-89741039D01*
X132329525Y-89745851D01*
X132329335Y-90181035D01*
X132329566Y-90194128D01*
X132330249Y-90207178D01*
X132331353Y-90220160D01*
X132332849Y-90233051D01*
X132334705Y-90245825D01*
X132336892Y-90258458D01*
X132339380Y-90270926D01*
X132342139Y-90283204D01*
X132348349Y-90307094D01*
X132355282Y-90329932D01*
X132362696Y-90351522D01*
X132370351Y-90371670D01*
X132378007Y-90390179D01*
X132385423Y-90406855D01*
X132392358Y-90421501D01*
X132398572Y-90433922D01*
X132407872Y-90451310D01*
X132411400Y-90457453D01*
X132904090Y-91213532D01*
X132911042Y-91224631D01*
X132917591Y-91235939D01*
X132923751Y-91247421D01*
X132929533Y-91259040D01*
X132934948Y-91270757D01*
X132940010Y-91282538D01*
X132949117Y-91306139D01*
X132956950Y-91329548D01*
X132963604Y-91352469D01*
X132969173Y-91374608D01*
X132973752Y-91395670D01*
X132977438Y-91415358D01*
X132980323Y-91433380D01*
X132982504Y-91449438D01*
X132984076Y-91463238D01*
X132986166Y-91489958D01*
X132985895Y-92140979D01*
X132984731Y-92165544D01*
X132981979Y-92193737D01*
X132976625Y-92230305D01*
X132967806Y-92273570D01*
X132954656Y-92321859D01*
X132936310Y-92373495D01*
X132924919Y-92400045D01*
X132911903Y-92426804D01*
X132897156Y-92453562D01*
X132880570Y-92480111D01*
X132862035Y-92506239D01*
X132841445Y-92531739D01*
X132818690Y-92556400D01*
X132793663Y-92580014D01*
X132766255Y-92602370D01*
X132736359Y-92623260D01*
X132703867Y-92642474D01*
X132668669Y-92659803D01*
X132630658Y-92675037D01*
X132589727Y-92687966D01*
X132545765Y-92698382D01*
X132498667Y-92706075D01*
X132448323Y-92710836D01*
X132394625Y-92712455D01*
X132340928Y-92710794D01*
X132290587Y-92705993D01*
X132243495Y-92698262D01*
X132199542Y-92687811D01*
X132158620Y-92674849D01*
X132120621Y-92659585D01*
X132085437Y-92642228D01*
X132052960Y-92622988D01*
X132023080Y-92602074D01*
X131995690Y-92579695D01*
X131970682Y-92556061D01*
X131947946Y-92531382D01*
X131927376Y-92505865D01*
X131908862Y-92479721D01*
X131892296Y-92453160D01*
X131877570Y-92426389D01*
X131864576Y-92399620D01*
X131853205Y-92373060D01*
X131834899Y-92321408D01*
X131821787Y-92273108D01*
X131813002Y-92229834D01*
X131807678Y-92193262D01*
X131804947Y-92165066D01*
X131803803Y-92140499D01*
X131804078Y-91451215D01*
X132328842Y-91451423D01*
X132328573Y-92140651D01*
X132328733Y-92145446D01*
X132329857Y-92158085D01*
X132331084Y-92166530D01*
X132332916Y-92175956D01*
X132335474Y-92186036D01*
X132338878Y-92196443D01*
X132340936Y-92201667D01*
X132343251Y-92206850D01*
X132345838Y-92211952D01*
X132348713Y-92216931D01*
X132351890Y-92221747D01*
X132355385Y-92226359D01*
X132359213Y-92230725D01*
X132363390Y-92234806D01*
X132367929Y-92238560D01*
X132372846Y-92241947D01*
X132378157Y-92244925D01*
X132383877Y-92247453D01*
X132390020Y-92249492D01*
X132396603Y-92251000D01*
X132403639Y-92251935D01*
X132411144Y-92252258D01*
X132418650Y-92251941D01*
X132425687Y-92251011D01*
X132432271Y-92249508D01*
X132438416Y-92247475D01*
X132444138Y-92244951D01*
X132449451Y-92241978D01*
X132454372Y-92238595D01*
X132458914Y-92234846D01*
X132463093Y-92230769D01*
X132466925Y-92226406D01*
X132470424Y-92221798D01*
X132473605Y-92216985D01*
X132476483Y-92212009D01*
X132479075Y-92206910D01*
X132481394Y-92201730D01*
X132483456Y-92196508D01*
X132486869Y-92186106D01*
X132489435Y-92176030D01*
X132491274Y-92166608D01*
X132492508Y-92158166D01*
X132493642Y-92145529D01*
X132493806Y-92140736D01*
X132494008Y-91661110D01*
X132493777Y-91648016D01*
X132493094Y-91634966D01*
X132491990Y-91621984D01*
X132490494Y-91609094D01*
X132488638Y-91596319D01*
X132486451Y-91583686D01*
X132483963Y-91571218D01*
X132481204Y-91558940D01*
X132474994Y-91535050D01*
X132468061Y-91512212D01*
X132460647Y-91490622D01*
X132452992Y-91470474D01*
X132445336Y-91451965D01*
X132437921Y-91435289D01*
X132430986Y-91420643D01*
X132424772Y-91408221D01*
X132415472Y-91390834D01*
X132411944Y-91384691D01*
X131886595Y-90578497D01*
X131879644Y-90567399D01*
X131873096Y-90556090D01*
X131866937Y-90544609D01*
X131861156Y-90532991D01*
X131855741Y-90521274D01*
X131850681Y-90509494D01*
X131841575Y-90485893D01*
X131833743Y-90462485D01*
X131827090Y-90439564D01*
X131821522Y-90417426D01*
X131816942Y-90396365D01*
X131813258Y-90376676D01*
X131810373Y-90358655D01*
X131808192Y-90342597D01*
X131806620Y-90328797D01*
X131804530Y-90302078D01*
X131804752Y-89775743D01*
X131805916Y-89751178D01*
X131808668Y-89722984D01*
X131814022Y-89686417D01*
X131822841Y-89643151D01*
X131835990Y-89594862D01*
X131854336Y-89543226D01*
X131865728Y-89516676D01*
X131878744Y-89489917D01*
X131893490Y-89463159D01*
X131910077Y-89436611D01*
X131928612Y-89410482D01*
X131949202Y-89384982D01*
X131971957Y-89360321D01*
X131996984Y-89336708D01*
X132024391Y-89314351D01*
X132054287Y-89293461D01*
X132086780Y-89274247D01*
X132121978Y-89256919D01*
X132159988Y-89241685D01*
X132200920Y-89228755D01*
X132244881Y-89218339D01*
X132291980Y-89210646D01*
X132342324Y-89205885D01*
X132396022Y-89204267D01*
X132449718Y-89205928D01*
D13*
X105285714Y-116928571D02*
X105285714Y-115928571D01*
X105285714Y-116214285D02*
X105357142Y-116071428D01*
X105428571Y-116000000D01*
X105571428Y-115928571D01*
X105714285Y-115928571D01*
X106857142Y-116928571D02*
X106857142Y-116142857D01*
X106785714Y-116000000D01*
X106642857Y-115928571D01*
X106357142Y-115928571D01*
X106214285Y-116000000D01*
X106857142Y-116857142D02*
X106714285Y-116928571D01*
X106357142Y-116928571D01*
X106214285Y-116857142D01*
X106142857Y-116714285D01*
X106142857Y-116571428D01*
X106214285Y-116428571D01*
X106357142Y-116357142D01*
X106714285Y-116357142D01*
X106857142Y-116285714D01*
X107500000Y-116857142D02*
X107642857Y-116928571D01*
X107928571Y-116928571D01*
X108071428Y-116857142D01*
X108142857Y-116714285D01*
X108142857Y-116642857D01*
X108071428Y-116500000D01*
X107928571Y-116428571D01*
X107714285Y-116428571D01*
X107571428Y-116357142D01*
X107500000Y-116214285D01*
X107500000Y-116142857D01*
X107571428Y-116000000D01*
X107714285Y-115928571D01*
X107928571Y-115928571D01*
X108071428Y-116000000D01*
X108571428Y-115928571D02*
X109142857Y-115928571D01*
X108785714Y-115428571D02*
X108785714Y-116714285D01*
X108857142Y-116857142D01*
X109000000Y-116928571D01*
X109142857Y-116928571D01*
X110214285Y-116857142D02*
X110071428Y-116928571D01*
X109785714Y-116928571D01*
X109642857Y-116857142D01*
X109571428Y-116714285D01*
X109571428Y-116142857D01*
X109642857Y-116000000D01*
X109785714Y-115928571D01*
X110071428Y-115928571D01*
X110214285Y-116000000D01*
X110285714Y-116142857D01*
X110285714Y-116285714D01*
X109571428Y-116428571D01*
X110928571Y-116928571D02*
X110928571Y-115928571D01*
X110928571Y-116214285D02*
X111000000Y-116071428D01*
X111071428Y-116000000D01*
X111214285Y-115928571D01*
X111357142Y-115928571D01*
X111857142Y-116928571D02*
X111857142Y-115928571D01*
X111857142Y-115428571D02*
X111785714Y-115500000D01*
X111857142Y-115571428D01*
X111928571Y-115500000D01*
X111857142Y-115428571D01*
X111857142Y-115571428D01*
X112571428Y-116785714D02*
X112642857Y-116857142D01*
X112571428Y-116928571D01*
X112500000Y-116857142D01*
X112571428Y-116785714D01*
X112571428Y-116928571D01*
X113928571Y-116857142D02*
X113785714Y-116928571D01*
X113500000Y-116928571D01*
X113357142Y-116857142D01*
X113285714Y-116785714D01*
X113214285Y-116642857D01*
X113214285Y-116214285D01*
X113285714Y-116071428D01*
X113357142Y-116000000D01*
X113500000Y-115928571D01*
X113785714Y-115928571D01*
X113928571Y-116000000D01*
X114785714Y-116928571D02*
X114642857Y-116857142D01*
X114571428Y-116785714D01*
X114500000Y-116642857D01*
X114500000Y-116214285D01*
X114571428Y-116071428D01*
X114642857Y-116000000D01*
X114785714Y-115928571D01*
X115000000Y-115928571D01*
X115142857Y-116000000D01*
X115214285Y-116071428D01*
X115285714Y-116214285D01*
X115285714Y-116642857D01*
X115214285Y-116785714D01*
X115142857Y-116857142D01*
X115000000Y-116928571D01*
X114785714Y-116928571D01*
X115928571Y-116928571D02*
X115928571Y-115928571D01*
X115928571Y-116071428D02*
X116000000Y-116000000D01*
X116142857Y-115928571D01*
X116357142Y-115928571D01*
X116500000Y-116000000D01*
X116571428Y-116142857D01*
X116571428Y-116928571D01*
X116571428Y-116142857D02*
X116642857Y-116000000D01*
X116785714Y-115928571D01*
X117000000Y-115928571D01*
X117142857Y-116000000D01*
X117214285Y-116142857D01*
X117214285Y-116928571D01*
X106178571Y-114428571D02*
X105678571Y-113714285D01*
X105321428Y-114428571D02*
X105321428Y-112928571D01*
X105892857Y-112928571D01*
X106035714Y-113000000D01*
X106107142Y-113071428D01*
X106178571Y-113214285D01*
X106178571Y-113428571D01*
X106107142Y-113571428D01*
X106035714Y-113642857D01*
X105892857Y-113714285D01*
X105321428Y-113714285D01*
X106821428Y-113642857D02*
X107321428Y-113642857D01*
X107535714Y-114428571D02*
X106821428Y-114428571D01*
X106821428Y-112928571D01*
X107535714Y-112928571D01*
X107964285Y-112928571D02*
X108464285Y-114428571D01*
X108964285Y-112928571D01*
X110535714Y-114000000D02*
X111250000Y-114000000D01*
X110392857Y-114428571D02*
X110892857Y-112928571D01*
X111392857Y-114428571D01*
D14*
%TO.C,RN1*%
X138019126Y-96601769D02*
X137685793Y-96125579D01*
X137447698Y-96601769D02*
X137447698Y-95601769D01*
X137828650Y-95601769D01*
X137923888Y-95649389D01*
X137971507Y-95697008D01*
X138019126Y-95792246D01*
X138019126Y-95935103D01*
X137971507Y-96030341D01*
X137923888Y-96077960D01*
X137828650Y-96125579D01*
X137447698Y-96125579D01*
X138447698Y-96601769D02*
X138447698Y-95601769D01*
X139019126Y-96601769D01*
X139019126Y-95601769D01*
X140019126Y-96601769D02*
X139447698Y-96601769D01*
X139733412Y-96601769D02*
X139733412Y-95601769D01*
X139638174Y-95744627D01*
X139542936Y-95839865D01*
X139447698Y-95887484D01*
%TO.C,U1*%
X138238098Y-107202369D02*
X138238098Y-108011893D01*
X138285717Y-108107131D01*
X138333336Y-108154750D01*
X138428574Y-108202369D01*
X138619050Y-108202369D01*
X138714288Y-108154750D01*
X138761907Y-108107131D01*
X138809526Y-108011893D01*
X138809526Y-107202369D01*
X139809526Y-108202369D02*
X139238098Y-108202369D01*
X139523812Y-108202369D02*
X139523812Y-107202369D01*
X139428574Y-107345227D01*
X139333336Y-107440465D01*
X139238098Y-107488084D01*
%TO.C,R1*%
X127265333Y-115892380D02*
X126932000Y-115416190D01*
X126693904Y-115892380D02*
X126693904Y-114892380D01*
X127074857Y-114892380D01*
X127170095Y-114940000D01*
X127217714Y-114987619D01*
X127265333Y-115082857D01*
X127265333Y-115225714D01*
X127217714Y-115320952D01*
X127170095Y-115368571D01*
X127074857Y-115416190D01*
X126693904Y-115416190D01*
X128217714Y-115892380D02*
X127646285Y-115892380D01*
X127932000Y-115892380D02*
X127932000Y-114892380D01*
X127836761Y-115035238D01*
X127741523Y-115130476D01*
X127646285Y-115178095D01*
%TO.C,C3*%
X132083333Y-115857142D02*
X132035714Y-115904761D01*
X131892857Y-115952380D01*
X131797619Y-115952380D01*
X131654761Y-115904761D01*
X131559523Y-115809523D01*
X131511904Y-115714285D01*
X131464285Y-115523809D01*
X131464285Y-115380952D01*
X131511904Y-115190476D01*
X131559523Y-115095238D01*
X131654761Y-115000000D01*
X131797619Y-114952380D01*
X131892857Y-114952380D01*
X132035714Y-115000000D01*
X132083333Y-115047619D01*
X132416666Y-114952380D02*
X133035714Y-114952380D01*
X132702380Y-115333333D01*
X132845238Y-115333333D01*
X132940476Y-115380952D01*
X132988095Y-115428571D01*
X133035714Y-115523809D01*
X133035714Y-115761904D01*
X132988095Y-115857142D01*
X132940476Y-115904761D01*
X132845238Y-115952380D01*
X132559523Y-115952380D01*
X132464285Y-115904761D01*
X132416666Y-115857142D01*
%TO.C,R3*%
X120137333Y-115892380D02*
X119804000Y-115416190D01*
X119565904Y-115892380D02*
X119565904Y-114892380D01*
X119946857Y-114892380D01*
X120042095Y-114940000D01*
X120089714Y-114987619D01*
X120137333Y-115082857D01*
X120137333Y-115225714D01*
X120089714Y-115320952D01*
X120042095Y-115368571D01*
X119946857Y-115416190D01*
X119565904Y-115416190D01*
X120470666Y-114892380D02*
X121089714Y-114892380D01*
X120756380Y-115273333D01*
X120899238Y-115273333D01*
X120994476Y-115320952D01*
X121042095Y-115368571D01*
X121089714Y-115463809D01*
X121089714Y-115701904D01*
X121042095Y-115797142D01*
X120994476Y-115844761D01*
X120899238Y-115892380D01*
X120613523Y-115892380D01*
X120518285Y-115844761D01*
X120470666Y-115797142D01*
%TO.C,TP1*%
X141486298Y-107336569D02*
X142057726Y-107336569D01*
X141772012Y-108336569D02*
X141772012Y-107336569D01*
X142391060Y-108336569D02*
X142391060Y-107336569D01*
X142772012Y-107336569D01*
X142867250Y-107384189D01*
X142914869Y-107431808D01*
X142962488Y-107527046D01*
X142962488Y-107669903D01*
X142914869Y-107765141D01*
X142867250Y-107812760D01*
X142772012Y-107860379D01*
X142391060Y-107860379D01*
X143914869Y-108336569D02*
X143343441Y-108336569D01*
X143629155Y-108336569D02*
X143629155Y-107336569D01*
X143533917Y-107479427D01*
X143438679Y-107574665D01*
X143343441Y-107622284D01*
%TO.C,C4*%
X135583333Y-115857142D02*
X135535714Y-115904761D01*
X135392857Y-115952380D01*
X135297619Y-115952380D01*
X135154761Y-115904761D01*
X135059523Y-115809523D01*
X135011904Y-115714285D01*
X134964285Y-115523809D01*
X134964285Y-115380952D01*
X135011904Y-115190476D01*
X135059523Y-115095238D01*
X135154761Y-115000000D01*
X135297619Y-114952380D01*
X135392857Y-114952380D01*
X135535714Y-115000000D01*
X135583333Y-115047619D01*
X136440476Y-115285714D02*
X136440476Y-115952380D01*
X136202380Y-114904761D02*
X135964285Y-115619047D01*
X136583333Y-115619047D01*
%TO.C,TP3*%
X139809898Y-102154969D02*
X140381326Y-102154969D01*
X140095612Y-103154969D02*
X140095612Y-102154969D01*
X140714660Y-103154969D02*
X140714660Y-102154969D01*
X141095612Y-102154969D01*
X141190850Y-102202589D01*
X141238469Y-102250208D01*
X141286088Y-102345446D01*
X141286088Y-102488303D01*
X141238469Y-102583541D01*
X141190850Y-102631160D01*
X141095612Y-102678779D01*
X140714660Y-102678779D01*
X141619422Y-102154969D02*
X142238469Y-102154969D01*
X141905136Y-102535922D01*
X142047993Y-102535922D01*
X142143231Y-102583541D01*
X142190850Y-102631160D01*
X142238469Y-102726398D01*
X142238469Y-102964493D01*
X142190850Y-103059731D01*
X142143231Y-103107350D01*
X142047993Y-103154969D01*
X141762279Y-103154969D01*
X141667041Y-103107350D01*
X141619422Y-103059731D01*
%TO.C,S1*%
X108458295Y-88379361D02*
X108601152Y-88426980D01*
X108839247Y-88426980D01*
X108934485Y-88379361D01*
X108982104Y-88331742D01*
X109029723Y-88236504D01*
X109029723Y-88141266D01*
X108982104Y-88046028D01*
X108934485Y-87998409D01*
X108839247Y-87950790D01*
X108648771Y-87903171D01*
X108553533Y-87855552D01*
X108505914Y-87807933D01*
X108458295Y-87712695D01*
X108458295Y-87617457D01*
X108505914Y-87522219D01*
X108553533Y-87474600D01*
X108648771Y-87426980D01*
X108886866Y-87426980D01*
X109029723Y-87474600D01*
X109982104Y-88426980D02*
X109410676Y-88426980D01*
X109696390Y-88426980D02*
X109696390Y-87426980D01*
X109601152Y-87569838D01*
X109505914Y-87665076D01*
X109410676Y-87712695D01*
%TO.C,C2*%
X124333339Y-97632142D02*
X124285720Y-97679761D01*
X124142863Y-97727380D01*
X124047625Y-97727380D01*
X123904767Y-97679761D01*
X123809529Y-97584523D01*
X123761910Y-97489285D01*
X123714291Y-97298809D01*
X123714291Y-97155952D01*
X123761910Y-96965476D01*
X123809529Y-96870238D01*
X123904767Y-96775000D01*
X124047625Y-96727380D01*
X124142863Y-96727380D01*
X124285720Y-96775000D01*
X124333339Y-96822619D01*
X124714291Y-96822619D02*
X124761910Y-96775000D01*
X124857148Y-96727380D01*
X125095244Y-96727380D01*
X125190482Y-96775000D01*
X125238101Y-96822619D01*
X125285720Y-96917857D01*
X125285720Y-97013095D01*
X125238101Y-97155952D01*
X124666672Y-97727380D01*
X125285720Y-97727380D01*
%TO.C,R2*%
X123955333Y-115892380D02*
X123622000Y-115416190D01*
X123383904Y-115892380D02*
X123383904Y-114892380D01*
X123764857Y-114892380D01*
X123860095Y-114940000D01*
X123907714Y-114987619D01*
X123955333Y-115082857D01*
X123955333Y-115225714D01*
X123907714Y-115320952D01*
X123860095Y-115368571D01*
X123764857Y-115416190D01*
X123383904Y-115416190D01*
X124336285Y-114987619D02*
X124383904Y-114940000D01*
X124479142Y-114892380D01*
X124717238Y-114892380D01*
X124812476Y-114940000D01*
X124860095Y-114987619D01*
X124907714Y-115082857D01*
X124907714Y-115178095D01*
X124860095Y-115320952D01*
X124288666Y-115892380D01*
X124907714Y-115892380D01*
%TO.C,D1*%
X102767104Y-111177380D02*
X102767104Y-110177380D01*
X103005200Y-110177380D01*
X103148057Y-110225000D01*
X103243295Y-110320238D01*
X103290914Y-110415476D01*
X103338533Y-110605952D01*
X103338533Y-110748809D01*
X103290914Y-110939285D01*
X103243295Y-111034523D01*
X103148057Y-111129761D01*
X103005200Y-111177380D01*
X102767104Y-111177380D01*
X104290914Y-111177380D02*
X103719485Y-111177380D01*
X104005200Y-111177380D02*
X104005200Y-110177380D01*
X103909961Y-110320238D01*
X103814723Y-110415476D01*
X103719485Y-110463095D01*
%TO.C,J1*%
X145416669Y-90952358D02*
X145416669Y-91666644D01*
X145369050Y-91809501D01*
X145273812Y-91904739D01*
X145130955Y-91952358D01*
X145035717Y-91952358D01*
X146416669Y-91952358D02*
X145845241Y-91952358D01*
X146130955Y-91952358D02*
X146130955Y-90952358D01*
X146035717Y-91095216D01*
X145940479Y-91190454D01*
X145845241Y-91238073D01*
%TO.C,J2*%
X120164466Y-106422180D02*
X120164466Y-107136466D01*
X120116847Y-107279323D01*
X120021609Y-107374561D01*
X119878752Y-107422180D01*
X119783514Y-107422180D01*
X120593038Y-106517419D02*
X120640657Y-106469800D01*
X120735895Y-106422180D01*
X120973990Y-106422180D01*
X121069228Y-106469800D01*
X121116847Y-106517419D01*
X121164466Y-106612657D01*
X121164466Y-106707895D01*
X121116847Y-106850752D01*
X120545419Y-107422180D01*
X121164466Y-107422180D01*
%TO.C,F1*%
X144319869Y-112232360D02*
X143986536Y-112232360D01*
X143986536Y-112756169D02*
X143986536Y-111756169D01*
X144462726Y-111756169D01*
X145367488Y-112756169D02*
X144796060Y-112756169D01*
X145081774Y-112756169D02*
X145081774Y-111756169D01*
X144986536Y-111899027D01*
X144891298Y-111994265D01*
X144796060Y-112041884D01*
%TO.C,TP2*%
X143467498Y-102154969D02*
X144038926Y-102154969D01*
X143753212Y-103154969D02*
X143753212Y-102154969D01*
X144372260Y-103154969D02*
X144372260Y-102154969D01*
X144753212Y-102154969D01*
X144848450Y-102202589D01*
X144896069Y-102250208D01*
X144943688Y-102345446D01*
X144943688Y-102488303D01*
X144896069Y-102583541D01*
X144848450Y-102631160D01*
X144753212Y-102678779D01*
X144372260Y-102678779D01*
X145324641Y-102250208D02*
X145372260Y-102202589D01*
X145467498Y-102154969D01*
X145705593Y-102154969D01*
X145800831Y-102202589D01*
X145848450Y-102250208D01*
X145896069Y-102345446D01*
X145896069Y-102440684D01*
X145848450Y-102583541D01*
X145277022Y-103154969D01*
X145896069Y-103154969D01*
%TO.C,C1*%
X121083339Y-97632142D02*
X121035720Y-97679761D01*
X120892863Y-97727380D01*
X120797625Y-97727380D01*
X120654767Y-97679761D01*
X120559529Y-97584523D01*
X120511910Y-97489285D01*
X120464291Y-97298809D01*
X120464291Y-97155952D01*
X120511910Y-96965476D01*
X120559529Y-96870238D01*
X120654767Y-96775000D01*
X120797625Y-96727380D01*
X120892863Y-96727380D01*
X121035720Y-96775000D01*
X121083339Y-96822619D01*
X122035720Y-97727380D02*
X121464291Y-97727380D01*
X121750006Y-97727380D02*
X121750006Y-96727380D01*
X121654767Y-96870238D01*
X121559529Y-96965476D01*
X121464291Y-97013095D01*
%TO.C,J3*%
X145517666Y-107260369D02*
X145517666Y-107974655D01*
X145470047Y-108117512D01*
X145374809Y-108212750D01*
X145231952Y-108260369D01*
X145136714Y-108260369D01*
X145898619Y-107260369D02*
X146517666Y-107260369D01*
X146184333Y-107641322D01*
X146327190Y-107641322D01*
X146422428Y-107688941D01*
X146470047Y-107736560D01*
X146517666Y-107831798D01*
X146517666Y-108069893D01*
X146470047Y-108165131D01*
X146422428Y-108212750D01*
X146327190Y-108260369D01*
X146041476Y-108260369D01*
X145946238Y-108212750D01*
X145898619Y-108165131D01*
%TO.C,C5*%
X139083333Y-115857142D02*
X139035714Y-115904761D01*
X138892857Y-115952380D01*
X138797619Y-115952380D01*
X138654761Y-115904761D01*
X138559523Y-115809523D01*
X138511904Y-115714285D01*
X138464285Y-115523809D01*
X138464285Y-115380952D01*
X138511904Y-115190476D01*
X138559523Y-115095238D01*
X138654761Y-115000000D01*
X138797619Y-114952380D01*
X138892857Y-114952380D01*
X139035714Y-115000000D01*
X139083333Y-115047619D01*
X139988095Y-114952380D02*
X139511904Y-114952380D01*
X139464285Y-115428571D01*
X139511904Y-115380952D01*
X139607142Y-115333333D01*
X139845238Y-115333333D01*
X139940476Y-115380952D01*
X139988095Y-115428571D01*
X140035714Y-115523809D01*
X140035714Y-115761904D01*
X139988095Y-115857142D01*
X139940476Y-115904761D01*
X139845238Y-115952380D01*
X139607142Y-115952380D01*
X139511904Y-115904761D01*
X139464285Y-115857142D01*
D15*
%TO.C,RN1*%
X141922003Y-94397189D02*
X143422003Y-94397189D01*
X141922003Y-100797189D02*
X143422003Y-100797189D01*
X143422003Y-100797189D02*
X143422003Y-94397189D01*
X141922003Y-100797189D02*
X141922003Y-94397189D01*
%TO.C,U1*%
X137250000Y-105750000D02*
X136250000Y-106750000D01*
X136250000Y-106750000D02*
X131250000Y-106750000D01*
X131250000Y-106750000D02*
X131250000Y-100750000D01*
X131250000Y-100750000D02*
X137250000Y-100750000D01*
X137250000Y-100750000D02*
X137250000Y-105750000D01*
D16*
X139905000Y-106500000D02*
G75*
G03*
X139905000Y-106500000I-155000J0D01*
G01*
D15*
%TO.C,R1*%
X126590000Y-112977064D02*
X126590000Y-111522936D01*
X128410000Y-112977064D02*
X128410000Y-111522936D01*
%TO.C,C3*%
X132910003Y-112961241D02*
X132910003Y-111538737D01*
X131090003Y-112961241D02*
X131090003Y-111538737D01*
%TO.C,R3*%
X119590000Y-112977064D02*
X119590000Y-111522936D01*
X121410000Y-112977064D02*
X121410000Y-111522936D01*
%TO.C,TP1*%
X143295803Y-106055389D02*
G75*
G03*
X143295803Y-106055389I-700000J0D01*
G01*
%TO.C,C4*%
X136410003Y-112961241D02*
X136410003Y-111538737D01*
X134590003Y-112961241D02*
X134590003Y-111538737D01*
%TO.C,TP3*%
X142076603Y-104226589D02*
G75*
G03*
X142076603Y-104226589I-700000J0D01*
G01*
%TO.C,S1*%
X107930000Y-85250000D02*
X107930000Y-92250000D01*
X107930000Y-92250000D02*
X106930000Y-92250000D01*
X101680000Y-92250000D02*
X101680000Y-85250000D01*
X101680000Y-85250000D02*
X103930000Y-85250000D01*
X106930000Y-85250000D02*
X107930000Y-85250000D01*
X103930000Y-92250000D02*
X101680000Y-92250000D01*
X106180000Y-88750000D02*
X104430000Y-88750000D01*
X104430000Y-88750000D02*
X105180000Y-89500000D01*
X104430000Y-88750000D02*
X105180000Y-88000000D01*
%TO.C,C2*%
X123590006Y-101236252D02*
X123590006Y-99813748D01*
X125410006Y-101236252D02*
X125410006Y-99813748D01*
%TO.C,R2*%
X124910000Y-112977064D02*
X124910000Y-111522936D01*
X123090000Y-112977064D02*
X123090000Y-111522936D01*
%TO.C,D1*%
X101000000Y-113250000D02*
X101000000Y-111250000D01*
X101000000Y-111250000D02*
G75*
G03*
X101000000Y-113250000I0J-1000000D01*
G01*
D17*
%TO.C,J1*%
X157000000Y-98749989D02*
X159500000Y-98749989D01*
X147000000Y-85249989D02*
X147000000Y-98749989D01*
X157000000Y-85249989D02*
X159500000Y-85249989D01*
X147000000Y-98749989D02*
X152000000Y-98749989D01*
X152000000Y-85249989D02*
X147000000Y-85249989D01*
D15*
%TO.C,J2*%
X110220000Y-100500000D02*
X108470000Y-100500000D01*
X107470000Y-94000000D02*
X107470000Y-107000000D01*
X108470000Y-100500000D02*
X109220000Y-99750000D01*
X108470000Y-100500000D02*
X109220000Y-101250000D01*
%TO.C,F1*%
X143505803Y-111701725D02*
X143505803Y-112905853D01*
X141685803Y-111701725D02*
X141685803Y-112905853D01*
%TO.C,TP2*%
X144438803Y-104226589D02*
G75*
G03*
X144438803Y-104226589I-700000J0D01*
G01*
%TO.C,C1*%
X121660006Y-101236252D02*
X121660006Y-99813748D01*
X119840006Y-101236252D02*
X119840006Y-99813748D01*
D17*
%TO.C,J3*%
X157000000Y-102249989D02*
X159500000Y-102249989D01*
X147000000Y-102249989D02*
X147000000Y-115749989D01*
X152000000Y-102249989D02*
X147000000Y-102249989D01*
X147000000Y-115749989D02*
X152000000Y-115749989D01*
X157000000Y-115749989D02*
X159500000Y-115749989D01*
D15*
%TO.C,C5*%
X138090003Y-113015041D02*
X138090003Y-111592537D01*
X139910003Y-113015041D02*
X139910003Y-111592537D01*
%TD*%
M02*
