%TF.GenerationSoftware,KiCad,Pcbnew,(6.0.6)*%
%TF.CreationDate,2022-11-01T13:57:15+00:00*%
%TF.ProjectId,ps2usb,70733275-7362-42e6-9b69-6361645f7063,rev?*%
%TF.SameCoordinates,Original*%
%TF.FileFunction,Soldermask,Bot*%
%TF.FilePolarity,Negative*%
%FSLAX46Y46*%
G04 Gerber Fmt 4.6, Leading zero omitted, Abs format (unit mm)*
G04 Created by KiCad (PCBNEW (6.0.6)) date 2022-11-01 13:57:15*
%MOMM*%
%LPD*%
G01*
G04 APERTURE LIST*
%ADD10C,0.080000*%
%ADD11C,0.100000*%
%ADD12C,1.800000*%
%ADD13O,4.400000X3.000000*%
%ADD14C,4.400000*%
%ADD15O,3.000000X1.500000*%
%ADD16O,5.000000X3.500000*%
%ADD17C,2.000000*%
%ADD18C,2.600000*%
%ADD19C,4.000000*%
%ADD20R,1.600000X1.600000*%
%ADD21C,1.600000*%
G04 APERTURE END LIST*
D10*
G36*
X120216594Y-91105335D02*
G01*
X120137873Y-91104381D01*
X120063215Y-91101519D01*
X119992618Y-91096749D01*
X119926084Y-91090071D01*
X119894340Y-91086016D01*
X119863612Y-91081485D01*
X119833899Y-91076476D01*
X119805202Y-91070990D01*
X119777521Y-91065028D01*
X119750855Y-91058588D01*
X119725205Y-91051671D01*
X119700570Y-91044277D01*
X119668734Y-91033683D01*
X119637728Y-91022581D01*
X119607554Y-91010971D01*
X119578211Y-90998854D01*
X119549698Y-90986229D01*
X119522017Y-90973096D01*
X119495166Y-90959455D01*
X119469146Y-90945307D01*
X119443957Y-90930650D01*
X119419599Y-90915486D01*
X119396072Y-90899814D01*
X119373376Y-90883635D01*
X119351511Y-90866947D01*
X119330477Y-90849752D01*
X119310274Y-90832049D01*
X119290901Y-90813838D01*
X119266151Y-90788996D01*
X119242124Y-90763214D01*
X119218820Y-90736495D01*
X119196239Y-90708836D01*
X119174382Y-90680239D01*
X119153248Y-90650704D01*
X119132836Y-90620229D01*
X119113149Y-90588816D01*
X119094184Y-90556465D01*
X119075942Y-90523175D01*
X119058424Y-90488946D01*
X119041629Y-90453779D01*
X119025557Y-90417673D01*
X119010208Y-90380628D01*
X118995583Y-90342645D01*
X118981680Y-90303723D01*
X118970948Y-90271087D01*
X118960908Y-90237681D01*
X118942905Y-90168562D01*
X118927671Y-90096365D01*
X118915208Y-90021091D01*
X118905514Y-89942739D01*
X118898590Y-89861310D01*
X118894435Y-89776803D01*
X118893050Y-89689219D01*
X118893431Y-89663618D01*
X119495735Y-89663618D01*
X119496659Y-89745140D01*
X119499428Y-89822292D01*
X119504044Y-89895073D01*
X119510507Y-89963485D01*
X119518816Y-90027526D01*
X119523663Y-90057908D01*
X119528972Y-90087198D01*
X119534742Y-90115395D01*
X119540974Y-90142499D01*
X119547667Y-90168511D01*
X119554822Y-90193430D01*
X119562347Y-90217134D01*
X119570148Y-90239992D01*
X119578226Y-90262003D01*
X119586581Y-90283168D01*
X119595213Y-90303486D01*
X119604122Y-90322959D01*
X119613309Y-90341585D01*
X119622772Y-90359364D01*
X119632512Y-90376298D01*
X119642529Y-90392385D01*
X119652823Y-90407626D01*
X119663394Y-90422021D01*
X119674242Y-90435570D01*
X119685366Y-90448272D01*
X119696768Y-90460128D01*
X119708447Y-90471138D01*
X119720211Y-90481532D01*
X119732359Y-90491541D01*
X119744892Y-90501165D01*
X119757809Y-90510405D01*
X119771112Y-90519260D01*
X119784799Y-90527731D01*
X119798870Y-90535817D01*
X119813326Y-90543518D01*
X119828167Y-90550834D01*
X119843393Y-90557766D01*
X119859003Y-90564313D01*
X119874998Y-90570476D01*
X119891378Y-90576254D01*
X119908142Y-90581647D01*
X119925291Y-90586655D01*
X119942825Y-90591279D01*
X119972030Y-90597742D01*
X120005482Y-90603342D01*
X120043181Y-90608082D01*
X120085126Y-90611959D01*
X120131318Y-90614975D01*
X120181758Y-90617129D01*
X120236444Y-90618422D01*
X120295376Y-90618853D01*
X120730649Y-90618853D01*
X120730649Y-88706410D01*
X120468697Y-88706412D01*
X120383237Y-88706843D01*
X120305101Y-88708136D01*
X120234289Y-88710290D01*
X120170802Y-88713306D01*
X120114638Y-88717183D01*
X120065800Y-88721922D01*
X120024285Y-88727523D01*
X120006274Y-88730647D01*
X119990094Y-88733986D01*
X119969883Y-88738671D01*
X119950118Y-88743864D01*
X119930800Y-88749566D01*
X119911927Y-88755774D01*
X119893501Y-88762491D01*
X119875521Y-88769715D01*
X119857988Y-88777447D01*
X119840900Y-88785687D01*
X119824259Y-88794435D01*
X119808064Y-88803690D01*
X119792315Y-88813453D01*
X119777013Y-88823724D01*
X119762156Y-88834503D01*
X119747746Y-88845789D01*
X119733782Y-88857583D01*
X119720265Y-88869885D01*
X119707155Y-88882749D01*
X119694414Y-88896228D01*
X119682043Y-88910323D01*
X119670041Y-88925033D01*
X119658408Y-88940358D01*
X119647145Y-88956299D01*
X119636251Y-88972856D01*
X119625726Y-88990028D01*
X119615571Y-89007816D01*
X119605784Y-89026219D01*
X119596367Y-89045237D01*
X119587320Y-89064872D01*
X119578641Y-89085121D01*
X119570332Y-89105986D01*
X119562393Y-89127467D01*
X119554822Y-89149563D01*
X119540974Y-89196802D01*
X119528972Y-89248903D01*
X119518816Y-89305867D01*
X119510507Y-89367693D01*
X119504044Y-89434381D01*
X119499428Y-89505931D01*
X119496659Y-89582344D01*
X119495735Y-89663618D01*
X118893431Y-89663618D01*
X118894528Y-89589818D01*
X118898959Y-89494479D01*
X118906345Y-89403202D01*
X118911146Y-89359087D01*
X118916685Y-89315988D01*
X118922963Y-89273904D01*
X118929980Y-89232835D01*
X118937735Y-89192783D01*
X118946229Y-89153745D01*
X118955461Y-89115724D01*
X118965432Y-89078717D01*
X118976141Y-89042727D01*
X118987590Y-89007752D01*
X118999745Y-88973377D01*
X119012578Y-88939679D01*
X119026088Y-88906658D01*
X119040275Y-88874314D01*
X119055139Y-88842647D01*
X119070681Y-88811658D01*
X119086899Y-88781345D01*
X119103794Y-88751709D01*
X119121366Y-88722750D01*
X119139615Y-88694469D01*
X119158541Y-88666864D01*
X119178144Y-88639937D01*
X119198425Y-88613686D01*
X119219382Y-88588113D01*
X119241016Y-88563216D01*
X119263327Y-88538997D01*
X119286262Y-88515570D01*
X119309766Y-88493051D01*
X119333840Y-88471440D01*
X119358482Y-88450736D01*
X119383694Y-88430941D01*
X119409475Y-88412053D01*
X119435826Y-88394073D01*
X119462746Y-88377001D01*
X119490235Y-88360837D01*
X119518294Y-88345581D01*
X119546921Y-88331232D01*
X119576119Y-88317791D01*
X119605885Y-88305259D01*
X119636221Y-88293634D01*
X119667126Y-88282916D01*
X119698600Y-88273107D01*
X119748547Y-88260182D01*
X119803849Y-88248980D01*
X119864505Y-88239501D01*
X119930516Y-88231746D01*
X120001881Y-88225714D01*
X120078602Y-88221406D01*
X120160677Y-88218821D01*
X120248107Y-88217959D01*
X121313639Y-88217959D01*
X121313639Y-91105335D01*
X120216594Y-91105335D01*
G37*
X120216594Y-91105335D02*
X120137873Y-91104381D01*
X120063215Y-91101519D01*
X119992618Y-91096749D01*
X119926084Y-91090071D01*
X119894340Y-91086016D01*
X119863612Y-91081485D01*
X119833899Y-91076476D01*
X119805202Y-91070990D01*
X119777521Y-91065028D01*
X119750855Y-91058588D01*
X119725205Y-91051671D01*
X119700570Y-91044277D01*
X119668734Y-91033683D01*
X119637728Y-91022581D01*
X119607554Y-91010971D01*
X119578211Y-90998854D01*
X119549698Y-90986229D01*
X119522017Y-90973096D01*
X119495166Y-90959455D01*
X119469146Y-90945307D01*
X119443957Y-90930650D01*
X119419599Y-90915486D01*
X119396072Y-90899814D01*
X119373376Y-90883635D01*
X119351511Y-90866947D01*
X119330477Y-90849752D01*
X119310274Y-90832049D01*
X119290901Y-90813838D01*
X119266151Y-90788996D01*
X119242124Y-90763214D01*
X119218820Y-90736495D01*
X119196239Y-90708836D01*
X119174382Y-90680239D01*
X119153248Y-90650704D01*
X119132836Y-90620229D01*
X119113149Y-90588816D01*
X119094184Y-90556465D01*
X119075942Y-90523175D01*
X119058424Y-90488946D01*
X119041629Y-90453779D01*
X119025557Y-90417673D01*
X119010208Y-90380628D01*
X118995583Y-90342645D01*
X118981680Y-90303723D01*
X118970948Y-90271087D01*
X118960908Y-90237681D01*
X118942905Y-90168562D01*
X118927671Y-90096365D01*
X118915208Y-90021091D01*
X118905514Y-89942739D01*
X118898590Y-89861310D01*
X118894435Y-89776803D01*
X118893050Y-89689219D01*
X118893431Y-89663618D01*
X119495735Y-89663618D01*
X119496659Y-89745140D01*
X119499428Y-89822292D01*
X119504044Y-89895073D01*
X119510507Y-89963485D01*
X119518816Y-90027526D01*
X119523663Y-90057908D01*
X119528972Y-90087198D01*
X119534742Y-90115395D01*
X119540974Y-90142499D01*
X119547667Y-90168511D01*
X119554822Y-90193430D01*
X119562347Y-90217134D01*
X119570148Y-90239992D01*
X119578226Y-90262003D01*
X119586581Y-90283168D01*
X119595213Y-90303486D01*
X119604122Y-90322959D01*
X119613309Y-90341585D01*
X119622772Y-90359364D01*
X119632512Y-90376298D01*
X119642529Y-90392385D01*
X119652823Y-90407626D01*
X119663394Y-90422021D01*
X119674242Y-90435570D01*
X119685366Y-90448272D01*
X119696768Y-90460128D01*
X119708447Y-90471138D01*
X119720211Y-90481532D01*
X119732359Y-90491541D01*
X119744892Y-90501165D01*
X119757809Y-90510405D01*
X119771112Y-90519260D01*
X119784799Y-90527731D01*
X119798870Y-90535817D01*
X119813326Y-90543518D01*
X119828167Y-90550834D01*
X119843393Y-90557766D01*
X119859003Y-90564313D01*
X119874998Y-90570476D01*
X119891378Y-90576254D01*
X119908142Y-90581647D01*
X119925291Y-90586655D01*
X119942825Y-90591279D01*
X119972030Y-90597742D01*
X120005482Y-90603342D01*
X120043181Y-90608082D01*
X120085126Y-90611959D01*
X120131318Y-90614975D01*
X120181758Y-90617129D01*
X120236444Y-90618422D01*
X120295376Y-90618853D01*
X120730649Y-90618853D01*
X120730649Y-88706410D01*
X120468697Y-88706412D01*
X120383237Y-88706843D01*
X120305101Y-88708136D01*
X120234289Y-88710290D01*
X120170802Y-88713306D01*
X120114638Y-88717183D01*
X120065800Y-88721922D01*
X120024285Y-88727523D01*
X120006274Y-88730647D01*
X119990094Y-88733986D01*
X119969883Y-88738671D01*
X119950118Y-88743864D01*
X119930800Y-88749566D01*
X119911927Y-88755774D01*
X119893501Y-88762491D01*
X119875521Y-88769715D01*
X119857988Y-88777447D01*
X119840900Y-88785687D01*
X119824259Y-88794435D01*
X119808064Y-88803690D01*
X119792315Y-88813453D01*
X119777013Y-88823724D01*
X119762156Y-88834503D01*
X119747746Y-88845789D01*
X119733782Y-88857583D01*
X119720265Y-88869885D01*
X119707155Y-88882749D01*
X119694414Y-88896228D01*
X119682043Y-88910323D01*
X119670041Y-88925033D01*
X119658408Y-88940358D01*
X119647145Y-88956299D01*
X119636251Y-88972856D01*
X119625726Y-88990028D01*
X119615571Y-89007816D01*
X119605784Y-89026219D01*
X119596367Y-89045237D01*
X119587320Y-89064872D01*
X119578641Y-89085121D01*
X119570332Y-89105986D01*
X119562393Y-89127467D01*
X119554822Y-89149563D01*
X119540974Y-89196802D01*
X119528972Y-89248903D01*
X119518816Y-89305867D01*
X119510507Y-89367693D01*
X119504044Y-89434381D01*
X119499428Y-89505931D01*
X119496659Y-89582344D01*
X119495735Y-89663618D01*
X118893431Y-89663618D01*
X118894528Y-89589818D01*
X118898959Y-89494479D01*
X118906345Y-89403202D01*
X118911146Y-89359087D01*
X118916685Y-89315988D01*
X118922963Y-89273904D01*
X118929980Y-89232835D01*
X118937735Y-89192783D01*
X118946229Y-89153745D01*
X118955461Y-89115724D01*
X118965432Y-89078717D01*
X118976141Y-89042727D01*
X118987590Y-89007752D01*
X118999745Y-88973377D01*
X119012578Y-88939679D01*
X119026088Y-88906658D01*
X119040275Y-88874314D01*
X119055139Y-88842647D01*
X119070681Y-88811658D01*
X119086899Y-88781345D01*
X119103794Y-88751709D01*
X119121366Y-88722750D01*
X119139615Y-88694469D01*
X119158541Y-88666864D01*
X119178144Y-88639937D01*
X119198425Y-88613686D01*
X119219382Y-88588113D01*
X119241016Y-88563216D01*
X119263327Y-88538997D01*
X119286262Y-88515570D01*
X119309766Y-88493051D01*
X119333840Y-88471440D01*
X119358482Y-88450736D01*
X119383694Y-88430941D01*
X119409475Y-88412053D01*
X119435826Y-88394073D01*
X119462746Y-88377001D01*
X119490235Y-88360837D01*
X119518294Y-88345581D01*
X119546921Y-88331232D01*
X119576119Y-88317791D01*
X119605885Y-88305259D01*
X119636221Y-88293634D01*
X119667126Y-88282916D01*
X119698600Y-88273107D01*
X119748547Y-88260182D01*
X119803849Y-88248980D01*
X119864505Y-88239501D01*
X119930516Y-88231746D01*
X120001881Y-88225714D01*
X120078602Y-88221406D01*
X120160677Y-88218821D01*
X120248107Y-88217959D01*
X121313639Y-88217959D01*
X121313639Y-91105335D01*
X120216594Y-91105335D01*
G36*
X123004907Y-89354395D02*
G01*
X124147252Y-89354395D01*
X124147252Y-88217959D01*
X124730241Y-88217959D01*
X124730241Y-91105332D01*
X124147252Y-91105332D01*
X124147252Y-89842844D01*
X123004907Y-89842844D01*
X123004907Y-91105332D01*
X122421918Y-91105332D01*
X122421918Y-88217959D01*
X123004907Y-88217959D01*
X123004907Y-89354395D01*
G37*
X123004907Y-89354395D02*
X124147252Y-89354395D01*
X124147252Y-88217959D01*
X124730241Y-88217959D01*
X124730241Y-91105332D01*
X124147252Y-91105332D01*
X124147252Y-89842844D01*
X123004907Y-89842844D01*
X123004907Y-91105332D01*
X122421918Y-91105332D01*
X122421918Y-88217959D01*
X123004907Y-88217959D01*
X123004907Y-89354395D01*
D11*
X137000000Y-69500000D02*
X97000000Y-69500000D01*
X97000000Y-69500000D02*
X97000000Y-67500000D01*
X97000000Y-67500000D02*
X137000000Y-67500000D01*
X137000000Y-67500000D02*
X137000000Y-69500000D01*
G36*
X137000000Y-69500000D02*
G01*
X97000000Y-69500000D01*
X97000000Y-67500000D01*
X137000000Y-67500000D01*
X137000000Y-69500000D01*
G37*
X137000000Y-122500000D02*
X97000000Y-122500000D01*
X97000000Y-122500000D02*
X97000000Y-120500000D01*
X97000000Y-120500000D02*
X137000000Y-120500000D01*
X137000000Y-120500000D02*
X137000000Y-122500000D01*
G36*
X137000000Y-122500000D02*
G01*
X97000000Y-122500000D01*
X97000000Y-120500000D01*
X137000000Y-120500000D01*
X137000000Y-122500000D01*
G37*
D10*
G36*
X122143517Y-91105332D02*
G01*
X121560527Y-91105332D01*
X121560527Y-88217959D01*
X122143517Y-88217959D01*
X122143517Y-91105332D01*
G37*
X122143517Y-91105332D02*
X121560527Y-91105332D01*
X121560527Y-88217959D01*
X122143517Y-88217959D01*
X122143517Y-91105332D01*
D12*
%TO.C,J3*%
X128500000Y-110500000D03*
X128500000Y-113100000D03*
X128500000Y-108400000D03*
X126000000Y-110500000D03*
X128500000Y-115200000D03*
X126000000Y-108400000D03*
X126000000Y-112700000D03*
X126000000Y-115200000D03*
D13*
X131500000Y-105050000D03*
X131500000Y-118550000D03*
D14*
X132300000Y-111800000D03*
%TD*%
D15*
%TO.C,J2*%
X113360000Y-105250000D03*
X109340000Y-105250000D03*
X113360000Y-107750000D03*
X109340000Y-107750000D03*
X113360000Y-109750000D03*
X109340000Y-109750000D03*
X113360000Y-112250000D03*
X109340000Y-112250000D03*
D16*
X107330000Y-102180000D03*
X107330000Y-115320000D03*
X113010000Y-115320000D03*
X113010000Y-102180000D03*
%TD*%
D17*
%TO.C,S1*%
X99900000Y-92750000D03*
X99900000Y-97250000D03*
D18*
X102400000Y-98500000D03*
X102400000Y-91500000D03*
%TD*%
D19*
%TO.C,J4*%
X129219669Y-98240000D03*
X129219669Y-73240000D03*
D20*
X128919669Y-80200000D03*
D21*
X128919669Y-82970000D03*
X128919669Y-85740000D03*
X128919669Y-88510000D03*
X128919669Y-91280000D03*
X131759669Y-81585000D03*
X131759669Y-84355000D03*
X131759669Y-87125000D03*
X131759669Y-89895000D03*
%TD*%
D12*
%TO.C,J1*%
X105500000Y-79500000D03*
X105500000Y-76900000D03*
X105500000Y-81600000D03*
X108000000Y-79500000D03*
X105500000Y-74800000D03*
X108000000Y-81600000D03*
X108000000Y-77300000D03*
X108000000Y-74800000D03*
D13*
X102500000Y-84950000D03*
D14*
X101700000Y-78200000D03*
D13*
X102500000Y-71450000D03*
%TD*%
M02*
