%TF.GenerationSoftware,KiCad,Pcbnew,(7.0.0)*%
%TF.CreationDate,2023-02-18T15:12:11+00:00*%
%TF.ProjectId,ps2usb,70733275-7362-42e6-9b69-6361645f7063,rev?*%
%TF.SameCoordinates,Original*%
%TF.FileFunction,Legend,Bot*%
%TF.FilePolarity,Positive*%
%FSLAX46Y46*%
G04 Gerber Fmt 4.6, Leading zero omitted, Abs format (unit mm)*
G04 Created by KiCad (PCBNEW (7.0.0)) date 2023-02-18 15:12:11*
%MOMM*%
%LPD*%
G01*
G04 APERTURE LIST*
%ADD10C,0.080000*%
%ADD11C,0.300000*%
G04 APERTURE END LIST*
D10*
G36*
X110695611Y-81536027D02*
G01*
X112212171Y-79269064D01*
X112604114Y-79269064D01*
X112604114Y-82143696D01*
X112598900Y-82156437D01*
X112237777Y-82156437D01*
X112237777Y-79887505D01*
X110721215Y-82156437D01*
X110329273Y-82156437D01*
X110329273Y-79269064D01*
X110695611Y-79269064D01*
X110695611Y-81536027D01*
G37*
X110695611Y-81536027D02*
X112212171Y-79269064D01*
X112604114Y-79269064D01*
X112604114Y-82143696D01*
X112598900Y-82156437D01*
X112237777Y-82156437D01*
X112237777Y-79887505D01*
X110721215Y-82156437D01*
X110329273Y-82156437D01*
X110329273Y-79269064D01*
X110695611Y-79269064D01*
X110695611Y-81536027D01*
G36*
X116499321Y-81278014D02*
G01*
X116548067Y-81421423D01*
X116589920Y-81546366D01*
X116624880Y-81652846D01*
X116652946Y-81740861D01*
X116677812Y-81660971D01*
X116709079Y-81563109D01*
X116790816Y-81313466D01*
X117474252Y-79269064D01*
X118049364Y-79269064D01*
X118049364Y-82156437D01*
X117681056Y-82156437D01*
X117681056Y-79698427D01*
X116845963Y-82156437D01*
X116501290Y-82156437D01*
X115662258Y-79739788D01*
X115662258Y-82156437D01*
X115301135Y-82156437D01*
X115293950Y-82137728D01*
X115293950Y-79269064D01*
X115808005Y-79269064D01*
X116499321Y-81278014D01*
G37*
X116499321Y-81278014D02*
X116548067Y-81421423D01*
X116589920Y-81546366D01*
X116624880Y-81652846D01*
X116652946Y-81740861D01*
X116677812Y-81660971D01*
X116709079Y-81563109D01*
X116790816Y-81313466D01*
X117474252Y-79269064D01*
X118049364Y-79269064D01*
X118049364Y-82156437D01*
X117681056Y-82156437D01*
X117681056Y-79698427D01*
X116845963Y-82156437D01*
X116501290Y-82156437D01*
X115662258Y-79739788D01*
X115662258Y-82156437D01*
X115301135Y-82156437D01*
X115293950Y-82137728D01*
X115293950Y-79269064D01*
X115808005Y-79269064D01*
X116499321Y-81278014D01*
G36*
X114845791Y-80970763D02*
G01*
X115293950Y-82137728D01*
X115293950Y-82156437D01*
X114895405Y-82156437D01*
X114578306Y-81281952D01*
X113370967Y-81281952D01*
X113034172Y-82156437D01*
X112604114Y-82156437D01*
X112604114Y-82143696D01*
X113084169Y-80970763D01*
X113489141Y-80970763D01*
X114468012Y-80970763D01*
X114150914Y-80123854D01*
X114126510Y-80055350D01*
X114103521Y-79986723D01*
X114081948Y-79917973D01*
X114061791Y-79849100D01*
X114043049Y-79780104D01*
X114025723Y-79710985D01*
X114009813Y-79641742D01*
X113995318Y-79572377D01*
X113977469Y-79633002D01*
X113957404Y-79697690D01*
X113910627Y-79839252D01*
X113854987Y-79997063D01*
X113790484Y-80171122D01*
X113489141Y-80970763D01*
X113084169Y-80970763D01*
X113780635Y-79269064D01*
X114192274Y-79269064D01*
X114845791Y-80970763D01*
G37*
X114845791Y-80970763D02*
X115293950Y-82137728D01*
X115293950Y-82156437D01*
X114895405Y-82156437D01*
X114578306Y-81281952D01*
X113370967Y-81281952D01*
X113034172Y-82156437D01*
X112604114Y-82156437D01*
X112604114Y-82143696D01*
X113084169Y-80970763D01*
X113489141Y-80970763D01*
X114468012Y-80970763D01*
X114150914Y-80123854D01*
X114126510Y-80055350D01*
X114103521Y-79986723D01*
X114081948Y-79917973D01*
X114061791Y-79849100D01*
X114043049Y-79780104D01*
X114025723Y-79710985D01*
X114009813Y-79641742D01*
X113995318Y-79572377D01*
X113977469Y-79633002D01*
X113957404Y-79697690D01*
X113910627Y-79839252D01*
X113854987Y-79997063D01*
X113790484Y-80171122D01*
X113489141Y-80970763D01*
X113084169Y-80970763D01*
X113780635Y-79269064D01*
X114192274Y-79269064D01*
X114845791Y-80970763D01*
D11*
X122867130Y-84051071D02*
X122867130Y-83051071D01*
X122867130Y-83336785D02*
X122795701Y-83193928D01*
X122795701Y-83193928D02*
X122724273Y-83122500D01*
X122724273Y-83122500D02*
X122581415Y-83051071D01*
X122581415Y-83051071D02*
X122438558Y-83051071D01*
X121295702Y-84051071D02*
X121295702Y-83265357D01*
X121295702Y-83265357D02*
X121367130Y-83122500D01*
X121367130Y-83122500D02*
X121509987Y-83051071D01*
X121509987Y-83051071D02*
X121795702Y-83051071D01*
X121795702Y-83051071D02*
X121938559Y-83122500D01*
X121295702Y-83979642D02*
X121438559Y-84051071D01*
X121438559Y-84051071D02*
X121795702Y-84051071D01*
X121795702Y-84051071D02*
X121938559Y-83979642D01*
X121938559Y-83979642D02*
X122009987Y-83836785D01*
X122009987Y-83836785D02*
X122009987Y-83693928D01*
X122009987Y-83693928D02*
X121938559Y-83551071D01*
X121938559Y-83551071D02*
X121795702Y-83479642D01*
X121795702Y-83479642D02*
X121438559Y-83479642D01*
X121438559Y-83479642D02*
X121295702Y-83408214D01*
X120652844Y-83979642D02*
X120509987Y-84051071D01*
X120509987Y-84051071D02*
X120224273Y-84051071D01*
X120224273Y-84051071D02*
X120081416Y-83979642D01*
X120081416Y-83979642D02*
X120009987Y-83836785D01*
X120009987Y-83836785D02*
X120009987Y-83765357D01*
X120009987Y-83765357D02*
X120081416Y-83622500D01*
X120081416Y-83622500D02*
X120224273Y-83551071D01*
X120224273Y-83551071D02*
X120438559Y-83551071D01*
X120438559Y-83551071D02*
X120581416Y-83479642D01*
X120581416Y-83479642D02*
X120652844Y-83336785D01*
X120652844Y-83336785D02*
X120652844Y-83265357D01*
X120652844Y-83265357D02*
X120581416Y-83122500D01*
X120581416Y-83122500D02*
X120438559Y-83051071D01*
X120438559Y-83051071D02*
X120224273Y-83051071D01*
X120224273Y-83051071D02*
X120081416Y-83122500D01*
X119581415Y-83051071D02*
X119009987Y-83051071D01*
X119367130Y-82551071D02*
X119367130Y-83836785D01*
X119367130Y-83836785D02*
X119295701Y-83979642D01*
X119295701Y-83979642D02*
X119152844Y-84051071D01*
X119152844Y-84051071D02*
X119009987Y-84051071D01*
X117938558Y-83979642D02*
X118081415Y-84051071D01*
X118081415Y-84051071D02*
X118367130Y-84051071D01*
X118367130Y-84051071D02*
X118509987Y-83979642D01*
X118509987Y-83979642D02*
X118581415Y-83836785D01*
X118581415Y-83836785D02*
X118581415Y-83265357D01*
X118581415Y-83265357D02*
X118509987Y-83122500D01*
X118509987Y-83122500D02*
X118367130Y-83051071D01*
X118367130Y-83051071D02*
X118081415Y-83051071D01*
X118081415Y-83051071D02*
X117938558Y-83122500D01*
X117938558Y-83122500D02*
X117867130Y-83265357D01*
X117867130Y-83265357D02*
X117867130Y-83408214D01*
X117867130Y-83408214D02*
X118581415Y-83551071D01*
X117224273Y-84051071D02*
X117224273Y-83051071D01*
X117224273Y-83336785D02*
X117152844Y-83193928D01*
X117152844Y-83193928D02*
X117081416Y-83122500D01*
X117081416Y-83122500D02*
X116938558Y-83051071D01*
X116938558Y-83051071D02*
X116795701Y-83051071D01*
X116295702Y-84051071D02*
X116295702Y-83051071D01*
X116295702Y-82551071D02*
X116367130Y-82622500D01*
X116367130Y-82622500D02*
X116295702Y-82693928D01*
X116295702Y-82693928D02*
X116224273Y-82622500D01*
X116224273Y-82622500D02*
X116295702Y-82551071D01*
X116295702Y-82551071D02*
X116295702Y-82693928D01*
X115581416Y-83908214D02*
X115509987Y-83979642D01*
X115509987Y-83979642D02*
X115581416Y-84051071D01*
X115581416Y-84051071D02*
X115652844Y-83979642D01*
X115652844Y-83979642D02*
X115581416Y-83908214D01*
X115581416Y-83908214D02*
X115581416Y-84051071D01*
X114224273Y-83979642D02*
X114367130Y-84051071D01*
X114367130Y-84051071D02*
X114652844Y-84051071D01*
X114652844Y-84051071D02*
X114795701Y-83979642D01*
X114795701Y-83979642D02*
X114867130Y-83908214D01*
X114867130Y-83908214D02*
X114938558Y-83765357D01*
X114938558Y-83765357D02*
X114938558Y-83336785D01*
X114938558Y-83336785D02*
X114867130Y-83193928D01*
X114867130Y-83193928D02*
X114795701Y-83122500D01*
X114795701Y-83122500D02*
X114652844Y-83051071D01*
X114652844Y-83051071D02*
X114367130Y-83051071D01*
X114367130Y-83051071D02*
X114224273Y-83122500D01*
X113367130Y-84051071D02*
X113509987Y-83979642D01*
X113509987Y-83979642D02*
X113581416Y-83908214D01*
X113581416Y-83908214D02*
X113652844Y-83765357D01*
X113652844Y-83765357D02*
X113652844Y-83336785D01*
X113652844Y-83336785D02*
X113581416Y-83193928D01*
X113581416Y-83193928D02*
X113509987Y-83122500D01*
X113509987Y-83122500D02*
X113367130Y-83051071D01*
X113367130Y-83051071D02*
X113152844Y-83051071D01*
X113152844Y-83051071D02*
X113009987Y-83122500D01*
X113009987Y-83122500D02*
X112938559Y-83193928D01*
X112938559Y-83193928D02*
X112867130Y-83336785D01*
X112867130Y-83336785D02*
X112867130Y-83765357D01*
X112867130Y-83765357D02*
X112938559Y-83908214D01*
X112938559Y-83908214D02*
X113009987Y-83979642D01*
X113009987Y-83979642D02*
X113152844Y-84051071D01*
X113152844Y-84051071D02*
X113367130Y-84051071D01*
X112224273Y-84051071D02*
X112224273Y-83051071D01*
X112224273Y-83193928D02*
X112152844Y-83122500D01*
X112152844Y-83122500D02*
X112009987Y-83051071D01*
X112009987Y-83051071D02*
X111795701Y-83051071D01*
X111795701Y-83051071D02*
X111652844Y-83122500D01*
X111652844Y-83122500D02*
X111581416Y-83265357D01*
X111581416Y-83265357D02*
X111581416Y-84051071D01*
X111581416Y-83265357D02*
X111509987Y-83122500D01*
X111509987Y-83122500D02*
X111367130Y-83051071D01*
X111367130Y-83051071D02*
X111152844Y-83051071D01*
X111152844Y-83051071D02*
X111009987Y-83122500D01*
X111009987Y-83122500D02*
X110938558Y-83265357D01*
X110938558Y-83265357D02*
X110938558Y-84051071D01*
M02*
