M48
; DRILL file {KiCad (6.0.6)} date Tue Nov  1 13:57:33 2022
; FORMAT={-:-/ absolute / inch / decimal}
; #@! TF.CreationDate,2022-11-01T13:57:33+00:00
; #@! TF.GenerationSoftware,Kicad,Pcbnew,(6.0.6)
; #@! TF.FileFunction,Plated,1,2,PTH
FMAT,2
INCH
; #@! TA.AperFunction,Plated,PTH,ViaDrill
T1C0.0157
; #@! TA.AperFunction,Plated,PTH,ComponentDrill
T2C0.0354
; #@! TA.AperFunction,Plated,PTH,ComponentDrill
T3C0.0394
; #@! TA.AperFunction,Plated,PTH,ComponentDrill
T4C0.0512
; #@! TA.AperFunction,Plated,PTH,ComponentDrill
T5C0.0866
; #@! TA.AperFunction,Plated,PTH,ComponentDrill
T6C0.0906
; #@! TA.AperFunction,Plated,PTH,ComponentDrill
T7C0.1260
%
G90
G05
T1
X3.8484Y-2.687
X3.8484Y-4.7933
X4.07Y-3.73
X4.35Y-3.7
X4.4Y-3.71
X4.4589Y-3.2765
X4.4789Y-2.8235
X4.6Y-3.48
X4.6Y-3.61
X4.6063Y-2.687
X4.6063Y-4.7933
X4.65Y-4.54
X4.6752Y-4.0059
X4.7029Y-3.0295
X4.7049Y-3.0815
X4.71Y-4.04
X4.71Y-4.08
X4.8383Y-3.0283
X4.8389Y-3.0835
X4.85Y-4.04
X4.85Y-4.08
X4.8524Y-3.1496
X4.88Y-3.88
X4.93Y-3.0
X4.94Y-3.63
X5.3642Y-2.687
X5.3642Y-4.7933
T2
X4.1535Y-2.9449
X4.1535Y-3.0276
X4.1535Y-3.1299
X4.1535Y-3.2126
X4.252Y-2.9449
X4.252Y-3.0433
X4.252Y-3.1299
X4.252Y-3.2126
X4.9606Y-4.2677
X4.9606Y-4.3504
X4.9606Y-4.437
X4.9606Y-4.5354
X5.0591Y-4.2677
X5.0591Y-4.3504
X5.0591Y-4.4528
X5.0591Y-4.5354
T3
X3.9331Y-3.6516
X3.9331Y-3.8287
X4.3323Y-4.1437
X4.3323Y-4.2421
X4.3323Y-4.3209
X4.3323Y-4.4193
X4.4354Y-4.1437
X4.4354Y-4.2421
X4.4354Y-4.3209
X4.4354Y-4.4193
X5.0756Y-3.1575
X5.0756Y-3.2665
X5.0756Y-3.3756
X5.0756Y-3.4846
X5.0756Y-3.5937
X5.1874Y-3.212
X5.1874Y-3.3211
X5.1874Y-3.4301
X5.1874Y-3.5392
T4
X4.0315Y-3.6024
X4.0315Y-3.878
T5
X4.0039Y-3.0787
X4.0354Y-2.813
X4.0354Y-3.3445
X5.1772Y-4.1358
X5.1772Y-4.6673
X5.2087Y-4.4016
T6
X4.2256Y-4.0228
X4.2256Y-4.5402
X4.4492Y-4.0228
X4.4492Y-4.5402
T7
X5.0874Y-2.8835
X5.0874Y-3.8677
T0
M30
