%TF.GenerationSoftware,KiCad,Pcbnew,(6.0.6)*%
%TF.CreationDate,2022-11-01T13:57:14+00:00*%
%TF.ProjectId,ps2usb,70733275-7362-42e6-9b69-6361645f7063,rev?*%
%TF.SameCoordinates,Original*%
%TF.FileFunction,Legend,Top*%
%TF.FilePolarity,Positive*%
%FSLAX46Y46*%
G04 Gerber Fmt 4.6, Leading zero omitted, Abs format (unit mm)*
G04 Created by KiCad (PCBNEW (6.0.6)) date 2022-11-01 13:57:14*
%MOMM*%
%LPD*%
G01*
G04 APERTURE LIST*
%ADD10C,0.150000*%
%ADD11C,0.120000*%
%ADD12C,0.250000*%
%ADD13C,0.310000*%
G04 APERTURE END LIST*
D10*
%TO.C,C4*%
X123785333Y-90913142D02*
X123737714Y-90960761D01*
X123594857Y-91008380D01*
X123499619Y-91008380D01*
X123356761Y-90960761D01*
X123261523Y-90865523D01*
X123213904Y-90770285D01*
X123166285Y-90579809D01*
X123166285Y-90436952D01*
X123213904Y-90246476D01*
X123261523Y-90151238D01*
X123356761Y-90056000D01*
X123499619Y-90008380D01*
X123594857Y-90008380D01*
X123737714Y-90056000D01*
X123785333Y-90103619D01*
X124642476Y-90341714D02*
X124642476Y-91008380D01*
X124404380Y-89960761D02*
X124166285Y-90675047D01*
X124785333Y-90675047D01*
%TO.C,C7*%
X124011333Y-72326942D02*
X123963714Y-72374561D01*
X123820857Y-72422180D01*
X123725619Y-72422180D01*
X123582761Y-72374561D01*
X123487523Y-72279323D01*
X123439904Y-72184085D01*
X123392285Y-71993609D01*
X123392285Y-71850752D01*
X123439904Y-71660276D01*
X123487523Y-71565038D01*
X123582761Y-71469800D01*
X123725619Y-71422180D01*
X123820857Y-71422180D01*
X123963714Y-71469800D01*
X124011333Y-71517419D01*
X124344666Y-71422180D02*
X125011333Y-71422180D01*
X124582761Y-72422180D01*
%TO.C,J3*%
X124666666Y-103202380D02*
X124666666Y-103916666D01*
X124619047Y-104059523D01*
X124523809Y-104154761D01*
X124380952Y-104202380D01*
X124285714Y-104202380D01*
X125047619Y-103202380D02*
X125666666Y-103202380D01*
X125333333Y-103583333D01*
X125476190Y-103583333D01*
X125571428Y-103630952D01*
X125619047Y-103678571D01*
X125666666Y-103773809D01*
X125666666Y-104011904D01*
X125619047Y-104107142D01*
X125571428Y-104154761D01*
X125476190Y-104202380D01*
X125190476Y-104202380D01*
X125095238Y-104154761D01*
X125047619Y-104107142D01*
%TO.C,D1*%
X99990904Y-88702380D02*
X99990904Y-87702380D01*
X100229000Y-87702380D01*
X100371857Y-87750000D01*
X100467095Y-87845238D01*
X100514714Y-87940476D01*
X100562333Y-88130952D01*
X100562333Y-88273809D01*
X100514714Y-88464285D01*
X100467095Y-88559523D01*
X100371857Y-88654761D01*
X100229000Y-88702380D01*
X99990904Y-88702380D01*
X101514714Y-88702380D02*
X100943285Y-88702380D01*
X101229000Y-88702380D02*
X101229000Y-87702380D01*
X101133761Y-87845238D01*
X101038523Y-87940476D01*
X100943285Y-87988095D01*
%TO.C,RN3*%
X106977523Y-92274380D02*
X106644190Y-91798190D01*
X106406095Y-92274380D02*
X106406095Y-91274380D01*
X106787047Y-91274380D01*
X106882285Y-91322000D01*
X106929904Y-91369619D01*
X106977523Y-91464857D01*
X106977523Y-91607714D01*
X106929904Y-91702952D01*
X106882285Y-91750571D01*
X106787047Y-91798190D01*
X106406095Y-91798190D01*
X107406095Y-92274380D02*
X107406095Y-91274380D01*
X107977523Y-92274380D01*
X107977523Y-91274380D01*
X108358476Y-91274380D02*
X108977523Y-91274380D01*
X108644190Y-91655333D01*
X108787047Y-91655333D01*
X108882285Y-91702952D01*
X108929904Y-91750571D01*
X108977523Y-91845809D01*
X108977523Y-92083904D01*
X108929904Y-92179142D01*
X108882285Y-92226761D01*
X108787047Y-92274380D01*
X108501333Y-92274380D01*
X108406095Y-92226761D01*
X108358476Y-92179142D01*
%TO.C,RN1*%
X112918380Y-88690476D02*
X112442190Y-89023809D01*
X112918380Y-89261904D02*
X111918380Y-89261904D01*
X111918380Y-88880952D01*
X111966000Y-88785714D01*
X112013619Y-88738095D01*
X112108857Y-88690476D01*
X112251714Y-88690476D01*
X112346952Y-88738095D01*
X112394571Y-88785714D01*
X112442190Y-88880952D01*
X112442190Y-89261904D01*
X112918380Y-88261904D02*
X111918380Y-88261904D01*
X112918380Y-87690476D01*
X111918380Y-87690476D01*
X112918380Y-86690476D02*
X112918380Y-87261904D01*
X112918380Y-86976190D02*
X111918380Y-86976190D01*
X112061238Y-87071428D01*
X112156476Y-87166666D01*
X112204095Y-87261904D01*
%TO.C,C1*%
X117689333Y-118213142D02*
X117641714Y-118260761D01*
X117498857Y-118308380D01*
X117403619Y-118308380D01*
X117260761Y-118260761D01*
X117165523Y-118165523D01*
X117117904Y-118070285D01*
X117070285Y-117879809D01*
X117070285Y-117736952D01*
X117117904Y-117546476D01*
X117165523Y-117451238D01*
X117260761Y-117356000D01*
X117403619Y-117308380D01*
X117498857Y-117308380D01*
X117641714Y-117356000D01*
X117689333Y-117403619D01*
X118641714Y-118308380D02*
X118070285Y-118308380D01*
X118356000Y-118308380D02*
X118356000Y-117308380D01*
X118260761Y-117451238D01*
X118165523Y-117546476D01*
X118070285Y-117594095D01*
%TO.C,J2*%
X115916666Y-104702380D02*
X115916666Y-105416666D01*
X115869047Y-105559523D01*
X115773809Y-105654761D01*
X115630952Y-105702380D01*
X115535714Y-105702380D01*
X116345238Y-104797619D02*
X116392857Y-104750000D01*
X116488095Y-104702380D01*
X116726190Y-104702380D01*
X116821428Y-104750000D01*
X116869047Y-104797619D01*
X116916666Y-104892857D01*
X116916666Y-104988095D01*
X116869047Y-105130952D01*
X116297619Y-105702380D01*
X116916666Y-105702380D01*
%TO.C,U1*%
X118364095Y-88098380D02*
X118364095Y-88907904D01*
X118411714Y-89003142D01*
X118459333Y-89050761D01*
X118554571Y-89098380D01*
X118745047Y-89098380D01*
X118840285Y-89050761D01*
X118887904Y-89003142D01*
X118935523Y-88907904D01*
X118935523Y-88098380D01*
X119935523Y-89098380D02*
X119364095Y-89098380D01*
X119649809Y-89098380D02*
X119649809Y-88098380D01*
X119554571Y-88241238D01*
X119459333Y-88336476D01*
X119364095Y-88384095D01*
%TO.C,RN2*%
X120467523Y-106624380D02*
X120134190Y-106148190D01*
X119896095Y-106624380D02*
X119896095Y-105624380D01*
X120277047Y-105624380D01*
X120372285Y-105672000D01*
X120419904Y-105719619D01*
X120467523Y-105814857D01*
X120467523Y-105957714D01*
X120419904Y-106052952D01*
X120372285Y-106100571D01*
X120277047Y-106148190D01*
X119896095Y-106148190D01*
X120896095Y-106624380D02*
X120896095Y-105624380D01*
X121467523Y-106624380D01*
X121467523Y-105624380D01*
X121896095Y-105719619D02*
X121943714Y-105672000D01*
X122038952Y-105624380D01*
X122277047Y-105624380D01*
X122372285Y-105672000D01*
X122419904Y-105719619D01*
X122467523Y-105814857D01*
X122467523Y-105910095D01*
X122419904Y-106052952D01*
X121848476Y-106624380D01*
X122467523Y-106624380D01*
%TO.C,U2*%
X120114095Y-71786180D02*
X120114095Y-72595704D01*
X120161714Y-72690942D01*
X120209333Y-72738561D01*
X120304571Y-72786180D01*
X120495047Y-72786180D01*
X120590285Y-72738561D01*
X120637904Y-72690942D01*
X120685523Y-72595704D01*
X120685523Y-71786180D01*
X121114095Y-71881419D02*
X121161714Y-71833800D01*
X121256952Y-71786180D01*
X121495047Y-71786180D01*
X121590285Y-71833800D01*
X121637904Y-71881419D01*
X121685523Y-71976657D01*
X121685523Y-72071895D01*
X121637904Y-72214752D01*
X121066476Y-72786180D01*
X121685523Y-72786180D01*
%TO.C,C6*%
X111333333Y-74357142D02*
X111285714Y-74404761D01*
X111142857Y-74452380D01*
X111047619Y-74452380D01*
X110904761Y-74404761D01*
X110809523Y-74309523D01*
X110761904Y-74214285D01*
X110714285Y-74023809D01*
X110714285Y-73880952D01*
X110761904Y-73690476D01*
X110809523Y-73595238D01*
X110904761Y-73500000D01*
X111047619Y-73452380D01*
X111142857Y-73452380D01*
X111285714Y-73500000D01*
X111333333Y-73547619D01*
X112190476Y-73452380D02*
X112000000Y-73452380D01*
X111904761Y-73500000D01*
X111857142Y-73547619D01*
X111761904Y-73690476D01*
X111714285Y-73880952D01*
X111714285Y-74261904D01*
X111761904Y-74357142D01*
X111809523Y-74404761D01*
X111904761Y-74452380D01*
X112095238Y-74452380D01*
X112190476Y-74404761D01*
X112238095Y-74357142D01*
X112285714Y-74261904D01*
X112285714Y-74023809D01*
X112238095Y-73928571D01*
X112190476Y-73880952D01*
X112095238Y-73833333D01*
X111904761Y-73833333D01*
X111809523Y-73880952D01*
X111761904Y-73928571D01*
X111714285Y-74023809D01*
%TO.C,S1*%
X98738095Y-100404761D02*
X98880952Y-100452380D01*
X99119047Y-100452380D01*
X99214285Y-100404761D01*
X99261904Y-100357142D01*
X99309523Y-100261904D01*
X99309523Y-100166666D01*
X99261904Y-100071428D01*
X99214285Y-100023809D01*
X99119047Y-99976190D01*
X98928571Y-99928571D01*
X98833333Y-99880952D01*
X98785714Y-99833333D01*
X98738095Y-99738095D01*
X98738095Y-99642857D01*
X98785714Y-99547619D01*
X98833333Y-99500000D01*
X98928571Y-99452380D01*
X99166666Y-99452380D01*
X99309523Y-99500000D01*
X100261904Y-100452380D02*
X99690476Y-100452380D01*
X99976190Y-100452380D02*
X99976190Y-99452380D01*
X99880952Y-99595238D01*
X99785714Y-99690476D01*
X99690476Y-99738095D01*
%TO.C,C10*%
X118357142Y-71107142D02*
X118309523Y-71154761D01*
X118166666Y-71202380D01*
X118071428Y-71202380D01*
X117928571Y-71154761D01*
X117833333Y-71059523D01*
X117785714Y-70964285D01*
X117738095Y-70773809D01*
X117738095Y-70630952D01*
X117785714Y-70440476D01*
X117833333Y-70345238D01*
X117928571Y-70250000D01*
X118071428Y-70202380D01*
X118166666Y-70202380D01*
X118309523Y-70250000D01*
X118357142Y-70297619D01*
X119309523Y-71202380D02*
X118738095Y-71202380D01*
X119023809Y-71202380D02*
X119023809Y-70202380D01*
X118928571Y-70345238D01*
X118833333Y-70440476D01*
X118738095Y-70488095D01*
X119928571Y-70202380D02*
X120023809Y-70202380D01*
X120119047Y-70250000D01*
X120166666Y-70297619D01*
X120214285Y-70392857D01*
X120261904Y-70583333D01*
X120261904Y-70821428D01*
X120214285Y-71011904D01*
X120166666Y-71107142D01*
X120119047Y-71154761D01*
X120023809Y-71202380D01*
X119928571Y-71202380D01*
X119833333Y-71154761D01*
X119785714Y-71107142D01*
X119738095Y-71011904D01*
X119690476Y-70821428D01*
X119690476Y-70583333D01*
X119738095Y-70392857D01*
X119785714Y-70297619D01*
X119833333Y-70250000D01*
X119928571Y-70202380D01*
%TO.C,C9*%
X111333333Y-81357142D02*
X111285714Y-81404761D01*
X111142857Y-81452380D01*
X111047619Y-81452380D01*
X110904761Y-81404761D01*
X110809523Y-81309523D01*
X110761904Y-81214285D01*
X110714285Y-81023809D01*
X110714285Y-80880952D01*
X110761904Y-80690476D01*
X110809523Y-80595238D01*
X110904761Y-80500000D01*
X111047619Y-80452380D01*
X111142857Y-80452380D01*
X111285714Y-80500000D01*
X111333333Y-80547619D01*
X111809523Y-81452380D02*
X112000000Y-81452380D01*
X112095238Y-81404761D01*
X112142857Y-81357142D01*
X112238095Y-81214285D01*
X112285714Y-81023809D01*
X112285714Y-80642857D01*
X112238095Y-80547619D01*
X112190476Y-80500000D01*
X112095238Y-80452380D01*
X111904761Y-80452380D01*
X111809523Y-80500000D01*
X111761904Y-80547619D01*
X111714285Y-80642857D01*
X111714285Y-80880952D01*
X111761904Y-80976190D01*
X111809523Y-81023809D01*
X111904761Y-81071428D01*
X112095238Y-81071428D01*
X112190476Y-81023809D01*
X112238095Y-80976190D01*
X112285714Y-80880952D01*
%TO.C,C2*%
X117689333Y-112879142D02*
X117641714Y-112926761D01*
X117498857Y-112974380D01*
X117403619Y-112974380D01*
X117260761Y-112926761D01*
X117165523Y-112831523D01*
X117117904Y-112736285D01*
X117070285Y-112545809D01*
X117070285Y-112402952D01*
X117117904Y-112212476D01*
X117165523Y-112117238D01*
X117260761Y-112022000D01*
X117403619Y-111974380D01*
X117498857Y-111974380D01*
X117641714Y-112022000D01*
X117689333Y-112069619D01*
X118070285Y-112069619D02*
X118117904Y-112022000D01*
X118213142Y-111974380D01*
X118451238Y-111974380D01*
X118546476Y-112022000D01*
X118594095Y-112069619D01*
X118641714Y-112164857D01*
X118641714Y-112260095D01*
X118594095Y-112402952D01*
X118022666Y-112974380D01*
X118641714Y-112974380D01*
%TO.C,J4*%
X124416666Y-80952380D02*
X124416666Y-81666666D01*
X124369047Y-81809523D01*
X124273809Y-81904761D01*
X124130952Y-81952380D01*
X124035714Y-81952380D01*
X125321428Y-81285714D02*
X125321428Y-81952380D01*
X125083333Y-80904761D02*
X124845238Y-81619047D01*
X125464285Y-81619047D01*
%TO.C,C3*%
X123785333Y-98909142D02*
X123737714Y-98956761D01*
X123594857Y-99004380D01*
X123499619Y-99004380D01*
X123356761Y-98956761D01*
X123261523Y-98861523D01*
X123213904Y-98766285D01*
X123166285Y-98575809D01*
X123166285Y-98432952D01*
X123213904Y-98242476D01*
X123261523Y-98147238D01*
X123356761Y-98052000D01*
X123499619Y-98004380D01*
X123594857Y-98004380D01*
X123737714Y-98052000D01*
X123785333Y-98099619D01*
X124118666Y-98004380D02*
X124737714Y-98004380D01*
X124404380Y-98385333D01*
X124547238Y-98385333D01*
X124642476Y-98432952D01*
X124690095Y-98480571D01*
X124737714Y-98575809D01*
X124737714Y-98813904D01*
X124690095Y-98909142D01*
X124642476Y-98956761D01*
X124547238Y-99004380D01*
X124261523Y-99004380D01*
X124166285Y-98956761D01*
X124118666Y-98909142D01*
%TO.C,C8*%
X111333333Y-77857142D02*
X111285714Y-77904761D01*
X111142857Y-77952380D01*
X111047619Y-77952380D01*
X110904761Y-77904761D01*
X110809523Y-77809523D01*
X110761904Y-77714285D01*
X110714285Y-77523809D01*
X110714285Y-77380952D01*
X110761904Y-77190476D01*
X110809523Y-77095238D01*
X110904761Y-77000000D01*
X111047619Y-76952380D01*
X111142857Y-76952380D01*
X111285714Y-77000000D01*
X111333333Y-77047619D01*
X111904761Y-77380952D02*
X111809523Y-77333333D01*
X111761904Y-77285714D01*
X111714285Y-77190476D01*
X111714285Y-77142857D01*
X111761904Y-77047619D01*
X111809523Y-77000000D01*
X111904761Y-76952380D01*
X112095238Y-76952380D01*
X112190476Y-77000000D01*
X112238095Y-77047619D01*
X112285714Y-77142857D01*
X112285714Y-77190476D01*
X112238095Y-77285714D01*
X112190476Y-77333333D01*
X112095238Y-77380952D01*
X111904761Y-77380952D01*
X111809523Y-77428571D01*
X111761904Y-77476190D01*
X111714285Y-77571428D01*
X111714285Y-77761904D01*
X111761904Y-77857142D01*
X111809523Y-77904761D01*
X111904761Y-77952380D01*
X112095238Y-77952380D01*
X112190476Y-77904761D01*
X112238095Y-77857142D01*
X112285714Y-77761904D01*
X112285714Y-77571428D01*
X112238095Y-77476190D01*
X112190476Y-77428571D01*
X112095238Y-77380952D01*
%TO.C,J1*%
X108604166Y-69702380D02*
X108604166Y-70416666D01*
X108556547Y-70559523D01*
X108461309Y-70654761D01*
X108318452Y-70702380D01*
X108223214Y-70702380D01*
X109604166Y-70702380D02*
X109032738Y-70702380D01*
X109318452Y-70702380D02*
X109318452Y-69702380D01*
X109223214Y-69845238D01*
X109127976Y-69940476D01*
X109032738Y-69988095D01*
%TO.C,F1*%
X121666666Y-119678571D02*
X121333333Y-119678571D01*
X121333333Y-120202380D02*
X121333333Y-119202380D01*
X121809523Y-119202380D01*
X122714285Y-120202380D02*
X122142857Y-120202380D01*
X122428571Y-120202380D02*
X122428571Y-119202380D01*
X122333333Y-119345238D01*
X122238095Y-119440476D01*
X122142857Y-119488095D01*
D11*
%TO.C,C4*%
X124462000Y-92823420D02*
X124462000Y-93104580D01*
X123442000Y-92823420D02*
X123442000Y-93104580D01*
%TO.C,C7*%
X123668000Y-74396380D02*
X123668000Y-74115220D01*
X124688000Y-74396380D02*
X124688000Y-74115220D01*
D12*
%TO.C,J3*%
X124000000Y-118550000D02*
X129000000Y-118550000D01*
X124000000Y-105050000D02*
X124000000Y-118550000D01*
X134000000Y-105050000D02*
X136500000Y-105050000D01*
X129000000Y-105050000D02*
X124000000Y-105050000D01*
X134000000Y-118550000D02*
X136500000Y-118550000D01*
D11*
%TO.C,D1*%
X98250000Y-89250000D02*
X98250000Y-87250000D01*
X98250000Y-87250000D02*
G75*
G03*
X98250000Y-89250000I0J-1000000D01*
G01*
%TO.C,RN3*%
X108718000Y-97992000D02*
X106618000Y-97992000D01*
X108718000Y-92652000D02*
X106618000Y-92652000D01*
%TO.C,RN1*%
X106296000Y-89050000D02*
X106296000Y-86950000D01*
X111636000Y-89050000D02*
X111636000Y-86950000D01*
%TO.C,C1*%
X118731420Y-116842000D02*
X119012580Y-116842000D01*
X118731420Y-115822000D02*
X119012580Y-115822000D01*
%TO.C,J2*%
X105550000Y-108750000D02*
X106300000Y-108000000D01*
X104550000Y-102250000D02*
X104550000Y-115250000D01*
X105550000Y-108750000D02*
X106300000Y-109500000D01*
X107300000Y-108750000D02*
X105550000Y-108750000D01*
%TO.C,U1*%
X120602000Y-92435000D02*
X120602000Y-97435000D01*
X114602000Y-91435000D02*
X119602000Y-91435000D01*
X120602000Y-97435000D02*
X114602000Y-97435000D01*
X119602000Y-91435000D02*
X120602000Y-92435000D01*
X114602000Y-97435000D02*
X114602000Y-91435000D01*
D13*
X120507000Y-88935000D02*
G75*
G03*
X120507000Y-88935000I-155000J0D01*
G01*
D11*
%TO.C,RN2*%
X120080000Y-112724000D02*
X122180000Y-112724000D01*
X120080000Y-107384000D02*
X122180000Y-107384000D01*
%TO.C,U2*%
X118750000Y-73173800D02*
X120700000Y-73173800D01*
X118750000Y-73173800D02*
X115300000Y-73173800D01*
X118750000Y-83293800D02*
X120700000Y-83293800D01*
X118750000Y-83293800D02*
X116800000Y-83293800D01*
%TO.C,C6*%
X113760000Y-73964580D02*
X113760000Y-73683420D01*
X112740000Y-73964580D02*
X112740000Y-73683420D01*
%TO.C,S1*%
X98650000Y-98500000D02*
X98650000Y-91500000D01*
X103900000Y-91500000D02*
X104900000Y-91500000D01*
X101400000Y-95000000D02*
X102150000Y-95750000D01*
X103150000Y-95000000D02*
X101400000Y-95000000D01*
X104900000Y-98500000D02*
X103900000Y-98500000D01*
X100900000Y-98500000D02*
X98650000Y-98500000D01*
X101400000Y-95000000D02*
X102150000Y-94250000D01*
X98650000Y-91500000D02*
X100900000Y-91500000D01*
X104900000Y-91500000D02*
X104900000Y-98500000D01*
%TO.C,C10*%
X115909420Y-72225800D02*
X116190580Y-72225800D01*
X115909420Y-71205800D02*
X116190580Y-71205800D01*
%TO.C,C9*%
X113766000Y-80795420D02*
X113766000Y-81076580D01*
X112746000Y-80795420D02*
X112746000Y-81076580D01*
%TO.C,C2*%
X118731420Y-113536000D02*
X119012580Y-113536000D01*
X118731420Y-114556000D02*
X119012580Y-114556000D01*
%TO.C,J4*%
X125265331Y-79950000D02*
X125698344Y-80200000D01*
X136639669Y-101225000D02*
X126159669Y-101225000D01*
X126159669Y-70255000D02*
X136639669Y-70255000D01*
X125698344Y-80200000D02*
X125265331Y-80450000D01*
X126159669Y-101225000D02*
X126159669Y-70255000D01*
X125265331Y-80450000D02*
X125265331Y-79950000D01*
%TO.C,C3*%
X123442000Y-96660580D02*
X123442000Y-96379420D01*
X124462000Y-96660580D02*
X124462000Y-96379420D01*
%TO.C,C8*%
X112740000Y-77520580D02*
X112740000Y-77239420D01*
X113760000Y-77520580D02*
X113760000Y-77239420D01*
D12*
%TO.C,J1*%
X110000000Y-84950000D02*
X110000000Y-71450000D01*
X110000000Y-71450000D02*
X105000000Y-71450000D01*
X100000000Y-71450000D02*
X97500000Y-71450000D01*
X105000000Y-84950000D02*
X110000000Y-84950000D01*
X100000000Y-84950000D02*
X97500000Y-84950000D01*
D11*
%TO.C,F1*%
X121010000Y-115983936D02*
X121010000Y-117188064D01*
X122830000Y-115983936D02*
X122830000Y-117188064D01*
%TD*%
M02*
