%TF.GenerationSoftware,KiCad,Pcbnew,(6.0.6)*%
%TF.CreationDate,2022-08-24T09:56:22+01:00*%
%TF.ProjectId,ps2usb,70733275-7362-42e6-9b69-6361645f7063,rev?*%
%TF.SameCoordinates,Original*%
%TF.FileFunction,Copper,L2,Bot*%
%TF.FilePolarity,Positive*%
%FSLAX46Y46*%
G04 Gerber Fmt 4.6, Leading zero omitted, Abs format (unit mm)*
G04 Created by KiCad (PCBNEW (6.0.6)) date 2022-08-24 09:56:22*
%MOMM*%
%LPD*%
G01*
G04 APERTURE LIST*
%TA.AperFunction,ComponentPad*%
%ADD10C,2.000000*%
%TD*%
%TA.AperFunction,ComponentPad*%
%ADD11C,2.600000*%
%TD*%
%TA.AperFunction,ComponentPad*%
%ADD12C,1.800000*%
%TD*%
%TA.AperFunction,ComponentPad*%
%ADD13O,4.400000X3.000000*%
%TD*%
%TA.AperFunction,ComponentPad*%
%ADD14C,4.400000*%
%TD*%
%TA.AperFunction,ComponentPad*%
%ADD15O,3.000000X1.500000*%
%TD*%
%TA.AperFunction,ComponentPad*%
%ADD16O,5.000000X3.500000*%
%TD*%
%TA.AperFunction,ViaPad*%
%ADD17C,0.800000*%
%TD*%
%TA.AperFunction,Conductor*%
%ADD18C,0.254000*%
%TD*%
G04 APERTURE END LIST*
D10*
%TO.P,S1,1,1*%
%TO.N,GND*%
X102930000Y-86500000D03*
%TO.P,S1,2,2*%
%TO.N,Net-(S1-Pad2)*%
X102930000Y-91000000D03*
D11*
%TO.P,S1,M,M*%
%TO.N,GND*%
X105430000Y-92250000D03*
X105430000Y-85250000D03*
%TD*%
D12*
%TO.P,J1,1,1*%
%TO.N,/DIN1-1*%
X151500000Y-90699989D03*
%TO.P,J1,2,2*%
%TO.N,/DIN1-2*%
X151500000Y-93299989D03*
%TO.P,J1,3,3*%
%TO.N,GND*%
X151500000Y-88599989D03*
%TO.P,J1,4,4*%
%TO.N,unconnected-(J1-Pad4)*%
X149000000Y-90699989D03*
%TO.P,J1,5,5*%
%TO.N,Net-(F1-Pad2)*%
X151500000Y-95399989D03*
%TO.P,J1,6,6*%
%TO.N,/DIN1-6*%
X149000000Y-88599989D03*
%TO.P,J1,7,7*%
%TO.N,unconnected-(J1-Pad7)*%
X149000000Y-92899989D03*
%TO.P,J1,8,8*%
%TO.N,/DIN1-8*%
X149000000Y-95399989D03*
D13*
%TO.P,J1,S,S*%
%TO.N,GND*%
X154500000Y-85249989D03*
X154500000Y-98749989D03*
D14*
X155300000Y-91999989D03*
%TD*%
D15*
%TO.P,J2,1A,VBUS*%
%TO.N,+5V*%
X116280000Y-97000000D03*
%TO.P,J2,1B,VBUS*%
X112260000Y-97000000D03*
%TO.P,J2,2A,D-*%
%TO.N,/HD-*%
X116280000Y-99500000D03*
%TO.P,J2,2B,D-*%
%TO.N,/D-*%
X112260000Y-99500000D03*
%TO.P,J2,3A,D+*%
%TO.N,/HD+*%
X116280000Y-101500000D03*
%TO.P,J2,3B,D+*%
%TO.N,/D+*%
X112260000Y-101500000D03*
%TO.P,J2,4A,GND*%
%TO.N,GND*%
X116280000Y-104000000D03*
%TO.P,J2,4B,GND*%
X112260000Y-104000000D03*
D16*
%TO.P,J2,S,SHIELD*%
X110250000Y-107070000D03*
X115930000Y-93930000D03*
X115930000Y-107070000D03*
X110250000Y-93930000D03*
%TD*%
D12*
%TO.P,J3,1,1*%
%TO.N,/DIN2-1*%
X151500000Y-107699989D03*
%TO.P,J3,2,2*%
%TO.N,/DIN2-2*%
X151500000Y-110299989D03*
%TO.P,J3,3,3*%
%TO.N,GND*%
X151500000Y-105599989D03*
%TO.P,J3,4,4*%
%TO.N,unconnected-(J3-Pad4)*%
X149000000Y-107699989D03*
%TO.P,J3,5,5*%
%TO.N,Net-(F1-Pad2)*%
X151500000Y-112399989D03*
%TO.P,J3,6,6*%
%TO.N,/DIN2-6*%
X149000000Y-105599989D03*
%TO.P,J3,7,7*%
%TO.N,unconnected-(J3-Pad7)*%
X149000000Y-109899989D03*
%TO.P,J3,8,8*%
%TO.N,/DIN2-8*%
X149000000Y-112399989D03*
D13*
%TO.P,J3,S,S*%
%TO.N,GND*%
X154500000Y-102249989D03*
X154500000Y-115749989D03*
D14*
X155300000Y-108999989D03*
%TD*%
D17*
%TO.N,GND*%
X134250000Y-103750000D03*
X157750003Y-82499989D03*
X122250000Y-112250000D03*
X124000000Y-103775011D03*
X139000000Y-115500000D03*
X158500003Y-118499989D03*
X101270000Y-107300000D03*
X104318000Y-112126000D03*
X128000000Y-82500000D03*
X145250000Y-118500000D03*
X109906000Y-98410000D03*
X135500000Y-115500000D03*
X146000000Y-112250000D03*
X101500000Y-82500000D03*
X136500000Y-94500000D03*
X114500000Y-82500000D03*
X125000000Y-103775011D03*
X132000000Y-115500000D03*
X130500003Y-118499989D03*
X134544000Y-101458000D03*
X101500003Y-118499989D03*
X137250000Y-109500000D03*
X123500000Y-95108000D03*
X134518603Y-98130589D03*
X130988000Y-97648000D03*
X115250000Y-118500000D03*
X126924000Y-105522000D03*
X143750000Y-91250000D03*
X144750000Y-82500000D03*
%TO.N,/DIN1-8*%
X139928803Y-98740189D03*
X139928803Y-100721389D03*
%TO.N,Net-(S1-Pad2)*%
X135737803Y-97901989D03*
X135560000Y-95616000D03*
%TD*%
D18*
%TO.N,/DIN1-8*%
X139928803Y-100721389D02*
X139928803Y-98740189D01*
%TO.N,Net-(S1-Pad2)*%
X135737803Y-95793803D02*
X135560000Y-95616000D01*
X135737803Y-97901989D02*
X135737803Y-95793803D01*
%TD*%
%TA.AperFunction,Conductor*%
%TO.N,GND*%
G36*
X159941121Y-81021002D02*
G01*
X159987614Y-81074658D01*
X159999000Y-81127000D01*
X159999000Y-119873000D01*
X159978998Y-119941121D01*
X159925342Y-119987614D01*
X159873000Y-119999000D01*
X100127000Y-119999000D01*
X100058879Y-119978998D01*
X100012386Y-119925342D01*
X100001000Y-119873000D01*
X100001001Y-116022834D01*
X151809134Y-116022834D01*
X151846127Y-116232631D01*
X151848246Y-116241132D01*
X151932308Y-116499847D01*
X151935599Y-116507994D01*
X152054848Y-116752488D01*
X152059233Y-116760085D01*
X152211352Y-116985610D01*
X152216756Y-116992527D01*
X152398776Y-117194680D01*
X152405091Y-117200779D01*
X152613471Y-117375631D01*
X152620576Y-117380793D01*
X152851275Y-117524950D01*
X152859009Y-117529062D01*
X153107533Y-117639712D01*
X153115774Y-117642711D01*
X153377267Y-117717693D01*
X153385847Y-117719517D01*
X153655235Y-117757377D01*
X153663984Y-117757989D01*
X154227885Y-117757989D01*
X154243124Y-117753514D01*
X154244329Y-117752124D01*
X154246000Y-117744441D01*
X154246000Y-117739874D01*
X154754000Y-117739874D01*
X154758475Y-117755113D01*
X154759865Y-117756318D01*
X154767548Y-117757989D01*
X155267923Y-117757989D01*
X155272308Y-117757836D01*
X155475757Y-117743610D01*
X155484438Y-117742390D01*
X155750530Y-117685830D01*
X155758967Y-117683411D01*
X156014587Y-117590372D01*
X156022603Y-117586803D01*
X156262790Y-117459094D01*
X156270238Y-117454440D01*
X156490306Y-117294551D01*
X156497036Y-117288904D01*
X156692716Y-117099938D01*
X156698588Y-117093416D01*
X156866064Y-116879056D01*
X156870970Y-116871782D01*
X157006984Y-116636200D01*
X157010833Y-116628308D01*
X157112735Y-116376093D01*
X157115451Y-116367735D01*
X157181257Y-116103797D01*
X157182782Y-116095152D01*
X157190470Y-116022004D01*
X157187791Y-116007354D01*
X157175470Y-116003989D01*
X154772115Y-116003989D01*
X154756876Y-116008464D01*
X154755671Y-116009854D01*
X154754000Y-116017537D01*
X154754000Y-117739874D01*
X154246000Y-117739874D01*
X154246000Y-116022104D01*
X154241525Y-116006865D01*
X154240135Y-116005660D01*
X154232452Y-116003989D01*
X151823926Y-116003989D01*
X151811057Y-116007768D01*
X151809134Y-116022834D01*
X100001001Y-116022834D01*
X100001001Y-115477974D01*
X151809530Y-115477974D01*
X151812209Y-115492624D01*
X151824530Y-115495989D01*
X154227885Y-115495989D01*
X154243124Y-115491514D01*
X154244329Y-115490124D01*
X154246000Y-115482441D01*
X154246000Y-115477874D01*
X154754000Y-115477874D01*
X154758475Y-115493113D01*
X154759865Y-115494318D01*
X154767548Y-115495989D01*
X157176074Y-115495989D01*
X157188943Y-115492210D01*
X157190866Y-115477144D01*
X157153873Y-115267347D01*
X157151754Y-115258846D01*
X157067692Y-115000131D01*
X157064401Y-114991984D01*
X156945152Y-114747490D01*
X156940767Y-114739893D01*
X156788648Y-114514368D01*
X156783244Y-114507451D01*
X156601224Y-114305298D01*
X156594909Y-114299199D01*
X156386529Y-114124347D01*
X156379424Y-114119185D01*
X156148725Y-113975028D01*
X156140991Y-113970916D01*
X155892467Y-113860266D01*
X155884226Y-113857267D01*
X155622733Y-113782285D01*
X155614153Y-113780461D01*
X155344765Y-113742601D01*
X155336016Y-113741989D01*
X154772115Y-113741989D01*
X154756876Y-113746464D01*
X154755671Y-113747854D01*
X154754000Y-113755537D01*
X154754000Y-115477874D01*
X154246000Y-115477874D01*
X154246000Y-113760104D01*
X154241525Y-113744865D01*
X154240135Y-113743660D01*
X154232452Y-113741989D01*
X153732077Y-113741989D01*
X153727692Y-113742142D01*
X153524243Y-113756368D01*
X153515562Y-113757588D01*
X153249470Y-113814148D01*
X153241033Y-113816567D01*
X152985413Y-113909606D01*
X152977397Y-113913175D01*
X152737210Y-114040884D01*
X152729762Y-114045538D01*
X152509694Y-114205427D01*
X152502964Y-114211074D01*
X152307284Y-114400040D01*
X152301412Y-114406562D01*
X152133936Y-114620922D01*
X152129030Y-114628196D01*
X151993016Y-114863778D01*
X151989167Y-114871670D01*
X151887265Y-115123885D01*
X151884549Y-115132243D01*
X151818743Y-115396181D01*
X151817218Y-115404826D01*
X151809530Y-115477974D01*
X100001001Y-115477974D01*
X100001001Y-112385217D01*
X147942108Y-112385217D01*
X147959386Y-112590977D01*
X148016301Y-112789463D01*
X148019119Y-112794945D01*
X148019120Y-112794949D01*
X148107865Y-112967628D01*
X148107868Y-112967632D01*
X148110685Y-112973114D01*
X148238942Y-113134934D01*
X148243636Y-113138929D01*
X148270148Y-113161492D01*
X148396188Y-113268761D01*
X148576433Y-113369496D01*
X148772811Y-113433303D01*
X148977843Y-113457752D01*
X148983978Y-113457280D01*
X148983980Y-113457280D01*
X149177577Y-113442384D01*
X149177581Y-113442383D01*
X149183719Y-113441911D01*
X149189651Y-113440255D01*
X149189655Y-113440254D01*
X149260665Y-113420427D01*
X149382597Y-113386383D01*
X149388101Y-113383603D01*
X149388103Y-113383602D01*
X149561401Y-113296063D01*
X149561403Y-113296062D01*
X149566902Y-113293284D01*
X149729614Y-113166159D01*
X149733640Y-113161495D01*
X149733643Y-113161492D01*
X149860506Y-113014520D01*
X149860507Y-113014518D01*
X149864535Y-113009852D01*
X149966527Y-112830314D01*
X150031703Y-112634386D01*
X150057583Y-112429530D01*
X150057995Y-112399989D01*
X150056547Y-112385217D01*
X150442108Y-112385217D01*
X150459386Y-112590977D01*
X150516301Y-112789463D01*
X150519119Y-112794945D01*
X150519120Y-112794949D01*
X150607865Y-112967628D01*
X150607868Y-112967632D01*
X150610685Y-112973114D01*
X150738942Y-113134934D01*
X150743636Y-113138929D01*
X150770148Y-113161492D01*
X150896188Y-113268761D01*
X151076433Y-113369496D01*
X151272811Y-113433303D01*
X151477843Y-113457752D01*
X151483978Y-113457280D01*
X151483980Y-113457280D01*
X151677577Y-113442384D01*
X151677581Y-113442383D01*
X151683719Y-113441911D01*
X151689651Y-113440255D01*
X151689655Y-113440254D01*
X151760665Y-113420427D01*
X151882597Y-113386383D01*
X151888101Y-113383603D01*
X151888103Y-113383602D01*
X152061401Y-113296063D01*
X152061403Y-113296062D01*
X152066902Y-113293284D01*
X152229614Y-113166159D01*
X152233640Y-113161495D01*
X152233643Y-113161492D01*
X152360506Y-113014520D01*
X152360507Y-113014518D01*
X152364535Y-113009852D01*
X152466527Y-112830314D01*
X152531703Y-112634386D01*
X152557583Y-112429530D01*
X152557995Y-112399989D01*
X152537846Y-112194490D01*
X152478165Y-111996818D01*
X152381227Y-111814504D01*
X152377337Y-111809734D01*
X152377334Y-111809730D01*
X152254617Y-111659265D01*
X152254614Y-111659262D01*
X152250722Y-111654490D01*
X152239360Y-111645090D01*
X152171173Y-111588681D01*
X152091623Y-111522871D01*
X151976550Y-111460651D01*
X151926141Y-111410656D01*
X151910764Y-111341345D01*
X151935300Y-111274723D01*
X151979668Y-111237349D01*
X151980664Y-111236846D01*
X152066902Y-111193284D01*
X152203691Y-111086412D01*
X153578703Y-111086412D01*
X153586227Y-111096843D01*
X153725483Y-111209009D01*
X153731657Y-111213397D01*
X154002271Y-111382167D01*
X154008931Y-111385783D01*
X154297852Y-111520816D01*
X154304905Y-111523609D01*
X154607970Y-111622959D01*
X154615282Y-111624877D01*
X154928092Y-111687098D01*
X154935590Y-111688126D01*
X155253610Y-111712317D01*
X155261173Y-111712435D01*
X155579785Y-111698246D01*
X155587326Y-111697454D01*
X155901924Y-111645090D01*
X155909302Y-111643400D01*
X156215355Y-111553614D01*
X156222450Y-111551060D01*
X156515496Y-111425158D01*
X156522263Y-111421754D01*
X156798042Y-111261569D01*
X156804349Y-111257379D01*
X157014305Y-111098878D01*
X157022761Y-111087485D01*
X157016045Y-111075245D01*
X155312810Y-109372009D01*
X155298869Y-109364397D01*
X155297034Y-109364528D01*
X155290420Y-109368779D01*
X153585818Y-111073382D01*
X153578703Y-111086412D01*
X152203691Y-111086412D01*
X152229614Y-111066159D01*
X152233640Y-111061495D01*
X152233643Y-111061492D01*
X152360506Y-110914520D01*
X152360507Y-110914518D01*
X152364535Y-110909852D01*
X152466527Y-110730314D01*
X152531703Y-110534386D01*
X152546336Y-110418559D01*
X152557141Y-110333032D01*
X152557142Y-110333025D01*
X152557583Y-110329530D01*
X152557995Y-110299989D01*
X152537846Y-110094490D01*
X152478165Y-109896818D01*
X152381227Y-109714504D01*
X152377337Y-109709734D01*
X152377334Y-109709730D01*
X152254617Y-109559265D01*
X152254614Y-109559262D01*
X152250722Y-109554490D01*
X152091623Y-109422871D01*
X151909990Y-109324662D01*
X151712739Y-109263603D01*
X151706614Y-109262959D01*
X151706613Y-109262959D01*
X151513515Y-109242664D01*
X151513513Y-109242664D01*
X151507386Y-109242020D01*
X151421075Y-109249875D01*
X151307891Y-109260175D01*
X151307888Y-109260176D01*
X151301752Y-109260734D01*
X151295846Y-109262472D01*
X151295842Y-109262473D01*
X151176702Y-109297538D01*
X151103668Y-109319033D01*
X151098203Y-109321890D01*
X151095076Y-109323525D01*
X150920681Y-109414697D01*
X150759760Y-109544080D01*
X150627034Y-109702257D01*
X150624068Y-109707652D01*
X150624064Y-109707658D01*
X150617309Y-109719946D01*
X150527559Y-109883200D01*
X150465125Y-110080019D01*
X150464439Y-110086136D01*
X150464438Y-110086140D01*
X150448508Y-110228162D01*
X150442108Y-110285217D01*
X150443348Y-110299989D01*
X150458292Y-110477946D01*
X150459386Y-110490977D01*
X150516301Y-110689463D01*
X150519119Y-110694945D01*
X150519120Y-110694949D01*
X150607865Y-110867628D01*
X150607868Y-110867632D01*
X150610685Y-110873114D01*
X150738942Y-111034934D01*
X150743636Y-111038929D01*
X150770148Y-111061492D01*
X150896188Y-111168761D01*
X151024425Y-111240430D01*
X151074130Y-111291122D01*
X151088539Y-111360641D01*
X151063075Y-111426914D01*
X151021330Y-111462078D01*
X150934206Y-111507626D01*
X150920681Y-111514697D01*
X150759760Y-111644080D01*
X150627034Y-111802257D01*
X150624068Y-111807652D01*
X150624064Y-111807658D01*
X150617309Y-111819946D01*
X150527559Y-111983200D01*
X150465125Y-112180019D01*
X150464439Y-112186136D01*
X150464438Y-112186140D01*
X150442795Y-112379092D01*
X150442108Y-112385217D01*
X150056547Y-112385217D01*
X150037846Y-112194490D01*
X149978165Y-111996818D01*
X149881227Y-111814504D01*
X149877337Y-111809734D01*
X149877334Y-111809730D01*
X149754617Y-111659265D01*
X149754614Y-111659262D01*
X149750722Y-111654490D01*
X149739360Y-111645090D01*
X149671173Y-111588681D01*
X149591623Y-111522871D01*
X149409990Y-111424662D01*
X149212739Y-111363603D01*
X149206614Y-111362959D01*
X149206613Y-111362959D01*
X149013515Y-111342664D01*
X149013513Y-111342664D01*
X149007386Y-111342020D01*
X148922007Y-111349790D01*
X148807891Y-111360175D01*
X148807888Y-111360176D01*
X148801752Y-111360734D01*
X148795846Y-111362472D01*
X148795842Y-111362473D01*
X148716642Y-111385783D01*
X148603668Y-111419033D01*
X148420681Y-111514697D01*
X148259760Y-111644080D01*
X148127034Y-111802257D01*
X148124068Y-111807652D01*
X148124064Y-111807658D01*
X148117309Y-111819946D01*
X148027559Y-111983200D01*
X147965125Y-112180019D01*
X147964439Y-112186136D01*
X147964438Y-112186140D01*
X147942795Y-112379092D01*
X147942108Y-112385217D01*
X100001001Y-112385217D01*
X100001002Y-109885217D01*
X147942108Y-109885217D01*
X147943082Y-109896818D01*
X147957973Y-110074146D01*
X147959386Y-110090977D01*
X148016301Y-110289463D01*
X148019119Y-110294945D01*
X148019120Y-110294949D01*
X148107865Y-110467628D01*
X148107868Y-110467632D01*
X148110685Y-110473114D01*
X148238942Y-110634934D01*
X148243636Y-110638929D01*
X148331754Y-110713923D01*
X148396188Y-110768761D01*
X148576433Y-110869496D01*
X148772811Y-110933303D01*
X148977843Y-110957752D01*
X148983978Y-110957280D01*
X148983980Y-110957280D01*
X149177577Y-110942384D01*
X149177581Y-110942383D01*
X149183719Y-110941911D01*
X149189651Y-110940255D01*
X149189655Y-110940254D01*
X149281822Y-110914520D01*
X149382597Y-110886383D01*
X149388101Y-110883603D01*
X149388103Y-110883602D01*
X149561401Y-110796063D01*
X149561403Y-110796062D01*
X149566902Y-110793284D01*
X149729614Y-110666159D01*
X149733640Y-110661495D01*
X149733643Y-110661492D01*
X149860506Y-110514520D01*
X149860507Y-110514518D01*
X149864535Y-110509852D01*
X149966527Y-110330314D01*
X150031703Y-110134386D01*
X150047634Y-110008284D01*
X150057141Y-109933032D01*
X150057142Y-109933025D01*
X150057583Y-109929530D01*
X150057995Y-109899989D01*
X150037846Y-109694490D01*
X149978165Y-109496818D01*
X149888186Y-109327592D01*
X149884121Y-109319946D01*
X149884119Y-109319943D01*
X149881227Y-109314504D01*
X149877337Y-109309734D01*
X149877334Y-109309730D01*
X149754617Y-109159265D01*
X149754614Y-109159262D01*
X149750722Y-109154490D01*
X149591623Y-109022871D01*
X149503776Y-108975372D01*
X152587388Y-108975372D01*
X152603245Y-109293903D01*
X152604076Y-109301432D01*
X152658085Y-109615748D01*
X152659818Y-109623135D01*
X152751196Y-109928684D01*
X152753799Y-109935797D01*
X152881227Y-110228162D01*
X152884669Y-110234918D01*
X153046294Y-110509852D01*
X153050519Y-110516139D01*
X153201463Y-110713923D01*
X153212989Y-110722385D01*
X153225054Y-110715724D01*
X154927980Y-109012799D01*
X154934357Y-109001120D01*
X155664408Y-109001120D01*
X155664539Y-109002955D01*
X155668790Y-109009569D01*
X157373285Y-110714063D01*
X157386408Y-110721229D01*
X157396709Y-110713840D01*
X157500751Y-110586044D01*
X157505164Y-110579903D01*
X157675349Y-110310176D01*
X157679005Y-110303525D01*
X157815544Y-110015324D01*
X157818375Y-110008284D01*
X157919306Y-109705756D01*
X157921270Y-109698422D01*
X157985122Y-109385978D01*
X157986194Y-109378454D01*
X158012173Y-109059040D01*
X158012378Y-109054565D01*
X158012927Y-109002210D01*
X158012817Y-108997778D01*
X157993529Y-108677842D01*
X157992621Y-108670340D01*
X157935319Y-108356582D01*
X157933518Y-108349249D01*
X157838935Y-108044644D01*
X157836263Y-108037572D01*
X157705781Y-107746559D01*
X157702264Y-107739832D01*
X157537771Y-107466610D01*
X157533481Y-107460366D01*
X157397991Y-107286636D01*
X157386199Y-107278167D01*
X157374486Y-107284714D01*
X155672020Y-108987179D01*
X155664408Y-109001120D01*
X154934357Y-109001120D01*
X154935592Y-108998858D01*
X154935461Y-108997023D01*
X154931210Y-108990409D01*
X153226445Y-107285645D01*
X153213510Y-107278581D01*
X153202949Y-107286241D01*
X153082766Y-107437061D01*
X153078410Y-107443259D01*
X152911059Y-107714753D01*
X152907479Y-107721429D01*
X152773956Y-108011063D01*
X152771206Y-108018114D01*
X152673444Y-108321697D01*
X152671561Y-108329030D01*
X152610979Y-108642159D01*
X152609992Y-108649659D01*
X152587467Y-108967791D01*
X152587388Y-108975372D01*
X149503776Y-108975372D01*
X149409990Y-108924662D01*
X149397816Y-108920893D01*
X149338658Y-108881644D01*
X149310110Y-108816640D01*
X149321238Y-108746521D01*
X149368508Y-108693549D01*
X149382648Y-108686485D01*
X149382597Y-108686383D01*
X149561401Y-108596063D01*
X149561403Y-108596062D01*
X149566902Y-108593284D01*
X149729614Y-108466159D01*
X149733640Y-108461495D01*
X149733643Y-108461492D01*
X149860506Y-108314520D01*
X149860507Y-108314518D01*
X149864535Y-108309852D01*
X149966527Y-108130314D01*
X150031703Y-107934386D01*
X150057583Y-107729530D01*
X150057995Y-107699989D01*
X150056547Y-107685217D01*
X150442108Y-107685217D01*
X150459386Y-107890977D01*
X150516301Y-108089463D01*
X150519119Y-108094945D01*
X150519120Y-108094949D01*
X150607865Y-108267628D01*
X150607868Y-108267632D01*
X150610685Y-108273114D01*
X150738942Y-108434934D01*
X150743636Y-108438929D01*
X150811758Y-108496905D01*
X150896188Y-108568761D01*
X151076433Y-108669496D01*
X151272811Y-108733303D01*
X151477843Y-108757752D01*
X151483978Y-108757280D01*
X151483980Y-108757280D01*
X151677577Y-108742384D01*
X151677581Y-108742383D01*
X151683719Y-108741911D01*
X151689651Y-108740255D01*
X151689655Y-108740254D01*
X151765723Y-108719015D01*
X151882597Y-108686383D01*
X151888101Y-108683603D01*
X151888103Y-108683602D01*
X152061401Y-108596063D01*
X152061403Y-108596062D01*
X152066902Y-108593284D01*
X152229614Y-108466159D01*
X152233640Y-108461495D01*
X152233643Y-108461492D01*
X152360506Y-108314520D01*
X152360507Y-108314518D01*
X152364535Y-108309852D01*
X152466527Y-108130314D01*
X152531703Y-107934386D01*
X152557583Y-107729530D01*
X152557995Y-107699989D01*
X152537846Y-107494490D01*
X152478165Y-107296818D01*
X152381227Y-107114504D01*
X152377337Y-107109734D01*
X152377334Y-107109730D01*
X152252964Y-106957239D01*
X152234508Y-106913412D01*
X153577917Y-106913412D01*
X153584520Y-106925298D01*
X155287190Y-108627969D01*
X155301131Y-108635581D01*
X155302966Y-108635450D01*
X155309580Y-108631199D01*
X157014559Y-106926219D01*
X157021571Y-106913378D01*
X157013777Y-106902690D01*
X156851298Y-106774602D01*
X156845075Y-106770277D01*
X156572702Y-106604346D01*
X156566025Y-106600811D01*
X156275686Y-106468802D01*
X156268616Y-106466088D01*
X155964537Y-106369921D01*
X155957186Y-106368074D01*
X155643746Y-106309131D01*
X155636237Y-106308183D01*
X155317989Y-106287324D01*
X155310424Y-106287284D01*
X154991964Y-106304810D01*
X154984450Y-106305679D01*
X154670405Y-106361337D01*
X154663044Y-106363104D01*
X154357980Y-106456081D01*
X154350860Y-106458729D01*
X154059182Y-106587679D01*
X154052445Y-106591156D01*
X153778355Y-106754222D01*
X153772091Y-106758479D01*
X153586385Y-106901751D01*
X153577917Y-106913412D01*
X152234508Y-106913412D01*
X152225410Y-106891807D01*
X152237605Y-106821866D01*
X152277439Y-106775024D01*
X152285096Y-106769562D01*
X152293497Y-106758863D01*
X152286510Y-106745710D01*
X151512811Y-105972010D01*
X151498868Y-105964397D01*
X151497034Y-105964528D01*
X151490420Y-105968779D01*
X150710180Y-106749020D01*
X150703423Y-106761395D01*
X150708705Y-106768451D01*
X150712887Y-106770895D01*
X150761610Y-106822535D01*
X150774680Y-106892318D01*
X150745837Y-106960673D01*
X150627034Y-107102257D01*
X150624068Y-107107652D01*
X150624064Y-107107658D01*
X150617309Y-107119946D01*
X150527559Y-107283200D01*
X150465125Y-107480019D01*
X150464439Y-107486136D01*
X150464438Y-107486140D01*
X150442795Y-107679092D01*
X150442108Y-107685217D01*
X150056547Y-107685217D01*
X150037846Y-107494490D01*
X149978165Y-107296818D01*
X149881227Y-107114504D01*
X149877337Y-107109734D01*
X149877334Y-107109730D01*
X149754617Y-106959265D01*
X149754614Y-106959262D01*
X149750722Y-106954490D01*
X149716549Y-106926219D01*
X149596372Y-106826800D01*
X149591623Y-106822871D01*
X149476550Y-106760651D01*
X149426141Y-106710656D01*
X149410764Y-106641345D01*
X149435300Y-106574723D01*
X149479668Y-106537349D01*
X149516921Y-106518531D01*
X149566902Y-106493284D01*
X149729614Y-106366159D01*
X149733640Y-106361495D01*
X149733643Y-106361492D01*
X149860506Y-106214520D01*
X149860507Y-106214518D01*
X149864535Y-106209852D01*
X149918504Y-106114850D01*
X149947984Y-106062956D01*
X149999023Y-106013605D01*
X150068641Y-105999683D01*
X150134735Y-106025609D01*
X150174283Y-106077789D01*
X150236989Y-106232215D01*
X150241634Y-106241410D01*
X150330097Y-106385770D01*
X150340553Y-106395231D01*
X150349331Y-106391447D01*
X151127979Y-105612800D01*
X151134356Y-105601121D01*
X151864408Y-105601121D01*
X151864539Y-105602955D01*
X151868790Y-105609569D01*
X152646307Y-106387085D01*
X152658313Y-106393641D01*
X152670052Y-106384673D01*
X152708010Y-106331848D01*
X152713321Y-106323009D01*
X152811318Y-106124726D01*
X152815117Y-106115131D01*
X152879415Y-105903506D01*
X152881594Y-105893425D01*
X152910702Y-105672327D01*
X152911221Y-105665652D01*
X152912744Y-105603353D01*
X152912550Y-105596635D01*
X152894279Y-105374389D01*
X152892596Y-105364227D01*
X152838710Y-105149697D01*
X152835389Y-105139942D01*
X152747193Y-104937107D01*
X152742315Y-104928009D01*
X152669224Y-104815027D01*
X152658538Y-104805824D01*
X152648973Y-104810227D01*
X151872021Y-105587178D01*
X151864408Y-105601121D01*
X151134356Y-105601121D01*
X151135592Y-105598857D01*
X151135461Y-105597023D01*
X151131210Y-105590409D01*
X150353862Y-104813062D01*
X150342330Y-104806765D01*
X150330048Y-104816388D01*
X150274467Y-104897866D01*
X150269379Y-104906822D01*
X150176249Y-105107454D01*
X150173070Y-105116097D01*
X150130779Y-105173123D01*
X150064371Y-105198232D01*
X149994930Y-105183453D01*
X149943567Y-105131749D01*
X149936375Y-105118223D01*
X149881227Y-105014504D01*
X149877337Y-105009734D01*
X149877334Y-105009730D01*
X149754617Y-104859265D01*
X149754614Y-104859262D01*
X149750722Y-104854490D01*
X149716948Y-104826549D01*
X149596372Y-104726800D01*
X149591623Y-104722871D01*
X149409990Y-104624662D01*
X149212739Y-104563603D01*
X149206614Y-104562959D01*
X149206613Y-104562959D01*
X149013515Y-104542664D01*
X149013513Y-104542664D01*
X149007386Y-104542020D01*
X148921075Y-104549875D01*
X148807891Y-104560175D01*
X148807888Y-104560176D01*
X148801752Y-104560734D01*
X148795846Y-104562472D01*
X148795842Y-104562473D01*
X148656944Y-104603353D01*
X148603668Y-104619033D01*
X148420681Y-104714697D01*
X148259760Y-104844080D01*
X148127034Y-105002257D01*
X148124068Y-105007652D01*
X148124064Y-105007658D01*
X148072514Y-105101428D01*
X148027559Y-105183200D01*
X147965125Y-105380019D01*
X147964439Y-105386136D01*
X147964438Y-105386140D01*
X147952811Y-105489795D01*
X147942108Y-105585217D01*
X147959386Y-105790977D01*
X148016301Y-105989463D01*
X148019119Y-105994945D01*
X148019120Y-105994949D01*
X148107865Y-106167628D01*
X148107868Y-106167632D01*
X148110685Y-106173114D01*
X148238942Y-106334934D01*
X148243636Y-106338929D01*
X148347264Y-106427123D01*
X148396188Y-106468761D01*
X148524425Y-106540430D01*
X148574130Y-106591122D01*
X148588539Y-106660641D01*
X148563075Y-106726914D01*
X148521330Y-106762078D01*
X148452839Y-106797885D01*
X148420681Y-106814697D01*
X148259760Y-106944080D01*
X148127034Y-107102257D01*
X148124068Y-107107652D01*
X148124064Y-107107658D01*
X148117309Y-107119946D01*
X148027559Y-107283200D01*
X147965125Y-107480019D01*
X147964439Y-107486136D01*
X147964438Y-107486140D01*
X147942795Y-107679092D01*
X147942108Y-107685217D01*
X147959386Y-107890977D01*
X148016301Y-108089463D01*
X148019119Y-108094945D01*
X148019120Y-108094949D01*
X148107865Y-108267628D01*
X148107868Y-108267632D01*
X148110685Y-108273114D01*
X148238942Y-108434934D01*
X148243636Y-108438929D01*
X148311758Y-108496905D01*
X148396188Y-108568761D01*
X148576433Y-108669496D01*
X148602120Y-108677842D01*
X148605505Y-108678942D01*
X148664111Y-108719015D01*
X148691748Y-108784412D01*
X148679641Y-108854369D01*
X148631635Y-108906675D01*
X148613772Y-108915599D01*
X148609577Y-108917294D01*
X148603668Y-108919033D01*
X148598210Y-108921886D01*
X148598206Y-108921888D01*
X148510403Y-108967791D01*
X148420681Y-109014697D01*
X148259760Y-109144080D01*
X148127034Y-109302257D01*
X148124068Y-109307652D01*
X148124064Y-109307658D01*
X148066790Y-109411840D01*
X148027559Y-109483200D01*
X147965125Y-109680019D01*
X147964439Y-109686136D01*
X147964438Y-109686140D01*
X147960646Y-109719946D01*
X147942108Y-109885217D01*
X100001002Y-109885217D01*
X100001002Y-107340272D01*
X107256942Y-107340272D01*
X107263222Y-107412053D01*
X107264497Y-107420292D01*
X107328110Y-107704880D01*
X107330464Y-107712877D01*
X107431150Y-107986534D01*
X107434550Y-107994172D01*
X107570549Y-108252115D01*
X107574916Y-108259213D01*
X107743835Y-108496905D01*
X107749108Y-108503372D01*
X107947983Y-108716639D01*
X107954067Y-108722351D01*
X108179393Y-108907437D01*
X108186174Y-108912292D01*
X108434013Y-109065958D01*
X108441373Y-109069871D01*
X108707346Y-109189404D01*
X108715169Y-109192314D01*
X108994625Y-109275624D01*
X109002746Y-109277469D01*
X109291429Y-109323191D01*
X109298403Y-109323899D01*
X109387286Y-109327936D01*
X109390119Y-109328000D01*
X109977885Y-109328000D01*
X109993124Y-109323525D01*
X109994329Y-109322135D01*
X109996000Y-109314452D01*
X109996000Y-109309885D01*
X110504000Y-109309885D01*
X110508475Y-109325124D01*
X110509865Y-109326329D01*
X110517548Y-109328000D01*
X111073993Y-109328000D01*
X111078182Y-109327861D01*
X111295132Y-109313451D01*
X111303403Y-109312347D01*
X111589251Y-109254710D01*
X111597303Y-109252522D01*
X111873005Y-109157591D01*
X111880716Y-109154350D01*
X112141444Y-109023787D01*
X112148638Y-109019566D01*
X112389820Y-108855659D01*
X112396390Y-108850526D01*
X112613775Y-108656161D01*
X112619608Y-108650205D01*
X112809378Y-108428797D01*
X112814376Y-108422116D01*
X112973187Y-108177568D01*
X112977263Y-108170275D01*
X112978387Y-108167908D01*
X112978918Y-108167313D01*
X112979300Y-108166630D01*
X112979452Y-108166715D01*
X113025676Y-108114952D01*
X113094088Y-108095969D01*
X113161902Y-108116986D01*
X113203664Y-108163190D01*
X113250549Y-108252115D01*
X113254916Y-108259213D01*
X113423835Y-108496905D01*
X113429108Y-108503372D01*
X113627983Y-108716639D01*
X113634067Y-108722351D01*
X113859393Y-108907437D01*
X113866174Y-108912292D01*
X114114013Y-109065958D01*
X114121373Y-109069871D01*
X114387346Y-109189404D01*
X114395169Y-109192314D01*
X114674625Y-109275624D01*
X114682746Y-109277469D01*
X114971429Y-109323191D01*
X114978403Y-109323899D01*
X115067286Y-109327936D01*
X115070119Y-109328000D01*
X115657885Y-109328000D01*
X115673124Y-109323525D01*
X115674329Y-109322135D01*
X115676000Y-109314452D01*
X115676000Y-109309885D01*
X116184000Y-109309885D01*
X116188475Y-109325124D01*
X116189865Y-109326329D01*
X116197548Y-109328000D01*
X116753993Y-109328000D01*
X116758182Y-109327861D01*
X116975132Y-109313451D01*
X116983403Y-109312347D01*
X117269251Y-109254710D01*
X117277303Y-109252522D01*
X117553005Y-109157591D01*
X117560716Y-109154350D01*
X117821444Y-109023787D01*
X117828638Y-109019566D01*
X118069820Y-108855659D01*
X118076390Y-108850526D01*
X118293775Y-108656161D01*
X118299608Y-108650205D01*
X118489378Y-108428797D01*
X118494376Y-108422116D01*
X118653191Y-108177563D01*
X118657265Y-108170273D01*
X118782338Y-107906868D01*
X118785414Y-107899100D01*
X118874552Y-107621469D01*
X118876573Y-107613363D01*
X118925429Y-107341830D01*
X118923997Y-107328571D01*
X118909387Y-107324000D01*
X116202115Y-107324000D01*
X116186876Y-107328475D01*
X116185671Y-107329865D01*
X116184000Y-107337548D01*
X116184000Y-109309885D01*
X115676000Y-109309885D01*
X115676000Y-107342115D01*
X115671525Y-107326876D01*
X115670135Y-107325671D01*
X115662452Y-107324000D01*
X110522115Y-107324000D01*
X110506876Y-107328475D01*
X110505671Y-107329865D01*
X110504000Y-107337548D01*
X110504000Y-109309885D01*
X109996000Y-109309885D01*
X109996000Y-107342115D01*
X109991525Y-107326876D01*
X109990135Y-107325671D01*
X109982452Y-107324000D01*
X107273633Y-107324000D01*
X107259004Y-107328295D01*
X107256942Y-107340272D01*
X100001002Y-107340272D01*
X100001002Y-107119946D01*
X100001002Y-106798170D01*
X107254571Y-106798170D01*
X107256003Y-106811429D01*
X107270613Y-106816000D01*
X109977885Y-106816000D01*
X109993124Y-106811525D01*
X109994329Y-106810135D01*
X109996000Y-106802452D01*
X109996000Y-104830115D01*
X109991525Y-104814876D01*
X109990135Y-104813671D01*
X109982452Y-104812000D01*
X109426007Y-104812000D01*
X109421818Y-104812139D01*
X109204868Y-104826549D01*
X109196597Y-104827653D01*
X108910749Y-104885290D01*
X108902697Y-104887478D01*
X108626995Y-104982409D01*
X108619284Y-104985650D01*
X108358556Y-105116213D01*
X108351362Y-105120434D01*
X108110180Y-105284341D01*
X108103610Y-105289474D01*
X107886225Y-105483839D01*
X107880392Y-105489795D01*
X107690622Y-105711203D01*
X107685624Y-105717884D01*
X107526809Y-105962437D01*
X107522735Y-105969727D01*
X107397662Y-106233132D01*
X107394586Y-106240900D01*
X107305448Y-106518531D01*
X107303427Y-106526637D01*
X107254571Y-106798170D01*
X100001002Y-106798170D01*
X100001002Y-104267728D01*
X110276114Y-104267728D01*
X110276166Y-104267973D01*
X110338898Y-104471883D01*
X110343119Y-104482229D01*
X110440971Y-104671814D01*
X110446957Y-104681245D01*
X110480274Y-104724665D01*
X110505875Y-104790885D01*
X110504000Y-104819505D01*
X110504000Y-106797885D01*
X110508475Y-106813124D01*
X110509865Y-106814329D01*
X110517548Y-106816000D01*
X118906367Y-106816000D01*
X118920996Y-106811705D01*
X118923058Y-106799728D01*
X118916778Y-106727947D01*
X118915503Y-106719708D01*
X118851890Y-106435120D01*
X118849536Y-106427123D01*
X118748850Y-106153466D01*
X118745450Y-106145828D01*
X118609451Y-105887885D01*
X118605084Y-105880787D01*
X118436165Y-105643095D01*
X118430892Y-105636628D01*
X118232017Y-105423361D01*
X118225933Y-105417649D01*
X118000607Y-105232563D01*
X117993826Y-105227708D01*
X117875471Y-105154325D01*
X117828116Y-105101428D01*
X117816876Y-105031327D01*
X117845320Y-104966278D01*
X117856592Y-104954842D01*
X118007692Y-104798918D01*
X118014735Y-104790221D01*
X118133719Y-104613156D01*
X118139105Y-104603358D01*
X118210507Y-104440700D01*
X150705508Y-104440700D01*
X150712251Y-104453029D01*
X151487189Y-105227968D01*
X151501132Y-105235581D01*
X151502966Y-105235450D01*
X151509580Y-105231199D01*
X152288994Y-104451784D01*
X152296011Y-104438933D01*
X152288237Y-104428263D01*
X152285902Y-104426419D01*
X152277320Y-104420718D01*
X152083678Y-104313822D01*
X152074272Y-104309595D01*
X151865772Y-104235761D01*
X151855809Y-104233129D01*
X151638047Y-104194339D01*
X151627796Y-104193370D01*
X151406616Y-104190668D01*
X151396332Y-104191388D01*
X151177693Y-104224844D01*
X151167666Y-104227233D01*
X150957426Y-104295950D01*
X150947916Y-104299947D01*
X150751725Y-104402078D01*
X150743007Y-104407567D01*
X150713961Y-104429375D01*
X150705508Y-104440700D01*
X118210507Y-104440700D01*
X118224857Y-104408010D01*
X118228422Y-104397418D01*
X118258624Y-104271616D01*
X118257919Y-104257530D01*
X118249040Y-104254000D01*
X114311590Y-104254000D01*
X114305786Y-104255704D01*
X114234790Y-104255702D01*
X114229852Y-104254000D01*
X110291589Y-104254000D01*
X110277607Y-104258105D01*
X110276114Y-104267728D01*
X100001002Y-104267728D01*
X100001002Y-103728384D01*
X110281376Y-103728384D01*
X110282081Y-103742470D01*
X110290960Y-103746000D01*
X111987885Y-103746000D01*
X112003124Y-103741525D01*
X112004329Y-103740135D01*
X112006000Y-103732452D01*
X112006000Y-103727885D01*
X112514000Y-103727885D01*
X112518475Y-103743124D01*
X112519865Y-103744329D01*
X112527548Y-103746000D01*
X114228410Y-103746000D01*
X114234214Y-103744296D01*
X114305210Y-103744298D01*
X114310148Y-103746000D01*
X116007885Y-103746000D01*
X116023124Y-103741525D01*
X116024329Y-103740135D01*
X116026000Y-103732452D01*
X116026000Y-103727885D01*
X116534000Y-103727885D01*
X116538475Y-103743124D01*
X116539865Y-103744329D01*
X116547548Y-103746000D01*
X118248411Y-103746000D01*
X118262393Y-103741895D01*
X118263886Y-103732272D01*
X118263834Y-103732027D01*
X118201102Y-103528117D01*
X118196881Y-103517771D01*
X118099029Y-103328186D01*
X118093043Y-103318755D01*
X117963168Y-103149499D01*
X117955607Y-103141276D01*
X117797806Y-102997688D01*
X117788906Y-102990933D01*
X117608185Y-102877566D01*
X117598219Y-102872489D01*
X117400286Y-102792920D01*
X117389571Y-102789685D01*
X117179699Y-102746223D01*
X117170562Y-102745020D01*
X117120010Y-102742105D01*
X117116363Y-102742000D01*
X116552115Y-102742000D01*
X116536876Y-102746475D01*
X116535671Y-102747865D01*
X116534000Y-102755548D01*
X116534000Y-103727885D01*
X116026000Y-103727885D01*
X116026000Y-102760115D01*
X116021525Y-102744876D01*
X116020135Y-102743671D01*
X116012452Y-102742000D01*
X115475825Y-102742000D01*
X115470230Y-102742249D01*
X115311922Y-102756378D01*
X115300908Y-102758360D01*
X115095140Y-102814651D01*
X115084659Y-102818549D01*
X114892097Y-102910397D01*
X114882484Y-102916082D01*
X114709233Y-103040575D01*
X114700767Y-103047883D01*
X114552308Y-103201082D01*
X114545265Y-103209779D01*
X114426281Y-103386844D01*
X114420892Y-103396647D01*
X114386191Y-103475697D01*
X114340495Y-103530032D01*
X114272677Y-103551037D01*
X114204268Y-103532042D01*
X114158852Y-103482841D01*
X114079029Y-103328186D01*
X114073043Y-103318755D01*
X113943168Y-103149499D01*
X113935607Y-103141276D01*
X113777806Y-102997688D01*
X113768906Y-102990933D01*
X113588185Y-102877566D01*
X113578219Y-102872489D01*
X113380286Y-102792920D01*
X113369571Y-102789685D01*
X113159699Y-102746223D01*
X113150562Y-102745020D01*
X113100010Y-102742105D01*
X113096363Y-102742000D01*
X112532115Y-102742000D01*
X112516876Y-102746475D01*
X112515671Y-102747865D01*
X112514000Y-102755548D01*
X112514000Y-103727885D01*
X112006000Y-103727885D01*
X112006000Y-102760115D01*
X112001525Y-102744876D01*
X112000135Y-102743671D01*
X111992452Y-102742000D01*
X111455825Y-102742000D01*
X111450230Y-102742249D01*
X111291922Y-102756378D01*
X111280908Y-102758360D01*
X111075140Y-102814651D01*
X111064659Y-102818549D01*
X110872097Y-102910397D01*
X110862484Y-102916082D01*
X110689233Y-103040575D01*
X110680767Y-103047883D01*
X110532308Y-103201082D01*
X110525265Y-103209779D01*
X110406281Y-103386844D01*
X110400895Y-103396642D01*
X110315143Y-103591990D01*
X110311578Y-103602582D01*
X110281376Y-103728384D01*
X100001002Y-103728384D01*
X100001002Y-102522834D01*
X151809134Y-102522834D01*
X151846127Y-102732631D01*
X151848246Y-102741132D01*
X151932308Y-102999847D01*
X151935599Y-103007994D01*
X152054848Y-103252488D01*
X152059233Y-103260085D01*
X152211352Y-103485610D01*
X152216756Y-103492527D01*
X152398776Y-103694680D01*
X152405091Y-103700779D01*
X152613471Y-103875631D01*
X152620576Y-103880793D01*
X152851275Y-104024950D01*
X152859009Y-104029062D01*
X153107533Y-104139712D01*
X153115774Y-104142711D01*
X153377267Y-104217693D01*
X153385847Y-104219517D01*
X153655235Y-104257377D01*
X153663984Y-104257989D01*
X154227885Y-104257989D01*
X154243124Y-104253514D01*
X154244329Y-104252124D01*
X154246000Y-104244441D01*
X154246000Y-104239874D01*
X154754000Y-104239874D01*
X154758475Y-104255113D01*
X154759865Y-104256318D01*
X154767548Y-104257989D01*
X155267923Y-104257989D01*
X155272308Y-104257836D01*
X155475757Y-104243610D01*
X155484438Y-104242390D01*
X155750530Y-104185830D01*
X155758967Y-104183411D01*
X156014587Y-104090372D01*
X156022603Y-104086803D01*
X156262790Y-103959094D01*
X156270238Y-103954440D01*
X156490306Y-103794551D01*
X156497036Y-103788904D01*
X156692716Y-103599938D01*
X156698588Y-103593416D01*
X156866064Y-103379056D01*
X156870970Y-103371782D01*
X157006984Y-103136200D01*
X157010833Y-103128308D01*
X157112735Y-102876093D01*
X157115451Y-102867735D01*
X157181257Y-102603797D01*
X157182782Y-102595152D01*
X157190470Y-102522004D01*
X157187791Y-102507354D01*
X157175470Y-102503989D01*
X154772115Y-102503989D01*
X154756876Y-102508464D01*
X154755671Y-102509854D01*
X154754000Y-102517537D01*
X154754000Y-104239874D01*
X154246000Y-104239874D01*
X154246000Y-102522104D01*
X154241525Y-102506865D01*
X154240135Y-102505660D01*
X154232452Y-102503989D01*
X151823926Y-102503989D01*
X151811057Y-102507768D01*
X151809134Y-102522834D01*
X100001002Y-102522834D01*
X100001002Y-101594899D01*
X110607100Y-101594899D01*
X110608472Y-101601352D01*
X110608472Y-101601356D01*
X110626830Y-101687723D01*
X110646561Y-101780548D01*
X110649245Y-101786577D01*
X110649246Y-101786579D01*
X110701894Y-101904826D01*
X110723759Y-101953936D01*
X110727639Y-101959277D01*
X110727640Y-101959278D01*
X110752223Y-101993113D01*
X110835319Y-102107486D01*
X110976366Y-102234485D01*
X111140735Y-102329383D01*
X111321243Y-102388034D01*
X111327804Y-102388724D01*
X111327806Y-102388724D01*
X111380382Y-102394250D01*
X111462685Y-102402900D01*
X113057315Y-102402900D01*
X113139618Y-102394250D01*
X113192194Y-102388724D01*
X113192196Y-102388724D01*
X113198757Y-102388034D01*
X113379265Y-102329383D01*
X113543634Y-102234485D01*
X113684681Y-102107486D01*
X113765689Y-101995989D01*
X113792360Y-101959279D01*
X113792361Y-101959278D01*
X113796241Y-101953937D01*
X113873439Y-101780548D01*
X113893169Y-101687724D01*
X113911528Y-101601356D01*
X113911528Y-101601352D01*
X113912900Y-101594899D01*
X114627100Y-101594899D01*
X114628472Y-101601352D01*
X114628472Y-101601356D01*
X114646830Y-101687723D01*
X114666561Y-101780548D01*
X114669245Y-101786577D01*
X114669246Y-101786579D01*
X114721894Y-101904826D01*
X114743759Y-101953936D01*
X114747639Y-101959277D01*
X114747640Y-101959278D01*
X114772223Y-101993113D01*
X114855319Y-102107486D01*
X114996366Y-102234485D01*
X115160735Y-102329383D01*
X115341243Y-102388034D01*
X115347804Y-102388724D01*
X115347806Y-102388724D01*
X115400382Y-102394250D01*
X115482685Y-102402900D01*
X117077315Y-102402900D01*
X117159618Y-102394250D01*
X117212194Y-102388724D01*
X117212196Y-102388724D01*
X117218757Y-102388034D01*
X117399265Y-102329383D01*
X117563634Y-102234485D01*
X117704681Y-102107486D01*
X117785689Y-101995989D01*
X117812360Y-101959279D01*
X117812361Y-101959278D01*
X117816241Y-101953937D01*
X117893439Y-101780548D01*
X117913169Y-101687724D01*
X117931528Y-101601356D01*
X117931528Y-101601352D01*
X117932900Y-101594899D01*
X117932900Y-101405101D01*
X117893439Y-101219452D01*
X117888120Y-101207506D01*
X117818926Y-101052094D01*
X117818925Y-101052092D01*
X117816241Y-101046064D01*
X117787696Y-101006775D01*
X117708564Y-100897858D01*
X117708562Y-100897856D01*
X117704681Y-100892514D01*
X117563634Y-100765515D01*
X117487205Y-100721389D01*
X139371132Y-100721389D01*
X139390134Y-100865725D01*
X139445846Y-101000224D01*
X139534470Y-101115722D01*
X139649967Y-101204346D01*
X139784467Y-101260058D01*
X139928803Y-101279060D01*
X139936991Y-101277982D01*
X140064951Y-101261136D01*
X140073139Y-101260058D01*
X140207639Y-101204346D01*
X140323136Y-101115722D01*
X140411760Y-101000224D01*
X140467472Y-100865725D01*
X140486474Y-100721389D01*
X140479521Y-100668575D01*
X140468550Y-100585239D01*
X140468549Y-100585237D01*
X140467472Y-100577053D01*
X140429606Y-100485637D01*
X140414920Y-100450182D01*
X140414919Y-100450180D01*
X140411760Y-100442554D01*
X140323136Y-100327056D01*
X140257997Y-100277073D01*
X140216131Y-100219736D01*
X140208703Y-100177112D01*
X140208703Y-99284466D01*
X140228705Y-99216345D01*
X140257997Y-99184505D01*
X140323136Y-99134522D01*
X140353346Y-99095152D01*
X140386385Y-99052093D01*
X140408836Y-99022834D01*
X151809134Y-99022834D01*
X151846127Y-99232631D01*
X151848246Y-99241132D01*
X151932308Y-99499847D01*
X151935599Y-99507994D01*
X152054848Y-99752488D01*
X152059233Y-99760085D01*
X152211352Y-99985610D01*
X152216756Y-99992527D01*
X152398776Y-100194680D01*
X152405091Y-100200779D01*
X152613471Y-100375631D01*
X152620578Y-100380795D01*
X152642763Y-100394657D01*
X152689934Y-100447717D01*
X152700930Y-100517857D01*
X152672260Y-100582807D01*
X152650056Y-100603448D01*
X152509694Y-100705427D01*
X152502964Y-100711074D01*
X152307284Y-100900040D01*
X152301412Y-100906562D01*
X152133936Y-101120922D01*
X152129030Y-101128196D01*
X151993016Y-101363778D01*
X151989167Y-101371670D01*
X151887265Y-101623885D01*
X151884549Y-101632243D01*
X151818743Y-101896181D01*
X151817218Y-101904826D01*
X151809530Y-101977974D01*
X151812209Y-101992624D01*
X151824530Y-101995989D01*
X154227885Y-101995989D01*
X154243124Y-101991514D01*
X154244329Y-101990124D01*
X154246000Y-101982441D01*
X154246000Y-101977874D01*
X154754000Y-101977874D01*
X154758475Y-101993113D01*
X154759865Y-101994318D01*
X154767548Y-101995989D01*
X157176074Y-101995989D01*
X157188943Y-101992210D01*
X157190866Y-101977144D01*
X157153873Y-101767347D01*
X157151754Y-101758846D01*
X157067692Y-101500131D01*
X157064401Y-101491984D01*
X156945152Y-101247490D01*
X156940767Y-101239893D01*
X156788648Y-101014368D01*
X156783244Y-101007451D01*
X156601224Y-100805298D01*
X156594909Y-100799199D01*
X156386529Y-100624347D01*
X156379422Y-100619183D01*
X156357237Y-100605321D01*
X156310066Y-100552261D01*
X156299070Y-100482121D01*
X156327740Y-100417171D01*
X156349944Y-100396530D01*
X156490306Y-100294551D01*
X156497036Y-100288904D01*
X156692716Y-100099938D01*
X156698588Y-100093416D01*
X156866064Y-99879056D01*
X156870970Y-99871782D01*
X157006984Y-99636200D01*
X157010833Y-99628308D01*
X157112735Y-99376093D01*
X157115451Y-99367735D01*
X157181257Y-99103797D01*
X157182782Y-99095152D01*
X157190470Y-99022004D01*
X157187791Y-99007354D01*
X157175470Y-99003989D01*
X154772115Y-99003989D01*
X154756876Y-99008464D01*
X154755671Y-99009854D01*
X154754000Y-99017537D01*
X154754000Y-101977874D01*
X154246000Y-101977874D01*
X154246000Y-99022104D01*
X154241525Y-99006865D01*
X154240135Y-99005660D01*
X154232452Y-99003989D01*
X151823926Y-99003989D01*
X151811057Y-99007768D01*
X151809134Y-99022834D01*
X140408836Y-99022834D01*
X140411760Y-99019024D01*
X140415559Y-99009854D01*
X140464313Y-98892151D01*
X140467472Y-98884525D01*
X140486474Y-98740189D01*
X140469862Y-98614006D01*
X140468550Y-98604039D01*
X140468549Y-98604037D01*
X140467472Y-98595853D01*
X140447956Y-98548738D01*
X140418645Y-98477974D01*
X151809530Y-98477974D01*
X151812209Y-98492624D01*
X151824530Y-98495989D01*
X154227885Y-98495989D01*
X154243124Y-98491514D01*
X154244329Y-98490124D01*
X154246000Y-98482441D01*
X154246000Y-98477874D01*
X154754000Y-98477874D01*
X154758475Y-98493113D01*
X154759865Y-98494318D01*
X154767548Y-98495989D01*
X157176074Y-98495989D01*
X157188943Y-98492210D01*
X157190866Y-98477144D01*
X157153873Y-98267347D01*
X157151754Y-98258846D01*
X157067692Y-98000131D01*
X157064401Y-97991984D01*
X156945152Y-97747490D01*
X156940767Y-97739893D01*
X156788648Y-97514368D01*
X156783244Y-97507451D01*
X156601224Y-97305298D01*
X156594909Y-97299199D01*
X156386529Y-97124347D01*
X156379424Y-97119185D01*
X156148725Y-96975028D01*
X156140991Y-96970916D01*
X155892467Y-96860266D01*
X155884226Y-96857267D01*
X155622733Y-96782285D01*
X155614153Y-96780461D01*
X155344765Y-96742601D01*
X155336016Y-96741989D01*
X154772115Y-96741989D01*
X154756876Y-96746464D01*
X154755671Y-96747854D01*
X154754000Y-96755537D01*
X154754000Y-98477874D01*
X154246000Y-98477874D01*
X154246000Y-96760104D01*
X154241525Y-96744865D01*
X154240135Y-96743660D01*
X154232452Y-96741989D01*
X153732077Y-96741989D01*
X153727692Y-96742142D01*
X153524243Y-96756368D01*
X153515562Y-96757588D01*
X153249470Y-96814148D01*
X153241033Y-96816567D01*
X152985413Y-96909606D01*
X152977397Y-96913175D01*
X152737210Y-97040884D01*
X152729762Y-97045538D01*
X152509694Y-97205427D01*
X152502964Y-97211074D01*
X152307284Y-97400040D01*
X152301412Y-97406562D01*
X152133936Y-97620922D01*
X152129030Y-97628196D01*
X151993016Y-97863778D01*
X151989167Y-97871670D01*
X151887265Y-98123885D01*
X151884549Y-98132243D01*
X151818743Y-98396181D01*
X151817218Y-98404826D01*
X151809530Y-98477974D01*
X140418645Y-98477974D01*
X140414920Y-98468982D01*
X140414919Y-98468980D01*
X140411760Y-98461354D01*
X140323136Y-98345856D01*
X140207639Y-98257232D01*
X140073139Y-98201520D01*
X139928803Y-98182518D01*
X139920615Y-98183596D01*
X139792653Y-98200442D01*
X139792651Y-98200443D01*
X139784467Y-98201520D01*
X139737352Y-98221036D01*
X139657596Y-98254072D01*
X139657594Y-98254073D01*
X139649968Y-98257232D01*
X139534470Y-98345856D01*
X139445846Y-98461354D01*
X139442687Y-98468980D01*
X139442686Y-98468982D01*
X139409650Y-98548738D01*
X139390134Y-98595853D01*
X139389057Y-98604037D01*
X139389056Y-98604039D01*
X139387744Y-98614006D01*
X139371132Y-98740189D01*
X139390134Y-98884525D01*
X139393293Y-98892151D01*
X139442048Y-99009854D01*
X139445846Y-99019024D01*
X139471221Y-99052093D01*
X139504261Y-99095152D01*
X139534470Y-99134522D01*
X139599609Y-99184505D01*
X139641475Y-99241842D01*
X139648903Y-99284466D01*
X139648903Y-100177112D01*
X139628901Y-100245233D01*
X139599608Y-100277074D01*
X139534470Y-100327056D01*
X139445846Y-100442554D01*
X139442687Y-100450180D01*
X139442686Y-100450182D01*
X139428000Y-100485637D01*
X139390134Y-100577053D01*
X139389057Y-100585237D01*
X139389056Y-100585239D01*
X139378085Y-100668575D01*
X139371132Y-100721389D01*
X117487205Y-100721389D01*
X117399265Y-100670617D01*
X117242969Y-100619833D01*
X117184363Y-100579759D01*
X117156726Y-100514363D01*
X117168833Y-100444406D01*
X117216839Y-100392100D01*
X117242969Y-100380167D01*
X117392980Y-100331425D01*
X117392979Y-100331425D01*
X117399265Y-100329383D01*
X117563634Y-100234485D01*
X117580015Y-100219736D01*
X117699770Y-100111908D01*
X117699771Y-100111907D01*
X117704681Y-100107486D01*
X117714904Y-100093416D01*
X117812360Y-99959279D01*
X117812361Y-99959278D01*
X117816241Y-99953937D01*
X117849581Y-99879056D01*
X117890754Y-99786579D01*
X117890754Y-99786577D01*
X117893439Y-99780548D01*
X117932900Y-99594899D01*
X117932900Y-99405101D01*
X117926735Y-99376093D01*
X117894811Y-99225909D01*
X117893439Y-99219452D01*
X117857863Y-99139547D01*
X117818926Y-99052094D01*
X117818925Y-99052092D01*
X117816241Y-99046064D01*
X117798833Y-99022104D01*
X117708564Y-98897858D01*
X117708562Y-98897856D01*
X117704681Y-98892514D01*
X117563634Y-98765515D01*
X117399265Y-98670617D01*
X117218757Y-98611966D01*
X117212196Y-98611276D01*
X117212194Y-98611276D01*
X117159618Y-98605750D01*
X117077315Y-98597100D01*
X115482685Y-98597100D01*
X115400382Y-98605750D01*
X115347806Y-98611276D01*
X115347804Y-98611276D01*
X115341243Y-98611966D01*
X115160735Y-98670617D01*
X114996366Y-98765515D01*
X114855319Y-98892514D01*
X114851438Y-98897856D01*
X114851436Y-98897858D01*
X114772238Y-99006865D01*
X114743759Y-99046063D01*
X114666561Y-99219452D01*
X114665189Y-99225909D01*
X114633266Y-99376093D01*
X114627100Y-99405101D01*
X114627100Y-99594899D01*
X114666561Y-99780548D01*
X114743759Y-99953936D01*
X114747639Y-99959277D01*
X114747640Y-99959278D01*
X114845097Y-100093416D01*
X114855319Y-100107486D01*
X114860229Y-100111907D01*
X114860230Y-100111908D01*
X114979986Y-100219736D01*
X114996366Y-100234485D01*
X115160735Y-100329383D01*
X115167021Y-100331425D01*
X115167020Y-100331425D01*
X115317031Y-100380167D01*
X115375637Y-100420241D01*
X115403274Y-100485637D01*
X115391167Y-100555594D01*
X115343161Y-100607900D01*
X115317031Y-100619833D01*
X115160735Y-100670617D01*
X114996366Y-100765515D01*
X114855319Y-100892514D01*
X114851438Y-100897856D01*
X114851436Y-100897858D01*
X114782605Y-100992596D01*
X114743759Y-101046063D01*
X114741075Y-101052091D01*
X114741074Y-101052093D01*
X114671880Y-101207506D01*
X114666561Y-101219452D01*
X114627100Y-101405101D01*
X114627100Y-101594899D01*
X113912900Y-101594899D01*
X113912900Y-101405101D01*
X113873439Y-101219452D01*
X113868120Y-101207506D01*
X113798926Y-101052094D01*
X113798925Y-101052092D01*
X113796241Y-101046064D01*
X113767696Y-101006775D01*
X113688564Y-100897858D01*
X113688562Y-100897856D01*
X113684681Y-100892514D01*
X113543634Y-100765515D01*
X113379265Y-100670617D01*
X113222969Y-100619833D01*
X113164363Y-100579759D01*
X113136726Y-100514363D01*
X113148833Y-100444406D01*
X113196839Y-100392100D01*
X113222969Y-100380167D01*
X113372980Y-100331425D01*
X113372979Y-100331425D01*
X113379265Y-100329383D01*
X113543634Y-100234485D01*
X113560015Y-100219736D01*
X113679770Y-100111908D01*
X113679771Y-100111907D01*
X113684681Y-100107486D01*
X113694904Y-100093416D01*
X113792360Y-99959279D01*
X113792361Y-99959278D01*
X113796241Y-99953937D01*
X113829581Y-99879056D01*
X113870754Y-99786579D01*
X113870754Y-99786577D01*
X113873439Y-99780548D01*
X113912900Y-99594899D01*
X113912900Y-99405101D01*
X113906735Y-99376093D01*
X113874811Y-99225909D01*
X113873439Y-99219452D01*
X113837863Y-99139547D01*
X113798926Y-99052094D01*
X113798925Y-99052092D01*
X113796241Y-99046064D01*
X113778833Y-99022104D01*
X113688564Y-98897858D01*
X113688562Y-98897856D01*
X113684681Y-98892514D01*
X113543634Y-98765515D01*
X113379265Y-98670617D01*
X113198757Y-98611966D01*
X113192196Y-98611276D01*
X113192194Y-98611276D01*
X113139618Y-98605750D01*
X113057315Y-98597100D01*
X111462685Y-98597100D01*
X111380382Y-98605750D01*
X111327806Y-98611276D01*
X111327804Y-98611276D01*
X111321243Y-98611966D01*
X111140735Y-98670617D01*
X110976366Y-98765515D01*
X110835319Y-98892514D01*
X110831438Y-98897856D01*
X110831436Y-98897858D01*
X110752238Y-99006865D01*
X110723759Y-99046063D01*
X110646561Y-99219452D01*
X110645189Y-99225909D01*
X110613266Y-99376093D01*
X110607100Y-99405101D01*
X110607100Y-99594899D01*
X110646561Y-99780548D01*
X110723759Y-99953936D01*
X110727639Y-99959277D01*
X110727640Y-99959278D01*
X110825097Y-100093416D01*
X110835319Y-100107486D01*
X110840229Y-100111907D01*
X110840230Y-100111908D01*
X110959986Y-100219736D01*
X110976366Y-100234485D01*
X111140735Y-100329383D01*
X111147021Y-100331425D01*
X111147020Y-100331425D01*
X111297031Y-100380167D01*
X111355637Y-100420241D01*
X111383274Y-100485637D01*
X111371167Y-100555594D01*
X111323161Y-100607900D01*
X111297031Y-100619833D01*
X111140735Y-100670617D01*
X110976366Y-100765515D01*
X110835319Y-100892514D01*
X110831438Y-100897856D01*
X110831436Y-100897858D01*
X110762605Y-100992596D01*
X110723759Y-101046063D01*
X110721075Y-101052091D01*
X110721074Y-101052093D01*
X110651880Y-101207506D01*
X110646561Y-101219452D01*
X110607100Y-101405101D01*
X110607100Y-101594899D01*
X100001002Y-101594899D01*
X100001003Y-94249802D01*
X100001003Y-94200272D01*
X107256942Y-94200272D01*
X107263222Y-94272053D01*
X107264497Y-94280292D01*
X107328110Y-94564880D01*
X107330464Y-94572877D01*
X107431150Y-94846534D01*
X107434550Y-94854172D01*
X107570549Y-95112115D01*
X107574916Y-95119213D01*
X107743835Y-95356905D01*
X107749108Y-95363372D01*
X107947983Y-95576639D01*
X107954067Y-95582351D01*
X108179393Y-95767437D01*
X108186174Y-95772292D01*
X108434013Y-95925958D01*
X108441373Y-95929871D01*
X108707346Y-96049404D01*
X108715169Y-96052314D01*
X108994625Y-96135624D01*
X109002746Y-96137469D01*
X109291429Y-96183191D01*
X109298403Y-96183899D01*
X109387286Y-96187936D01*
X109390119Y-96188000D01*
X109977885Y-96188000D01*
X109993124Y-96183525D01*
X109994329Y-96182135D01*
X109996000Y-96174452D01*
X109996000Y-96169885D01*
X110504000Y-96169885D01*
X110508475Y-96185124D01*
X110509865Y-96186329D01*
X110517548Y-96188000D01*
X110737393Y-96188000D01*
X110805514Y-96208002D01*
X110852007Y-96261658D01*
X110862111Y-96331932D01*
X110834142Y-96391659D01*
X110835319Y-96392514D01*
X110723759Y-96546063D01*
X110646561Y-96719452D01*
X110607100Y-96905101D01*
X110607100Y-97094899D01*
X110646561Y-97280548D01*
X110649245Y-97286577D01*
X110649246Y-97286579D01*
X110711247Y-97425833D01*
X110723759Y-97453936D01*
X110727639Y-97459277D01*
X110727640Y-97459278D01*
X110762789Y-97507656D01*
X110835319Y-97607486D01*
X110976366Y-97734485D01*
X111140735Y-97829383D01*
X111321243Y-97888034D01*
X111327804Y-97888724D01*
X111327806Y-97888724D01*
X111376113Y-97893801D01*
X111462685Y-97902900D01*
X113057315Y-97902900D01*
X113143887Y-97893801D01*
X113192194Y-97888724D01*
X113192196Y-97888724D01*
X113198757Y-97888034D01*
X113379265Y-97829383D01*
X113543634Y-97734485D01*
X113684681Y-97607486D01*
X113752336Y-97514368D01*
X113792360Y-97459279D01*
X113792361Y-97459278D01*
X113796241Y-97453937D01*
X113811419Y-97419848D01*
X113870754Y-97286579D01*
X113870754Y-97286577D01*
X113873439Y-97280548D01*
X113912900Y-97094899D01*
X113912900Y-96905101D01*
X113873439Y-96719452D01*
X113796241Y-96546064D01*
X113731736Y-96457280D01*
X113688564Y-96397858D01*
X113688562Y-96397856D01*
X113684681Y-96392514D01*
X113665925Y-96375626D01*
X113548542Y-96269934D01*
X113548541Y-96269933D01*
X113543634Y-96265515D01*
X113421113Y-96194778D01*
X113384988Y-96173921D01*
X113384987Y-96173920D01*
X113379265Y-96170617D01*
X113198757Y-96111966D01*
X113192196Y-96111276D01*
X113192194Y-96111276D01*
X113139618Y-96105750D01*
X113057315Y-96097100D01*
X112238117Y-96097100D01*
X112169996Y-96077098D01*
X112123503Y-96023442D01*
X112113399Y-95953168D01*
X112142893Y-95888588D01*
X112167294Y-95866888D01*
X112389820Y-95715659D01*
X112396390Y-95710526D01*
X112613775Y-95516161D01*
X112619608Y-95510205D01*
X112809378Y-95288797D01*
X112814376Y-95282116D01*
X112973187Y-95037568D01*
X112977263Y-95030275D01*
X112978387Y-95027908D01*
X112978918Y-95027313D01*
X112979300Y-95026630D01*
X112979452Y-95026715D01*
X113025676Y-94974952D01*
X113094088Y-94955969D01*
X113161902Y-94976986D01*
X113203664Y-95023190D01*
X113250549Y-95112115D01*
X113254916Y-95119213D01*
X113423835Y-95356905D01*
X113429108Y-95363372D01*
X113627983Y-95576639D01*
X113634067Y-95582351D01*
X113859393Y-95767437D01*
X113866174Y-95772292D01*
X114114013Y-95925958D01*
X114121373Y-95929871D01*
X114387346Y-96049404D01*
X114395169Y-96052314D01*
X114674625Y-96135624D01*
X114682746Y-96137469D01*
X114809476Y-96157541D01*
X114873629Y-96187954D01*
X114911156Y-96248222D01*
X114910142Y-96319211D01*
X114874077Y-96375624D01*
X114855319Y-96392514D01*
X114851438Y-96397856D01*
X114851436Y-96397858D01*
X114747640Y-96540721D01*
X114743759Y-96546063D01*
X114666561Y-96719452D01*
X114627100Y-96905101D01*
X114627100Y-97094899D01*
X114666561Y-97280548D01*
X114669245Y-97286577D01*
X114669246Y-97286579D01*
X114731247Y-97425833D01*
X114743759Y-97453936D01*
X114747639Y-97459277D01*
X114747640Y-97459278D01*
X114782789Y-97507656D01*
X114855319Y-97607486D01*
X114996366Y-97734485D01*
X115160735Y-97829383D01*
X115341243Y-97888034D01*
X115347804Y-97888724D01*
X115347806Y-97888724D01*
X115396113Y-97893801D01*
X115482685Y-97902900D01*
X117077315Y-97902900D01*
X117163887Y-97893801D01*
X117212194Y-97888724D01*
X117212196Y-97888724D01*
X117218757Y-97888034D01*
X117399265Y-97829383D01*
X117563634Y-97734485D01*
X117704681Y-97607486D01*
X117772336Y-97514368D01*
X117812360Y-97459279D01*
X117812361Y-97459278D01*
X117816241Y-97453937D01*
X117831419Y-97419848D01*
X117890754Y-97286579D01*
X117890754Y-97286577D01*
X117893439Y-97280548D01*
X117932900Y-97094899D01*
X117932900Y-96905101D01*
X117893439Y-96719452D01*
X117816241Y-96546064D01*
X117751736Y-96457280D01*
X117708564Y-96397858D01*
X117708562Y-96397856D01*
X117704681Y-96392514D01*
X117685925Y-96375626D01*
X117568542Y-96269934D01*
X117568541Y-96269933D01*
X117563634Y-96265515D01*
X117530110Y-96246160D01*
X117481117Y-96194778D01*
X117467681Y-96125064D01*
X117494067Y-96059153D01*
X117549418Y-96019806D01*
X117549165Y-96019205D01*
X117551853Y-96018075D01*
X117552095Y-96017903D01*
X117553020Y-96017584D01*
X117560716Y-96014350D01*
X117821444Y-95883787D01*
X117828638Y-95879566D01*
X118069820Y-95715659D01*
X118076390Y-95710526D01*
X118182111Y-95616000D01*
X135002329Y-95616000D01*
X135021331Y-95760336D01*
X135030941Y-95783537D01*
X135072467Y-95883787D01*
X135077043Y-95894835D01*
X135165667Y-96010333D01*
X135172213Y-96015356D01*
X135177229Y-96019205D01*
X135281164Y-96098957D01*
X135344192Y-96125064D01*
X135380122Y-96139947D01*
X135435402Y-96184496D01*
X135457903Y-96256356D01*
X135457903Y-97357712D01*
X135437901Y-97425833D01*
X135408608Y-97457674D01*
X135343470Y-97507656D01*
X135254846Y-97623154D01*
X135199134Y-97757653D01*
X135198057Y-97765837D01*
X135198056Y-97765839D01*
X135184124Y-97871670D01*
X135180132Y-97901989D01*
X135181210Y-97910177D01*
X135193053Y-98000131D01*
X135199134Y-98046325D01*
X135254846Y-98180824D01*
X135343470Y-98296322D01*
X135458967Y-98384946D01*
X135593467Y-98440658D01*
X135737803Y-98459660D01*
X135745991Y-98458582D01*
X135873951Y-98441736D01*
X135882139Y-98440658D01*
X136016639Y-98384946D01*
X136132136Y-98296322D01*
X136220760Y-98180824D01*
X136276472Y-98046325D01*
X136282554Y-98000131D01*
X136294396Y-97910177D01*
X136295474Y-97901989D01*
X136291482Y-97871670D01*
X136277550Y-97765839D01*
X136277549Y-97765837D01*
X136276472Y-97757653D01*
X136220760Y-97623154D01*
X136176448Y-97565405D01*
X136137163Y-97514207D01*
X136137162Y-97514206D01*
X136132136Y-97507656D01*
X136066997Y-97457673D01*
X136025131Y-97400336D01*
X136017703Y-97357712D01*
X136017703Y-95970182D01*
X136034585Y-95907180D01*
X136037930Y-95901386D01*
X136042957Y-95894835D01*
X136098669Y-95760336D01*
X136117671Y-95616000D01*
X136098669Y-95471664D01*
X136062861Y-95385217D01*
X147942108Y-95385217D01*
X147943348Y-95399989D01*
X147958662Y-95582351D01*
X147959386Y-95590977D01*
X148016301Y-95789463D01*
X148019119Y-95794945D01*
X148019120Y-95794949D01*
X148107865Y-95967628D01*
X148107868Y-95967632D01*
X148110685Y-95973114D01*
X148238942Y-96134934D01*
X148243636Y-96138929D01*
X148324797Y-96208002D01*
X148396188Y-96268761D01*
X148576433Y-96369496D01*
X148772811Y-96433303D01*
X148977843Y-96457752D01*
X148983978Y-96457280D01*
X148983980Y-96457280D01*
X149177577Y-96442384D01*
X149177581Y-96442383D01*
X149183719Y-96441911D01*
X149189651Y-96440255D01*
X149189655Y-96440254D01*
X149260665Y-96420427D01*
X149382597Y-96386383D01*
X149388101Y-96383603D01*
X149388103Y-96383602D01*
X149561401Y-96296063D01*
X149561403Y-96296062D01*
X149566902Y-96293284D01*
X149729614Y-96166159D01*
X149733640Y-96161495D01*
X149733643Y-96161492D01*
X149860506Y-96014520D01*
X149860507Y-96014518D01*
X149864535Y-96009852D01*
X149966527Y-95830314D01*
X150031703Y-95634386D01*
X150057583Y-95429530D01*
X150057995Y-95399989D01*
X150056547Y-95385217D01*
X150442108Y-95385217D01*
X150443348Y-95399989D01*
X150458662Y-95582351D01*
X150459386Y-95590977D01*
X150516301Y-95789463D01*
X150519119Y-95794945D01*
X150519120Y-95794949D01*
X150607865Y-95967628D01*
X150607868Y-95967632D01*
X150610685Y-95973114D01*
X150738942Y-96134934D01*
X150743636Y-96138929D01*
X150824797Y-96208002D01*
X150896188Y-96268761D01*
X151076433Y-96369496D01*
X151272811Y-96433303D01*
X151477843Y-96457752D01*
X151483978Y-96457280D01*
X151483980Y-96457280D01*
X151677577Y-96442384D01*
X151677581Y-96442383D01*
X151683719Y-96441911D01*
X151689651Y-96440255D01*
X151689655Y-96440254D01*
X151760665Y-96420427D01*
X151882597Y-96386383D01*
X151888101Y-96383603D01*
X151888103Y-96383602D01*
X152061401Y-96296063D01*
X152061403Y-96296062D01*
X152066902Y-96293284D01*
X152229614Y-96166159D01*
X152233640Y-96161495D01*
X152233643Y-96161492D01*
X152360506Y-96014520D01*
X152360507Y-96014518D01*
X152364535Y-96009852D01*
X152466527Y-95830314D01*
X152531703Y-95634386D01*
X152557583Y-95429530D01*
X152557995Y-95399989D01*
X152537846Y-95194490D01*
X152478165Y-94996818D01*
X152381227Y-94814504D01*
X152377337Y-94809734D01*
X152377334Y-94809730D01*
X152254617Y-94659265D01*
X152254614Y-94659262D01*
X152250722Y-94654490D01*
X152239360Y-94645090D01*
X152142403Y-94564880D01*
X152091623Y-94522871D01*
X151976550Y-94460651D01*
X151926141Y-94410656D01*
X151910764Y-94341345D01*
X151935300Y-94274723D01*
X151979668Y-94237349D01*
X151980664Y-94236846D01*
X152066902Y-94193284D01*
X152203691Y-94086412D01*
X153578703Y-94086412D01*
X153586227Y-94096843D01*
X153725483Y-94209009D01*
X153731657Y-94213397D01*
X154002271Y-94382167D01*
X154008931Y-94385783D01*
X154297852Y-94520816D01*
X154304905Y-94523609D01*
X154607970Y-94622959D01*
X154615282Y-94624877D01*
X154928092Y-94687098D01*
X154935590Y-94688126D01*
X155253610Y-94712317D01*
X155261173Y-94712435D01*
X155579785Y-94698246D01*
X155587326Y-94697454D01*
X155901924Y-94645090D01*
X155909302Y-94643400D01*
X156215355Y-94553614D01*
X156222450Y-94551060D01*
X156515496Y-94425158D01*
X156522263Y-94421754D01*
X156798042Y-94261569D01*
X156804349Y-94257379D01*
X157014305Y-94098878D01*
X157022761Y-94087485D01*
X157016045Y-94075245D01*
X155312810Y-92372009D01*
X155298869Y-92364397D01*
X155297034Y-92364528D01*
X155290420Y-92368779D01*
X153585818Y-94073382D01*
X153578703Y-94086412D01*
X152203691Y-94086412D01*
X152229614Y-94066159D01*
X152233640Y-94061495D01*
X152233643Y-94061492D01*
X152360506Y-93914520D01*
X152360507Y-93914518D01*
X152364535Y-93909852D01*
X152466527Y-93730314D01*
X152531703Y-93534386D01*
X152551393Y-93378531D01*
X152557141Y-93333032D01*
X152557142Y-93333025D01*
X152557583Y-93329530D01*
X152557995Y-93299989D01*
X152556734Y-93287123D01*
X152538447Y-93100623D01*
X152537846Y-93094490D01*
X152478165Y-92896818D01*
X152394208Y-92738917D01*
X152384121Y-92719946D01*
X152384119Y-92719943D01*
X152381227Y-92714504D01*
X152377337Y-92709734D01*
X152377334Y-92709730D01*
X152254617Y-92559265D01*
X152254614Y-92559262D01*
X152250722Y-92554490D01*
X152091623Y-92422871D01*
X151909990Y-92324662D01*
X151712739Y-92263603D01*
X151706614Y-92262959D01*
X151706613Y-92262959D01*
X151513515Y-92242664D01*
X151513513Y-92242664D01*
X151507386Y-92242020D01*
X151421075Y-92249875D01*
X151307891Y-92260175D01*
X151307888Y-92260176D01*
X151301752Y-92260734D01*
X151295846Y-92262472D01*
X151295842Y-92262473D01*
X151176702Y-92297538D01*
X151103668Y-92319033D01*
X150920681Y-92414697D01*
X150759760Y-92544080D01*
X150627034Y-92702257D01*
X150624068Y-92707652D01*
X150624064Y-92707658D01*
X150560967Y-92822432D01*
X150527559Y-92883200D01*
X150465125Y-93080019D01*
X150464439Y-93086136D01*
X150464438Y-93086140D01*
X150449419Y-93220042D01*
X150442108Y-93285217D01*
X150443348Y-93299989D01*
X150458292Y-93477946D01*
X150459386Y-93490977D01*
X150516301Y-93689463D01*
X150519119Y-93694945D01*
X150519120Y-93694949D01*
X150607865Y-93867628D01*
X150607868Y-93867632D01*
X150610685Y-93873114D01*
X150738942Y-94034934D01*
X150743636Y-94038929D01*
X150770148Y-94061492D01*
X150896188Y-94168761D01*
X150901566Y-94171767D01*
X150901568Y-94171768D01*
X150952571Y-94200272D01*
X151024425Y-94240430D01*
X151074130Y-94291122D01*
X151088539Y-94360641D01*
X151063075Y-94426914D01*
X151021330Y-94462078D01*
X150934206Y-94507626D01*
X150920681Y-94514697D01*
X150759760Y-94644080D01*
X150627034Y-94802257D01*
X150624068Y-94807652D01*
X150624064Y-94807658D01*
X150617309Y-94819946D01*
X150527559Y-94983200D01*
X150465125Y-95180019D01*
X150464439Y-95186136D01*
X150464438Y-95186140D01*
X150460453Y-95221667D01*
X150442108Y-95385217D01*
X150056547Y-95385217D01*
X150037846Y-95194490D01*
X149978165Y-94996818D01*
X149881227Y-94814504D01*
X149877337Y-94809734D01*
X149877334Y-94809730D01*
X149754617Y-94659265D01*
X149754614Y-94659262D01*
X149750722Y-94654490D01*
X149739360Y-94645090D01*
X149642403Y-94564880D01*
X149591623Y-94522871D01*
X149409990Y-94424662D01*
X149212739Y-94363603D01*
X149206614Y-94362959D01*
X149206613Y-94362959D01*
X149013515Y-94342664D01*
X149013513Y-94342664D01*
X149007386Y-94342020D01*
X148922007Y-94349790D01*
X148807891Y-94360175D01*
X148807888Y-94360176D01*
X148801752Y-94360734D01*
X148795846Y-94362472D01*
X148795842Y-94362473D01*
X148716642Y-94385783D01*
X148603668Y-94419033D01*
X148420681Y-94514697D01*
X148259760Y-94644080D01*
X148127034Y-94802257D01*
X148124068Y-94807652D01*
X148124064Y-94807658D01*
X148117309Y-94819946D01*
X148027559Y-94983200D01*
X147965125Y-95180019D01*
X147964439Y-95186136D01*
X147964438Y-95186140D01*
X147960453Y-95221667D01*
X147942108Y-95385217D01*
X136062861Y-95385217D01*
X136060324Y-95379092D01*
X136046117Y-95344793D01*
X136046116Y-95344791D01*
X136042957Y-95337165D01*
X135954333Y-95221667D01*
X135838836Y-95133043D01*
X135704336Y-95077331D01*
X135560000Y-95058329D01*
X135551812Y-95059407D01*
X135423850Y-95076253D01*
X135423848Y-95076254D01*
X135415664Y-95077331D01*
X135368549Y-95096847D01*
X135288793Y-95129883D01*
X135288791Y-95129884D01*
X135281165Y-95133043D01*
X135165667Y-95221667D01*
X135077043Y-95337165D01*
X135073884Y-95344791D01*
X135073883Y-95344793D01*
X135059676Y-95379092D01*
X135021331Y-95471664D01*
X135002329Y-95616000D01*
X118182111Y-95616000D01*
X118293775Y-95516161D01*
X118299608Y-95510205D01*
X118489378Y-95288797D01*
X118494376Y-95282116D01*
X118653191Y-95037563D01*
X118657265Y-95030273D01*
X118782338Y-94766868D01*
X118785414Y-94759100D01*
X118874552Y-94481469D01*
X118876573Y-94473363D01*
X118925429Y-94201830D01*
X118923997Y-94188571D01*
X118909387Y-94184000D01*
X110522115Y-94184000D01*
X110506876Y-94188475D01*
X110505671Y-94189865D01*
X110504000Y-94197548D01*
X110504000Y-96169885D01*
X109996000Y-96169885D01*
X109996000Y-94202115D01*
X109991525Y-94186876D01*
X109990135Y-94185671D01*
X109982452Y-94184000D01*
X107273633Y-94184000D01*
X107259004Y-94188295D01*
X107256942Y-94200272D01*
X100001003Y-94200272D01*
X100001003Y-93694906D01*
X104349839Y-93694906D01*
X104358553Y-93706427D01*
X104465452Y-93784809D01*
X104473351Y-93789745D01*
X104702905Y-93910519D01*
X104711454Y-93914236D01*
X104956327Y-93999749D01*
X104965336Y-94002163D01*
X105220166Y-94050544D01*
X105229423Y-94051598D01*
X105488607Y-94061783D01*
X105497921Y-94061457D01*
X105755753Y-94033220D01*
X105764930Y-94031519D01*
X106015758Y-93965481D01*
X106024574Y-93962445D01*
X106262880Y-93860062D01*
X106271167Y-93855748D01*
X106491718Y-93719266D01*
X106499268Y-93713780D01*
X106504559Y-93709301D01*
X106512997Y-93696497D01*
X106506935Y-93686145D01*
X106478960Y-93658170D01*
X107254571Y-93658170D01*
X107256003Y-93671429D01*
X107270613Y-93676000D01*
X109977885Y-93676000D01*
X109993124Y-93671525D01*
X109994329Y-93670135D01*
X109996000Y-93662452D01*
X109996000Y-93657885D01*
X110504000Y-93657885D01*
X110508475Y-93673124D01*
X110509865Y-93674329D01*
X110517548Y-93676000D01*
X115657885Y-93676000D01*
X115673124Y-93671525D01*
X115674329Y-93670135D01*
X115676000Y-93662452D01*
X115676000Y-93657885D01*
X116184000Y-93657885D01*
X116188475Y-93673124D01*
X116189865Y-93674329D01*
X116197548Y-93676000D01*
X118906367Y-93676000D01*
X118920996Y-93671705D01*
X118923058Y-93659728D01*
X118916778Y-93587947D01*
X118915503Y-93579708D01*
X118851890Y-93295120D01*
X118849536Y-93287123D01*
X118748850Y-93013466D01*
X118745450Y-93005828D01*
X118681859Y-92885217D01*
X147942108Y-92885217D01*
X147943082Y-92896818D01*
X147957973Y-93074146D01*
X147959386Y-93090977D01*
X148016301Y-93289463D01*
X148019119Y-93294945D01*
X148019120Y-93294949D01*
X148107865Y-93467628D01*
X148107868Y-93467632D01*
X148110685Y-93473114D01*
X148238942Y-93634934D01*
X148243636Y-93638929D01*
X148338032Y-93719266D01*
X148396188Y-93768761D01*
X148401566Y-93771767D01*
X148401568Y-93771768D01*
X148440067Y-93793284D01*
X148576433Y-93869496D01*
X148772811Y-93933303D01*
X148977843Y-93957752D01*
X148983978Y-93957280D01*
X148983980Y-93957280D01*
X149177577Y-93942384D01*
X149177581Y-93942383D01*
X149183719Y-93941911D01*
X149189651Y-93940255D01*
X149189655Y-93940254D01*
X149282839Y-93914236D01*
X149382597Y-93886383D01*
X149388101Y-93883603D01*
X149388103Y-93883602D01*
X149561401Y-93796063D01*
X149561403Y-93796062D01*
X149566902Y-93793284D01*
X149729614Y-93666159D01*
X149733640Y-93661495D01*
X149733643Y-93661492D01*
X149860506Y-93514520D01*
X149860507Y-93514518D01*
X149864535Y-93509852D01*
X149966527Y-93330314D01*
X150031703Y-93134386D01*
X150050824Y-92983033D01*
X150057141Y-92933032D01*
X150057142Y-92933025D01*
X150057583Y-92929530D01*
X150057995Y-92899989D01*
X150037846Y-92694490D01*
X149978165Y-92496818D01*
X149899992Y-92349795D01*
X149884121Y-92319946D01*
X149884119Y-92319943D01*
X149881227Y-92314504D01*
X149877337Y-92309734D01*
X149877334Y-92309730D01*
X149754617Y-92159265D01*
X149754614Y-92159262D01*
X149750722Y-92154490D01*
X149742798Y-92147934D01*
X149636017Y-92059597D01*
X149591623Y-92022871D01*
X149503776Y-91975372D01*
X152587388Y-91975372D01*
X152603245Y-92293903D01*
X152604076Y-92301432D01*
X152658085Y-92615748D01*
X152659818Y-92623135D01*
X152751196Y-92928684D01*
X152753799Y-92935797D01*
X152881227Y-93228162D01*
X152884669Y-93234918D01*
X153046294Y-93509852D01*
X153050519Y-93516139D01*
X153201463Y-93713923D01*
X153212989Y-93722385D01*
X153225054Y-93715724D01*
X154927980Y-92012799D01*
X154934357Y-92001120D01*
X155664408Y-92001120D01*
X155664539Y-92002955D01*
X155668790Y-92009569D01*
X157373285Y-93714063D01*
X157386408Y-93721229D01*
X157396709Y-93713840D01*
X157500751Y-93586044D01*
X157505164Y-93579903D01*
X157675349Y-93310176D01*
X157679005Y-93303525D01*
X157815544Y-93015324D01*
X157818375Y-93008284D01*
X157919306Y-92705756D01*
X157921270Y-92698422D01*
X157985122Y-92385978D01*
X157986194Y-92378454D01*
X158012173Y-92059040D01*
X158012378Y-92054565D01*
X158012927Y-92002210D01*
X158012817Y-91997778D01*
X157993529Y-91677842D01*
X157992621Y-91670340D01*
X157935319Y-91356582D01*
X157933518Y-91349249D01*
X157838935Y-91044644D01*
X157836263Y-91037572D01*
X157705781Y-90746559D01*
X157702264Y-90739832D01*
X157537771Y-90466610D01*
X157533481Y-90460366D01*
X157397991Y-90286636D01*
X157386199Y-90278167D01*
X157374486Y-90284714D01*
X155672020Y-91987179D01*
X155664408Y-92001120D01*
X154934357Y-92001120D01*
X154935592Y-91998858D01*
X154935461Y-91997023D01*
X154931210Y-91990409D01*
X153226445Y-90285645D01*
X153213510Y-90278581D01*
X153202949Y-90286241D01*
X153082766Y-90437061D01*
X153078410Y-90443259D01*
X152911059Y-90714753D01*
X152907479Y-90721429D01*
X152773956Y-91011063D01*
X152771206Y-91018114D01*
X152673444Y-91321697D01*
X152671561Y-91329030D01*
X152610979Y-91642159D01*
X152609992Y-91649659D01*
X152587467Y-91967791D01*
X152587388Y-91975372D01*
X149503776Y-91975372D01*
X149409990Y-91924662D01*
X149397816Y-91920893D01*
X149338658Y-91881644D01*
X149310110Y-91816640D01*
X149321238Y-91746521D01*
X149368508Y-91693549D01*
X149382648Y-91686485D01*
X149382597Y-91686383D01*
X149561401Y-91596063D01*
X149561403Y-91596062D01*
X149566902Y-91593284D01*
X149729614Y-91466159D01*
X149733640Y-91461495D01*
X149733643Y-91461492D01*
X149860506Y-91314520D01*
X149860507Y-91314518D01*
X149864535Y-91309852D01*
X149966527Y-91130314D01*
X150031703Y-90934386D01*
X150050158Y-90788302D01*
X150057141Y-90733032D01*
X150057142Y-90733025D01*
X150057583Y-90729530D01*
X150057995Y-90699989D01*
X150056547Y-90685217D01*
X150442108Y-90685217D01*
X150443348Y-90699989D01*
X150456550Y-90857200D01*
X150459386Y-90890977D01*
X150516301Y-91089463D01*
X150519119Y-91094945D01*
X150519120Y-91094949D01*
X150607865Y-91267628D01*
X150607868Y-91267632D01*
X150610685Y-91273114D01*
X150738942Y-91434934D01*
X150743636Y-91438929D01*
X150770148Y-91461492D01*
X150896188Y-91568761D01*
X150901566Y-91571767D01*
X150901568Y-91571768D01*
X150922802Y-91583635D01*
X151076433Y-91669496D01*
X151272811Y-91733303D01*
X151477843Y-91757752D01*
X151483978Y-91757280D01*
X151483980Y-91757280D01*
X151677577Y-91742384D01*
X151677581Y-91742383D01*
X151683719Y-91741911D01*
X151689651Y-91740255D01*
X151689655Y-91740254D01*
X151765723Y-91719015D01*
X151882597Y-91686383D01*
X151888101Y-91683603D01*
X151888103Y-91683602D01*
X152061401Y-91596063D01*
X152061403Y-91596062D01*
X152066902Y-91593284D01*
X152229614Y-91466159D01*
X152233640Y-91461495D01*
X152233643Y-91461492D01*
X152360506Y-91314520D01*
X152360507Y-91314518D01*
X152364535Y-91309852D01*
X152466527Y-91130314D01*
X152531703Y-90934386D01*
X152550158Y-90788302D01*
X152557141Y-90733032D01*
X152557142Y-90733025D01*
X152557583Y-90729530D01*
X152557995Y-90699989D01*
X152537846Y-90494490D01*
X152478165Y-90296818D01*
X152381227Y-90114504D01*
X152377337Y-90109734D01*
X152377334Y-90109730D01*
X152252964Y-89957239D01*
X152234508Y-89913412D01*
X153577917Y-89913412D01*
X153584520Y-89925298D01*
X155287190Y-91627969D01*
X155301131Y-91635581D01*
X155302966Y-91635450D01*
X155309580Y-91631199D01*
X157014559Y-89926219D01*
X157021571Y-89913378D01*
X157013777Y-89902690D01*
X156851298Y-89774602D01*
X156845075Y-89770277D01*
X156572702Y-89604346D01*
X156566025Y-89600811D01*
X156275686Y-89468802D01*
X156268616Y-89466088D01*
X155964537Y-89369921D01*
X155957186Y-89368074D01*
X155643746Y-89309131D01*
X155636237Y-89308183D01*
X155317989Y-89287324D01*
X155310424Y-89287284D01*
X154991964Y-89304810D01*
X154984450Y-89305679D01*
X154670405Y-89361337D01*
X154663044Y-89363104D01*
X154357980Y-89456081D01*
X154350860Y-89458729D01*
X154059182Y-89587679D01*
X154052445Y-89591156D01*
X153778355Y-89754222D01*
X153772091Y-89758479D01*
X153586385Y-89901751D01*
X153577917Y-89913412D01*
X152234508Y-89913412D01*
X152225410Y-89891807D01*
X152237605Y-89821866D01*
X152277439Y-89775024D01*
X152285096Y-89769562D01*
X152293497Y-89758863D01*
X152286510Y-89745710D01*
X151512811Y-88972010D01*
X151498868Y-88964397D01*
X151497034Y-88964528D01*
X151490420Y-88968779D01*
X150710180Y-89749020D01*
X150703423Y-89761395D01*
X150708705Y-89768451D01*
X150712887Y-89770895D01*
X150761610Y-89822535D01*
X150774680Y-89892318D01*
X150745837Y-89960673D01*
X150627034Y-90102257D01*
X150624068Y-90107652D01*
X150624064Y-90107658D01*
X150571652Y-90202996D01*
X150527559Y-90283200D01*
X150465125Y-90480019D01*
X150464439Y-90486136D01*
X150464438Y-90486140D01*
X150444679Y-90662296D01*
X150442108Y-90685217D01*
X150056547Y-90685217D01*
X150037846Y-90494490D01*
X149978165Y-90296818D01*
X149881227Y-90114504D01*
X149877337Y-90109734D01*
X149877334Y-90109730D01*
X149754617Y-89959265D01*
X149754614Y-89959262D01*
X149750722Y-89954490D01*
X149716549Y-89926219D01*
X149619346Y-89845806D01*
X149591623Y-89822871D01*
X149476550Y-89760651D01*
X149426141Y-89710656D01*
X149410764Y-89641345D01*
X149435300Y-89574723D01*
X149479668Y-89537349D01*
X149480664Y-89536846D01*
X149566902Y-89493284D01*
X149729614Y-89366159D01*
X149733640Y-89361495D01*
X149733643Y-89361492D01*
X149860506Y-89214520D01*
X149860507Y-89214518D01*
X149864535Y-89209852D01*
X149918504Y-89114850D01*
X149947984Y-89062956D01*
X149999023Y-89013605D01*
X150068641Y-88999683D01*
X150134735Y-89025609D01*
X150174283Y-89077789D01*
X150236989Y-89232215D01*
X150241634Y-89241410D01*
X150330097Y-89385770D01*
X150340553Y-89395231D01*
X150349331Y-89391447D01*
X151127979Y-88612800D01*
X151134356Y-88601121D01*
X151864408Y-88601121D01*
X151864539Y-88602955D01*
X151868790Y-88609569D01*
X152646307Y-89387085D01*
X152658313Y-89393641D01*
X152670052Y-89384673D01*
X152708010Y-89331848D01*
X152713321Y-89323009D01*
X152811318Y-89124726D01*
X152815117Y-89115131D01*
X152879415Y-88903506D01*
X152881594Y-88893425D01*
X152910702Y-88672327D01*
X152911221Y-88665652D01*
X152912744Y-88603353D01*
X152912550Y-88596635D01*
X152894279Y-88374389D01*
X152892596Y-88364227D01*
X152838710Y-88149697D01*
X152835389Y-88139942D01*
X152747193Y-87937107D01*
X152742315Y-87928009D01*
X152669224Y-87815027D01*
X152658538Y-87805824D01*
X152648973Y-87810227D01*
X151872021Y-88587178D01*
X151864408Y-88601121D01*
X151134356Y-88601121D01*
X151135592Y-88598857D01*
X151135461Y-88597023D01*
X151131210Y-88590409D01*
X150353862Y-87813062D01*
X150342330Y-87806765D01*
X150330048Y-87816388D01*
X150274467Y-87897866D01*
X150269379Y-87906822D01*
X150176249Y-88107454D01*
X150173070Y-88116097D01*
X150130779Y-88173123D01*
X150064371Y-88198232D01*
X149994930Y-88183453D01*
X149943567Y-88131749D01*
X149884118Y-88019942D01*
X149881227Y-88014504D01*
X149877337Y-88009734D01*
X149877334Y-88009730D01*
X149754617Y-87859265D01*
X149754614Y-87859262D01*
X149750722Y-87854490D01*
X149744917Y-87849687D01*
X149596372Y-87726800D01*
X149591623Y-87722871D01*
X149409990Y-87624662D01*
X149212739Y-87563603D01*
X149206614Y-87562959D01*
X149206613Y-87562959D01*
X149013515Y-87542664D01*
X149013513Y-87542664D01*
X149007386Y-87542020D01*
X148921075Y-87549875D01*
X148807891Y-87560175D01*
X148807888Y-87560176D01*
X148801752Y-87560734D01*
X148795846Y-87562472D01*
X148795842Y-87562473D01*
X148609580Y-87617293D01*
X148603668Y-87619033D01*
X148420681Y-87714697D01*
X148259760Y-87844080D01*
X148127034Y-88002257D01*
X148124068Y-88007652D01*
X148124064Y-88007658D01*
X148069201Y-88107454D01*
X148027559Y-88183200D01*
X147965125Y-88380019D01*
X147964439Y-88386136D01*
X147964438Y-88386140D01*
X147942795Y-88579092D01*
X147942108Y-88585217D01*
X147959386Y-88790977D01*
X148016301Y-88989463D01*
X148019119Y-88994945D01*
X148019120Y-88994949D01*
X148107865Y-89167628D01*
X148107868Y-89167632D01*
X148110685Y-89173114D01*
X148238942Y-89334934D01*
X148243636Y-89338929D01*
X148309791Y-89395231D01*
X148396188Y-89468761D01*
X148524425Y-89540430D01*
X148574130Y-89591122D01*
X148588539Y-89660641D01*
X148563075Y-89726914D01*
X148521330Y-89762078D01*
X148434206Y-89807626D01*
X148420681Y-89814697D01*
X148259760Y-89944080D01*
X148127034Y-90102257D01*
X148124068Y-90107652D01*
X148124064Y-90107658D01*
X148071652Y-90202996D01*
X148027559Y-90283200D01*
X147965125Y-90480019D01*
X147964439Y-90486136D01*
X147964438Y-90486140D01*
X147944679Y-90662296D01*
X147942108Y-90685217D01*
X147943348Y-90699989D01*
X147956550Y-90857200D01*
X147959386Y-90890977D01*
X148016301Y-91089463D01*
X148019119Y-91094945D01*
X148019120Y-91094949D01*
X148107865Y-91267628D01*
X148107868Y-91267632D01*
X148110685Y-91273114D01*
X148238942Y-91434934D01*
X148243636Y-91438929D01*
X148270148Y-91461492D01*
X148396188Y-91568761D01*
X148401566Y-91571767D01*
X148401568Y-91571768D01*
X148422802Y-91583635D01*
X148576433Y-91669496D01*
X148602120Y-91677842D01*
X148605505Y-91678942D01*
X148664111Y-91719015D01*
X148691748Y-91784412D01*
X148679641Y-91854369D01*
X148631635Y-91906675D01*
X148613772Y-91915599D01*
X148609577Y-91917294D01*
X148603668Y-91919033D01*
X148598210Y-91921886D01*
X148598206Y-91921888D01*
X148474305Y-91986663D01*
X148420681Y-92014697D01*
X148259760Y-92144080D01*
X148127034Y-92302257D01*
X148124068Y-92307652D01*
X148124064Y-92307658D01*
X148066790Y-92411840D01*
X148027559Y-92483200D01*
X147965125Y-92680019D01*
X147964439Y-92686136D01*
X147964438Y-92686140D01*
X147948332Y-92829727D01*
X147942108Y-92885217D01*
X118681859Y-92885217D01*
X118609451Y-92747885D01*
X118605084Y-92740787D01*
X118436165Y-92503095D01*
X118430892Y-92496628D01*
X118232017Y-92283361D01*
X118225933Y-92277649D01*
X118000607Y-92092563D01*
X117993826Y-92087708D01*
X117745987Y-91934042D01*
X117738627Y-91930129D01*
X117472654Y-91810596D01*
X117464831Y-91807686D01*
X117185375Y-91724376D01*
X117177254Y-91722531D01*
X116888571Y-91676809D01*
X116881597Y-91676101D01*
X116792714Y-91672064D01*
X116789881Y-91672000D01*
X116202115Y-91672000D01*
X116186876Y-91676475D01*
X116185671Y-91677865D01*
X116184000Y-91685548D01*
X116184000Y-93657885D01*
X115676000Y-93657885D01*
X115676000Y-91690115D01*
X115671525Y-91674876D01*
X115670135Y-91673671D01*
X115662452Y-91672000D01*
X115106007Y-91672000D01*
X115101818Y-91672139D01*
X114884868Y-91686549D01*
X114876597Y-91687653D01*
X114590749Y-91745290D01*
X114582697Y-91747478D01*
X114306995Y-91842409D01*
X114299284Y-91845650D01*
X114038556Y-91976213D01*
X114031362Y-91980434D01*
X113790180Y-92144341D01*
X113783610Y-92149474D01*
X113566225Y-92343839D01*
X113560392Y-92349795D01*
X113370622Y-92571203D01*
X113365624Y-92577884D01*
X113206813Y-92822432D01*
X113202737Y-92829725D01*
X113201613Y-92832092D01*
X113201082Y-92832687D01*
X113200700Y-92833370D01*
X113200548Y-92833285D01*
X113154324Y-92885048D01*
X113085912Y-92904031D01*
X113018098Y-92883014D01*
X112976336Y-92836810D01*
X112929451Y-92747885D01*
X112925084Y-92740787D01*
X112756165Y-92503095D01*
X112750892Y-92496628D01*
X112552017Y-92283361D01*
X112545933Y-92277649D01*
X112320607Y-92092563D01*
X112313826Y-92087708D01*
X112065987Y-91934042D01*
X112058627Y-91930129D01*
X111792654Y-91810596D01*
X111784831Y-91807686D01*
X111505375Y-91724376D01*
X111497254Y-91722531D01*
X111208571Y-91676809D01*
X111201597Y-91676101D01*
X111112714Y-91672064D01*
X111109881Y-91672000D01*
X110522115Y-91672000D01*
X110506876Y-91676475D01*
X110505671Y-91677865D01*
X110504000Y-91685548D01*
X110504000Y-93657885D01*
X109996000Y-93657885D01*
X109996000Y-91690115D01*
X109991525Y-91674876D01*
X109990135Y-91673671D01*
X109982452Y-91672000D01*
X109426007Y-91672000D01*
X109421818Y-91672139D01*
X109204868Y-91686549D01*
X109196597Y-91687653D01*
X108910749Y-91745290D01*
X108902697Y-91747478D01*
X108626995Y-91842409D01*
X108619284Y-91845650D01*
X108358556Y-91976213D01*
X108351362Y-91980434D01*
X108110180Y-92144341D01*
X108103610Y-92149474D01*
X107886225Y-92343839D01*
X107880392Y-92349795D01*
X107690622Y-92571203D01*
X107685624Y-92577884D01*
X107526809Y-92822437D01*
X107522735Y-92829727D01*
X107397662Y-93093132D01*
X107394586Y-93100900D01*
X107305448Y-93378531D01*
X107303427Y-93386637D01*
X107254571Y-93658170D01*
X106478960Y-93658170D01*
X105442812Y-92622022D01*
X105428868Y-92614408D01*
X105427035Y-92614539D01*
X105420420Y-92618790D01*
X104356497Y-93682713D01*
X104349839Y-93694906D01*
X100001003Y-93694906D01*
X100001001Y-90969691D01*
X101772558Y-90969691D01*
X101786416Y-91181126D01*
X101838573Y-91386495D01*
X101927282Y-91578919D01*
X102049572Y-91751956D01*
X102115972Y-91816640D01*
X102164181Y-91863603D01*
X102201348Y-91899810D01*
X102206144Y-91903015D01*
X102206147Y-91903017D01*
X102315693Y-91976213D01*
X102377527Y-92017529D01*
X102382835Y-92019810D01*
X102382836Y-92019810D01*
X102566905Y-92098892D01*
X102566908Y-92098893D01*
X102572208Y-92101170D01*
X102577838Y-92102444D01*
X102582196Y-92103430D01*
X102778872Y-92147934D01*
X102784641Y-92148161D01*
X102784644Y-92148161D01*
X102864772Y-92151309D01*
X102990597Y-92156252D01*
X103079327Y-92143387D01*
X103194578Y-92126677D01*
X103194583Y-92126676D01*
X103200292Y-92125848D01*
X103205756Y-92123993D01*
X103205761Y-92123992D01*
X103395464Y-92059597D01*
X103395469Y-92059595D01*
X103400936Y-92057739D01*
X103405973Y-92054918D01*
X103405980Y-92054915D01*
X103434764Y-92038794D01*
X103503972Y-92022959D01*
X103570754Y-92047054D01*
X103613908Y-92103430D01*
X103621698Y-92161349D01*
X103618020Y-92197881D01*
X103617775Y-92207211D01*
X103630220Y-92466288D01*
X103631356Y-92475543D01*
X103681961Y-92729945D01*
X103684449Y-92738917D01*
X103772095Y-92983033D01*
X103775895Y-92991568D01*
X103898658Y-93220042D01*
X103903666Y-93227904D01*
X103973720Y-93321716D01*
X103984979Y-93330165D01*
X103997397Y-93323393D01*
X105069658Y-92251132D01*
X105794408Y-92251132D01*
X105794539Y-92252965D01*
X105798790Y-92259580D01*
X106866094Y-93326884D01*
X106878474Y-93333644D01*
X106886815Y-93327400D01*
X107020832Y-93119048D01*
X107025275Y-93110864D01*
X107131807Y-92874370D01*
X107134997Y-92865605D01*
X107205402Y-92615972D01*
X107207262Y-92606830D01*
X107240187Y-92348019D01*
X107240668Y-92341733D01*
X107242987Y-92253160D01*
X107242836Y-92246851D01*
X107223501Y-91986663D01*
X107222125Y-91977457D01*
X107164878Y-91724467D01*
X107162154Y-91715556D01*
X107068143Y-91473806D01*
X107064132Y-91465397D01*
X106935422Y-91240202D01*
X106930211Y-91232476D01*
X106886996Y-91177658D01*
X106875071Y-91169187D01*
X106863537Y-91175673D01*
X105802022Y-92237188D01*
X105794408Y-92251132D01*
X105069658Y-92251132D01*
X106504349Y-90816441D01*
X106510733Y-90804751D01*
X106501321Y-90792641D01*
X106354045Y-90690471D01*
X106346010Y-90685738D01*
X106113376Y-90571016D01*
X106104743Y-90567528D01*
X105857703Y-90488450D01*
X105848643Y-90486274D01*
X105592630Y-90444580D01*
X105583343Y-90443768D01*
X105323992Y-90440373D01*
X105314681Y-90440943D01*
X105057682Y-90475919D01*
X105048546Y-90477860D01*
X104799543Y-90550439D01*
X104790800Y-90553707D01*
X104555252Y-90662296D01*
X104547097Y-90666816D01*
X104330186Y-90809029D01*
X104322781Y-90814712D01*
X104275177Y-90857200D01*
X104211036Y-90887638D01*
X104140622Y-90878567D01*
X104086289Y-90832866D01*
X104068528Y-90788979D01*
X104068451Y-90789001D01*
X104068254Y-90788302D01*
X104068254Y-90788301D01*
X104010936Y-90585068D01*
X103917220Y-90395031D01*
X103839818Y-90291376D01*
X103793895Y-90229878D01*
X103793894Y-90229877D01*
X103790442Y-90225254D01*
X103771277Y-90207538D01*
X103639089Y-90085345D01*
X103639087Y-90085343D01*
X103634848Y-90081425D01*
X103606104Y-90063289D01*
X103460528Y-89971437D01*
X103455648Y-89968358D01*
X103450288Y-89966220D01*
X103450285Y-89966218D01*
X103264208Y-89891981D01*
X103258844Y-89889841D01*
X103253184Y-89888715D01*
X103253180Y-89888714D01*
X103056695Y-89849631D01*
X103056690Y-89849631D01*
X103051027Y-89848504D01*
X103045252Y-89848428D01*
X103045248Y-89848428D01*
X102938875Y-89847036D01*
X102839157Y-89845730D01*
X102833460Y-89846709D01*
X102833459Y-89846709D01*
X102823455Y-89848428D01*
X102630329Y-89881613D01*
X102431537Y-89954952D01*
X102426576Y-89957904D01*
X102426575Y-89957904D01*
X102409004Y-89968358D01*
X102249439Y-90063289D01*
X102090133Y-90202996D01*
X101958955Y-90369396D01*
X101860296Y-90556914D01*
X101797463Y-90759272D01*
X101772558Y-90969691D01*
X100001001Y-90969691D01*
X100000999Y-87732670D01*
X102062160Y-87732670D01*
X102067887Y-87740320D01*
X102239042Y-87845205D01*
X102247837Y-87849687D01*
X102457988Y-87936734D01*
X102467373Y-87939783D01*
X102688554Y-87992885D01*
X102698301Y-87994428D01*
X102925070Y-88012275D01*
X102934930Y-88012275D01*
X103161699Y-87994428D01*
X103171446Y-87992885D01*
X103392627Y-87939783D01*
X103402012Y-87936734D01*
X103612163Y-87849687D01*
X103620958Y-87845205D01*
X103788445Y-87742568D01*
X103797907Y-87732110D01*
X103794124Y-87723334D01*
X103511490Y-87440700D01*
X150705508Y-87440700D01*
X150712251Y-87453029D01*
X151487189Y-88227968D01*
X151501132Y-88235581D01*
X151502966Y-88235450D01*
X151509580Y-88231199D01*
X152288994Y-87451784D01*
X152296011Y-87438933D01*
X152288237Y-87428263D01*
X152285902Y-87426419D01*
X152277320Y-87420718D01*
X152083678Y-87313822D01*
X152074272Y-87309595D01*
X151865772Y-87235761D01*
X151855809Y-87233129D01*
X151638047Y-87194339D01*
X151627796Y-87193370D01*
X151406616Y-87190668D01*
X151396332Y-87191388D01*
X151177693Y-87224844D01*
X151167666Y-87227233D01*
X150957426Y-87295950D01*
X150947916Y-87299947D01*
X150751725Y-87402078D01*
X150743007Y-87407567D01*
X150713961Y-87429375D01*
X150705508Y-87440700D01*
X103511490Y-87440700D01*
X102942812Y-86872022D01*
X102928868Y-86864408D01*
X102927035Y-86864539D01*
X102920420Y-86868790D01*
X102068920Y-87720290D01*
X102062160Y-87732670D01*
X100000999Y-87732670D01*
X100000998Y-86504930D01*
X101417725Y-86504930D01*
X101435572Y-86731699D01*
X101437115Y-86741446D01*
X101490217Y-86962627D01*
X101493266Y-86972012D01*
X101580313Y-87182163D01*
X101584795Y-87190958D01*
X101687432Y-87358445D01*
X101697890Y-87367907D01*
X101706666Y-87364124D01*
X102557978Y-86512812D01*
X102565592Y-86498868D01*
X102565461Y-86497035D01*
X102561210Y-86490420D01*
X101709710Y-85638920D01*
X101697330Y-85632160D01*
X101689680Y-85637887D01*
X101584795Y-85809042D01*
X101580313Y-85817837D01*
X101493266Y-86027988D01*
X101490217Y-86037373D01*
X101437115Y-86258554D01*
X101435572Y-86268301D01*
X101417725Y-86495070D01*
X101417725Y-86504930D01*
X100000998Y-86504930D01*
X100000998Y-85750208D01*
X100000999Y-85750201D01*
X100001000Y-85750198D01*
X100001000Y-85267890D01*
X102062093Y-85267890D01*
X102065876Y-85276666D01*
X104150290Y-87361080D01*
X104162670Y-87367840D01*
X104170320Y-87362113D01*
X104275205Y-87190958D01*
X104279687Y-87182163D01*
X104366734Y-86972012D01*
X104369784Y-86962625D01*
X104380430Y-86918279D01*
X104415781Y-86856710D01*
X104478808Y-86824026D01*
X104549499Y-86830606D01*
X104561616Y-86836183D01*
X104702905Y-86910519D01*
X104711454Y-86914236D01*
X104956327Y-86999749D01*
X104965336Y-87002163D01*
X105220166Y-87050544D01*
X105229423Y-87051598D01*
X105488607Y-87061783D01*
X105497921Y-87061457D01*
X105755753Y-87033220D01*
X105764930Y-87031519D01*
X106015758Y-86965481D01*
X106024574Y-86962445D01*
X106262880Y-86860062D01*
X106271167Y-86855748D01*
X106491718Y-86719266D01*
X106499268Y-86713780D01*
X106504559Y-86709301D01*
X106512997Y-86696497D01*
X106506935Y-86686145D01*
X105071922Y-85251132D01*
X105794408Y-85251132D01*
X105794539Y-85252965D01*
X105798790Y-85259580D01*
X106866094Y-86326884D01*
X106878474Y-86333644D01*
X106886815Y-86327400D01*
X107020832Y-86119048D01*
X107025275Y-86110864D01*
X107131807Y-85874370D01*
X107134997Y-85865605D01*
X107205402Y-85615972D01*
X107207262Y-85606830D01*
X107217948Y-85522834D01*
X151809134Y-85522834D01*
X151846127Y-85732631D01*
X151848246Y-85741132D01*
X151932308Y-85999847D01*
X151935599Y-86007994D01*
X152054848Y-86252488D01*
X152059233Y-86260085D01*
X152211352Y-86485610D01*
X152216756Y-86492527D01*
X152398776Y-86694680D01*
X152405091Y-86700779D01*
X152613471Y-86875631D01*
X152620576Y-86880793D01*
X152851275Y-87024950D01*
X152859009Y-87029062D01*
X153107533Y-87139712D01*
X153115774Y-87142711D01*
X153377267Y-87217693D01*
X153385847Y-87219517D01*
X153655235Y-87257377D01*
X153663984Y-87257989D01*
X154227885Y-87257989D01*
X154243124Y-87253514D01*
X154244329Y-87252124D01*
X154246000Y-87244441D01*
X154246000Y-87239874D01*
X154754000Y-87239874D01*
X154758475Y-87255113D01*
X154759865Y-87256318D01*
X154767548Y-87257989D01*
X155267923Y-87257989D01*
X155272308Y-87257836D01*
X155475757Y-87243610D01*
X155484438Y-87242390D01*
X155750530Y-87185830D01*
X155758967Y-87183411D01*
X156014587Y-87090372D01*
X156022603Y-87086803D01*
X156262790Y-86959094D01*
X156270238Y-86954440D01*
X156490306Y-86794551D01*
X156497036Y-86788904D01*
X156692716Y-86599938D01*
X156698588Y-86593416D01*
X156866064Y-86379056D01*
X156870970Y-86371782D01*
X157006984Y-86136200D01*
X157010833Y-86128308D01*
X157112735Y-85876093D01*
X157115451Y-85867735D01*
X157181257Y-85603797D01*
X157182782Y-85595152D01*
X157190470Y-85522004D01*
X157187791Y-85507354D01*
X157175470Y-85503989D01*
X154772115Y-85503989D01*
X154756876Y-85508464D01*
X154755671Y-85509854D01*
X154754000Y-85517537D01*
X154754000Y-87239874D01*
X154246000Y-87239874D01*
X154246000Y-85522104D01*
X154241525Y-85506865D01*
X154240135Y-85505660D01*
X154232452Y-85503989D01*
X151823926Y-85503989D01*
X151811057Y-85507768D01*
X151809134Y-85522834D01*
X107217948Y-85522834D01*
X107240187Y-85348019D01*
X107240668Y-85341733D01*
X107242987Y-85253160D01*
X107242836Y-85246851D01*
X107223501Y-84986663D01*
X107222202Y-84977974D01*
X151809530Y-84977974D01*
X151812209Y-84992624D01*
X151824530Y-84995989D01*
X154227885Y-84995989D01*
X154243124Y-84991514D01*
X154244329Y-84990124D01*
X154246000Y-84982441D01*
X154246000Y-84977874D01*
X154754000Y-84977874D01*
X154758475Y-84993113D01*
X154759865Y-84994318D01*
X154767548Y-84995989D01*
X157176074Y-84995989D01*
X157188943Y-84992210D01*
X157190866Y-84977144D01*
X157153873Y-84767347D01*
X157151754Y-84758846D01*
X157067692Y-84500131D01*
X157064401Y-84491984D01*
X156945152Y-84247490D01*
X156940767Y-84239893D01*
X156788648Y-84014368D01*
X156783244Y-84007451D01*
X156601224Y-83805298D01*
X156594909Y-83799199D01*
X156386529Y-83624347D01*
X156379424Y-83619185D01*
X156148725Y-83475028D01*
X156140991Y-83470916D01*
X155892467Y-83360266D01*
X155884226Y-83357267D01*
X155622733Y-83282285D01*
X155614153Y-83280461D01*
X155344765Y-83242601D01*
X155336016Y-83241989D01*
X154772115Y-83241989D01*
X154756876Y-83246464D01*
X154755671Y-83247854D01*
X154754000Y-83255537D01*
X154754000Y-84977874D01*
X154246000Y-84977874D01*
X154246000Y-83260104D01*
X154241525Y-83244865D01*
X154240135Y-83243660D01*
X154232452Y-83241989D01*
X153732077Y-83241989D01*
X153727692Y-83242142D01*
X153524243Y-83256368D01*
X153515562Y-83257588D01*
X153249470Y-83314148D01*
X153241033Y-83316567D01*
X152985413Y-83409606D01*
X152977397Y-83413175D01*
X152737210Y-83540884D01*
X152729762Y-83545538D01*
X152509694Y-83705427D01*
X152502964Y-83711074D01*
X152307284Y-83900040D01*
X152301412Y-83906562D01*
X152133936Y-84120922D01*
X152129030Y-84128196D01*
X151993016Y-84363778D01*
X151989167Y-84371670D01*
X151887265Y-84623885D01*
X151884549Y-84632243D01*
X151818743Y-84896181D01*
X151817218Y-84904826D01*
X151809530Y-84977974D01*
X107222202Y-84977974D01*
X107222125Y-84977457D01*
X107164878Y-84724467D01*
X107162154Y-84715556D01*
X107068143Y-84473806D01*
X107064132Y-84465397D01*
X106935422Y-84240202D01*
X106930211Y-84232476D01*
X106886996Y-84177658D01*
X106875071Y-84169187D01*
X106863537Y-84175673D01*
X105802022Y-85237188D01*
X105794408Y-85251132D01*
X105071922Y-85251132D01*
X103995816Y-84175026D01*
X103982507Y-84167758D01*
X103972472Y-84174878D01*
X103956937Y-84193556D01*
X103951531Y-84201135D01*
X103816965Y-84422891D01*
X103812736Y-84431192D01*
X103712432Y-84670389D01*
X103709471Y-84679239D01*
X103645628Y-84930625D01*
X103644006Y-84939821D01*
X103639366Y-84985897D01*
X103612639Y-85051671D01*
X103554595Y-85092553D01*
X103483662Y-85095565D01*
X103465781Y-85089681D01*
X103402007Y-85063265D01*
X103392627Y-85060217D01*
X103171446Y-85007115D01*
X103161699Y-85005572D01*
X102934930Y-84987725D01*
X102925070Y-84987725D01*
X102698301Y-85005572D01*
X102688554Y-85007115D01*
X102467373Y-85060217D01*
X102457988Y-85063266D01*
X102247837Y-85150313D01*
X102239042Y-85154795D01*
X102071555Y-85257432D01*
X102062093Y-85267890D01*
X100001000Y-85267890D01*
X100001000Y-83802689D01*
X104347102Y-83802689D01*
X104351675Y-83812465D01*
X105417188Y-84877978D01*
X105431132Y-84885592D01*
X105432965Y-84885461D01*
X105439580Y-84881210D01*
X106504349Y-83816441D01*
X106510733Y-83804751D01*
X106501321Y-83792641D01*
X106354045Y-83690471D01*
X106346010Y-83685738D01*
X106113376Y-83571016D01*
X106104743Y-83567528D01*
X105857703Y-83488450D01*
X105848643Y-83486274D01*
X105592630Y-83444580D01*
X105583343Y-83443768D01*
X105323992Y-83440373D01*
X105314681Y-83440943D01*
X105057682Y-83475919D01*
X105048546Y-83477860D01*
X104799543Y-83550439D01*
X104790800Y-83553707D01*
X104555252Y-83662296D01*
X104547097Y-83666816D01*
X104356240Y-83791947D01*
X104347102Y-83802689D01*
X100001000Y-83802689D01*
X100001000Y-81127000D01*
X100021002Y-81058879D01*
X100074658Y-81012386D01*
X100127000Y-81001000D01*
X159873000Y-81001000D01*
X159941121Y-81021002D01*
G37*
%TD.AperFunction*%
%TD*%
M02*
