%TF.GenerationSoftware,KiCad,Pcbnew,(7.0.0)*%
%TF.CreationDate,2023-02-18T15:12:11+00:00*%
%TF.ProjectId,ps2usb,70733275-7362-42e6-9b69-6361645f7063,rev?*%
%TF.SameCoordinates,Original*%
%TF.FileFunction,Copper,L1,Top*%
%TF.FilePolarity,Positive*%
%FSLAX46Y46*%
G04 Gerber Fmt 4.6, Leading zero omitted, Abs format (unit mm)*
G04 Created by KiCad (PCBNEW (7.0.0)) date 2023-02-18 15:12:11*
%MOMM*%
%LPD*%
G01*
G04 APERTURE LIST*
G04 Aperture macros list*
%AMRoundRect*
0 Rectangle with rounded corners*
0 $1 Rounding radius*
0 $2 $3 $4 $5 $6 $7 $8 $9 X,Y pos of 4 corners*
0 Add a 4 corners polygon primitive as box body*
4,1,4,$2,$3,$4,$5,$6,$7,$8,$9,$2,$3,0*
0 Add four circle primitives for the rounded corners*
1,1,$1+$1,$2,$3*
1,1,$1+$1,$4,$5*
1,1,$1+$1,$6,$7*
1,1,$1+$1,$8,$9*
0 Add four rect primitives between the rounded corners*
20,1,$1+$1,$2,$3,$4,$5,0*
20,1,$1+$1,$4,$5,$6,$7,0*
20,1,$1+$1,$6,$7,$8,$9,0*
20,1,$1+$1,$8,$9,$2,$3,0*%
G04 Aperture macros list end*
%TA.AperFunction,SMDPad,CuDef*%
%ADD10RoundRect,0.225000X-0.250000X0.225000X-0.250000X-0.225000X0.250000X-0.225000X0.250000X0.225000X0*%
%TD*%
%TA.AperFunction,SMDPad,CuDef*%
%ADD11RoundRect,0.225000X-0.225000X-0.250000X0.225000X-0.250000X0.225000X0.250000X-0.225000X0.250000X0*%
%TD*%
%TA.AperFunction,ComponentPad*%
%ADD12C,1.800000*%
%TD*%
%TA.AperFunction,ComponentPad*%
%ADD13O,4.400000X3.000000*%
%TD*%
%TA.AperFunction,ComponentPad*%
%ADD14C,4.400000*%
%TD*%
%TA.AperFunction,SMDPad,CuDef*%
%ADD15RoundRect,0.150000X0.300000X0.150000X-0.300000X0.150000X-0.300000X-0.150000X0.300000X-0.150000X0*%
%TD*%
%TA.AperFunction,SMDPad,CuDef*%
%ADD16RoundRect,0.137500X0.137500X0.162500X-0.137500X0.162500X-0.137500X-0.162500X0.137500X-0.162500X0*%
%TD*%
%TA.AperFunction,SMDPad,CuDef*%
%ADD17R,0.900000X0.900000*%
%TD*%
%TA.AperFunction,ComponentPad*%
%ADD18O,3.000000X1.500000*%
%TD*%
%TA.AperFunction,ComponentPad*%
%ADD19O,5.000000X3.500000*%
%TD*%
%TA.AperFunction,SMDPad,CuDef*%
%ADD20O,0.300000X1.400000*%
%TD*%
%TA.AperFunction,SMDPad,CuDef*%
%ADD21O,1.400000X0.300000*%
%TD*%
%TA.AperFunction,SMDPad,CuDef*%
%ADD22RoundRect,0.150000X-0.825000X-0.150000X0.825000X-0.150000X0.825000X0.150000X-0.825000X0.150000X0*%
%TD*%
%TA.AperFunction,SMDPad,CuDef*%
%ADD23RoundRect,0.225000X0.250000X-0.225000X0.250000X0.225000X-0.250000X0.225000X-0.250000X-0.225000X0*%
%TD*%
%TA.AperFunction,ComponentPad*%
%ADD24C,2.000000*%
%TD*%
%TA.AperFunction,ComponentPad*%
%ADD25C,2.600000*%
%TD*%
%TA.AperFunction,ComponentPad*%
%ADD26R,1.700000X1.700000*%
%TD*%
%TA.AperFunction,ComponentPad*%
%ADD27O,1.700000X1.700000*%
%TD*%
%TA.AperFunction,ComponentPad*%
%ADD28C,4.000000*%
%TD*%
%TA.AperFunction,ComponentPad*%
%ADD29R,1.600000X1.600000*%
%TD*%
%TA.AperFunction,ComponentPad*%
%ADD30C,1.600000*%
%TD*%
%TA.AperFunction,SMDPad,CuDef*%
%ADD31RoundRect,0.250000X-0.625000X0.375000X-0.625000X-0.375000X0.625000X-0.375000X0.625000X0.375000X0*%
%TD*%
%TA.AperFunction,ViaPad*%
%ADD32C,0.800000*%
%TD*%
%TA.AperFunction,Conductor*%
%ADD33C,1.270000*%
%TD*%
%TA.AperFunction,Conductor*%
%ADD34C,0.762000*%
%TD*%
%TA.AperFunction,Conductor*%
%ADD35C,0.254000*%
%TD*%
%TA.AperFunction,Conductor*%
%ADD36C,0.250000*%
%TD*%
%TA.AperFunction,Conductor*%
%ADD37C,0.889000*%
%TD*%
%TA.AperFunction,Conductor*%
%ADD38C,0.508000*%
%TD*%
%TA.AperFunction,Conductor*%
%ADD39C,0.203200*%
%TD*%
%TA.AperFunction,Conductor*%
%ADD40C,0.152400*%
%TD*%
G04 APERTURE END LIST*
D10*
%TO.P,C4,1*%
%TO.N,GND*%
X122800000Y-88725000D03*
%TO.P,C4,2*%
%TO.N,+3.3V*%
X122800000Y-90275000D03*
%TD*%
D11*
%TO.P,C7,1*%
%TO.N,GND*%
X120225000Y-71700000D03*
%TO.P,C7,2*%
%TO.N,+5V*%
X121775000Y-71700000D03*
%TD*%
D12*
%TO.P,J3,1,1*%
%TO.N,/DIN2-1*%
X128500000Y-110500000D03*
%TO.P,J3,2,2*%
%TO.N,/DIN2-2*%
X128500000Y-113100000D03*
%TO.P,J3,3,3*%
%TO.N,GND*%
X128500000Y-108400000D03*
%TO.P,J3,4,4*%
%TO.N,unconnected-(J3-Pad4)*%
X126000000Y-110500000D03*
%TO.P,J3,5,5*%
%TO.N,Net-(F1-Pad2)*%
X128500000Y-115200000D03*
%TO.P,J3,6,6*%
%TO.N,/DIN2-6*%
X126000000Y-108400000D03*
%TO.P,J3,7,7*%
%TO.N,unconnected-(J3-Pad7)*%
X126000000Y-112700000D03*
%TO.P,J3,8,8*%
%TO.N,/DIN2-8*%
X126000000Y-115200000D03*
D13*
%TO.P,J3,S,S*%
%TO.N,GND*%
X131499999Y-105049999D03*
D14*
X132300000Y-111800000D03*
D13*
X131499999Y-118549999D03*
%TD*%
D15*
%TO.P,D1,1,1*%
%TO.N,+3.3V*%
X98500000Y-91100000D03*
D16*
%TO.P,D1,2,B*%
%TO.N,Net-(D1-B)*%
X98825000Y-92050000D03*
%TO.P,D1,3,G*%
%TO.N,Net-(D1-G)*%
X98825000Y-92950000D03*
D15*
%TO.P,D1,4,R*%
%TO.N,Net-(D1-R)*%
X98500000Y-93900000D03*
%TD*%
D17*
%TO.P,RN3,1,R1.1*%
%TO.N,Net-(D1-B)*%
X107999999Y-92499999D03*
%TO.P,RN3,2,R2.1*%
X107999999Y-93839999D03*
%TO.P,RN3,3,R3.1*%
%TO.N,Net-(D1-G)*%
X107999999Y-95159999D03*
%TO.P,RN3,4,R4.1*%
%TO.N,Net-(D1-R)*%
X107999999Y-96499999D03*
%TO.P,RN3,5,R4.2*%
%TO.N,Net-(RN3-R4.2)*%
X110999999Y-96499999D03*
%TO.P,RN3,6,R3.2*%
%TO.N,Net-(RN3-R3.2)*%
X110999999Y-95159999D03*
%TO.P,RN3,7,R2.2*%
%TO.N,Net-(RN3-R1.2)*%
X110999999Y-93839999D03*
%TO.P,RN3,8,R1.2*%
X110999999Y-92499999D03*
%TD*%
%TO.P,RN1,1,R1.1*%
%TO.N,/DIN1-8*%
X111999999Y-86499999D03*
%TO.P,RN1,2,R2.1*%
%TO.N,/DIN1-2*%
X110659999Y-86499999D03*
%TO.P,RN1,3,R3.1*%
%TO.N,/DIN1-6*%
X109339999Y-86499999D03*
%TO.P,RN1,4,R4.1*%
%TO.N,/DIN1-1*%
X107999999Y-86499999D03*
%TO.P,RN1,5,R4.2*%
%TO.N,+5V*%
X107999999Y-89499999D03*
%TO.P,RN1,6,R3.2*%
X109339999Y-89499999D03*
%TO.P,RN1,7,R2.2*%
X110659999Y-89499999D03*
%TO.P,RN1,8,R1.2*%
X111999999Y-89499999D03*
%TD*%
D11*
%TO.P,C1,1*%
%TO.N,GND*%
X100571000Y-117348000D03*
%TO.P,C1,2*%
%TO.N,+5V*%
X102121000Y-117348000D03*
%TD*%
D18*
%TO.P,J2,1A,VBUS*%
%TO.N,+5V*%
X113359999Y-105249999D03*
%TO.P,J2,1B,VBUS*%
X109339999Y-105249999D03*
%TO.P,J2,2A,D-*%
%TO.N,Net-(U1A-P5.4{slash}HM{slash}ALE{slash}XB)*%
X113359999Y-107749999D03*
%TO.P,J2,2B,D-*%
%TO.N,Net-(U1A-P5.0{slash}DM)*%
X109339999Y-107749999D03*
%TO.P,J2,3A,D+*%
%TO.N,Net-(U1A-P5.5{slash}HP{slash}!A15{slash}XA)*%
X113359999Y-109749999D03*
%TO.P,J2,3B,D+*%
%TO.N,Net-(U1A-P5.1{slash}DP)*%
X109339999Y-109749999D03*
%TO.P,J2,4A,GND*%
%TO.N,GND*%
X113359999Y-112249999D03*
%TO.P,J2,4B,GND*%
X109339999Y-112249999D03*
D19*
%TO.P,J2,S,SHIELD*%
X113009999Y-102179999D03*
X107329999Y-102179999D03*
X113009999Y-115319999D03*
X107329999Y-115319999D03*
%TD*%
D20*
%TO.P,U1,1*%
%TO.N,N/C*%
X120351999Y-90234999D03*
%TO.P,U1,2*%
X119851999Y-90234999D03*
%TO.P,U1,3,P5.7/RST*%
%TO.N,unconnected-(U1A-P5.7{slash}RST-Pad3)*%
X119351999Y-90234999D03*
%TO.P,U1,4,P3.0/RXD*%
%TO.N,Net-(J5-Pin_3)*%
X118851999Y-90234999D03*
%TO.P,U1,5*%
%TO.N,N/C*%
X118351999Y-90234999D03*
%TO.P,U1,6,P4.4/LED3/TNOW_/TXD1_/A4*%
%TO.N,Net-(U1A-P4.4{slash}LED3{slash}TNOW_{slash}TXD1_{slash}A4)*%
X117851999Y-90234999D03*
%TO.P,U1,7,P3.1/TXD*%
%TO.N,Net-(J5-Pin_2)*%
X117351999Y-90234999D03*
%TO.P,U1,8*%
%TO.N,N/C*%
X116851999Y-90234999D03*
%TO.P,U1,9*%
X116351999Y-90234999D03*
%TO.P,U1,10*%
X115851999Y-90234999D03*
%TO.P,U1,11,P3.5/DA6/T1*%
%TO.N,/DIN1-8*%
X115351999Y-90234999D03*
%TO.P,U1,12,P3.6/WR*%
%TO.N,/DIN1-2*%
X114851999Y-90234999D03*
D21*
%TO.P,U1,13,P3.7/RD*%
%TO.N,/DIN1-6*%
X113401999Y-91684999D03*
%TO.P,U1,14,P4.3/PWM1_/A3*%
%TO.N,/DIN1-1*%
X113401999Y-92184999D03*
%TO.P,U1,15,P4.2/PWM3_/CAP3_/A2*%
%TO.N,Net-(RN3-R1.2)*%
X113401999Y-92684999D03*
%TO.P,U1,16,P4.6/XI/SCS_*%
%TO.N,Net-(U1A-P4.6{slash}XI{slash}SCS_)*%
X113401999Y-93184999D03*
%TO.P,U1,17*%
%TO.N,N/C*%
X113401999Y-93684999D03*
%TO.P,U1,18,GND*%
%TO.N,GND*%
X113401999Y-94184999D03*
%TO.P,U1,19*%
%TO.N,N/C*%
X113401999Y-94684999D03*
%TO.P,U1,20,P4.0/LED2/A0/RXD1_*%
%TO.N,Net-(U1A-P4.0{slash}LED2{slash}A0{slash}RXD1_)*%
X113401999Y-95184999D03*
%TO.P,U1,21*%
%TO.N,N/C*%
X113401999Y-95684999D03*
%TO.P,U1,22*%
X113401999Y-96184999D03*
%TO.P,U1,23*%
X113401999Y-96684999D03*
%TO.P,U1,24*%
X113401999Y-97184999D03*
D20*
%TO.P,U1,25,P2.4/PWM1/A12*%
%TO.N,Net-(RN3-R4.2)*%
X114851999Y-98634999D03*
%TO.P,U1,26,P2.5/TNOW/PWM2*%
%TO.N,Net-(RN3-R3.2)*%
X115351999Y-98634999D03*
%TO.P,U1,27*%
%TO.N,N/C*%
X115851999Y-98634999D03*
%TO.P,U1,28*%
X116351999Y-98634999D03*
%TO.P,U1,29,P5.5/HP/!A15/XA*%
%TO.N,Net-(U1A-P5.5{slash}HP{slash}!A15{slash}XA)*%
X116851999Y-98634999D03*
%TO.P,U1,30,P5.4/HM/ALE/XB*%
%TO.N,Net-(U1A-P5.4{slash}HM{slash}ALE{slash}XB)*%
X117351999Y-98634999D03*
%TO.P,U1,31,P5.1/DP*%
%TO.N,Net-(U1A-P5.1{slash}DP)*%
X117851999Y-98634999D03*
%TO.P,U1,32,P5.0/DM*%
%TO.N,Net-(U1A-P5.0{slash}DM)*%
X118351999Y-98634999D03*
%TO.P,U1,33,P0.7/AD7/UDCD*%
%TO.N,/DIN2-8*%
X118851999Y-98634999D03*
%TO.P,U1,34,P0.6/AD6/URI*%
%TO.N,/DIN2-2*%
X119351999Y-98634999D03*
%TO.P,U1,35,P0.5/AD5/UDSR*%
%TO.N,/DIN2-6*%
X119851999Y-98634999D03*
%TO.P,U1,36,P0.4/AD4/UCTS*%
%TO.N,Net-(U1A-P0.4{slash}AD4{slash}UCTS)*%
X120351999Y-98634999D03*
D21*
%TO.P,U1,37,P0.3/AD3/TXD_*%
%TO.N,/DIN2-1*%
X121801999Y-97184999D03*
%TO.P,U1,38*%
%TO.N,N/C*%
X121801999Y-96684999D03*
%TO.P,U1,39,P0.1/AD1/URTS*%
%TO.N,Net-(U1A-P0.1{slash}AD1{slash}URTS)*%
X121801999Y-96184999D03*
%TO.P,U1,40*%
%TO.N,N/C*%
X121801999Y-95684999D03*
%TO.P,U1,41,VIN5*%
%TO.N,+5V*%
X121801999Y-95184999D03*
%TO.P,U1,42,VDD33*%
%TO.N,+3.3V*%
X121801999Y-94684999D03*
%TO.P,U1,43*%
%TO.N,N/C*%
X121801999Y-94184999D03*
%TO.P,U1,44*%
X121801999Y-93684999D03*
%TO.P,U1,45*%
X121801999Y-93184999D03*
%TO.P,U1,46*%
X121801999Y-92684999D03*
%TO.P,U1,47*%
X121801999Y-92184999D03*
%TO.P,U1,48*%
X121801999Y-91684999D03*
%TD*%
D17*
%TO.P,RN2,1,R1.1*%
%TO.N,/DIN2-8*%
X122629999Y-112053999D03*
%TO.P,RN2,2,R2.1*%
%TO.N,/DIN2-2*%
X122629999Y-110713999D03*
%TO.P,RN2,3,R3.1*%
%TO.N,/DIN2-6*%
X122629999Y-109393999D03*
%TO.P,RN2,4,R4.1*%
%TO.N,/DIN2-1*%
X122629999Y-108053999D03*
%TO.P,RN2,5,R4.2*%
%TO.N,+5V*%
X119629999Y-108053999D03*
%TO.P,RN2,6,R3.2*%
X119629999Y-109393999D03*
%TO.P,RN2,7,R2.2*%
X119629999Y-110713999D03*
%TO.P,RN2,8,R1.2*%
X119629999Y-112053999D03*
%TD*%
D22*
%TO.P,U2,1,C1+*%
%TO.N,Net-(U2-C1+)*%
X116275000Y-73788800D03*
%TO.P,U2,2,VS+*%
%TO.N,Net-(U2-VS+)*%
X116275000Y-75058800D03*
%TO.P,U2,3,C1-*%
%TO.N,Net-(U2-C1-)*%
X116275000Y-76328800D03*
%TO.P,U2,4,C2+*%
%TO.N,Net-(U2-C2+)*%
X116275000Y-77598800D03*
%TO.P,U2,5,C2-*%
%TO.N,Net-(U2-C2-)*%
X116275000Y-78868800D03*
%TO.P,U2,6,VS-*%
%TO.N,Net-(U2-VS-)*%
X116275000Y-80138800D03*
%TO.P,U2,7,T2OUT*%
%TO.N,Net-(U2-T2OUT)*%
X116275000Y-81408800D03*
%TO.P,U2,8,R2IN*%
%TO.N,Net-(U2-R2IN)*%
X116275000Y-82678800D03*
%TO.P,U2,9,R2OUT*%
%TO.N,Net-(U1A-P0.4{slash}AD4{slash}UCTS)*%
X121225000Y-82678800D03*
%TO.P,U2,10,T2IN*%
%TO.N,Net-(U1A-P0.1{slash}AD1{slash}URTS)*%
X121225000Y-81408800D03*
%TO.P,U2,11,T1IN*%
%TO.N,Net-(U1A-P4.4{slash}LED3{slash}TNOW_{slash}TXD1_{slash}A4)*%
X121225000Y-80138800D03*
%TO.P,U2,12,R1OUT*%
%TO.N,Net-(U1A-P4.0{slash}LED2{slash}A0{slash}RXD1_)*%
X121225000Y-78868800D03*
%TO.P,U2,13,R1IN*%
%TO.N,Net-(U2-R1IN)*%
X121225000Y-77598800D03*
%TO.P,U2,14,T1OUT*%
%TO.N,Net-(U2-T1OUT)*%
X121225000Y-76328800D03*
%TO.P,U2,15,GND*%
%TO.N,GND*%
X121225000Y-75058800D03*
%TO.P,U2,16,VCC*%
%TO.N,+5V*%
X121225000Y-73788800D03*
%TD*%
D23*
%TO.P,C6,1*%
%TO.N,Net-(U2-C1-)*%
X113250000Y-74599000D03*
%TO.P,C6,2*%
%TO.N,Net-(U2-C1+)*%
X113250000Y-73049000D03*
%TD*%
D24*
%TO.P,S1,1,1*%
%TO.N,GND*%
X102128000Y-90250000D03*
%TO.P,S1,2,2*%
%TO.N,Net-(U1A-P4.6{slash}XI{slash}SCS_)*%
X102128000Y-94750000D03*
D25*
%TO.P,S1,M,M*%
%TO.N,GND*%
X104628000Y-89000000D03*
X104628000Y-96000000D03*
%TD*%
D26*
%TO.P,J5,1,Pin_1*%
%TO.N,GND*%
X114709999Y-85499999D03*
D27*
%TO.P,J5,2,Pin_2*%
%TO.N,Net-(J5-Pin_2)*%
X117249999Y-85499999D03*
%TO.P,J5,3,Pin_3*%
%TO.N,Net-(J5-Pin_3)*%
X119789999Y-85499999D03*
%TD*%
D11*
%TO.P,C10,1*%
%TO.N,GND*%
X115275000Y-71715800D03*
%TO.P,C10,2*%
%TO.N,Net-(U2-VS+)*%
X116825000Y-71715800D03*
%TD*%
D10*
%TO.P,C9,1*%
%TO.N,Net-(U2-VS-)*%
X113256000Y-80161000D03*
%TO.P,C9,2*%
%TO.N,GND*%
X113256000Y-81711000D03*
%TD*%
D11*
%TO.P,C2,1*%
%TO.N,GND*%
X118097000Y-114046000D03*
%TO.P,C2,2*%
%TO.N,+5V*%
X119647000Y-114046000D03*
%TD*%
D28*
%TO.P,J4,0,PAD*%
%TO.N,GND*%
X127489669Y-98190000D03*
X127489669Y-73190000D03*
D29*
%TO.P,J4,1,1*%
%TO.N,unconnected-(J4-Pad1)*%
X126069668Y-80149999D03*
D30*
%TO.P,J4,2,2*%
%TO.N,Net-(U2-T1OUT)*%
X126069669Y-82920000D03*
%TO.P,J4,3,3*%
%TO.N,Net-(U2-R1IN)*%
X126069669Y-85690000D03*
%TO.P,J4,4,4*%
%TO.N,unconnected-(J4-Pad4)*%
X126069669Y-88460000D03*
%TO.P,J4,5,5*%
%TO.N,GND*%
X126069669Y-91230000D03*
%TO.P,J4,6,6*%
%TO.N,unconnected-(J4-Pad6)*%
X128909669Y-81535000D03*
%TO.P,J4,7,7*%
%TO.N,Net-(U2-R2IN)*%
X128909669Y-84305000D03*
%TO.P,J4,8,8*%
%TO.N,Net-(U2-T2OUT)*%
X128909669Y-87075000D03*
%TO.P,J4,9,9*%
%TO.N,unconnected-(J4-Pad9)*%
X128909669Y-89845000D03*
%TD*%
D23*
%TO.P,C3,1*%
%TO.N,GND*%
X122400000Y-99975000D03*
%TO.P,C3,2*%
%TO.N,+5V*%
X122400000Y-98425000D03*
%TD*%
%TO.P,C8,1*%
%TO.N,Net-(U2-C2-)*%
X113250000Y-78155000D03*
%TO.P,C8,2*%
%TO.N,Net-(U2-C2+)*%
X113250000Y-76605000D03*
%TD*%
D12*
%TO.P,J1,1,1*%
%TO.N,/DIN1-1*%
X105500000Y-79500000D03*
%TO.P,J1,2,2*%
%TO.N,/DIN1-2*%
X105500000Y-76900000D03*
%TO.P,J1,3,3*%
%TO.N,GND*%
X105500000Y-81600000D03*
%TO.P,J1,4,4*%
%TO.N,unconnected-(J1-Pad4)*%
X108000000Y-79500000D03*
%TO.P,J1,5,5*%
%TO.N,Net-(F1-Pad2)*%
X105500000Y-74800000D03*
%TO.P,J1,6,6*%
%TO.N,/DIN1-6*%
X108000000Y-81600000D03*
%TO.P,J1,7,7*%
%TO.N,unconnected-(J1-Pad7)*%
X108000000Y-77300000D03*
%TO.P,J1,8,8*%
%TO.N,/DIN1-8*%
X108000000Y-74800000D03*
D13*
%TO.P,J1,S,S*%
%TO.N,GND*%
X102499999Y-84949999D03*
D14*
X101700000Y-78200000D03*
D13*
X102499999Y-71449999D03*
%TD*%
D31*
%TO.P,F1,1*%
%TO.N,+5V*%
X121920000Y-115186000D03*
%TO.P,F1,2*%
%TO.N,Net-(F1-Pad2)*%
X121920000Y-117986000D03*
%TD*%
D32*
%TO.N,GND*%
X116750000Y-96500000D03*
X119200000Y-75100000D03*
X136250000Y-68250000D03*
X117000000Y-68250000D03*
X136250000Y-121750000D03*
X123000000Y-80000000D03*
X109132031Y-91841992D03*
X122848345Y-101267487D03*
X118110000Y-115316000D03*
X109145173Y-94128651D03*
X111750000Y-81750000D03*
X97750000Y-121750000D03*
X117000000Y-121750000D03*
X115000000Y-94500000D03*
X97750000Y-68250000D03*
X113764000Y-71715800D03*
X99060000Y-117348000D03*
X117573100Y-102000000D03*
X122800000Y-87000000D03*
%TO.N,+5V*%
X119634000Y-102616000D03*
X123190000Y-102616000D03*
X119634000Y-103632000D03*
X123190000Y-103632000D03*
%TO.N,+3.3V*%
X120396000Y-94488000D03*
X114935000Y-91694000D03*
X117983000Y-94488000D03*
X99750000Y-91000000D03*
%TO.N,Net-(U2-R2IN)*%
X119453600Y-76948200D03*
X122891973Y-76919900D03*
%TO.N,Net-(U2-T2OUT)*%
X122908000Y-78319800D03*
X119504400Y-78269000D03*
%TO.N,Net-(U1A-P4.6{slash}XI{slash}SCS_)*%
X115250000Y-93500000D03*
%TO.N,Net-(U1A-P4.0{slash}LED2{slash}A0{slash}RXD1_)*%
X116045000Y-88250000D03*
X116840000Y-92710000D03*
%TD*%
D33*
%TO.N,Net-(F1-Pad2)*%
X128500000Y-115200000D02*
X128500000Y-117000000D01*
D34*
X128616000Y-115316000D02*
X134620000Y-115316000D01*
X131826000Y-70104000D02*
X109220000Y-70104000D01*
D33*
X128500000Y-117000000D02*
X127514000Y-117986000D01*
D34*
X134620000Y-115316000D02*
X135890000Y-114046000D01*
X109220000Y-70104000D02*
X105500000Y-73824000D01*
X135890000Y-114046000D02*
X135890000Y-74168000D01*
X135890000Y-74168000D02*
X131826000Y-70104000D01*
D33*
X127514000Y-117986000D02*
X121920000Y-117986000D01*
D34*
X128500000Y-115200000D02*
X128616000Y-115316000D01*
X105500000Y-73824000D02*
X105500000Y-74800000D01*
D35*
%TO.N,GND*%
X118110000Y-115316000D02*
X118110000Y-114059000D01*
X119241200Y-75058800D02*
X119200000Y-75100000D01*
X115275000Y-71715800D02*
X113764000Y-71715800D01*
D36*
X122848345Y-101267487D02*
X122400000Y-100819142D01*
D35*
X100571000Y-117348000D02*
X99060000Y-117348000D01*
D36*
X122400000Y-100819142D02*
X122400000Y-99975000D01*
D35*
X115000000Y-94500000D02*
X114685000Y-94185000D01*
X121225000Y-75058800D02*
X119241200Y-75058800D01*
X132975000Y-104500000D02*
X131500000Y-104500000D01*
X121253000Y-75030800D02*
X121225000Y-75058800D01*
X118110000Y-114059000D02*
X118097000Y-114046000D01*
D36*
X122800000Y-88725000D02*
X122800000Y-87000000D01*
D35*
X114685000Y-94185000D02*
X113402000Y-94185000D01*
X118097000Y-115329000D02*
X118110000Y-115316000D01*
D36*
%TO.N,+5V*%
X121225000Y-72250000D02*
X121225000Y-73788800D01*
D34*
X124333000Y-100076000D02*
X122682000Y-98425000D01*
D37*
X119647000Y-118351000D02*
X119647000Y-115062000D01*
X124333000Y-102265000D02*
X124684000Y-102616000D01*
X103836000Y-105250000D02*
X102362000Y-106724000D01*
D34*
X122300000Y-71700000D02*
X123600000Y-73000000D01*
D37*
X119647000Y-115062000D02*
X119647000Y-112071000D01*
X121920000Y-115186000D02*
X119771000Y-115186000D01*
X103418000Y-105668000D02*
X103836000Y-105250000D01*
D36*
X122400000Y-97945000D02*
X122400000Y-98425000D01*
X110160000Y-90840000D02*
X110160000Y-89500000D01*
X103836000Y-105250000D02*
X103500000Y-104914000D01*
D37*
X123190000Y-102616000D02*
X124684000Y-102616000D01*
X102362000Y-106724000D02*
X102362000Y-117602000D01*
D36*
X122744000Y-95185000D02*
X123190000Y-95631000D01*
D34*
X121775000Y-71700000D02*
X122300000Y-71700000D01*
D37*
X119771000Y-115186000D02*
X119647000Y-115062000D01*
X102362000Y-117602000D02*
X104010000Y-119250000D01*
X119647000Y-112071000D02*
X119630000Y-112054000D01*
D36*
X123190000Y-95631000D02*
X123190000Y-97155000D01*
X103500000Y-104914000D02*
X103500000Y-100500000D01*
D37*
X124333000Y-100076000D02*
X124333000Y-102265000D01*
X119634000Y-102616000D02*
X119634000Y-106172000D01*
D34*
X126400000Y-76600000D02*
X129500000Y-76600000D01*
X123600000Y-73800000D02*
X126400000Y-76600000D01*
X133750000Y-80850000D02*
X133750000Y-93072000D01*
D36*
X103500000Y-100500000D02*
X105000000Y-99000000D01*
D37*
X119630000Y-112054000D02*
X119630000Y-108054000D01*
X119630000Y-106176000D02*
X119630000Y-108054000D01*
D36*
X121802000Y-95185000D02*
X122744000Y-95185000D01*
D37*
X110040000Y-105250000D02*
X112660000Y-105250000D01*
D36*
X105000000Y-99000000D02*
X108750000Y-99000000D01*
X121775000Y-71700000D02*
X121225000Y-72250000D01*
D37*
X118748000Y-119250000D02*
X119647000Y-118351000D01*
D36*
X123190000Y-97155000D02*
X122400000Y-97945000D01*
D37*
X104010000Y-119250000D02*
X118748000Y-119250000D01*
X110040000Y-105250000D02*
X103836000Y-105250000D01*
D36*
X110000000Y-91000000D02*
X110160000Y-90840000D01*
D37*
X131300000Y-95522000D02*
X133750000Y-93072000D01*
X123190000Y-103632000D02*
X123190000Y-102616000D01*
D34*
X122682000Y-98425000D02*
X122400000Y-98425000D01*
D38*
X108000000Y-89500000D02*
X112000000Y-89500000D01*
D37*
X131300000Y-100000000D02*
X131300000Y-95522000D01*
D34*
X123600000Y-73000000D02*
X123600000Y-73800000D01*
D36*
X110000000Y-97750000D02*
X110000000Y-91000000D01*
D37*
X128684000Y-102616000D02*
X131300000Y-100000000D01*
D36*
X108750000Y-99000000D02*
X110000000Y-97750000D01*
D37*
X124684000Y-102616000D02*
X128684000Y-102616000D01*
X119634000Y-106172000D02*
X119630000Y-106176000D01*
D34*
X129500000Y-76600000D02*
X133750000Y-80850000D01*
D35*
%TO.N,/DIN1-1*%
X112378000Y-92185000D02*
X113402000Y-92185000D01*
X103886000Y-82388674D02*
X108000000Y-86502674D01*
X108000000Y-86502674D02*
X108000000Y-87500000D01*
X112014000Y-91821000D02*
X112378000Y-92185000D01*
X112268000Y-91186000D02*
X112014000Y-91440000D01*
X112014000Y-91440000D02*
X112014000Y-91821000D01*
X105562500Y-78800000D02*
X105140000Y-78800000D01*
X113411000Y-90424000D02*
X112649000Y-91186000D01*
X113411000Y-89161000D02*
X113411000Y-90424000D01*
X105500000Y-79500000D02*
X104904000Y-79500000D01*
X103886000Y-80518000D02*
X103886000Y-82388674D01*
X112750000Y-88500000D02*
X113411000Y-89161000D01*
X104904000Y-79500000D02*
X103886000Y-80518000D01*
X112649000Y-91186000D02*
X112268000Y-91186000D01*
X108000000Y-87500000D02*
X109000000Y-88500000D01*
X109000000Y-88500000D02*
X112750000Y-88500000D01*
%TO.N,/DIN1-2*%
X110500000Y-85250000D02*
X110500000Y-86340000D01*
X113126000Y-87376000D02*
X114852000Y-89102000D01*
X111536000Y-87376000D02*
X113126000Y-87376000D01*
X109072535Y-76052535D02*
X110000000Y-76980000D01*
X105500000Y-76900000D02*
X105726000Y-76900000D01*
X110500000Y-86340000D02*
X111536000Y-87376000D01*
X110000000Y-84750000D02*
X110500000Y-85250000D01*
X105726000Y-76900000D02*
X106573465Y-76052535D01*
X106573465Y-76052535D02*
X109072535Y-76052535D01*
X110000000Y-76980000D02*
X110000000Y-84750000D01*
X114852000Y-89102000D02*
X114852000Y-90235000D01*
%TO.N,/DIN1-6*%
X113402000Y-91685000D02*
X113402000Y-91195000D01*
X110250000Y-88000000D02*
X109340000Y-87090000D01*
X113919000Y-88919000D02*
X113000000Y-88000000D01*
X109340000Y-82940000D02*
X108000000Y-81600000D01*
X113402000Y-91195000D02*
X113919000Y-90678000D01*
X109340000Y-87090000D02*
X109340000Y-82940000D01*
X113000000Y-88000000D02*
X110250000Y-88000000D01*
X113919000Y-90678000D02*
X113919000Y-88919000D01*
%TO.N,/DIN1-8*%
X112000000Y-86500000D02*
X113000000Y-86500000D01*
X113000000Y-86500000D02*
X115352000Y-88852000D01*
X115352000Y-88852000D02*
X115352000Y-90235000D01*
X112000000Y-85750000D02*
X112000000Y-86500000D01*
X109090000Y-74800000D02*
X110750000Y-76460000D01*
X108000000Y-74800000D02*
X109090000Y-74800000D01*
X110750000Y-76460000D02*
X110750000Y-84500000D01*
X110750000Y-84500000D02*
X112000000Y-85750000D01*
%TO.N,/DIN2-1*%
X121115000Y-97185000D02*
X121802000Y-97185000D01*
X121100000Y-100300000D02*
X121100000Y-97200000D01*
D39*
X130750000Y-108250000D02*
X129000000Y-106500000D01*
X123946000Y-108054000D02*
X122630000Y-108054000D01*
D35*
X121100000Y-97200000D02*
X121115000Y-97185000D01*
X122174000Y-101346000D02*
X122146000Y-101346000D01*
D39*
X129000000Y-110500000D02*
X130750000Y-108750000D01*
D35*
X122174000Y-107598000D02*
X122174000Y-101346000D01*
D39*
X125500000Y-106500000D02*
X123946000Y-108054000D01*
X129000000Y-106500000D02*
X125500000Y-106500000D01*
X128500000Y-110500000D02*
X129000000Y-110500000D01*
X130750000Y-108750000D02*
X130750000Y-108250000D01*
D35*
X122146000Y-101346000D02*
X121100000Y-100300000D01*
X122630000Y-108054000D02*
X122174000Y-107598000D01*
%TO.N,/DIN2-2*%
X119352000Y-100048000D02*
X119352000Y-98635000D01*
D39*
X125250000Y-114000000D02*
X124000000Y-112750000D01*
X128500000Y-113100000D02*
X127600000Y-114000000D01*
X123214000Y-110714000D02*
X122630000Y-110714000D01*
D35*
X122630000Y-110714000D02*
X121636000Y-110714000D01*
D39*
X124000000Y-112750000D02*
X124000000Y-111500000D01*
D35*
X121158000Y-110236000D02*
X121158000Y-101854000D01*
X121636000Y-110714000D02*
X121158000Y-110236000D01*
X121158000Y-101854000D02*
X119352000Y-100048000D01*
D39*
X124000000Y-111500000D02*
X123214000Y-110714000D01*
X127600000Y-114000000D02*
X125250000Y-114000000D01*
%TO.N,/DIN2-6*%
X124106000Y-109394000D02*
X122630000Y-109394000D01*
X126000000Y-108400000D02*
X125100000Y-108400000D01*
D35*
X121666000Y-108966000D02*
X121666000Y-101600000D01*
X122630000Y-109394000D02*
X122094000Y-109394000D01*
X119852000Y-99786000D02*
X119852000Y-98635000D01*
X122094000Y-109394000D02*
X121666000Y-108966000D01*
X121666000Y-101600000D02*
X119852000Y-99786000D01*
D39*
X125100000Y-108400000D02*
X124106000Y-109394000D01*
D35*
%TO.N,/DIN2-8*%
X120650000Y-102108000D02*
X118852000Y-100310000D01*
X121198000Y-112054000D02*
X120650000Y-111506000D01*
X120650000Y-111506000D02*
X120650000Y-102108000D01*
X118852000Y-100310000D02*
X118852000Y-98635000D01*
D39*
X125500000Y-115250000D02*
X122630000Y-112380000D01*
X125950000Y-115250000D02*
X125500000Y-115250000D01*
X126000000Y-115200000D02*
X125950000Y-115250000D01*
D35*
X122630000Y-112054000D02*
X121198000Y-112054000D01*
D39*
X122630000Y-112380000D02*
X122630000Y-112054000D01*
D35*
%TO.N,Net-(U2-C1+)*%
X114005000Y-73049000D02*
X113250000Y-73049000D01*
X114744800Y-73788800D02*
X114005000Y-73049000D01*
X116275000Y-73788800D02*
X114744800Y-73788800D01*
%TO.N,Net-(U2-C1-)*%
X114979800Y-76328800D02*
X113250000Y-74599000D01*
X116275000Y-76328800D02*
X114979800Y-76328800D01*
%TO.N,Net-(U2-C2+)*%
X113250000Y-76605000D02*
X114005000Y-76605000D01*
X114998800Y-77598800D02*
X116275000Y-77598800D01*
X114005000Y-76605000D02*
X114998800Y-77598800D01*
%TO.N,Net-(U2-C2-)*%
X116275000Y-78868800D02*
X115252800Y-78868800D01*
X113263000Y-78142000D02*
X113250000Y-78155000D01*
X115252800Y-78868800D02*
X114526000Y-78142000D01*
X114526000Y-78142000D02*
X113263000Y-78142000D01*
%TO.N,Net-(U2-VS-)*%
X116275000Y-80138800D02*
X114320000Y-80138800D01*
X114297800Y-80161000D02*
X114320000Y-80138800D01*
X113256000Y-80161000D02*
X114297800Y-80161000D01*
%TO.N,Net-(U2-VS+)*%
X118250000Y-74233800D02*
X118250000Y-72899800D01*
X116275000Y-75058800D02*
X117425000Y-75058800D01*
X117066000Y-71715800D02*
X116825000Y-71715800D01*
X117425000Y-75058800D02*
X118250000Y-74233800D01*
X118250000Y-72899800D02*
X117066000Y-71715800D01*
D36*
%TO.N,Net-(D1-B)*%
X107590000Y-93840000D02*
X105800000Y-92050000D01*
X105800000Y-92050000D02*
X98825000Y-92050000D01*
X108000000Y-93840000D02*
X107590000Y-93840000D01*
X108000000Y-92500000D02*
X108000000Y-93840000D01*
%TO.N,Net-(D1-G)*%
X107910000Y-95160000D02*
X105250000Y-92500000D01*
X108000000Y-95160000D02*
X107910000Y-95160000D01*
X105250000Y-92500000D02*
X100250000Y-92500000D01*
X99800000Y-92950000D02*
X98825000Y-92950000D01*
X100250000Y-92500000D02*
X99800000Y-92950000D01*
%TO.N,Net-(D1-R)*%
X98650000Y-93750000D02*
X98500000Y-93900000D01*
X107000000Y-96250000D02*
X107000000Y-95250000D01*
X107250000Y-96500000D02*
X107000000Y-96250000D01*
X108000000Y-96500000D02*
X107250000Y-96500000D01*
X101000000Y-93000000D02*
X100250000Y-93750000D01*
X100250000Y-93750000D02*
X98650000Y-93750000D01*
X104750000Y-93000000D02*
X101000000Y-93000000D01*
X107000000Y-95250000D02*
X104750000Y-93000000D01*
%TO.N,Net-(U1A-P5.4{slash}HM{slash}ALE{slash}XB)*%
X116812000Y-100866000D02*
X117352000Y-100326000D01*
X112660000Y-107750000D02*
X115250000Y-107750000D01*
X115250000Y-107750000D02*
X116812000Y-106188000D01*
X116812000Y-106188000D02*
X116812000Y-100866000D01*
X117352000Y-100326000D02*
X117352000Y-98635000D01*
%TO.N,Net-(U1A-P5.0{slash}DM)*%
X103350000Y-117166000D02*
X103350000Y-110150000D01*
D35*
X118352000Y-100493368D02*
X118352000Y-98635000D01*
D36*
X116840000Y-116884000D02*
X115288000Y-118436000D01*
X116840000Y-110160000D02*
X116840000Y-116884000D01*
X103350000Y-110150000D02*
X105750000Y-107750000D01*
X104620000Y-118436000D02*
X103350000Y-117166000D01*
X115288000Y-118436000D02*
X104620000Y-118436000D01*
D35*
X118352000Y-108648000D02*
X118750000Y-108250000D01*
D36*
X105750000Y-107750000D02*
X110040000Y-107750000D01*
D35*
X118750000Y-100891368D02*
X118352000Y-100493368D01*
X118750000Y-108250000D02*
X118750000Y-100891368D01*
D36*
X118352000Y-108648000D02*
X116840000Y-110160000D01*
%TO.N,Net-(U1A-P5.5{slash}HP{slash}!A15{slash}XA)*%
X112660000Y-109750000D02*
X112250000Y-109750000D01*
X116852000Y-100064000D02*
X116852000Y-98635000D01*
X116250000Y-100666000D02*
X116852000Y-100064000D01*
X116250000Y-105750000D02*
X116250000Y-100666000D01*
X115500000Y-106500000D02*
X116250000Y-105750000D01*
X112250000Y-109750000D02*
X111250000Y-108750000D01*
X111250000Y-108750000D02*
X111250000Y-107000000D01*
X111250000Y-107000000D02*
X111750000Y-106500000D01*
X111750000Y-106500000D02*
X115500000Y-106500000D01*
%TO.N,Net-(U1A-P5.1{slash}DP)*%
X103858000Y-116658000D02*
X105128000Y-117928000D01*
X116332000Y-109918000D02*
X118250000Y-108000000D01*
X118250000Y-101250000D02*
X117852000Y-100852000D01*
X110040000Y-109750000D02*
X106250000Y-109750000D01*
X106250000Y-109750000D02*
X103858000Y-112142000D01*
X116332000Y-116630000D02*
X116332000Y-109918000D01*
X115034000Y-117928000D02*
X116332000Y-116630000D01*
X103858000Y-112142000D02*
X103858000Y-116658000D01*
X117852000Y-100852000D02*
X117852000Y-98635000D01*
X105128000Y-117928000D02*
X115034000Y-117928000D01*
X118250000Y-108000000D02*
X118250000Y-101250000D01*
D35*
%TO.N,+3.3V*%
X123190000Y-90665000D02*
X122800000Y-90275000D01*
X121802000Y-94685000D02*
X120593000Y-94685000D01*
X123190000Y-94234000D02*
X123190000Y-90665000D01*
D36*
X98500000Y-91100000D02*
X99650000Y-91100000D01*
D35*
X117983000Y-91948000D02*
X117983000Y-94488000D01*
X122739000Y-94685000D02*
X123190000Y-94234000D01*
D36*
X99650000Y-91100000D02*
X99750000Y-91000000D01*
D35*
X117729000Y-91694000D02*
X117983000Y-91948000D01*
X121802000Y-94685000D02*
X122739000Y-94685000D01*
X120593000Y-94685000D02*
X120396000Y-94488000D01*
X114935000Y-91694000D02*
X117729000Y-91694000D01*
%TO.N,Net-(U2-T1OUT)*%
X130200000Y-79500000D02*
X130200000Y-85200000D01*
X122045200Y-76328800D02*
X122428000Y-75946000D01*
X124146000Y-75946000D02*
X126200000Y-78000000D01*
X121225000Y-76328800D02*
X122045200Y-76328800D01*
X126600000Y-83550331D02*
X125969669Y-82920000D01*
X122428000Y-75946000D02*
X124146000Y-75946000D01*
X128700000Y-78000000D02*
X130200000Y-79500000D01*
X129800000Y-85600000D02*
X127900000Y-85600000D01*
X126600000Y-84300000D02*
X126600000Y-83550331D01*
X126200000Y-78000000D02*
X128700000Y-78000000D01*
X130200000Y-85200000D02*
X129800000Y-85600000D01*
X127900000Y-85600000D02*
X126600000Y-84300000D01*
%TO.N,Net-(U2-R1IN)*%
X124600000Y-78600000D02*
X124600000Y-85300000D01*
X124600000Y-85300000D02*
X124990000Y-85690000D01*
X123634800Y-77634800D02*
X124600000Y-78600000D01*
X124990000Y-85690000D02*
X125969669Y-85690000D01*
X121225000Y-77598800D02*
X123634800Y-77598800D01*
X123634800Y-77598800D02*
X123634800Y-77634800D01*
%TO.N,Net-(U2-R2IN)*%
X127500000Y-79300000D02*
X126800000Y-78600000D01*
X117406000Y-82678800D02*
X118082000Y-82002800D01*
X116275000Y-82678800D02*
X117406000Y-82678800D01*
X126800000Y-78600000D02*
X125600000Y-78600000D01*
X123919900Y-76919900D02*
X122891973Y-76919900D01*
X125600000Y-78600000D02*
X123919900Y-76919900D01*
X118082000Y-78319800D02*
X119453600Y-76948200D01*
X127500000Y-82995331D02*
X127500000Y-79300000D01*
X128809669Y-84305000D02*
X127500000Y-82995331D01*
X118082000Y-82002800D02*
X118082000Y-78319800D01*
%TO.N,Net-(U2-T2OUT)*%
X124375000Y-87075000D02*
X128809669Y-87075000D01*
X122908000Y-78319800D02*
X123593800Y-78319800D01*
X114424400Y-82924400D02*
X115000000Y-83500000D01*
X123929400Y-78655400D02*
X123929400Y-86629400D01*
X116275000Y-81408800D02*
X114891400Y-81408800D01*
X114424400Y-81875800D02*
X114424400Y-82924400D01*
X114891400Y-81408800D02*
X114424400Y-81875800D01*
X118590000Y-79183400D02*
X119504400Y-78269000D01*
X123593800Y-78319800D02*
X123929400Y-78655400D01*
X123929400Y-86629400D02*
X124375000Y-87075000D01*
X118590000Y-82383800D02*
X118590000Y-79183400D01*
X117473800Y-83500000D02*
X118590000Y-82383800D01*
X115000000Y-83500000D02*
X117473800Y-83500000D01*
D36*
%TO.N,Net-(RN3-R1.2)*%
X113402000Y-92685000D02*
X110755000Y-92685000D01*
X110755000Y-92685000D02*
X110750000Y-92680000D01*
X111000000Y-92500000D02*
X111000000Y-93840000D01*
D35*
%TO.N,Net-(RN3-R3.2)*%
X112522000Y-98044000D02*
X112109821Y-97631821D01*
X112109821Y-95609821D02*
X111660000Y-95160000D01*
X115250000Y-97500000D02*
X114500000Y-97500000D01*
X113956000Y-98044000D02*
X112522000Y-98044000D01*
X115352000Y-98635000D02*
X115352000Y-97602000D01*
X115352000Y-97602000D02*
X115250000Y-97500000D01*
X111660000Y-95160000D02*
X111000000Y-95160000D01*
X112109821Y-97631821D02*
X112109821Y-95609821D01*
X114500000Y-97500000D02*
X113956000Y-98044000D01*
D36*
%TO.N,Net-(RN3-R4.2)*%
X111000000Y-96500000D02*
X111000000Y-97500000D01*
D35*
X114852000Y-98635000D02*
X112135000Y-98635000D01*
D36*
X111000000Y-97500000D02*
X112135000Y-98635000D01*
%TO.N,Net-(U1A-P4.6{slash}XI{slash}SCS_)*%
X114935000Y-93185000D02*
X113402000Y-93185000D01*
X115250000Y-93500000D02*
X114935000Y-93185000D01*
D35*
%TO.N,Net-(U1A-P4.4{slash}LED3{slash}TNOW_{slash}TXD1_{slash}A4)*%
X118500000Y-84100000D02*
X119606000Y-82994000D01*
X117852000Y-90235000D02*
X117852000Y-88362868D01*
X117852000Y-88362868D02*
X118500000Y-87714868D01*
X119606000Y-82994000D02*
X119606000Y-80859800D01*
X119606000Y-80859800D02*
X120327000Y-80138800D01*
X118500000Y-87714868D02*
X118500000Y-84100000D01*
X120327000Y-80138800D02*
X121225000Y-80138800D01*
%TO.N,Net-(U1A-P4.0{slash}LED2{slash}A0{slash}RXD1_)*%
X116045000Y-88250000D02*
X116000000Y-88205000D01*
X119098000Y-80097800D02*
X120327000Y-78868800D01*
X116750000Y-84000000D02*
X118000000Y-84000000D01*
X116000000Y-84750000D02*
X116750000Y-84000000D01*
X115815000Y-95185000D02*
X113402000Y-95185000D01*
X116000000Y-88205000D02*
X116000000Y-84750000D01*
X116840000Y-94160000D02*
X115815000Y-95185000D01*
X116840000Y-92710000D02*
X116840000Y-94160000D01*
X118000000Y-84000000D02*
X119098000Y-82902000D01*
X120327000Y-78868800D02*
X121225000Y-78868800D01*
X119098000Y-82902000D02*
X119098000Y-80097800D01*
%TO.N,Net-(U1A-P0.4{slash}AD4{slash}UCTS)*%
X118872000Y-92710000D02*
X118872000Y-95758000D01*
D40*
X119888000Y-91694000D02*
X119978421Y-91694000D01*
X121158000Y-90514421D02*
X121158000Y-90170000D01*
D35*
X121158000Y-90170000D02*
X121158000Y-82745800D01*
X119888000Y-91694000D02*
X118872000Y-92710000D01*
X118872000Y-95758000D02*
X120352000Y-97238000D01*
X120352000Y-97238000D02*
X120352000Y-98635000D01*
X121158000Y-82745800D02*
X121225000Y-82678800D01*
D40*
X119978421Y-91694000D02*
X121158000Y-90514421D01*
D35*
%TO.N,Net-(U1A-P0.1{slash}AD1{slash}URTS)*%
X122908000Y-81875800D02*
X122908000Y-83120900D01*
X120315000Y-96185000D02*
X121802000Y-96185000D01*
X120396000Y-91948000D02*
X119380000Y-92964000D01*
X119380000Y-92964000D02*
X119380000Y-95250000D01*
D40*
X120396000Y-91871052D02*
X121666000Y-90601052D01*
D35*
X119380000Y-95250000D02*
X120315000Y-96185000D01*
X121666000Y-84362900D02*
X121666000Y-90170000D01*
X122441000Y-81408800D02*
X122908000Y-81875800D01*
X122908000Y-83120900D02*
X121666000Y-84362900D01*
D40*
X121666000Y-90601052D02*
X121666000Y-90170000D01*
X120396000Y-91948000D02*
X120396000Y-91871052D01*
D35*
X121225000Y-81408800D02*
X122441000Y-81408800D01*
D36*
%TO.N,Net-(J5-Pin_2)*%
X117352000Y-85852000D02*
X117250000Y-85750000D01*
X117352000Y-90235000D02*
X117352000Y-85852000D01*
%TO.N,Net-(J5-Pin_3)*%
X118852000Y-88898000D02*
X119790000Y-87960000D01*
X118852000Y-90235000D02*
X118852000Y-88898000D01*
X119790000Y-87960000D02*
X119790000Y-85750000D01*
%TD*%
%TA.AperFunction,Conductor*%
%TO.N,GND*%
G36*
X118822760Y-108938917D02*
G01*
X118860967Y-108983651D01*
X118874700Y-109040854D01*
X118874700Y-109885941D01*
X118874700Y-109885958D01*
X118874701Y-109889578D01*
X118875120Y-109893190D01*
X118877662Y-109915109D01*
X118877429Y-109915135D01*
X118880200Y-109935870D01*
X118880200Y-110172129D01*
X118877429Y-110192864D01*
X118877662Y-110192891D01*
X118875120Y-110214794D01*
X118875119Y-110214807D01*
X118874700Y-110218421D01*
X118874700Y-110222059D01*
X118874700Y-110222067D01*
X118874700Y-111205941D01*
X118874700Y-111205958D01*
X118874701Y-111209578D01*
X118875120Y-111213190D01*
X118877662Y-111235109D01*
X118877429Y-111235135D01*
X118880200Y-111255870D01*
X118880200Y-111512129D01*
X118877429Y-111532864D01*
X118877662Y-111532891D01*
X118875120Y-111554794D01*
X118875119Y-111554807D01*
X118874700Y-111558421D01*
X118874700Y-111562066D01*
X118874700Y-111562067D01*
X118874700Y-112545941D01*
X118874700Y-112545958D01*
X118874701Y-112549578D01*
X118875120Y-112553190D01*
X118876569Y-112565690D01*
X118876570Y-112565693D01*
X118877662Y-112575109D01*
X118881491Y-112583780D01*
X118881492Y-112583783D01*
X118886464Y-112595044D01*
X118897200Y-112645937D01*
X118897200Y-113063808D01*
X118879858Y-113127600D01*
X118832606Y-113173832D01*
X118768452Y-113189778D01*
X118705053Y-113171049D01*
X118640132Y-113131005D01*
X118626920Y-113124845D01*
X118477762Y-113075418D01*
X118464398Y-113072557D01*
X118374028Y-113063325D01*
X118367639Y-113063000D01*
X118367590Y-113063000D01*
X118354506Y-113066506D01*
X118351000Y-113079590D01*
X118351000Y-115012410D01*
X118354506Y-115025493D01*
X118367590Y-115029000D01*
X118367639Y-115029000D01*
X118374028Y-115028674D01*
X118464398Y-115019442D01*
X118477762Y-115016581D01*
X118626920Y-114967154D01*
X118640134Y-114960993D01*
X118701343Y-114923239D01*
X118765657Y-114904492D01*
X118830488Y-114921358D01*
X118877513Y-114969069D01*
X118893339Y-115033734D01*
X118892415Y-115040044D01*
X118893053Y-115047341D01*
X118893053Y-115047357D01*
X118896720Y-115089260D01*
X118897200Y-115100242D01*
X118897200Y-117988231D01*
X118887609Y-118036449D01*
X118860296Y-118077326D01*
X118474328Y-118463295D01*
X118433450Y-118490609D01*
X118385232Y-118500200D01*
X116136526Y-118500200D01*
X116079323Y-118486467D01*
X116034590Y-118448261D01*
X116012077Y-118393911D01*
X116016693Y-118335264D01*
X116047428Y-118285107D01*
X117122190Y-117210344D01*
X117132698Y-117200954D01*
X117158995Y-117179984D01*
X117189692Y-117134958D01*
X117192381Y-117131169D01*
X117224732Y-117087337D01*
X117227442Y-117079590D01*
X117232066Y-117072809D01*
X117248119Y-117020760D01*
X117249591Y-117016289D01*
X117267573Y-116964902D01*
X117267879Y-116956703D01*
X117270300Y-116948857D01*
X117270300Y-116894395D01*
X117270388Y-116889683D01*
X117270960Y-116874402D01*
X117272424Y-116835278D01*
X117270685Y-116828790D01*
X117270300Y-116821919D01*
X117270300Y-115011847D01*
X117287642Y-114948055D01*
X117334893Y-114901823D01*
X117399048Y-114885877D01*
X117462447Y-114904606D01*
X117553867Y-114960994D01*
X117567079Y-114967154D01*
X117716237Y-115016581D01*
X117729601Y-115019442D01*
X117819971Y-115028674D01*
X117826361Y-115029000D01*
X117826410Y-115029000D01*
X117839493Y-115025493D01*
X117843000Y-115012410D01*
X117843000Y-113079590D01*
X117839493Y-113066506D01*
X117826410Y-113063000D01*
X117826361Y-113063000D01*
X117819971Y-113063325D01*
X117729601Y-113072557D01*
X117716237Y-113075418D01*
X117567079Y-113124845D01*
X117553867Y-113131005D01*
X117462447Y-113187394D01*
X117399048Y-113206123D01*
X117334893Y-113190177D01*
X117287642Y-113143945D01*
X117270300Y-113080153D01*
X117270300Y-110390426D01*
X117279891Y-110342208D01*
X117307202Y-110301333D01*
X118600819Y-109007715D01*
X118607617Y-109001865D01*
X118611608Y-108999757D01*
X118659609Y-108951755D01*
X118709763Y-108921021D01*
X118768410Y-108916405D01*
X118822760Y-108938917D01*
G37*
%TD.AperFunction*%
%TA.AperFunction,Conductor*%
G36*
X117437714Y-101024569D02*
G01*
X117481822Y-101075057D01*
X117492454Y-101097134D01*
X117498034Y-101103148D01*
X117501871Y-101110407D01*
X117508549Y-101117085D01*
X117508550Y-101117086D01*
X117540370Y-101148906D01*
X117543616Y-101152274D01*
X117580682Y-101192222D01*
X117586499Y-101195580D01*
X117591631Y-101200167D01*
X117782795Y-101391331D01*
X117810109Y-101432208D01*
X117819700Y-101480426D01*
X117819700Y-107769574D01*
X117810109Y-107817792D01*
X117782797Y-107858666D01*
X116480593Y-109160870D01*
X116049824Y-109591639D01*
X116039292Y-109601051D01*
X116020384Y-109616129D01*
X116020376Y-109616137D01*
X116013005Y-109622016D01*
X116007691Y-109629808D01*
X116007685Y-109629816D01*
X115982312Y-109667030D01*
X115979589Y-109670867D01*
X115952873Y-109707066D01*
X115952867Y-109707077D01*
X115947268Y-109714664D01*
X115944557Y-109722408D01*
X115939934Y-109729191D01*
X115937154Y-109738201D01*
X115937151Y-109738209D01*
X115923879Y-109781235D01*
X115922408Y-109785705D01*
X115907545Y-109828183D01*
X115907543Y-109828191D01*
X115904427Y-109837098D01*
X115904120Y-109845296D01*
X115901700Y-109853143D01*
X115901700Y-109862581D01*
X115901700Y-109907605D01*
X115901612Y-109912317D01*
X115899945Y-109956875D01*
X115899576Y-109966722D01*
X115901314Y-109973209D01*
X115901700Y-109980081D01*
X115901700Y-114038124D01*
X115885376Y-114100149D01*
X115840634Y-114146103D01*
X115779067Y-114164079D01*
X115716628Y-114149419D01*
X115669495Y-114105921D01*
X115665016Y-114098906D01*
X115490678Y-113862291D01*
X115485262Y-113855886D01*
X115280946Y-113644625D01*
X115274723Y-113638996D01*
X115044071Y-113456851D01*
X115037144Y-113452097D01*
X114958069Y-113405261D01*
X114915785Y-113364190D01*
X114896809Y-113308381D01*
X114905294Y-113250048D01*
X114939384Y-113201959D01*
X114944947Y-113197098D01*
X115093610Y-113041609D01*
X115100636Y-113032799D01*
X115219146Y-112853262D01*
X115224493Y-112843326D01*
X115309038Y-112645523D01*
X115312524Y-112634796D01*
X115339219Y-112517840D01*
X115339219Y-112506520D01*
X115328180Y-112504000D01*
X111392945Y-112504000D01*
X111387205Y-112505677D01*
X111323836Y-112507573D01*
X111308182Y-112504000D01*
X107372945Y-112504000D01*
X107359435Y-112507946D01*
X107357337Y-112521866D01*
X107357824Y-112525460D01*
X107360331Y-112536443D01*
X107426810Y-112741045D01*
X107431237Y-112751403D01*
X107533181Y-112940847D01*
X107539389Y-112950251D01*
X107558860Y-112974667D01*
X107583693Y-113027489D01*
X107582726Y-113062000D01*
X107584000Y-113062000D01*
X107584000Y-115049410D01*
X107587506Y-115062493D01*
X107600590Y-115066000D01*
X113138000Y-115066000D01*
X113201000Y-115082881D01*
X113247119Y-115129000D01*
X113264000Y-115192000D01*
X113264000Y-115448000D01*
X113247119Y-115511000D01*
X113201000Y-115557119D01*
X113138000Y-115574000D01*
X107202000Y-115574000D01*
X107139000Y-115557119D01*
X107092881Y-115511000D01*
X107076000Y-115448000D01*
X107076000Y-113078590D01*
X107072493Y-113065506D01*
X107059410Y-113062000D01*
X106506609Y-113062000D01*
X106502402Y-113062140D01*
X106282562Y-113076856D01*
X106274236Y-113077976D01*
X105986244Y-113136514D01*
X105978128Y-113138737D01*
X105700519Y-113235133D01*
X105692756Y-113238426D01*
X105430476Y-113370961D01*
X105423234Y-113375250D01*
X105180942Y-113541575D01*
X105174351Y-113546780D01*
X104956388Y-113743915D01*
X104950541Y-113749960D01*
X104760802Y-113974384D01*
X104755817Y-113981150D01*
X104597680Y-114228869D01*
X104593647Y-114236228D01*
X104528594Y-114376416D01*
X104484913Y-114427732D01*
X104421035Y-114449198D01*
X104355229Y-114434673D01*
X104306321Y-114388313D01*
X104288300Y-114323378D01*
X104288300Y-112372426D01*
X104297891Y-112324208D01*
X104325205Y-112283331D01*
X106391331Y-110217205D01*
X106432208Y-110189891D01*
X106480426Y-110180300D01*
X107547887Y-110180300D01*
X107612664Y-110198226D01*
X107659009Y-110246904D01*
X107669961Y-110267394D01*
X107708305Y-110339130D01*
X107712230Y-110343913D01*
X107712231Y-110343914D01*
X107750402Y-110390426D01*
X107840180Y-110499820D01*
X108000870Y-110631695D01*
X108184200Y-110729687D01*
X108332801Y-110774765D01*
X108387487Y-110808468D01*
X108418452Y-110864755D01*
X108417642Y-110928993D01*
X108385266Y-110984482D01*
X108329742Y-111016796D01*
X108151641Y-111065950D01*
X108141080Y-111069913D01*
X107947267Y-111163248D01*
X107937583Y-111169034D01*
X107763543Y-111295481D01*
X107755057Y-111302895D01*
X107606389Y-111458390D01*
X107599363Y-111467200D01*
X107480853Y-111646737D01*
X107475506Y-111656673D01*
X107390961Y-111854476D01*
X107387475Y-111865203D01*
X107360781Y-111982160D01*
X107360781Y-111993480D01*
X107371820Y-111996000D01*
X111307051Y-111996000D01*
X111312787Y-111994324D01*
X111376167Y-111992427D01*
X111391820Y-111996000D01*
X115327055Y-111996000D01*
X115340564Y-111992053D01*
X115342662Y-111978133D01*
X115342175Y-111974539D01*
X115339668Y-111963556D01*
X115273189Y-111758954D01*
X115268762Y-111748596D01*
X115166818Y-111559152D01*
X115160611Y-111549749D01*
X115026476Y-111381550D01*
X115018689Y-111373406D01*
X114856687Y-111231868D01*
X114847563Y-111225239D01*
X114662884Y-111114899D01*
X114652739Y-111110013D01*
X114451322Y-111034420D01*
X114440460Y-111031423D01*
X114378453Y-111020170D01*
X114318532Y-110991499D01*
X114281518Y-110936339D01*
X114277701Y-110870021D01*
X114308140Y-110810978D01*
X114364374Y-110775622D01*
X114515800Y-110729687D01*
X114699130Y-110631695D01*
X114859820Y-110499820D01*
X114991695Y-110339130D01*
X115089687Y-110155800D01*
X115150031Y-109956875D01*
X115170406Y-109750000D01*
X115150031Y-109543125D01*
X115089687Y-109344200D01*
X114991695Y-109160870D01*
X114859820Y-109000180D01*
X114853671Y-108995134D01*
X114703914Y-108872231D01*
X114703913Y-108872230D01*
X114699130Y-108868305D01*
X114685692Y-108861122D01*
X114637014Y-108814778D01*
X114619087Y-108750000D01*
X114637014Y-108685222D01*
X114685693Y-108638877D01*
X114699130Y-108631695D01*
X114859820Y-108499820D01*
X114991695Y-108339130D01*
X115040990Y-108246904D01*
X115087336Y-108198226D01*
X115152113Y-108180300D01*
X115218756Y-108180300D01*
X115232863Y-108181092D01*
X115266271Y-108184856D01*
X115319791Y-108174729D01*
X115324412Y-108173943D01*
X115378266Y-108165827D01*
X115385658Y-108162267D01*
X115393724Y-108160741D01*
X115441942Y-108135255D01*
X115446034Y-108133189D01*
X115495134Y-108109546D01*
X115501148Y-108103965D01*
X115508407Y-108100129D01*
X115546944Y-108061590D01*
X115550284Y-108058372D01*
X115590222Y-108021318D01*
X115593580Y-108015499D01*
X115598160Y-108010374D01*
X117094182Y-106514352D01*
X117104698Y-106504954D01*
X117130995Y-106483984D01*
X117161710Y-106438931D01*
X117164355Y-106435204D01*
X117196732Y-106391336D01*
X117199442Y-106383590D01*
X117204066Y-106376809D01*
X117220122Y-106324753D01*
X117221595Y-106320279D01*
X117225482Y-106309173D01*
X117239574Y-106268901D01*
X117239880Y-106260699D01*
X117242300Y-106252857D01*
X117242300Y-106198403D01*
X117242388Y-106193692D01*
X117242540Y-106189634D01*
X117244424Y-106139277D01*
X117242685Y-106132790D01*
X117242300Y-106125917D01*
X117242300Y-101129725D01*
X117260136Y-101065100D01*
X117308593Y-101018770D01*
X117373954Y-101003852D01*
X117437714Y-101024569D01*
G37*
%TD.AperFunction*%
%TA.AperFunction,Conductor*%
G36*
X126221446Y-70807446D02*
G01*
X126267632Y-70854216D01*
X126283979Y-70917883D01*
X126266037Y-70981119D01*
X126218690Y-71026715D01*
X126146630Y-71066330D01*
X126139949Y-71070570D01*
X125913241Y-71235281D01*
X125905850Y-71243598D01*
X125911852Y-71252973D01*
X127477939Y-72819060D01*
X127489669Y-72825832D01*
X127501398Y-72819060D01*
X129067484Y-71252973D01*
X129073485Y-71243598D01*
X129066094Y-71235280D01*
X128839388Y-71070570D01*
X128832707Y-71066330D01*
X128760648Y-71026715D01*
X128713301Y-70981119D01*
X128695359Y-70917883D01*
X128711706Y-70854216D01*
X128757892Y-70807446D01*
X128821349Y-70790300D01*
X131489536Y-70790300D01*
X131537754Y-70799891D01*
X131578631Y-70827205D01*
X135166795Y-74415369D01*
X135194109Y-74456246D01*
X135203700Y-74504464D01*
X135203700Y-111235247D01*
X135188672Y-111294923D01*
X135147174Y-111340363D01*
X135089103Y-111360730D01*
X135028312Y-111351164D01*
X134979302Y-111313948D01*
X134953764Y-111257959D01*
X134934804Y-111154500D01*
X134932983Y-111147111D01*
X134837784Y-110841609D01*
X134835087Y-110834498D01*
X134703762Y-110542704D01*
X134700226Y-110535968D01*
X134534680Y-110262122D01*
X134530370Y-110255877D01*
X134397733Y-110086579D01*
X134386350Y-110078379D01*
X134374061Y-110085148D01*
X132670939Y-111788270D01*
X132664167Y-111800000D01*
X132670939Y-111811729D01*
X134374061Y-113514850D01*
X134386351Y-113521619D01*
X134397733Y-113513420D01*
X134530370Y-113344121D01*
X134534680Y-113337877D01*
X134700226Y-113064031D01*
X134703762Y-113057295D01*
X134835087Y-112765501D01*
X134837784Y-112758390D01*
X134932983Y-112452888D01*
X134934804Y-112445499D01*
X134953764Y-112342041D01*
X134979302Y-112286052D01*
X135028312Y-112248836D01*
X135089103Y-112239270D01*
X135147174Y-112259637D01*
X135188672Y-112305077D01*
X135203700Y-112364753D01*
X135203700Y-113709534D01*
X135194109Y-113757752D01*
X135166796Y-113798629D01*
X134372631Y-114592795D01*
X134331753Y-114620109D01*
X134283535Y-114629700D01*
X133149476Y-114629700D01*
X133081705Y-114609922D01*
X133035210Y-114556797D01*
X133024587Y-114487002D01*
X133053172Y-114422450D01*
X133111990Y-114383405D01*
X133258390Y-114337784D01*
X133265501Y-114335087D01*
X133557295Y-114203762D01*
X133564031Y-114200226D01*
X133837877Y-114034680D01*
X133844121Y-114030370D01*
X134013420Y-113897733D01*
X134021619Y-113886351D01*
X134014850Y-113874061D01*
X132311729Y-112170939D01*
X132300000Y-112164167D01*
X132288270Y-112170939D01*
X130585148Y-113874061D01*
X130578379Y-113886350D01*
X130586579Y-113897733D01*
X130755877Y-114030370D01*
X130762122Y-114034680D01*
X131035968Y-114200226D01*
X131042704Y-114203762D01*
X131334498Y-114335087D01*
X131341609Y-114337784D01*
X131488010Y-114383405D01*
X131546828Y-114422450D01*
X131575413Y-114487002D01*
X131564790Y-114556797D01*
X131518295Y-114609922D01*
X131450524Y-114629700D01*
X129640145Y-114629700D01*
X129578831Y-114613776D01*
X129533016Y-114570027D01*
X129531754Y-114567989D01*
X129529157Y-114562773D01*
X129446211Y-114452934D01*
X129398056Y-114389166D01*
X129398053Y-114389162D01*
X129394544Y-114384516D01*
X129390240Y-114380593D01*
X129390238Y-114380590D01*
X129307614Y-114305269D01*
X129239432Y-114243113D01*
X129203130Y-114184482D01*
X129203130Y-114115518D01*
X129239432Y-114056886D01*
X129394544Y-113915484D01*
X129529157Y-113737227D01*
X129628724Y-113537270D01*
X129689854Y-113322422D01*
X129703205Y-113178337D01*
X129724215Y-113119497D01*
X129770907Y-113077982D01*
X129831802Y-113064002D01*
X129891926Y-113080993D01*
X129936496Y-113124778D01*
X130065319Y-113337877D01*
X130069629Y-113344122D01*
X130202265Y-113513419D01*
X130213648Y-113521619D01*
X130225937Y-113514850D01*
X132300000Y-111440790D01*
X132299999Y-111440790D01*
X134014852Y-109725935D01*
X134021619Y-109713648D01*
X134013419Y-109702265D01*
X133844122Y-109569629D01*
X133837877Y-109565319D01*
X133564031Y-109399773D01*
X133557295Y-109396237D01*
X133265501Y-109264912D01*
X133258390Y-109262215D01*
X132952888Y-109167016D01*
X132945499Y-109165195D01*
X132630752Y-109107515D01*
X132623212Y-109106600D01*
X132303802Y-109087280D01*
X132296198Y-109087280D01*
X131976787Y-109106600D01*
X131969247Y-109107515D01*
X131654500Y-109165195D01*
X131647111Y-109167016D01*
X131341609Y-109262215D01*
X131334498Y-109264912D01*
X131042704Y-109396237D01*
X131035969Y-109399772D01*
X131012966Y-109413678D01*
X130955390Y-109431618D01*
X130896070Y-109420747D01*
X130848598Y-109383553D01*
X130823848Y-109328559D01*
X130827489Y-109268362D01*
X130858686Y-109216756D01*
X131060366Y-109015077D01*
X131060366Y-109015076D01*
X131083292Y-108992151D01*
X131093505Y-108972104D01*
X131103838Y-108955242D01*
X131117070Y-108937032D01*
X131124024Y-108915625D01*
X131131593Y-108897355D01*
X131137304Y-108886147D01*
X131137304Y-108886146D01*
X131141809Y-108877306D01*
X131145330Y-108855073D01*
X131149947Y-108835845D01*
X131150095Y-108835389D01*
X131156900Y-108814446D01*
X131156900Y-108685553D01*
X131156900Y-108217976D01*
X131156900Y-108185554D01*
X131149944Y-108164146D01*
X131145330Y-108144926D01*
X131143360Y-108132489D01*
X131141809Y-108122694D01*
X131131591Y-108102641D01*
X131124023Y-108084369D01*
X131120134Y-108072400D01*
X131117070Y-108062968D01*
X131103840Y-108044759D01*
X131093511Y-108027905D01*
X131083292Y-108007849D01*
X130992151Y-107916708D01*
X130992150Y-107916707D01*
X130313684Y-107238241D01*
X130281905Y-107184721D01*
X130279625Y-107122519D01*
X130307398Y-107066815D01*
X130358447Y-107031202D01*
X130420315Y-107024372D01*
X130655234Y-107057388D01*
X130663984Y-107058000D01*
X131229410Y-107058000D01*
X131242493Y-107054493D01*
X131246000Y-107041410D01*
X131754000Y-107041410D01*
X131757506Y-107054493D01*
X131770590Y-107058000D01*
X132267923Y-107058000D01*
X132272308Y-107057846D01*
X132475757Y-107043620D01*
X132484437Y-107042400D01*
X132750529Y-106985841D01*
X132758966Y-106983421D01*
X133014586Y-106890382D01*
X133022602Y-106886813D01*
X133262790Y-106759104D01*
X133270238Y-106754450D01*
X133490305Y-106594561D01*
X133497035Y-106588914D01*
X133692715Y-106399948D01*
X133698587Y-106393426D01*
X133866063Y-106179067D01*
X133870970Y-106171793D01*
X134006983Y-105936211D01*
X134010833Y-105928319D01*
X134112735Y-105676103D01*
X134115450Y-105667746D01*
X134181257Y-105403808D01*
X134182781Y-105395163D01*
X134190512Y-105321611D01*
X134188086Y-105307851D01*
X134174656Y-105304000D01*
X131770590Y-105304000D01*
X131757506Y-105307506D01*
X131754000Y-105320590D01*
X131754000Y-107041410D01*
X131246000Y-107041410D01*
X131246000Y-105320590D01*
X131242493Y-105307506D01*
X131229410Y-105304000D01*
X128819608Y-105304000D01*
X128808694Y-105306419D01*
X128808206Y-105317588D01*
X128846126Y-105532642D01*
X128848246Y-105541142D01*
X128932307Y-105799857D01*
X128935601Y-105808010D01*
X128986255Y-105911866D01*
X128998834Y-105973695D01*
X128979861Y-106033870D01*
X128934093Y-106077302D01*
X128873007Y-106093100D01*
X125564447Y-106093100D01*
X125435554Y-106093100D01*
X125426131Y-106096161D01*
X125426126Y-106096162D01*
X125414138Y-106100057D01*
X125394927Y-106104669D01*
X125382487Y-106106639D01*
X125382482Y-106106640D01*
X125372694Y-106108191D01*
X125363858Y-106112692D01*
X125363855Y-106112694D01*
X125352638Y-106118409D01*
X125334380Y-106125972D01*
X125322400Y-106129864D01*
X125322392Y-106129867D01*
X125312968Y-106132930D01*
X125304949Y-106138755D01*
X125304943Y-106138759D01*
X125294747Y-106146167D01*
X125277901Y-106156490D01*
X125266682Y-106162206D01*
X125266676Y-106162209D01*
X125257849Y-106166708D01*
X125250841Y-106173715D01*
X125250839Y-106173717D01*
X125234919Y-106189637D01*
X123814362Y-107610195D01*
X123773485Y-107637509D01*
X123725267Y-107647100D01*
X123507815Y-107647100D01*
X123449060Y-107632562D01*
X123403863Y-107592304D01*
X123388333Y-107550794D01*
X123385918Y-107551452D01*
X123383430Y-107542307D01*
X123382338Y-107532891D01*
X123336234Y-107428475D01*
X123255525Y-107347766D01*
X123244844Y-107343050D01*
X123244843Y-107343049D01*
X123159781Y-107305491D01*
X123159780Y-107305490D01*
X123151109Y-107301662D01*
X123141691Y-107300569D01*
X123141690Y-107300569D01*
X123129205Y-107299120D01*
X123129193Y-107299119D01*
X123125579Y-107298700D01*
X123121932Y-107298700D01*
X123110971Y-107298700D01*
X122732299Y-107298700D01*
X122669300Y-107281820D01*
X122623181Y-107235701D01*
X122606300Y-107172701D01*
X122606300Y-104778388D01*
X128809487Y-104778388D01*
X128811913Y-104792148D01*
X128825344Y-104796000D01*
X131229410Y-104796000D01*
X131242493Y-104792493D01*
X131246000Y-104779410D01*
X131754000Y-104779410D01*
X131757506Y-104792493D01*
X131770590Y-104796000D01*
X134180392Y-104796000D01*
X134191305Y-104793580D01*
X134191793Y-104782411D01*
X134153873Y-104567357D01*
X134151753Y-104558857D01*
X134067692Y-104300142D01*
X134064400Y-104291995D01*
X133945152Y-104047500D01*
X133940766Y-104039904D01*
X133788648Y-103814379D01*
X133783243Y-103807461D01*
X133601224Y-103605308D01*
X133594908Y-103599210D01*
X133386528Y-103424357D01*
X133379424Y-103419195D01*
X133148725Y-103275039D01*
X133140991Y-103270926D01*
X132892467Y-103160277D01*
X132884226Y-103157277D01*
X132622733Y-103082296D01*
X132614153Y-103080472D01*
X132344765Y-103042611D01*
X132336016Y-103042000D01*
X131770590Y-103042000D01*
X131757506Y-103045506D01*
X131754000Y-103058590D01*
X131754000Y-104779410D01*
X131246000Y-104779410D01*
X131246000Y-103058590D01*
X131242493Y-103045506D01*
X131229410Y-103042000D01*
X130732077Y-103042000D01*
X130727691Y-103042153D01*
X130524242Y-103056379D01*
X130515562Y-103057599D01*
X130249470Y-103114158D01*
X130241033Y-103116578D01*
X129985413Y-103209617D01*
X129977397Y-103213186D01*
X129737209Y-103340895D01*
X129729761Y-103345549D01*
X129509694Y-103505438D01*
X129502964Y-103511085D01*
X129307284Y-103700051D01*
X129301412Y-103706573D01*
X129133936Y-103920932D01*
X129129029Y-103928206D01*
X128993016Y-104163788D01*
X128989166Y-104171680D01*
X128887264Y-104423896D01*
X128884549Y-104432253D01*
X128818742Y-104696191D01*
X128817218Y-104704836D01*
X128809487Y-104778388D01*
X122606300Y-104778388D01*
X122606300Y-104379033D01*
X122623181Y-104316033D01*
X122669300Y-104269914D01*
X122732300Y-104253033D01*
X122795300Y-104269914D01*
X122822757Y-104285766D01*
X122890998Y-104325165D01*
X123058912Y-104375435D01*
X123233894Y-104385627D01*
X123406509Y-104355190D01*
X123567452Y-104285766D01*
X123708047Y-104181097D01*
X123820713Y-104046827D01*
X123899378Y-103890192D01*
X123939800Y-103719639D01*
X123939800Y-103491800D01*
X123956681Y-103428800D01*
X124002800Y-103382681D01*
X124065800Y-103365800D01*
X124596361Y-103365800D01*
X124596979Y-103365800D01*
X124607962Y-103366280D01*
X124611021Y-103366547D01*
X124618206Y-103368031D01*
X124693057Y-103365853D01*
X124696723Y-103365800D01*
X124727667Y-103365800D01*
X128620196Y-103365800D01*
X128638457Y-103367129D01*
X128662044Y-103370585D01*
X128669359Y-103369944D01*
X128669362Y-103369945D01*
X128711260Y-103366280D01*
X128722242Y-103365800D01*
X128723999Y-103365800D01*
X128727667Y-103365800D01*
X128758379Y-103362209D01*
X128761988Y-103361840D01*
X128836654Y-103355308D01*
X128843621Y-103352999D01*
X128846639Y-103352376D01*
X128847232Y-103352280D01*
X128847823Y-103352113D01*
X128850801Y-103351407D01*
X128858093Y-103350555D01*
X128928527Y-103324918D01*
X128931832Y-103323768D01*
X129003037Y-103300175D01*
X129009291Y-103296317D01*
X129012060Y-103295026D01*
X129012629Y-103294790D01*
X129013160Y-103294494D01*
X129015898Y-103293118D01*
X129022800Y-103290607D01*
X129085393Y-103249437D01*
X129088441Y-103247495D01*
X129152219Y-103208159D01*
X129157414Y-103202962D01*
X129159812Y-103201067D01*
X129160306Y-103200710D01*
X129160767Y-103200288D01*
X129163102Y-103198328D01*
X129169243Y-103194290D01*
X129220691Y-103139756D01*
X129223146Y-103137230D01*
X131785076Y-100575299D01*
X131798921Y-100563334D01*
X131818047Y-100549097D01*
X131849799Y-100511256D01*
X131857232Y-100503144D01*
X131861066Y-100499311D01*
X131880269Y-100475023D01*
X131882530Y-100472246D01*
X131930713Y-100414827D01*
X131934007Y-100408265D01*
X131935701Y-100405691D01*
X131936046Y-100405213D01*
X131936050Y-100405206D01*
X131936362Y-100404648D01*
X131937950Y-100402072D01*
X131942511Y-100396306D01*
X131974157Y-100328437D01*
X131975752Y-100325145D01*
X131978231Y-100320209D01*
X132009378Y-100258192D01*
X132011071Y-100251045D01*
X132012115Y-100248178D01*
X132012347Y-100247616D01*
X132012353Y-100247598D01*
X132012520Y-100247011D01*
X132013481Y-100244108D01*
X132016587Y-100237451D01*
X132031737Y-100164077D01*
X132032528Y-100160511D01*
X132032996Y-100158537D01*
X132049800Y-100087639D01*
X132049800Y-100080295D01*
X132050156Y-100077251D01*
X132050252Y-100076652D01*
X132050279Y-100076053D01*
X132050547Y-100072983D01*
X132052032Y-100065794D01*
X132049853Y-99990922D01*
X132049800Y-99987257D01*
X132049800Y-95884768D01*
X132059391Y-95836550D01*
X132086705Y-95795673D01*
X133178363Y-94704015D01*
X134311066Y-93571312D01*
X134392511Y-93468307D01*
X134466587Y-93309452D01*
X134502031Y-93137794D01*
X134496933Y-92962590D01*
X134451568Y-92793285D01*
X134448084Y-92786825D01*
X134445376Y-92780007D01*
X134447869Y-92779016D01*
X134436300Y-92733164D01*
X134436300Y-80874549D01*
X134436530Y-80866940D01*
X134437544Y-80850171D01*
X134440080Y-80808258D01*
X134429480Y-80750422D01*
X134428336Y-80742897D01*
X134425292Y-80717825D01*
X134421252Y-80684551D01*
X134417876Y-80675649D01*
X134411752Y-80653683D01*
X134410038Y-80644324D01*
X134405959Y-80635262D01*
X134393692Y-80608005D01*
X134385904Y-80590702D01*
X134382995Y-80583677D01*
X134364856Y-80535848D01*
X134362152Y-80528718D01*
X134356746Y-80520887D01*
X134345540Y-80501017D01*
X134344766Y-80499298D01*
X134341637Y-80492344D01*
X134305373Y-80446056D01*
X134300890Y-80439965D01*
X134267476Y-80391556D01*
X134223464Y-80352565D01*
X134217922Y-80347347D01*
X130002659Y-76132085D01*
X129997441Y-76126543D01*
X129990047Y-76118197D01*
X129958444Y-76082524D01*
X129952177Y-76078198D01*
X129952169Y-76078191D01*
X129910058Y-76049124D01*
X129903928Y-76044614D01*
X129863657Y-76013063D01*
X129863653Y-76013060D01*
X129857657Y-76008363D01*
X129850706Y-76005234D01*
X129850704Y-76005233D01*
X129848970Y-76004453D01*
X129829117Y-75993256D01*
X129827549Y-75992173D01*
X129827546Y-75992171D01*
X129821282Y-75987848D01*
X129814163Y-75985148D01*
X129814161Y-75985147D01*
X129766317Y-75967002D01*
X129759287Y-75964090D01*
X129712621Y-75943087D01*
X129712616Y-75943085D01*
X129705676Y-75939962D01*
X129698185Y-75938589D01*
X129698182Y-75938588D01*
X129696305Y-75938244D01*
X129674351Y-75932124D01*
X129672570Y-75931448D01*
X129672566Y-75931447D01*
X129665449Y-75928748D01*
X129657889Y-75927830D01*
X129657885Y-75927829D01*
X129607093Y-75921662D01*
X129599571Y-75920517D01*
X129549240Y-75911293D01*
X129549231Y-75911292D01*
X129541742Y-75909920D01*
X129534136Y-75910380D01*
X129534134Y-75910380D01*
X129483060Y-75913470D01*
X129475451Y-75913700D01*
X127942732Y-75913700D01*
X127882031Y-75898115D01*
X127836347Y-75855214D01*
X127816981Y-75795612D01*
X127828724Y-75734052D01*
X127868671Y-75685764D01*
X127926940Y-75662694D01*
X127956618Y-75658944D01*
X127964390Y-75657462D01*
X128262373Y-75580952D01*
X128269899Y-75578507D01*
X128555961Y-75465247D01*
X128563096Y-75461889D01*
X128832707Y-75313669D01*
X128839388Y-75309429D01*
X129066095Y-75144717D01*
X129073486Y-75136400D01*
X129067484Y-75127025D01*
X127130459Y-73190000D01*
X127853836Y-73190000D01*
X127860608Y-73201729D01*
X129421182Y-74762303D01*
X129433357Y-74769080D01*
X129444841Y-74761187D01*
X129520168Y-74670135D01*
X129524821Y-74663730D01*
X129689667Y-74403974D01*
X129693479Y-74397040D01*
X129824469Y-74118672D01*
X129827384Y-74111309D01*
X129922452Y-73818723D01*
X129924423Y-73811046D01*
X129982069Y-73508855D01*
X129983062Y-73500994D01*
X130002379Y-73193958D01*
X130002379Y-73186042D01*
X129983062Y-72879005D01*
X129982069Y-72871144D01*
X129924423Y-72568953D01*
X129922452Y-72561276D01*
X129827384Y-72268690D01*
X129824469Y-72261327D01*
X129693479Y-71982959D01*
X129689667Y-71976025D01*
X129524821Y-71716269D01*
X129520168Y-71709864D01*
X129444841Y-71618811D01*
X129433358Y-71610919D01*
X129421181Y-71617696D01*
X127860608Y-73178270D01*
X127853836Y-73190000D01*
X127130459Y-73190000D01*
X125558155Y-71617696D01*
X125545979Y-71610919D01*
X125534494Y-71618812D01*
X125459164Y-71709870D01*
X125454519Y-71716263D01*
X125289670Y-71976025D01*
X125285858Y-71982959D01*
X125154868Y-72261327D01*
X125151953Y-72268690D01*
X125056885Y-72561276D01*
X125054914Y-72568953D01*
X124997268Y-72871144D01*
X124996275Y-72879005D01*
X124976959Y-73186042D01*
X124976959Y-73193958D01*
X124996275Y-73500994D01*
X124997268Y-73508855D01*
X125054914Y-73811046D01*
X125056886Y-73818723D01*
X125119758Y-74012225D01*
X125122890Y-74078647D01*
X125091775Y-74137414D01*
X125035078Y-74172158D01*
X124968590Y-74173202D01*
X124910830Y-74140256D01*
X124323205Y-73552631D01*
X124295891Y-73511754D01*
X124286300Y-73463536D01*
X124286300Y-73024549D01*
X124286530Y-73016940D01*
X124290080Y-72958258D01*
X124279480Y-72900422D01*
X124278336Y-72892897D01*
X124275695Y-72871144D01*
X124271252Y-72834551D01*
X124267876Y-72825649D01*
X124261752Y-72803683D01*
X124260038Y-72794324D01*
X124249915Y-72771833D01*
X124235908Y-72740711D01*
X124232995Y-72733677D01*
X124219644Y-72698474D01*
X124212152Y-72678718D01*
X124206746Y-72670887D01*
X124195540Y-72651017D01*
X124191637Y-72642344D01*
X124155373Y-72596056D01*
X124150890Y-72589965D01*
X124117476Y-72541556D01*
X124073464Y-72502565D01*
X124067922Y-72497347D01*
X122802659Y-71232085D01*
X122797441Y-71226543D01*
X122758444Y-71182524D01*
X122752177Y-71178198D01*
X122752169Y-71178191D01*
X122710058Y-71149124D01*
X122703928Y-71144614D01*
X122663657Y-71113063D01*
X122663653Y-71113060D01*
X122657657Y-71108363D01*
X122650706Y-71105234D01*
X122650704Y-71105233D01*
X122648970Y-71104453D01*
X122629117Y-71093256D01*
X122627549Y-71092173D01*
X122627546Y-71092171D01*
X122621282Y-71087848D01*
X122614163Y-71085148D01*
X122614161Y-71085147D01*
X122566317Y-71067002D01*
X122559287Y-71064090D01*
X122512621Y-71043087D01*
X122512616Y-71043085D01*
X122505676Y-71039962D01*
X122498186Y-71038589D01*
X122491783Y-71036594D01*
X122432965Y-70997549D01*
X122404381Y-70932997D01*
X122415004Y-70863203D01*
X122461499Y-70810078D01*
X122529270Y-70790300D01*
X126157989Y-70790300D01*
X126221446Y-70807446D01*
G37*
%TD.AperFunction*%
%TA.AperFunction,Conductor*%
G36*
X127866734Y-106924130D02*
G01*
X127912940Y-106971107D01*
X127929116Y-107034984D01*
X127910837Y-107098290D01*
X127863102Y-107143714D01*
X127731835Y-107214751D01*
X127723150Y-107220425D01*
X127712817Y-107228467D01*
X127704581Y-107239835D01*
X127711349Y-107252138D01*
X128500000Y-108040790D01*
X128770115Y-108310905D01*
X128802727Y-108367389D01*
X128802727Y-108432611D01*
X128770115Y-108489095D01*
X127711350Y-109547859D01*
X127694556Y-109578387D01*
X127692995Y-109587977D01*
X127661096Y-109633793D01*
X127609763Y-109680590D01*
X127605456Y-109684516D01*
X127601947Y-109689162D01*
X127601943Y-109689167D01*
X127474354Y-109858122D01*
X127474348Y-109858131D01*
X127470843Y-109862773D01*
X127468249Y-109867980D01*
X127468246Y-109867987D01*
X127373870Y-110057519D01*
X127373867Y-110057526D01*
X127371276Y-110062730D01*
X127369683Y-110068327D01*
X127367578Y-110073763D01*
X127365337Y-110072895D01*
X127338256Y-110118477D01*
X127282231Y-110150358D01*
X127217769Y-110150358D01*
X127161744Y-110118477D01*
X127134662Y-110072895D01*
X127132422Y-110073763D01*
X127130317Y-110068330D01*
X127128724Y-110062730D01*
X127029157Y-109862773D01*
X126980118Y-109797834D01*
X126898056Y-109689166D01*
X126898053Y-109689162D01*
X126894544Y-109684516D01*
X126890240Y-109680592D01*
X126890238Y-109680590D01*
X126798154Y-109596645D01*
X126739432Y-109543113D01*
X126703130Y-109484482D01*
X126703130Y-109415518D01*
X126739432Y-109356886D01*
X126894544Y-109215484D01*
X127029157Y-109037227D01*
X127029325Y-109037354D01*
X127077009Y-108993403D01*
X127143280Y-108979884D01*
X127206995Y-109002582D01*
X127249792Y-109054956D01*
X127255364Y-109067658D01*
X127260309Y-109076797D01*
X127333108Y-109188225D01*
X127341202Y-109196072D01*
X127350735Y-109190052D01*
X128129058Y-108411730D01*
X128135831Y-108399999D01*
X128129059Y-108388270D01*
X127350736Y-107609947D01*
X127341202Y-107603927D01*
X127333108Y-107611773D01*
X127260304Y-107723210D01*
X127255364Y-107732339D01*
X127249791Y-107745045D01*
X127206994Y-107797417D01*
X127143283Y-107820115D01*
X127077013Y-107806598D01*
X127029324Y-107762646D01*
X127029157Y-107762773D01*
X127024433Y-107756518D01*
X126898056Y-107589166D01*
X126898053Y-107589162D01*
X126894544Y-107584516D01*
X126890240Y-107580593D01*
X126890238Y-107580590D01*
X126733770Y-107437951D01*
X126733771Y-107437951D01*
X126729468Y-107434029D01*
X126603484Y-107356023D01*
X126544509Y-107319507D01*
X126544505Y-107319505D01*
X126539550Y-107316437D01*
X126534119Y-107314333D01*
X126534115Y-107314331D01*
X126336685Y-107237847D01*
X126336684Y-107237846D01*
X126331259Y-107235745D01*
X126325540Y-107234676D01*
X126325537Y-107234675D01*
X126117414Y-107195770D01*
X126117410Y-107195769D01*
X126111688Y-107194700D01*
X125888312Y-107194700D01*
X125882590Y-107195769D01*
X125882585Y-107195770D01*
X125668741Y-107235745D01*
X125668545Y-107234697D01*
X125609093Y-107235516D01*
X125551939Y-107203328D01*
X125518708Y-107146774D01*
X125518407Y-107081180D01*
X125551115Y-107024327D01*
X125631640Y-106943802D01*
X125672515Y-106916491D01*
X125720733Y-106906900D01*
X127803133Y-106906900D01*
X127866734Y-106924130D01*
G37*
%TD.AperFunction*%
%TA.AperFunction,Conductor*%
G36*
X110610379Y-97724942D02*
G01*
X110649867Y-97758410D01*
X110649871Y-97758407D01*
X110656546Y-97765082D01*
X110656547Y-97765083D01*
X110688370Y-97796906D01*
X110691616Y-97800274D01*
X110728682Y-97840222D01*
X110734499Y-97843580D01*
X110739631Y-97848167D01*
X111796002Y-98904538D01*
X111805418Y-98915073D01*
X111837640Y-98955478D01*
X111845435Y-98960793D01*
X111845440Y-98960797D01*
X111927062Y-99016445D01*
X111927889Y-99017032D01*
X111928173Y-99017203D01*
X111929007Y-99017772D01*
X111929047Y-99017802D01*
X111929023Y-99017837D01*
X111930939Y-99019198D01*
X111931612Y-99019695D01*
X111931736Y-99019786D01*
X111931190Y-99020524D01*
X111931561Y-99020703D01*
X111932116Y-99019890D01*
X111945313Y-99028888D01*
X112048749Y-99060794D01*
X112049641Y-99061087D01*
X112049943Y-99061162D01*
X112050983Y-99061483D01*
X112051002Y-99061489D01*
X112050989Y-99061531D01*
X112053222Y-99062266D01*
X112054098Y-99062573D01*
X112054153Y-99062592D01*
X112053847Y-99063464D01*
X112054283Y-99063530D01*
X112054574Y-99062590D01*
X112069841Y-99067300D01*
X112178047Y-99067300D01*
X112179008Y-99067317D01*
X112179329Y-99067300D01*
X112180409Y-99067300D01*
X112180409Y-99067344D01*
X112182759Y-99067388D01*
X112183721Y-99067424D01*
X112183630Y-99069845D01*
X112184185Y-99069940D01*
X112184185Y-99067300D01*
X114270700Y-99067300D01*
X114333700Y-99084181D01*
X114379819Y-99130300D01*
X114396700Y-99193300D01*
X114396700Y-99219122D01*
X114397401Y-99223776D01*
X114397402Y-99223783D01*
X114410605Y-99311381D01*
X114410606Y-99311385D01*
X114412013Y-99320718D01*
X114416109Y-99329224D01*
X114416110Y-99329226D01*
X114432685Y-99363644D01*
X114471564Y-99444377D01*
X114564918Y-99544989D01*
X114683781Y-99613614D01*
X114817591Y-99644156D01*
X114954458Y-99633899D01*
X115055409Y-99594277D01*
X115110857Y-99585920D01*
X115164440Y-99602448D01*
X115173147Y-99607474D01*
X115183781Y-99613614D01*
X115317591Y-99644156D01*
X115454458Y-99633899D01*
X115555409Y-99594277D01*
X115610857Y-99585920D01*
X115664440Y-99602448D01*
X115673147Y-99607474D01*
X115683781Y-99613614D01*
X115817591Y-99644156D01*
X115954458Y-99633899D01*
X116055409Y-99594277D01*
X116110857Y-99585920D01*
X116164440Y-99602448D01*
X116173147Y-99607474D01*
X116183781Y-99613614D01*
X116317591Y-99644156D01*
X116317199Y-99645869D01*
X116364065Y-99661617D01*
X116406357Y-99707200D01*
X116421700Y-99767458D01*
X116421700Y-99833573D01*
X116412109Y-99881791D01*
X116384795Y-99922669D01*
X115967820Y-100339642D01*
X115957289Y-100349053D01*
X115938385Y-100364129D01*
X115938379Y-100364134D01*
X115931005Y-100370016D01*
X115925691Y-100377808D01*
X115925685Y-100377816D01*
X115900312Y-100415030D01*
X115897589Y-100418867D01*
X115870873Y-100455066D01*
X115870867Y-100455077D01*
X115865268Y-100462664D01*
X115862557Y-100470408D01*
X115857934Y-100477191D01*
X115855154Y-100486201D01*
X115855151Y-100486209D01*
X115841879Y-100529235D01*
X115840408Y-100533705D01*
X115825545Y-100576183D01*
X115825543Y-100576191D01*
X115822427Y-100585098D01*
X115822120Y-100593296D01*
X115819700Y-100601143D01*
X115819700Y-100610581D01*
X115819700Y-100655605D01*
X115819611Y-100660317D01*
X115817576Y-100714722D01*
X115819314Y-100721209D01*
X115819700Y-100728081D01*
X115819700Y-100785420D01*
X115804196Y-100845973D01*
X115761498Y-100891624D01*
X115702116Y-100911139D01*
X115640662Y-100899713D01*
X115592261Y-100860161D01*
X115490678Y-100722291D01*
X115485262Y-100715886D01*
X115280946Y-100504625D01*
X115274723Y-100498996D01*
X115044071Y-100316851D01*
X115037144Y-100312097D01*
X114784283Y-100162328D01*
X114776782Y-100158537D01*
X114506210Y-100043805D01*
X114498280Y-100041051D01*
X114214833Y-99963407D01*
X114206593Y-99961732D01*
X113915331Y-99922561D01*
X113906939Y-99922000D01*
X113280590Y-99922000D01*
X113267506Y-99925506D01*
X113264000Y-99938590D01*
X113264000Y-102308000D01*
X113247119Y-102371000D01*
X113201000Y-102417119D01*
X113138000Y-102434000D01*
X104353817Y-102434000D01*
X104340397Y-102437837D01*
X104337922Y-102451571D01*
X104348047Y-102552213D01*
X104349447Y-102560512D01*
X104417576Y-102846396D01*
X104420062Y-102854411D01*
X104525694Y-103128677D01*
X104529224Y-103136284D01*
X104670467Y-103394020D01*
X104674983Y-103401094D01*
X104849321Y-103637708D01*
X104854737Y-103644113D01*
X105059053Y-103855374D01*
X105065276Y-103861003D01*
X105295928Y-104043148D01*
X105302855Y-104047902D01*
X105555716Y-104197671D01*
X105563217Y-104201462D01*
X105697016Y-104258198D01*
X105750256Y-104300822D01*
X105773487Y-104364944D01*
X105759902Y-104431778D01*
X105713482Y-104481743D01*
X105647827Y-104500200D01*
X104056300Y-104500200D01*
X103993300Y-104483319D01*
X103947181Y-104437200D01*
X103930300Y-104374200D01*
X103930300Y-101912450D01*
X104335231Y-101912450D01*
X104335790Y-101923595D01*
X104346685Y-101926000D01*
X107059410Y-101926000D01*
X107072493Y-101922493D01*
X107076000Y-101909410D01*
X107584000Y-101909410D01*
X107587506Y-101922493D01*
X107600590Y-101926000D01*
X112739410Y-101926000D01*
X112752493Y-101922493D01*
X112756000Y-101909410D01*
X112756000Y-99938590D01*
X112752493Y-99925506D01*
X112739410Y-99922000D01*
X112186609Y-99922000D01*
X112182402Y-99922140D01*
X111962562Y-99936856D01*
X111954236Y-99937976D01*
X111666244Y-99996514D01*
X111658128Y-99998737D01*
X111380519Y-100095133D01*
X111372756Y-100098426D01*
X111110476Y-100230961D01*
X111103234Y-100235250D01*
X110860942Y-100401575D01*
X110854351Y-100406780D01*
X110636388Y-100603915D01*
X110630541Y-100609960D01*
X110440802Y-100834384D01*
X110435817Y-100841150D01*
X110275415Y-101092418D01*
X110274650Y-101091930D01*
X110231485Y-101136557D01*
X110167274Y-101154143D01*
X110103065Y-101136552D01*
X110056783Y-101088696D01*
X109989532Y-100965979D01*
X109985016Y-100958905D01*
X109810678Y-100722291D01*
X109805262Y-100715886D01*
X109600946Y-100504625D01*
X109594723Y-100498996D01*
X109364071Y-100316851D01*
X109357144Y-100312097D01*
X109104283Y-100162328D01*
X109096782Y-100158537D01*
X108826210Y-100043805D01*
X108818280Y-100041051D01*
X108534833Y-99963407D01*
X108526593Y-99961732D01*
X108235331Y-99922561D01*
X108226939Y-99922000D01*
X107600590Y-99922000D01*
X107587506Y-99925506D01*
X107584000Y-99938590D01*
X107584000Y-101909410D01*
X107076000Y-101909410D01*
X107076000Y-99938590D01*
X107072493Y-99925506D01*
X107059410Y-99922000D01*
X106506609Y-99922000D01*
X106502402Y-99922140D01*
X106282562Y-99936856D01*
X106274236Y-99937976D01*
X105986244Y-99996514D01*
X105978128Y-99998737D01*
X105700519Y-100095133D01*
X105692756Y-100098426D01*
X105430476Y-100230961D01*
X105423234Y-100235250D01*
X105180942Y-100401575D01*
X105174351Y-100406780D01*
X104956388Y-100603915D01*
X104950541Y-100609960D01*
X104760802Y-100834384D01*
X104755817Y-100841150D01*
X104597680Y-101088869D01*
X104593641Y-101096240D01*
X104469934Y-101362821D01*
X104466915Y-101370658D01*
X104379840Y-101651363D01*
X104377895Y-101659522D01*
X104335231Y-101912450D01*
X103930300Y-101912450D01*
X103930300Y-100730426D01*
X103939891Y-100682208D01*
X103967205Y-100641331D01*
X105141331Y-99467205D01*
X105182208Y-99439891D01*
X105230426Y-99430300D01*
X108718756Y-99430300D01*
X108732863Y-99431092D01*
X108766271Y-99434856D01*
X108819791Y-99424729D01*
X108824412Y-99423943D01*
X108878266Y-99415827D01*
X108885658Y-99412267D01*
X108893724Y-99410741D01*
X108941942Y-99385255D01*
X108946034Y-99383189D01*
X108995134Y-99359546D01*
X109001148Y-99353965D01*
X109008407Y-99350129D01*
X109046944Y-99311590D01*
X109050284Y-99308372D01*
X109090222Y-99271318D01*
X109093580Y-99265499D01*
X109098160Y-99260374D01*
X110282182Y-98076352D01*
X110292698Y-98066954D01*
X110318995Y-98045984D01*
X110349710Y-98000931D01*
X110352355Y-97997204D01*
X110384732Y-97953336D01*
X110387441Y-97945591D01*
X110392066Y-97938809D01*
X110408130Y-97886726D01*
X110409581Y-97882318D01*
X110427573Y-97830901D01*
X110427879Y-97822703D01*
X110430300Y-97814857D01*
X110430300Y-97811708D01*
X110452934Y-97760878D01*
X110497665Y-97724100D01*
X110554121Y-97711215D01*
X110610379Y-97724942D01*
G37*
%TD.AperFunction*%
%TA.AperFunction,Conductor*%
G36*
X123511113Y-100381054D02*
G01*
X123563664Y-100427547D01*
X123583200Y-100494937D01*
X123583200Y-101740200D01*
X123566319Y-101803200D01*
X123520200Y-101849319D01*
X123457200Y-101866200D01*
X123215480Y-101866200D01*
X123208153Y-101865987D01*
X123153432Y-101862799D01*
X123153425Y-101862799D01*
X123146106Y-101862373D01*
X123138882Y-101863646D01*
X123138877Y-101863647D01*
X123084882Y-101873168D01*
X123077632Y-101874230D01*
X123023191Y-101880593D01*
X123023186Y-101880594D01*
X123015907Y-101881445D01*
X123009016Y-101883952D01*
X123009015Y-101883953D01*
X123005548Y-101885215D01*
X122984346Y-101890895D01*
X122973491Y-101892810D01*
X122966758Y-101895713D01*
X122966752Y-101895716D01*
X122916417Y-101917428D01*
X122909610Y-101920132D01*
X122858102Y-101938880D01*
X122858095Y-101938883D01*
X122851200Y-101941393D01*
X122845066Y-101945426D01*
X122845064Y-101945428D01*
X122841990Y-101947450D01*
X122822671Y-101957866D01*
X122819291Y-101959323D01*
X122819276Y-101959331D01*
X122812548Y-101962234D01*
X122806664Y-101966614D01*
X122800309Y-101970284D01*
X122799564Y-101968995D01*
X122743287Y-101990414D01*
X122675754Y-101977493D01*
X122625060Y-101931043D01*
X122606300Y-101864894D01*
X122606300Y-101408907D01*
X122607605Y-101397324D01*
X122607154Y-101397291D01*
X122607859Y-101387879D01*
X122609961Y-101378671D01*
X122606651Y-101334516D01*
X122606300Y-101325101D01*
X122606300Y-101318326D01*
X122606300Y-101313604D01*
X122604586Y-101302236D01*
X122603529Y-101292860D01*
X122600222Y-101248718D01*
X122596769Y-101239921D01*
X122595220Y-101233133D01*
X122593167Y-101226478D01*
X122591760Y-101217138D01*
X122572553Y-101177255D01*
X122568785Y-101168618D01*
X122556063Y-101136200D01*
X122556060Y-101136195D01*
X122552612Y-101127409D01*
X122547644Y-101121180D01*
X122530983Y-101059002D01*
X122547863Y-100996001D01*
X122593982Y-100949881D01*
X122656983Y-100933000D01*
X122695639Y-100933000D01*
X122702028Y-100932674D01*
X122792398Y-100923442D01*
X122805762Y-100920581D01*
X122954920Y-100871154D01*
X122968132Y-100864994D01*
X123101480Y-100782744D01*
X123112921Y-100773697D01*
X123223697Y-100662921D01*
X123232744Y-100651480D01*
X123314994Y-100518132D01*
X123321151Y-100504928D01*
X123337595Y-100455304D01*
X123377337Y-100397479D01*
X123441845Y-100369876D01*
X123511113Y-100381054D01*
G37*
%TD.AperFunction*%
%TA.AperFunction,Conductor*%
G36*
X129211754Y-77295891D02*
G01*
X129252631Y-77323205D01*
X133026795Y-81097370D01*
X133054109Y-81138247D01*
X133063700Y-81186465D01*
X133063700Y-92645732D01*
X133054109Y-92693950D01*
X133026795Y-92734827D01*
X130814927Y-94946694D01*
X130801079Y-94958663D01*
X130787841Y-94968519D01*
X130781953Y-94972903D01*
X130777241Y-94978517D01*
X130777236Y-94978523D01*
X130750194Y-95010750D01*
X130742794Y-95018827D01*
X130741535Y-95020086D01*
X130741521Y-95020101D01*
X130738934Y-95022689D01*
X130736673Y-95025548D01*
X130736652Y-95025572D01*
X130719750Y-95046949D01*
X130717437Y-95049788D01*
X130674005Y-95101548D01*
X130673998Y-95101558D01*
X130669287Y-95107173D01*
X130665996Y-95113725D01*
X130664288Y-95116322D01*
X130663947Y-95116793D01*
X130663657Y-95117314D01*
X130662034Y-95119944D01*
X130657489Y-95125694D01*
X130654391Y-95132338D01*
X130625844Y-95193554D01*
X130624249Y-95196849D01*
X130590622Y-95263808D01*
X130588931Y-95270941D01*
X130587870Y-95273856D01*
X130587645Y-95274397D01*
X130587485Y-95274964D01*
X130586510Y-95277906D01*
X130583413Y-95284549D01*
X130581930Y-95291727D01*
X130581930Y-95291730D01*
X130568273Y-95357870D01*
X130567480Y-95361446D01*
X130551892Y-95427218D01*
X130551891Y-95427225D01*
X130550200Y-95434361D01*
X130550200Y-95441695D01*
X130549841Y-95444767D01*
X130549746Y-95445354D01*
X130549720Y-95445962D01*
X130549452Y-95449023D01*
X130547969Y-95456206D01*
X130548182Y-95463533D01*
X130548182Y-95463536D01*
X130550147Y-95531058D01*
X130550200Y-95534723D01*
X130550200Y-99637233D01*
X130540609Y-99685451D01*
X130513295Y-99726328D01*
X128410328Y-101829295D01*
X128369451Y-101856609D01*
X128321233Y-101866200D01*
X125208800Y-101866200D01*
X125145800Y-101849319D01*
X125099681Y-101803200D01*
X125082800Y-101740200D01*
X125082800Y-100136400D01*
X125905851Y-100136400D01*
X125913242Y-100144718D01*
X126139949Y-100309429D01*
X126146630Y-100313669D01*
X126416241Y-100461889D01*
X126423376Y-100465247D01*
X126709438Y-100578507D01*
X126716964Y-100580952D01*
X127014947Y-100657462D01*
X127022719Y-100658944D01*
X127327947Y-100697503D01*
X127335838Y-100698000D01*
X127643500Y-100698000D01*
X127651390Y-100697503D01*
X127956618Y-100658944D01*
X127964390Y-100657462D01*
X128262373Y-100580952D01*
X128269899Y-100578507D01*
X128555961Y-100465247D01*
X128563096Y-100461889D01*
X128832707Y-100313669D01*
X128839388Y-100309429D01*
X129066095Y-100144717D01*
X129073486Y-100136400D01*
X129067484Y-100127025D01*
X127501398Y-98560939D01*
X127489669Y-98554167D01*
X127477939Y-98560939D01*
X125911852Y-100127025D01*
X125905851Y-100136400D01*
X125082800Y-100136400D01*
X125082800Y-100036002D01*
X125082800Y-100032333D01*
X125067555Y-99901907D01*
X125007607Y-99737200D01*
X124911290Y-99590757D01*
X124855444Y-99538069D01*
X124789138Y-99475512D01*
X124789133Y-99475508D01*
X124783797Y-99470474D01*
X124777441Y-99466804D01*
X124777438Y-99466802D01*
X124638359Y-99386505D01*
X124638357Y-99386504D01*
X124632002Y-99382835D01*
X124624970Y-99380729D01*
X124618234Y-99377824D01*
X124619290Y-99375374D01*
X124578693Y-99351118D01*
X123421532Y-98193958D01*
X124976959Y-98193958D01*
X124996275Y-98500994D01*
X124997268Y-98508855D01*
X125054914Y-98811046D01*
X125056885Y-98818723D01*
X125151953Y-99111309D01*
X125154868Y-99118672D01*
X125285858Y-99397040D01*
X125289670Y-99403974D01*
X125454516Y-99663730D01*
X125459169Y-99670135D01*
X125534495Y-99761187D01*
X125545978Y-99769079D01*
X125558155Y-99762302D01*
X127118729Y-98201729D01*
X127125501Y-98189999D01*
X127853836Y-98189999D01*
X127860608Y-98201729D01*
X129421182Y-99762303D01*
X129433357Y-99769080D01*
X129444841Y-99761187D01*
X129520168Y-99670135D01*
X129524821Y-99663730D01*
X129689667Y-99403974D01*
X129693479Y-99397040D01*
X129824469Y-99118672D01*
X129827384Y-99111309D01*
X129922452Y-98818723D01*
X129924423Y-98811046D01*
X129982069Y-98508855D01*
X129983062Y-98500994D01*
X130002379Y-98193958D01*
X130002379Y-98186042D01*
X129983062Y-97879005D01*
X129982069Y-97871144D01*
X129924423Y-97568953D01*
X129922452Y-97561276D01*
X129827384Y-97268690D01*
X129824469Y-97261327D01*
X129693479Y-96982959D01*
X129689667Y-96976025D01*
X129524821Y-96716269D01*
X129520168Y-96709864D01*
X129444841Y-96618811D01*
X129433358Y-96610919D01*
X129421181Y-96617696D01*
X127860608Y-98178270D01*
X127853836Y-98189999D01*
X127125501Y-98189999D01*
X127118729Y-98178270D01*
X125558155Y-96617696D01*
X125545979Y-96610919D01*
X125534494Y-96618812D01*
X125459164Y-96709870D01*
X125454519Y-96716263D01*
X125289670Y-96976025D01*
X125285858Y-96982959D01*
X125154868Y-97261327D01*
X125151953Y-97268690D01*
X125056885Y-97561276D01*
X125054914Y-97568953D01*
X124997268Y-97871144D01*
X124996275Y-97879005D01*
X124976959Y-98186042D01*
X124976959Y-98193958D01*
X123421532Y-98193958D01*
X123184659Y-97957085D01*
X123179442Y-97951544D01*
X123174735Y-97946231D01*
X123146126Y-97890362D01*
X123148022Y-97827622D01*
X123179950Y-97773584D01*
X123472182Y-97481352D01*
X123482698Y-97471954D01*
X123508995Y-97450984D01*
X123539710Y-97405931D01*
X123542355Y-97402204D01*
X123574732Y-97358336D01*
X123577442Y-97350590D01*
X123582066Y-97343809D01*
X123598122Y-97291753D01*
X123599595Y-97287279D01*
X123606650Y-97267120D01*
X123617574Y-97235901D01*
X123617880Y-97227699D01*
X123620300Y-97219857D01*
X123620300Y-97165403D01*
X123620388Y-97160692D01*
X123620938Y-97145981D01*
X123622424Y-97106277D01*
X123620685Y-97099790D01*
X123620300Y-97092917D01*
X123620300Y-96243598D01*
X125905850Y-96243598D01*
X125911852Y-96252973D01*
X127477939Y-97819060D01*
X127489668Y-97825832D01*
X127501398Y-97819060D01*
X129067484Y-96252973D01*
X129073485Y-96243598D01*
X129066094Y-96235280D01*
X128839388Y-96070570D01*
X128832707Y-96066330D01*
X128563096Y-95918110D01*
X128555961Y-95914752D01*
X128269899Y-95801492D01*
X128262373Y-95799047D01*
X127964390Y-95722537D01*
X127956618Y-95721055D01*
X127651390Y-95682496D01*
X127643500Y-95682000D01*
X127335838Y-95682000D01*
X127327947Y-95682496D01*
X127022719Y-95721055D01*
X127014947Y-95722537D01*
X126716964Y-95799047D01*
X126709438Y-95801492D01*
X126423376Y-95914752D01*
X126416241Y-95918110D01*
X126146630Y-96066330D01*
X126139949Y-96070570D01*
X125913241Y-96235281D01*
X125905850Y-96243598D01*
X123620300Y-96243598D01*
X123620300Y-95662242D01*
X123621092Y-95648134D01*
X123622837Y-95632643D01*
X123624856Y-95614729D01*
X123614723Y-95561182D01*
X123613942Y-95556580D01*
X123612998Y-95550317D01*
X123605827Y-95502734D01*
X123602265Y-95495339D01*
X123600740Y-95487275D01*
X123575271Y-95439085D01*
X123573192Y-95434967D01*
X123549546Y-95385866D01*
X123543964Y-95379851D01*
X123540129Y-95372593D01*
X123501628Y-95334092D01*
X123498358Y-95330698D01*
X123461318Y-95290778D01*
X123455501Y-95287419D01*
X123450365Y-95282829D01*
X123190545Y-95023009D01*
X123157933Y-94966525D01*
X123157933Y-94901303D01*
X123190542Y-94844820D01*
X123473517Y-94561845D01*
X123484033Y-94552447D01*
X123510478Y-94531360D01*
X123541329Y-94486107D01*
X123543992Y-94482353D01*
X123576520Y-94438282D01*
X123579243Y-94430499D01*
X123583888Y-94423687D01*
X123600017Y-94371392D01*
X123601489Y-94366921D01*
X123619561Y-94315278D01*
X123619869Y-94307039D01*
X123622300Y-94299159D01*
X123622300Y-94244424D01*
X123622388Y-94239713D01*
X123622400Y-94239379D01*
X123624433Y-94185051D01*
X123622689Y-94178542D01*
X123622300Y-94171612D01*
X123622300Y-92316770D01*
X125345529Y-92316770D01*
X125353083Y-92325014D01*
X125408665Y-92363933D01*
X125418151Y-92369410D01*
X125615615Y-92461489D01*
X125625907Y-92465235D01*
X125836356Y-92521625D01*
X125847149Y-92523528D01*
X126064194Y-92542517D01*
X126075144Y-92542517D01*
X126292188Y-92523528D01*
X126302981Y-92521625D01*
X126513430Y-92465235D01*
X126523722Y-92461489D01*
X126721179Y-92369413D01*
X126730675Y-92363931D01*
X126786255Y-92325013D01*
X126793807Y-92316771D01*
X126787797Y-92307338D01*
X126081398Y-91600939D01*
X126069668Y-91594167D01*
X126057940Y-91600938D01*
X125351536Y-92307341D01*
X125345529Y-92316770D01*
X123622300Y-92316770D01*
X123622300Y-91235475D01*
X124757152Y-91235475D01*
X124776140Y-91452519D01*
X124778043Y-91463312D01*
X124834433Y-91673761D01*
X124838179Y-91684053D01*
X124930256Y-91881513D01*
X124935735Y-91891002D01*
X124974654Y-91946586D01*
X124982897Y-91954138D01*
X124992325Y-91948132D01*
X125698728Y-91241730D01*
X125705501Y-91229999D01*
X126433836Y-91229999D01*
X126440608Y-91241729D01*
X127147007Y-91948128D01*
X127156440Y-91954138D01*
X127164682Y-91946586D01*
X127203600Y-91891006D01*
X127209082Y-91881510D01*
X127301158Y-91684053D01*
X127304904Y-91673761D01*
X127361294Y-91463312D01*
X127363197Y-91452519D01*
X127382186Y-91235475D01*
X127382186Y-91224525D01*
X127363197Y-91007480D01*
X127361294Y-90996687D01*
X127304904Y-90786238D01*
X127301158Y-90775946D01*
X127209079Y-90578482D01*
X127203602Y-90568996D01*
X127164683Y-90513414D01*
X127156439Y-90505860D01*
X127147010Y-90511867D01*
X126440607Y-91218271D01*
X126433836Y-91229999D01*
X125705501Y-91229999D01*
X125698729Y-91218270D01*
X124992328Y-90511869D01*
X124982896Y-90505860D01*
X124974654Y-90513413D01*
X124935736Y-90568995D01*
X124930256Y-90578485D01*
X124838179Y-90775946D01*
X124834433Y-90786238D01*
X124778043Y-90996687D01*
X124776140Y-91007480D01*
X124757152Y-91224525D01*
X124757152Y-91235475D01*
X123622300Y-91235475D01*
X123622300Y-90696354D01*
X123623092Y-90682247D01*
X123624419Y-90670469D01*
X123626877Y-90648653D01*
X123616706Y-90594900D01*
X123615917Y-90590257D01*
X123615603Y-90588175D01*
X123607760Y-90536138D01*
X123604182Y-90528710D01*
X123602650Y-90520608D01*
X123594900Y-90505944D01*
X123580300Y-90447072D01*
X123580300Y-90143227D01*
X125345529Y-90143227D01*
X125351538Y-90152659D01*
X126057939Y-90859060D01*
X126069668Y-90865832D01*
X126081399Y-90859059D01*
X126787801Y-90152656D01*
X126793807Y-90143228D01*
X126786255Y-90134985D01*
X126730671Y-90096066D01*
X126721182Y-90090587D01*
X126523722Y-89998510D01*
X126513430Y-89994764D01*
X126302981Y-89938374D01*
X126292188Y-89936471D01*
X126075144Y-89917483D01*
X126064194Y-89917483D01*
X125847149Y-89936471D01*
X125836356Y-89938374D01*
X125625907Y-89994764D01*
X125615615Y-89998510D01*
X125418154Y-90090587D01*
X125408664Y-90096067D01*
X125353082Y-90134985D01*
X125345529Y-90143227D01*
X123580300Y-90143227D01*
X123580300Y-90012249D01*
X123580300Y-90008482D01*
X123570066Y-89923263D01*
X123539203Y-89845000D01*
X127799634Y-89845000D01*
X127800171Y-89850795D01*
X127814782Y-90008482D01*
X127818534Y-90048968D01*
X127820126Y-90054566D01*
X127820127Y-90054567D01*
X127860930Y-90197976D01*
X127874592Y-90245991D01*
X127877185Y-90251198D01*
X127877186Y-90251201D01*
X127918349Y-90333867D01*
X127965898Y-90429358D01*
X127969406Y-90434004D01*
X127969409Y-90434008D01*
X128085830Y-90588175D01*
X128085834Y-90588179D01*
X128089343Y-90592826D01*
X128093645Y-90596748D01*
X128093648Y-90596751D01*
X128164964Y-90661764D01*
X128240723Y-90730827D01*
X128245674Y-90733892D01*
X128245676Y-90733894D01*
X128383324Y-90819122D01*
X128414884Y-90838663D01*
X128605894Y-90912660D01*
X128807248Y-90950300D01*
X129006263Y-90950300D01*
X129012090Y-90950300D01*
X129213444Y-90912660D01*
X129404454Y-90838663D01*
X129578615Y-90730827D01*
X129729995Y-90592826D01*
X129853440Y-90429358D01*
X129944746Y-90245991D01*
X130000804Y-90048968D01*
X130019704Y-89845000D01*
X130000804Y-89641032D01*
X129944746Y-89444009D01*
X129853440Y-89260642D01*
X129849119Y-89254920D01*
X129733507Y-89101824D01*
X129733504Y-89101820D01*
X129729995Y-89097174D01*
X129725692Y-89093251D01*
X129725689Y-89093248D01*
X129582917Y-88963095D01*
X129578615Y-88959173D01*
X129573665Y-88956108D01*
X129573661Y-88956105D01*
X129409413Y-88854407D01*
X129409408Y-88854405D01*
X129404454Y-88851337D01*
X129399023Y-88849233D01*
X129399019Y-88849231D01*
X129218873Y-88779443D01*
X129218871Y-88779442D01*
X129213444Y-88777340D01*
X129207722Y-88776270D01*
X129207721Y-88776270D01*
X129017814Y-88740770D01*
X129017813Y-88740769D01*
X129012090Y-88739700D01*
X128807248Y-88739700D01*
X128801525Y-88740769D01*
X128801523Y-88740770D01*
X128611616Y-88776270D01*
X128611612Y-88776271D01*
X128605894Y-88777340D01*
X128600469Y-88779441D01*
X128600464Y-88779443D01*
X128420318Y-88849231D01*
X128420310Y-88849234D01*
X128414884Y-88851337D01*
X128409933Y-88854402D01*
X128409924Y-88854407D01*
X128245676Y-88956105D01*
X128245666Y-88956111D01*
X128240723Y-88959173D01*
X128236424Y-88963091D01*
X128236420Y-88963095D01*
X128093648Y-89093248D01*
X128093640Y-89093256D01*
X128089343Y-89097174D01*
X128085838Y-89101814D01*
X128085830Y-89101824D01*
X127969409Y-89255991D01*
X127969403Y-89256000D01*
X127965898Y-89260642D01*
X127963304Y-89265849D01*
X127963301Y-89265856D01*
X127877186Y-89438798D01*
X127877183Y-89438804D01*
X127874592Y-89444009D01*
X127873000Y-89449602D01*
X127872998Y-89449609D01*
X127820127Y-89635432D01*
X127818534Y-89641032D01*
X127817997Y-89646824D01*
X127817997Y-89646826D01*
X127815711Y-89671496D01*
X127799634Y-89845000D01*
X123539203Y-89845000D01*
X123516588Y-89787651D01*
X123463898Y-89718170D01*
X123438843Y-89653760D01*
X123451535Y-89585819D01*
X123495789Y-89537383D01*
X123495722Y-89537298D01*
X123496248Y-89536881D01*
X123498156Y-89534794D01*
X123501485Y-89532740D01*
X123512921Y-89523697D01*
X123623697Y-89412921D01*
X123632744Y-89401480D01*
X123714994Y-89268132D01*
X123721154Y-89254920D01*
X123770581Y-89105762D01*
X123773442Y-89092398D01*
X123782674Y-89002028D01*
X123783000Y-88995639D01*
X123783000Y-88995590D01*
X123779493Y-88982506D01*
X123766410Y-88979000D01*
X122672000Y-88979000D01*
X122609000Y-88962119D01*
X122562881Y-88916000D01*
X122546000Y-88853000D01*
X122546000Y-88454410D01*
X123054000Y-88454410D01*
X123057506Y-88467493D01*
X123070590Y-88471000D01*
X123766410Y-88471000D01*
X123779493Y-88467493D01*
X123783000Y-88454410D01*
X123783000Y-88454362D01*
X123782674Y-88447971D01*
X123773442Y-88357601D01*
X123770581Y-88344237D01*
X123721154Y-88195079D01*
X123714994Y-88181867D01*
X123632744Y-88048519D01*
X123623697Y-88037078D01*
X123512921Y-87926302D01*
X123501480Y-87917255D01*
X123368132Y-87835005D01*
X123354920Y-87828845D01*
X123205762Y-87779418D01*
X123192398Y-87776557D01*
X123102028Y-87767325D01*
X123095639Y-87767000D01*
X123070590Y-87767000D01*
X123057506Y-87770506D01*
X123054000Y-87783590D01*
X123054000Y-88454410D01*
X122546000Y-88454410D01*
X122546000Y-87783590D01*
X122542493Y-87770506D01*
X122529410Y-87767000D01*
X122504361Y-87767000D01*
X122497971Y-87767325D01*
X122407601Y-87776557D01*
X122394237Y-87779418D01*
X122263933Y-87822598D01*
X122205133Y-87827528D01*
X122150536Y-87805145D01*
X122112117Y-87760360D01*
X122098300Y-87702994D01*
X122098300Y-84594155D01*
X122107891Y-84545937D01*
X122135202Y-84505062D01*
X123191526Y-83448737D01*
X123202033Y-83439347D01*
X123228478Y-83418260D01*
X123259333Y-83373001D01*
X123261997Y-83369247D01*
X123269729Y-83358771D01*
X123318146Y-83319273D01*
X123379585Y-83307891D01*
X123438937Y-83327426D01*
X123481607Y-83373072D01*
X123497100Y-83433605D01*
X123497100Y-86598046D01*
X123496308Y-86612153D01*
X123493579Y-86636364D01*
X123493579Y-86636372D01*
X123492523Y-86645747D01*
X123494277Y-86655022D01*
X123494278Y-86655024D01*
X123502698Y-86699532D01*
X123503486Y-86704172D01*
X123510232Y-86748926D01*
X123510233Y-86748930D01*
X123511640Y-86758262D01*
X123515217Y-86765689D01*
X123516750Y-86773792D01*
X123542337Y-86822206D01*
X123544439Y-86826371D01*
X123568182Y-86875674D01*
X123573790Y-86881718D01*
X123577643Y-86889008D01*
X123584321Y-86895686D01*
X123616333Y-86927698D01*
X123619602Y-86931091D01*
X123656821Y-86971203D01*
X123662655Y-86974571D01*
X123667837Y-86979202D01*
X124047142Y-87358507D01*
X124056558Y-87369042D01*
X124077640Y-87395478D01*
X124085435Y-87400793D01*
X124085440Y-87400797D01*
X124122866Y-87426313D01*
X124126694Y-87429029D01*
X124170719Y-87461520D01*
X124178499Y-87464242D01*
X124185313Y-87468888D01*
X124230262Y-87482753D01*
X124237598Y-87485016D01*
X124242074Y-87486489D01*
X124293723Y-87504562D01*
X124301964Y-87504870D01*
X124309841Y-87507300D01*
X124364549Y-87507300D01*
X124369260Y-87507388D01*
X124423949Y-87509434D01*
X124430460Y-87507689D01*
X124437394Y-87507300D01*
X125151475Y-87507300D01*
X125207638Y-87520509D01*
X125252025Y-87557368D01*
X125275330Y-87610148D01*
X125272665Y-87667782D01*
X125248354Y-87711427D01*
X125249343Y-87712174D01*
X125129409Y-87870991D01*
X125129403Y-87871000D01*
X125125898Y-87875642D01*
X125123304Y-87880849D01*
X125123301Y-87880856D01*
X125037186Y-88053798D01*
X125037183Y-88053804D01*
X125034592Y-88059009D01*
X125033000Y-88064602D01*
X125032998Y-88064609D01*
X124980250Y-88250000D01*
X124978534Y-88256032D01*
X124959634Y-88460000D01*
X124978534Y-88663968D01*
X124980126Y-88669566D01*
X124980127Y-88669567D01*
X125032718Y-88854407D01*
X125034592Y-88860991D01*
X125037185Y-88866198D01*
X125037186Y-88866201D01*
X125117254Y-89026999D01*
X125125898Y-89044358D01*
X125129406Y-89049004D01*
X125129409Y-89049008D01*
X125245830Y-89203175D01*
X125245834Y-89203179D01*
X125249343Y-89207826D01*
X125253645Y-89211748D01*
X125253648Y-89211751D01*
X125322837Y-89274825D01*
X125400723Y-89345827D01*
X125405674Y-89348892D01*
X125405676Y-89348894D01*
X125569924Y-89450592D01*
X125574884Y-89453663D01*
X125765894Y-89527660D01*
X125967248Y-89565300D01*
X126166263Y-89565300D01*
X126172090Y-89565300D01*
X126373444Y-89527660D01*
X126564454Y-89453663D01*
X126738615Y-89345827D01*
X126889995Y-89207826D01*
X127013440Y-89044358D01*
X127104746Y-88860991D01*
X127160804Y-88663968D01*
X127179704Y-88460000D01*
X127160804Y-88256032D01*
X127104746Y-88059009D01*
X127013440Y-87875642D01*
X126992406Y-87847789D01*
X126889995Y-87712174D01*
X126890983Y-87711427D01*
X126866673Y-87667782D01*
X126864008Y-87610148D01*
X126887313Y-87557368D01*
X126931700Y-87520509D01*
X126987863Y-87507300D01*
X127812166Y-87507300D01*
X127878497Y-87526173D01*
X127924957Y-87577137D01*
X127962473Y-87652481D01*
X127965898Y-87659358D01*
X127969406Y-87664004D01*
X127969409Y-87664008D01*
X128085830Y-87818175D01*
X128085834Y-87818179D01*
X128089343Y-87822826D01*
X128093645Y-87826748D01*
X128093648Y-87826751D01*
X128181272Y-87906630D01*
X128240723Y-87960827D01*
X128245674Y-87963892D01*
X128245676Y-87963894D01*
X128409924Y-88065592D01*
X128414884Y-88068663D01*
X128605894Y-88142660D01*
X128807248Y-88180300D01*
X129006263Y-88180300D01*
X129012090Y-88180300D01*
X129213444Y-88142660D01*
X129404454Y-88068663D01*
X129578615Y-87960827D01*
X129729995Y-87822826D01*
X129853440Y-87659358D01*
X129944746Y-87475991D01*
X130000804Y-87278968D01*
X130019704Y-87075000D01*
X130000804Y-86871032D01*
X129944746Y-86674009D01*
X129853440Y-86490642D01*
X129847079Y-86482218D01*
X129733507Y-86331824D01*
X129733504Y-86331820D01*
X129729995Y-86327174D01*
X129725689Y-86323248D01*
X129725684Y-86323243D01*
X129646892Y-86251415D01*
X129613465Y-86201638D01*
X129606830Y-86142046D01*
X129628490Y-86086135D01*
X129673539Y-86046567D01*
X129731777Y-86032300D01*
X129768646Y-86032300D01*
X129782753Y-86033092D01*
X129787414Y-86033617D01*
X129816347Y-86036877D01*
X129870116Y-86026703D01*
X129874737Y-86025917D01*
X129928862Y-86017760D01*
X129936289Y-86014182D01*
X129944392Y-86012650D01*
X129992829Y-85987049D01*
X129996927Y-85984980D01*
X130046274Y-85961218D01*
X130052318Y-85955609D01*
X130059608Y-85951757D01*
X130098335Y-85913028D01*
X130101673Y-85909812D01*
X130141803Y-85872579D01*
X130145173Y-85866739D01*
X130149787Y-85861576D01*
X130483517Y-85527845D01*
X130494033Y-85518447D01*
X130520478Y-85497360D01*
X130551329Y-85452107D01*
X130553992Y-85448353D01*
X130586520Y-85404282D01*
X130589243Y-85396499D01*
X130593888Y-85389687D01*
X130610017Y-85337392D01*
X130611489Y-85332921D01*
X130626441Y-85290193D01*
X130629561Y-85281278D01*
X130629869Y-85273039D01*
X130632300Y-85265159D01*
X130632300Y-85210425D01*
X130632388Y-85205714D01*
X130633412Y-85178336D01*
X130634433Y-85151052D01*
X130632689Y-85144543D01*
X130632300Y-85137613D01*
X130632300Y-79531354D01*
X130633092Y-79517247D01*
X130634607Y-79503800D01*
X130636877Y-79483653D01*
X130635069Y-79474100D01*
X130626707Y-79429903D01*
X130625917Y-79425257D01*
X130624512Y-79415934D01*
X130617760Y-79371138D01*
X130614182Y-79363710D01*
X130612650Y-79355608D01*
X130587064Y-79307199D01*
X130584986Y-79303082D01*
X130561218Y-79253726D01*
X130555607Y-79247679D01*
X130551756Y-79240392D01*
X130513076Y-79201712D01*
X130509808Y-79198320D01*
X130501418Y-79189278D01*
X130472579Y-79158197D01*
X130466740Y-79154826D01*
X130461557Y-79150193D01*
X129027857Y-77716492D01*
X129018441Y-77705956D01*
X129003248Y-77686905D01*
X129003246Y-77686904D01*
X128997360Y-77679522D01*
X128952148Y-77648697D01*
X128948320Y-77645981D01*
X128911879Y-77619087D01*
X128904282Y-77613480D01*
X128896499Y-77610756D01*
X128889687Y-77606112D01*
X128880665Y-77603329D01*
X128880661Y-77603327D01*
X128837407Y-77589984D01*
X128832934Y-77588513D01*
X128790187Y-77573555D01*
X128790184Y-77573554D01*
X128781278Y-77570438D01*
X128773035Y-77570129D01*
X128765159Y-77567700D01*
X128755721Y-77567700D01*
X128710451Y-77567700D01*
X128705740Y-77567612D01*
X128660489Y-77565919D01*
X128651051Y-77565566D01*
X128644539Y-77567310D01*
X128637606Y-77567700D01*
X126431255Y-77567700D01*
X126383037Y-77558109D01*
X126342160Y-77530795D01*
X126314054Y-77502689D01*
X126283795Y-77453975D01*
X126278260Y-77396895D01*
X126298597Y-77343275D01*
X126340591Y-77304221D01*
X126395542Y-77287824D01*
X126408498Y-77287040D01*
X126416944Y-77286530D01*
X126424549Y-77286300D01*
X129163536Y-77286300D01*
X129211754Y-77295891D01*
G37*
%TD.AperFunction*%
%TA.AperFunction,Conductor*%
G36*
X117203582Y-94507964D02*
G01*
X117260481Y-94547876D01*
X117287562Y-94611884D01*
X117291984Y-94648307D01*
X117293165Y-94658029D01*
X117295865Y-94665149D01*
X117295867Y-94665156D01*
X117337511Y-94774960D01*
X117353901Y-94818177D01*
X117358229Y-94824447D01*
X117358230Y-94824449D01*
X117446870Y-94952865D01*
X117451198Y-94959135D01*
X117579401Y-95072714D01*
X117731060Y-95152310D01*
X117897361Y-95193300D01*
X118061022Y-95193300D01*
X118068639Y-95193300D01*
X118234940Y-95152310D01*
X118241687Y-95148768D01*
X118241692Y-95148767D01*
X118255147Y-95141706D01*
X118317507Y-95127332D01*
X118378885Y-95145446D01*
X118423448Y-95191376D01*
X118439700Y-95253274D01*
X118439700Y-95726646D01*
X118438908Y-95740753D01*
X118436179Y-95764964D01*
X118436179Y-95764972D01*
X118435123Y-95774347D01*
X118436877Y-95783622D01*
X118436878Y-95783624D01*
X118445298Y-95828132D01*
X118446086Y-95832772D01*
X118452832Y-95877526D01*
X118452833Y-95877530D01*
X118454240Y-95886862D01*
X118457817Y-95894289D01*
X118459350Y-95902392D01*
X118484937Y-95950806D01*
X118487039Y-95954971D01*
X118510782Y-96004274D01*
X118516390Y-96010318D01*
X118520243Y-96017608D01*
X118526920Y-96024285D01*
X118526921Y-96024286D01*
X118558933Y-96056298D01*
X118562202Y-96059691D01*
X118599421Y-96099803D01*
X118605255Y-96103171D01*
X118610437Y-96107802D01*
X119882795Y-97380160D01*
X119910109Y-97421037D01*
X119919700Y-97469255D01*
X119919700Y-97506438D01*
X119904356Y-97566698D01*
X119862061Y-97612281D01*
X119803116Y-97632086D01*
X119758957Y-97635395D01*
X119758954Y-97635395D01*
X119749542Y-97636101D01*
X119740755Y-97639549D01*
X119740749Y-97639551D01*
X119648590Y-97675721D01*
X119593142Y-97684079D01*
X119539559Y-97667551D01*
X119528395Y-97661106D01*
X119528393Y-97661105D01*
X119520219Y-97656386D01*
X119511020Y-97654286D01*
X119511017Y-97654285D01*
X119395615Y-97627945D01*
X119395613Y-97627944D01*
X119386409Y-97625844D01*
X119376996Y-97626549D01*
X119376992Y-97626549D01*
X119258957Y-97635395D01*
X119258954Y-97635395D01*
X119249542Y-97636101D01*
X119240755Y-97639549D01*
X119240749Y-97639551D01*
X119148590Y-97675721D01*
X119093142Y-97684079D01*
X119039559Y-97667551D01*
X119028395Y-97661106D01*
X119028393Y-97661105D01*
X119020219Y-97656386D01*
X119011020Y-97654286D01*
X119011017Y-97654285D01*
X118895615Y-97627945D01*
X118895613Y-97627944D01*
X118886409Y-97625844D01*
X118876996Y-97626549D01*
X118876992Y-97626549D01*
X118758957Y-97635395D01*
X118758954Y-97635395D01*
X118749542Y-97636101D01*
X118740755Y-97639549D01*
X118740749Y-97639551D01*
X118648590Y-97675721D01*
X118593142Y-97684079D01*
X118539559Y-97667551D01*
X118528395Y-97661106D01*
X118528393Y-97661105D01*
X118520219Y-97656386D01*
X118511020Y-97654286D01*
X118511017Y-97654285D01*
X118395615Y-97627945D01*
X118395613Y-97627944D01*
X118386409Y-97625844D01*
X118376996Y-97626549D01*
X118376992Y-97626549D01*
X118258957Y-97635395D01*
X118258954Y-97635395D01*
X118249542Y-97636101D01*
X118240755Y-97639549D01*
X118240749Y-97639551D01*
X118148590Y-97675721D01*
X118093142Y-97684079D01*
X118039559Y-97667551D01*
X118028395Y-97661106D01*
X118028393Y-97661105D01*
X118020219Y-97656386D01*
X118011020Y-97654286D01*
X118011017Y-97654285D01*
X117895615Y-97627945D01*
X117895613Y-97627944D01*
X117886409Y-97625844D01*
X117876996Y-97626549D01*
X117876992Y-97626549D01*
X117758957Y-97635395D01*
X117758954Y-97635395D01*
X117749542Y-97636101D01*
X117740755Y-97639549D01*
X117740749Y-97639551D01*
X117648590Y-97675721D01*
X117593142Y-97684079D01*
X117539559Y-97667551D01*
X117528395Y-97661106D01*
X117528393Y-97661105D01*
X117520219Y-97656386D01*
X117511020Y-97654286D01*
X117511017Y-97654285D01*
X117395615Y-97627945D01*
X117395613Y-97627944D01*
X117386409Y-97625844D01*
X117376996Y-97626549D01*
X117376992Y-97626549D01*
X117258957Y-97635395D01*
X117258954Y-97635395D01*
X117249542Y-97636101D01*
X117240755Y-97639549D01*
X117240749Y-97639551D01*
X117148590Y-97675721D01*
X117093142Y-97684079D01*
X117039559Y-97667551D01*
X117028395Y-97661106D01*
X117028393Y-97661105D01*
X117020219Y-97656386D01*
X117011020Y-97654286D01*
X117011017Y-97654285D01*
X116895615Y-97627945D01*
X116895613Y-97627944D01*
X116886409Y-97625844D01*
X116876996Y-97626549D01*
X116876992Y-97626549D01*
X116758957Y-97635395D01*
X116758954Y-97635395D01*
X116749542Y-97636101D01*
X116740755Y-97639549D01*
X116740749Y-97639551D01*
X116648590Y-97675721D01*
X116593142Y-97684079D01*
X116539559Y-97667551D01*
X116528395Y-97661106D01*
X116528393Y-97661105D01*
X116520219Y-97656386D01*
X116511020Y-97654286D01*
X116511017Y-97654285D01*
X116395615Y-97627945D01*
X116395613Y-97627944D01*
X116386409Y-97625844D01*
X116376996Y-97626549D01*
X116376992Y-97626549D01*
X116258957Y-97635395D01*
X116258954Y-97635395D01*
X116249542Y-97636101D01*
X116240755Y-97639549D01*
X116240749Y-97639551D01*
X116148590Y-97675721D01*
X116093142Y-97684079D01*
X116039559Y-97667551D01*
X116028395Y-97661106D01*
X116028393Y-97661105D01*
X116020219Y-97656386D01*
X116011020Y-97654286D01*
X116011017Y-97654285D01*
X115895609Y-97627943D01*
X115895603Y-97627942D01*
X115886409Y-97625844D01*
X115886207Y-97625859D01*
X115838534Y-97611152D01*
X115797430Y-97573011D01*
X115776945Y-97520812D01*
X115776261Y-97516271D01*
X115769760Y-97473138D01*
X115766183Y-97465710D01*
X115764650Y-97457608D01*
X115739070Y-97409208D01*
X115736964Y-97405037D01*
X115735572Y-97402147D01*
X115713218Y-97355726D01*
X115707609Y-97349681D01*
X115703757Y-97342392D01*
X115665065Y-97303700D01*
X115661796Y-97300307D01*
X115651785Y-97289518D01*
X115624579Y-97260197D01*
X115618742Y-97256826D01*
X115613562Y-97252197D01*
X115577853Y-97216488D01*
X115568437Y-97205952D01*
X115553247Y-97186904D01*
X115553246Y-97186903D01*
X115547360Y-97179522D01*
X115502148Y-97148697D01*
X115498320Y-97145981D01*
X115476612Y-97129960D01*
X115454282Y-97113480D01*
X115446499Y-97110756D01*
X115439687Y-97106112D01*
X115430665Y-97103329D01*
X115430661Y-97103327D01*
X115387407Y-97089984D01*
X115382934Y-97088513D01*
X115340187Y-97073555D01*
X115340184Y-97073554D01*
X115331278Y-97070438D01*
X115323035Y-97070129D01*
X115315159Y-97067700D01*
X115305721Y-97067700D01*
X115260451Y-97067700D01*
X115255740Y-97067612D01*
X115210489Y-97065919D01*
X115201051Y-97065566D01*
X115194539Y-97067310D01*
X115187606Y-97067700D01*
X114531354Y-97067700D01*
X114517247Y-97066908D01*
X114493032Y-97064179D01*
X114493026Y-97064179D01*
X114483653Y-97063123D01*
X114480202Y-97063775D01*
X114433726Y-97055879D01*
X114390668Y-97027689D01*
X114362473Y-96984637D01*
X114361281Y-96981599D01*
X114352919Y-96926146D01*
X114369449Y-96872555D01*
X114380614Y-96853219D01*
X114411156Y-96719409D01*
X114400899Y-96582542D01*
X114361277Y-96481590D01*
X114352920Y-96426141D01*
X114369448Y-96372558D01*
X114380614Y-96353219D01*
X114411156Y-96219409D01*
X114400899Y-96082542D01*
X114361277Y-95981590D01*
X114352920Y-95926141D01*
X114369448Y-95872558D01*
X114380614Y-95853219D01*
X114411156Y-95719409D01*
X114413354Y-95719910D01*
X114428467Y-95674935D01*
X114474050Y-95632643D01*
X114534308Y-95617300D01*
X115783646Y-95617300D01*
X115797753Y-95618092D01*
X115802414Y-95618617D01*
X115831347Y-95621877D01*
X115885116Y-95611703D01*
X115889737Y-95610917D01*
X115943862Y-95602760D01*
X115951289Y-95599182D01*
X115959392Y-95597650D01*
X116007829Y-95572049D01*
X116011927Y-95569980D01*
X116061274Y-95546218D01*
X116067318Y-95540609D01*
X116074608Y-95536757D01*
X116113336Y-95498027D01*
X116116674Y-95494812D01*
X116156803Y-95457579D01*
X116160173Y-95451740D01*
X116164792Y-95446571D01*
X117073388Y-94537975D01*
X117134178Y-94504292D01*
X117203582Y-94507964D01*
G37*
%TD.AperFunction*%
%TA.AperFunction,Conductor*%
G36*
X116211007Y-92144472D02*
G01*
X116257390Y-92193745D01*
X116271592Y-92259908D01*
X116249518Y-92323876D01*
X116215233Y-92373545D01*
X116215228Y-92373553D01*
X116210901Y-92379823D01*
X116208198Y-92386949D01*
X116208197Y-92386952D01*
X116152867Y-92532843D01*
X116152864Y-92532852D01*
X116150165Y-92539971D01*
X116149246Y-92547538D01*
X116149246Y-92547539D01*
X116130515Y-92701807D01*
X116129520Y-92710000D01*
X116130439Y-92717569D01*
X116132812Y-92737114D01*
X116150165Y-92880029D01*
X116152865Y-92887149D01*
X116152867Y-92887156D01*
X116192604Y-92991932D01*
X116210901Y-93040177D01*
X116215229Y-93046447D01*
X116215230Y-93046449D01*
X116300390Y-93169823D01*
X116308198Y-93181135D01*
X116338855Y-93208295D01*
X116365254Y-93231683D01*
X116396600Y-93274283D01*
X116407700Y-93325995D01*
X116407700Y-93928745D01*
X116398109Y-93976963D01*
X116370795Y-94017840D01*
X115672840Y-94715795D01*
X115631963Y-94743109D01*
X115583745Y-94752700D01*
X114604098Y-94752700D01*
X114536584Y-94733086D01*
X114490090Y-94680350D01*
X114479091Y-94610910D01*
X114503773Y-94553869D01*
X114502683Y-94553178D01*
X114515358Y-94533204D01*
X114579393Y-94397122D01*
X114584254Y-94382161D01*
X114590644Y-94348666D01*
X114590291Y-94337447D01*
X114579342Y-94335000D01*
X114285754Y-94335000D01*
X114248614Y-94329402D01*
X114214775Y-94313105D01*
X114180793Y-94289936D01*
X114138249Y-94240498D01*
X114126125Y-94176411D01*
X114147669Y-94114848D01*
X114197106Y-94072308D01*
X114211377Y-94065436D01*
X114218299Y-94059013D01*
X114221406Y-94056895D01*
X114255245Y-94040598D01*
X114292385Y-94035000D01*
X114580210Y-94035000D01*
X114593499Y-94031809D01*
X114608515Y-94018985D01*
X114661672Y-93992101D01*
X114721238Y-93992641D01*
X114773899Y-94020482D01*
X114846401Y-94084714D01*
X114853143Y-94088252D01*
X114853144Y-94088253D01*
X114985700Y-94157823D01*
X114998060Y-94164310D01*
X115164361Y-94205300D01*
X115328022Y-94205300D01*
X115335639Y-94205300D01*
X115501940Y-94164310D01*
X115653599Y-94084714D01*
X115781802Y-93971135D01*
X115879099Y-93830177D01*
X115939835Y-93670029D01*
X115960480Y-93500000D01*
X115939835Y-93329971D01*
X115934574Y-93316100D01*
X115902635Y-93231883D01*
X115879099Y-93169823D01*
X115781802Y-93028865D01*
X115653599Y-92915286D01*
X115646858Y-92911748D01*
X115646855Y-92911746D01*
X115508684Y-92839229D01*
X115508680Y-92839227D01*
X115501940Y-92835690D01*
X115421153Y-92815777D01*
X115343032Y-92796522D01*
X115343030Y-92796521D01*
X115335639Y-92794700D01*
X115164361Y-92794700D01*
X115164004Y-92794787D01*
X115115858Y-92790481D01*
X115071758Y-92776878D01*
X115067294Y-92775409D01*
X115043012Y-92766913D01*
X115024811Y-92760544D01*
X115024808Y-92760543D01*
X115015902Y-92757427D01*
X115007703Y-92757120D01*
X114999857Y-92754700D01*
X114990416Y-92754700D01*
X114945395Y-92754700D01*
X114940683Y-92754612D01*
X114895713Y-92752929D01*
X114886278Y-92752576D01*
X114879790Y-92754314D01*
X114872919Y-92754700D01*
X114530712Y-92754700D01*
X114470452Y-92739356D01*
X114424869Y-92697061D01*
X114405064Y-92638117D01*
X114404360Y-92628722D01*
X114400899Y-92582542D01*
X114361277Y-92481590D01*
X114352920Y-92426141D01*
X114369448Y-92372558D01*
X114380614Y-92353219D01*
X114380809Y-92352362D01*
X114420368Y-92300755D01*
X114485630Y-92276432D01*
X114553844Y-92290493D01*
X114603911Y-92316770D01*
X114683060Y-92358310D01*
X114849361Y-92399300D01*
X115013022Y-92399300D01*
X115020639Y-92399300D01*
X115186940Y-92358310D01*
X115338599Y-92278714D01*
X115466802Y-92165135D01*
X115466991Y-92165349D01*
X115504977Y-92137400D01*
X115556688Y-92126300D01*
X116145822Y-92126300D01*
X116211007Y-92144472D01*
G37*
%TD.AperFunction*%
%TA.AperFunction,Conductor*%
G36*
X114441894Y-70804033D02*
G01*
X114486627Y-70842239D01*
X114509140Y-70896589D01*
X114504524Y-70955236D01*
X114479502Y-70996066D01*
X114480848Y-70997130D01*
X114467255Y-71014319D01*
X114385005Y-71147667D01*
X114378845Y-71160879D01*
X114329418Y-71310037D01*
X114326557Y-71323401D01*
X114317325Y-71413771D01*
X114317000Y-71420162D01*
X114317000Y-71445210D01*
X114320506Y-71458293D01*
X114333590Y-71461800D01*
X115403000Y-71461800D01*
X115466000Y-71478681D01*
X115512119Y-71524800D01*
X115529000Y-71587800D01*
X115529000Y-72682210D01*
X115532506Y-72695293D01*
X115545590Y-72698800D01*
X115545639Y-72698800D01*
X115552028Y-72698474D01*
X115642398Y-72689242D01*
X115655762Y-72686381D01*
X115804920Y-72636954D01*
X115818132Y-72630794D01*
X115951480Y-72548544D01*
X115962921Y-72539497D01*
X116073697Y-72428721D01*
X116082740Y-72417285D01*
X116084794Y-72413956D01*
X116086881Y-72412048D01*
X116087298Y-72411522D01*
X116087383Y-72411589D01*
X116135819Y-72367335D01*
X116203760Y-72354643D01*
X116268170Y-72379698D01*
X116337651Y-72432388D01*
X116473263Y-72485866D01*
X116558482Y-72496100D01*
X117087751Y-72496100D01*
X117091518Y-72496100D01*
X117158749Y-72488026D01*
X117214952Y-72494046D01*
X117262867Y-72524032D01*
X117780795Y-73041960D01*
X117808109Y-73082837D01*
X117817700Y-73131055D01*
X117817700Y-74002545D01*
X117808108Y-74050766D01*
X117780792Y-74091644D01*
X117769005Y-74103430D01*
X117716597Y-74134873D01*
X117655558Y-74137955D01*
X117600249Y-74111951D01*
X117563683Y-74062979D01*
X117554464Y-74002562D01*
X117555026Y-73996570D01*
X117555026Y-73996563D01*
X117555300Y-73993646D01*
X117555300Y-73583954D01*
X117552416Y-73553198D01*
X117507085Y-73423649D01*
X117425582Y-73313218D01*
X117315151Y-73231715D01*
X117306238Y-73228596D01*
X117306236Y-73228595D01*
X117192838Y-73188916D01*
X117185602Y-73186384D01*
X117177972Y-73185668D01*
X117177970Y-73185668D01*
X117157763Y-73183773D01*
X117157751Y-73183772D01*
X117154846Y-73183500D01*
X115395154Y-73183500D01*
X115392249Y-73183772D01*
X115392236Y-73183773D01*
X115372029Y-73185668D01*
X115372025Y-73185668D01*
X115364398Y-73186384D01*
X115357163Y-73188915D01*
X115357161Y-73188916D01*
X115243763Y-73228595D01*
X115243758Y-73228597D01*
X115234849Y-73231715D01*
X115227254Y-73237320D01*
X115227251Y-73237322D01*
X115132010Y-73307614D01*
X115132007Y-73307616D01*
X115124418Y-73313218D01*
X115119401Y-73320014D01*
X115079153Y-73346909D01*
X115030935Y-73356500D01*
X114976055Y-73356500D01*
X114927837Y-73346909D01*
X114886959Y-73319595D01*
X114624864Y-73057500D01*
X114332852Y-72765487D01*
X114323437Y-72754951D01*
X114308248Y-72735905D01*
X114308246Y-72735904D01*
X114302360Y-72728522D01*
X114257148Y-72697697D01*
X114253320Y-72694981D01*
X114222783Y-72672444D01*
X114209282Y-72662480D01*
X114201499Y-72659756D01*
X114194687Y-72655112D01*
X114185665Y-72652329D01*
X114185661Y-72652327D01*
X114142407Y-72638984D01*
X114137934Y-72637513D01*
X114095187Y-72622555D01*
X114095184Y-72622554D01*
X114086278Y-72619438D01*
X114078035Y-72619129D01*
X114070159Y-72616700D01*
X114060721Y-72616700D01*
X114051388Y-72615294D01*
X114051910Y-72611825D01*
X114006277Y-72599458D01*
X113968033Y-72560554D01*
X113966588Y-72561651D01*
X113878504Y-72445496D01*
X113834397Y-72412048D01*
X113769217Y-72362620D01*
X113769215Y-72362619D01*
X113762349Y-72357412D01*
X113754331Y-72354250D01*
X113754329Y-72354249D01*
X113634251Y-72306897D01*
X113634250Y-72306896D01*
X113626737Y-72303934D01*
X113618723Y-72302971D01*
X113618717Y-72302970D01*
X113545259Y-72294149D01*
X113545254Y-72294148D01*
X113541518Y-72293700D01*
X112958482Y-72293700D01*
X112954746Y-72294148D01*
X112954740Y-72294149D01*
X112881282Y-72302970D01*
X112881274Y-72302971D01*
X112873263Y-72303934D01*
X112865751Y-72306896D01*
X112865748Y-72306897D01*
X112745670Y-72354249D01*
X112745665Y-72354251D01*
X112737651Y-72357412D01*
X112730786Y-72362617D01*
X112730782Y-72362620D01*
X112628360Y-72440290D01*
X112628356Y-72440293D01*
X112621496Y-72445496D01*
X112616293Y-72452356D01*
X112616290Y-72452360D01*
X112538620Y-72554782D01*
X112538617Y-72554786D01*
X112533412Y-72561651D01*
X112530251Y-72569665D01*
X112530249Y-72569670D01*
X112482897Y-72689748D01*
X112482896Y-72689751D01*
X112479934Y-72697263D01*
X112478971Y-72705274D01*
X112478970Y-72705282D01*
X112470149Y-72778740D01*
X112469700Y-72782482D01*
X112469700Y-73315518D01*
X112470148Y-73319254D01*
X112470149Y-73319259D01*
X112478970Y-73392717D01*
X112478971Y-73392723D01*
X112479934Y-73400737D01*
X112482896Y-73408250D01*
X112482897Y-73408251D01*
X112522958Y-73509841D01*
X112533412Y-73536349D01*
X112538619Y-73543215D01*
X112538620Y-73543217D01*
X112616290Y-73645639D01*
X112621496Y-73652504D01*
X112645302Y-73670557D01*
X112715253Y-73723603D01*
X112751966Y-73767951D01*
X112765119Y-73824000D01*
X112751966Y-73880049D01*
X112715253Y-73924397D01*
X112628360Y-73990290D01*
X112628356Y-73990293D01*
X112621496Y-73995496D01*
X112616293Y-74002356D01*
X112616290Y-74002360D01*
X112538620Y-74104782D01*
X112538617Y-74104786D01*
X112533412Y-74111651D01*
X112530251Y-74119665D01*
X112530249Y-74119670D01*
X112482897Y-74239748D01*
X112482896Y-74239751D01*
X112479934Y-74247263D01*
X112478971Y-74255274D01*
X112478970Y-74255282D01*
X112470456Y-74326183D01*
X112469700Y-74332482D01*
X112469700Y-74865518D01*
X112470148Y-74869254D01*
X112470149Y-74869259D01*
X112478970Y-74942717D01*
X112478971Y-74942723D01*
X112479934Y-74950737D01*
X112482896Y-74958250D01*
X112482897Y-74958251D01*
X112510410Y-75028021D01*
X112533412Y-75086349D01*
X112538619Y-75093215D01*
X112538620Y-75093217D01*
X112616290Y-75195639D01*
X112621496Y-75202504D01*
X112737651Y-75290588D01*
X112873263Y-75344066D01*
X112958482Y-75354300D01*
X113341745Y-75354300D01*
X113389963Y-75363891D01*
X113430840Y-75391205D01*
X113679165Y-75639530D01*
X113710799Y-75692564D01*
X113713435Y-75754260D01*
X113686438Y-75809798D01*
X113636295Y-75845840D01*
X113575048Y-75853726D01*
X113545262Y-75850149D01*
X113545251Y-75850148D01*
X113541518Y-75849700D01*
X112958482Y-75849700D01*
X112954746Y-75850148D01*
X112954740Y-75850149D01*
X112881282Y-75858970D01*
X112881274Y-75858971D01*
X112873263Y-75859934D01*
X112865751Y-75862896D01*
X112865748Y-75862897D01*
X112745670Y-75910249D01*
X112745665Y-75910251D01*
X112737651Y-75913412D01*
X112730786Y-75918617D01*
X112730782Y-75918620D01*
X112628360Y-75996290D01*
X112628356Y-75996293D01*
X112621496Y-76001496D01*
X112616293Y-76008356D01*
X112616290Y-76008360D01*
X112538620Y-76110782D01*
X112538617Y-76110786D01*
X112533412Y-76117651D01*
X112530251Y-76125665D01*
X112530249Y-76125670D01*
X112482897Y-76245748D01*
X112482896Y-76245751D01*
X112479934Y-76253263D01*
X112478971Y-76261274D01*
X112478970Y-76261282D01*
X112471474Y-76323710D01*
X112469700Y-76338482D01*
X112469700Y-76871518D01*
X112470148Y-76875254D01*
X112470149Y-76875259D01*
X112478970Y-76948717D01*
X112478971Y-76948723D01*
X112479934Y-76956737D01*
X112482896Y-76964250D01*
X112482897Y-76964251D01*
X112522697Y-77065179D01*
X112533412Y-77092349D01*
X112538619Y-77099215D01*
X112538620Y-77099217D01*
X112584005Y-77159065D01*
X112621496Y-77208504D01*
X112655774Y-77234498D01*
X112715253Y-77279603D01*
X112751966Y-77323951D01*
X112765119Y-77380000D01*
X112751966Y-77436049D01*
X112715253Y-77480397D01*
X112628360Y-77546290D01*
X112628356Y-77546293D01*
X112621496Y-77551496D01*
X112616293Y-77558356D01*
X112616290Y-77558360D01*
X112538620Y-77660782D01*
X112538617Y-77660786D01*
X112533412Y-77667651D01*
X112530251Y-77675665D01*
X112530249Y-77675670D01*
X112482897Y-77795748D01*
X112482896Y-77795751D01*
X112479934Y-77803263D01*
X112478971Y-77811274D01*
X112478970Y-77811282D01*
X112472009Y-77869254D01*
X112469700Y-77888482D01*
X112469700Y-78421518D01*
X112470148Y-78425254D01*
X112470149Y-78425259D01*
X112478970Y-78498717D01*
X112478971Y-78498723D01*
X112479934Y-78506737D01*
X112482896Y-78514250D01*
X112482897Y-78514251D01*
X112492241Y-78537947D01*
X112533412Y-78642349D01*
X112538619Y-78649215D01*
X112538620Y-78649217D01*
X112568915Y-78689166D01*
X112621496Y-78758504D01*
X112737651Y-78846588D01*
X112873263Y-78900066D01*
X112958482Y-78910300D01*
X113537751Y-78910300D01*
X113541518Y-78910300D01*
X113626737Y-78900066D01*
X113762349Y-78846588D01*
X113878504Y-78758504D01*
X113966588Y-78642349D01*
X113968562Y-78637342D01*
X114013589Y-78591541D01*
X114077209Y-78574300D01*
X114294744Y-78574300D01*
X114342962Y-78583891D01*
X114383839Y-78611204D01*
X114924942Y-79152306D01*
X114934358Y-79162842D01*
X114955440Y-79189278D01*
X115000675Y-79220119D01*
X115004489Y-79222824D01*
X115010936Y-79227583D01*
X115048519Y-79255321D01*
X115047635Y-79256517D01*
X115080340Y-79284659D01*
X115106813Y-79320529D01*
X115124418Y-79344382D01*
X115132010Y-79349985D01*
X115132012Y-79349987D01*
X115203057Y-79402422D01*
X115240714Y-79447018D01*
X115254234Y-79503800D01*
X115240714Y-79560582D01*
X115203057Y-79605178D01*
X115132012Y-79657612D01*
X115132007Y-79657616D01*
X115124418Y-79663218D01*
X115119401Y-79670014D01*
X115079153Y-79696909D01*
X115030935Y-79706500D01*
X114351362Y-79706500D01*
X114337255Y-79705708D01*
X114313036Y-79702979D01*
X114313034Y-79702979D01*
X114303653Y-79701922D01*
X114294379Y-79703676D01*
X114294372Y-79703677D01*
X114249892Y-79712094D01*
X114245247Y-79712884D01*
X114200466Y-79719633D01*
X114200459Y-79719634D01*
X114191138Y-79721040D01*
X114185063Y-79723964D01*
X114178372Y-79725625D01*
X114175646Y-79726142D01*
X114175351Y-79724590D01*
X114151165Y-79728700D01*
X114075899Y-79728700D01*
X114012277Y-79711458D01*
X113974033Y-79672554D01*
X113972588Y-79673651D01*
X113884504Y-79557496D01*
X113799503Y-79493037D01*
X113775217Y-79474620D01*
X113775215Y-79474619D01*
X113768349Y-79469412D01*
X113760331Y-79466250D01*
X113760329Y-79466249D01*
X113640251Y-79418897D01*
X113640250Y-79418896D01*
X113632737Y-79415934D01*
X113624723Y-79414971D01*
X113624717Y-79414970D01*
X113551259Y-79406149D01*
X113551254Y-79406148D01*
X113547518Y-79405700D01*
X112964482Y-79405700D01*
X112960746Y-79406148D01*
X112960740Y-79406149D01*
X112887282Y-79414970D01*
X112887274Y-79414971D01*
X112879263Y-79415934D01*
X112871751Y-79418896D01*
X112871748Y-79418897D01*
X112751670Y-79466249D01*
X112751665Y-79466251D01*
X112743651Y-79469412D01*
X112736786Y-79474617D01*
X112736782Y-79474620D01*
X112634360Y-79552290D01*
X112634356Y-79552293D01*
X112627496Y-79557496D01*
X112622293Y-79564356D01*
X112622290Y-79564360D01*
X112544620Y-79666782D01*
X112544617Y-79666786D01*
X112539412Y-79673651D01*
X112536251Y-79681665D01*
X112536249Y-79681670D01*
X112488897Y-79801748D01*
X112488896Y-79801751D01*
X112485934Y-79809263D01*
X112484971Y-79817274D01*
X112484970Y-79817282D01*
X112476149Y-79890740D01*
X112475700Y-79894482D01*
X112475700Y-80427518D01*
X112476148Y-80431254D01*
X112476149Y-80431259D01*
X112484970Y-80504717D01*
X112484971Y-80504723D01*
X112485934Y-80512737D01*
X112488896Y-80520250D01*
X112488897Y-80520251D01*
X112528227Y-80619987D01*
X112539412Y-80648349D01*
X112592100Y-80717828D01*
X112617155Y-80782234D01*
X112604469Y-80850171D01*
X112560211Y-80898618D01*
X112560278Y-80898702D01*
X112559763Y-80899108D01*
X112557856Y-80901197D01*
X112554520Y-80903254D01*
X112543078Y-80912302D01*
X112432302Y-81023078D01*
X112423255Y-81034519D01*
X112341005Y-81167867D01*
X112334845Y-81181079D01*
X112285418Y-81330237D01*
X112282557Y-81343601D01*
X112273325Y-81433971D01*
X112273000Y-81440362D01*
X112273000Y-81440410D01*
X112276506Y-81453493D01*
X112289590Y-81457000D01*
X113384000Y-81457000D01*
X113447000Y-81473881D01*
X113493119Y-81520000D01*
X113510000Y-81583000D01*
X113510000Y-82652410D01*
X113513506Y-82665493D01*
X113526590Y-82669000D01*
X113551639Y-82669000D01*
X113558028Y-82668674D01*
X113648398Y-82659442D01*
X113661762Y-82656581D01*
X113810921Y-82607154D01*
X113812855Y-82606253D01*
X113814668Y-82605912D01*
X113817888Y-82604846D01*
X113818032Y-82605281D01*
X113874345Y-82594720D01*
X113933802Y-82614184D01*
X113976568Y-82659847D01*
X113992100Y-82720450D01*
X113992100Y-82893046D01*
X113991308Y-82907153D01*
X113988579Y-82931364D01*
X113988579Y-82931372D01*
X113987523Y-82940747D01*
X113989277Y-82950022D01*
X113989278Y-82950024D01*
X113997698Y-82994532D01*
X113998486Y-82999172D01*
X114005232Y-83043926D01*
X114005233Y-83043930D01*
X114006640Y-83053262D01*
X114010217Y-83060689D01*
X114011750Y-83068792D01*
X114037337Y-83117206D01*
X114039439Y-83121371D01*
X114063182Y-83170674D01*
X114068790Y-83176718D01*
X114072643Y-83184008D01*
X114079321Y-83190686D01*
X114111332Y-83222697D01*
X114114601Y-83226090D01*
X114142408Y-83256059D01*
X114151821Y-83266203D01*
X114157655Y-83269571D01*
X114162832Y-83274197D01*
X114672142Y-83783506D01*
X114681558Y-83794042D01*
X114702640Y-83820478D01*
X114747875Y-83851319D01*
X114751689Y-83854024D01*
X114795718Y-83886520D01*
X114803500Y-83889243D01*
X114810313Y-83893888D01*
X114862339Y-83909935D01*
X114862604Y-83910017D01*
X114867083Y-83911491D01*
X114918722Y-83929561D01*
X114918131Y-83931249D01*
X114968029Y-83955855D01*
X115004473Y-84012666D01*
X115006368Y-84080135D01*
X114973169Y-84138902D01*
X114967850Y-84144220D01*
X114964000Y-84158590D01*
X114964000Y-86841410D01*
X114967506Y-86854493D01*
X114980590Y-86858000D01*
X115441700Y-86858000D01*
X115504700Y-86874881D01*
X115550819Y-86921000D01*
X115567700Y-86984000D01*
X115567700Y-87673872D01*
X115556600Y-87725583D01*
X115525255Y-87768183D01*
X115518902Y-87773811D01*
X115518899Y-87773814D01*
X115513198Y-87778865D01*
X115508873Y-87785129D01*
X115508870Y-87785134D01*
X115420230Y-87913550D01*
X115420226Y-87913555D01*
X115415901Y-87919823D01*
X115413199Y-87926945D01*
X115413198Y-87926949D01*
X115379222Y-88016537D01*
X115343529Y-88067420D01*
X115287855Y-88095050D01*
X115225746Y-88092703D01*
X115172315Y-88060951D01*
X114184460Y-87073095D01*
X114153722Y-87022936D01*
X114149106Y-86964289D01*
X114171619Y-86909939D01*
X114216352Y-86871733D01*
X114273555Y-86858000D01*
X114439410Y-86858000D01*
X114452493Y-86854493D01*
X114456000Y-86841410D01*
X114456000Y-85770590D01*
X114452493Y-85757506D01*
X114439410Y-85754000D01*
X113368590Y-85754000D01*
X113355506Y-85757506D01*
X113352000Y-85770590D01*
X113352000Y-85985455D01*
X113338480Y-86042238D01*
X113300820Y-86086835D01*
X113247104Y-86109675D01*
X113188858Y-86105856D01*
X113137406Y-86089984D01*
X113132934Y-86088513D01*
X113090187Y-86073555D01*
X113090184Y-86073554D01*
X113081278Y-86070438D01*
X113073035Y-86070129D01*
X113065159Y-86067700D01*
X113055721Y-86067700D01*
X113010451Y-86067700D01*
X113005740Y-86067612D01*
X112960489Y-86065919D01*
X112951051Y-86065566D01*
X112944539Y-86067310D01*
X112937606Y-86067700D01*
X112871330Y-86067700D01*
X112818226Y-86055963D01*
X112775015Y-86022937D01*
X112752460Y-85979944D01*
X112752338Y-85978891D01*
X112706234Y-85874475D01*
X112625525Y-85793766D01*
X112614844Y-85789050D01*
X112614843Y-85789049D01*
X112529779Y-85751490D01*
X112529778Y-85751489D01*
X112521109Y-85747662D01*
X112512298Y-85746639D01*
X112469468Y-85725512D01*
X112437397Y-85689485D01*
X112421213Y-85644048D01*
X112419168Y-85630479D01*
X112419167Y-85630478D01*
X112417760Y-85621138D01*
X112414182Y-85613710D01*
X112412650Y-85605608D01*
X112387070Y-85557208D01*
X112384964Y-85553037D01*
X112365315Y-85512234D01*
X112361218Y-85503726D01*
X112355609Y-85497681D01*
X112351757Y-85490392D01*
X112313065Y-85451700D01*
X112309796Y-85448307D01*
X112295261Y-85432642D01*
X112272579Y-85408197D01*
X112266742Y-85404826D01*
X112261562Y-85400197D01*
X112090775Y-85229410D01*
X113352000Y-85229410D01*
X113355506Y-85242493D01*
X113368590Y-85246000D01*
X114439410Y-85246000D01*
X114452493Y-85242493D01*
X114456000Y-85229410D01*
X114456000Y-84158590D01*
X114452493Y-84145506D01*
X114439410Y-84142000D01*
X113814777Y-84142000D01*
X113808061Y-84142359D01*
X113758742Y-84147662D01*
X113743521Y-84151259D01*
X113622480Y-84196405D01*
X113606824Y-84204954D01*
X113504307Y-84281697D01*
X113491697Y-84294307D01*
X113414954Y-84396824D01*
X113406405Y-84412480D01*
X113361260Y-84533520D01*
X113357662Y-84548742D01*
X113352359Y-84598061D01*
X113352000Y-84604777D01*
X113352000Y-85229410D01*
X112090775Y-85229410D01*
X111219205Y-84357840D01*
X111191891Y-84316963D01*
X111182300Y-84268745D01*
X111182300Y-81981639D01*
X112273000Y-81981639D01*
X112273325Y-81988028D01*
X112282557Y-82078398D01*
X112285418Y-82091762D01*
X112334845Y-82240920D01*
X112341005Y-82254132D01*
X112423255Y-82387480D01*
X112432302Y-82398921D01*
X112543078Y-82509697D01*
X112554519Y-82518744D01*
X112687867Y-82600994D01*
X112701079Y-82607154D01*
X112850237Y-82656581D01*
X112863601Y-82659442D01*
X112953971Y-82668674D01*
X112960361Y-82669000D01*
X112985410Y-82669000D01*
X112998493Y-82665493D01*
X113002000Y-82652410D01*
X113002000Y-81981590D01*
X112998493Y-81968506D01*
X112985410Y-81965000D01*
X112289590Y-81965000D01*
X112276506Y-81968506D01*
X112273000Y-81981590D01*
X112273000Y-81981639D01*
X111182300Y-81981639D01*
X111182300Y-76491362D01*
X111183092Y-76477255D01*
X111183683Y-76472012D01*
X111186878Y-76443653D01*
X111176690Y-76389816D01*
X111175915Y-76385253D01*
X111167760Y-76331138D01*
X111164183Y-76323710D01*
X111162650Y-76315608D01*
X111137070Y-76267208D01*
X111134964Y-76263037D01*
X111130257Y-76253263D01*
X111111218Y-76213726D01*
X111105609Y-76207681D01*
X111101757Y-76200392D01*
X111063064Y-76161699D01*
X111059796Y-76158307D01*
X111030643Y-76126888D01*
X111022579Y-76118197D01*
X111016742Y-76114826D01*
X111011562Y-76110197D01*
X109417853Y-74516488D01*
X109408437Y-74505952D01*
X109393247Y-74486904D01*
X109393246Y-74486903D01*
X109387360Y-74479522D01*
X109342148Y-74448697D01*
X109338320Y-74445981D01*
X109301879Y-74419087D01*
X109294282Y-74413480D01*
X109286499Y-74410756D01*
X109279687Y-74406112D01*
X109270665Y-74403329D01*
X109270661Y-74403327D01*
X109227407Y-74389984D01*
X109222933Y-74388512D01*
X109172738Y-74370948D01*
X109131015Y-74346522D01*
X109101562Y-74308182D01*
X109029157Y-74162773D01*
X109020043Y-74150704D01*
X108898056Y-73989166D01*
X108898053Y-73989162D01*
X108894544Y-73984516D01*
X108890240Y-73980593D01*
X108890238Y-73980590D01*
X108751202Y-73853842D01*
X108729468Y-73834029D01*
X108622748Y-73767951D01*
X108544509Y-73719507D01*
X108544505Y-73719505D01*
X108539550Y-73716437D01*
X108534119Y-73714333D01*
X108534115Y-73714331D01*
X108336685Y-73637847D01*
X108336684Y-73637846D01*
X108331259Y-73635745D01*
X108325540Y-73634676D01*
X108325537Y-73634675D01*
X108117414Y-73595770D01*
X108117410Y-73595769D01*
X108111688Y-73594700D01*
X107888312Y-73594700D01*
X107882590Y-73595769D01*
X107882585Y-73595770D01*
X107674462Y-73634675D01*
X107674456Y-73634676D01*
X107668741Y-73635745D01*
X107663318Y-73637845D01*
X107663314Y-73637847D01*
X107465884Y-73714331D01*
X107465876Y-73714334D01*
X107460450Y-73716437D01*
X107455499Y-73719502D01*
X107455490Y-73719507D01*
X107275485Y-73830962D01*
X107270532Y-73834029D01*
X107266233Y-73837947D01*
X107266229Y-73837951D01*
X107109761Y-73980590D01*
X107109753Y-73980598D01*
X107105456Y-73984516D01*
X107101951Y-73989156D01*
X107101943Y-73989166D01*
X106974354Y-74158122D01*
X106974348Y-74158131D01*
X106970843Y-74162773D01*
X106968249Y-74167980D01*
X106968246Y-74167987D01*
X106873870Y-74357519D01*
X106873867Y-74357526D01*
X106871276Y-74362730D01*
X106869683Y-74368327D01*
X106867578Y-74373763D01*
X106865337Y-74372895D01*
X106838256Y-74418477D01*
X106782231Y-74450358D01*
X106717769Y-74450358D01*
X106661744Y-74418477D01*
X106634662Y-74372895D01*
X106632422Y-74373763D01*
X106630317Y-74368330D01*
X106628724Y-74362730D01*
X106529157Y-74162773D01*
X106518733Y-74148970D01*
X106424268Y-74023877D01*
X106400622Y-73969187D01*
X106404747Y-73909748D01*
X106435721Y-73858852D01*
X108283135Y-72011439D01*
X114317000Y-72011439D01*
X114317325Y-72017828D01*
X114326557Y-72108198D01*
X114329418Y-72121562D01*
X114378845Y-72270720D01*
X114385005Y-72283932D01*
X114467255Y-72417280D01*
X114476302Y-72428721D01*
X114587078Y-72539497D01*
X114598519Y-72548544D01*
X114731867Y-72630794D01*
X114745079Y-72636954D01*
X114894237Y-72686381D01*
X114907601Y-72689242D01*
X114997971Y-72698474D01*
X115004361Y-72698800D01*
X115004410Y-72698800D01*
X115017493Y-72695293D01*
X115021000Y-72682210D01*
X115021000Y-71986390D01*
X115017493Y-71973306D01*
X115004410Y-71969800D01*
X114333590Y-71969800D01*
X114320506Y-71973306D01*
X114317000Y-71986390D01*
X114317000Y-72011439D01*
X108283135Y-72011439D01*
X109467369Y-70827205D01*
X109508247Y-70799891D01*
X109556465Y-70790300D01*
X114384691Y-70790300D01*
X114441894Y-70804033D01*
G37*
%TD.AperFunction*%
%TA.AperFunction,Conductor*%
G36*
X106838303Y-79881568D02*
G01*
X106865319Y-79927112D01*
X106867578Y-79926237D01*
X106869682Y-79931669D01*
X106871276Y-79937270D01*
X106970843Y-80137227D01*
X106974351Y-80141873D01*
X106974354Y-80141877D01*
X107101943Y-80310833D01*
X107101947Y-80310837D01*
X107105456Y-80315484D01*
X107109758Y-80319406D01*
X107109761Y-80319409D01*
X107260565Y-80456885D01*
X107296869Y-80515519D01*
X107296869Y-80584481D01*
X107260565Y-80643115D01*
X107109761Y-80780590D01*
X107109753Y-80780598D01*
X107105456Y-80784516D01*
X107101951Y-80789156D01*
X107101943Y-80789166D01*
X106974349Y-80958129D01*
X106974344Y-80958136D01*
X106971535Y-80961855D01*
X106971532Y-80961859D01*
X106970843Y-80962773D01*
X106970677Y-80962647D01*
X106922977Y-81006603D01*
X106856707Y-81020114D01*
X106792998Y-80997413D01*
X106750206Y-80945040D01*
X106744636Y-80932342D01*
X106739690Y-80923203D01*
X106666890Y-80811773D01*
X106658796Y-80803926D01*
X106649262Y-80809947D01*
X105870939Y-81588270D01*
X105864167Y-81599999D01*
X105870940Y-81611730D01*
X106649263Y-82390052D01*
X106658797Y-82396072D01*
X106666888Y-82388228D01*
X106739693Y-82276792D01*
X106744636Y-82267657D01*
X106750205Y-82254962D01*
X106792998Y-82202586D01*
X106856710Y-82179885D01*
X106922981Y-82193398D01*
X106970676Y-82237352D01*
X106970843Y-82237227D01*
X106974353Y-82241875D01*
X107101943Y-82410833D01*
X107101947Y-82410837D01*
X107105456Y-82415484D01*
X107109758Y-82419406D01*
X107109761Y-82419409D01*
X107161006Y-82466125D01*
X107270532Y-82565971D01*
X107460450Y-82683563D01*
X107668741Y-82764255D01*
X107888312Y-82805300D01*
X108105860Y-82805300D01*
X108111688Y-82805300D01*
X108331259Y-82764255D01*
X108414451Y-82732025D01*
X108461902Y-82723533D01*
X108509076Y-82733484D01*
X108549058Y-82760423D01*
X108870795Y-83082160D01*
X108898109Y-83123037D01*
X108907700Y-83171255D01*
X108907700Y-85628670D01*
X108895963Y-85681774D01*
X108862937Y-85724985D01*
X108819944Y-85747539D01*
X108818891Y-85747662D01*
X108810224Y-85751488D01*
X108810216Y-85751491D01*
X108720893Y-85790931D01*
X108670000Y-85801667D01*
X108619107Y-85790931D01*
X108529784Y-85751492D01*
X108529781Y-85751491D01*
X108521109Y-85747662D01*
X108511691Y-85746569D01*
X108511690Y-85746569D01*
X108499205Y-85745120D01*
X108499193Y-85745119D01*
X108495579Y-85744700D01*
X108491932Y-85744700D01*
X107905581Y-85744700D01*
X107857363Y-85735109D01*
X107816486Y-85707795D01*
X105331786Y-83223095D01*
X105301048Y-83172936D01*
X105296432Y-83114289D01*
X105318945Y-83059939D01*
X105363678Y-83021733D01*
X105420881Y-83008000D01*
X105611459Y-83008000D01*
X105621807Y-83007142D01*
X105841688Y-82970451D01*
X105851758Y-82967901D01*
X106062594Y-82895521D01*
X106072111Y-82891346D01*
X106268159Y-82785251D01*
X106276855Y-82779569D01*
X106287181Y-82771532D01*
X106295417Y-82760163D01*
X106288649Y-82747860D01*
X105229884Y-81689095D01*
X105197272Y-81632611D01*
X105197272Y-81567389D01*
X105229884Y-81510904D01*
X105500000Y-81240789D01*
X105500003Y-81240786D01*
X106288650Y-80452137D01*
X106305440Y-80421615D01*
X106307001Y-80412029D01*
X106338903Y-80366207D01*
X106394544Y-80315484D01*
X106529157Y-80137227D01*
X106628724Y-79937270D01*
X106630318Y-79931667D01*
X106632422Y-79926237D01*
X106634680Y-79927112D01*
X106661697Y-79881568D01*
X106717748Y-79849647D01*
X106782252Y-79849647D01*
X106838303Y-79881568D01*
G37*
%TD.AperFunction*%
%TA.AperFunction,Conductor*%
G36*
X123429654Y-78903861D02*
G01*
X123478928Y-78950244D01*
X123497100Y-79015429D01*
X123497100Y-81557241D01*
X123481606Y-81617776D01*
X123438933Y-81663423D01*
X123379577Y-81682955D01*
X123318137Y-81671569D01*
X123270905Y-81633029D01*
X123269218Y-81629526D01*
X123263609Y-81623481D01*
X123259757Y-81616192D01*
X123221064Y-81577499D01*
X123217796Y-81574107D01*
X123180579Y-81533997D01*
X123174742Y-81530626D01*
X123169562Y-81525997D01*
X122768853Y-81125288D01*
X122759437Y-81114752D01*
X122744247Y-81095704D01*
X122744246Y-81095703D01*
X122738360Y-81088322D01*
X122693148Y-81057497D01*
X122689320Y-81054781D01*
X122652879Y-81027887D01*
X122645282Y-81022280D01*
X122637499Y-81019556D01*
X122630687Y-81014912D01*
X122621665Y-81012129D01*
X122621661Y-81012127D01*
X122578407Y-80998784D01*
X122573934Y-80997313D01*
X122531187Y-80982355D01*
X122531184Y-80982354D01*
X122522278Y-80979238D01*
X122514035Y-80978929D01*
X122506159Y-80976500D01*
X122496721Y-80976500D01*
X122469065Y-80976500D01*
X122420847Y-80966909D01*
X122380598Y-80940014D01*
X122375582Y-80933218D01*
X122296942Y-80875178D01*
X122259285Y-80830582D01*
X122245765Y-80773800D01*
X122259285Y-80717018D01*
X122296943Y-80672421D01*
X122308007Y-80664255D01*
X122375582Y-80614382D01*
X122457085Y-80503951D01*
X122502416Y-80374402D01*
X122505300Y-80343646D01*
X122505300Y-79933954D01*
X122502416Y-79903198D01*
X122457085Y-79773649D01*
X122375582Y-79663218D01*
X122296942Y-79605178D01*
X122259285Y-79560582D01*
X122245765Y-79503800D01*
X122259285Y-79447018D01*
X122296943Y-79402421D01*
X122375582Y-79344382D01*
X122457085Y-79233951D01*
X122502416Y-79104402D01*
X122503261Y-79095380D01*
X122503813Y-79093647D01*
X122504769Y-79089275D01*
X122505178Y-79089364D01*
X122519569Y-79044182D01*
X122555724Y-79004433D01*
X122605153Y-78983362D01*
X122658867Y-78984802D01*
X122720690Y-79000040D01*
X122822361Y-79025100D01*
X122986022Y-79025100D01*
X122993639Y-79025100D01*
X123159940Y-78984110D01*
X123311599Y-78904514D01*
X123312955Y-78907098D01*
X123363491Y-78889659D01*
X123429654Y-78903861D01*
G37*
%TD.AperFunction*%
%TA.AperFunction,Conductor*%
G36*
X119388563Y-70809544D02*
G01*
X119435046Y-70861396D01*
X119446888Y-70930020D01*
X119420471Y-70994452D01*
X119417258Y-70998514D01*
X119335005Y-71131867D01*
X119328845Y-71145079D01*
X119279418Y-71294237D01*
X119276557Y-71307601D01*
X119267325Y-71397971D01*
X119267000Y-71404362D01*
X119267000Y-71429410D01*
X119270506Y-71442493D01*
X119283590Y-71446000D01*
X120353000Y-71446000D01*
X120416000Y-71462881D01*
X120462119Y-71509000D01*
X120479000Y-71572000D01*
X120479000Y-72666410D01*
X120482506Y-72679493D01*
X120495590Y-72683000D01*
X120495639Y-72683000D01*
X120502028Y-72682674D01*
X120592398Y-72673442D01*
X120605757Y-72670582D01*
X120629068Y-72662858D01*
X120687868Y-72657930D01*
X120742464Y-72680312D01*
X120780884Y-72725097D01*
X120794700Y-72782463D01*
X120794700Y-73057500D01*
X120777819Y-73120500D01*
X120731700Y-73166619D01*
X120668700Y-73183500D01*
X120345154Y-73183500D01*
X120342249Y-73183772D01*
X120342236Y-73183773D01*
X120322029Y-73185668D01*
X120322025Y-73185668D01*
X120314398Y-73186384D01*
X120307163Y-73188915D01*
X120307161Y-73188916D01*
X120193763Y-73228595D01*
X120193758Y-73228597D01*
X120184849Y-73231715D01*
X120177254Y-73237320D01*
X120177251Y-73237322D01*
X120082010Y-73307614D01*
X120082007Y-73307616D01*
X120074418Y-73313218D01*
X120068816Y-73320807D01*
X120068814Y-73320810D01*
X119998522Y-73416051D01*
X119998520Y-73416054D01*
X119992915Y-73423649D01*
X119989797Y-73432558D01*
X119989795Y-73432563D01*
X119951076Y-73543217D01*
X119947584Y-73553198D01*
X119946868Y-73560825D01*
X119946868Y-73560829D01*
X119944973Y-73581036D01*
X119944972Y-73581049D01*
X119944700Y-73583954D01*
X119944700Y-73993646D01*
X119944972Y-73996551D01*
X119944973Y-73996563D01*
X119944974Y-73996570D01*
X119947584Y-74024402D01*
X119950116Y-74031638D01*
X119989795Y-74145036D01*
X119989796Y-74145038D01*
X119992915Y-74153951D01*
X119998520Y-74161545D01*
X119998522Y-74161549D01*
X120015786Y-74184940D01*
X120027106Y-74200278D01*
X120028988Y-74202827D01*
X120052701Y-74262541D01*
X120043888Y-74326183D01*
X120004841Y-74377206D01*
X119987894Y-74390352D01*
X119881550Y-74496696D01*
X119871911Y-74509122D01*
X119795352Y-74638578D01*
X119789107Y-74653010D01*
X119749097Y-74790719D01*
X119748512Y-74802168D01*
X119759667Y-74804800D01*
X122690333Y-74804800D01*
X122701487Y-74802168D01*
X122700902Y-74790719D01*
X122660892Y-74653010D01*
X122654647Y-74638578D01*
X122578088Y-74509122D01*
X122568449Y-74496696D01*
X122462103Y-74390350D01*
X122445160Y-74377207D01*
X122406111Y-74326184D01*
X122397298Y-74262540D01*
X122421012Y-74202827D01*
X122457085Y-74153951D01*
X122502416Y-74024402D01*
X122505300Y-73993646D01*
X122505300Y-73583954D01*
X122502416Y-73553198D01*
X122457085Y-73423649D01*
X122375582Y-73313218D01*
X122265151Y-73231715D01*
X122256238Y-73228596D01*
X122256236Y-73228595D01*
X122142838Y-73188916D01*
X122135602Y-73186384D01*
X122127972Y-73185668D01*
X122127970Y-73185668D01*
X122107763Y-73183773D01*
X122107751Y-73183772D01*
X122104846Y-73183500D01*
X122101912Y-73183500D01*
X121781300Y-73183500D01*
X121718300Y-73166619D01*
X121672181Y-73120500D01*
X121655300Y-73057500D01*
X121655300Y-72606300D01*
X121672181Y-72543300D01*
X121718300Y-72497181D01*
X121781300Y-72480300D01*
X122037752Y-72480300D01*
X122041518Y-72480300D01*
X122045257Y-72479850D01*
X122049016Y-72479626D01*
X122049120Y-72481367D01*
X122097075Y-72486059D01*
X122145720Y-72516295D01*
X122876795Y-73247370D01*
X122904109Y-73288247D01*
X122913700Y-73336465D01*
X122913700Y-73775451D01*
X122913470Y-73783060D01*
X122910387Y-73834029D01*
X122909920Y-73841742D01*
X122911292Y-73849231D01*
X122911293Y-73849240D01*
X122920517Y-73899571D01*
X122921662Y-73907093D01*
X122927829Y-73957885D01*
X122927830Y-73957889D01*
X122928748Y-73965449D01*
X122931447Y-73972566D01*
X122931448Y-73972570D01*
X122932124Y-73974351D01*
X122938244Y-73996305D01*
X122938291Y-73996563D01*
X122939962Y-74005676D01*
X122943085Y-74012616D01*
X122943087Y-74012621D01*
X122964090Y-74059287D01*
X122967002Y-74066317D01*
X122984065Y-74111309D01*
X122987848Y-74121282D01*
X122992171Y-74127546D01*
X122992173Y-74127549D01*
X122993256Y-74129117D01*
X123004452Y-74148969D01*
X123008363Y-74157657D01*
X123013060Y-74163653D01*
X123013063Y-74163657D01*
X123044614Y-74203928D01*
X123049124Y-74210058D01*
X123078191Y-74252169D01*
X123078198Y-74252177D01*
X123082524Y-74258444D01*
X123117595Y-74289514D01*
X123126544Y-74297442D01*
X123132086Y-74302660D01*
X124128031Y-75298605D01*
X124158769Y-75348764D01*
X124163385Y-75407411D01*
X124140872Y-75461761D01*
X124096139Y-75499967D01*
X124038936Y-75513700D01*
X122814442Y-75513700D01*
X122758122Y-75500412D01*
X122713681Y-75463352D01*
X122690492Y-75410336D01*
X122693446Y-75352545D01*
X122700902Y-75326882D01*
X122701487Y-75315431D01*
X122690333Y-75312800D01*
X119759667Y-75312800D01*
X119748512Y-75315431D01*
X119749097Y-75326880D01*
X119789107Y-75464589D01*
X119795352Y-75479021D01*
X119871911Y-75608477D01*
X119881550Y-75620903D01*
X119987891Y-75727244D01*
X120004839Y-75740391D01*
X120043887Y-75791414D01*
X120052701Y-75855057D01*
X120028989Y-75914771D01*
X119998522Y-75956051D01*
X119998520Y-75956054D01*
X119992915Y-75963649D01*
X119989797Y-75972558D01*
X119989795Y-75972563D01*
X119951319Y-76082524D01*
X119947584Y-76093198D01*
X119946868Y-76100825D01*
X119946868Y-76100829D01*
X119944973Y-76121036D01*
X119944972Y-76121049D01*
X119944700Y-76123954D01*
X119944700Y-76126888D01*
X119944700Y-76200981D01*
X119928448Y-76262879D01*
X119883884Y-76308809D01*
X119822505Y-76326924D01*
X119760145Y-76312548D01*
X119712291Y-76287432D01*
X119712283Y-76287428D01*
X119705540Y-76283890D01*
X119613817Y-76261282D01*
X119546632Y-76244722D01*
X119546630Y-76244721D01*
X119539239Y-76242900D01*
X119367961Y-76242900D01*
X119360570Y-76244721D01*
X119360567Y-76244722D01*
X119209056Y-76282067D01*
X119201660Y-76283890D01*
X119194921Y-76287426D01*
X119194915Y-76287429D01*
X119056744Y-76359946D01*
X119056737Y-76359950D01*
X119050001Y-76363486D01*
X119044301Y-76368534D01*
X119044299Y-76368537D01*
X118927501Y-76472012D01*
X118927498Y-76472014D01*
X118921798Y-76477065D01*
X118917473Y-76483329D01*
X118917470Y-76483334D01*
X118828830Y-76611750D01*
X118828826Y-76611755D01*
X118824501Y-76618023D01*
X118821798Y-76625149D01*
X118821797Y-76625152D01*
X118766467Y-76771043D01*
X118766464Y-76771052D01*
X118763765Y-76778171D01*
X118762846Y-76785738D01*
X118762846Y-76785739D01*
X118751340Y-76880503D01*
X118743120Y-76948200D01*
X118745014Y-76963800D01*
X118746457Y-76975684D01*
X118740482Y-77031971D01*
X118710470Y-77079964D01*
X117798485Y-77991948D01*
X117787954Y-78001360D01*
X117768901Y-78016554D01*
X117768896Y-78016558D01*
X117761522Y-78022440D01*
X117756206Y-78030236D01*
X117756205Y-78030238D01*
X117735901Y-78060018D01*
X117691363Y-78100067D01*
X117688151Y-78100895D01*
X117687572Y-78131864D01*
X117671983Y-78182400D01*
X117670516Y-78186855D01*
X117652438Y-78238522D01*
X117652129Y-78246764D01*
X117649700Y-78254641D01*
X117649700Y-78264076D01*
X117649700Y-78309349D01*
X117649612Y-78314068D01*
X117649403Y-78319645D01*
X117633994Y-78375467D01*
X117595242Y-78418501D01*
X117541335Y-78439656D01*
X117483658Y-78434464D01*
X117434396Y-78404021D01*
X117431185Y-78400810D01*
X117425582Y-78393218D01*
X117346942Y-78335178D01*
X117309285Y-78290582D01*
X117295765Y-78233800D01*
X117309285Y-78177018D01*
X117346943Y-78132421D01*
X117364573Y-78119409D01*
X117425582Y-78074382D01*
X117465791Y-78019900D01*
X117509060Y-77986700D01*
X117512867Y-77947425D01*
X117552416Y-77834402D01*
X117555300Y-77803646D01*
X117555300Y-77393954D01*
X117552416Y-77363198D01*
X117507085Y-77233649D01*
X117425582Y-77123218D01*
X117346942Y-77065178D01*
X117309285Y-77020582D01*
X117295765Y-76963800D01*
X117309285Y-76907018D01*
X117346943Y-76862421D01*
X117425582Y-76804382D01*
X117507085Y-76693951D01*
X117552416Y-76564402D01*
X117555300Y-76533646D01*
X117555300Y-76123954D01*
X117552416Y-76093198D01*
X117507085Y-75963649D01*
X117425582Y-75853218D01*
X117346942Y-75795178D01*
X117309285Y-75750582D01*
X117295765Y-75693800D01*
X117309285Y-75637018D01*
X117346943Y-75592421D01*
X117362483Y-75580952D01*
X117425582Y-75534382D01*
X117431190Y-75526782D01*
X117437865Y-75520108D01*
X117439259Y-75521502D01*
X117462877Y-75499983D01*
X117509149Y-75483299D01*
X117553862Y-75476560D01*
X117561289Y-75472982D01*
X117569392Y-75471450D01*
X117617829Y-75445849D01*
X117621927Y-75443780D01*
X117671274Y-75420018D01*
X117677318Y-75414409D01*
X117684608Y-75410557D01*
X117723336Y-75371827D01*
X117726674Y-75368612D01*
X117766803Y-75331379D01*
X117770173Y-75325540D01*
X117774792Y-75320371D01*
X118533518Y-74561645D01*
X118544033Y-74552247D01*
X118570478Y-74531160D01*
X118601333Y-74485901D01*
X118603981Y-74482168D01*
X118636520Y-74438082D01*
X118639243Y-74430299D01*
X118643888Y-74423487D01*
X118660022Y-74371179D01*
X118661465Y-74366790D01*
X118679562Y-74315078D01*
X118679870Y-74306835D01*
X118682300Y-74298959D01*
X118682300Y-74244251D01*
X118682388Y-74239540D01*
X118683048Y-74221892D01*
X118684434Y-74184851D01*
X118682689Y-74178339D01*
X118682300Y-74171406D01*
X118682300Y-72931161D01*
X118683092Y-72917052D01*
X118686878Y-72883453D01*
X118676690Y-72829616D01*
X118675915Y-72825053D01*
X118667760Y-72770938D01*
X118664183Y-72763510D01*
X118662650Y-72755408D01*
X118637070Y-72707008D01*
X118634964Y-72702837D01*
X118631850Y-72696371D01*
X118611218Y-72653526D01*
X118605609Y-72647481D01*
X118601757Y-72640192D01*
X118563065Y-72601500D01*
X118559796Y-72598107D01*
X118542129Y-72579067D01*
X118522579Y-72557997D01*
X118516742Y-72554626D01*
X118511562Y-72549997D01*
X117957204Y-71995639D01*
X119267000Y-71995639D01*
X119267325Y-72002028D01*
X119276557Y-72092398D01*
X119279418Y-72105762D01*
X119328845Y-72254920D01*
X119335005Y-72268132D01*
X119417255Y-72401480D01*
X119426302Y-72412921D01*
X119537078Y-72523697D01*
X119548519Y-72532744D01*
X119681867Y-72614994D01*
X119695079Y-72621154D01*
X119844237Y-72670581D01*
X119857601Y-72673442D01*
X119947971Y-72682674D01*
X119954361Y-72683000D01*
X119954410Y-72683000D01*
X119967493Y-72679493D01*
X119971000Y-72666410D01*
X119971000Y-71970590D01*
X119967493Y-71957506D01*
X119954410Y-71954000D01*
X119283590Y-71954000D01*
X119270506Y-71957506D01*
X119267000Y-71970590D01*
X119267000Y-71995639D01*
X117957204Y-71995639D01*
X117617205Y-71655640D01*
X117589891Y-71614763D01*
X117580300Y-71566545D01*
X117580300Y-71428049D01*
X117580300Y-71424282D01*
X117570066Y-71339063D01*
X117516588Y-71203451D01*
X117428504Y-71087296D01*
X117335405Y-71016696D01*
X117296668Y-70968072D01*
X117285895Y-70906843D01*
X117305712Y-70847916D01*
X117351292Y-70805638D01*
X117411540Y-70790300D01*
X119321637Y-70790300D01*
X119388563Y-70809544D01*
G37*
%TD.AperFunction*%
%TA.AperFunction,Conductor*%
G36*
X136936500Y-67517381D02*
G01*
X136982619Y-67563500D01*
X136999500Y-67626500D01*
X136999500Y-122373500D01*
X136982619Y-122436500D01*
X136936500Y-122482619D01*
X136873500Y-122499500D01*
X97126500Y-122499500D01*
X97063500Y-122482619D01*
X97017381Y-122436500D01*
X97000500Y-122373500D01*
X97000500Y-117643639D01*
X99613000Y-117643639D01*
X99613325Y-117650028D01*
X99622557Y-117740398D01*
X99625418Y-117753762D01*
X99674845Y-117902920D01*
X99681005Y-117916132D01*
X99763255Y-118049480D01*
X99772302Y-118060921D01*
X99883078Y-118171697D01*
X99894519Y-118180744D01*
X100027867Y-118262994D01*
X100041079Y-118269154D01*
X100190237Y-118318581D01*
X100203601Y-118321442D01*
X100293971Y-118330674D01*
X100300361Y-118331000D01*
X100300410Y-118331000D01*
X100313493Y-118327493D01*
X100317000Y-118314410D01*
X100317000Y-117618590D01*
X100313493Y-117605506D01*
X100300410Y-117602000D01*
X99629590Y-117602000D01*
X99616506Y-117605506D01*
X99613000Y-117618590D01*
X99613000Y-117643639D01*
X97000500Y-117643639D01*
X97000500Y-117077410D01*
X99613000Y-117077410D01*
X99616506Y-117090493D01*
X99629590Y-117094000D01*
X100300410Y-117094000D01*
X100313493Y-117090493D01*
X100317000Y-117077410D01*
X100317000Y-116381590D01*
X100313493Y-116368506D01*
X100300410Y-116365000D01*
X100300361Y-116365000D01*
X100293971Y-116365325D01*
X100203601Y-116374557D01*
X100190237Y-116377418D01*
X100041079Y-116426845D01*
X100027867Y-116433005D01*
X99894519Y-116515255D01*
X99883078Y-116524302D01*
X99772302Y-116635078D01*
X99763255Y-116646519D01*
X99681005Y-116779867D01*
X99674845Y-116793079D01*
X99625418Y-116942237D01*
X99622557Y-116955601D01*
X99613325Y-117045971D01*
X99613000Y-117052362D01*
X99613000Y-117077410D01*
X97000500Y-117077410D01*
X97000500Y-97446396D01*
X103544270Y-97446396D01*
X103551939Y-97454584D01*
X103717570Y-97567509D01*
X103725714Y-97572211D01*
X103961361Y-97685692D01*
X103970118Y-97689129D01*
X104220052Y-97766224D01*
X104229209Y-97768314D01*
X104487847Y-97807297D01*
X104497225Y-97808000D01*
X104758775Y-97808000D01*
X104768152Y-97807297D01*
X105026790Y-97768314D01*
X105035947Y-97766224D01*
X105285881Y-97689129D01*
X105294638Y-97685692D01*
X105530285Y-97572211D01*
X105538429Y-97567509D01*
X105704062Y-97454581D01*
X105711728Y-97446397D01*
X105705714Y-97436924D01*
X104639729Y-96370939D01*
X104628000Y-96364167D01*
X104616270Y-96370939D01*
X103550284Y-97436924D01*
X103544270Y-97446396D01*
X97000500Y-97446396D01*
X97000500Y-94104846D01*
X97744700Y-94104846D01*
X97744972Y-94107751D01*
X97744973Y-94107763D01*
X97746868Y-94127970D01*
X97747584Y-94135602D01*
X97750116Y-94142838D01*
X97789795Y-94256236D01*
X97789796Y-94256238D01*
X97792915Y-94265151D01*
X97874418Y-94375582D01*
X97984849Y-94457085D01*
X98114398Y-94502416D01*
X98145154Y-94505300D01*
X98851912Y-94505300D01*
X98854846Y-94505300D01*
X98885602Y-94502416D01*
X99015151Y-94457085D01*
X99125582Y-94375582D01*
X99207085Y-94265151D01*
X99210205Y-94256236D01*
X99214616Y-94247891D01*
X99216709Y-94248997D01*
X99233768Y-94220646D01*
X99275760Y-94190826D01*
X99326177Y-94180300D01*
X100218756Y-94180300D01*
X100232863Y-94181092D01*
X100266271Y-94184856D01*
X100319791Y-94174729D01*
X100324412Y-94173943D01*
X100378266Y-94165827D01*
X100385658Y-94162267D01*
X100393724Y-94160741D01*
X100441942Y-94135255D01*
X100446034Y-94133189D01*
X100495134Y-94109546D01*
X100501148Y-94103965D01*
X100508407Y-94100129D01*
X100546944Y-94061590D01*
X100550284Y-94058372D01*
X100590222Y-94021318D01*
X100593580Y-94015499D01*
X100598156Y-94010378D01*
X101141331Y-93467204D01*
X101182209Y-93439891D01*
X101230427Y-93430300D01*
X101337385Y-93430300D01*
X101398471Y-93446098D01*
X101444239Y-93489530D01*
X101463212Y-93549706D01*
X101450633Y-93611535D01*
X101409656Y-93659512D01*
X101391781Y-93672029D01*
X101290275Y-93743104D01*
X101290272Y-93743106D01*
X101285764Y-93746263D01*
X101281872Y-93750154D01*
X101281866Y-93750160D01*
X101128160Y-93903866D01*
X101128154Y-93903872D01*
X101124263Y-93907764D01*
X101121106Y-93912272D01*
X101121104Y-93912275D01*
X100996415Y-94090348D01*
X100996409Y-94090358D01*
X100993259Y-94094857D01*
X100990935Y-94099839D01*
X100990933Y-94099844D01*
X100899057Y-94296873D01*
X100899054Y-94296878D01*
X100896734Y-94301856D01*
X100895311Y-94307164D01*
X100895311Y-94307166D01*
X100839044Y-94517156D01*
X100837620Y-94522471D01*
X100837141Y-94527944D01*
X100837140Y-94527951D01*
X100820390Y-94719409D01*
X100817714Y-94750000D01*
X100818193Y-94755475D01*
X100836831Y-94968519D01*
X100837620Y-94977529D01*
X100896734Y-95198144D01*
X100899056Y-95203124D01*
X100899057Y-95203126D01*
X100960127Y-95334092D01*
X100993259Y-95405143D01*
X100996412Y-95409646D01*
X100996415Y-95409651D01*
X101029975Y-95457579D01*
X101124263Y-95592236D01*
X101285764Y-95753737D01*
X101392011Y-95828132D01*
X101458195Y-95874475D01*
X101472857Y-95884741D01*
X101679856Y-95981266D01*
X101900471Y-96040380D01*
X102128000Y-96060286D01*
X102355529Y-96040380D01*
X102576144Y-95981266D01*
X102640239Y-95951377D01*
X102699378Y-95939710D01*
X102757169Y-95956847D01*
X102800386Y-95998869D01*
X102819138Y-96056156D01*
X102834827Y-96265518D01*
X102836230Y-96274825D01*
X102894430Y-96529812D01*
X102897204Y-96538805D01*
X102992756Y-96782269D01*
X102996839Y-96790749D01*
X103127610Y-97017250D01*
X103132914Y-97025030D01*
X103170999Y-97072787D01*
X103182419Y-97080889D01*
X103194670Y-97074118D01*
X104538904Y-95729884D01*
X104595388Y-95697272D01*
X104660610Y-95697272D01*
X104717094Y-95729884D01*
X106061328Y-97074118D01*
X106073580Y-97080890D01*
X106084998Y-97072788D01*
X106123086Y-97025029D01*
X106128388Y-97017252D01*
X106259160Y-96790749D01*
X106263243Y-96782269D01*
X106358795Y-96538805D01*
X106361571Y-96529807D01*
X106376371Y-96464963D01*
X106403707Y-96410811D01*
X106453180Y-96375709D01*
X106513322Y-96367791D01*
X106570193Y-96388895D01*
X106610613Y-96434127D01*
X106614715Y-96441889D01*
X106616831Y-96446080D01*
X106640454Y-96495134D01*
X106646034Y-96501148D01*
X106649871Y-96508407D01*
X106656550Y-96515086D01*
X106688370Y-96546906D01*
X106691616Y-96550274D01*
X106728682Y-96590222D01*
X106734499Y-96593580D01*
X106739631Y-96598167D01*
X106923640Y-96782176D01*
X106933055Y-96792711D01*
X106954016Y-96818995D01*
X106999015Y-96849674D01*
X107002843Y-96852391D01*
X107039060Y-96879121D01*
X107039061Y-96879121D01*
X107046663Y-96884732D01*
X107054409Y-96887442D01*
X107061191Y-96892066D01*
X107113250Y-96908123D01*
X107117702Y-96909588D01*
X107145173Y-96919201D01*
X107166865Y-96926792D01*
X107217447Y-96959842D01*
X107246641Y-97012307D01*
X107247662Y-97021109D01*
X107251488Y-97029775D01*
X107251489Y-97029777D01*
X107288447Y-97113480D01*
X107293766Y-97125525D01*
X107374475Y-97206234D01*
X107478891Y-97252338D01*
X107504421Y-97255300D01*
X108495578Y-97255299D01*
X108521109Y-97252338D01*
X108625525Y-97206234D01*
X108706234Y-97125525D01*
X108752338Y-97021109D01*
X108755300Y-96995579D01*
X108755299Y-96004422D01*
X108752338Y-95978891D01*
X108709067Y-95880892D01*
X108698332Y-95830000D01*
X108709068Y-95779106D01*
X108752338Y-95681109D01*
X108755300Y-95655579D01*
X108755299Y-94664422D01*
X108752338Y-94638891D01*
X108713481Y-94550890D01*
X108702747Y-94500000D01*
X108713481Y-94449109D01*
X108752338Y-94361109D01*
X108755300Y-94335579D01*
X108755299Y-93344422D01*
X108752338Y-93318891D01*
X108745147Y-93302606D01*
X108709068Y-93220894D01*
X108698332Y-93170000D01*
X108709068Y-93119106D01*
X108752338Y-93021109D01*
X108755300Y-92995579D01*
X108755299Y-92004422D01*
X108752338Y-91978891D01*
X108706234Y-91874475D01*
X108625525Y-91793766D01*
X108614844Y-91789050D01*
X108614843Y-91789049D01*
X108529781Y-91751491D01*
X108529780Y-91751490D01*
X108521109Y-91747662D01*
X108511691Y-91746569D01*
X108511690Y-91746569D01*
X108499205Y-91745120D01*
X108499193Y-91745119D01*
X108495579Y-91744700D01*
X108491932Y-91744700D01*
X107508058Y-91744700D01*
X107508040Y-91744700D01*
X107504422Y-91744701D01*
X107500809Y-91745119D01*
X107500809Y-91745120D01*
X107488307Y-91746569D01*
X107488300Y-91746570D01*
X107478891Y-91747662D01*
X107470225Y-91751488D01*
X107470219Y-91751490D01*
X107385156Y-91789049D01*
X107385152Y-91789051D01*
X107374475Y-91793766D01*
X107366220Y-91802020D01*
X107366217Y-91802023D01*
X107302023Y-91866217D01*
X107302020Y-91866220D01*
X107293766Y-91874475D01*
X107289051Y-91885152D01*
X107289049Y-91885156D01*
X107261245Y-91948128D01*
X107247662Y-91978891D01*
X107246569Y-91988306D01*
X107246569Y-91988309D01*
X107245120Y-92000794D01*
X107245119Y-92000807D01*
X107244700Y-92004421D01*
X107244700Y-92008068D01*
X107244700Y-92581974D01*
X107230967Y-92639177D01*
X107192761Y-92683910D01*
X107138411Y-92706423D01*
X107079764Y-92701807D01*
X107029605Y-92671069D01*
X106126363Y-91767827D01*
X106116947Y-91757291D01*
X106101872Y-91738388D01*
X106101871Y-91738387D01*
X106095984Y-91731005D01*
X106058283Y-91705300D01*
X106050988Y-91700326D01*
X106047150Y-91697603D01*
X106010928Y-91670871D01*
X106010927Y-91670870D01*
X106003336Y-91665268D01*
X105995591Y-91662557D01*
X105988809Y-91657934D01*
X105979792Y-91655152D01*
X105979791Y-91655152D01*
X105936757Y-91641878D01*
X105932294Y-91640409D01*
X105914629Y-91634228D01*
X105889811Y-91625544D01*
X105889808Y-91625543D01*
X105880902Y-91622427D01*
X105872703Y-91622120D01*
X105864857Y-91619700D01*
X105855416Y-91619700D01*
X105810395Y-91619700D01*
X105805683Y-91619612D01*
X105760713Y-91617929D01*
X105751278Y-91617576D01*
X105744790Y-91619314D01*
X105737919Y-91619700D01*
X103126562Y-91619700D01*
X103067530Y-91605016D01*
X103022257Y-91564385D01*
X103001296Y-91507279D01*
X102998791Y-91484178D01*
X102991787Y-91472997D01*
X102139729Y-90620939D01*
X102127999Y-90614167D01*
X102116271Y-90620938D01*
X101264208Y-91473000D01*
X101257207Y-91484177D01*
X101254703Y-91507279D01*
X101233742Y-91564385D01*
X101188469Y-91605016D01*
X101129437Y-91619700D01*
X100419329Y-91619700D01*
X100354144Y-91601528D01*
X100307761Y-91552255D01*
X100293559Y-91486092D01*
X100315633Y-91422124D01*
X100367162Y-91347471D01*
X100379099Y-91330177D01*
X100439835Y-91170029D01*
X100460480Y-91000000D01*
X100439835Y-90829971D01*
X100430965Y-90806584D01*
X100418424Y-90773516D01*
X100379099Y-90669823D01*
X100281802Y-90528865D01*
X100153599Y-90415286D01*
X100146858Y-90411748D01*
X100146855Y-90411746D01*
X100008684Y-90339229D01*
X100008680Y-90339227D01*
X100001940Y-90335690D01*
X99921153Y-90315777D01*
X99843032Y-90296522D01*
X99843030Y-90296521D01*
X99835639Y-90294700D01*
X99664361Y-90294700D01*
X99656970Y-90296521D01*
X99656967Y-90296522D01*
X99505456Y-90333867D01*
X99498060Y-90335690D01*
X99491321Y-90339226D01*
X99491315Y-90339229D01*
X99353144Y-90411746D01*
X99353137Y-90411750D01*
X99346401Y-90415286D01*
X99340701Y-90420334D01*
X99340699Y-90420337D01*
X99223901Y-90523812D01*
X99223898Y-90523814D01*
X99218198Y-90528865D01*
X99213871Y-90535133D01*
X99208813Y-90540843D01*
X99206837Y-90539092D01*
X99166195Y-90573263D01*
X99100617Y-90584192D01*
X99038605Y-90560225D01*
X99022747Y-90548521D01*
X99022746Y-90548520D01*
X99015151Y-90542915D01*
X99006238Y-90539796D01*
X99006236Y-90539795D01*
X98892838Y-90500116D01*
X98885602Y-90497584D01*
X98877972Y-90496868D01*
X98877970Y-90496868D01*
X98857763Y-90494973D01*
X98857751Y-90494972D01*
X98854846Y-90494700D01*
X98145154Y-90494700D01*
X98142249Y-90494972D01*
X98142236Y-90494973D01*
X98122029Y-90496868D01*
X98122025Y-90496868D01*
X98114398Y-90497584D01*
X98107163Y-90500115D01*
X98107161Y-90500116D01*
X97993763Y-90539795D01*
X97993758Y-90539797D01*
X97984849Y-90542915D01*
X97977254Y-90548520D01*
X97977251Y-90548522D01*
X97882010Y-90618814D01*
X97882007Y-90618816D01*
X97874418Y-90624418D01*
X97868816Y-90632007D01*
X97868814Y-90632010D01*
X97798522Y-90727251D01*
X97798520Y-90727254D01*
X97792915Y-90734849D01*
X97789797Y-90743758D01*
X97789795Y-90743763D01*
X97750477Y-90856130D01*
X97747584Y-90864398D01*
X97746868Y-90872025D01*
X97746868Y-90872029D01*
X97744973Y-90892236D01*
X97744972Y-90892249D01*
X97744700Y-90895154D01*
X97744700Y-91304846D01*
X97744972Y-91307751D01*
X97744973Y-91307763D01*
X97746868Y-91327970D01*
X97747584Y-91335602D01*
X97750116Y-91342838D01*
X97789795Y-91456236D01*
X97789796Y-91456238D01*
X97792915Y-91465151D01*
X97874418Y-91575582D01*
X97984849Y-91657085D01*
X98114398Y-91702416D01*
X98130684Y-91703943D01*
X98190216Y-91725503D01*
X98231745Y-91773296D01*
X98244556Y-91834160D01*
X98244700Y-91834160D01*
X98244700Y-92265840D01*
X98244974Y-92268769D01*
X98244975Y-92268776D01*
X98245693Y-92276432D01*
X98247505Y-92295752D01*
X98250035Y-92302985D01*
X98250037Y-92302990D01*
X98288405Y-92412640D01*
X98291591Y-92421744D01*
X98297198Y-92429342D01*
X98301611Y-92437691D01*
X98300125Y-92438475D01*
X98315927Y-92473497D01*
X98315927Y-92526503D01*
X98300125Y-92561524D01*
X98301611Y-92562309D01*
X98297198Y-92570658D01*
X98291591Y-92578256D01*
X98288472Y-92587167D01*
X98288471Y-92587171D01*
X98250037Y-92697009D01*
X98250035Y-92697016D01*
X98247505Y-92704248D01*
X98246789Y-92711875D01*
X98246789Y-92711879D01*
X98246256Y-92717569D01*
X98244700Y-92734160D01*
X98244700Y-93165152D01*
X98244700Y-93165840D01*
X98244555Y-93165840D01*
X98231747Y-93226700D01*
X98190220Y-93274493D01*
X98130691Y-93296055D01*
X98122035Y-93296867D01*
X98122027Y-93296868D01*
X98114398Y-93297584D01*
X98107163Y-93300115D01*
X98107161Y-93300116D01*
X97993763Y-93339795D01*
X97993758Y-93339797D01*
X97984849Y-93342915D01*
X97977254Y-93348520D01*
X97977251Y-93348522D01*
X97882010Y-93418814D01*
X97882007Y-93418816D01*
X97874418Y-93424418D01*
X97868816Y-93432007D01*
X97868814Y-93432010D01*
X97798522Y-93527251D01*
X97798520Y-93527254D01*
X97792915Y-93534849D01*
X97789797Y-93543758D01*
X97789795Y-93543763D01*
X97764778Y-93615259D01*
X97747584Y-93664398D01*
X97746868Y-93672025D01*
X97746868Y-93672029D01*
X97744973Y-93692236D01*
X97744972Y-93692249D01*
X97744700Y-93695154D01*
X97744700Y-94104846D01*
X97000500Y-94104846D01*
X97000500Y-94052399D01*
X97010091Y-94004181D01*
X97037404Y-93963304D01*
X97107799Y-93892908D01*
X97250282Y-93750424D01*
X97250383Y-93750383D01*
X97250500Y-93750099D01*
X97250541Y-93750000D01*
X97250500Y-93749901D01*
X97250500Y-91250099D01*
X97250541Y-91250000D01*
X97250500Y-91249901D01*
X97250383Y-91249617D01*
X97250282Y-91249575D01*
X97143347Y-91142640D01*
X97037404Y-91036696D01*
X97010091Y-90995819D01*
X97000500Y-90947601D01*
X97000500Y-90254930D01*
X100615725Y-90254930D01*
X100633571Y-90481699D01*
X100635115Y-90491445D01*
X100688216Y-90712626D01*
X100691266Y-90722012D01*
X100778312Y-90932160D01*
X100782793Y-90940955D01*
X100887433Y-91111712D01*
X100895379Y-91119816D01*
X100904997Y-91113791D01*
X101757059Y-90261730D01*
X101763832Y-90249999D01*
X101757060Y-90238270D01*
X100904999Y-89386209D01*
X100895378Y-89380183D01*
X100887433Y-89388285D01*
X100782793Y-89559044D01*
X100778312Y-89567839D01*
X100691266Y-89777987D01*
X100688216Y-89787373D01*
X100635115Y-90008554D01*
X100633571Y-90018300D01*
X100615725Y-90245070D01*
X100615725Y-90254930D01*
X97000500Y-90254930D01*
X97000500Y-89017378D01*
X101258183Y-89017378D01*
X101264209Y-89026999D01*
X103350997Y-91113787D01*
X103360619Y-91119814D01*
X103368568Y-91111708D01*
X103473205Y-90940957D01*
X103477686Y-90932162D01*
X103564733Y-90722012D01*
X103567784Y-90712622D01*
X103577904Y-90670469D01*
X103602576Y-90620497D01*
X103646390Y-90586055D01*
X103700776Y-90573881D01*
X103755092Y-90586359D01*
X103961361Y-90685692D01*
X103970118Y-90689129D01*
X104220052Y-90766224D01*
X104229209Y-90768314D01*
X104487847Y-90807297D01*
X104497225Y-90808000D01*
X104758775Y-90808000D01*
X104768152Y-90807297D01*
X105026790Y-90768314D01*
X105035947Y-90766224D01*
X105285881Y-90689129D01*
X105294638Y-90685692D01*
X105530285Y-90572211D01*
X105538429Y-90567509D01*
X105704062Y-90454581D01*
X105711728Y-90446397D01*
X105705714Y-90436924D01*
X104268790Y-89000000D01*
X104992167Y-89000000D01*
X104998939Y-89011729D01*
X106061328Y-90074118D01*
X106073580Y-90080890D01*
X106084998Y-90072788D01*
X106123086Y-90025029D01*
X106128388Y-90017252D01*
X106259160Y-89790749D01*
X106263243Y-89782269D01*
X106358795Y-89538805D01*
X106361569Y-89529812D01*
X106419769Y-89274825D01*
X106421172Y-89265518D01*
X106440718Y-89004697D01*
X106440718Y-88995303D01*
X106421172Y-88734481D01*
X106419769Y-88725174D01*
X106361569Y-88470187D01*
X106358795Y-88461194D01*
X106263243Y-88217730D01*
X106259160Y-88209250D01*
X106128384Y-87982741D01*
X106123093Y-87974980D01*
X106084997Y-87927208D01*
X106073580Y-87919108D01*
X106061328Y-87925880D01*
X104998939Y-88988270D01*
X104992167Y-89000000D01*
X104268790Y-89000000D01*
X103194671Y-87925881D01*
X103182417Y-87919109D01*
X103171000Y-87927210D01*
X103132907Y-87974979D01*
X103127614Y-87982743D01*
X102996839Y-88209250D01*
X102992756Y-88217730D01*
X102897204Y-88461194D01*
X102894430Y-88470187D01*
X102836230Y-88725174D01*
X102834125Y-88739141D01*
X102832699Y-88738926D01*
X102816992Y-88787756D01*
X102775409Y-88829514D01*
X102719385Y-88847795D01*
X102661176Y-88838601D01*
X102600012Y-88813266D01*
X102590626Y-88810216D01*
X102369445Y-88757115D01*
X102359699Y-88755571D01*
X102132930Y-88737725D01*
X102123070Y-88737725D01*
X101896300Y-88755571D01*
X101886554Y-88757115D01*
X101665373Y-88810216D01*
X101655987Y-88813266D01*
X101445839Y-88900312D01*
X101437044Y-88904793D01*
X101266285Y-89009433D01*
X101258183Y-89017378D01*
X97000500Y-89017378D01*
X97000500Y-87553602D01*
X103544270Y-87553602D01*
X103550284Y-87563074D01*
X104616270Y-88629060D01*
X104628000Y-88635832D01*
X104639729Y-88629060D01*
X105705714Y-87563074D01*
X105711728Y-87553602D01*
X105704060Y-87545415D01*
X105538431Y-87432491D01*
X105530286Y-87427789D01*
X105294638Y-87314307D01*
X105285881Y-87310870D01*
X105035947Y-87233775D01*
X105026790Y-87231685D01*
X104768152Y-87192702D01*
X104758775Y-87192000D01*
X104497225Y-87192000D01*
X104487847Y-87192702D01*
X104229209Y-87231685D01*
X104220052Y-87233775D01*
X103970118Y-87310870D01*
X103961361Y-87314307D01*
X103725713Y-87427789D01*
X103717568Y-87432491D01*
X103551937Y-87545416D01*
X103544270Y-87553602D01*
X97000500Y-87553602D01*
X97000500Y-85217588D01*
X99808206Y-85217588D01*
X99846126Y-85432642D01*
X99848246Y-85441142D01*
X99932307Y-85699857D01*
X99935599Y-85708004D01*
X100054847Y-85952499D01*
X100059233Y-85960095D01*
X100211351Y-86185620D01*
X100216756Y-86192538D01*
X100398775Y-86394691D01*
X100405091Y-86400789D01*
X100613471Y-86575642D01*
X100620575Y-86580804D01*
X100851274Y-86724960D01*
X100859008Y-86729073D01*
X101107532Y-86839722D01*
X101115773Y-86842722D01*
X101377266Y-86917703D01*
X101385846Y-86919527D01*
X101655234Y-86957388D01*
X101663984Y-86958000D01*
X102229410Y-86958000D01*
X102242493Y-86954493D01*
X102246000Y-86941410D01*
X102754000Y-86941410D01*
X102757506Y-86954493D01*
X102770590Y-86958000D01*
X103267923Y-86958000D01*
X103272308Y-86957846D01*
X103475757Y-86943620D01*
X103484437Y-86942400D01*
X103750529Y-86885841D01*
X103758966Y-86883421D01*
X104014586Y-86790382D01*
X104022602Y-86786813D01*
X104262790Y-86659104D01*
X104270238Y-86654450D01*
X104490305Y-86494561D01*
X104497035Y-86488914D01*
X104692715Y-86299948D01*
X104698587Y-86293426D01*
X104866063Y-86079067D01*
X104870970Y-86071793D01*
X105006983Y-85836211D01*
X105010833Y-85828319D01*
X105112735Y-85576103D01*
X105115450Y-85567746D01*
X105181257Y-85303808D01*
X105182781Y-85295163D01*
X105190512Y-85221611D01*
X105188086Y-85207851D01*
X105174656Y-85204000D01*
X102770590Y-85204000D01*
X102757506Y-85207506D01*
X102754000Y-85220590D01*
X102754000Y-86941410D01*
X102246000Y-86941410D01*
X102246000Y-85220590D01*
X102242493Y-85207506D01*
X102229410Y-85204000D01*
X99819608Y-85204000D01*
X99808694Y-85206419D01*
X99808206Y-85217588D01*
X97000500Y-85217588D01*
X97000500Y-84678388D01*
X99809487Y-84678388D01*
X99811913Y-84692148D01*
X99825344Y-84696000D01*
X102229410Y-84696000D01*
X102242493Y-84692493D01*
X102246000Y-84679410D01*
X102246000Y-82958590D01*
X102242493Y-82945506D01*
X102229410Y-82942000D01*
X101732077Y-82942000D01*
X101727691Y-82942153D01*
X101524242Y-82956379D01*
X101515562Y-82957599D01*
X101249470Y-83014158D01*
X101241033Y-83016578D01*
X100985413Y-83109617D01*
X100977397Y-83113186D01*
X100737209Y-83240895D01*
X100729761Y-83245549D01*
X100509694Y-83405438D01*
X100502964Y-83411085D01*
X100307284Y-83600051D01*
X100301412Y-83606573D01*
X100133936Y-83820932D01*
X100129029Y-83828206D01*
X99993016Y-84063788D01*
X99989166Y-84071680D01*
X99887264Y-84323896D01*
X99884549Y-84332253D01*
X99818742Y-84596191D01*
X99817218Y-84604836D01*
X99809487Y-84678388D01*
X97000500Y-84678388D01*
X97000500Y-80286350D01*
X99978379Y-80286350D01*
X99986579Y-80297733D01*
X100155877Y-80430370D01*
X100162122Y-80434680D01*
X100435968Y-80600226D01*
X100442704Y-80603762D01*
X100734498Y-80735087D01*
X100741609Y-80737784D01*
X101047111Y-80832983D01*
X101054500Y-80834804D01*
X101369247Y-80892484D01*
X101376787Y-80893399D01*
X101696198Y-80912720D01*
X101703802Y-80912720D01*
X102023212Y-80893399D01*
X102030752Y-80892484D01*
X102345499Y-80834804D01*
X102352888Y-80832983D01*
X102658390Y-80737784D01*
X102665501Y-80735087D01*
X102957295Y-80603762D01*
X102964031Y-80600226D01*
X103237866Y-80434687D01*
X103244129Y-80430364D01*
X103249315Y-80426301D01*
X103314897Y-80400065D01*
X103384292Y-80413244D01*
X103435691Y-80461694D01*
X103452941Y-80530190D01*
X103452603Y-80539231D01*
X103451566Y-80566949D01*
X103453310Y-80573460D01*
X103453700Y-80580394D01*
X103453700Y-82357320D01*
X103452908Y-82371427D01*
X103450179Y-82395638D01*
X103450179Y-82395646D01*
X103449123Y-82405021D01*
X103450877Y-82414296D01*
X103450878Y-82414298D01*
X103459298Y-82458806D01*
X103460086Y-82463446D01*
X103466832Y-82508200D01*
X103466833Y-82508204D01*
X103468240Y-82517536D01*
X103471817Y-82524963D01*
X103473350Y-82533066D01*
X103498937Y-82581480D01*
X103501039Y-82585645D01*
X103524782Y-82634948D01*
X103530390Y-82640992D01*
X103534243Y-82648282D01*
X103540921Y-82654960D01*
X103572933Y-82686972D01*
X103576202Y-82690365D01*
X103613421Y-82730477D01*
X103619255Y-82733845D01*
X103624437Y-82738476D01*
X103641408Y-82755447D01*
X103673187Y-82808967D01*
X103675467Y-82871169D01*
X103647694Y-82926873D01*
X103596645Y-82962485D01*
X103534777Y-82969316D01*
X103344765Y-82942611D01*
X103336016Y-82942000D01*
X102770590Y-82942000D01*
X102757506Y-82945506D01*
X102754000Y-82958590D01*
X102754000Y-84679410D01*
X102757506Y-84692493D01*
X102770590Y-84696000D01*
X105180392Y-84696000D01*
X105191305Y-84693580D01*
X105191793Y-84682412D01*
X105180570Y-84618765D01*
X105185521Y-84555864D01*
X105220345Y-84503249D01*
X105276312Y-84474114D01*
X105339386Y-84475766D01*
X105393751Y-84507790D01*
X107207795Y-86321834D01*
X107235109Y-86362711D01*
X107244700Y-86410929D01*
X107244700Y-86991941D01*
X107244700Y-86991958D01*
X107244701Y-86995578D01*
X107245120Y-86999190D01*
X107246569Y-87011692D01*
X107246570Y-87011697D01*
X107247662Y-87021109D01*
X107251489Y-87029776D01*
X107251490Y-87029780D01*
X107289049Y-87114843D01*
X107293766Y-87125525D01*
X107374475Y-87206234D01*
X107478891Y-87252338D01*
X107479945Y-87252460D01*
X107522937Y-87275015D01*
X107555963Y-87318226D01*
X107567700Y-87371330D01*
X107567700Y-87468646D01*
X107566908Y-87482753D01*
X107564179Y-87506964D01*
X107564179Y-87506972D01*
X107563123Y-87516347D01*
X107564877Y-87525622D01*
X107564878Y-87525624D01*
X107573298Y-87570132D01*
X107574086Y-87574772D01*
X107580832Y-87619526D01*
X107580833Y-87619530D01*
X107582240Y-87628862D01*
X107585817Y-87636289D01*
X107587350Y-87644392D01*
X107612937Y-87692806D01*
X107615039Y-87696971D01*
X107638782Y-87746274D01*
X107644390Y-87752318D01*
X107648243Y-87759608D01*
X107654921Y-87766286D01*
X107686933Y-87798298D01*
X107690202Y-87801691D01*
X107715397Y-87828845D01*
X107727421Y-87841803D01*
X107733255Y-87845171D01*
X107738437Y-87849802D01*
X108418240Y-88529605D01*
X108448978Y-88579764D01*
X108453594Y-88638411D01*
X108431081Y-88692761D01*
X108386348Y-88730967D01*
X108329145Y-88744700D01*
X107508058Y-88744700D01*
X107508040Y-88744700D01*
X107504422Y-88744701D01*
X107500809Y-88745119D01*
X107500809Y-88745120D01*
X107488307Y-88746569D01*
X107488300Y-88746570D01*
X107478891Y-88747662D01*
X107470225Y-88751488D01*
X107470219Y-88751490D01*
X107385156Y-88789049D01*
X107385152Y-88789051D01*
X107374475Y-88793766D01*
X107366220Y-88802020D01*
X107366217Y-88802023D01*
X107302023Y-88866217D01*
X107302020Y-88866220D01*
X107293766Y-88874475D01*
X107289051Y-88885152D01*
X107289049Y-88885156D01*
X107251491Y-88970218D01*
X107247662Y-88978891D01*
X107246569Y-88988306D01*
X107246569Y-88988309D01*
X107245120Y-89000794D01*
X107245119Y-89000807D01*
X107244700Y-89004421D01*
X107244700Y-89008066D01*
X107244700Y-89008067D01*
X107244700Y-89991941D01*
X107244700Y-89991958D01*
X107244701Y-89995578D01*
X107245120Y-89999190D01*
X107246569Y-90011692D01*
X107246570Y-90011697D01*
X107247662Y-90021109D01*
X107251489Y-90029776D01*
X107251490Y-90029780D01*
X107289049Y-90114843D01*
X107293766Y-90125525D01*
X107374475Y-90206234D01*
X107478891Y-90252338D01*
X107504421Y-90255300D01*
X108495578Y-90255299D01*
X108521109Y-90252338D01*
X108619107Y-90209067D01*
X108670000Y-90198332D01*
X108720892Y-90209067D01*
X108818891Y-90252338D01*
X108844421Y-90255300D01*
X109603700Y-90255299D01*
X109666700Y-90272180D01*
X109712819Y-90318299D01*
X109729700Y-90381299D01*
X109729700Y-90604505D01*
X109717216Y-90659186D01*
X109693003Y-90689537D01*
X109694806Y-90691210D01*
X109688382Y-90698132D01*
X109681005Y-90704016D01*
X109675691Y-90711808D01*
X109675685Y-90711816D01*
X109650312Y-90749030D01*
X109647589Y-90752867D01*
X109620873Y-90789066D01*
X109620867Y-90789077D01*
X109615268Y-90796664D01*
X109612557Y-90804408D01*
X109607934Y-90811191D01*
X109605154Y-90820201D01*
X109605151Y-90820209D01*
X109591879Y-90863235D01*
X109590408Y-90867705D01*
X109575545Y-90910183D01*
X109575543Y-90910191D01*
X109572427Y-90919098D01*
X109572120Y-90927296D01*
X109569700Y-90935143D01*
X109569700Y-90944581D01*
X109569700Y-90989605D01*
X109569612Y-90994317D01*
X109567991Y-91037643D01*
X109567576Y-91048722D01*
X109569314Y-91055209D01*
X109569700Y-91062081D01*
X109569700Y-97519574D01*
X109560109Y-97567792D01*
X109532795Y-97608669D01*
X108608669Y-98532795D01*
X108567792Y-98560109D01*
X108519574Y-98569700D01*
X105031242Y-98569700D01*
X105017134Y-98568908D01*
X104993112Y-98566201D01*
X104993110Y-98566201D01*
X104983729Y-98565144D01*
X104974453Y-98566898D01*
X104974452Y-98566899D01*
X104963835Y-98568908D01*
X104930225Y-98575267D01*
X104925602Y-98576052D01*
X104881073Y-98582764D01*
X104881064Y-98582766D01*
X104871734Y-98584173D01*
X104864339Y-98587734D01*
X104856275Y-98589260D01*
X104847933Y-98593668D01*
X104847929Y-98593670D01*
X104808127Y-98614706D01*
X104803926Y-98616827D01*
X104763372Y-98636357D01*
X104763369Y-98636358D01*
X104754866Y-98640454D01*
X104748851Y-98646035D01*
X104741593Y-98649871D01*
X104734926Y-98656536D01*
X104734920Y-98656542D01*
X104703088Y-98688374D01*
X104699699Y-98691639D01*
X104666695Y-98722263D01*
X104666692Y-98722266D01*
X104659778Y-98728682D01*
X104656421Y-98734494D01*
X104651826Y-98739636D01*
X103217824Y-100173638D01*
X103207292Y-100183051D01*
X103188384Y-100198129D01*
X103188376Y-100198137D01*
X103181005Y-100204016D01*
X103175691Y-100211808D01*
X103175685Y-100211816D01*
X103150312Y-100249030D01*
X103147589Y-100252867D01*
X103120873Y-100289066D01*
X103120867Y-100289077D01*
X103115268Y-100296664D01*
X103112557Y-100304408D01*
X103107934Y-100311191D01*
X103105154Y-100320201D01*
X103105151Y-100320209D01*
X103091879Y-100363235D01*
X103090408Y-100367705D01*
X103075545Y-100410183D01*
X103075543Y-100410191D01*
X103072427Y-100419098D01*
X103072120Y-100427296D01*
X103069700Y-100435143D01*
X103069700Y-100444581D01*
X103069700Y-100489605D01*
X103069611Y-100494317D01*
X103067576Y-100548722D01*
X103069314Y-100555209D01*
X103069700Y-100562081D01*
X103069700Y-104882756D01*
X103068907Y-104896866D01*
X103066243Y-104920505D01*
X103054557Y-104961066D01*
X103030131Y-104995490D01*
X101876927Y-106148694D01*
X101863079Y-106160663D01*
X101861007Y-106162206D01*
X101843953Y-106174903D01*
X101839241Y-106180517D01*
X101839236Y-106180523D01*
X101812194Y-106212750D01*
X101804794Y-106220827D01*
X101803535Y-106222086D01*
X101803521Y-106222101D01*
X101800934Y-106224689D01*
X101798673Y-106227548D01*
X101798652Y-106227572D01*
X101781750Y-106248949D01*
X101779437Y-106251788D01*
X101736005Y-106303548D01*
X101735998Y-106303558D01*
X101731287Y-106309173D01*
X101727996Y-106315725D01*
X101726288Y-106318322D01*
X101725947Y-106318793D01*
X101725657Y-106319314D01*
X101724034Y-106321944D01*
X101719489Y-106327694D01*
X101716391Y-106334338D01*
X101687844Y-106395554D01*
X101686249Y-106398849D01*
X101666088Y-106438995D01*
X101652622Y-106465808D01*
X101650931Y-106472941D01*
X101649870Y-106475856D01*
X101649645Y-106476397D01*
X101649485Y-106476964D01*
X101648510Y-106479906D01*
X101645413Y-106486549D01*
X101643930Y-106493727D01*
X101643930Y-106493730D01*
X101630273Y-106559870D01*
X101629480Y-106563446D01*
X101613892Y-106629218D01*
X101613891Y-106629225D01*
X101612200Y-106636361D01*
X101612200Y-106643695D01*
X101611841Y-106646767D01*
X101611746Y-106647354D01*
X101611720Y-106647962D01*
X101611452Y-106651023D01*
X101609969Y-106658206D01*
X101610182Y-106665533D01*
X101610182Y-106665536D01*
X101612147Y-106733058D01*
X101612200Y-106736723D01*
X101612200Y-116580720D01*
X101595684Y-116643084D01*
X101550466Y-116689098D01*
X101488400Y-116706701D01*
X101425758Y-116691276D01*
X101384041Y-116651690D01*
X101383298Y-116652278D01*
X101379203Y-116647100D01*
X101378960Y-116646869D01*
X101378744Y-116646519D01*
X101369697Y-116635078D01*
X101258921Y-116524302D01*
X101247480Y-116515255D01*
X101114132Y-116433005D01*
X101100920Y-116426845D01*
X100951762Y-116377418D01*
X100938398Y-116374557D01*
X100848028Y-116365325D01*
X100841639Y-116365000D01*
X100841590Y-116365000D01*
X100828506Y-116368506D01*
X100825000Y-116381590D01*
X100825000Y-118314410D01*
X100828506Y-118327493D01*
X100841590Y-118331000D01*
X100841639Y-118331000D01*
X100848028Y-118330674D01*
X100938398Y-118321442D01*
X100951762Y-118318581D01*
X101100920Y-118269154D01*
X101114132Y-118262994D01*
X101247480Y-118180744D01*
X101258921Y-118171697D01*
X101369697Y-118060921D01*
X101378740Y-118049485D01*
X101380794Y-118046156D01*
X101382881Y-118044248D01*
X101383298Y-118043722D01*
X101383383Y-118043789D01*
X101431819Y-117999535D01*
X101499760Y-117986843D01*
X101564170Y-118011898D01*
X101633651Y-118064588D01*
X101769263Y-118118066D01*
X101781033Y-118119479D01*
X101821094Y-118131257D01*
X101855107Y-118155485D01*
X103434695Y-119735072D01*
X103446662Y-119748918D01*
X103460903Y-119768047D01*
X103466521Y-119772761D01*
X103466522Y-119772762D01*
X103498752Y-119799806D01*
X103506856Y-119807233D01*
X103510689Y-119811066D01*
X103513564Y-119813339D01*
X103513565Y-119813340D01*
X103534942Y-119830242D01*
X103537780Y-119832554D01*
X103595173Y-119880713D01*
X103601726Y-119884003D01*
X103604308Y-119885702D01*
X103604790Y-119886050D01*
X103604792Y-119886051D01*
X103605327Y-119886350D01*
X103607943Y-119887963D01*
X103613694Y-119892511D01*
X103620340Y-119895610D01*
X103681553Y-119924154D01*
X103684852Y-119925752D01*
X103745245Y-119956083D01*
X103745252Y-119956085D01*
X103751808Y-119959378D01*
X103758949Y-119961070D01*
X103761834Y-119962120D01*
X103762390Y-119962350D01*
X103762989Y-119962520D01*
X103765888Y-119963480D01*
X103772549Y-119966587D01*
X103845974Y-119981747D01*
X103849400Y-119982507D01*
X103922361Y-119999800D01*
X103929705Y-119999800D01*
X103932766Y-120000158D01*
X103933357Y-120000253D01*
X103933962Y-120000280D01*
X103937021Y-120000547D01*
X103944206Y-120002031D01*
X104019057Y-119999853D01*
X104022723Y-119999800D01*
X118684196Y-119999800D01*
X118702457Y-120001129D01*
X118726044Y-120004585D01*
X118733359Y-120003944D01*
X118733362Y-120003945D01*
X118775260Y-120000280D01*
X118786242Y-119999800D01*
X118787999Y-119999800D01*
X118791667Y-119999800D01*
X118822379Y-119996209D01*
X118825988Y-119995840D01*
X118900654Y-119989308D01*
X118907621Y-119986999D01*
X118910639Y-119986376D01*
X118911232Y-119986280D01*
X118911823Y-119986113D01*
X118914801Y-119985407D01*
X118922093Y-119984555D01*
X118992527Y-119958918D01*
X118995832Y-119957768D01*
X119067037Y-119934175D01*
X119073291Y-119930317D01*
X119076060Y-119929026D01*
X119076629Y-119928790D01*
X119077160Y-119928494D01*
X119079898Y-119927118D01*
X119086800Y-119924607D01*
X119149393Y-119883437D01*
X119152441Y-119881495D01*
X119216219Y-119842159D01*
X119221414Y-119836962D01*
X119223812Y-119835067D01*
X119224306Y-119834710D01*
X119224767Y-119834288D01*
X119227102Y-119832328D01*
X119233243Y-119828290D01*
X119284677Y-119773771D01*
X119287129Y-119771247D01*
X120132079Y-118926296D01*
X120145925Y-118914332D01*
X120165047Y-118900097D01*
X120176925Y-118885940D01*
X120196799Y-118862256D01*
X120204232Y-118854144D01*
X120208066Y-118850311D01*
X120227269Y-118826023D01*
X120229530Y-118823246D01*
X120277713Y-118765827D01*
X120281007Y-118759265D01*
X120282701Y-118756691D01*
X120283046Y-118756213D01*
X120283050Y-118756206D01*
X120283362Y-118755648D01*
X120284950Y-118753072D01*
X120289511Y-118747306D01*
X120321157Y-118679437D01*
X120322752Y-118676145D01*
X120325516Y-118670641D01*
X120356378Y-118609192D01*
X120358071Y-118602045D01*
X120359115Y-118599178D01*
X120359347Y-118598616D01*
X120359354Y-118598598D01*
X120359519Y-118598016D01*
X120360483Y-118595105D01*
X120363587Y-118588451D01*
X120378745Y-118515030D01*
X120379505Y-118511606D01*
X120396800Y-118438639D01*
X120396800Y-118431296D01*
X120397158Y-118428234D01*
X120397253Y-118427643D01*
X120397280Y-118427038D01*
X120397547Y-118423978D01*
X120399031Y-118416794D01*
X120396853Y-118341942D01*
X120396800Y-118338277D01*
X120396800Y-116061800D01*
X120413681Y-115998800D01*
X120459800Y-115952681D01*
X120522800Y-115935800D01*
X120827865Y-115935800D01*
X120868027Y-115942372D01*
X120903999Y-115961403D01*
X120923298Y-115976038D01*
X121020283Y-116049584D01*
X121162289Y-116105584D01*
X121251524Y-116116300D01*
X122584709Y-116116300D01*
X122588476Y-116116300D01*
X122677711Y-116105584D01*
X122819717Y-116049584D01*
X122941348Y-115957348D01*
X123033584Y-115835717D01*
X123089584Y-115693711D01*
X123100300Y-115604476D01*
X123100300Y-114767524D01*
X123089584Y-114678289D01*
X123033584Y-114536283D01*
X122941348Y-114414652D01*
X122931125Y-114406900D01*
X122887150Y-114373552D01*
X122819717Y-114322416D01*
X122794085Y-114312308D01*
X122685229Y-114269380D01*
X122685223Y-114269378D01*
X122677711Y-114266416D01*
X122669688Y-114265452D01*
X122669686Y-114265452D01*
X122592217Y-114256149D01*
X122592212Y-114256148D01*
X122588476Y-114255700D01*
X121251524Y-114255700D01*
X121247788Y-114256148D01*
X121247782Y-114256149D01*
X121170313Y-114265452D01*
X121170309Y-114265452D01*
X121162289Y-114266416D01*
X121154777Y-114269378D01*
X121154770Y-114269380D01*
X121028303Y-114319253D01*
X121028301Y-114319254D01*
X121020283Y-114322416D01*
X121013414Y-114327624D01*
X121013412Y-114327626D01*
X120903999Y-114410597D01*
X120868027Y-114429628D01*
X120827865Y-114436200D01*
X120528300Y-114436200D01*
X120465300Y-114419319D01*
X120419181Y-114373200D01*
X120402300Y-114310200D01*
X120402300Y-113758249D01*
X120402300Y-113754482D01*
X120397699Y-113716169D01*
X120396800Y-113701146D01*
X120396800Y-112168355D01*
X120410533Y-112111152D01*
X120448739Y-112066419D01*
X120503089Y-112043906D01*
X120561736Y-112048522D01*
X120611895Y-112079260D01*
X120870142Y-112337507D01*
X120879558Y-112348042D01*
X120900640Y-112374478D01*
X120908439Y-112379795D01*
X120908440Y-112379796D01*
X120945870Y-112405315D01*
X120949669Y-112408010D01*
X120993718Y-112440520D01*
X121001500Y-112443243D01*
X121008313Y-112447888D01*
X121060626Y-112464024D01*
X121065032Y-112465474D01*
X121116722Y-112483562D01*
X121124964Y-112483870D01*
X121132841Y-112486300D01*
X121187549Y-112486300D01*
X121192260Y-112486388D01*
X121246949Y-112488434D01*
X121253460Y-112486689D01*
X121260394Y-112486300D01*
X121758670Y-112486300D01*
X121811774Y-112498037D01*
X121854985Y-112531063D01*
X121877539Y-112574055D01*
X121877662Y-112575109D01*
X121894805Y-112613934D01*
X121908935Y-112645937D01*
X121923766Y-112679525D01*
X122004475Y-112760234D01*
X122108891Y-112806338D01*
X122134421Y-112809300D01*
X122431666Y-112809299D01*
X122479884Y-112818890D01*
X122520761Y-112846204D01*
X124754920Y-115080363D01*
X124784335Y-115126665D01*
X124791288Y-115181078D01*
X124790073Y-115194197D01*
X124790073Y-115194205D01*
X124789536Y-115200000D01*
X124810146Y-115422422D01*
X124811738Y-115428020D01*
X124811739Y-115428021D01*
X124868385Y-115627112D01*
X124871276Y-115637270D01*
X124873869Y-115642477D01*
X124873870Y-115642480D01*
X124947056Y-115789456D01*
X124970843Y-115837227D01*
X124974351Y-115841873D01*
X124974354Y-115841877D01*
X125101943Y-116010833D01*
X125101947Y-116010837D01*
X125105456Y-116015484D01*
X125109758Y-116019406D01*
X125109761Y-116019409D01*
X125146330Y-116052746D01*
X125270532Y-116165971D01*
X125460450Y-116283563D01*
X125668741Y-116364255D01*
X125888312Y-116405300D01*
X126105860Y-116405300D01*
X126111688Y-116405300D01*
X126331259Y-116364255D01*
X126539550Y-116283563D01*
X126729468Y-116165971D01*
X126894544Y-116015484D01*
X127029157Y-115837227D01*
X127128724Y-115637270D01*
X127130318Y-115631667D01*
X127132422Y-115626237D01*
X127134680Y-115627112D01*
X127161697Y-115581568D01*
X127217748Y-115549647D01*
X127282252Y-115549647D01*
X127338303Y-115581568D01*
X127365319Y-115627112D01*
X127367578Y-115626237D01*
X127369682Y-115631669D01*
X127371276Y-115637270D01*
X127373869Y-115642477D01*
X127373870Y-115642480D01*
X127447056Y-115789456D01*
X127470843Y-115837227D01*
X127474351Y-115841873D01*
X127474354Y-115841877D01*
X127534250Y-115921192D01*
X127553168Y-115957082D01*
X127559700Y-115997124D01*
X127559700Y-116558325D01*
X127550109Y-116606543D01*
X127522795Y-116647420D01*
X127161420Y-117008795D01*
X127120543Y-117036109D01*
X127072325Y-117045700D01*
X121870725Y-117045700D01*
X121867468Y-117046042D01*
X121867455Y-117046043D01*
X121782147Y-117055010D01*
X121768976Y-117055700D01*
X121251524Y-117055700D01*
X121247788Y-117056148D01*
X121247782Y-117056149D01*
X121170313Y-117065452D01*
X121170309Y-117065452D01*
X121162289Y-117066416D01*
X121154777Y-117069378D01*
X121154770Y-117069380D01*
X121028303Y-117119253D01*
X121028301Y-117119254D01*
X121020283Y-117122416D01*
X121013414Y-117127624D01*
X121013412Y-117127626D01*
X120905516Y-117209446D01*
X120905512Y-117209449D01*
X120898652Y-117214652D01*
X120893449Y-117221512D01*
X120893446Y-117221516D01*
X120823026Y-117314379D01*
X120806416Y-117336283D01*
X120803254Y-117344301D01*
X120803253Y-117344303D01*
X120753380Y-117470770D01*
X120753378Y-117470777D01*
X120750416Y-117478289D01*
X120749452Y-117486309D01*
X120749452Y-117486313D01*
X120741115Y-117555739D01*
X120739700Y-117567524D01*
X120739700Y-118404476D01*
X120740148Y-118408212D01*
X120740149Y-118408217D01*
X120743802Y-118438639D01*
X120750416Y-118493711D01*
X120753378Y-118501223D01*
X120753380Y-118501229D01*
X120758862Y-118515129D01*
X120806416Y-118635717D01*
X120898652Y-118757348D01*
X121020283Y-118849584D01*
X121162289Y-118905584D01*
X121251524Y-118916300D01*
X121768976Y-118916300D01*
X121782146Y-118916989D01*
X121870725Y-118926300D01*
X127430083Y-118926300D01*
X127449792Y-118927850D01*
X127464517Y-118930183D01*
X127535312Y-118926473D01*
X127541907Y-118926300D01*
X127559973Y-118926300D01*
X127563275Y-118926300D01*
X127584531Y-118924065D01*
X127591084Y-118923549D01*
X127661906Y-118919839D01*
X127668671Y-118918026D01*
X127676307Y-118915980D01*
X127695758Y-118912375D01*
X127710576Y-118910818D01*
X127778011Y-118888905D01*
X127784326Y-118887035D01*
X127852829Y-118868681D01*
X127866120Y-118861908D01*
X127884371Y-118854347D01*
X127898561Y-118849738D01*
X127954245Y-118817588D01*
X128808206Y-118817588D01*
X128846126Y-119032642D01*
X128848246Y-119041142D01*
X128932307Y-119299857D01*
X128935599Y-119308004D01*
X129054847Y-119552499D01*
X129059233Y-119560095D01*
X129211351Y-119785620D01*
X129216756Y-119792538D01*
X129398775Y-119994691D01*
X129405091Y-120000789D01*
X129613471Y-120175642D01*
X129620575Y-120180804D01*
X129851274Y-120324960D01*
X129859008Y-120329073D01*
X130107532Y-120439722D01*
X130115773Y-120442722D01*
X130377266Y-120517703D01*
X130385846Y-120519527D01*
X130655234Y-120557388D01*
X130663984Y-120558000D01*
X131229410Y-120558000D01*
X131242493Y-120554493D01*
X131246000Y-120541410D01*
X131754000Y-120541410D01*
X131757506Y-120554493D01*
X131770590Y-120558000D01*
X132267923Y-120558000D01*
X132272308Y-120557846D01*
X132475757Y-120543620D01*
X132484437Y-120542400D01*
X132750529Y-120485841D01*
X132758966Y-120483421D01*
X133014586Y-120390382D01*
X133022602Y-120386813D01*
X133262790Y-120259104D01*
X133270238Y-120254450D01*
X133490305Y-120094561D01*
X133497035Y-120088914D01*
X133692715Y-119899948D01*
X133698587Y-119893426D01*
X133866063Y-119679067D01*
X133870970Y-119671793D01*
X134006983Y-119436211D01*
X134010833Y-119428319D01*
X134112735Y-119176103D01*
X134115450Y-119167746D01*
X134181257Y-118903808D01*
X134182781Y-118895163D01*
X134190512Y-118821611D01*
X134188086Y-118807851D01*
X134174656Y-118804000D01*
X131770590Y-118804000D01*
X131757506Y-118807506D01*
X131754000Y-118820590D01*
X131754000Y-120541410D01*
X131246000Y-120541410D01*
X131246000Y-118820590D01*
X131242493Y-118807506D01*
X131229410Y-118804000D01*
X128819608Y-118804000D01*
X128808694Y-118806419D01*
X128808206Y-118817588D01*
X127954245Y-118817588D01*
X127959981Y-118814276D01*
X127965753Y-118811142D01*
X128028945Y-118778945D01*
X128040529Y-118769563D01*
X128056825Y-118758364D01*
X128069739Y-118750909D01*
X128122457Y-118703439D01*
X128127436Y-118699186D01*
X128144050Y-118685735D01*
X128159164Y-118670619D01*
X128163910Y-118666115D01*
X128216628Y-118618649D01*
X128225392Y-118606585D01*
X128238224Y-118591559D01*
X128599652Y-118230131D01*
X128658795Y-118196840D01*
X128726632Y-118199060D01*
X128783475Y-118236150D01*
X128809877Y-118291194D01*
X128810327Y-118291694D01*
X128825344Y-118296000D01*
X131229410Y-118296000D01*
X131242493Y-118292493D01*
X131246000Y-118279410D01*
X131754000Y-118279410D01*
X131757506Y-118292493D01*
X131770590Y-118296000D01*
X134180392Y-118296000D01*
X134191305Y-118293580D01*
X134191793Y-118282411D01*
X134153873Y-118067357D01*
X134151753Y-118058857D01*
X134067692Y-117800142D01*
X134064400Y-117791995D01*
X133945152Y-117547500D01*
X133940766Y-117539904D01*
X133788648Y-117314379D01*
X133783243Y-117307461D01*
X133601224Y-117105308D01*
X133594908Y-117099210D01*
X133386528Y-116924357D01*
X133379424Y-116919195D01*
X133148725Y-116775039D01*
X133140991Y-116770926D01*
X132892467Y-116660277D01*
X132884226Y-116657277D01*
X132622733Y-116582296D01*
X132614153Y-116580472D01*
X132344765Y-116542611D01*
X132336016Y-116542000D01*
X131770590Y-116542000D01*
X131757506Y-116545506D01*
X131754000Y-116558590D01*
X131754000Y-118279410D01*
X131246000Y-118279410D01*
X131246000Y-116558590D01*
X131242493Y-116545506D01*
X131229410Y-116542000D01*
X130732077Y-116542000D01*
X130727691Y-116542153D01*
X130524242Y-116556379D01*
X130515562Y-116557599D01*
X130249470Y-116614158D01*
X130241033Y-116616578D01*
X129985413Y-116709617D01*
X129977397Y-116713186D01*
X129737209Y-116840895D01*
X129729761Y-116845549D01*
X129640361Y-116910503D01*
X129576186Y-116934179D01*
X129509097Y-116920834D01*
X129458867Y-116874402D01*
X129440300Y-116808567D01*
X129440300Y-116128300D01*
X129457181Y-116065300D01*
X129503300Y-116019181D01*
X129566300Y-116002300D01*
X134595451Y-116002300D01*
X134603059Y-116002529D01*
X134661742Y-116006080D01*
X134719613Y-115995473D01*
X134727052Y-115994341D01*
X134785449Y-115987252D01*
X134794345Y-115983877D01*
X134816316Y-115977753D01*
X134825676Y-115976038D01*
X134879320Y-115951893D01*
X134886298Y-115949004D01*
X134941282Y-115928152D01*
X134949108Y-115922749D01*
X134968977Y-115911543D01*
X134977657Y-115907637D01*
X135023946Y-115871370D01*
X135030038Y-115866887D01*
X135078444Y-115833476D01*
X135117457Y-115789436D01*
X135122643Y-115783929D01*
X136357937Y-114548636D01*
X136363445Y-114543450D01*
X136407476Y-114504444D01*
X136440870Y-114456061D01*
X136445381Y-114449933D01*
X136445957Y-114449198D01*
X136481637Y-114403657D01*
X136485539Y-114394985D01*
X136496754Y-114375101D01*
X136502152Y-114367282D01*
X136514362Y-114335087D01*
X136523000Y-114312308D01*
X136525901Y-114305301D01*
X136550037Y-114251676D01*
X136551748Y-114242333D01*
X136557880Y-114220340D01*
X136558549Y-114218575D01*
X136561252Y-114211449D01*
X136568344Y-114153031D01*
X136569475Y-114145597D01*
X136580079Y-114087742D01*
X136576530Y-114029070D01*
X136576300Y-114021462D01*
X136576300Y-74192549D01*
X136576530Y-74184940D01*
X136577019Y-74176858D01*
X136580080Y-74126258D01*
X136569480Y-74068422D01*
X136568336Y-74060897D01*
X136567106Y-74050766D01*
X136561252Y-74002551D01*
X136557875Y-73993646D01*
X136551752Y-73971683D01*
X136550038Y-73962324D01*
X136525910Y-73908714D01*
X136522997Y-73901682D01*
X136504854Y-73853842D01*
X136504853Y-73853840D01*
X136502152Y-73846718D01*
X136496749Y-73838890D01*
X136485541Y-73819018D01*
X136485408Y-73818723D01*
X136481637Y-73810343D01*
X136445372Y-73764054D01*
X136440881Y-73757952D01*
X136407476Y-73709556D01*
X136363455Y-73670557D01*
X136357913Y-73665339D01*
X132328660Y-69636086D01*
X132323442Y-69630544D01*
X132289496Y-69592227D01*
X132289495Y-69592226D01*
X132284444Y-69586524D01*
X132278177Y-69582198D01*
X132278169Y-69582191D01*
X132236058Y-69553124D01*
X132229928Y-69548614D01*
X132189657Y-69517063D01*
X132189653Y-69517060D01*
X132183657Y-69512363D01*
X132176706Y-69509234D01*
X132176704Y-69509233D01*
X132174970Y-69508453D01*
X132155117Y-69497256D01*
X132153549Y-69496173D01*
X132153546Y-69496171D01*
X132147282Y-69491848D01*
X132140163Y-69489148D01*
X132140161Y-69489147D01*
X132092317Y-69471002D01*
X132085287Y-69468090D01*
X132038621Y-69447087D01*
X132038616Y-69447085D01*
X132031676Y-69443962D01*
X132024185Y-69442589D01*
X132024182Y-69442588D01*
X132022305Y-69442244D01*
X132000351Y-69436124D01*
X131998570Y-69435448D01*
X131998566Y-69435447D01*
X131991449Y-69432748D01*
X131983889Y-69431830D01*
X131983885Y-69431829D01*
X131933093Y-69425662D01*
X131925571Y-69424517D01*
X131875240Y-69415293D01*
X131875231Y-69415292D01*
X131867742Y-69413920D01*
X131860136Y-69414380D01*
X131860134Y-69414380D01*
X131809060Y-69417470D01*
X131801451Y-69417700D01*
X109244537Y-69417700D01*
X109236929Y-69417470D01*
X109185866Y-69414381D01*
X109185864Y-69414381D01*
X109178258Y-69413921D01*
X109120438Y-69424516D01*
X109112927Y-69425659D01*
X109062120Y-69431828D01*
X109062112Y-69431829D01*
X109054551Y-69432748D01*
X109045636Y-69436128D01*
X109023691Y-69442246D01*
X109022709Y-69442425D01*
X109021819Y-69442589D01*
X109021816Y-69442589D01*
X109014324Y-69443963D01*
X109007381Y-69447087D01*
X109007370Y-69447091D01*
X108960719Y-69468087D01*
X108953691Y-69470998D01*
X108905841Y-69489145D01*
X108905830Y-69489150D01*
X108898718Y-69491848D01*
X108892455Y-69496170D01*
X108892445Y-69496176D01*
X108890881Y-69497256D01*
X108871029Y-69508453D01*
X108869291Y-69509235D01*
X108869285Y-69509238D01*
X108862343Y-69512363D01*
X108856351Y-69517056D01*
X108856343Y-69517062D01*
X108816050Y-69548629D01*
X108809925Y-69553136D01*
X108767824Y-69582197D01*
X108767821Y-69582198D01*
X108761556Y-69586524D01*
X108756509Y-69592220D01*
X108756503Y-69592226D01*
X108722564Y-69630535D01*
X108717348Y-69636075D01*
X105032084Y-73321340D01*
X105026544Y-73326556D01*
X104988224Y-73360505D01*
X104988219Y-73360510D01*
X104982524Y-73365556D01*
X104978204Y-73371814D01*
X104978199Y-73371820D01*
X104949127Y-73413937D01*
X104944620Y-73420061D01*
X104913065Y-73460339D01*
X104913059Y-73460348D01*
X104908363Y-73466343D01*
X104905236Y-73473288D01*
X104905232Y-73473296D01*
X104904449Y-73475037D01*
X104893261Y-73494874D01*
X104892178Y-73496443D01*
X104892175Y-73496447D01*
X104887848Y-73502718D01*
X104885147Y-73509837D01*
X104885146Y-73509841D01*
X104867005Y-73557674D01*
X104864094Y-73564701D01*
X104843090Y-73611370D01*
X104843086Y-73611381D01*
X104839962Y-73618324D01*
X104838588Y-73625817D01*
X104838588Y-73625819D01*
X104838246Y-73627688D01*
X104832126Y-73649642D01*
X104831450Y-73651422D01*
X104831447Y-73651432D01*
X104828748Y-73658551D01*
X104827829Y-73666116D01*
X104827829Y-73666118D01*
X104821661Y-73716911D01*
X104820518Y-73724422D01*
X104813936Y-73760338D01*
X104797248Y-73803762D01*
X104770119Y-73833576D01*
X104770532Y-73834029D01*
X104609761Y-73980590D01*
X104609753Y-73980598D01*
X104605456Y-73984516D01*
X104601951Y-73989156D01*
X104601943Y-73989166D01*
X104474354Y-74158122D01*
X104474348Y-74158131D01*
X104470843Y-74162773D01*
X104468249Y-74167980D01*
X104468246Y-74167987D01*
X104373870Y-74357519D01*
X104373867Y-74357526D01*
X104371276Y-74362730D01*
X104369684Y-74368323D01*
X104369682Y-74368330D01*
X104311739Y-74571978D01*
X104310146Y-74577578D01*
X104309609Y-74583370D01*
X104309609Y-74583372D01*
X104300095Y-74686051D01*
X104289536Y-74800000D01*
X104310146Y-75022422D01*
X104311738Y-75028020D01*
X104311739Y-75028021D01*
X104368385Y-75227112D01*
X104371276Y-75237270D01*
X104373869Y-75242477D01*
X104373870Y-75242480D01*
X104468246Y-75432012D01*
X104470843Y-75437227D01*
X104474351Y-75441873D01*
X104474354Y-75441877D01*
X104601943Y-75610833D01*
X104601947Y-75610837D01*
X104605456Y-75615484D01*
X104609758Y-75619406D01*
X104609761Y-75619409D01*
X104760565Y-75756885D01*
X104796869Y-75815519D01*
X104796869Y-75884481D01*
X104760565Y-75943115D01*
X104609761Y-76080590D01*
X104609753Y-76080598D01*
X104605456Y-76084516D01*
X104601951Y-76089156D01*
X104601943Y-76089166D01*
X104474354Y-76258122D01*
X104474348Y-76258131D01*
X104470843Y-76262773D01*
X104468249Y-76267980D01*
X104468246Y-76267987D01*
X104373870Y-76457519D01*
X104373867Y-76457526D01*
X104371276Y-76462730D01*
X104369684Y-76468323D01*
X104369682Y-76468330D01*
X104314358Y-76662773D01*
X104310146Y-76677578D01*
X104309609Y-76683371D01*
X104309607Y-76683383D01*
X104296793Y-76821662D01*
X104275784Y-76880503D01*
X104229091Y-76922017D01*
X104168197Y-76935997D01*
X104108072Y-76919006D01*
X104063502Y-76875220D01*
X103934677Y-76662117D01*
X103930370Y-76655877D01*
X103797733Y-76486579D01*
X103786350Y-76478379D01*
X103774061Y-76485148D01*
X99985148Y-80274061D01*
X99978379Y-80286350D01*
X97000500Y-80286350D01*
X97000500Y-78203802D01*
X98987280Y-78203802D01*
X99006600Y-78523212D01*
X99007515Y-78530752D01*
X99065195Y-78845499D01*
X99067016Y-78852888D01*
X99162215Y-79158390D01*
X99164912Y-79165501D01*
X99296237Y-79457295D01*
X99299773Y-79464031D01*
X99465319Y-79737877D01*
X99469629Y-79744122D01*
X99602265Y-79913419D01*
X99613648Y-79921619D01*
X99625937Y-79914850D01*
X101329059Y-78211729D01*
X101335831Y-78200000D01*
X101329059Y-78188270D01*
X99625937Y-76485148D01*
X99613648Y-76478379D01*
X99602264Y-76486580D01*
X99469640Y-76655864D01*
X99465312Y-76662133D01*
X99299773Y-76935968D01*
X99296237Y-76942704D01*
X99164912Y-77234498D01*
X99162215Y-77241609D01*
X99067016Y-77547111D01*
X99065195Y-77554500D01*
X99007515Y-77869247D01*
X99006600Y-77876787D01*
X98987280Y-78196198D01*
X98987280Y-78203802D01*
X97000500Y-78203802D01*
X97000500Y-76113648D01*
X99978379Y-76113648D01*
X99985148Y-76125937D01*
X101688270Y-77829059D01*
X101700000Y-77835831D01*
X101711729Y-77829059D01*
X103414850Y-76125937D01*
X103421619Y-76113648D01*
X103413419Y-76102265D01*
X103244122Y-75969629D01*
X103237877Y-75965319D01*
X102964031Y-75799773D01*
X102957295Y-75796237D01*
X102665501Y-75664912D01*
X102658390Y-75662215D01*
X102352888Y-75567016D01*
X102345499Y-75565195D01*
X102030752Y-75507515D01*
X102023212Y-75506600D01*
X101703802Y-75487280D01*
X101696198Y-75487280D01*
X101376787Y-75506600D01*
X101369247Y-75507515D01*
X101054500Y-75565195D01*
X101047111Y-75567016D01*
X100741609Y-75662215D01*
X100734498Y-75664912D01*
X100442704Y-75796237D01*
X100435968Y-75799773D01*
X100162133Y-75965312D01*
X100155864Y-75969640D01*
X99986580Y-76102264D01*
X99978379Y-76113648D01*
X97000500Y-76113648D01*
X97000500Y-71717588D01*
X99808206Y-71717588D01*
X99846126Y-71932642D01*
X99848246Y-71941142D01*
X99932307Y-72199857D01*
X99935599Y-72208004D01*
X100054847Y-72452499D01*
X100059233Y-72460095D01*
X100211351Y-72685620D01*
X100216756Y-72692538D01*
X100398775Y-72894691D01*
X100405091Y-72900789D01*
X100613471Y-73075642D01*
X100620575Y-73080804D01*
X100851274Y-73224960D01*
X100859008Y-73229073D01*
X101107532Y-73339722D01*
X101115773Y-73342722D01*
X101377266Y-73417703D01*
X101385846Y-73419527D01*
X101655234Y-73457388D01*
X101663984Y-73458000D01*
X102229410Y-73458000D01*
X102242493Y-73454493D01*
X102246000Y-73441410D01*
X102754000Y-73441410D01*
X102757506Y-73454493D01*
X102770590Y-73458000D01*
X103267923Y-73458000D01*
X103272308Y-73457846D01*
X103475757Y-73443620D01*
X103484437Y-73442400D01*
X103750529Y-73385841D01*
X103758966Y-73383421D01*
X104014586Y-73290382D01*
X104022602Y-73286813D01*
X104262790Y-73159104D01*
X104270238Y-73154450D01*
X104490305Y-72994561D01*
X104497035Y-72988914D01*
X104692715Y-72799948D01*
X104698587Y-72793426D01*
X104866063Y-72579067D01*
X104870970Y-72571793D01*
X105006983Y-72336211D01*
X105010833Y-72328319D01*
X105112735Y-72076103D01*
X105115450Y-72067746D01*
X105181257Y-71803808D01*
X105182781Y-71795163D01*
X105190512Y-71721611D01*
X105188086Y-71707851D01*
X105174656Y-71704000D01*
X102770590Y-71704000D01*
X102757506Y-71707506D01*
X102754000Y-71720590D01*
X102754000Y-73441410D01*
X102246000Y-73441410D01*
X102246000Y-71720590D01*
X102242493Y-71707506D01*
X102229410Y-71704000D01*
X99819608Y-71704000D01*
X99808694Y-71706419D01*
X99808206Y-71717588D01*
X97000500Y-71717588D01*
X97000500Y-71178388D01*
X99809487Y-71178388D01*
X99811913Y-71192148D01*
X99825344Y-71196000D01*
X102229410Y-71196000D01*
X102242493Y-71192493D01*
X102246000Y-71179410D01*
X102754000Y-71179410D01*
X102757506Y-71192493D01*
X102770590Y-71196000D01*
X105180392Y-71196000D01*
X105191305Y-71193580D01*
X105191793Y-71182411D01*
X105153873Y-70967357D01*
X105151753Y-70958857D01*
X105067692Y-70700142D01*
X105064400Y-70691995D01*
X104945152Y-70447500D01*
X104940766Y-70439904D01*
X104788648Y-70214379D01*
X104783243Y-70207461D01*
X104601224Y-70005308D01*
X104594908Y-69999210D01*
X104386528Y-69824357D01*
X104379424Y-69819195D01*
X104148725Y-69675039D01*
X104140991Y-69670926D01*
X103892467Y-69560277D01*
X103884226Y-69557277D01*
X103622733Y-69482296D01*
X103614153Y-69480472D01*
X103344765Y-69442611D01*
X103336016Y-69442000D01*
X102770590Y-69442000D01*
X102757506Y-69445506D01*
X102754000Y-69458590D01*
X102754000Y-71179410D01*
X102246000Y-71179410D01*
X102246000Y-69458590D01*
X102242493Y-69445506D01*
X102229410Y-69442000D01*
X101732077Y-69442000D01*
X101727691Y-69442153D01*
X101524242Y-69456379D01*
X101515562Y-69457599D01*
X101249470Y-69514158D01*
X101241033Y-69516578D01*
X100985413Y-69609617D01*
X100977397Y-69613186D01*
X100737209Y-69740895D01*
X100729761Y-69745549D01*
X100509694Y-69905438D01*
X100502964Y-69911085D01*
X100307284Y-70100051D01*
X100301412Y-70106573D01*
X100133936Y-70320932D01*
X100129029Y-70328206D01*
X99993016Y-70563788D01*
X99989166Y-70571680D01*
X99887264Y-70823896D01*
X99884549Y-70832253D01*
X99818742Y-71096191D01*
X99817218Y-71104836D01*
X99809487Y-71178388D01*
X97000500Y-71178388D01*
X97000500Y-67626500D01*
X97017381Y-67563500D01*
X97063500Y-67517381D01*
X97126500Y-67500500D01*
X136873500Y-67500500D01*
X136936500Y-67517381D01*
G37*
%TD.AperFunction*%
%TD*%
M02*
