<?xml version="1.0" encoding="UTF-8" standalone="no"?>
<!-- Created with Inkscape (http://www.inkscape.org/) -->

<svg
   width="210mm"
   height="297mm"
   viewBox="0 0 210 297"
   version="1.1"
   id="svg330"
   sodipodi:docname="axp.svg"
   inkscape:version="1.2 (dc2aedaf03, 2022-05-15)"
   xmlns:inkscape="http://www.inkscape.org/namespaces/inkscape"
   xmlns:sodipodi="http://sodipodi.sourceforge.net/DTD/sodipodi-0.dtd"
   xmlns="http://www.w3.org/2000/svg"
   xmlns:svg="http://www.w3.org/2000/svg">
  <sodipodi:namedview
     id="namedview138"
     pagecolor="#ffffff"
     bordercolor="#666666"
     borderopacity="1.0"
     inkscape:showpageshadow="2"
     inkscape:pageopacity="0.0"
     inkscape:pagecheckerboard="0"
     inkscape:deskcolor="#d1d1d1"
     inkscape:document-units="mm"
     showgrid="false"
     inkscape:zoom="0.72515432"
     inkscape:cx="396.46733"
     inkscape:cy="561.25984"
     inkscape:window-width="1920"
     inkscape:window-height="1017"
     inkscape:window-x="-8"
     inkscape:window-y="-8"
     inkscape:window-maximized="1"
     inkscape:current-layer="svg330" />
  <defs
     id="defs327">
    <rect
       x="299.35943"
       y="471.95428"
       width="118.96368"
       height="55.581392"
       id="rect299" />
  </defs>
  <g
     aria-label="AXP"
     transform="matrix(0.26458333,0,0,0.26458333,1.9349882,-6.9014577)"
     id="text297"
     style="font-size:40px;line-height:1.25;font-family:'Times New Roman';-inkscape-font-specification:'Times New Roman, ';letter-spacing:0px;word-spacing:0px;white-space:pre;shape-inside:url(#rect299);display:inline;stroke:#000000;stroke-width:1.37953">
    <path
       d="m 316,499.92085 h -9.35547 l -1.11328,2.57812 q -0.54688,1.28907 -0.54688,2.12891 0,1.11328 0.89844,1.64063 0.52735,0.3125 2.59766,0.46875 v 0.72265 h -8.8086 v -0.72265 q 1.42579,-0.21485 2.34375,-1.17188 0.91797,-0.97656 2.26563,-4.00391 l 9.47266,-21.13281 h 0.37109 l 9.55078,21.71875 q 1.36719,3.08594 2.24609,3.88672 0.66407,0.60547 1.875,0.70313 v 0.72265 h -12.8125 v -0.72265 h 0.52735 q 1.54297,0 2.16797,-0.42969 0.42968,-0.3125 0.42968,-0.89844 0,-0.35156 -0.11718,-0.72266 -0.0391,-0.17578 -0.58594,-1.46484 z m -0.66406,-1.44531 -3.94532,-9.1211 -4.0625,9.1211 z"
       style="font-weight:bold;-inkscape-font-specification:'Times New Roman,  Bold'"
       id="path350" />
    <path
       d="m 345.14062,491.93257 7.30469,10.83984 q 1.81641,2.69531 2.57813,3.28125 0.78125,0.56641 1.83593,0.6836 v 0.72265 h -12.91015 v -0.72265 q 1.54297,-0.11719 1.99219,-0.46875 0.44921,-0.35157 0.44921,-0.85938 0,-0.35156 -0.13671,-0.625 -0.27344,-0.58594 -1.36719,-2.1875 l -3.86719,-5.72266 -4.04297,4.94141 q -1.8164,2.24609 -1.8164,3.04688 0,0.5664 0.46875,1.05468 0.46875,0.48828 1.38671,0.70313 0.41016,0.11719 1.67969,0.11719 v 0.72265 h -10.17578 v -0.72265 q 1.73828,-0.25391 2.73438,-0.9375 1.30859,-0.89844 3.65234,-3.75 l 5.25391,-6.40625 -6.73829,-9.90235 q -1.66015,-2.4414 -1.89453,-2.71484 -0.52734,-0.64453 -1.03515,-0.91797 -0.50782,-0.27344 -1.40625,-0.41016 v -0.72265 h 13.14453 v 0.72265 h -0.66406 q -1.13282,0 -1.58204,0.3711 -0.44921,0.35156 -0.44921,0.89843 0,0.42969 0.13671,0.74219 l 1.34766,2.03125 3.28125,5 2.79297,-3.41797 q 2.14844,-2.63672 2.14844,-3.6914 0,-0.52735 -0.3125,-0.97657 -0.29297,-0.44921 -0.85938,-0.70312 -0.5664,-0.25391 -1.75781,-0.25391 v -0.72265 h 9.74609 v 0.72265 q -1.15234,0.0195 -1.85547,0.29297 -0.70312,0.25391 -1.5039,0.97656 -0.50781,0.46875 -2.53906,2.91016 z"
       style="font-weight:bold;-inkscape-font-specification:'Times New Roman,  Bold'"
       id="path352" />
    <path
       d="m 367.93359,495.46772 v 7.34375 q 0,2.14844 0.25391,2.71485 0.27344,0.54687 0.9375,0.8789 0.68359,0.33204 2.48047,0.33204 v 0.72265 h -13.45703 v -0.72265 q 1.83593,0 2.48047,-0.33204 0.66406,-0.35156 0.91796,-0.89843 0.27344,-0.54688 0.27344,-2.69532 v -17.1875 q 0,-2.14843 -0.27344,-2.69531 -0.2539,-0.5664 -0.91796,-0.89844 -0.66407,-0.33203 -2.48047,-0.33203 v -0.72265 h 11.54297 q 5.70312,0 8.18359,2.03125 2.48047,2.03125 2.48047,5.07812 0,2.57813 -1.60156,4.41406 -1.60157,1.83594 -4.41407,2.5 -1.89453,0.46875 -6.40625,0.46875 z m 0,-12.96875 v 11.44532 q 0.64453,0.0391 0.97657,0.0391 2.38281,0 3.67187,-1.40625 1.28906,-1.42578 1.28906,-4.39453 0,-2.94922 -1.28906,-4.31641 -1.28906,-1.36719 -3.84766,-1.36719 z"
       style="font-weight:bold;-inkscape-font-specification:'Times New Roman,  Bold'"
       id="path354" />
  </g>
</svg>
