<?xml version="1.0" encoding="UTF-8" standalone="no"?>
<!-- Created with Inkscape (http://www.inkscape.org/) -->

<svg
   width="210mm"
   height="297mm"
   viewBox="0 0 210 297"
   version="1.1"
   id="svg5"
   xml:space="preserve"
   inkscape:version="1.2 (dc2aedaf03, 2022-05-15)"
   sodipodi:docname="hidmanlogo.svg"
   xmlns:inkscape="http://www.inkscape.org/namespaces/inkscape"
   xmlns:sodipodi="http://sodipodi.sourceforge.net/DTD/sodipodi-0.dtd"
   xmlns="http://www.w3.org/2000/svg"
   xmlns:svg="http://www.w3.org/2000/svg"><sodipodi:namedview
     id="namedview7"
     pagecolor="#ffffff"
     bordercolor="#666666"
     borderopacity="1.0"
     inkscape:showpageshadow="2"
     inkscape:pageopacity="0.0"
     inkscape:pagecheckerboard="0"
     inkscape:deskcolor="#d1d1d1"
     inkscape:document-units="mm"
     showgrid="false"
     inkscape:zoom="0.52724989"
     inkscape:cx="329.06598"
     inkscape:cy="367.94697"
     inkscape:window-width="1920"
     inkscape:window-height="1017"
     inkscape:window-x="-8"
     inkscape:window-y="-8"
     inkscape:window-maximized="1"
     inkscape:current-layer="layer1" /><defs
     id="defs2"><rect
       x="51.209115"
       y="682.7882"
       width="656.23532"
       height="182.07685"
       id="rect784" /><rect
       x="39.829312"
       y="688.4781"
       width="678.99493"
       height="288.28835"
       id="rect690" /><rect
       x="36.036044"
       y="669.51176"
       width="715.03097"
       height="193.45666"
       id="rect634" /><rect
       x="39.829311"
       y="688.47809"
       width="678.99493"
       height="288.28836"
       id="rect690-0" /></defs><g
     inkscape:label="Layer 1"
     inkscape:groupmode="layer"
     id="layer1"><path
       style="fill:#000000;stroke-width:0.254"
       d="m 178.66278,170.62352 c 0.94423,-5.41164 2.4381,-13.69218 3.81479,-21.1455 1.69823,-9.19405 2.14038,-13.36688 1.5252,-14.39415 -0.1397,-0.23328 -1.18857,-1.38995 -2.3308,-2.57038 -2.39164,-2.47161 -2.87708,-3.57065 -2.3694,-5.36432 0.16177,-0.57153 0.40366,-1.61065 0.53754,-2.30915 0.13387,-0.6985 0.35371,-1.82165 0.48853,-2.49588 0.56779,-2.83958 -0.0136,-5.66189 -1.44155,-6.99818 -0.91693,-0.85806 -0.91693,-0.85806 -0.78864,-2.65104 0.4661,-6.51442 -2.25996,-10.9216 -7.11646,-11.50508 -0.66178,-0.0795 -1.74615,-0.3149 -2.40973,-0.5231 l -1.2065,-0.37855 v -1.892736 c 0,-2.93768 -1.13276,-4.91671 -3.12061,-5.45198 -0.57833,-0.15573 -1.91301,-0.71505 -2.96595,-1.24293 -3.06679,-1.53749 -6.70894,-2.79163 -8.96828,-3.08812 -2.73118,-0.35842 -2.59525,0.0592 -1.85879,-5.71125 1.30806,-10.24911 3.21692,-29.29578 4.08325,-40.74264 0.62509,-8.25935 0.52808,-9.39892 -0.86351,-10.14367 -0.26434,-0.14147 -0.73026,-0.7729 -1.03536,-1.40316 -0.30511,-0.63027 -0.88774,-1.34265 -1.29475,-1.58307 -0.47969,-0.28337 -0.74,-0.6448 -0.74,-1.02749 0,-2.35111 -2.7255,-4.5593 -6.52458,-5.28618 -3.76619,-0.72059 -4.98597,-0.35816 -5.93598,1.76377 -0.44478,0.99344 -0.49288,1.02254 -1.57969,0.9557 -1.29502,-0.0796 -2.43329,0.68216 -2.97562,1.99145 -0.26118,0.63056 -0.46446,0.76714 -1.14169,0.76714 -1.0261,0 -2.05657,0.78283 -2.25059,1.70971 -0.49533,2.36643 -0.49994,2.31201 0.30149,3.56093 1.78962,2.78888 1.9693,4.64211 0.94885,9.78612 -0.3387,1.70733 -0.85379,5.27594 -1.14465,7.93024 -0.29086,2.6543 -0.69515,5.91185 -0.89841,7.239 -0.20327,1.32715 -0.50111,4.6207 -0.66188,7.31901 -0.27028,4.53646 -0.34553,5.01478 -0.99903,6.35 -1.05278,2.15103 -2.22219,7.27261 -2.67415,11.71175 -0.21937,2.15476 -0.6117,5.18371 -0.87183,6.731 -0.26013,1.54728 -0.54539,4.12769 -0.6339,5.73424 -0.37873,6.873766 -1.2912,14.129876 -2.04581,16.268676 -0.51085,1.44787 -0.47324,2.33586 0.13147,3.10463 0.69019,0.87744 0.67459,0.98358 -0.6886,4.68372 -1.8388,4.99111 -1.65938,7.56845 0.63218,9.08127 1.90385,1.25686 11.08503,3.82928 14.27212,3.99883 l 1.38869,0.0739 0.89731,-2.48226 c 0.89631,-2.47953 0.89814,-2.4821 1.6593,-2.33584 0.88976,0.17097 4.445,1.88449 4.445,2.14235 0,0.0966 0.32289,0.68103 0.71754,1.2987 0.39465,0.61768 1.10902,1.79319 1.5875,2.61225 0.47848,0.81906 1.29079,1.97074 1.80513,2.55929 1.09294,1.25062 1.08045,4.80497 -0.0277,7.88951 -0.30114,0.8382 -1.3371,4.21005 -2.30215,7.493 -0.96504,3.28295 -2.6748,8.81575 -3.79946,12.29511 -1.12465,3.47936 -2.04483,6.36544 -2.04483,6.4135 0,0.0481 8.62447,0.0874 19.16549,0.0874 h 19.16549 z m -30.14694,-68.35111 c -0.0524,-5.826586 8.09868,-10.110056 10.87364,-5.714226 0.33916,0.53726 0.72952,0.97684 0.86747,0.97684 0.27991,0 0.34401,0.83813 0.084,1.09817 -0.0918,0.0917 -0.71551,-0.3464 -1.38612,-0.97367 -2.86571,-2.68053 -7.03308,-1.08231 -8.27178,3.172276 -0.92582,3.17998 -2.14429,3.98993 -2.16719,1.44061 z m -23.71864,67.46266 c -0.47513,-0.94328 -0.86423,-1.95083 -0.86466,-2.23901 -5.1e-4,-0.28818 -0.2817,-1.10628 -0.62504,-1.818 -0.34335,-0.71172 -0.7016,-1.61893 -0.79612,-2.01604 -0.0945,-0.3971 -0.3179,-0.89345 -0.4964,-1.103 -0.17851,-0.20955 -0.74667,-1.4097 -1.26259,-2.667 -0.51592,-1.2573 -1.07919,-2.45745 -1.25172,-2.667 -0.39019,-0.47392 -1.31885,-3.04677 -1.65025,-4.572 -0.33422,-1.53826 -3.51173,-7.49446 -5.19766,-9.74296 -0.7481,-0.99772 -1.57389,-2.15898 -1.83509,-2.58056 -1.07883,-1.74127 -1.81082,-2.49327 -3.01491,-3.09736 -0.6985,-0.35044 -1.4986,-0.8452 -1.778,-1.09947 -0.8161,-0.74271 -6.359547,-3.5095 -7.680527,-3.83342 -0.6652,-0.16312 -1.95242,-0.66363 -2.86047,-1.11223 -0.908051,-0.44861 -2.257761,-0.95878 -2.999351,-1.13372 -0.7416,-0.17494 -1.656,-0.57474 -2.032,-0.88844 -0.37601,-0.3137 -1.0837,-0.7707 -1.57265,-1.01554 -2.74156,-1.37286 -3.83337,-4.01866 -2.87845,-6.97541 0.42066,-1.30249 0.33741,-2.5309 -0.3267,-4.82083 -0.17776,-0.61293 -0.17776,-0.61293 3.79986,-0.4488 7.197481,0.29699 10.364631,-0.82485 11.825488,-4.1887 0.32331,-0.74446 0.79255,-1.81825 1.04275,-2.38621 0.25021,-0.56796 0.53083,-1.93956 0.62359,-3.048 0.23168,-2.76839 0.99411,-4.76222 2.36646,-6.18855 1.81761,-1.889086 1.92619,-2.341706 1.01281,-4.221716 -0.53355,-1.0982 -0.54105,-1.18471 -0.12311,-1.4186 1.70437,-0.95382 1.90213,-3.87782 0.56451,-8.34678 -0.93808,-3.13411 -0.77596,-3.66887 1.2292,-4.05459 3.12529,-0.60118 4.90057,-1.81623 7.59709,-5.19967 1.88068,-2.35977 1.18399,-5.37486 -2.45602,-10.62909 -1.08774,-1.57011 -1.84837,-2.97151 -2.06793,-3.81 -0.19102,-0.72949 -0.57343,-2.12645 -0.84979,-3.10435 -0.74143,-2.62353 -0.70241,-3.81591 0.32002,-9.779 0.2036,-1.18745 0.50078,-2.49519 0.66039,-2.90609 1.45136,-3.73631 -1.5625,-13.82204 -5.8109,-19.44591 -1.49299,-1.97635 -8.083077,-8.22851 -10.159707,-9.63871 -5.893211,-4.00201 -10.297581,-6.26716 -15.513561,-7.9785599 -2.30505,-0.75631 -4.98371,-1.68081 -5.95259,-2.05446 -8.34739,-3.21915 -26.50906,-2.73981 -33.6985,0.88941 -0.81147,0.40963 -2.70896,1.08179 -4.21665,1.49369 -6.62437,1.8097799 -7.90327,2.6333199 -13.06245,8.4114899 -6.36635,7.13018 -10.87551,17.67183 -10.88559,25.44862 -0.006,4.45258 1.32055,16.47711 2.09445,18.98852 0.27982,0.90805 0.83469,2.96545 1.23304,4.572 1.61624,6.51834 5.13214,11.81679 9.84644,14.83858 0.95063,0.60934 2.44153,1.74418 3.3131,2.52187 0.87158,0.7777 1.79019,1.47921 2.04137,1.55893 0.45693,0.14503 0.74476,8.07681 0.87116,24.006616 l 0.0292,3.683 -1.35107,2.286 c -1.72663,2.92145 -5.03145,8.01502 -7.18648,11.07621 -2.87367,4.082 -5.3675,10.19212 -6.16476,15.10423 -0.7988,4.92157 -2.5277,12.54899 -3.47584,15.33447 -0.6257,1.83819 -0.43694,2.21717 -1.0059,4.20476 -0.28425,1.60391 -1.52029,3.22815 -1.46047,6.08219 l 0.0705,3.31614 57.44316,0.0641 57.443148,0.064 z"
       id="path355"
       sodipodi:nodetypes="ssssssssssscssssssssssssssscsssssssssssssscssssssssssscsssscssssscssssssssssssssssssssssssssssssssssssssscsssssscsssscccccs" /><path
       d="m 131.74631,7.9487841 c -2.12809,-1.12537 -2.48728,-3.68123 -2.54069,-18.0787701 -0.0367,-9.882566 0.48098,-8.886196 -5.01768,-9.658176 -5.96452,-0.83738 -8.50936,-3.52124 -10.47217,-11.04424 -1.39323,-5.33992 -1.75843,-7.89057 -1.76365,-12.31758 -0.006,-4.80908 0.0121,-4.75026 -1.63725,-5.43386 -4.9904,-2.06841 -5.79008,-8.47039 -1.65435,-13.24432 2.16175,-2.495351 5.01746,-3.447701 7.01643,-2.339931 5.33744,2.957871 7.4685,7.902991 4.74688,11.015171 -4.90357,5.60725 1.0102,21.81394 7.95984,21.81394 0.64706,0 0.90376,-12.82639 0.35329,-17.653 -0.12745,-1.1176 -0.31466,-6.11823 -0.41601,-11.1125 -0.10135,-4.994281 -0.19622,-9.089581 -0.21083,-9.100681 -0.0146,-0.0111 -1.31402,-0.16628 -2.88759,-0.34484 -4.06145,-0.46087 -4.94902,-1.47977 -3.39654,-3.8991 0.42405,-0.66082 0.85173,-1.71481 0.95039,-2.34218 0.0987,-0.62738 0.74501,-2.74089 1.43634,-4.69669 0.69132,-1.9558 1.64905,-4.75292 2.12827,-6.21582 2.94167,-8.9799 10.13504,-10.56124 12.05027,-2.64905 0.5832,2.40928 4.98388,12.52089 6.58075,15.12083 1.1716,1.90753 1.11685,2.69333 -0.26386,3.78686 -1.00945,0.7995 -3.61967,1.49505 -5.6636,1.50917 -0.72202,0.005 -0.7228,0.007 -0.56878,1.3385 0.0848,0.73342 0.2582,7.562851 0.38528,15.176501 0.15476,9.27159 0.36337,15.10119 0.63172,17.653 0.22036,2.0955 0.40092,3.85362 0.40123,3.90694 0.001,0.23701 2.10453,-0.21746 2.9756,-0.643 1.95348,-0.95432 4.22489,-7.52406 4.67472,-13.52094 l 0.27851,-3.713 -0.89327,-1.32506 c -3.02704,-4.49021 -1.59871,-11.18774 2.63951,-12.376931 10.29647,-2.88904 15.67376,11.313371 5.96614,15.757671 l -1.33932,0.61316 -0.1718,3.23758 c -0.45529,8.58031 -2.75311,16.5288 -5.68415,19.66232 -1.47057,1.57216 -2.31463,2.08428 -4.9284,2.99025 l -2.11998,0.73482 0.006,5.03809 c 0.003,2.770956 0.0383,8.3527961 0.078,12.4040961 l 0.0723,7.366 -1.34803,1.19979 c -1.54142,1.37192 -1.65538,1.42278 -3.81624,1.7035 -2.68164,0.34836 -3.36693,0.30025 -4.53705,-0.31852 z"
       style="fill:#000000;stroke-width:0.254"
       id="path424" /><text
       xml:space="preserve"
       transform="scale(0.26458333)"
       id="text632"
       style="font-style:normal;font-weight:normal;font-size:192px;line-height:1.25;font-family:sans-serif;letter-spacing:0px;word-spacing:0px;white-space:pre;shape-inside:url(#rect634);display:inline;fill:#000000;fill-opacity:1;stroke:none"><tspan
         x="36.035156"
         y="1037.6648"
         id="tspan807"><tspan
           dx="0 11.106743 5.1887894 10.371067 12.584602 10.371071"
           style="font-weight:900;font-size:13.3333px;font-family:Arial;-inkscape-font-specification:'Arial Heavy'"
           id="tspan805">HIDMAN</tspan></tspan></text><text
       xml:space="preserve"
       transform="matrix(1.2605181,0,0,1.2605181,-57.375649,-691.84133)"
       id="text782"
       style="font-style:normal;font-variant:normal;font-weight:normal;font-stretch:normal;font-size:40px;line-height:1.25;font-family:Arial;-inkscape-font-specification:Arial;letter-spacing:-3.04px;word-spacing:0px;white-space:pre;shape-inside:url(#rect784);fill:#000000;fill-opacity:1;stroke:none"><tspan
         x="51.208984"
         y="718.81924"
         id="tspan811"><tspan
   style="font-weight:bold;-inkscape-font-specification:'Arial Bold'"
   id="tspan809">HID</tspan>MAN</tspan></text></g></svg>
