<?xml version="1.0" encoding="UTF-8" standalone="no"?>
<!-- Created with Inkscape (http://www.inkscape.org/) -->

<svg
   width="210mm"
   height="297mm"
   viewBox="0 0 210 297"
   version="1.1"
   id="svg5"
   xml:space="preserve"
   sodipodi:docname="hidmanlogo4.svg"
   inkscape:version="1.2 (dc2aedaf03, 2022-05-15)"
   xmlns:inkscape="http://www.inkscape.org/namespaces/inkscape"
   xmlns:sodipodi="http://sodipodi.sourceforge.net/DTD/sodipodi-0.dtd"
   xmlns="http://www.w3.org/2000/svg"
   xmlns:svg="http://www.w3.org/2000/svg"><sodipodi:namedview
     id="namedview21"
     pagecolor="#ffffff"
     bordercolor="#666666"
     borderopacity="1.0"
     inkscape:showpageshadow="2"
     inkscape:pageopacity="0.0"
     inkscape:pagecheckerboard="0"
     inkscape:deskcolor="#d1d1d1"
     inkscape:document-units="mm"
     showgrid="false"
     inkscape:zoom="0.52724989"
     inkscape:cx="-36.984361"
     inkscape:cy="627.78582"
     inkscape:window-width="1920"
     inkscape:window-height="1017"
     inkscape:window-x="-8"
     inkscape:window-y="-8"
     inkscape:window-maximized="1"
     inkscape:current-layer="svg5" /><defs
     id="defs2"><rect
       x="51.209115"
       y="682.7882"
       width="656.23532"
       height="182.07685"
       id="rect784" /><rect
       x="39.829312"
       y="688.4781"
       width="678.99493"
       height="288.28835"
       id="rect690" /><rect
       x="36.036044"
       y="669.51176"
       width="715.03097"
       height="193.45666"
       id="rect634" /><rect
       x="39.829311"
       y="688.47809"
       width="678.99493"
       height="288.28836"
       id="rect690-0" /></defs><path
     style="fill:#000000;stroke-width:0.254"
     d="m 128.81174,237.98228 c -0.47513,-0.94328 -0.86423,-1.95083 -0.86466,-2.23901 -5.1e-4,-0.28818 -0.2817,-1.10628 -0.62504,-1.818 -0.34335,-0.71172 -0.7016,-1.61893 -0.79612,-2.01604 -0.0945,-0.3971 -0.3179,-0.89345 -0.4964,-1.103 -0.17851,-0.20955 -0.74667,-1.4097 -1.26259,-2.667 -0.51592,-1.2573 -1.07919,-2.45745 -1.25172,-2.667 -0.39019,-0.47392 -1.31885,-3.04677 -1.65025,-4.572 -0.33422,-1.53826 -3.51173,-7.49446 -5.19766,-9.74296 -0.7481,-0.99772 -1.57389,-2.15898 -1.83509,-2.58056 -1.07883,-1.74127 -1.81082,-2.49327 -3.01491,-3.09736 -0.6985,-0.35044 -1.4986,-0.8452 -1.778,-1.09947 -0.8161,-0.74271 -6.35955,-3.5095 -7.68053,-3.83342 -0.6652,-0.16312 -1.95242,-0.66363 -2.860465,-1.11223 -0.908051,-0.44861 -2.257761,-0.95878 -2.999351,-1.13372 -0.7416,-0.17494 -1.656,-0.57474 -2.032,-0.88844 -0.37601,-0.3137 -1.0837,-0.7707 -1.57265,-1.01554 -2.74156,-1.37286 -3.83337,-4.01866 -2.87845,-6.97541 0.42066,-1.30249 0.33741,-2.5309 -0.3267,-4.82083 -0.17776,-0.61293 -0.17776,-0.61293 3.79986,-0.4488 7.197476,0.29699 10.364626,-0.82485 11.825486,-4.1887 0.32331,-0.74446 0.79255,-1.81825 1.04275,-2.38621 0.25021,-0.56796 0.20531,-2.01733 0.62359,-3.048 1.04713,-2.58021 1.30775,-3.19404 2.36646,-6.18855 1.80896,-4.07778 1.59843,-9.21678 1.8933,-13.42256 0.25374,-3.19683 -0.33623,-3.76029 0.79011,-4.61913 1.81203,-1.38168 4.90057,-1.81623 7.59709,-5.19967 1.88068,-2.35977 1.18399,-5.37486 -2.45602,-10.62909 -1.08774,-1.57011 -1.84837,-2.97151 -2.06793,-3.81 -0.19102,-0.72949 -0.57343,-2.12645 -0.84979,-3.10435 -0.74143,-2.62353 -0.70241,-3.81591 0.32002,-9.779 0.2036,-1.18745 0.50078,-2.49519 0.66039,-2.90609 1.45136,-3.73631 -1.5625,-13.82204 -5.8109,-19.445907 -1.49299,-1.97635 -8.08308,-8.22851 -10.159705,-9.63871 -5.893211,-4.00201 -10.297581,-6.26716 -15.513561,-7.97856 -2.30505,-0.75631 -4.98371,-1.68081 -5.95259,-2.05446 -8.34739,-3.21915 -26.50906,-2.73981 -33.6985,0.88941 -0.81147,0.40963 -2.70896,1.08179 -4.21665,1.49369 -6.62437,1.80978 -7.90327,2.63332 -13.06245,8.41149 -6.36635,7.13018 -10.87551,17.671827 -10.88559,25.448617 -0.006,4.45258 1.32055,16.47711 2.09445,18.98852 0.27982,0.90805 0.83469,2.96545 1.23304,4.572 1.61624,6.51834 5.13214,11.81679 9.84644,14.83858 0.95063,0.60934 2.44153,1.74418 3.3131,2.52187 0.87158,0.7777 1.749675,1.51138 2.085725,1.92486 0.511012,0.62875 0.943941,8.07647 0.87116,24.00662 l -0.01516,3.31707 -1.35107,2.286 c -1.72663,2.92145 -5.03145,8.01502 -7.18648,11.07621 -2.87367,4.082 -5.3675,10.19212 -6.16476,15.10423 -0.7988,4.92157 -2.5277,12.54899 -3.47584,15.33447 -0.6257,1.83819 -0.43694,2.21717 -1.0059,4.20476 -0.28425,1.60391 -1.52029,3.22815 -1.46047,6.08219 l 0.0705,3.31614 57.44316,0.0641 57.443141,0.064 z"
     id="path676" /><path
     id="path355"
     style="fill:#000000;stroke-width:0.254"
     d="M 163.83083 73.604293 C 161.36827 73.644765 158.36052 75.729169 156.02717 79.837504 C 155.26692 81.176068 153.77246 83.726895 152.70644 85.506409 C 151.64041 87.285917 150.58737 89.229218 150.36602 89.824491 C 150.14472 90.419765 149.51606 91.367915 148.9692 91.93134 C 146.96711 93.994096 147.63459 95.168786 151.52357 96.427189 C 153.03032 96.914746 154.27306 97.324981 154.28516 97.338761 C 154.29728 97.352542 153.5769 101.38508 152.68422 106.29997 C 151.79155 111.21486 150.98195 116.15282 150.88485 117.27346 C 150.46565 122.11324 147.66653 134.6335 147.03237 134.50497 C 140.22121 133.12458 137.64423 116.06615 143.56385 111.54461 C 146.8494 109.03504 145.74297 103.76489 141.0994 99.805794 C 139.36029 98.323047 136.37204 98.689232 133.75773 100.70548 C 128.75617 104.56281 128.26837 110.99632 132.74849 114.01475 C 134.22919 115.01233 134.22336 114.9506 133.27404 119.66505 C 132.39982 124.00487 132.25092 126.5773 132.55573 132.08754 C 132.94777 139.1746 134.61829 142.40504 139.22716 144.43976 C 137.88648 151.13593 133.30276 171.39016 133.07663 172.73519 C 132.8165 174.28247 132.53107 176.86266 132.44256 178.46921 C 132.06383 185.34296 131.1513 192.5992 130.39669 194.73798 C 129.88584 196.18585 129.92376 197.07395 130.52847 197.8427 C 131.21866 198.72014 131.20281 198.826 129.83962 202.52614 C 128.00082 207.51723 128.18008 210.09494 130.47162 211.60776 C 132.37547 212.8646 141.55705 215.43693 144.74414 215.60648 L 146.13268 215.68038 L 147.02979 213.19784 C 147.92608 210.71831 147.92796 210.7158 148.68912 210.86206 C 149.57886 211.03303 153.13432 212.74671 153.13432 213.00457 C 153.13432 213.10117 153.45694 213.68553 153.85159 214.3032 C 154.24624 214.92088 154.96061 216.09638 155.43909 216.91544 C 155.91757 217.7345 156.72981 218.88643 157.24415 219.47498 C 158.33709 220.72558 158.32491 224.27988 157.21676 227.36442 C 156.91562 228.20262 155.87961 231.57455 154.91458 234.8575 C 154.54023 236.13096 154.00811 237.87 153.48727 239.56936 L 189.92019 239.56936 C 190.39929 236.93249 190.88109 234.27474 191.3599 231.6825 C 193.05811 222.48847 193.50056 218.3153 192.88538 217.28803 C 192.74568 217.05475 191.69649 215.89807 190.55426 214.71764 C 188.16262 212.24605 187.67722 211.1473 188.1849 209.35363 C 188.34667 208.7821 188.58845 207.74271 188.72233 207.04421 C 188.8562 206.34571 189.07637 205.22247 189.21119 204.54824 C 189.77898 201.70866 189.19737 198.88649 187.76942 197.55022 C 186.85249 196.69216 186.85256 196.69219 186.98083 194.89921 C 187.44693 188.38481 184.72097 183.97745 179.86447 183.39397 C 179.20269 183.31447 178.11838 183.07921 177.4548 182.87101 L 176.24816 182.49222 L 176.24816 180.59983 C 176.24816 177.66215 175.11527 175.68322 173.12742 175.14797 C 172.54909 174.99224 171.21465 174.43251 170.16171 173.90463 C 167.09492 172.36714 163.4526 171.11294 161.19326 170.81645 C 158.63033 170.48011 162.45818 154.14733 163.54816 147.36775 C 163.99478 147.13273 164.44481 146.84855 164.96823 146.47581 C 168.46326 143.98693 172.29415 136.65319 174.44465 128.33429 L 175.25597 125.19494 L 176.69051 124.86008 C 187.08746 122.43254 184.63798 107.44533 173.97284 108.23164 C 169.58287 108.55531 166.85283 114.83566 168.92767 119.83765 L 169.54004 121.31353 L 168.52925 124.89729 C 166.89723 130.68532 163.3661 136.67276 161.26199 137.22005 C 160.32375 137.46405 158.17215 137.49181 158.21825 137.25932 C 158.22854 137.207 158.40092 135.44802 158.60117 133.35052 C 158.84503 130.79626 159.79842 125.04126 161.48833 115.92367 C 162.87607 108.43649 164.06227 101.70881 164.12487 100.97316 C 164.23839 99.637601 164.23996 99.635759 164.94859 99.774272 C 166.9546 100.16642 169.65074 100.00336 170.79888 99.420288 C 172.36929 98.622795 172.57904 97.863313 171.80967 95.76108 C 170.76104 92.895764 168.45637 82.111528 168.36337 79.634416 C 168.21062 75.566941 166.29338 73.563821 163.83083 73.604293 z " /><text
     xml:space="preserve"
     transform="scale(0.26458333)"
     id="text632"
     style="font-style:normal;font-weight:normal;font-size:192px;line-height:1.25;font-family:sans-serif;letter-spacing:0px;word-spacing:0px;white-space:pre;shape-inside:url(#rect634);display:inline;fill:#000000;fill-opacity:1;stroke:none"><tspan
       x="36.035156"
       y="1037.6648"
       id="tspan798"><tspan
         dx="0 11.106743 5.1887894 10.371067 12.584602 10.371071"
         style="font-weight:900;font-size:13.3333px;font-family:Arial;-inkscape-font-specification:'Arial Heavy'"
         id="tspan796">HIDMAN</tspan></tspan></text><path
     d="m 14.881669,282.49054 v -36.09217 h 7.28737 v 14.20544 h 14.279307 v -14.20544 h 7.28737 v 36.09217 h -7.28737 V 266.70945 H 22.169039 v 15.78109 z"
     style="font-weight:bold;font-size:40px;line-height:1.25;font-family:Arial;-inkscape-font-specification:'Arial Bold';letter-spacing:-3.04px;word-spacing:0px;white-space:pre;stroke-width:1.26052"
     id="path836" /><path
     d="M 47.215729,282.49054 V 246.39837 H 54.5031 v 36.09217 z"
     style="font-weight:bold;font-size:40px;line-height:1.25;font-family:Arial;-inkscape-font-specification:'Arial Bold';letter-spacing:-3.04px;word-spacing:0px;white-space:pre;stroke-width:1.26052"
     id="path838" /><path
     d="m 57.589202,246.39837 h 13.319146 q 4.505364,0 6.868835,0.68934 3.175914,0.93554 5.440913,3.32363 2.264988,2.38809 3.446723,5.85944 1.181736,3.44673 1.181736,8.51834 0,4.45614 -1.107869,7.68129 -1.354074,3.93912 -3.865266,6.37644 -1.895693,1.84647 -5.120854,2.88049 -2.412708,0.7632 -6.450306,0.7632 H 57.589202 Z m 7.28737,6.10563 v 23.90553 h 5.440908 q 3.052819,0 4.406892,-0.34468 1.772604,-0.44315 2.929722,-1.50178 1.181736,-1.05865 1.920311,-3.47135 0.738588,-2.43733 0.738588,-6.62265 0,-4.18531 -0.738588,-6.42568 -0.738575,-2.24039 -2.068031,-3.49597 -1.329456,-1.25559 -3.372869,-1.69875 -1.526412,-0.34467 -5.98254,-0.34467 z"
     style="font-weight:bold;font-size:40px;line-height:1.25;font-family:Arial;-inkscape-font-specification:'Arial Bold';letter-spacing:-3.04px;word-spacing:0px;white-space:pre;stroke-width:1.26052"
     id="path840" /><path
     d="m 90.267935,282.49054 v -36.09217 h 7.188898 l 8.542957,25.55502 q 1.18174,3.56984 1.72337,5.34244 0.61549,-1.96956 1.92032,-5.78558 l 8.64145,-25.11188 h 6.42568 v 36.09217 h -4.60384 v -30.20811 l -10.4879,30.20811 h -4.30842 L 94.871788,251.76541 v 30.72513 z"
     id="path842"
     style="font-size:40px;line-height:1.25;font-family:Arial;-inkscape-font-specification:Arial;letter-spacing:-3.04px;word-spacing:0px;white-space:pre;stroke-width:1.26052" /><path
     d="m 124.6208,282.49054 13.86077,-36.09217 h 5.14547 l 14.7717,36.09217 h -5.4409 l -4.20995,-10.93106 h -15.09174 l -3.96373,10.93106 z m 10.41404,-14.82093 h 12.23589 l -3.76678,-9.99552 q -1.72337,-4.5546 -2.56043,-7.48432 -0.68935,3.47135 -1.94494,6.89345 z"
     id="path844"
     style="font-size:40px;line-height:1.25;font-family:Arial;-inkscape-font-specification:Arial;letter-spacing:-3.04px;word-spacing:0px;white-space:pre;stroke-width:1.26052" /><path
     d="m 158.33355,282.49054 v -36.09217 h 4.89929 l 18.957,28.33704 v -28.33704 h 4.57923 v 36.09217 h -4.89927 l -18.95702,-28.36165 v 28.36165 z"
     id="path846"
     style="font-size:40px;line-height:1.25;font-family:Arial;-inkscape-font-specification:Arial;letter-spacing:-3.04px;word-spacing:0px;white-space:pre;stroke-width:1.26052" /></svg>
