<?xml version="1.0" encoding="UTF-8" standalone="no"?>
<!-- Created with Inkscape (http://www.inkscape.org/) -->

<svg
   width="210mm"
   height="297mm"
   viewBox="0 0 210 297"
   version="1.1"
   id="svg875"
   inkscape:version="1.2 (dc2aedaf03, 2022-05-15)"
   sodipodi:docname="mode.svg"
   xmlns:inkscape="http://www.inkscape.org/namespaces/inkscape"
   xmlns:sodipodi="http://sodipodi.sourceforge.net/DTD/sodipodi-0.dtd"
   xmlns="http://www.w3.org/2000/svg"
   xmlns:svg="http://www.w3.org/2000/svg">
  <sodipodi:namedview
     id="namedview877"
     pagecolor="#ffffff"
     bordercolor="#666666"
     borderopacity="1.0"
     inkscape:showpageshadow="2"
     inkscape:pageopacity="0.0"
     inkscape:pagecheckerboard="0"
     inkscape:deskcolor="#d1d1d1"
     inkscape:document-units="mm"
     showgrid="true"
     inkscape:zoom="0.74564395"
     inkscape:cx="482.80416"
     inkscape:cy="434.52375"
     inkscape:window-width="1920"
     inkscape:window-height="1017"
     inkscape:window-x="-8"
     inkscape:window-y="-8"
     inkscape:window-maximized="1"
     inkscape:current-layer="layer1">
    <inkscape:grid
       type="xygrid"
       id="grid1111"
       spacingx="2.6458333"
       spacingy="2.6458333" />
  </sodipodi:namedview>
  <defs
     id="defs872">
    <rect
       x="283.54676"
       y="602.18125"
       width="106.2115"
       height="89.141792"
       id="rect29103" />
    <rect
       x="250"
       y="599.99999"
       width="250"
       height="150"
       id="rect26163" />
    <rect
       x="36.210312"
       y="341.98628"
       width="686.65481"
       height="280.29464"
       id="rect1004" />
    <rect
       x="217.26187"
       y="337.96292"
       width="592.77623"
       height="215.92076"
       id="rect998" />
  </defs>
  <g
     inkscape:label="Layer 1"
     inkscape:groupmode="layer"
     id="layer1">
    <text
       xml:space="preserve"
       transform="scale(0.26458333)"
       id="text996"
       style="font-style:normal;font-weight:normal;font-size:40px;line-height:1.25;font-family:sans-serif;letter-spacing:0px;word-spacing:0px;white-space:pre;shape-inside:url(#rect998);display:inline;fill:#000000;fill-opacity:1;stroke:none" />
    <rect
       style="fill:#000000;stroke:none;stroke-width:0.743038;stroke-linecap:round;stop-color:#000000"
       id="rect1060"
       width="21.166662"
       height="21.166666"
       x="7.9375"
       y="89.958328" />
    <rect
       style="fill:#000000;stroke:none;stroke-width:0.743038;stroke-linecap:round;stop-color:#000000"
       id="rect1060-6"
       width="21.166662"
       height="21.166666"
       x="34.395836"
       y="113.77083" />
    <path
       style="fill:none;stroke:#000000;stroke-width:3;stroke-linecap:round;stroke-dasharray:none;stroke-opacity:1;stop-color:#000000"
       d="m 37.037808,105.82947 c 0.22204,0.22204 -4.409727,-4.40972 -5.291671,-5.29167 l 5.291671,-5.291664"
       id="path6102"
       sodipodi:nodetypes="ccc" />
    <path
       style="fill:none;stroke:#000000;stroke-width:3;stroke-linecap:round;stroke-dasharray:none;stroke-opacity:1;stop-color:#000000"
       d="M 34.395835,100.54166 H 44.979166 V 111.125"
       id="path6834"
       sodipodi:nodetypes="ccc" />
    <path
       style="fill:none;stroke:#000000;stroke-width:3;stroke-linecap:round;stroke-dasharray:none;stroke-opacity:1;stop-color:#000000"
       d="m 26.45833,119.06251 c -0.22204,-0.22204 4.409727,4.40972 5.291671,5.29166 l -5.291671,5.29167"
       id="path6102-5"
       sodipodi:nodetypes="ccc" />
    <path
       style="fill:none;stroke:#000000;stroke-width:3;stroke-linecap:round;stroke-dasharray:none;stroke-opacity:1;stop-color:#000000"
       d="M 29.104166,124.35418 H 18.520835 v -10.58334"
       id="path6834-6"
       sodipodi:nodetypes="ccc" />
    <rect
       style="fill:none;stroke:#000000;stroke-width:4;stroke-linecap:round;stroke-dasharray:none;stroke-opacity:1;stop-color:#000000"
       id="rect18408"
       width="68.791664"
       height="41.275005"
       x="71.4375"
       y="91.81041"
       ry="2.7516654" />
    <rect
       style="fill:#000000;fill-opacity:1;stroke:#000000;stroke-width:4.16416;stroke-linecap:round;stroke-dasharray:none;stroke-opacity:1;stop-color:#000000"
       id="rect18773"
       width="2.7516663"
       height="2.7516663"
       x="83.819992"
       y="109.69624"
       ry="1.3758332" />
    <rect
       style="fill:#000000;fill-opacity:1;stroke:#000000;stroke-width:4.16416;stroke-linecap:round;stroke-dasharray:none;stroke-opacity:1;stop-color:#000000"
       id="rect18773-7"
       width="2.7516663"
       height="2.7516663"
       x="97.578331"
       y="109.69624"
       ry="1.3758332" />
    <rect
       style="fill:#000000;fill-opacity:1;stroke:#000000;stroke-width:4.16416;stroke-linecap:round;stroke-dasharray:none;stroke-opacity:1;stop-color:#000000"
       id="rect18773-9"
       width="2.7516663"
       height="2.7516663"
       x="111.33665"
       y="109.69624"
       ry="1.3758332" />
    <rect
       style="fill:#000000;fill-opacity:1;stroke:#000000;stroke-width:4.16416;stroke-linecap:round;stroke-dasharray:none;stroke-opacity:1;stop-color:#000000"
       id="rect18773-7-0"
       width="2.7516663"
       height="2.7516663"
       x="125.09501"
       y="109.69624"
       ry="1.3758332" />
    <rect
       style="fill:#000000;fill-opacity:1;stroke:#000000;stroke-width:4.16416;stroke-linecap:round;stroke-dasharray:none;stroke-opacity:1;stop-color:#000000"
       id="rect18773-3"
       width="2.7516663"
       height="2.7516663"
       x="83.820015"
       y="100.06541"
       ry="1.3758332" />
    <rect
       style="fill:#000000;fill-opacity:1;stroke:#000000;stroke-width:4.16416;stroke-linecap:round;stroke-dasharray:none;stroke-opacity:1;stop-color:#000000"
       id="rect18773-7-1"
       width="2.7516663"
       height="2.7516663"
       x="97.578354"
       y="100.06541"
       ry="1.3758332" />
    <rect
       style="fill:#000000;fill-opacity:1;stroke:#000000;stroke-width:4.16416;stroke-linecap:round;stroke-dasharray:none;stroke-opacity:1;stop-color:#000000"
       id="rect18773-9-9"
       width="2.7516663"
       height="2.7516663"
       x="111.33669"
       y="100.06541"
       ry="1.3758332" />
    <rect
       style="fill:#000000;fill-opacity:1;stroke:#000000;stroke-width:4.16416;stroke-linecap:round;stroke-dasharray:none;stroke-opacity:1;stop-color:#000000"
       id="rect18773-7-0-6"
       width="2.7516663"
       height="2.7516663"
       x="125.09502"
       y="100.06541"
       ry="1.3758332" />
    <rect
       style="fill:none;stroke:#000000;stroke-width:4.16416;stroke-linecap:round;stroke-dasharray:none;stroke-opacity:1;stop-color:#000000"
       id="rect18824"
       width="30.268332"
       height="2.7516663"
       x="90.699158"
       y="122.07873"
       ry="1.3758332" />
    <path
       id="rect22502"
       style="fill:none;stroke:#000000;stroke-width:4;stroke-linecap:round;stroke-dasharray:none;stop-color:#000000"
       d="m 164.66763,86.015212 v 21.408178 m -11.89343,0 h 23.78687 m -23.78687,-4.75737 c 0,-5.271169 4.24359,-9.514747 9.51475,-9.514747 h 4.75737 c 5.27118,0 9.51475,4.243578 9.51475,9.514747 l -1e-5,19.02949 c 0,6.58897 -5.30447,11.89344 -11.89343,11.89344 -6.58896,0 -11.89343,-5.30447 -11.89343,-11.89344 z"
       sodipodi:nodetypes="ccccsssscscs" />
    <g
       aria-label="î½"
       transform="matrix(1.4587561,0,0,1.4587561,-175.5123,-790.55846)"
       id="text26161"
       style="font-size:40px;line-height:1.25;letter-spacing:0px;word-spacing:0px;white-space:pre;shape-inside:url(#rect26163);display:inline;stroke-width:1.70696">
      <path
         d="m 271.71875,605.88719 v 15.0586 q 0,0.83984 -0.42969,1.36719 -0.42969,0.50781 -1.28906,0.50781 -0.83984,0 -1.26953,-0.50781 -0.41016,-0.52735 -0.41016,-1.36719 v -15.0586 q 0,-0.8789 0.41016,-1.38671 0.42969,-0.50782 1.26953,-0.50782 0.85937,0 1.28906,0.50782 0.42969,0.50781 0.42969,1.36718 z m 5.03906,4.23829 q 1.40625,0.8789 2.57813,2.08984 1.17187,1.19141 1.99218,2.65625 0.83985,1.44531 1.28907,3.08594 0.46875,1.64062 0.46875,3.3789 0,1.81641 -0.46875,3.4961 -0.46875,1.66015 -1.32813,3.125 -0.83984,1.44531 -2.05078,2.65625 -1.19141,1.1914 -2.65625,2.05078 -1.44531,0.83984 -3.125,1.30859 -1.66016,0.46875 -3.45703,0.46875 -1.81641,0 -3.49609,-0.46875 -1.66016,-0.46875 -3.125,-1.30859 -1.44532,-0.85938 -2.65625,-2.05078 -1.19141,-1.21094 -2.05079,-2.65625 -0.83984,-1.46485 -1.30859,-3.125 -0.46875,-1.67969 -0.46875,-3.4961 0,-1.73828 0.44922,-3.3789 0.46875,-1.64063 1.28906,-3.08594 0.83985,-1.46484 2.01172,-2.65625 1.17188,-1.21094 2.57813,-2.08984 l 1.48437,2.4414 q -1.13281,0.6836 -2.05078,1.60156 -0.89844,0.89844 -1.54297,2.01172 -0.64453,1.09375 -0.99609,2.38282 -0.35157,1.26953 -0.35157,2.65625 0,2.1289 0.78125,3.96484 0.80079,1.83594 2.16797,3.20312 1.38672,1.34766 3.24219,2.12891 1.875,0.76172 4.02344,0.76172 2.16797,0 4.02344,-0.76172 1.875,-0.78125 3.24218,-2.12891 1.38672,-1.36718 2.16797,-3.20312 0.80078,-1.83594 0.80078,-3.96484 0,-1.38672 -0.35156,-2.65625 -0.35156,-1.28907 -0.99609,-2.38282 -0.64453,-1.11328 -1.5625,-2.01172 -0.89844,-0.91796 -2.03125,-1.60156 z"
         id="path29107" />
    </g>
    <g
       aria-label="ðŸŽ®"
       transform="matrix(1.3043272,0,0,1.3043272,-128.0357,-704.28965)"
       id="text29101"
       style="font-size:40px;line-height:1.25;letter-spacing:0px;word-spacing:0px;white-space:pre;shape-inside:url(#rect29103);stroke-width:0.99974915;stroke-dasharray:none">
      <path
         d="m 315.21447,620.74463 q 0.59056,0 0.97572,0.38516 0.41085,0.38516 0.41085,0.97573 0,0.59058 -0.41085,1.00141 -0.38516,0.38516 -0.97572,0.38516 -0.56491,0 -0.97574,-0.41083 -0.41083,-0.41084 -0.41083,-0.97574 0,-0.5649 0.41083,-0.95006 0.41083,-0.41083 0.97574,-0.41083 z"
         id="path29131"
         style="stroke-width:0.99974915;stroke-dasharray:none;stroke:#000000;stroke-opacity:1;fill:#000000;fill-opacity:1" />
      <path
         d="m 322.60953,620.74463 q 0.59057,0 0.97573,0.38516 0.41083,0.38516 0.41083,0.97573 0,0.59058 -0.41083,1.00141 -0.38516,0.38516 -0.97573,0.38516 -0.59059,0 -1.00142,-0.38516 -0.38516,-0.41083 -0.38516,-1.00141 0,-0.59057 0.38516,-0.97573 0.41083,-0.38516 1.00142,-0.38516 z"
         id="path29129"
         style="stroke-width:0.99974915;stroke-dasharray:none;stroke:#000000;stroke-opacity:1;fill:#000000;fill-opacity:1" />
      <path
         d="m 326.45703,613.12743 q 0.80078,0.68359 1.36719,1.42578 0.5664,0.72266 0.9375,1.71875 0.85937,2.32422 1.5625,4.6875 0.72265,2.34375 1.5625,4.6875 0.37109,1.03516 0.66406,2.01172 0.29297,0.95703 0.48828,1.93359 0.21485,0.95703 0.3125,1.97266 0.11719,0.99609 0.11719,2.08984 0,1.36719 -0.41016,2.75391 -0.41015,1.36719 -1.23047,2.48047 -0.80078,1.11328 -1.97265,1.79687 -1.17188,0.70313 -2.69531,0.70313 -0.9375,0 -1.75782,-0.35156 -0.80078,-0.35157 -1.46484,-1.01563 l -6.46484,-6.44531 q -0.3125,-0.3125 -0.72266,-0.46875 -0.39063,-0.15625 -0.82031,-0.15625 h -9.84375 q -0.41016,0 -0.82032,0.15625 -0.41015,0.13672 -0.70312,0.42969 l -6.44531,6.46484 q -0.66407,0.66406 -1.50391,1.01562 -0.82031,0.3711 -1.75781,0.3711 -1.52344,0 -2.69531,-0.70313 -1.17188,-0.68359 -1.99219,-1.79687 -0.80078,-1.11328 -1.21094,-2.48047 -0.41016,-1.38672 -0.41016,-2.75391 0,-1.11328 0.0977,-2.10937 0.11719,-0.9961 0.3125,-1.95313 0.19531,-0.97656 0.48828,-1.93359 0.29297,-0.97656 0.6836,-2.01172 0.85937,-2.32422 1.54296,-4.6875 0.70313,-2.36328 1.58204,-4.6875 0.37109,-0.97656 0.9375,-1.71875 0.58593,-0.74219 1.36718,-1.42578 v -1.48438 q 1.07422,-0.58593 2.05078,-1.05468 0.9961,-0.46875 1.99219,-0.80078 0.9961,-0.35157 2.07031,-0.52735 1.07422,-0.17578 2.32422,-0.17578 0.52735,0 1.01563,0.13672 0.48828,0.13672 0.95703,0.35156 0.46875,0.19531 0.91797,0.44922 0.46875,0.23438 0.91797,0.46875 h 6.40625 q 0.44922,-0.23437 0.89843,-0.46875 0.46875,-0.25391 0.9375,-0.44922 0.46875,-0.21484 0.95704,-0.35156 0.48828,-0.13672 1.01562,-0.13672 1.23047,0 2.30469,0.17578 1.07422,0.17578 2.08984,0.52735 1.01563,0.33203 1.99219,0.80078 0.99609,0.46875 2.05078,1.05468 z"
         id="path29110"
         style="fill:none;stroke:#000000;stroke-opacity:1;stroke-width:3.06671516;stroke-dasharray:none" />
      <path
         d="m 318.912,617.0471 q 0.59057,0 0.97573,0.41083 0.41083,0.38516 0.41083,0.97575 0,0.59057 -0.41083,1.0014 -0.38516,0.38516 -0.97573,0.38516 -0.59058,0 -1.00142,-0.38516 -0.38516,-0.41083 -0.38516,-1.0014 0,-0.59059 0.38516,-0.97575 0.41084,-0.41083 1.00142,-0.41083 z"
         id="path29127"
         style="stroke-width:0.99974915;stroke-dasharray:none;stroke:#000000;stroke-opacity:1;fill:#000000;fill-opacity:1" />
      <path
         d="m 318.912,624.41648 q 0.59057,0 0.97573,0.41083 0.41083,0.38517 0.41083,0.97573 0,0.59059 -0.41083,1.00142 -0.38516,0.38516 -0.97573,0.38516 -0.59058,0 -1.00142,-0.38516 -0.38516,-0.41083 -0.38516,-1.00142 0,-0.59056 0.38516,-0.97573 0.41084,-0.41083 1.00142,-0.41083 z"
         id="path29125"
         style="stroke-width:0.99974915;stroke-dasharray:none;stroke:#000000;stroke-opacity:1;fill:#000000;fill-opacity:1" />
      <path
         d="m 303.67782,620.38692 h 3.13534 q 0.28504,0.85508 0.28504,1.71017 0,0.85511 -0.28504,1.7102 h -3.13534 v 3.08784 q -0.90259,0.33254 -1.66267,0.33254 -0.42755,0 -0.85509,-0.0951 -0.42757,-0.0951 -0.85511,-0.23764 v -3.08783 h -3.13534 q -0.28504,-0.85509 -0.28504,-1.7102 0,-0.85509 0.28504,-1.71018 h 3.13534 v -3.08784 q 0.42754,-0.14253 0.85511,-0.23763 0.42754,-0.0951 0.85509,-0.0951 0.76008,0 1.66267,0.33254 z"
         id="path29121"
         style="stroke-width:0.99974915;stroke-dasharray:none" />
    </g>
  </g>
</svg>
