<?xml version="1.0" encoding="UTF-8" standalone="no"?>
<!-- Created with Inkscape (http://www.inkscape.org/) -->

<svg
   width="210mm"
   height="297mm"
   viewBox="0 0 210 297"
   version="1.1"
   id="svg5"
   sodipodi:docname="usbtoyes.svg"
   inkscape:version="1.2 (dc2aedaf03, 2022-05-15)"
   xmlns:inkscape="http://www.inkscape.org/namespaces/inkscape"
   xmlns:sodipodi="http://sodipodi.sourceforge.net/DTD/sodipodi-0.dtd"
   xmlns="http://www.w3.org/2000/svg"
   xmlns:svg="http://www.w3.org/2000/svg">
  <sodipodi:namedview
     id="namedview7"
     pagecolor="#ffffff"
     bordercolor="#666666"
     borderopacity="1.0"
     inkscape:showpageshadow="2"
     inkscape:pageopacity="0.0"
     inkscape:pagecheckerboard="0"
     inkscape:deskcolor="#d1d1d1"
     inkscape:document-units="mm"
     showgrid="false"
     inkscape:zoom="0.74564394"
     inkscape:cx="170.32258"
     inkscape:cy="482.80417"
     inkscape:window-width="1920"
     inkscape:window-height="1017"
     inkscape:window-x="-8"
     inkscape:window-y="-8"
     inkscape:window-maximized="1"
     inkscape:current-layer="layer1" />
  <defs
     id="defs2">
    <rect
       x="128.74778"
       y="319.1872"
       width="523.03785"
       height="95.21971"
       id="rect186" />
  </defs>
  <g
     inkscape:label="Layer 1"
     inkscape:groupmode="layer"
     id="layer1">
    <g
       aria-label="USB TO YES CONVERTER"
       transform="matrix(0.22474862,0,0,0.26458333,18.726882,-25.193548)"
       id="text184"
       style="font-size:40px;line-height:1.25;font-family:'Times New Roman';-inkscape-font-specification:'Times New Roman, ';letter-spacing:-2.17px;word-spacing:0px;white-space:pre;shape-inside:url(#rect186);display:inline">
      <path
         d="m 131.61914,326.58486 h 5.78125 v 15.50782 q 0,3.6914 0.21484,4.78515 0.3711,1.75782 1.75782,2.83203 1.40625,1.05469 3.82812,1.05469 2.46094,0 3.71094,-0.99609 1.25,-1.01563 1.50391,-2.48047 0.2539,-1.46484 0.2539,-4.86328 v -15.83985 h 5.78125 v 15.03907 q 0,5.15625 -0.46875,7.28515 -0.46875,2.12891 -1.73828,3.59375 -1.25,1.46485 -3.35937,2.34375 -2.10938,0.85938 -5.50782,0.85938 -4.10156,0 -6.23047,-0.9375 -2.10937,-0.95703 -3.33984,-2.46094 -1.23047,-1.52344 -1.62109,-3.18359 -0.56641,-2.46094 -0.56641,-7.26563 z"
         style="font-weight:bold;font-family:Arial;-inkscape-font-specification:'Arial Bold'"
         id="path1125" />
      <path
         d="m 156.91008,345.90127 5.625,-0.54687 q 0.50781,2.83203 2.05078,4.16015 1.5625,1.32813 4.19922,1.32813 2.79297,0 4.19922,-1.17188 1.42578,-1.1914 1.42578,-2.77344 0,-1.01562 -0.60547,-1.71875 -0.58594,-0.72265 -2.07031,-1.25 -1.01563,-0.35156 -4.62891,-1.25 -4.64844,-1.15234 -6.52344,-2.83203 -2.63672,-2.36328 -2.63672,-5.76172 0,-2.1875 1.23047,-4.08203 1.25,-1.91406 3.57422,-2.91015 2.34375,-0.9961 5.64453,-0.9961 5.39063,0 8.10547,2.36328 2.73438,2.36329 2.8711,6.3086 l -5.78125,0.2539 q -0.3711,-2.20703 -1.60157,-3.16406 -1.21093,-0.97656 -3.65234,-0.97656 -2.51953,0 -3.94531,1.03516 -0.91797,0.66406 -0.91797,1.77734 0,1.01562 0.85937,1.73828 1.09375,0.91797 5.3125,1.91406 4.21875,0.9961 6.23047,2.07032 2.03125,1.05468 3.16406,2.91015 1.15235,1.83594 1.15235,4.55078 0,2.46094 -1.36719,4.60938 -1.36719,2.14844 -3.86719,3.20312 -2.5,1.03516 -6.23047,1.03516 -5.42968,0 -8.33984,-2.5 -2.91016,-2.51953 -3.47656,-7.32422 z"
         style="font-weight:bold;font-family:Arial;-inkscape-font-specification:'Arial Bold'"
         id="path1127" />
      <path
         d="m 182.90414,326.58486 h 11.44531 q 3.39844,0 5.0586,0.29297 1.67968,0.27344 2.98828,1.17188 1.32812,0.89844 2.20703,2.40234 0.87891,1.48438 0.87891,3.33985 0,2.01171 -1.09375,3.6914 -1.07422,1.67969 -2.92969,2.51953 2.61719,0.76172 4.02344,2.59766 1.40625,1.83594 1.40625,4.31641 0,1.95312 -0.91797,3.80859 -0.89844,1.83594 -2.48047,2.94922 -1.5625,1.09375 -3.86719,1.34765 -1.44531,0.15625 -6.97266,0.19532 h -9.74609 z m 5.78125,4.76563 v 6.62109 h 3.78906 q 3.37891,0 4.19922,-0.0977 1.48438,-0.17578 2.32422,-1.01563 0.85938,-0.85937 0.85938,-2.24609 0,-1.32813 -0.74219,-2.14844 -0.72266,-0.83984 -2.16797,-1.01562 -0.85938,-0.0977 -4.94141,-0.0977 z m 0,11.38672 v 7.65625 h 5.35156 q 3.125,0 3.96485,-0.17578 1.28906,-0.23438 2.08984,-1.13282 0.82031,-0.91796 0.82031,-2.4414 0,-1.28906 -0.625,-2.1875 -0.625,-0.89844 -1.8164,-1.3086 -1.17188,-0.41015 -5.11719,-0.41015 z"
         style="font-weight:bold;font-family:Arial;-inkscape-font-specification:'Arial Bold'"
         id="path1129" />
      <path
         d="m 224.98992,355.21768 v -23.78907 h -8.49609 v -4.84375 h 22.7539 v 4.84375 h -8.47656 v 23.78907 z"
         style="font-weight:bold;font-family:Arial;-inkscape-font-specification:'Arial Bold'"
         id="path1131" />
      <path
         d="m 238.91367,341.07705 q 0,-4.375 1.3086,-7.34375 0.97656,-2.1875 2.65625,-3.92578 1.69922,-1.73828 3.71093,-2.57812 2.67579,-1.13282 6.17188,-1.13282 6.32812,0 10.11719,3.92578 3.80859,3.92579 3.80859,10.91797 0,6.9336 -3.76953,10.85938 -3.76953,3.90625 -10.07813,3.90625 -6.38671,0 -10.15625,-3.88672 -3.76953,-3.90625 -3.76953,-10.74219 z m 5.95703,-0.19531 q 0,4.86328 2.2461,7.38281 2.24609,2.5 5.70312,2.5 3.45703,0 5.66407,-2.48047 2.22656,-2.5 2.22656,-7.48047 0,-4.92187 -2.16797,-7.34375 -2.14844,-2.42187 -5.72266,-2.42187 -3.57422,0 -5.76172,2.46094 -2.1875,2.4414 -2.1875,7.38281 z"
         style="font-weight:bold;font-family:Arial;-inkscape-font-specification:'Arial Bold'"
         id="path1133" />
      <path
         d="M 284.76898,355.21768 V 343.1669 L 274.2807,326.58486 h 6.77734 l 6.73829,11.32813 6.60156,-11.32813 h 6.66015 l -10.52734,16.6211 v 12.01172 z"
         style="font-weight:bold;font-family:Arial;-inkscape-font-specification:'Arial Bold'"
         id="path1135" />
      <path
         d="m 301.75914,355.21768 v -28.63282 h 21.23047 v 4.84375 h -15.44922 v 6.34766 h 14.375 v 4.82422 h -14.375 v 7.79297 h 15.99609 v 4.82422 z"
         style="font-weight:bold;font-family:Arial;-inkscape-font-specification:'Arial Bold'"
         id="path1137" />
      <path
         d="m 324.80399,345.90127 5.625,-0.54687 q 0.50781,2.83203 2.05078,4.16015 1.5625,1.32813 4.19922,1.32813 2.79296,0 4.19921,-1.17188 1.42579,-1.1914 1.42579,-2.77344 0,-1.01562 -0.60547,-1.71875 -0.58594,-0.72265 -2.07032,-1.25 -1.01562,-0.35156 -4.6289,-1.25 -4.64844,-1.15234 -6.52344,-2.83203 -2.63672,-2.36328 -2.63672,-5.76172 0,-2.1875 1.23047,-4.08203 1.25,-1.91406 3.57422,-2.91015 2.34375,-0.9961 5.64453,-0.9961 5.39063,0 8.10547,2.36328 2.73437,2.36329 2.87109,6.3086 l -5.78125,0.2539 q -0.37109,-2.20703 -1.60156,-3.16406 -1.21094,-0.97656 -3.65234,-0.97656 -2.51953,0 -3.94532,1.03516 -0.91796,0.66406 -0.91796,1.77734 0,1.01562 0.85937,1.73828 1.09375,0.91797 5.3125,1.91406 4.21875,0.9961 6.23047,2.07032 2.03125,1.05468 3.16406,2.91015 1.15235,1.83594 1.15235,4.55078 0,2.46094 -1.36719,4.60938 -1.36719,2.14844 -3.86719,3.20312 -2.5,1.03516 -6.23047,1.03516 -5.42969,0 -8.33984,-2.5 -2.91016,-2.51953 -3.47656,-7.32422 z"
         style="font-weight:bold;font-family:Arial;-inkscape-font-specification:'Arial Bold'"
         id="path1139" />
      <path
         d="m 378.04211,344.69033 5.60547,1.77735 q -1.28906,4.6875 -4.29687,6.97265 -2.98828,2.26563 -7.59766,2.26563 -5.70312,0 -9.375,-3.88672 -3.67187,-3.90625 -3.67187,-10.66406 0,-7.14844 3.6914,-11.09375 3.69141,-3.96485 9.70703,-3.96485 5.25391,0 8.53516,3.10547 1.95313,1.83594 2.92969,5.27344 l -5.72266,1.36719 q -0.50781,-2.22657 -2.1289,-3.51563 -1.60157,-1.28906 -3.90625,-1.28906 -3.1836,0 -5.17579,2.28516 -1.97265,2.28515 -1.97265,7.40234 0,5.42969 1.95312,7.73437 1.95313,2.30469 5.07813,2.30469 2.30469,0 3.96484,-1.46484 1.66016,-1.46485 2.38281,-4.60938 z"
         style="font-weight:bold;font-family:Arial;-inkscape-font-specification:'Arial Bold'"
         id="path1141" />
      <path
         d="m 385.26663,341.07705 q 0,-4.375 1.3086,-7.34375 0.97656,-2.1875 2.65625,-3.92578 1.69921,-1.73828 3.71093,-2.57812 2.67578,-1.13282 6.17188,-1.13282 6.32812,0 10.11719,3.92578 3.80859,3.92579 3.80859,10.91797 0,6.9336 -3.76953,10.85938 -3.76953,3.90625 -10.07813,3.90625 -6.38672,0 -10.15625,-3.88672 -3.76953,-3.90625 -3.76953,-10.74219 z m 5.95703,-0.19531 q 0,4.86328 2.2461,7.38281 2.24609,2.5 5.70312,2.5 3.45703,0 5.66406,-2.48047 2.22657,-2.5 2.22657,-7.48047 0,-4.92187 -2.16797,-7.34375 -2.14844,-2.42187 -5.72266,-2.42187 -3.57422,0 -5.76172,2.46094 -2.1875,2.4414 -2.1875,7.38281 z"
         style="font-weight:bold;font-family:Arial;-inkscape-font-specification:'Arial Bold'"
         id="path1143" />
      <path
         d="m 415.4404,355.21768 v -28.63282 h 5.625 l 11.71875,19.1211 v -19.1211 h 5.37109 v 28.63282 h -5.80078 L 420.81149,336.5458 v 18.67188 z"
         style="font-weight:bold;font-family:Arial;-inkscape-font-specification:'Arial Bold'"
         id="path1145" />
      <path
         d="m 449.4032,355.21768 -10.23438,-28.63282 h 6.26953 l 7.2461,21.19141 7.01172,-21.19141 h 6.13281 l -10.25391,28.63282 z"
         style="font-weight:bold;font-family:Arial;-inkscape-font-specification:'Arial Bold'"
         id="path1147" />
      <path
         d="m 466.60822,355.21768 v -28.63282 h 21.23046 v 4.84375 h -15.44921 v 6.34766 h 14.375 v 4.82422 h -14.375 v 7.79297 h 15.99609 v 4.82422 z"
         style="font-weight:bold;font-family:Arial;-inkscape-font-specification:'Arial Bold'"
         id="path1149" />
      <path
         d="m 491.13742,355.21768 v -28.63282 h 12.16797 q 4.58984,0 6.66016,0.78125 2.08984,0.76172 3.33984,2.73438 1.25,1.97266 1.25,4.51172 0,3.22265 -1.89453,5.33203 -1.89453,2.08984 -5.66406,2.63672 1.875,1.09375 3.08593,2.40234 1.23047,1.3086 3.30078,4.64844 l 3.4961,5.58594 h -6.91406 l -4.17969,-6.23047 q -2.22656,-3.33985 -3.04688,-4.19922 -0.82031,-0.87891 -1.73828,-1.19141 -0.91797,-0.33203 -2.91015,-0.33203 h -1.17188 v 11.95313 z m 5.78125,-16.52344 h 4.27734 q 4.16016,0 5.19532,-0.35156 1.03515,-0.35157 1.62109,-1.21094 0.58594,-0.85938 0.58594,-2.14844 0,-1.44531 -0.78125,-2.32422 -0.76172,-0.89843 -2.16797,-1.13281 -0.70313,-0.0977 -4.21875,-0.0977 h -4.51172 z"
         style="font-weight:bold;font-family:Arial;-inkscape-font-specification:'Arial Bold'"
         id="path1151" />
      <path
         d="m 524.27991,355.21768 v -23.78907 h -8.4961 v -4.84375 h 22.75391 v 4.84375 h -8.47656 v 23.78907 z"
         style="font-weight:bold;font-family:Arial;-inkscape-font-specification:'Arial Bold'"
         id="path1153" />
      <path
         d="m 540.09821,355.21768 v -28.63282 h 21.23046 v 4.84375 h -15.44921 v 6.34766 h 14.375 v 4.82422 h -14.375 v 7.79297 h 15.99609 v 4.82422 z"
         style="font-weight:bold;font-family:Arial;-inkscape-font-specification:'Arial Bold'"
         id="path1155" />
      <path
         d="m 564.62741,355.21768 v -28.63282 h 12.16797 q 4.58984,0 6.66016,0.78125 2.08984,0.76172 3.33984,2.73438 1.25,1.97266 1.25,4.51172 0,3.22265 -1.89453,5.33203 -1.89453,2.08984 -5.66406,2.63672 1.875,1.09375 3.08593,2.40234 1.23047,1.3086 3.30078,4.64844 l 3.4961,5.58594 h -6.91406 l -4.17969,-6.23047 q -2.22656,-3.33985 -3.04688,-4.19922 -0.82031,-0.87891 -1.73828,-1.19141 -0.91797,-0.33203 -2.91015,-0.33203 h -1.17188 v 11.95313 z m 5.78125,-16.52344 h 4.27734 q 4.16016,0 5.19532,-0.35156 1.03515,-0.35157 1.62109,-1.21094 0.58594,-0.85938 0.58594,-2.14844 0,-1.44531 -0.78125,-2.32422 -0.76172,-0.89843 -2.16797,-1.13281 -0.70313,-0.0977 -4.21875,-0.0977 h -4.51172 z"
         style="font-weight:bold;font-family:Arial;-inkscape-font-specification:'Arial Bold'"
         id="path1157" />
    </g>
  </g>
</svg>
