M48
; DRILL file {KiCad 8.0.3} date 2024-07-06T22:04:35-0700
; FORMAT={-:-/ absolute / metric / decimal}
; #@! TF.CreationDate,2024-07-06T22:04:35-07:00
; #@! TF.GenerationSoftware,Kicad,Pcbnew,8.0.3
; #@! TF.FileFunction,Plated,1,2,PTH
FMAT,2
METRIC
; #@! TA.AperFunction,Plated,PTH,ViaDrill
T1C0.400
; #@! TA.AperFunction,Plated,PTH,ComponentDrill
T2C0.900
; #@! TA.AperFunction,Plated,PTH,ComponentDrill
T3C1.000
; #@! TA.AperFunction,Plated,PTH,ComponentDrill
T4C1.300
; #@! TA.AperFunction,Plated,PTH,ComponentDrill
T5C2.200
; #@! TA.AperFunction,Plated,PTH,ComponentDrill
T6C2.300
%
G90
G05
T1
X101.5Y-82.5
X101.5Y-118.5
X104.475Y-114.85
X106.75Y-96.0
X114.5Y-82.5
X115.25Y-118.5
X119.225Y-101.4
X119.625Y-93.925
X122.125Y-100.225
X122.55Y-103.225
X123.13Y-108.575
X124.375Y-96.575
X125.8Y-99.925
X125.8Y-102.0
X126.025Y-96.1
X126.477Y-99.205
X126.975Y-104.225
X127.15Y-92.095
X127.175Y-96.125
X128.0Y-82.5
X128.125Y-103.55
X128.45Y-100.575
X129.55Y-110.325
X129.55Y-116.2
X129.725Y-104.225
X130.5Y-118.5
X132.525Y-97.525
X133.4Y-105.45
X134.125Y-108.575
X134.225Y-95.145
X134.3Y-102.275
X134.4Y-112.8
X135.325Y-106.45
X139.15Y-108.275
X139.15Y-110.95
X144.75Y-82.5
X145.25Y-118.5
X146.45Y-109.925
X147.0Y-91.425
X147.025Y-108.4
X149.0Y-86.725
X157.75Y-82.5
X158.5Y-118.5
T2
X149.0Y-88.6
X149.0Y-90.7
X149.0Y-92.9
X149.0Y-95.4
X149.0Y-105.6
X149.0Y-107.7
X149.0Y-109.9
X149.0Y-112.4
X151.5Y-88.6
X151.5Y-90.7
X151.5Y-93.3
X151.5Y-95.4
X151.5Y-105.6
X151.5Y-107.7
X151.5Y-110.3
X151.5Y-112.4
T3
X102.93Y-86.5
X102.93Y-91.0
X112.96Y-97.0
X112.96Y-99.5
X112.96Y-101.5
X112.96Y-104.0
X115.58Y-97.0
X115.58Y-99.5
X115.58Y-101.5
X115.58Y-104.0
X136.8Y-99.11
X136.8Y-101.65
X136.8Y-104.19
T4
X105.43Y-85.25
X105.43Y-92.25
T5
X154.5Y-85.25
X154.5Y-98.75
X154.5Y-102.25
X154.5Y-115.75
X155.3Y-92.0
X155.3Y-109.0
T6
X110.25Y-93.93
X110.25Y-107.07
X115.93Y-93.93
X115.93Y-107.07
M30
