%TF.GenerationSoftware,KiCad,Pcbnew,8.0.3*%
%TF.CreationDate,2024-07-07T02:34:09-07:00*%
%TF.ProjectId,ps2usb,70733275-7362-42e6-9b69-6361645f7063,rev?*%
%TF.SameCoordinates,Original*%
%TF.FileFunction,Drillmap*%
%TF.FilePolarity,Positive*%
%FSLAX45Y45*%
G04 Gerber Fmt 4.5, Leading zero omitted, Abs format (unit mm)*
G04 Created by KiCad (PCBNEW 8.0.3) date 2024-07-07 02:34:09*
%MOMM*%
%LPD*%
G01*
G04 APERTURE LIST*
%ADD10C,0.100000*%
%ADD11C,0.200000*%
%ADD12C,0.130000*%
%ADD13C,0.220000*%
%ADD14C,0.230000*%
G04 APERTURE END LIST*
D10*
X10000000Y-8100000D02*
X10550000Y-8100000D01*
X16000000Y-12000000D02*
X16000000Y-8100000D01*
X16000000Y-12000000D02*
X10000000Y-12000000D01*
X10000000Y-12000000D02*
X10000000Y-9425000D01*
X10550000Y-8100000D02*
X16000000Y-8100000D01*
X10000000Y-8575000D02*
X10000000Y-8100000D01*
X10000000Y-9425000D02*
X10000000Y-8575000D01*
D11*
D10*
X10130000Y-8230000D02*
X10170000Y-8270000D01*
X10170000Y-8230000D02*
X10130000Y-8270000D01*
X10130000Y-11829999D02*
X10170000Y-11869999D01*
X10170000Y-11829999D02*
X10130000Y-11869999D01*
X10427500Y-11465000D02*
X10467500Y-11505000D01*
X10467500Y-11465000D02*
X10427500Y-11505000D01*
X10655000Y-9580000D02*
X10695000Y-9620000D01*
X10695000Y-9580000D02*
X10655000Y-9620000D01*
X11430000Y-8230000D02*
X11470000Y-8270000D01*
X11470000Y-8230000D02*
X11430000Y-8270000D01*
X11505000Y-11830000D02*
X11545000Y-11870000D01*
X11545000Y-11830000D02*
X11505000Y-11870000D01*
X11902500Y-10120000D02*
X11942500Y-10160000D01*
X11942500Y-10120000D02*
X11902500Y-10160000D01*
X11942500Y-9372500D02*
X11982500Y-9412500D01*
X11982500Y-9372500D02*
X11942500Y-9412500D01*
X12192500Y-10002500D02*
X12232500Y-10042500D01*
X12232500Y-10002500D02*
X12192500Y-10042500D01*
X12235000Y-10302500D02*
X12275000Y-10342500D01*
X12275000Y-10302500D02*
X12235000Y-10342500D01*
X12293000Y-10837500D02*
X12333000Y-10877500D01*
X12333000Y-10837500D02*
X12293000Y-10877500D01*
X12417500Y-9637500D02*
X12457500Y-9677500D01*
X12457500Y-9637500D02*
X12417500Y-9677500D01*
X12560000Y-9972500D02*
X12600000Y-10012500D01*
X12600000Y-9972500D02*
X12560000Y-10012500D01*
X12560000Y-10180000D02*
X12600000Y-10220000D01*
X12600000Y-10180000D02*
X12560000Y-10220000D01*
X12582500Y-9590000D02*
X12622500Y-9630000D01*
X12622500Y-9590000D02*
X12582500Y-9630000D01*
X12627740Y-9900480D02*
X12667740Y-9940480D01*
X12667740Y-9900480D02*
X12627740Y-9940480D01*
X12677500Y-10402500D02*
X12717500Y-10442500D01*
X12717500Y-10402500D02*
X12677500Y-10442500D01*
X12695000Y-9189520D02*
X12735000Y-9229520D01*
X12735000Y-9189520D02*
X12695000Y-9229520D01*
X12697500Y-9592500D02*
X12737500Y-9632500D01*
X12737500Y-9592500D02*
X12697500Y-9632500D01*
X12780000Y-8230000D02*
X12820000Y-8270000D01*
X12820000Y-8230000D02*
X12780000Y-8270000D01*
X12792500Y-10335000D02*
X12832500Y-10375000D01*
X12832500Y-10335000D02*
X12792500Y-10375000D01*
X12825000Y-10037500D02*
X12865000Y-10077500D01*
X12865000Y-10037500D02*
X12825000Y-10077500D01*
X12935000Y-11012500D02*
X12975000Y-11052500D01*
X12975000Y-11012500D02*
X12935000Y-11052500D01*
X12935000Y-11600000D02*
X12975000Y-11640000D01*
X12975000Y-11600000D02*
X12935000Y-11640000D01*
X12952500Y-10402500D02*
X12992500Y-10442500D01*
X12992500Y-10402500D02*
X12952500Y-10442500D01*
X13030000Y-11829999D02*
X13070000Y-11869999D01*
X13070000Y-11829999D02*
X13030000Y-11869999D01*
X13232500Y-9732500D02*
X13272500Y-9772500D01*
X13272500Y-9732500D02*
X13232500Y-9772500D01*
X13320000Y-10525000D02*
X13360000Y-10565000D01*
X13360000Y-10525000D02*
X13320000Y-10565000D01*
X13392500Y-10837500D02*
X13432500Y-10877500D01*
X13432500Y-10837500D02*
X13392500Y-10877500D01*
X13402500Y-9494520D02*
X13442500Y-9534520D01*
X13442500Y-9494520D02*
X13402500Y-9534520D01*
X13410000Y-10207500D02*
X13450000Y-10247500D01*
X13450000Y-10207500D02*
X13410000Y-10247500D01*
X13420000Y-11260000D02*
X13460000Y-11300000D01*
X13460000Y-11260000D02*
X13420000Y-11300000D01*
X13512500Y-10625000D02*
X13552500Y-10665000D01*
X13552500Y-10625000D02*
X13512500Y-10665000D01*
X13895000Y-10807500D02*
X13935000Y-10847500D01*
X13935000Y-10807500D02*
X13895000Y-10847500D01*
X13895000Y-11075000D02*
X13935000Y-11115000D01*
X13935000Y-11075000D02*
X13895000Y-11115000D01*
X14455000Y-8230000D02*
X14495000Y-8270000D01*
X14495000Y-8230000D02*
X14455000Y-8270000D01*
X14505000Y-11830000D02*
X14545000Y-11870000D01*
X14545000Y-11830000D02*
X14505000Y-11870000D01*
X14625000Y-10972500D02*
X14665000Y-11012500D01*
X14665000Y-10972500D02*
X14625000Y-11012500D01*
X14680000Y-9122500D02*
X14720000Y-9162500D01*
X14720000Y-9122500D02*
X14680000Y-9162500D01*
X14682500Y-10820000D02*
X14722500Y-10860000D01*
X14722500Y-10820000D02*
X14682500Y-10860000D01*
X14880000Y-8652500D02*
X14920000Y-8692500D01*
X14920000Y-8652500D02*
X14880000Y-8692500D01*
X15755000Y-8229999D02*
X15795000Y-8269999D01*
X15795000Y-8229999D02*
X15755000Y-8269999D01*
X15830000Y-11829999D02*
X15870000Y-11869999D01*
X15870000Y-11829999D02*
X15830000Y-11869999D01*
X14945000Y-8860000D02*
G75*
G02*
X14855000Y-8860000I-45000J0D01*
G01*
X14855000Y-8860000D02*
G75*
G02*
X14945000Y-8860000I45000J0D01*
G01*
X14945000Y-9070000D02*
G75*
G02*
X14855000Y-9070000I-45000J0D01*
G01*
X14855000Y-9070000D02*
G75*
G02*
X14945000Y-9070000I45000J0D01*
G01*
X14945000Y-9290000D02*
G75*
G02*
X14855000Y-9290000I-45000J0D01*
G01*
X14855000Y-9290000D02*
G75*
G02*
X14945000Y-9290000I45000J0D01*
G01*
X14945000Y-9540000D02*
G75*
G02*
X14855000Y-9540000I-45000J0D01*
G01*
X14855000Y-9540000D02*
G75*
G02*
X14945000Y-9540000I45000J0D01*
G01*
X14945000Y-10560000D02*
G75*
G02*
X14855000Y-10560000I-45000J0D01*
G01*
X14855000Y-10560000D02*
G75*
G02*
X14945000Y-10560000I45000J0D01*
G01*
X14945000Y-10770000D02*
G75*
G02*
X14855000Y-10770000I-45000J0D01*
G01*
X14855000Y-10770000D02*
G75*
G02*
X14945000Y-10770000I45000J0D01*
G01*
X14945000Y-10990000D02*
G75*
G02*
X14855000Y-10990000I-45000J0D01*
G01*
X14855000Y-10990000D02*
G75*
G02*
X14945000Y-10990000I45000J0D01*
G01*
X14945000Y-11240000D02*
G75*
G02*
X14855000Y-11240000I-45000J0D01*
G01*
X14855000Y-11240000D02*
G75*
G02*
X14945000Y-11240000I45000J0D01*
G01*
X15195000Y-8860000D02*
G75*
G02*
X15105000Y-8860000I-45000J0D01*
G01*
X15105000Y-8860000D02*
G75*
G02*
X15195000Y-8860000I45000J0D01*
G01*
X15195000Y-9070000D02*
G75*
G02*
X15105000Y-9070000I-45000J0D01*
G01*
X15105000Y-9070000D02*
G75*
G02*
X15195000Y-9070000I45000J0D01*
G01*
X15195000Y-9330000D02*
G75*
G02*
X15105000Y-9330000I-45000J0D01*
G01*
X15105000Y-9330000D02*
G75*
G02*
X15195000Y-9330000I45000J0D01*
G01*
X15195000Y-9540000D02*
G75*
G02*
X15105000Y-9540000I-45000J0D01*
G01*
X15105000Y-9540000D02*
G75*
G02*
X15195000Y-9540000I45000J0D01*
G01*
X15195000Y-10560000D02*
G75*
G02*
X15105000Y-10560000I-45000J0D01*
G01*
X15105000Y-10560000D02*
G75*
G02*
X15195000Y-10560000I45000J0D01*
G01*
X15195000Y-10770000D02*
G75*
G02*
X15105000Y-10770000I-45000J0D01*
G01*
X15105000Y-10770000D02*
G75*
G02*
X15195000Y-10770000I45000J0D01*
G01*
X15195000Y-11030000D02*
G75*
G02*
X15105000Y-11030000I-45000J0D01*
G01*
X15105000Y-11030000D02*
G75*
G02*
X15195000Y-11030000I45000J0D01*
G01*
X15195000Y-11240000D02*
G75*
G02*
X15105000Y-11240000I-45000J0D01*
G01*
X15105000Y-11240000D02*
G75*
G02*
X15195000Y-11240000I45000J0D01*
G01*
X10293000Y-8600000D02*
X10293000Y-8700000D01*
X10243000Y-8650000D02*
X10343000Y-8650000D01*
X10293000Y-9050000D02*
X10293000Y-9150000D01*
X10243000Y-9100000D02*
X10343000Y-9100000D01*
X11296000Y-9650000D02*
X11296000Y-9750000D01*
X11246000Y-9700000D02*
X11346000Y-9700000D01*
X11296000Y-9900000D02*
X11296000Y-10000000D01*
X11246000Y-9950000D02*
X11346000Y-9950000D01*
X11296000Y-10100000D02*
X11296000Y-10200000D01*
X11246000Y-10150000D02*
X11346000Y-10150000D01*
X11296000Y-10350000D02*
X11296000Y-10450000D01*
X11246000Y-10400000D02*
X11346000Y-10400000D01*
X11558000Y-9650000D02*
X11558000Y-9750000D01*
X11508000Y-9700000D02*
X11608000Y-9700000D01*
X11558000Y-9900000D02*
X11558000Y-10000000D01*
X11508000Y-9950000D02*
X11608000Y-9950000D01*
X11558000Y-10100000D02*
X11558000Y-10200000D01*
X11508000Y-10150000D02*
X11608000Y-10150000D01*
X11558000Y-10350000D02*
X11558000Y-10450000D01*
X11508000Y-10400000D02*
X11608000Y-10400000D01*
X13680000Y-9861000D02*
X13680000Y-9961000D01*
X13630000Y-9911000D02*
X13730000Y-9911000D01*
X13680000Y-10115000D02*
X13680000Y-10215000D01*
X13630000Y-10165000D02*
X13730000Y-10165000D01*
X13680000Y-10369000D02*
X13680000Y-10469000D01*
X13630000Y-10419000D02*
X13730000Y-10419000D01*
D12*
X10588962Y-8570962D02*
X10588962Y-8479038D01*
X10497038Y-8479038D01*
X10497038Y-8570962D01*
X10588962Y-8570962D01*
X10588962Y-9270962D02*
X10588962Y-9179038D01*
X10497038Y-9179038D01*
X10497038Y-9270962D01*
X10588962Y-9270962D01*
D13*
X15450000Y-8635000D02*
X15560000Y-8525000D01*
X15450000Y-8415000D01*
X15340000Y-8525000D01*
X15450000Y-8635000D01*
X15450000Y-9985000D02*
X15560000Y-9875000D01*
X15450000Y-9765000D01*
X15340000Y-9875000D01*
X15450000Y-9985000D01*
X15450000Y-10335000D02*
X15560000Y-10225000D01*
X15450000Y-10115000D01*
X15340000Y-10225000D01*
X15450000Y-10335000D01*
X15450000Y-11685000D02*
X15560000Y-11575000D01*
X15450000Y-11465000D01*
X15340000Y-11575000D01*
X15450000Y-11685000D01*
X15530000Y-9310000D02*
X15640000Y-9200000D01*
X15530000Y-9090000D01*
X15420000Y-9200000D01*
X15530000Y-9310000D01*
X15530000Y-11010000D02*
X15640000Y-10900000D01*
X15530000Y-10790000D01*
X15420000Y-10900000D01*
X15530000Y-11010000D01*
D14*
X10910000Y-9278000D02*
X11140000Y-9508000D01*
X11140000Y-9278000D02*
X10910000Y-9508000D01*
X11140000Y-9393000D02*
G75*
G02*
X10910000Y-9393000I-115000J0D01*
G01*
X10910000Y-9393000D02*
G75*
G02*
X11140000Y-9393000I115000J0D01*
G01*
X10910000Y-10592000D02*
X11140000Y-10822000D01*
X11140000Y-10592000D02*
X10910000Y-10822000D01*
X11140000Y-10707000D02*
G75*
G02*
X10910000Y-10707000I-115000J0D01*
G01*
X10910000Y-10707000D02*
G75*
G02*
X11140000Y-10707000I115000J0D01*
G01*
X11478000Y-9278000D02*
X11708000Y-9508000D01*
X11708000Y-9278000D02*
X11478000Y-9508000D01*
X11708000Y-9393000D02*
G75*
G02*
X11478000Y-9393000I-115000J0D01*
G01*
X11478000Y-9393000D02*
G75*
G02*
X11708000Y-9393000I115000J0D01*
G01*
X11478000Y-10592000D02*
X11708000Y-10822000D01*
X11708000Y-10592000D02*
X11478000Y-10822000D01*
X11708000Y-10707000D02*
G75*
G02*
X11478000Y-10707000I-115000J0D01*
G01*
X11478000Y-10707000D02*
G75*
G02*
X11708000Y-10707000I115000J0D01*
G01*
D11*
X10255777Y-12316484D02*
X10255777Y-12116484D01*
X10255777Y-12116484D02*
X10303396Y-12116484D01*
X10303396Y-12116484D02*
X10331967Y-12126008D01*
X10331967Y-12126008D02*
X10351015Y-12145055D01*
X10351015Y-12145055D02*
X10360539Y-12164103D01*
X10360539Y-12164103D02*
X10370062Y-12202198D01*
X10370062Y-12202198D02*
X10370062Y-12230769D01*
X10370062Y-12230769D02*
X10360539Y-12268865D01*
X10360539Y-12268865D02*
X10351015Y-12287912D01*
X10351015Y-12287912D02*
X10331967Y-12306960D01*
X10331967Y-12306960D02*
X10303396Y-12316484D01*
X10303396Y-12316484D02*
X10255777Y-12316484D01*
X10455777Y-12316484D02*
X10455777Y-12183150D01*
X10455777Y-12221246D02*
X10465300Y-12202198D01*
X10465300Y-12202198D02*
X10474824Y-12192674D01*
X10474824Y-12192674D02*
X10493872Y-12183150D01*
X10493872Y-12183150D02*
X10512920Y-12183150D01*
X10579586Y-12316484D02*
X10579586Y-12183150D01*
X10579586Y-12116484D02*
X10570062Y-12126008D01*
X10570062Y-12126008D02*
X10579586Y-12135531D01*
X10579586Y-12135531D02*
X10589110Y-12126008D01*
X10589110Y-12126008D02*
X10579586Y-12116484D01*
X10579586Y-12116484D02*
X10579586Y-12135531D01*
X10703396Y-12316484D02*
X10684348Y-12306960D01*
X10684348Y-12306960D02*
X10674824Y-12287912D01*
X10674824Y-12287912D02*
X10674824Y-12116484D01*
X10808158Y-12316484D02*
X10789110Y-12306960D01*
X10789110Y-12306960D02*
X10779586Y-12287912D01*
X10779586Y-12287912D02*
X10779586Y-12116484D01*
X11036729Y-12316484D02*
X11036729Y-12116484D01*
X11036729Y-12116484D02*
X11103396Y-12259341D01*
X11103396Y-12259341D02*
X11170062Y-12116484D01*
X11170062Y-12116484D02*
X11170062Y-12316484D01*
X11351015Y-12316484D02*
X11351015Y-12211722D01*
X11351015Y-12211722D02*
X11341491Y-12192674D01*
X11341491Y-12192674D02*
X11322443Y-12183150D01*
X11322443Y-12183150D02*
X11284348Y-12183150D01*
X11284348Y-12183150D02*
X11265300Y-12192674D01*
X11351015Y-12306960D02*
X11331967Y-12316484D01*
X11331967Y-12316484D02*
X11284348Y-12316484D01*
X11284348Y-12316484D02*
X11265300Y-12306960D01*
X11265300Y-12306960D02*
X11255777Y-12287912D01*
X11255777Y-12287912D02*
X11255777Y-12268865D01*
X11255777Y-12268865D02*
X11265300Y-12249817D01*
X11265300Y-12249817D02*
X11284348Y-12240293D01*
X11284348Y-12240293D02*
X11331967Y-12240293D01*
X11331967Y-12240293D02*
X11351015Y-12230769D01*
X11446253Y-12183150D02*
X11446253Y-12383150D01*
X11446253Y-12192674D02*
X11465300Y-12183150D01*
X11465300Y-12183150D02*
X11503396Y-12183150D01*
X11503396Y-12183150D02*
X11522443Y-12192674D01*
X11522443Y-12192674D02*
X11531967Y-12202198D01*
X11531967Y-12202198D02*
X11541491Y-12221246D01*
X11541491Y-12221246D02*
X11541491Y-12278388D01*
X11541491Y-12278388D02*
X11531967Y-12297436D01*
X11531967Y-12297436D02*
X11522443Y-12306960D01*
X11522443Y-12306960D02*
X11503396Y-12316484D01*
X11503396Y-12316484D02*
X11465300Y-12316484D01*
X11465300Y-12316484D02*
X11446253Y-12306960D01*
X11627205Y-12297436D02*
X11636729Y-12306960D01*
X11636729Y-12306960D02*
X11627205Y-12316484D01*
X11627205Y-12316484D02*
X11617681Y-12306960D01*
X11617681Y-12306960D02*
X11627205Y-12297436D01*
X11627205Y-12297436D02*
X11627205Y-12316484D01*
X11627205Y-12192674D02*
X11636729Y-12202198D01*
X11636729Y-12202198D02*
X11627205Y-12211722D01*
X11627205Y-12211722D02*
X11617681Y-12202198D01*
X11617681Y-12202198D02*
X11627205Y-12192674D01*
X11627205Y-12192674D02*
X11627205Y-12211722D01*
D10*
X9955000Y-12625000D02*
X9995000Y-12665000D01*
X9995000Y-12625000D02*
X9955000Y-12665000D01*
D11*
X10293872Y-12536484D02*
X10312920Y-12536484D01*
X10312920Y-12536484D02*
X10331967Y-12546008D01*
X10331967Y-12546008D02*
X10341491Y-12555531D01*
X10341491Y-12555531D02*
X10351015Y-12574579D01*
X10351015Y-12574579D02*
X10360539Y-12612674D01*
X10360539Y-12612674D02*
X10360539Y-12660293D01*
X10360539Y-12660293D02*
X10351015Y-12698388D01*
X10351015Y-12698388D02*
X10341491Y-12717436D01*
X10341491Y-12717436D02*
X10331967Y-12726960D01*
X10331967Y-12726960D02*
X10312920Y-12736484D01*
X10312920Y-12736484D02*
X10293872Y-12736484D01*
X10293872Y-12736484D02*
X10274824Y-12726960D01*
X10274824Y-12726960D02*
X10265300Y-12717436D01*
X10265300Y-12717436D02*
X10255777Y-12698388D01*
X10255777Y-12698388D02*
X10246253Y-12660293D01*
X10246253Y-12660293D02*
X10246253Y-12612674D01*
X10246253Y-12612674D02*
X10255777Y-12574579D01*
X10255777Y-12574579D02*
X10265300Y-12555531D01*
X10265300Y-12555531D02*
X10274824Y-12546008D01*
X10274824Y-12546008D02*
X10293872Y-12536484D01*
X10446253Y-12717436D02*
X10455777Y-12726960D01*
X10455777Y-12726960D02*
X10446253Y-12736484D01*
X10446253Y-12736484D02*
X10436729Y-12726960D01*
X10436729Y-12726960D02*
X10446253Y-12717436D01*
X10446253Y-12717436D02*
X10446253Y-12736484D01*
X10627205Y-12603150D02*
X10627205Y-12736484D01*
X10579586Y-12526960D02*
X10531967Y-12669817D01*
X10531967Y-12669817D02*
X10655777Y-12669817D01*
X10770062Y-12536484D02*
X10789110Y-12536484D01*
X10789110Y-12536484D02*
X10808158Y-12546008D01*
X10808158Y-12546008D02*
X10817681Y-12555531D01*
X10817681Y-12555531D02*
X10827205Y-12574579D01*
X10827205Y-12574579D02*
X10836729Y-12612674D01*
X10836729Y-12612674D02*
X10836729Y-12660293D01*
X10836729Y-12660293D02*
X10827205Y-12698388D01*
X10827205Y-12698388D02*
X10817681Y-12717436D01*
X10817681Y-12717436D02*
X10808158Y-12726960D01*
X10808158Y-12726960D02*
X10789110Y-12736484D01*
X10789110Y-12736484D02*
X10770062Y-12736484D01*
X10770062Y-12736484D02*
X10751015Y-12726960D01*
X10751015Y-12726960D02*
X10741491Y-12717436D01*
X10741491Y-12717436D02*
X10731967Y-12698388D01*
X10731967Y-12698388D02*
X10722443Y-12660293D01*
X10722443Y-12660293D02*
X10722443Y-12612674D01*
X10722443Y-12612674D02*
X10731967Y-12574579D01*
X10731967Y-12574579D02*
X10741491Y-12555531D01*
X10741491Y-12555531D02*
X10751015Y-12546008D01*
X10751015Y-12546008D02*
X10770062Y-12536484D01*
X10960539Y-12536484D02*
X10979586Y-12536484D01*
X10979586Y-12536484D02*
X10998634Y-12546008D01*
X10998634Y-12546008D02*
X11008158Y-12555531D01*
X11008158Y-12555531D02*
X11017681Y-12574579D01*
X11017681Y-12574579D02*
X11027205Y-12612674D01*
X11027205Y-12612674D02*
X11027205Y-12660293D01*
X11027205Y-12660293D02*
X11017681Y-12698388D01*
X11017681Y-12698388D02*
X11008158Y-12717436D01*
X11008158Y-12717436D02*
X10998634Y-12726960D01*
X10998634Y-12726960D02*
X10979586Y-12736484D01*
X10979586Y-12736484D02*
X10960539Y-12736484D01*
X10960539Y-12736484D02*
X10941491Y-12726960D01*
X10941491Y-12726960D02*
X10931967Y-12717436D01*
X10931967Y-12717436D02*
X10922443Y-12698388D01*
X10922443Y-12698388D02*
X10912920Y-12660293D01*
X10912920Y-12660293D02*
X10912920Y-12612674D01*
X10912920Y-12612674D02*
X10922443Y-12574579D01*
X10922443Y-12574579D02*
X10931967Y-12555531D01*
X10931967Y-12555531D02*
X10941491Y-12546008D01*
X10941491Y-12546008D02*
X10960539Y-12536484D01*
X11112920Y-12736484D02*
X11112920Y-12603150D01*
X11112920Y-12622198D02*
X11122443Y-12612674D01*
X11122443Y-12612674D02*
X11141491Y-12603150D01*
X11141491Y-12603150D02*
X11170062Y-12603150D01*
X11170062Y-12603150D02*
X11189110Y-12612674D01*
X11189110Y-12612674D02*
X11198634Y-12631722D01*
X11198634Y-12631722D02*
X11198634Y-12736484D01*
X11198634Y-12631722D02*
X11208158Y-12612674D01*
X11208158Y-12612674D02*
X11227205Y-12603150D01*
X11227205Y-12603150D02*
X11255777Y-12603150D01*
X11255777Y-12603150D02*
X11274824Y-12612674D01*
X11274824Y-12612674D02*
X11284348Y-12631722D01*
X11284348Y-12631722D02*
X11284348Y-12736484D01*
X11379586Y-12736484D02*
X11379586Y-12603150D01*
X11379586Y-12622198D02*
X11389110Y-12612674D01*
X11389110Y-12612674D02*
X11408158Y-12603150D01*
X11408158Y-12603150D02*
X11436729Y-12603150D01*
X11436729Y-12603150D02*
X11455777Y-12612674D01*
X11455777Y-12612674D02*
X11465300Y-12631722D01*
X11465300Y-12631722D02*
X11465300Y-12736484D01*
X11465300Y-12631722D02*
X11474824Y-12612674D01*
X11474824Y-12612674D02*
X11493872Y-12603150D01*
X11493872Y-12603150D02*
X11522443Y-12603150D01*
X11522443Y-12603150D02*
X11541491Y-12612674D01*
X11541491Y-12612674D02*
X11551015Y-12631722D01*
X11551015Y-12631722D02*
X11551015Y-12736484D01*
X11941491Y-12526960D02*
X11770062Y-12784103D01*
X12198634Y-12536484D02*
X12217682Y-12536484D01*
X12217682Y-12536484D02*
X12236729Y-12546008D01*
X12236729Y-12546008D02*
X12246253Y-12555531D01*
X12246253Y-12555531D02*
X12255777Y-12574579D01*
X12255777Y-12574579D02*
X12265301Y-12612674D01*
X12265301Y-12612674D02*
X12265301Y-12660293D01*
X12265301Y-12660293D02*
X12255777Y-12698388D01*
X12255777Y-12698388D02*
X12246253Y-12717436D01*
X12246253Y-12717436D02*
X12236729Y-12726960D01*
X12236729Y-12726960D02*
X12217682Y-12736484D01*
X12217682Y-12736484D02*
X12198634Y-12736484D01*
X12198634Y-12736484D02*
X12179586Y-12726960D01*
X12179586Y-12726960D02*
X12170062Y-12717436D01*
X12170062Y-12717436D02*
X12160539Y-12698388D01*
X12160539Y-12698388D02*
X12151015Y-12660293D01*
X12151015Y-12660293D02*
X12151015Y-12612674D01*
X12151015Y-12612674D02*
X12160539Y-12574579D01*
X12160539Y-12574579D02*
X12170062Y-12555531D01*
X12170062Y-12555531D02*
X12179586Y-12546008D01*
X12179586Y-12546008D02*
X12198634Y-12536484D01*
X12351015Y-12717436D02*
X12360539Y-12726960D01*
X12360539Y-12726960D02*
X12351015Y-12736484D01*
X12351015Y-12736484D02*
X12341491Y-12726960D01*
X12341491Y-12726960D02*
X12351015Y-12717436D01*
X12351015Y-12717436D02*
X12351015Y-12736484D01*
X12484348Y-12536484D02*
X12503396Y-12536484D01*
X12503396Y-12536484D02*
X12522443Y-12546008D01*
X12522443Y-12546008D02*
X12531967Y-12555531D01*
X12531967Y-12555531D02*
X12541491Y-12574579D01*
X12541491Y-12574579D02*
X12551015Y-12612674D01*
X12551015Y-12612674D02*
X12551015Y-12660293D01*
X12551015Y-12660293D02*
X12541491Y-12698388D01*
X12541491Y-12698388D02*
X12531967Y-12717436D01*
X12531967Y-12717436D02*
X12522443Y-12726960D01*
X12522443Y-12726960D02*
X12503396Y-12736484D01*
X12503396Y-12736484D02*
X12484348Y-12736484D01*
X12484348Y-12736484D02*
X12465301Y-12726960D01*
X12465301Y-12726960D02*
X12455777Y-12717436D01*
X12455777Y-12717436D02*
X12446253Y-12698388D01*
X12446253Y-12698388D02*
X12436729Y-12660293D01*
X12436729Y-12660293D02*
X12436729Y-12612674D01*
X12436729Y-12612674D02*
X12446253Y-12574579D01*
X12446253Y-12574579D02*
X12455777Y-12555531D01*
X12455777Y-12555531D02*
X12465301Y-12546008D01*
X12465301Y-12546008D02*
X12484348Y-12536484D01*
X12741491Y-12736484D02*
X12627205Y-12736484D01*
X12684348Y-12736484D02*
X12684348Y-12536484D01*
X12684348Y-12536484D02*
X12665301Y-12565055D01*
X12665301Y-12565055D02*
X12646253Y-12584103D01*
X12646253Y-12584103D02*
X12627205Y-12593627D01*
X12922443Y-12536484D02*
X12827205Y-12536484D01*
X12827205Y-12536484D02*
X12817682Y-12631722D01*
X12817682Y-12631722D02*
X12827205Y-12622198D01*
X12827205Y-12622198D02*
X12846253Y-12612674D01*
X12846253Y-12612674D02*
X12893872Y-12612674D01*
X12893872Y-12612674D02*
X12912920Y-12622198D01*
X12912920Y-12622198D02*
X12922443Y-12631722D01*
X12922443Y-12631722D02*
X12931967Y-12650769D01*
X12931967Y-12650769D02*
X12931967Y-12698388D01*
X12931967Y-12698388D02*
X12922443Y-12717436D01*
X12922443Y-12717436D02*
X12912920Y-12726960D01*
X12912920Y-12726960D02*
X12893872Y-12736484D01*
X12893872Y-12736484D02*
X12846253Y-12736484D01*
X12846253Y-12736484D02*
X12827205Y-12726960D01*
X12827205Y-12726960D02*
X12817682Y-12717436D01*
X12998634Y-12536484D02*
X13131967Y-12536484D01*
X13131967Y-12536484D02*
X13046253Y-12736484D01*
X13198634Y-12536484D02*
X13198634Y-12574579D01*
X13274824Y-12536484D02*
X13274824Y-12574579D01*
X13570063Y-12812674D02*
X13560539Y-12803150D01*
X13560539Y-12803150D02*
X13541491Y-12774579D01*
X13541491Y-12774579D02*
X13531967Y-12755531D01*
X13531967Y-12755531D02*
X13522444Y-12726960D01*
X13522444Y-12726960D02*
X13512920Y-12679341D01*
X13512920Y-12679341D02*
X13512920Y-12641246D01*
X13512920Y-12641246D02*
X13522444Y-12593627D01*
X13522444Y-12593627D02*
X13531967Y-12565055D01*
X13531967Y-12565055D02*
X13541491Y-12546008D01*
X13541491Y-12546008D02*
X13560539Y-12517436D01*
X13560539Y-12517436D02*
X13570063Y-12507912D01*
X13731967Y-12603150D02*
X13731967Y-12736484D01*
X13684348Y-12526960D02*
X13636729Y-12669817D01*
X13636729Y-12669817D02*
X13760539Y-12669817D01*
X13817682Y-12536484D02*
X13941491Y-12536484D01*
X13941491Y-12536484D02*
X13874824Y-12612674D01*
X13874824Y-12612674D02*
X13903396Y-12612674D01*
X13903396Y-12612674D02*
X13922444Y-12622198D01*
X13922444Y-12622198D02*
X13931967Y-12631722D01*
X13931967Y-12631722D02*
X13941491Y-12650769D01*
X13941491Y-12650769D02*
X13941491Y-12698388D01*
X13941491Y-12698388D02*
X13931967Y-12717436D01*
X13931967Y-12717436D02*
X13922444Y-12726960D01*
X13922444Y-12726960D02*
X13903396Y-12736484D01*
X13903396Y-12736484D02*
X13846253Y-12736484D01*
X13846253Y-12736484D02*
X13827205Y-12726960D01*
X13827205Y-12726960D02*
X13817682Y-12717436D01*
X14179586Y-12736484D02*
X14179586Y-12536484D01*
X14265301Y-12736484D02*
X14265301Y-12631722D01*
X14265301Y-12631722D02*
X14255777Y-12612674D01*
X14255777Y-12612674D02*
X14236729Y-12603150D01*
X14236729Y-12603150D02*
X14208158Y-12603150D01*
X14208158Y-12603150D02*
X14189110Y-12612674D01*
X14189110Y-12612674D02*
X14179586Y-12622198D01*
X14389110Y-12736484D02*
X14370063Y-12726960D01*
X14370063Y-12726960D02*
X14360539Y-12717436D01*
X14360539Y-12717436D02*
X14351015Y-12698388D01*
X14351015Y-12698388D02*
X14351015Y-12641246D01*
X14351015Y-12641246D02*
X14360539Y-12622198D01*
X14360539Y-12622198D02*
X14370063Y-12612674D01*
X14370063Y-12612674D02*
X14389110Y-12603150D01*
X14389110Y-12603150D02*
X14417682Y-12603150D01*
X14417682Y-12603150D02*
X14436729Y-12612674D01*
X14436729Y-12612674D02*
X14446253Y-12622198D01*
X14446253Y-12622198D02*
X14455777Y-12641246D01*
X14455777Y-12641246D02*
X14455777Y-12698388D01*
X14455777Y-12698388D02*
X14446253Y-12717436D01*
X14446253Y-12717436D02*
X14436729Y-12726960D01*
X14436729Y-12726960D02*
X14417682Y-12736484D01*
X14417682Y-12736484D02*
X14389110Y-12736484D01*
X14570063Y-12736484D02*
X14551015Y-12726960D01*
X14551015Y-12726960D02*
X14541491Y-12707912D01*
X14541491Y-12707912D02*
X14541491Y-12536484D01*
X14722444Y-12726960D02*
X14703396Y-12736484D01*
X14703396Y-12736484D02*
X14665301Y-12736484D01*
X14665301Y-12736484D02*
X14646253Y-12726960D01*
X14646253Y-12726960D02*
X14636729Y-12707912D01*
X14636729Y-12707912D02*
X14636729Y-12631722D01*
X14636729Y-12631722D02*
X14646253Y-12612674D01*
X14646253Y-12612674D02*
X14665301Y-12603150D01*
X14665301Y-12603150D02*
X14703396Y-12603150D01*
X14703396Y-12603150D02*
X14722444Y-12612674D01*
X14722444Y-12612674D02*
X14731967Y-12631722D01*
X14731967Y-12631722D02*
X14731967Y-12650769D01*
X14731967Y-12650769D02*
X14636729Y-12669817D01*
X14808158Y-12726960D02*
X14827206Y-12736484D01*
X14827206Y-12736484D02*
X14865301Y-12736484D01*
X14865301Y-12736484D02*
X14884348Y-12726960D01*
X14884348Y-12726960D02*
X14893872Y-12707912D01*
X14893872Y-12707912D02*
X14893872Y-12698388D01*
X14893872Y-12698388D02*
X14884348Y-12679341D01*
X14884348Y-12679341D02*
X14865301Y-12669817D01*
X14865301Y-12669817D02*
X14836729Y-12669817D01*
X14836729Y-12669817D02*
X14817682Y-12660293D01*
X14817682Y-12660293D02*
X14808158Y-12641246D01*
X14808158Y-12641246D02*
X14808158Y-12631722D01*
X14808158Y-12631722D02*
X14817682Y-12612674D01*
X14817682Y-12612674D02*
X14836729Y-12603150D01*
X14836729Y-12603150D02*
X14865301Y-12603150D01*
X14865301Y-12603150D02*
X14884348Y-12612674D01*
X14960539Y-12812674D02*
X14970063Y-12803150D01*
X14970063Y-12803150D02*
X14989110Y-12774579D01*
X14989110Y-12774579D02*
X14998634Y-12755531D01*
X14998634Y-12755531D02*
X15008158Y-12726960D01*
X15008158Y-12726960D02*
X15017682Y-12679341D01*
X15017682Y-12679341D02*
X15017682Y-12641246D01*
X15017682Y-12641246D02*
X15008158Y-12593627D01*
X15008158Y-12593627D02*
X14998634Y-12565055D01*
X14998634Y-12565055D02*
X14989110Y-12546008D01*
X14989110Y-12546008D02*
X14970063Y-12517436D01*
X14970063Y-12517436D02*
X14960539Y-12507912D01*
D10*
X9995000Y-12909000D02*
G75*
G02*
X9905000Y-12909000I-45000J0D01*
G01*
X9905000Y-12909000D02*
G75*
G02*
X9995000Y-12909000I45000J0D01*
G01*
D11*
X10293872Y-12800484D02*
X10312920Y-12800484D01*
X10312920Y-12800484D02*
X10331967Y-12810008D01*
X10331967Y-12810008D02*
X10341491Y-12819531D01*
X10341491Y-12819531D02*
X10351015Y-12838579D01*
X10351015Y-12838579D02*
X10360539Y-12876674D01*
X10360539Y-12876674D02*
X10360539Y-12924293D01*
X10360539Y-12924293D02*
X10351015Y-12962388D01*
X10351015Y-12962388D02*
X10341491Y-12981436D01*
X10341491Y-12981436D02*
X10331967Y-12990960D01*
X10331967Y-12990960D02*
X10312920Y-13000484D01*
X10312920Y-13000484D02*
X10293872Y-13000484D01*
X10293872Y-13000484D02*
X10274824Y-12990960D01*
X10274824Y-12990960D02*
X10265300Y-12981436D01*
X10265300Y-12981436D02*
X10255777Y-12962388D01*
X10255777Y-12962388D02*
X10246253Y-12924293D01*
X10246253Y-12924293D02*
X10246253Y-12876674D01*
X10246253Y-12876674D02*
X10255777Y-12838579D01*
X10255777Y-12838579D02*
X10265300Y-12819531D01*
X10265300Y-12819531D02*
X10274824Y-12810008D01*
X10274824Y-12810008D02*
X10293872Y-12800484D01*
X10446253Y-12981436D02*
X10455777Y-12990960D01*
X10455777Y-12990960D02*
X10446253Y-13000484D01*
X10446253Y-13000484D02*
X10436729Y-12990960D01*
X10436729Y-12990960D02*
X10446253Y-12981436D01*
X10446253Y-12981436D02*
X10446253Y-13000484D01*
X10551015Y-13000484D02*
X10589110Y-13000484D01*
X10589110Y-13000484D02*
X10608158Y-12990960D01*
X10608158Y-12990960D02*
X10617681Y-12981436D01*
X10617681Y-12981436D02*
X10636729Y-12952865D01*
X10636729Y-12952865D02*
X10646253Y-12914769D01*
X10646253Y-12914769D02*
X10646253Y-12838579D01*
X10646253Y-12838579D02*
X10636729Y-12819531D01*
X10636729Y-12819531D02*
X10627205Y-12810008D01*
X10627205Y-12810008D02*
X10608158Y-12800484D01*
X10608158Y-12800484D02*
X10570062Y-12800484D01*
X10570062Y-12800484D02*
X10551015Y-12810008D01*
X10551015Y-12810008D02*
X10541491Y-12819531D01*
X10541491Y-12819531D02*
X10531967Y-12838579D01*
X10531967Y-12838579D02*
X10531967Y-12886198D01*
X10531967Y-12886198D02*
X10541491Y-12905246D01*
X10541491Y-12905246D02*
X10551015Y-12914769D01*
X10551015Y-12914769D02*
X10570062Y-12924293D01*
X10570062Y-12924293D02*
X10608158Y-12924293D01*
X10608158Y-12924293D02*
X10627205Y-12914769D01*
X10627205Y-12914769D02*
X10636729Y-12905246D01*
X10636729Y-12905246D02*
X10646253Y-12886198D01*
X10770062Y-12800484D02*
X10789110Y-12800484D01*
X10789110Y-12800484D02*
X10808158Y-12810008D01*
X10808158Y-12810008D02*
X10817681Y-12819531D01*
X10817681Y-12819531D02*
X10827205Y-12838579D01*
X10827205Y-12838579D02*
X10836729Y-12876674D01*
X10836729Y-12876674D02*
X10836729Y-12924293D01*
X10836729Y-12924293D02*
X10827205Y-12962388D01*
X10827205Y-12962388D02*
X10817681Y-12981436D01*
X10817681Y-12981436D02*
X10808158Y-12990960D01*
X10808158Y-12990960D02*
X10789110Y-13000484D01*
X10789110Y-13000484D02*
X10770062Y-13000484D01*
X10770062Y-13000484D02*
X10751015Y-12990960D01*
X10751015Y-12990960D02*
X10741491Y-12981436D01*
X10741491Y-12981436D02*
X10731967Y-12962388D01*
X10731967Y-12962388D02*
X10722443Y-12924293D01*
X10722443Y-12924293D02*
X10722443Y-12876674D01*
X10722443Y-12876674D02*
X10731967Y-12838579D01*
X10731967Y-12838579D02*
X10741491Y-12819531D01*
X10741491Y-12819531D02*
X10751015Y-12810008D01*
X10751015Y-12810008D02*
X10770062Y-12800484D01*
X10960539Y-12800484D02*
X10979586Y-12800484D01*
X10979586Y-12800484D02*
X10998634Y-12810008D01*
X10998634Y-12810008D02*
X11008158Y-12819531D01*
X11008158Y-12819531D02*
X11017681Y-12838579D01*
X11017681Y-12838579D02*
X11027205Y-12876674D01*
X11027205Y-12876674D02*
X11027205Y-12924293D01*
X11027205Y-12924293D02*
X11017681Y-12962388D01*
X11017681Y-12962388D02*
X11008158Y-12981436D01*
X11008158Y-12981436D02*
X10998634Y-12990960D01*
X10998634Y-12990960D02*
X10979586Y-13000484D01*
X10979586Y-13000484D02*
X10960539Y-13000484D01*
X10960539Y-13000484D02*
X10941491Y-12990960D01*
X10941491Y-12990960D02*
X10931967Y-12981436D01*
X10931967Y-12981436D02*
X10922443Y-12962388D01*
X10922443Y-12962388D02*
X10912920Y-12924293D01*
X10912920Y-12924293D02*
X10912920Y-12876674D01*
X10912920Y-12876674D02*
X10922443Y-12838579D01*
X10922443Y-12838579D02*
X10931967Y-12819531D01*
X10931967Y-12819531D02*
X10941491Y-12810008D01*
X10941491Y-12810008D02*
X10960539Y-12800484D01*
X11112920Y-13000484D02*
X11112920Y-12867150D01*
X11112920Y-12886198D02*
X11122443Y-12876674D01*
X11122443Y-12876674D02*
X11141491Y-12867150D01*
X11141491Y-12867150D02*
X11170062Y-12867150D01*
X11170062Y-12867150D02*
X11189110Y-12876674D01*
X11189110Y-12876674D02*
X11198634Y-12895722D01*
X11198634Y-12895722D02*
X11198634Y-13000484D01*
X11198634Y-12895722D02*
X11208158Y-12876674D01*
X11208158Y-12876674D02*
X11227205Y-12867150D01*
X11227205Y-12867150D02*
X11255777Y-12867150D01*
X11255777Y-12867150D02*
X11274824Y-12876674D01*
X11274824Y-12876674D02*
X11284348Y-12895722D01*
X11284348Y-12895722D02*
X11284348Y-13000484D01*
X11379586Y-13000484D02*
X11379586Y-12867150D01*
X11379586Y-12886198D02*
X11389110Y-12876674D01*
X11389110Y-12876674D02*
X11408158Y-12867150D01*
X11408158Y-12867150D02*
X11436729Y-12867150D01*
X11436729Y-12867150D02*
X11455777Y-12876674D01*
X11455777Y-12876674D02*
X11465300Y-12895722D01*
X11465300Y-12895722D02*
X11465300Y-13000484D01*
X11465300Y-12895722D02*
X11474824Y-12876674D01*
X11474824Y-12876674D02*
X11493872Y-12867150D01*
X11493872Y-12867150D02*
X11522443Y-12867150D01*
X11522443Y-12867150D02*
X11541491Y-12876674D01*
X11541491Y-12876674D02*
X11551015Y-12895722D01*
X11551015Y-12895722D02*
X11551015Y-13000484D01*
X11941491Y-12790960D02*
X11770062Y-13048103D01*
X12198634Y-12800484D02*
X12217682Y-12800484D01*
X12217682Y-12800484D02*
X12236729Y-12810008D01*
X12236729Y-12810008D02*
X12246253Y-12819531D01*
X12246253Y-12819531D02*
X12255777Y-12838579D01*
X12255777Y-12838579D02*
X12265301Y-12876674D01*
X12265301Y-12876674D02*
X12265301Y-12924293D01*
X12265301Y-12924293D02*
X12255777Y-12962388D01*
X12255777Y-12962388D02*
X12246253Y-12981436D01*
X12246253Y-12981436D02*
X12236729Y-12990960D01*
X12236729Y-12990960D02*
X12217682Y-13000484D01*
X12217682Y-13000484D02*
X12198634Y-13000484D01*
X12198634Y-13000484D02*
X12179586Y-12990960D01*
X12179586Y-12990960D02*
X12170062Y-12981436D01*
X12170062Y-12981436D02*
X12160539Y-12962388D01*
X12160539Y-12962388D02*
X12151015Y-12924293D01*
X12151015Y-12924293D02*
X12151015Y-12876674D01*
X12151015Y-12876674D02*
X12160539Y-12838579D01*
X12160539Y-12838579D02*
X12170062Y-12819531D01*
X12170062Y-12819531D02*
X12179586Y-12810008D01*
X12179586Y-12810008D02*
X12198634Y-12800484D01*
X12351015Y-12981436D02*
X12360539Y-12990960D01*
X12360539Y-12990960D02*
X12351015Y-13000484D01*
X12351015Y-13000484D02*
X12341491Y-12990960D01*
X12341491Y-12990960D02*
X12351015Y-12981436D01*
X12351015Y-12981436D02*
X12351015Y-13000484D01*
X12484348Y-12800484D02*
X12503396Y-12800484D01*
X12503396Y-12800484D02*
X12522443Y-12810008D01*
X12522443Y-12810008D02*
X12531967Y-12819531D01*
X12531967Y-12819531D02*
X12541491Y-12838579D01*
X12541491Y-12838579D02*
X12551015Y-12876674D01*
X12551015Y-12876674D02*
X12551015Y-12924293D01*
X12551015Y-12924293D02*
X12541491Y-12962388D01*
X12541491Y-12962388D02*
X12531967Y-12981436D01*
X12531967Y-12981436D02*
X12522443Y-12990960D01*
X12522443Y-12990960D02*
X12503396Y-13000484D01*
X12503396Y-13000484D02*
X12484348Y-13000484D01*
X12484348Y-13000484D02*
X12465301Y-12990960D01*
X12465301Y-12990960D02*
X12455777Y-12981436D01*
X12455777Y-12981436D02*
X12446253Y-12962388D01*
X12446253Y-12962388D02*
X12436729Y-12924293D01*
X12436729Y-12924293D02*
X12436729Y-12876674D01*
X12436729Y-12876674D02*
X12446253Y-12838579D01*
X12446253Y-12838579D02*
X12455777Y-12819531D01*
X12455777Y-12819531D02*
X12465301Y-12810008D01*
X12465301Y-12810008D02*
X12484348Y-12800484D01*
X12617682Y-12800484D02*
X12741491Y-12800484D01*
X12741491Y-12800484D02*
X12674824Y-12876674D01*
X12674824Y-12876674D02*
X12703396Y-12876674D01*
X12703396Y-12876674D02*
X12722443Y-12886198D01*
X12722443Y-12886198D02*
X12731967Y-12895722D01*
X12731967Y-12895722D02*
X12741491Y-12914769D01*
X12741491Y-12914769D02*
X12741491Y-12962388D01*
X12741491Y-12962388D02*
X12731967Y-12981436D01*
X12731967Y-12981436D02*
X12722443Y-12990960D01*
X12722443Y-12990960D02*
X12703396Y-13000484D01*
X12703396Y-13000484D02*
X12646253Y-13000484D01*
X12646253Y-13000484D02*
X12627205Y-12990960D01*
X12627205Y-12990960D02*
X12617682Y-12981436D01*
X12922443Y-12800484D02*
X12827205Y-12800484D01*
X12827205Y-12800484D02*
X12817682Y-12895722D01*
X12817682Y-12895722D02*
X12827205Y-12886198D01*
X12827205Y-12886198D02*
X12846253Y-12876674D01*
X12846253Y-12876674D02*
X12893872Y-12876674D01*
X12893872Y-12876674D02*
X12912920Y-12886198D01*
X12912920Y-12886198D02*
X12922443Y-12895722D01*
X12922443Y-12895722D02*
X12931967Y-12914769D01*
X12931967Y-12914769D02*
X12931967Y-12962388D01*
X12931967Y-12962388D02*
X12922443Y-12981436D01*
X12922443Y-12981436D02*
X12912920Y-12990960D01*
X12912920Y-12990960D02*
X12893872Y-13000484D01*
X12893872Y-13000484D02*
X12846253Y-13000484D01*
X12846253Y-13000484D02*
X12827205Y-12990960D01*
X12827205Y-12990960D02*
X12817682Y-12981436D01*
X13103396Y-12867150D02*
X13103396Y-13000484D01*
X13055777Y-12790960D02*
X13008158Y-12933817D01*
X13008158Y-12933817D02*
X13131967Y-12933817D01*
X13198634Y-12800484D02*
X13198634Y-12838579D01*
X13274824Y-12800484D02*
X13274824Y-12838579D01*
X13570063Y-13076674D02*
X13560539Y-13067150D01*
X13560539Y-13067150D02*
X13541491Y-13038579D01*
X13541491Y-13038579D02*
X13531967Y-13019531D01*
X13531967Y-13019531D02*
X13522444Y-12990960D01*
X13522444Y-12990960D02*
X13512920Y-12943341D01*
X13512920Y-12943341D02*
X13512920Y-12905246D01*
X13512920Y-12905246D02*
X13522444Y-12857627D01*
X13522444Y-12857627D02*
X13531967Y-12829055D01*
X13531967Y-12829055D02*
X13541491Y-12810008D01*
X13541491Y-12810008D02*
X13560539Y-12781436D01*
X13560539Y-12781436D02*
X13570063Y-12771912D01*
X13751015Y-13000484D02*
X13636729Y-13000484D01*
X13693872Y-13000484D02*
X13693872Y-12800484D01*
X13693872Y-12800484D02*
X13674824Y-12829055D01*
X13674824Y-12829055D02*
X13655777Y-12848103D01*
X13655777Y-12848103D02*
X13636729Y-12857627D01*
X13922444Y-12800484D02*
X13884348Y-12800484D01*
X13884348Y-12800484D02*
X13865301Y-12810008D01*
X13865301Y-12810008D02*
X13855777Y-12819531D01*
X13855777Y-12819531D02*
X13836729Y-12848103D01*
X13836729Y-12848103D02*
X13827205Y-12886198D01*
X13827205Y-12886198D02*
X13827205Y-12962388D01*
X13827205Y-12962388D02*
X13836729Y-12981436D01*
X13836729Y-12981436D02*
X13846253Y-12990960D01*
X13846253Y-12990960D02*
X13865301Y-13000484D01*
X13865301Y-13000484D02*
X13903396Y-13000484D01*
X13903396Y-13000484D02*
X13922444Y-12990960D01*
X13922444Y-12990960D02*
X13931967Y-12981436D01*
X13931967Y-12981436D02*
X13941491Y-12962388D01*
X13941491Y-12962388D02*
X13941491Y-12914769D01*
X13941491Y-12914769D02*
X13931967Y-12895722D01*
X13931967Y-12895722D02*
X13922444Y-12886198D01*
X13922444Y-12886198D02*
X13903396Y-12876674D01*
X13903396Y-12876674D02*
X13865301Y-12876674D01*
X13865301Y-12876674D02*
X13846253Y-12886198D01*
X13846253Y-12886198D02*
X13836729Y-12895722D01*
X13836729Y-12895722D02*
X13827205Y-12914769D01*
X14179586Y-13000484D02*
X14179586Y-12800484D01*
X14265301Y-13000484D02*
X14265301Y-12895722D01*
X14265301Y-12895722D02*
X14255777Y-12876674D01*
X14255777Y-12876674D02*
X14236729Y-12867150D01*
X14236729Y-12867150D02*
X14208158Y-12867150D01*
X14208158Y-12867150D02*
X14189110Y-12876674D01*
X14189110Y-12876674D02*
X14179586Y-12886198D01*
X14389110Y-13000484D02*
X14370063Y-12990960D01*
X14370063Y-12990960D02*
X14360539Y-12981436D01*
X14360539Y-12981436D02*
X14351015Y-12962388D01*
X14351015Y-12962388D02*
X14351015Y-12905246D01*
X14351015Y-12905246D02*
X14360539Y-12886198D01*
X14360539Y-12886198D02*
X14370063Y-12876674D01*
X14370063Y-12876674D02*
X14389110Y-12867150D01*
X14389110Y-12867150D02*
X14417682Y-12867150D01*
X14417682Y-12867150D02*
X14436729Y-12876674D01*
X14436729Y-12876674D02*
X14446253Y-12886198D01*
X14446253Y-12886198D02*
X14455777Y-12905246D01*
X14455777Y-12905246D02*
X14455777Y-12962388D01*
X14455777Y-12962388D02*
X14446253Y-12981436D01*
X14446253Y-12981436D02*
X14436729Y-12990960D01*
X14436729Y-12990960D02*
X14417682Y-13000484D01*
X14417682Y-13000484D02*
X14389110Y-13000484D01*
X14570063Y-13000484D02*
X14551015Y-12990960D01*
X14551015Y-12990960D02*
X14541491Y-12971912D01*
X14541491Y-12971912D02*
X14541491Y-12800484D01*
X14722444Y-12990960D02*
X14703396Y-13000484D01*
X14703396Y-13000484D02*
X14665301Y-13000484D01*
X14665301Y-13000484D02*
X14646253Y-12990960D01*
X14646253Y-12990960D02*
X14636729Y-12971912D01*
X14636729Y-12971912D02*
X14636729Y-12895722D01*
X14636729Y-12895722D02*
X14646253Y-12876674D01*
X14646253Y-12876674D02*
X14665301Y-12867150D01*
X14665301Y-12867150D02*
X14703396Y-12867150D01*
X14703396Y-12867150D02*
X14722444Y-12876674D01*
X14722444Y-12876674D02*
X14731967Y-12895722D01*
X14731967Y-12895722D02*
X14731967Y-12914769D01*
X14731967Y-12914769D02*
X14636729Y-12933817D01*
X14808158Y-12990960D02*
X14827206Y-13000484D01*
X14827206Y-13000484D02*
X14865301Y-13000484D01*
X14865301Y-13000484D02*
X14884348Y-12990960D01*
X14884348Y-12990960D02*
X14893872Y-12971912D01*
X14893872Y-12971912D02*
X14893872Y-12962388D01*
X14893872Y-12962388D02*
X14884348Y-12943341D01*
X14884348Y-12943341D02*
X14865301Y-12933817D01*
X14865301Y-12933817D02*
X14836729Y-12933817D01*
X14836729Y-12933817D02*
X14817682Y-12924293D01*
X14817682Y-12924293D02*
X14808158Y-12905246D01*
X14808158Y-12905246D02*
X14808158Y-12895722D01*
X14808158Y-12895722D02*
X14817682Y-12876674D01*
X14817682Y-12876674D02*
X14836729Y-12867150D01*
X14836729Y-12867150D02*
X14865301Y-12867150D01*
X14865301Y-12867150D02*
X14884348Y-12876674D01*
X14960539Y-13076674D02*
X14970063Y-13067150D01*
X14970063Y-13067150D02*
X14989110Y-13038579D01*
X14989110Y-13038579D02*
X14998634Y-13019531D01*
X14998634Y-13019531D02*
X15008158Y-12990960D01*
X15008158Y-12990960D02*
X15017682Y-12943341D01*
X15017682Y-12943341D02*
X15017682Y-12905246D01*
X15017682Y-12905246D02*
X15008158Y-12857627D01*
X15008158Y-12857627D02*
X14998634Y-12829055D01*
X14998634Y-12829055D02*
X14989110Y-12810008D01*
X14989110Y-12810008D02*
X14970063Y-12781436D01*
X14970063Y-12781436D02*
X14960539Y-12771912D01*
D10*
X9945000Y-13123000D02*
X9945000Y-13223000D01*
X9895000Y-13173000D02*
X9995000Y-13173000D01*
D11*
X10360539Y-13264484D02*
X10246253Y-13264484D01*
X10303396Y-13264484D02*
X10303396Y-13064484D01*
X10303396Y-13064484D02*
X10284348Y-13093055D01*
X10284348Y-13093055D02*
X10265300Y-13112103D01*
X10265300Y-13112103D02*
X10246253Y-13121627D01*
X10446253Y-13245436D02*
X10455777Y-13254960D01*
X10455777Y-13254960D02*
X10446253Y-13264484D01*
X10446253Y-13264484D02*
X10436729Y-13254960D01*
X10436729Y-13254960D02*
X10446253Y-13245436D01*
X10446253Y-13245436D02*
X10446253Y-13264484D01*
X10579586Y-13064484D02*
X10598634Y-13064484D01*
X10598634Y-13064484D02*
X10617681Y-13074008D01*
X10617681Y-13074008D02*
X10627205Y-13083531D01*
X10627205Y-13083531D02*
X10636729Y-13102579D01*
X10636729Y-13102579D02*
X10646253Y-13140674D01*
X10646253Y-13140674D02*
X10646253Y-13188293D01*
X10646253Y-13188293D02*
X10636729Y-13226388D01*
X10636729Y-13226388D02*
X10627205Y-13245436D01*
X10627205Y-13245436D02*
X10617681Y-13254960D01*
X10617681Y-13254960D02*
X10598634Y-13264484D01*
X10598634Y-13264484D02*
X10579586Y-13264484D01*
X10579586Y-13264484D02*
X10560539Y-13254960D01*
X10560539Y-13254960D02*
X10551015Y-13245436D01*
X10551015Y-13245436D02*
X10541491Y-13226388D01*
X10541491Y-13226388D02*
X10531967Y-13188293D01*
X10531967Y-13188293D02*
X10531967Y-13140674D01*
X10531967Y-13140674D02*
X10541491Y-13102579D01*
X10541491Y-13102579D02*
X10551015Y-13083531D01*
X10551015Y-13083531D02*
X10560539Y-13074008D01*
X10560539Y-13074008D02*
X10579586Y-13064484D01*
X10770062Y-13064484D02*
X10789110Y-13064484D01*
X10789110Y-13064484D02*
X10808158Y-13074008D01*
X10808158Y-13074008D02*
X10817681Y-13083531D01*
X10817681Y-13083531D02*
X10827205Y-13102579D01*
X10827205Y-13102579D02*
X10836729Y-13140674D01*
X10836729Y-13140674D02*
X10836729Y-13188293D01*
X10836729Y-13188293D02*
X10827205Y-13226388D01*
X10827205Y-13226388D02*
X10817681Y-13245436D01*
X10817681Y-13245436D02*
X10808158Y-13254960D01*
X10808158Y-13254960D02*
X10789110Y-13264484D01*
X10789110Y-13264484D02*
X10770062Y-13264484D01*
X10770062Y-13264484D02*
X10751015Y-13254960D01*
X10751015Y-13254960D02*
X10741491Y-13245436D01*
X10741491Y-13245436D02*
X10731967Y-13226388D01*
X10731967Y-13226388D02*
X10722443Y-13188293D01*
X10722443Y-13188293D02*
X10722443Y-13140674D01*
X10722443Y-13140674D02*
X10731967Y-13102579D01*
X10731967Y-13102579D02*
X10741491Y-13083531D01*
X10741491Y-13083531D02*
X10751015Y-13074008D01*
X10751015Y-13074008D02*
X10770062Y-13064484D01*
X10960539Y-13064484D02*
X10979586Y-13064484D01*
X10979586Y-13064484D02*
X10998634Y-13074008D01*
X10998634Y-13074008D02*
X11008158Y-13083531D01*
X11008158Y-13083531D02*
X11017681Y-13102579D01*
X11017681Y-13102579D02*
X11027205Y-13140674D01*
X11027205Y-13140674D02*
X11027205Y-13188293D01*
X11027205Y-13188293D02*
X11017681Y-13226388D01*
X11017681Y-13226388D02*
X11008158Y-13245436D01*
X11008158Y-13245436D02*
X10998634Y-13254960D01*
X10998634Y-13254960D02*
X10979586Y-13264484D01*
X10979586Y-13264484D02*
X10960539Y-13264484D01*
X10960539Y-13264484D02*
X10941491Y-13254960D01*
X10941491Y-13254960D02*
X10931967Y-13245436D01*
X10931967Y-13245436D02*
X10922443Y-13226388D01*
X10922443Y-13226388D02*
X10912920Y-13188293D01*
X10912920Y-13188293D02*
X10912920Y-13140674D01*
X10912920Y-13140674D02*
X10922443Y-13102579D01*
X10922443Y-13102579D02*
X10931967Y-13083531D01*
X10931967Y-13083531D02*
X10941491Y-13074008D01*
X10941491Y-13074008D02*
X10960539Y-13064484D01*
X11112920Y-13264484D02*
X11112920Y-13131150D01*
X11112920Y-13150198D02*
X11122443Y-13140674D01*
X11122443Y-13140674D02*
X11141491Y-13131150D01*
X11141491Y-13131150D02*
X11170062Y-13131150D01*
X11170062Y-13131150D02*
X11189110Y-13140674D01*
X11189110Y-13140674D02*
X11198634Y-13159722D01*
X11198634Y-13159722D02*
X11198634Y-13264484D01*
X11198634Y-13159722D02*
X11208158Y-13140674D01*
X11208158Y-13140674D02*
X11227205Y-13131150D01*
X11227205Y-13131150D02*
X11255777Y-13131150D01*
X11255777Y-13131150D02*
X11274824Y-13140674D01*
X11274824Y-13140674D02*
X11284348Y-13159722D01*
X11284348Y-13159722D02*
X11284348Y-13264484D01*
X11379586Y-13264484D02*
X11379586Y-13131150D01*
X11379586Y-13150198D02*
X11389110Y-13140674D01*
X11389110Y-13140674D02*
X11408158Y-13131150D01*
X11408158Y-13131150D02*
X11436729Y-13131150D01*
X11436729Y-13131150D02*
X11455777Y-13140674D01*
X11455777Y-13140674D02*
X11465300Y-13159722D01*
X11465300Y-13159722D02*
X11465300Y-13264484D01*
X11465300Y-13159722D02*
X11474824Y-13140674D01*
X11474824Y-13140674D02*
X11493872Y-13131150D01*
X11493872Y-13131150D02*
X11522443Y-13131150D01*
X11522443Y-13131150D02*
X11541491Y-13140674D01*
X11541491Y-13140674D02*
X11551015Y-13159722D01*
X11551015Y-13159722D02*
X11551015Y-13264484D01*
X11941491Y-13054960D02*
X11770062Y-13312103D01*
X12198634Y-13064484D02*
X12217682Y-13064484D01*
X12217682Y-13064484D02*
X12236729Y-13074008D01*
X12236729Y-13074008D02*
X12246253Y-13083531D01*
X12246253Y-13083531D02*
X12255777Y-13102579D01*
X12255777Y-13102579D02*
X12265301Y-13140674D01*
X12265301Y-13140674D02*
X12265301Y-13188293D01*
X12265301Y-13188293D02*
X12255777Y-13226388D01*
X12255777Y-13226388D02*
X12246253Y-13245436D01*
X12246253Y-13245436D02*
X12236729Y-13254960D01*
X12236729Y-13254960D02*
X12217682Y-13264484D01*
X12217682Y-13264484D02*
X12198634Y-13264484D01*
X12198634Y-13264484D02*
X12179586Y-13254960D01*
X12179586Y-13254960D02*
X12170062Y-13245436D01*
X12170062Y-13245436D02*
X12160539Y-13226388D01*
X12160539Y-13226388D02*
X12151015Y-13188293D01*
X12151015Y-13188293D02*
X12151015Y-13140674D01*
X12151015Y-13140674D02*
X12160539Y-13102579D01*
X12160539Y-13102579D02*
X12170062Y-13083531D01*
X12170062Y-13083531D02*
X12179586Y-13074008D01*
X12179586Y-13074008D02*
X12198634Y-13064484D01*
X12351015Y-13245436D02*
X12360539Y-13254960D01*
X12360539Y-13254960D02*
X12351015Y-13264484D01*
X12351015Y-13264484D02*
X12341491Y-13254960D01*
X12341491Y-13254960D02*
X12351015Y-13245436D01*
X12351015Y-13245436D02*
X12351015Y-13264484D01*
X12484348Y-13064484D02*
X12503396Y-13064484D01*
X12503396Y-13064484D02*
X12522443Y-13074008D01*
X12522443Y-13074008D02*
X12531967Y-13083531D01*
X12531967Y-13083531D02*
X12541491Y-13102579D01*
X12541491Y-13102579D02*
X12551015Y-13140674D01*
X12551015Y-13140674D02*
X12551015Y-13188293D01*
X12551015Y-13188293D02*
X12541491Y-13226388D01*
X12541491Y-13226388D02*
X12531967Y-13245436D01*
X12531967Y-13245436D02*
X12522443Y-13254960D01*
X12522443Y-13254960D02*
X12503396Y-13264484D01*
X12503396Y-13264484D02*
X12484348Y-13264484D01*
X12484348Y-13264484D02*
X12465301Y-13254960D01*
X12465301Y-13254960D02*
X12455777Y-13245436D01*
X12455777Y-13245436D02*
X12446253Y-13226388D01*
X12446253Y-13226388D02*
X12436729Y-13188293D01*
X12436729Y-13188293D02*
X12436729Y-13140674D01*
X12436729Y-13140674D02*
X12446253Y-13102579D01*
X12446253Y-13102579D02*
X12455777Y-13083531D01*
X12455777Y-13083531D02*
X12465301Y-13074008D01*
X12465301Y-13074008D02*
X12484348Y-13064484D01*
X12617682Y-13064484D02*
X12741491Y-13064484D01*
X12741491Y-13064484D02*
X12674824Y-13140674D01*
X12674824Y-13140674D02*
X12703396Y-13140674D01*
X12703396Y-13140674D02*
X12722443Y-13150198D01*
X12722443Y-13150198D02*
X12731967Y-13159722D01*
X12731967Y-13159722D02*
X12741491Y-13178769D01*
X12741491Y-13178769D02*
X12741491Y-13226388D01*
X12741491Y-13226388D02*
X12731967Y-13245436D01*
X12731967Y-13245436D02*
X12722443Y-13254960D01*
X12722443Y-13254960D02*
X12703396Y-13264484D01*
X12703396Y-13264484D02*
X12646253Y-13264484D01*
X12646253Y-13264484D02*
X12627205Y-13254960D01*
X12627205Y-13254960D02*
X12617682Y-13245436D01*
X12836729Y-13264484D02*
X12874824Y-13264484D01*
X12874824Y-13264484D02*
X12893872Y-13254960D01*
X12893872Y-13254960D02*
X12903396Y-13245436D01*
X12903396Y-13245436D02*
X12922443Y-13216865D01*
X12922443Y-13216865D02*
X12931967Y-13178769D01*
X12931967Y-13178769D02*
X12931967Y-13102579D01*
X12931967Y-13102579D02*
X12922443Y-13083531D01*
X12922443Y-13083531D02*
X12912920Y-13074008D01*
X12912920Y-13074008D02*
X12893872Y-13064484D01*
X12893872Y-13064484D02*
X12855777Y-13064484D01*
X12855777Y-13064484D02*
X12836729Y-13074008D01*
X12836729Y-13074008D02*
X12827205Y-13083531D01*
X12827205Y-13083531D02*
X12817682Y-13102579D01*
X12817682Y-13102579D02*
X12817682Y-13150198D01*
X12817682Y-13150198D02*
X12827205Y-13169246D01*
X12827205Y-13169246D02*
X12836729Y-13178769D01*
X12836729Y-13178769D02*
X12855777Y-13188293D01*
X12855777Y-13188293D02*
X12893872Y-13188293D01*
X12893872Y-13188293D02*
X12912920Y-13178769D01*
X12912920Y-13178769D02*
X12922443Y-13169246D01*
X12922443Y-13169246D02*
X12931967Y-13150198D01*
X13103396Y-13131150D02*
X13103396Y-13264484D01*
X13055777Y-13054960D02*
X13008158Y-13197817D01*
X13008158Y-13197817D02*
X13131967Y-13197817D01*
X13198634Y-13064484D02*
X13198634Y-13102579D01*
X13274824Y-13064484D02*
X13274824Y-13102579D01*
X13570063Y-13340674D02*
X13560539Y-13331150D01*
X13560539Y-13331150D02*
X13541491Y-13302579D01*
X13541491Y-13302579D02*
X13531967Y-13283531D01*
X13531967Y-13283531D02*
X13522444Y-13254960D01*
X13522444Y-13254960D02*
X13512920Y-13207341D01*
X13512920Y-13207341D02*
X13512920Y-13169246D01*
X13512920Y-13169246D02*
X13522444Y-13121627D01*
X13522444Y-13121627D02*
X13531967Y-13093055D01*
X13531967Y-13093055D02*
X13541491Y-13074008D01*
X13541491Y-13074008D02*
X13560539Y-13045436D01*
X13560539Y-13045436D02*
X13570063Y-13035912D01*
X13751015Y-13264484D02*
X13636729Y-13264484D01*
X13693872Y-13264484D02*
X13693872Y-13064484D01*
X13693872Y-13064484D02*
X13674824Y-13093055D01*
X13674824Y-13093055D02*
X13655777Y-13112103D01*
X13655777Y-13112103D02*
X13636729Y-13121627D01*
X13817682Y-13064484D02*
X13941491Y-13064484D01*
X13941491Y-13064484D02*
X13874824Y-13140674D01*
X13874824Y-13140674D02*
X13903396Y-13140674D01*
X13903396Y-13140674D02*
X13922444Y-13150198D01*
X13922444Y-13150198D02*
X13931967Y-13159722D01*
X13931967Y-13159722D02*
X13941491Y-13178769D01*
X13941491Y-13178769D02*
X13941491Y-13226388D01*
X13941491Y-13226388D02*
X13931967Y-13245436D01*
X13931967Y-13245436D02*
X13922444Y-13254960D01*
X13922444Y-13254960D02*
X13903396Y-13264484D01*
X13903396Y-13264484D02*
X13846253Y-13264484D01*
X13846253Y-13264484D02*
X13827205Y-13254960D01*
X13827205Y-13254960D02*
X13817682Y-13245436D01*
X14179586Y-13264484D02*
X14179586Y-13064484D01*
X14265301Y-13264484D02*
X14265301Y-13159722D01*
X14265301Y-13159722D02*
X14255777Y-13140674D01*
X14255777Y-13140674D02*
X14236729Y-13131150D01*
X14236729Y-13131150D02*
X14208158Y-13131150D01*
X14208158Y-13131150D02*
X14189110Y-13140674D01*
X14189110Y-13140674D02*
X14179586Y-13150198D01*
X14389110Y-13264484D02*
X14370063Y-13254960D01*
X14370063Y-13254960D02*
X14360539Y-13245436D01*
X14360539Y-13245436D02*
X14351015Y-13226388D01*
X14351015Y-13226388D02*
X14351015Y-13169246D01*
X14351015Y-13169246D02*
X14360539Y-13150198D01*
X14360539Y-13150198D02*
X14370063Y-13140674D01*
X14370063Y-13140674D02*
X14389110Y-13131150D01*
X14389110Y-13131150D02*
X14417682Y-13131150D01*
X14417682Y-13131150D02*
X14436729Y-13140674D01*
X14436729Y-13140674D02*
X14446253Y-13150198D01*
X14446253Y-13150198D02*
X14455777Y-13169246D01*
X14455777Y-13169246D02*
X14455777Y-13226388D01*
X14455777Y-13226388D02*
X14446253Y-13245436D01*
X14446253Y-13245436D02*
X14436729Y-13254960D01*
X14436729Y-13254960D02*
X14417682Y-13264484D01*
X14417682Y-13264484D02*
X14389110Y-13264484D01*
X14570063Y-13264484D02*
X14551015Y-13254960D01*
X14551015Y-13254960D02*
X14541491Y-13235912D01*
X14541491Y-13235912D02*
X14541491Y-13064484D01*
X14722444Y-13254960D02*
X14703396Y-13264484D01*
X14703396Y-13264484D02*
X14665301Y-13264484D01*
X14665301Y-13264484D02*
X14646253Y-13254960D01*
X14646253Y-13254960D02*
X14636729Y-13235912D01*
X14636729Y-13235912D02*
X14636729Y-13159722D01*
X14636729Y-13159722D02*
X14646253Y-13140674D01*
X14646253Y-13140674D02*
X14665301Y-13131150D01*
X14665301Y-13131150D02*
X14703396Y-13131150D01*
X14703396Y-13131150D02*
X14722444Y-13140674D01*
X14722444Y-13140674D02*
X14731967Y-13159722D01*
X14731967Y-13159722D02*
X14731967Y-13178769D01*
X14731967Y-13178769D02*
X14636729Y-13197817D01*
X14808158Y-13254960D02*
X14827206Y-13264484D01*
X14827206Y-13264484D02*
X14865301Y-13264484D01*
X14865301Y-13264484D02*
X14884348Y-13254960D01*
X14884348Y-13254960D02*
X14893872Y-13235912D01*
X14893872Y-13235912D02*
X14893872Y-13226388D01*
X14893872Y-13226388D02*
X14884348Y-13207341D01*
X14884348Y-13207341D02*
X14865301Y-13197817D01*
X14865301Y-13197817D02*
X14836729Y-13197817D01*
X14836729Y-13197817D02*
X14817682Y-13188293D01*
X14817682Y-13188293D02*
X14808158Y-13169246D01*
X14808158Y-13169246D02*
X14808158Y-13159722D01*
X14808158Y-13159722D02*
X14817682Y-13140674D01*
X14817682Y-13140674D02*
X14836729Y-13131150D01*
X14836729Y-13131150D02*
X14865301Y-13131150D01*
X14865301Y-13131150D02*
X14884348Y-13140674D01*
X14960539Y-13340674D02*
X14970063Y-13331150D01*
X14970063Y-13331150D02*
X14989110Y-13302579D01*
X14989110Y-13302579D02*
X14998634Y-13283531D01*
X14998634Y-13283531D02*
X15008158Y-13254960D01*
X15008158Y-13254960D02*
X15017682Y-13207341D01*
X15017682Y-13207341D02*
X15017682Y-13169246D01*
X15017682Y-13169246D02*
X15008158Y-13121627D01*
X15008158Y-13121627D02*
X14998634Y-13093055D01*
X14998634Y-13093055D02*
X14989110Y-13074008D01*
X14989110Y-13074008D02*
X14970063Y-13045436D01*
X14970063Y-13045436D02*
X14960539Y-13035912D01*
D12*
X9975962Y-13482962D02*
X9975962Y-13391038D01*
X9884037Y-13391038D01*
X9884037Y-13482962D01*
X9975962Y-13482962D01*
D11*
X10360539Y-13528484D02*
X10246253Y-13528484D01*
X10303396Y-13528484D02*
X10303396Y-13328484D01*
X10303396Y-13328484D02*
X10284348Y-13357055D01*
X10284348Y-13357055D02*
X10265300Y-13376103D01*
X10265300Y-13376103D02*
X10246253Y-13385627D01*
X10446253Y-13509436D02*
X10455777Y-13518960D01*
X10455777Y-13518960D02*
X10446253Y-13528484D01*
X10446253Y-13528484D02*
X10436729Y-13518960D01*
X10436729Y-13518960D02*
X10446253Y-13509436D01*
X10446253Y-13509436D02*
X10446253Y-13528484D01*
X10522443Y-13328484D02*
X10646253Y-13328484D01*
X10646253Y-13328484D02*
X10579586Y-13404674D01*
X10579586Y-13404674D02*
X10608158Y-13404674D01*
X10608158Y-13404674D02*
X10627205Y-13414198D01*
X10627205Y-13414198D02*
X10636729Y-13423722D01*
X10636729Y-13423722D02*
X10646253Y-13442769D01*
X10646253Y-13442769D02*
X10646253Y-13490388D01*
X10646253Y-13490388D02*
X10636729Y-13509436D01*
X10636729Y-13509436D02*
X10627205Y-13518960D01*
X10627205Y-13518960D02*
X10608158Y-13528484D01*
X10608158Y-13528484D02*
X10551015Y-13528484D01*
X10551015Y-13528484D02*
X10531967Y-13518960D01*
X10531967Y-13518960D02*
X10522443Y-13509436D01*
X10770062Y-13328484D02*
X10789110Y-13328484D01*
X10789110Y-13328484D02*
X10808158Y-13338008D01*
X10808158Y-13338008D02*
X10817681Y-13347531D01*
X10817681Y-13347531D02*
X10827205Y-13366579D01*
X10827205Y-13366579D02*
X10836729Y-13404674D01*
X10836729Y-13404674D02*
X10836729Y-13452293D01*
X10836729Y-13452293D02*
X10827205Y-13490388D01*
X10827205Y-13490388D02*
X10817681Y-13509436D01*
X10817681Y-13509436D02*
X10808158Y-13518960D01*
X10808158Y-13518960D02*
X10789110Y-13528484D01*
X10789110Y-13528484D02*
X10770062Y-13528484D01*
X10770062Y-13528484D02*
X10751015Y-13518960D01*
X10751015Y-13518960D02*
X10741491Y-13509436D01*
X10741491Y-13509436D02*
X10731967Y-13490388D01*
X10731967Y-13490388D02*
X10722443Y-13452293D01*
X10722443Y-13452293D02*
X10722443Y-13404674D01*
X10722443Y-13404674D02*
X10731967Y-13366579D01*
X10731967Y-13366579D02*
X10741491Y-13347531D01*
X10741491Y-13347531D02*
X10751015Y-13338008D01*
X10751015Y-13338008D02*
X10770062Y-13328484D01*
X10960539Y-13328484D02*
X10979586Y-13328484D01*
X10979586Y-13328484D02*
X10998634Y-13338008D01*
X10998634Y-13338008D02*
X11008158Y-13347531D01*
X11008158Y-13347531D02*
X11017681Y-13366579D01*
X11017681Y-13366579D02*
X11027205Y-13404674D01*
X11027205Y-13404674D02*
X11027205Y-13452293D01*
X11027205Y-13452293D02*
X11017681Y-13490388D01*
X11017681Y-13490388D02*
X11008158Y-13509436D01*
X11008158Y-13509436D02*
X10998634Y-13518960D01*
X10998634Y-13518960D02*
X10979586Y-13528484D01*
X10979586Y-13528484D02*
X10960539Y-13528484D01*
X10960539Y-13528484D02*
X10941491Y-13518960D01*
X10941491Y-13518960D02*
X10931967Y-13509436D01*
X10931967Y-13509436D02*
X10922443Y-13490388D01*
X10922443Y-13490388D02*
X10912920Y-13452293D01*
X10912920Y-13452293D02*
X10912920Y-13404674D01*
X10912920Y-13404674D02*
X10922443Y-13366579D01*
X10922443Y-13366579D02*
X10931967Y-13347531D01*
X10931967Y-13347531D02*
X10941491Y-13338008D01*
X10941491Y-13338008D02*
X10960539Y-13328484D01*
X11112920Y-13528484D02*
X11112920Y-13395150D01*
X11112920Y-13414198D02*
X11122443Y-13404674D01*
X11122443Y-13404674D02*
X11141491Y-13395150D01*
X11141491Y-13395150D02*
X11170062Y-13395150D01*
X11170062Y-13395150D02*
X11189110Y-13404674D01*
X11189110Y-13404674D02*
X11198634Y-13423722D01*
X11198634Y-13423722D02*
X11198634Y-13528484D01*
X11198634Y-13423722D02*
X11208158Y-13404674D01*
X11208158Y-13404674D02*
X11227205Y-13395150D01*
X11227205Y-13395150D02*
X11255777Y-13395150D01*
X11255777Y-13395150D02*
X11274824Y-13404674D01*
X11274824Y-13404674D02*
X11284348Y-13423722D01*
X11284348Y-13423722D02*
X11284348Y-13528484D01*
X11379586Y-13528484D02*
X11379586Y-13395150D01*
X11379586Y-13414198D02*
X11389110Y-13404674D01*
X11389110Y-13404674D02*
X11408158Y-13395150D01*
X11408158Y-13395150D02*
X11436729Y-13395150D01*
X11436729Y-13395150D02*
X11455777Y-13404674D01*
X11455777Y-13404674D02*
X11465300Y-13423722D01*
X11465300Y-13423722D02*
X11465300Y-13528484D01*
X11465300Y-13423722D02*
X11474824Y-13404674D01*
X11474824Y-13404674D02*
X11493872Y-13395150D01*
X11493872Y-13395150D02*
X11522443Y-13395150D01*
X11522443Y-13395150D02*
X11541491Y-13404674D01*
X11541491Y-13404674D02*
X11551015Y-13423722D01*
X11551015Y-13423722D02*
X11551015Y-13528484D01*
X11941491Y-13318960D02*
X11770062Y-13576103D01*
X12198634Y-13328484D02*
X12217682Y-13328484D01*
X12217682Y-13328484D02*
X12236729Y-13338008D01*
X12236729Y-13338008D02*
X12246253Y-13347531D01*
X12246253Y-13347531D02*
X12255777Y-13366579D01*
X12255777Y-13366579D02*
X12265301Y-13404674D01*
X12265301Y-13404674D02*
X12265301Y-13452293D01*
X12265301Y-13452293D02*
X12255777Y-13490388D01*
X12255777Y-13490388D02*
X12246253Y-13509436D01*
X12246253Y-13509436D02*
X12236729Y-13518960D01*
X12236729Y-13518960D02*
X12217682Y-13528484D01*
X12217682Y-13528484D02*
X12198634Y-13528484D01*
X12198634Y-13528484D02*
X12179586Y-13518960D01*
X12179586Y-13518960D02*
X12170062Y-13509436D01*
X12170062Y-13509436D02*
X12160539Y-13490388D01*
X12160539Y-13490388D02*
X12151015Y-13452293D01*
X12151015Y-13452293D02*
X12151015Y-13404674D01*
X12151015Y-13404674D02*
X12160539Y-13366579D01*
X12160539Y-13366579D02*
X12170062Y-13347531D01*
X12170062Y-13347531D02*
X12179586Y-13338008D01*
X12179586Y-13338008D02*
X12198634Y-13328484D01*
X12351015Y-13509436D02*
X12360539Y-13518960D01*
X12360539Y-13518960D02*
X12351015Y-13528484D01*
X12351015Y-13528484D02*
X12341491Y-13518960D01*
X12341491Y-13518960D02*
X12351015Y-13509436D01*
X12351015Y-13509436D02*
X12351015Y-13528484D01*
X12484348Y-13328484D02*
X12503396Y-13328484D01*
X12503396Y-13328484D02*
X12522443Y-13338008D01*
X12522443Y-13338008D02*
X12531967Y-13347531D01*
X12531967Y-13347531D02*
X12541491Y-13366579D01*
X12541491Y-13366579D02*
X12551015Y-13404674D01*
X12551015Y-13404674D02*
X12551015Y-13452293D01*
X12551015Y-13452293D02*
X12541491Y-13490388D01*
X12541491Y-13490388D02*
X12531967Y-13509436D01*
X12531967Y-13509436D02*
X12522443Y-13518960D01*
X12522443Y-13518960D02*
X12503396Y-13528484D01*
X12503396Y-13528484D02*
X12484348Y-13528484D01*
X12484348Y-13528484D02*
X12465301Y-13518960D01*
X12465301Y-13518960D02*
X12455777Y-13509436D01*
X12455777Y-13509436D02*
X12446253Y-13490388D01*
X12446253Y-13490388D02*
X12436729Y-13452293D01*
X12436729Y-13452293D02*
X12436729Y-13404674D01*
X12436729Y-13404674D02*
X12446253Y-13366579D01*
X12446253Y-13366579D02*
X12455777Y-13347531D01*
X12455777Y-13347531D02*
X12465301Y-13338008D01*
X12465301Y-13338008D02*
X12484348Y-13328484D01*
X12731967Y-13328484D02*
X12636729Y-13328484D01*
X12636729Y-13328484D02*
X12627205Y-13423722D01*
X12627205Y-13423722D02*
X12636729Y-13414198D01*
X12636729Y-13414198D02*
X12655777Y-13404674D01*
X12655777Y-13404674D02*
X12703396Y-13404674D01*
X12703396Y-13404674D02*
X12722443Y-13414198D01*
X12722443Y-13414198D02*
X12731967Y-13423722D01*
X12731967Y-13423722D02*
X12741491Y-13442769D01*
X12741491Y-13442769D02*
X12741491Y-13490388D01*
X12741491Y-13490388D02*
X12731967Y-13509436D01*
X12731967Y-13509436D02*
X12722443Y-13518960D01*
X12722443Y-13518960D02*
X12703396Y-13528484D01*
X12703396Y-13528484D02*
X12655777Y-13528484D01*
X12655777Y-13528484D02*
X12636729Y-13518960D01*
X12636729Y-13518960D02*
X12627205Y-13509436D01*
X12931967Y-13528484D02*
X12817682Y-13528484D01*
X12874824Y-13528484D02*
X12874824Y-13328484D01*
X12874824Y-13328484D02*
X12855777Y-13357055D01*
X12855777Y-13357055D02*
X12836729Y-13376103D01*
X12836729Y-13376103D02*
X12817682Y-13385627D01*
X13008158Y-13347531D02*
X13017682Y-13338008D01*
X13017682Y-13338008D02*
X13036729Y-13328484D01*
X13036729Y-13328484D02*
X13084348Y-13328484D01*
X13084348Y-13328484D02*
X13103396Y-13338008D01*
X13103396Y-13338008D02*
X13112920Y-13347531D01*
X13112920Y-13347531D02*
X13122443Y-13366579D01*
X13122443Y-13366579D02*
X13122443Y-13385627D01*
X13122443Y-13385627D02*
X13112920Y-13414198D01*
X13112920Y-13414198D02*
X12998634Y-13528484D01*
X12998634Y-13528484D02*
X13122443Y-13528484D01*
X13198634Y-13328484D02*
X13198634Y-13366579D01*
X13274824Y-13328484D02*
X13274824Y-13366579D01*
X13570063Y-13604674D02*
X13560539Y-13595150D01*
X13560539Y-13595150D02*
X13541491Y-13566579D01*
X13541491Y-13566579D02*
X13531967Y-13547531D01*
X13531967Y-13547531D02*
X13522444Y-13518960D01*
X13522444Y-13518960D02*
X13512920Y-13471341D01*
X13512920Y-13471341D02*
X13512920Y-13433246D01*
X13512920Y-13433246D02*
X13522444Y-13385627D01*
X13522444Y-13385627D02*
X13531967Y-13357055D01*
X13531967Y-13357055D02*
X13541491Y-13338008D01*
X13541491Y-13338008D02*
X13560539Y-13309436D01*
X13560539Y-13309436D02*
X13570063Y-13299912D01*
X13636729Y-13347531D02*
X13646253Y-13338008D01*
X13646253Y-13338008D02*
X13665301Y-13328484D01*
X13665301Y-13328484D02*
X13712920Y-13328484D01*
X13712920Y-13328484D02*
X13731967Y-13338008D01*
X13731967Y-13338008D02*
X13741491Y-13347531D01*
X13741491Y-13347531D02*
X13751015Y-13366579D01*
X13751015Y-13366579D02*
X13751015Y-13385627D01*
X13751015Y-13385627D02*
X13741491Y-13414198D01*
X13741491Y-13414198D02*
X13627205Y-13528484D01*
X13627205Y-13528484D02*
X13751015Y-13528484D01*
X13989110Y-13528484D02*
X13989110Y-13328484D01*
X14074825Y-13528484D02*
X14074825Y-13423722D01*
X14074825Y-13423722D02*
X14065301Y-13404674D01*
X14065301Y-13404674D02*
X14046253Y-13395150D01*
X14046253Y-13395150D02*
X14017682Y-13395150D01*
X14017682Y-13395150D02*
X13998634Y-13404674D01*
X13998634Y-13404674D02*
X13989110Y-13414198D01*
X14198634Y-13528484D02*
X14179586Y-13518960D01*
X14179586Y-13518960D02*
X14170063Y-13509436D01*
X14170063Y-13509436D02*
X14160539Y-13490388D01*
X14160539Y-13490388D02*
X14160539Y-13433246D01*
X14160539Y-13433246D02*
X14170063Y-13414198D01*
X14170063Y-13414198D02*
X14179586Y-13404674D01*
X14179586Y-13404674D02*
X14198634Y-13395150D01*
X14198634Y-13395150D02*
X14227206Y-13395150D01*
X14227206Y-13395150D02*
X14246253Y-13404674D01*
X14246253Y-13404674D02*
X14255777Y-13414198D01*
X14255777Y-13414198D02*
X14265301Y-13433246D01*
X14265301Y-13433246D02*
X14265301Y-13490388D01*
X14265301Y-13490388D02*
X14255777Y-13509436D01*
X14255777Y-13509436D02*
X14246253Y-13518960D01*
X14246253Y-13518960D02*
X14227206Y-13528484D01*
X14227206Y-13528484D02*
X14198634Y-13528484D01*
X14379586Y-13528484D02*
X14360539Y-13518960D01*
X14360539Y-13518960D02*
X14351015Y-13499912D01*
X14351015Y-13499912D02*
X14351015Y-13328484D01*
X14531967Y-13518960D02*
X14512920Y-13528484D01*
X14512920Y-13528484D02*
X14474825Y-13528484D01*
X14474825Y-13528484D02*
X14455777Y-13518960D01*
X14455777Y-13518960D02*
X14446253Y-13499912D01*
X14446253Y-13499912D02*
X14446253Y-13423722D01*
X14446253Y-13423722D02*
X14455777Y-13404674D01*
X14455777Y-13404674D02*
X14474825Y-13395150D01*
X14474825Y-13395150D02*
X14512920Y-13395150D01*
X14512920Y-13395150D02*
X14531967Y-13404674D01*
X14531967Y-13404674D02*
X14541491Y-13423722D01*
X14541491Y-13423722D02*
X14541491Y-13442769D01*
X14541491Y-13442769D02*
X14446253Y-13461817D01*
X14617682Y-13518960D02*
X14636729Y-13528484D01*
X14636729Y-13528484D02*
X14674825Y-13528484D01*
X14674825Y-13528484D02*
X14693872Y-13518960D01*
X14693872Y-13518960D02*
X14703396Y-13499912D01*
X14703396Y-13499912D02*
X14703396Y-13490388D01*
X14703396Y-13490388D02*
X14693872Y-13471341D01*
X14693872Y-13471341D02*
X14674825Y-13461817D01*
X14674825Y-13461817D02*
X14646253Y-13461817D01*
X14646253Y-13461817D02*
X14627206Y-13452293D01*
X14627206Y-13452293D02*
X14617682Y-13433246D01*
X14617682Y-13433246D02*
X14617682Y-13423722D01*
X14617682Y-13423722D02*
X14627206Y-13404674D01*
X14627206Y-13404674D02*
X14646253Y-13395150D01*
X14646253Y-13395150D02*
X14674825Y-13395150D01*
X14674825Y-13395150D02*
X14693872Y-13404674D01*
X14770063Y-13604674D02*
X14779587Y-13595150D01*
X14779587Y-13595150D02*
X14798634Y-13566579D01*
X14798634Y-13566579D02*
X14808158Y-13547531D01*
X14808158Y-13547531D02*
X14817682Y-13518960D01*
X14817682Y-13518960D02*
X14827206Y-13471341D01*
X14827206Y-13471341D02*
X14827206Y-13433246D01*
X14827206Y-13433246D02*
X14817682Y-13385627D01*
X14817682Y-13385627D02*
X14808158Y-13357055D01*
X14808158Y-13357055D02*
X14798634Y-13338008D01*
X14798634Y-13338008D02*
X14779587Y-13309436D01*
X14779587Y-13309436D02*
X14770063Y-13299912D01*
X9895000Y-13801000D02*
X9995000Y-13701000D01*
X9895000Y-13601000D01*
X9795000Y-13701000D01*
X9895000Y-13801000D01*
X10246253Y-13611531D02*
X10255777Y-13602008D01*
X10255777Y-13602008D02*
X10274824Y-13592484D01*
X10274824Y-13592484D02*
X10322443Y-13592484D01*
X10322443Y-13592484D02*
X10341491Y-13602008D01*
X10341491Y-13602008D02*
X10351015Y-13611531D01*
X10351015Y-13611531D02*
X10360539Y-13630579D01*
X10360539Y-13630579D02*
X10360539Y-13649627D01*
X10360539Y-13649627D02*
X10351015Y-13678198D01*
X10351015Y-13678198D02*
X10236729Y-13792484D01*
X10236729Y-13792484D02*
X10360539Y-13792484D01*
X10446253Y-13773436D02*
X10455777Y-13782960D01*
X10455777Y-13782960D02*
X10446253Y-13792484D01*
X10446253Y-13792484D02*
X10436729Y-13782960D01*
X10436729Y-13782960D02*
X10446253Y-13773436D01*
X10446253Y-13773436D02*
X10446253Y-13792484D01*
X10531967Y-13611531D02*
X10541491Y-13602008D01*
X10541491Y-13602008D02*
X10560539Y-13592484D01*
X10560539Y-13592484D02*
X10608158Y-13592484D01*
X10608158Y-13592484D02*
X10627205Y-13602008D01*
X10627205Y-13602008D02*
X10636729Y-13611531D01*
X10636729Y-13611531D02*
X10646253Y-13630579D01*
X10646253Y-13630579D02*
X10646253Y-13649627D01*
X10646253Y-13649627D02*
X10636729Y-13678198D01*
X10636729Y-13678198D02*
X10522443Y-13792484D01*
X10522443Y-13792484D02*
X10646253Y-13792484D01*
X10770062Y-13592484D02*
X10789110Y-13592484D01*
X10789110Y-13592484D02*
X10808158Y-13602008D01*
X10808158Y-13602008D02*
X10817681Y-13611531D01*
X10817681Y-13611531D02*
X10827205Y-13630579D01*
X10827205Y-13630579D02*
X10836729Y-13668674D01*
X10836729Y-13668674D02*
X10836729Y-13716293D01*
X10836729Y-13716293D02*
X10827205Y-13754388D01*
X10827205Y-13754388D02*
X10817681Y-13773436D01*
X10817681Y-13773436D02*
X10808158Y-13782960D01*
X10808158Y-13782960D02*
X10789110Y-13792484D01*
X10789110Y-13792484D02*
X10770062Y-13792484D01*
X10770062Y-13792484D02*
X10751015Y-13782960D01*
X10751015Y-13782960D02*
X10741491Y-13773436D01*
X10741491Y-13773436D02*
X10731967Y-13754388D01*
X10731967Y-13754388D02*
X10722443Y-13716293D01*
X10722443Y-13716293D02*
X10722443Y-13668674D01*
X10722443Y-13668674D02*
X10731967Y-13630579D01*
X10731967Y-13630579D02*
X10741491Y-13611531D01*
X10741491Y-13611531D02*
X10751015Y-13602008D01*
X10751015Y-13602008D02*
X10770062Y-13592484D01*
X10960539Y-13592484D02*
X10979586Y-13592484D01*
X10979586Y-13592484D02*
X10998634Y-13602008D01*
X10998634Y-13602008D02*
X11008158Y-13611531D01*
X11008158Y-13611531D02*
X11017681Y-13630579D01*
X11017681Y-13630579D02*
X11027205Y-13668674D01*
X11027205Y-13668674D02*
X11027205Y-13716293D01*
X11027205Y-13716293D02*
X11017681Y-13754388D01*
X11017681Y-13754388D02*
X11008158Y-13773436D01*
X11008158Y-13773436D02*
X10998634Y-13782960D01*
X10998634Y-13782960D02*
X10979586Y-13792484D01*
X10979586Y-13792484D02*
X10960539Y-13792484D01*
X10960539Y-13792484D02*
X10941491Y-13782960D01*
X10941491Y-13782960D02*
X10931967Y-13773436D01*
X10931967Y-13773436D02*
X10922443Y-13754388D01*
X10922443Y-13754388D02*
X10912920Y-13716293D01*
X10912920Y-13716293D02*
X10912920Y-13668674D01*
X10912920Y-13668674D02*
X10922443Y-13630579D01*
X10922443Y-13630579D02*
X10931967Y-13611531D01*
X10931967Y-13611531D02*
X10941491Y-13602008D01*
X10941491Y-13602008D02*
X10960539Y-13592484D01*
X11112920Y-13792484D02*
X11112920Y-13659150D01*
X11112920Y-13678198D02*
X11122443Y-13668674D01*
X11122443Y-13668674D02*
X11141491Y-13659150D01*
X11141491Y-13659150D02*
X11170062Y-13659150D01*
X11170062Y-13659150D02*
X11189110Y-13668674D01*
X11189110Y-13668674D02*
X11198634Y-13687722D01*
X11198634Y-13687722D02*
X11198634Y-13792484D01*
X11198634Y-13687722D02*
X11208158Y-13668674D01*
X11208158Y-13668674D02*
X11227205Y-13659150D01*
X11227205Y-13659150D02*
X11255777Y-13659150D01*
X11255777Y-13659150D02*
X11274824Y-13668674D01*
X11274824Y-13668674D02*
X11284348Y-13687722D01*
X11284348Y-13687722D02*
X11284348Y-13792484D01*
X11379586Y-13792484D02*
X11379586Y-13659150D01*
X11379586Y-13678198D02*
X11389110Y-13668674D01*
X11389110Y-13668674D02*
X11408158Y-13659150D01*
X11408158Y-13659150D02*
X11436729Y-13659150D01*
X11436729Y-13659150D02*
X11455777Y-13668674D01*
X11455777Y-13668674D02*
X11465300Y-13687722D01*
X11465300Y-13687722D02*
X11465300Y-13792484D01*
X11465300Y-13687722D02*
X11474824Y-13668674D01*
X11474824Y-13668674D02*
X11493872Y-13659150D01*
X11493872Y-13659150D02*
X11522443Y-13659150D01*
X11522443Y-13659150D02*
X11541491Y-13668674D01*
X11541491Y-13668674D02*
X11551015Y-13687722D01*
X11551015Y-13687722D02*
X11551015Y-13792484D01*
X11941491Y-13582960D02*
X11770062Y-13840103D01*
X12198634Y-13592484D02*
X12217682Y-13592484D01*
X12217682Y-13592484D02*
X12236729Y-13602008D01*
X12236729Y-13602008D02*
X12246253Y-13611531D01*
X12246253Y-13611531D02*
X12255777Y-13630579D01*
X12255777Y-13630579D02*
X12265301Y-13668674D01*
X12265301Y-13668674D02*
X12265301Y-13716293D01*
X12265301Y-13716293D02*
X12255777Y-13754388D01*
X12255777Y-13754388D02*
X12246253Y-13773436D01*
X12246253Y-13773436D02*
X12236729Y-13782960D01*
X12236729Y-13782960D02*
X12217682Y-13792484D01*
X12217682Y-13792484D02*
X12198634Y-13792484D01*
X12198634Y-13792484D02*
X12179586Y-13782960D01*
X12179586Y-13782960D02*
X12170062Y-13773436D01*
X12170062Y-13773436D02*
X12160539Y-13754388D01*
X12160539Y-13754388D02*
X12151015Y-13716293D01*
X12151015Y-13716293D02*
X12151015Y-13668674D01*
X12151015Y-13668674D02*
X12160539Y-13630579D01*
X12160539Y-13630579D02*
X12170062Y-13611531D01*
X12170062Y-13611531D02*
X12179586Y-13602008D01*
X12179586Y-13602008D02*
X12198634Y-13592484D01*
X12351015Y-13773436D02*
X12360539Y-13782960D01*
X12360539Y-13782960D02*
X12351015Y-13792484D01*
X12351015Y-13792484D02*
X12341491Y-13782960D01*
X12341491Y-13782960D02*
X12351015Y-13773436D01*
X12351015Y-13773436D02*
X12351015Y-13792484D01*
X12484348Y-13592484D02*
X12503396Y-13592484D01*
X12503396Y-13592484D02*
X12522443Y-13602008D01*
X12522443Y-13602008D02*
X12531967Y-13611531D01*
X12531967Y-13611531D02*
X12541491Y-13630579D01*
X12541491Y-13630579D02*
X12551015Y-13668674D01*
X12551015Y-13668674D02*
X12551015Y-13716293D01*
X12551015Y-13716293D02*
X12541491Y-13754388D01*
X12541491Y-13754388D02*
X12531967Y-13773436D01*
X12531967Y-13773436D02*
X12522443Y-13782960D01*
X12522443Y-13782960D02*
X12503396Y-13792484D01*
X12503396Y-13792484D02*
X12484348Y-13792484D01*
X12484348Y-13792484D02*
X12465301Y-13782960D01*
X12465301Y-13782960D02*
X12455777Y-13773436D01*
X12455777Y-13773436D02*
X12446253Y-13754388D01*
X12446253Y-13754388D02*
X12436729Y-13716293D01*
X12436729Y-13716293D02*
X12436729Y-13668674D01*
X12436729Y-13668674D02*
X12446253Y-13630579D01*
X12446253Y-13630579D02*
X12455777Y-13611531D01*
X12455777Y-13611531D02*
X12465301Y-13602008D01*
X12465301Y-13602008D02*
X12484348Y-13592484D01*
X12665301Y-13678198D02*
X12646253Y-13668674D01*
X12646253Y-13668674D02*
X12636729Y-13659150D01*
X12636729Y-13659150D02*
X12627205Y-13640103D01*
X12627205Y-13640103D02*
X12627205Y-13630579D01*
X12627205Y-13630579D02*
X12636729Y-13611531D01*
X12636729Y-13611531D02*
X12646253Y-13602008D01*
X12646253Y-13602008D02*
X12665301Y-13592484D01*
X12665301Y-13592484D02*
X12703396Y-13592484D01*
X12703396Y-13592484D02*
X12722443Y-13602008D01*
X12722443Y-13602008D02*
X12731967Y-13611531D01*
X12731967Y-13611531D02*
X12741491Y-13630579D01*
X12741491Y-13630579D02*
X12741491Y-13640103D01*
X12741491Y-13640103D02*
X12731967Y-13659150D01*
X12731967Y-13659150D02*
X12722443Y-13668674D01*
X12722443Y-13668674D02*
X12703396Y-13678198D01*
X12703396Y-13678198D02*
X12665301Y-13678198D01*
X12665301Y-13678198D02*
X12646253Y-13687722D01*
X12646253Y-13687722D02*
X12636729Y-13697246D01*
X12636729Y-13697246D02*
X12627205Y-13716293D01*
X12627205Y-13716293D02*
X12627205Y-13754388D01*
X12627205Y-13754388D02*
X12636729Y-13773436D01*
X12636729Y-13773436D02*
X12646253Y-13782960D01*
X12646253Y-13782960D02*
X12665301Y-13792484D01*
X12665301Y-13792484D02*
X12703396Y-13792484D01*
X12703396Y-13792484D02*
X12722443Y-13782960D01*
X12722443Y-13782960D02*
X12731967Y-13773436D01*
X12731967Y-13773436D02*
X12741491Y-13754388D01*
X12741491Y-13754388D02*
X12741491Y-13716293D01*
X12741491Y-13716293D02*
X12731967Y-13697246D01*
X12731967Y-13697246D02*
X12722443Y-13687722D01*
X12722443Y-13687722D02*
X12703396Y-13678198D01*
X12912920Y-13592484D02*
X12874824Y-13592484D01*
X12874824Y-13592484D02*
X12855777Y-13602008D01*
X12855777Y-13602008D02*
X12846253Y-13611531D01*
X12846253Y-13611531D02*
X12827205Y-13640103D01*
X12827205Y-13640103D02*
X12817682Y-13678198D01*
X12817682Y-13678198D02*
X12817682Y-13754388D01*
X12817682Y-13754388D02*
X12827205Y-13773436D01*
X12827205Y-13773436D02*
X12836729Y-13782960D01*
X12836729Y-13782960D02*
X12855777Y-13792484D01*
X12855777Y-13792484D02*
X12893872Y-13792484D01*
X12893872Y-13792484D02*
X12912920Y-13782960D01*
X12912920Y-13782960D02*
X12922443Y-13773436D01*
X12922443Y-13773436D02*
X12931967Y-13754388D01*
X12931967Y-13754388D02*
X12931967Y-13706769D01*
X12931967Y-13706769D02*
X12922443Y-13687722D01*
X12922443Y-13687722D02*
X12912920Y-13678198D01*
X12912920Y-13678198D02*
X12893872Y-13668674D01*
X12893872Y-13668674D02*
X12855777Y-13668674D01*
X12855777Y-13668674D02*
X12836729Y-13678198D01*
X12836729Y-13678198D02*
X12827205Y-13687722D01*
X12827205Y-13687722D02*
X12817682Y-13706769D01*
X13103396Y-13592484D02*
X13065301Y-13592484D01*
X13065301Y-13592484D02*
X13046253Y-13602008D01*
X13046253Y-13602008D02*
X13036729Y-13611531D01*
X13036729Y-13611531D02*
X13017682Y-13640103D01*
X13017682Y-13640103D02*
X13008158Y-13678198D01*
X13008158Y-13678198D02*
X13008158Y-13754388D01*
X13008158Y-13754388D02*
X13017682Y-13773436D01*
X13017682Y-13773436D02*
X13027205Y-13782960D01*
X13027205Y-13782960D02*
X13046253Y-13792484D01*
X13046253Y-13792484D02*
X13084348Y-13792484D01*
X13084348Y-13792484D02*
X13103396Y-13782960D01*
X13103396Y-13782960D02*
X13112920Y-13773436D01*
X13112920Y-13773436D02*
X13122443Y-13754388D01*
X13122443Y-13754388D02*
X13122443Y-13706769D01*
X13122443Y-13706769D02*
X13112920Y-13687722D01*
X13112920Y-13687722D02*
X13103396Y-13678198D01*
X13103396Y-13678198D02*
X13084348Y-13668674D01*
X13084348Y-13668674D02*
X13046253Y-13668674D01*
X13046253Y-13668674D02*
X13027205Y-13678198D01*
X13027205Y-13678198D02*
X13017682Y-13687722D01*
X13017682Y-13687722D02*
X13008158Y-13706769D01*
X13198634Y-13592484D02*
X13198634Y-13630579D01*
X13274824Y-13592484D02*
X13274824Y-13630579D01*
X13570063Y-13868674D02*
X13560539Y-13859150D01*
X13560539Y-13859150D02*
X13541491Y-13830579D01*
X13541491Y-13830579D02*
X13531967Y-13811531D01*
X13531967Y-13811531D02*
X13522444Y-13782960D01*
X13522444Y-13782960D02*
X13512920Y-13735341D01*
X13512920Y-13735341D02*
X13512920Y-13697246D01*
X13512920Y-13697246D02*
X13522444Y-13649627D01*
X13522444Y-13649627D02*
X13531967Y-13621055D01*
X13531967Y-13621055D02*
X13541491Y-13602008D01*
X13541491Y-13602008D02*
X13560539Y-13573436D01*
X13560539Y-13573436D02*
X13570063Y-13563912D01*
X13731967Y-13592484D02*
X13693872Y-13592484D01*
X13693872Y-13592484D02*
X13674824Y-13602008D01*
X13674824Y-13602008D02*
X13665301Y-13611531D01*
X13665301Y-13611531D02*
X13646253Y-13640103D01*
X13646253Y-13640103D02*
X13636729Y-13678198D01*
X13636729Y-13678198D02*
X13636729Y-13754388D01*
X13636729Y-13754388D02*
X13646253Y-13773436D01*
X13646253Y-13773436D02*
X13655777Y-13782960D01*
X13655777Y-13782960D02*
X13674824Y-13792484D01*
X13674824Y-13792484D02*
X13712920Y-13792484D01*
X13712920Y-13792484D02*
X13731967Y-13782960D01*
X13731967Y-13782960D02*
X13741491Y-13773436D01*
X13741491Y-13773436D02*
X13751015Y-13754388D01*
X13751015Y-13754388D02*
X13751015Y-13706769D01*
X13751015Y-13706769D02*
X13741491Y-13687722D01*
X13741491Y-13687722D02*
X13731967Y-13678198D01*
X13731967Y-13678198D02*
X13712920Y-13668674D01*
X13712920Y-13668674D02*
X13674824Y-13668674D01*
X13674824Y-13668674D02*
X13655777Y-13678198D01*
X13655777Y-13678198D02*
X13646253Y-13687722D01*
X13646253Y-13687722D02*
X13636729Y-13706769D01*
X13989110Y-13792484D02*
X13989110Y-13592484D01*
X14074825Y-13792484D02*
X14074825Y-13687722D01*
X14074825Y-13687722D02*
X14065301Y-13668674D01*
X14065301Y-13668674D02*
X14046253Y-13659150D01*
X14046253Y-13659150D02*
X14017682Y-13659150D01*
X14017682Y-13659150D02*
X13998634Y-13668674D01*
X13998634Y-13668674D02*
X13989110Y-13678198D01*
X14198634Y-13792484D02*
X14179586Y-13782960D01*
X14179586Y-13782960D02*
X14170063Y-13773436D01*
X14170063Y-13773436D02*
X14160539Y-13754388D01*
X14160539Y-13754388D02*
X14160539Y-13697246D01*
X14160539Y-13697246D02*
X14170063Y-13678198D01*
X14170063Y-13678198D02*
X14179586Y-13668674D01*
X14179586Y-13668674D02*
X14198634Y-13659150D01*
X14198634Y-13659150D02*
X14227206Y-13659150D01*
X14227206Y-13659150D02*
X14246253Y-13668674D01*
X14246253Y-13668674D02*
X14255777Y-13678198D01*
X14255777Y-13678198D02*
X14265301Y-13697246D01*
X14265301Y-13697246D02*
X14265301Y-13754388D01*
X14265301Y-13754388D02*
X14255777Y-13773436D01*
X14255777Y-13773436D02*
X14246253Y-13782960D01*
X14246253Y-13782960D02*
X14227206Y-13792484D01*
X14227206Y-13792484D02*
X14198634Y-13792484D01*
X14379586Y-13792484D02*
X14360539Y-13782960D01*
X14360539Y-13782960D02*
X14351015Y-13763912D01*
X14351015Y-13763912D02*
X14351015Y-13592484D01*
X14531967Y-13782960D02*
X14512920Y-13792484D01*
X14512920Y-13792484D02*
X14474825Y-13792484D01*
X14474825Y-13792484D02*
X14455777Y-13782960D01*
X14455777Y-13782960D02*
X14446253Y-13763912D01*
X14446253Y-13763912D02*
X14446253Y-13687722D01*
X14446253Y-13687722D02*
X14455777Y-13668674D01*
X14455777Y-13668674D02*
X14474825Y-13659150D01*
X14474825Y-13659150D02*
X14512920Y-13659150D01*
X14512920Y-13659150D02*
X14531967Y-13668674D01*
X14531967Y-13668674D02*
X14541491Y-13687722D01*
X14541491Y-13687722D02*
X14541491Y-13706769D01*
X14541491Y-13706769D02*
X14446253Y-13725817D01*
X14617682Y-13782960D02*
X14636729Y-13792484D01*
X14636729Y-13792484D02*
X14674825Y-13792484D01*
X14674825Y-13792484D02*
X14693872Y-13782960D01*
X14693872Y-13782960D02*
X14703396Y-13763912D01*
X14703396Y-13763912D02*
X14703396Y-13754388D01*
X14703396Y-13754388D02*
X14693872Y-13735341D01*
X14693872Y-13735341D02*
X14674825Y-13725817D01*
X14674825Y-13725817D02*
X14646253Y-13725817D01*
X14646253Y-13725817D02*
X14627206Y-13716293D01*
X14627206Y-13716293D02*
X14617682Y-13697246D01*
X14617682Y-13697246D02*
X14617682Y-13687722D01*
X14617682Y-13687722D02*
X14627206Y-13668674D01*
X14627206Y-13668674D02*
X14646253Y-13659150D01*
X14646253Y-13659150D02*
X14674825Y-13659150D01*
X14674825Y-13659150D02*
X14693872Y-13668674D01*
X14770063Y-13868674D02*
X14779587Y-13859150D01*
X14779587Y-13859150D02*
X14798634Y-13830579D01*
X14798634Y-13830579D02*
X14808158Y-13811531D01*
X14808158Y-13811531D02*
X14817682Y-13782960D01*
X14817682Y-13782960D02*
X14827206Y-13735341D01*
X14827206Y-13735341D02*
X14827206Y-13697246D01*
X14827206Y-13697246D02*
X14817682Y-13649627D01*
X14817682Y-13649627D02*
X14808158Y-13621055D01*
X14808158Y-13621055D02*
X14798634Y-13602008D01*
X14798634Y-13602008D02*
X14779587Y-13573436D01*
X14779587Y-13573436D02*
X14770063Y-13563912D01*
X9795000Y-13921000D02*
X9995000Y-14121000D01*
X9995000Y-13921000D02*
X9795000Y-14121000D01*
X9995000Y-14021000D02*
G75*
G02*
X9795000Y-14021000I-100000J0D01*
G01*
X9795000Y-14021000D02*
G75*
G02*
X9995000Y-14021000I100000J0D01*
G01*
X10246253Y-13931531D02*
X10255777Y-13922008D01*
X10255777Y-13922008D02*
X10274824Y-13912484D01*
X10274824Y-13912484D02*
X10322443Y-13912484D01*
X10322443Y-13912484D02*
X10341491Y-13922008D01*
X10341491Y-13922008D02*
X10351015Y-13931531D01*
X10351015Y-13931531D02*
X10360539Y-13950579D01*
X10360539Y-13950579D02*
X10360539Y-13969627D01*
X10360539Y-13969627D02*
X10351015Y-13998198D01*
X10351015Y-13998198D02*
X10236729Y-14112484D01*
X10236729Y-14112484D02*
X10360539Y-14112484D01*
X10446253Y-14093436D02*
X10455777Y-14102960D01*
X10455777Y-14102960D02*
X10446253Y-14112484D01*
X10446253Y-14112484D02*
X10436729Y-14102960D01*
X10436729Y-14102960D02*
X10446253Y-14093436D01*
X10446253Y-14093436D02*
X10446253Y-14112484D01*
X10522443Y-13912484D02*
X10646253Y-13912484D01*
X10646253Y-13912484D02*
X10579586Y-13988674D01*
X10579586Y-13988674D02*
X10608158Y-13988674D01*
X10608158Y-13988674D02*
X10627205Y-13998198D01*
X10627205Y-13998198D02*
X10636729Y-14007722D01*
X10636729Y-14007722D02*
X10646253Y-14026769D01*
X10646253Y-14026769D02*
X10646253Y-14074388D01*
X10646253Y-14074388D02*
X10636729Y-14093436D01*
X10636729Y-14093436D02*
X10627205Y-14102960D01*
X10627205Y-14102960D02*
X10608158Y-14112484D01*
X10608158Y-14112484D02*
X10551015Y-14112484D01*
X10551015Y-14112484D02*
X10531967Y-14102960D01*
X10531967Y-14102960D02*
X10522443Y-14093436D01*
X10770062Y-13912484D02*
X10789110Y-13912484D01*
X10789110Y-13912484D02*
X10808158Y-13922008D01*
X10808158Y-13922008D02*
X10817681Y-13931531D01*
X10817681Y-13931531D02*
X10827205Y-13950579D01*
X10827205Y-13950579D02*
X10836729Y-13988674D01*
X10836729Y-13988674D02*
X10836729Y-14036293D01*
X10836729Y-14036293D02*
X10827205Y-14074388D01*
X10827205Y-14074388D02*
X10817681Y-14093436D01*
X10817681Y-14093436D02*
X10808158Y-14102960D01*
X10808158Y-14102960D02*
X10789110Y-14112484D01*
X10789110Y-14112484D02*
X10770062Y-14112484D01*
X10770062Y-14112484D02*
X10751015Y-14102960D01*
X10751015Y-14102960D02*
X10741491Y-14093436D01*
X10741491Y-14093436D02*
X10731967Y-14074388D01*
X10731967Y-14074388D02*
X10722443Y-14036293D01*
X10722443Y-14036293D02*
X10722443Y-13988674D01*
X10722443Y-13988674D02*
X10731967Y-13950579D01*
X10731967Y-13950579D02*
X10741491Y-13931531D01*
X10741491Y-13931531D02*
X10751015Y-13922008D01*
X10751015Y-13922008D02*
X10770062Y-13912484D01*
X10960539Y-13912484D02*
X10979586Y-13912484D01*
X10979586Y-13912484D02*
X10998634Y-13922008D01*
X10998634Y-13922008D02*
X11008158Y-13931531D01*
X11008158Y-13931531D02*
X11017681Y-13950579D01*
X11017681Y-13950579D02*
X11027205Y-13988674D01*
X11027205Y-13988674D02*
X11027205Y-14036293D01*
X11027205Y-14036293D02*
X11017681Y-14074388D01*
X11017681Y-14074388D02*
X11008158Y-14093436D01*
X11008158Y-14093436D02*
X10998634Y-14102960D01*
X10998634Y-14102960D02*
X10979586Y-14112484D01*
X10979586Y-14112484D02*
X10960539Y-14112484D01*
X10960539Y-14112484D02*
X10941491Y-14102960D01*
X10941491Y-14102960D02*
X10931967Y-14093436D01*
X10931967Y-14093436D02*
X10922443Y-14074388D01*
X10922443Y-14074388D02*
X10912920Y-14036293D01*
X10912920Y-14036293D02*
X10912920Y-13988674D01*
X10912920Y-13988674D02*
X10922443Y-13950579D01*
X10922443Y-13950579D02*
X10931967Y-13931531D01*
X10931967Y-13931531D02*
X10941491Y-13922008D01*
X10941491Y-13922008D02*
X10960539Y-13912484D01*
X11112920Y-14112484D02*
X11112920Y-13979150D01*
X11112920Y-13998198D02*
X11122443Y-13988674D01*
X11122443Y-13988674D02*
X11141491Y-13979150D01*
X11141491Y-13979150D02*
X11170062Y-13979150D01*
X11170062Y-13979150D02*
X11189110Y-13988674D01*
X11189110Y-13988674D02*
X11198634Y-14007722D01*
X11198634Y-14007722D02*
X11198634Y-14112484D01*
X11198634Y-14007722D02*
X11208158Y-13988674D01*
X11208158Y-13988674D02*
X11227205Y-13979150D01*
X11227205Y-13979150D02*
X11255777Y-13979150D01*
X11255777Y-13979150D02*
X11274824Y-13988674D01*
X11274824Y-13988674D02*
X11284348Y-14007722D01*
X11284348Y-14007722D02*
X11284348Y-14112484D01*
X11379586Y-14112484D02*
X11379586Y-13979150D01*
X11379586Y-13998198D02*
X11389110Y-13988674D01*
X11389110Y-13988674D02*
X11408158Y-13979150D01*
X11408158Y-13979150D02*
X11436729Y-13979150D01*
X11436729Y-13979150D02*
X11455777Y-13988674D01*
X11455777Y-13988674D02*
X11465300Y-14007722D01*
X11465300Y-14007722D02*
X11465300Y-14112484D01*
X11465300Y-14007722D02*
X11474824Y-13988674D01*
X11474824Y-13988674D02*
X11493872Y-13979150D01*
X11493872Y-13979150D02*
X11522443Y-13979150D01*
X11522443Y-13979150D02*
X11541491Y-13988674D01*
X11541491Y-13988674D02*
X11551015Y-14007722D01*
X11551015Y-14007722D02*
X11551015Y-14112484D01*
X11941491Y-13902960D02*
X11770062Y-14160103D01*
X12198634Y-13912484D02*
X12217682Y-13912484D01*
X12217682Y-13912484D02*
X12236729Y-13922008D01*
X12236729Y-13922008D02*
X12246253Y-13931531D01*
X12246253Y-13931531D02*
X12255777Y-13950579D01*
X12255777Y-13950579D02*
X12265301Y-13988674D01*
X12265301Y-13988674D02*
X12265301Y-14036293D01*
X12265301Y-14036293D02*
X12255777Y-14074388D01*
X12255777Y-14074388D02*
X12246253Y-14093436D01*
X12246253Y-14093436D02*
X12236729Y-14102960D01*
X12236729Y-14102960D02*
X12217682Y-14112484D01*
X12217682Y-14112484D02*
X12198634Y-14112484D01*
X12198634Y-14112484D02*
X12179586Y-14102960D01*
X12179586Y-14102960D02*
X12170062Y-14093436D01*
X12170062Y-14093436D02*
X12160539Y-14074388D01*
X12160539Y-14074388D02*
X12151015Y-14036293D01*
X12151015Y-14036293D02*
X12151015Y-13988674D01*
X12151015Y-13988674D02*
X12160539Y-13950579D01*
X12160539Y-13950579D02*
X12170062Y-13931531D01*
X12170062Y-13931531D02*
X12179586Y-13922008D01*
X12179586Y-13922008D02*
X12198634Y-13912484D01*
X12351015Y-14093436D02*
X12360539Y-14102960D01*
X12360539Y-14102960D02*
X12351015Y-14112484D01*
X12351015Y-14112484D02*
X12341491Y-14102960D01*
X12341491Y-14102960D02*
X12351015Y-14093436D01*
X12351015Y-14093436D02*
X12351015Y-14112484D01*
X12484348Y-13912484D02*
X12503396Y-13912484D01*
X12503396Y-13912484D02*
X12522443Y-13922008D01*
X12522443Y-13922008D02*
X12531967Y-13931531D01*
X12531967Y-13931531D02*
X12541491Y-13950579D01*
X12541491Y-13950579D02*
X12551015Y-13988674D01*
X12551015Y-13988674D02*
X12551015Y-14036293D01*
X12551015Y-14036293D02*
X12541491Y-14074388D01*
X12541491Y-14074388D02*
X12531967Y-14093436D01*
X12531967Y-14093436D02*
X12522443Y-14102960D01*
X12522443Y-14102960D02*
X12503396Y-14112484D01*
X12503396Y-14112484D02*
X12484348Y-14112484D01*
X12484348Y-14112484D02*
X12465301Y-14102960D01*
X12465301Y-14102960D02*
X12455777Y-14093436D01*
X12455777Y-14093436D02*
X12446253Y-14074388D01*
X12446253Y-14074388D02*
X12436729Y-14036293D01*
X12436729Y-14036293D02*
X12436729Y-13988674D01*
X12436729Y-13988674D02*
X12446253Y-13950579D01*
X12446253Y-13950579D02*
X12455777Y-13931531D01*
X12455777Y-13931531D02*
X12465301Y-13922008D01*
X12465301Y-13922008D02*
X12484348Y-13912484D01*
X12646253Y-14112484D02*
X12684348Y-14112484D01*
X12684348Y-14112484D02*
X12703396Y-14102960D01*
X12703396Y-14102960D02*
X12712920Y-14093436D01*
X12712920Y-14093436D02*
X12731967Y-14064865D01*
X12731967Y-14064865D02*
X12741491Y-14026769D01*
X12741491Y-14026769D02*
X12741491Y-13950579D01*
X12741491Y-13950579D02*
X12731967Y-13931531D01*
X12731967Y-13931531D02*
X12722443Y-13922008D01*
X12722443Y-13922008D02*
X12703396Y-13912484D01*
X12703396Y-13912484D02*
X12665301Y-13912484D01*
X12665301Y-13912484D02*
X12646253Y-13922008D01*
X12646253Y-13922008D02*
X12636729Y-13931531D01*
X12636729Y-13931531D02*
X12627205Y-13950579D01*
X12627205Y-13950579D02*
X12627205Y-13998198D01*
X12627205Y-13998198D02*
X12636729Y-14017246D01*
X12636729Y-14017246D02*
X12646253Y-14026769D01*
X12646253Y-14026769D02*
X12665301Y-14036293D01*
X12665301Y-14036293D02*
X12703396Y-14036293D01*
X12703396Y-14036293D02*
X12722443Y-14026769D01*
X12722443Y-14026769D02*
X12731967Y-14017246D01*
X12731967Y-14017246D02*
X12741491Y-13998198D01*
X12865301Y-13912484D02*
X12884348Y-13912484D01*
X12884348Y-13912484D02*
X12903396Y-13922008D01*
X12903396Y-13922008D02*
X12912920Y-13931531D01*
X12912920Y-13931531D02*
X12922443Y-13950579D01*
X12922443Y-13950579D02*
X12931967Y-13988674D01*
X12931967Y-13988674D02*
X12931967Y-14036293D01*
X12931967Y-14036293D02*
X12922443Y-14074388D01*
X12922443Y-14074388D02*
X12912920Y-14093436D01*
X12912920Y-14093436D02*
X12903396Y-14102960D01*
X12903396Y-14102960D02*
X12884348Y-14112484D01*
X12884348Y-14112484D02*
X12865301Y-14112484D01*
X12865301Y-14112484D02*
X12846253Y-14102960D01*
X12846253Y-14102960D02*
X12836729Y-14093436D01*
X12836729Y-14093436D02*
X12827205Y-14074388D01*
X12827205Y-14074388D02*
X12817682Y-14036293D01*
X12817682Y-14036293D02*
X12817682Y-13988674D01*
X12817682Y-13988674D02*
X12827205Y-13950579D01*
X12827205Y-13950579D02*
X12836729Y-13931531D01*
X12836729Y-13931531D02*
X12846253Y-13922008D01*
X12846253Y-13922008D02*
X12865301Y-13912484D01*
X13103396Y-13912484D02*
X13065301Y-13912484D01*
X13065301Y-13912484D02*
X13046253Y-13922008D01*
X13046253Y-13922008D02*
X13036729Y-13931531D01*
X13036729Y-13931531D02*
X13017682Y-13960103D01*
X13017682Y-13960103D02*
X13008158Y-13998198D01*
X13008158Y-13998198D02*
X13008158Y-14074388D01*
X13008158Y-14074388D02*
X13017682Y-14093436D01*
X13017682Y-14093436D02*
X13027205Y-14102960D01*
X13027205Y-14102960D02*
X13046253Y-14112484D01*
X13046253Y-14112484D02*
X13084348Y-14112484D01*
X13084348Y-14112484D02*
X13103396Y-14102960D01*
X13103396Y-14102960D02*
X13112920Y-14093436D01*
X13112920Y-14093436D02*
X13122443Y-14074388D01*
X13122443Y-14074388D02*
X13122443Y-14026769D01*
X13122443Y-14026769D02*
X13112920Y-14007722D01*
X13112920Y-14007722D02*
X13103396Y-13998198D01*
X13103396Y-13998198D02*
X13084348Y-13988674D01*
X13084348Y-13988674D02*
X13046253Y-13988674D01*
X13046253Y-13988674D02*
X13027205Y-13998198D01*
X13027205Y-13998198D02*
X13017682Y-14007722D01*
X13017682Y-14007722D02*
X13008158Y-14026769D01*
X13198634Y-13912484D02*
X13198634Y-13950579D01*
X13274824Y-13912484D02*
X13274824Y-13950579D01*
X13570063Y-14188674D02*
X13560539Y-14179150D01*
X13560539Y-14179150D02*
X13541491Y-14150579D01*
X13541491Y-14150579D02*
X13531967Y-14131531D01*
X13531967Y-14131531D02*
X13522444Y-14102960D01*
X13522444Y-14102960D02*
X13512920Y-14055341D01*
X13512920Y-14055341D02*
X13512920Y-14017246D01*
X13512920Y-14017246D02*
X13522444Y-13969627D01*
X13522444Y-13969627D02*
X13531967Y-13941055D01*
X13531967Y-13941055D02*
X13541491Y-13922008D01*
X13541491Y-13922008D02*
X13560539Y-13893436D01*
X13560539Y-13893436D02*
X13570063Y-13883912D01*
X13731967Y-13979150D02*
X13731967Y-14112484D01*
X13684348Y-13902960D02*
X13636729Y-14045817D01*
X13636729Y-14045817D02*
X13760539Y-14045817D01*
X13989110Y-14112484D02*
X13989110Y-13912484D01*
X14074825Y-14112484D02*
X14074825Y-14007722D01*
X14074825Y-14007722D02*
X14065301Y-13988674D01*
X14065301Y-13988674D02*
X14046253Y-13979150D01*
X14046253Y-13979150D02*
X14017682Y-13979150D01*
X14017682Y-13979150D02*
X13998634Y-13988674D01*
X13998634Y-13988674D02*
X13989110Y-13998198D01*
X14198634Y-14112484D02*
X14179586Y-14102960D01*
X14179586Y-14102960D02*
X14170063Y-14093436D01*
X14170063Y-14093436D02*
X14160539Y-14074388D01*
X14160539Y-14074388D02*
X14160539Y-14017246D01*
X14160539Y-14017246D02*
X14170063Y-13998198D01*
X14170063Y-13998198D02*
X14179586Y-13988674D01*
X14179586Y-13988674D02*
X14198634Y-13979150D01*
X14198634Y-13979150D02*
X14227206Y-13979150D01*
X14227206Y-13979150D02*
X14246253Y-13988674D01*
X14246253Y-13988674D02*
X14255777Y-13998198D01*
X14255777Y-13998198D02*
X14265301Y-14017246D01*
X14265301Y-14017246D02*
X14265301Y-14074388D01*
X14265301Y-14074388D02*
X14255777Y-14093436D01*
X14255777Y-14093436D02*
X14246253Y-14102960D01*
X14246253Y-14102960D02*
X14227206Y-14112484D01*
X14227206Y-14112484D02*
X14198634Y-14112484D01*
X14379586Y-14112484D02*
X14360539Y-14102960D01*
X14360539Y-14102960D02*
X14351015Y-14083912D01*
X14351015Y-14083912D02*
X14351015Y-13912484D01*
X14531967Y-14102960D02*
X14512920Y-14112484D01*
X14512920Y-14112484D02*
X14474825Y-14112484D01*
X14474825Y-14112484D02*
X14455777Y-14102960D01*
X14455777Y-14102960D02*
X14446253Y-14083912D01*
X14446253Y-14083912D02*
X14446253Y-14007722D01*
X14446253Y-14007722D02*
X14455777Y-13988674D01*
X14455777Y-13988674D02*
X14474825Y-13979150D01*
X14474825Y-13979150D02*
X14512920Y-13979150D01*
X14512920Y-13979150D02*
X14531967Y-13988674D01*
X14531967Y-13988674D02*
X14541491Y-14007722D01*
X14541491Y-14007722D02*
X14541491Y-14026769D01*
X14541491Y-14026769D02*
X14446253Y-14045817D01*
X14617682Y-14102960D02*
X14636729Y-14112484D01*
X14636729Y-14112484D02*
X14674825Y-14112484D01*
X14674825Y-14112484D02*
X14693872Y-14102960D01*
X14693872Y-14102960D02*
X14703396Y-14083912D01*
X14703396Y-14083912D02*
X14703396Y-14074388D01*
X14703396Y-14074388D02*
X14693872Y-14055341D01*
X14693872Y-14055341D02*
X14674825Y-14045817D01*
X14674825Y-14045817D02*
X14646253Y-14045817D01*
X14646253Y-14045817D02*
X14627206Y-14036293D01*
X14627206Y-14036293D02*
X14617682Y-14017246D01*
X14617682Y-14017246D02*
X14617682Y-14007722D01*
X14617682Y-14007722D02*
X14627206Y-13988674D01*
X14627206Y-13988674D02*
X14646253Y-13979150D01*
X14646253Y-13979150D02*
X14674825Y-13979150D01*
X14674825Y-13979150D02*
X14693872Y-13988674D01*
X14770063Y-14188674D02*
X14779587Y-14179150D01*
X14779587Y-14179150D02*
X14798634Y-14150579D01*
X14798634Y-14150579D02*
X14808158Y-14131531D01*
X14808158Y-14131531D02*
X14817682Y-14102960D01*
X14817682Y-14102960D02*
X14827206Y-14055341D01*
X14827206Y-14055341D02*
X14827206Y-14017246D01*
X14827206Y-14017246D02*
X14817682Y-13969627D01*
X14817682Y-13969627D02*
X14808158Y-13941055D01*
X14808158Y-13941055D02*
X14798634Y-13922008D01*
X14798634Y-13922008D02*
X14779587Y-13893436D01*
X14779587Y-13893436D02*
X14770063Y-13883912D01*
M02*
