%TF.GenerationSoftware,KiCad,Pcbnew,8.0.3*%
%TF.CreationDate,2024-07-07T02:34:04-07:00*%
%TF.ProjectId,ps2usb,70733275-7362-42e6-9b69-6361645f7063,rev?*%
%TF.SameCoordinates,Original*%
%TF.FileFunction,Soldermask,Top*%
%TF.FilePolarity,Negative*%
%FSLAX46Y46*%
G04 Gerber Fmt 4.6, Leading zero omitted, Abs format (unit mm)*
G04 Created by KiCad (PCBNEW 8.0.3) date 2024-07-07 02:34:04*
%MOMM*%
%LPD*%
G01*
G04 APERTURE LIST*
G04 Aperture macros list*
%AMRoundRect*
0 Rectangle with rounded corners*
0 $1 Rounding radius*
0 $2 $3 $4 $5 $6 $7 $8 $9 X,Y pos of 4 corners*
0 Add a 4 corners polygon primitive as box body*
4,1,4,$2,$3,$4,$5,$6,$7,$8,$9,$2,$3,0*
0 Add four circle primitives for the rounded corners*
1,1,$1+$1,$2,$3*
1,1,$1+$1,$4,$5*
1,1,$1+$1,$6,$7*
1,1,$1+$1,$8,$9*
0 Add four rect primitives between the rounded corners*
20,1,$1+$1,$2,$3,$4,$5,0*
20,1,$1+$1,$4,$5,$6,$7,0*
20,1,$1+$1,$6,$7,$8,$9,0*
20,1,$1+$1,$8,$9,$2,$3,0*%
G04 Aperture macros list end*
%ADD10C,0.150000*%
%ADD11C,0.000000*%
%ADD12C,1.800000*%
%ADD13O,4.400000X3.000000*%
%ADD14C,4.400000*%
%ADD15RoundRect,0.250000X-0.650000X0.325000X-0.650000X-0.325000X0.650000X-0.325000X0.650000X0.325000X0*%
%ADD16R,0.800000X0.500000*%
%ADD17R,0.800000X0.400000*%
%ADD18O,1.400000X0.300000*%
%ADD19O,0.300000X1.400000*%
%ADD20RoundRect,0.225000X-0.250000X0.225000X-0.250000X-0.225000X0.250000X-0.225000X0.250000X0.225000X0*%
%ADD21R,1.700000X1.700000*%
%ADD22O,1.700000X1.700000*%
%ADD23R,1.400000X1.200000*%
%ADD24RoundRect,0.225000X0.250000X-0.225000X0.250000X0.225000X-0.250000X0.225000X-0.250000X-0.225000X0*%
%ADD25RoundRect,0.250000X0.325000X0.650000X-0.325000X0.650000X-0.325000X-0.650000X0.325000X-0.650000X0*%
%ADD26C,2.000000*%
%ADD27C,2.600000*%
%ADD28RoundRect,0.150000X0.300000X0.150000X-0.300000X0.150000X-0.300000X-0.150000X0.300000X-0.150000X0*%
%ADD29RoundRect,0.137500X0.137500X0.162500X-0.137500X0.162500X-0.137500X-0.162500X0.137500X-0.162500X0*%
%ADD30RoundRect,0.250000X-0.375000X-0.625000X0.375000X-0.625000X0.375000X0.625000X-0.375000X0.625000X0*%
%ADD31RoundRect,0.250000X-0.325000X-0.650000X0.325000X-0.650000X0.325000X0.650000X-0.325000X0.650000X0*%
%ADD32O,3.000000X1.500000*%
%ADD33O,5.000000X3.500000*%
G04 APERTURE END LIST*
D10*
X100000003Y-117999989D02*
X160000003Y-117999989D01*
X160000003Y-119999989D01*
X100000003Y-119999989D01*
X100000003Y-117999989D01*
G36*
X100000003Y-117999989D02*
G01*
X160000003Y-117999989D01*
X160000003Y-119999989D01*
X100000003Y-119999989D01*
X100000003Y-117999989D01*
G37*
D11*
G36*
X132613847Y-84599756D02*
G01*
X132677121Y-84601749D01*
X132736267Y-84605070D01*
X132791285Y-84609720D01*
X132842174Y-84615699D01*
X132888936Y-84623006D01*
X132931569Y-84631642D01*
X132970074Y-84641606D01*
X132994338Y-84649169D01*
X133018164Y-84657431D01*
X133041551Y-84666393D01*
X133064498Y-84676055D01*
X133087007Y-84686416D01*
X133109077Y-84697478D01*
X133130708Y-84709240D01*
X133151900Y-84721701D01*
X133172653Y-84734862D01*
X133192968Y-84748723D01*
X133212843Y-84763284D01*
X133232280Y-84778545D01*
X133251277Y-84794506D01*
X133269836Y-84811166D01*
X133287956Y-84828527D01*
X133305637Y-84846587D01*
X133322837Y-84865259D01*
X133339515Y-84884452D01*
X133355672Y-84904167D01*
X133371306Y-84924404D01*
X133386419Y-84945164D01*
X133401010Y-84966445D01*
X133415078Y-84988248D01*
X133428625Y-85010573D01*
X133441650Y-85033420D01*
X133454153Y-85056788D01*
X133466134Y-85080679D01*
X133477593Y-85105092D01*
X133488530Y-85130027D01*
X133498945Y-85155483D01*
X133508839Y-85181462D01*
X133518210Y-85207962D01*
X133527036Y-85234925D01*
X133535292Y-85262671D01*
X133542979Y-85291200D01*
X133550096Y-85320512D01*
X133556644Y-85350607D01*
X133562623Y-85381485D01*
X133568032Y-85413146D01*
X133572872Y-85445589D01*
X133577142Y-85478816D01*
X133580843Y-85512825D01*
X133586537Y-85583192D01*
X133589954Y-85656692D01*
X133591093Y-85733322D01*
X133590025Y-85800843D01*
X133586822Y-85865992D01*
X133581484Y-85928767D01*
X133574011Y-85989171D01*
X133564402Y-86047201D01*
X133552659Y-86102860D01*
X133538780Y-86156146D01*
X133531040Y-86181899D01*
X133522766Y-86207059D01*
X133512048Y-86237065D01*
X133500773Y-86266347D01*
X133488940Y-86294906D01*
X133476550Y-86322741D01*
X133463602Y-86349852D01*
X133450097Y-86376240D01*
X133436034Y-86401904D01*
X133421413Y-86426845D01*
X133406236Y-86451062D01*
X133390500Y-86474555D01*
X133374207Y-86497325D01*
X133357357Y-86519371D01*
X133339949Y-86540693D01*
X133321983Y-86561292D01*
X133303460Y-86581168D01*
X133284379Y-86600319D01*
X133269445Y-86614359D01*
X133253869Y-86628006D01*
X133237654Y-86641263D01*
X133220797Y-86654127D01*
X133203300Y-86666601D01*
X133185163Y-86678683D01*
X133166385Y-86690373D01*
X133146966Y-86701672D01*
X133126907Y-86712579D01*
X133106207Y-86723095D01*
X133084866Y-86733220D01*
X133062885Y-86742953D01*
X133040264Y-86752295D01*
X133017002Y-86761245D01*
X132993099Y-86769804D01*
X132968556Y-86777971D01*
X132949564Y-86783671D01*
X132929790Y-86789003D01*
X132909232Y-86793968D01*
X132887892Y-86798565D01*
X132865769Y-86802794D01*
X132842862Y-86806655D01*
X132819173Y-86810148D01*
X132794701Y-86813274D01*
X132743408Y-86818422D01*
X132688984Y-86822100D01*
X132631428Y-86824306D01*
X132570740Y-86825041D01*
X131725000Y-86825041D01*
X131725000Y-86450000D01*
X131725000Y-84975651D01*
X132174442Y-84975651D01*
X132174442Y-86450000D01*
X132510004Y-86450000D01*
X132555437Y-86449668D01*
X132597596Y-86448672D01*
X132636481Y-86447011D01*
X132672092Y-86444686D01*
X132704428Y-86441697D01*
X132733491Y-86438043D01*
X132759280Y-86433725D01*
X132781795Y-86428743D01*
X132795312Y-86425179D01*
X132808533Y-86421317D01*
X132821457Y-86417160D01*
X132834084Y-86412705D01*
X132846415Y-86407955D01*
X132858450Y-86402907D01*
X132870188Y-86397563D01*
X132881629Y-86391923D01*
X132892773Y-86385986D01*
X132903622Y-86379752D01*
X132914173Y-86373222D01*
X132924428Y-86366396D01*
X132934387Y-86359272D01*
X132944049Y-86351853D01*
X132953414Y-86344136D01*
X132962483Y-86336123D01*
X132971486Y-86327636D01*
X132980276Y-86318495D01*
X132988853Y-86308703D01*
X132997216Y-86298258D01*
X133005365Y-86287161D01*
X133013301Y-86275411D01*
X133021023Y-86263009D01*
X133028532Y-86249954D01*
X133035828Y-86236247D01*
X133042909Y-86221888D01*
X133049778Y-86206876D01*
X133056432Y-86191212D01*
X133062874Y-86174896D01*
X133069101Y-86157927D01*
X133075115Y-86140305D01*
X133080916Y-86122032D01*
X133086432Y-86102821D01*
X133091592Y-86082767D01*
X133096397Y-86061872D01*
X133100845Y-86040134D01*
X133104938Y-86017554D01*
X133108674Y-85994132D01*
X133115080Y-85944761D01*
X133120062Y-85892021D01*
X133123621Y-85835911D01*
X133125756Y-85776433D01*
X133126468Y-85713586D01*
X133125756Y-85650930D01*
X133123621Y-85592021D01*
X133120062Y-85536861D01*
X133115080Y-85485450D01*
X133108674Y-85437787D01*
X133100845Y-85393872D01*
X133091592Y-85353706D01*
X133080916Y-85317288D01*
X133075080Y-85300254D01*
X133068959Y-85283694D01*
X133062553Y-85267608D01*
X133055863Y-85251997D01*
X133048888Y-85236861D01*
X133041628Y-85222199D01*
X133034084Y-85208012D01*
X133026255Y-85194299D01*
X133018141Y-85181060D01*
X133009742Y-85168296D01*
X133001059Y-85156007D01*
X132992091Y-85144192D01*
X132982838Y-85132852D01*
X132973301Y-85121986D01*
X132963479Y-85111595D01*
X132953372Y-85101678D01*
X132942951Y-85092194D01*
X132932186Y-85083101D01*
X132921077Y-85074401D01*
X132909624Y-85066091D01*
X132897827Y-85058173D01*
X132885686Y-85050646D01*
X132873201Y-85043511D01*
X132860372Y-85036767D01*
X132847198Y-85030415D01*
X132833681Y-85024454D01*
X132819820Y-85018885D01*
X132805615Y-85013707D01*
X132791066Y-85008920D01*
X132776172Y-85004525D01*
X132760935Y-85000521D01*
X132745354Y-84996909D01*
X132732881Y-84994335D01*
X132718996Y-84991927D01*
X132686991Y-84987609D01*
X132649340Y-84983956D01*
X132606042Y-84980966D01*
X132557098Y-84978642D01*
X132502507Y-84976981D01*
X132442270Y-84975985D01*
X132376387Y-84975652D01*
X132174442Y-84975651D01*
X131725000Y-84975651D01*
X131725000Y-84599091D01*
X132546445Y-84599091D01*
X132613847Y-84599756D01*
G37*
G36*
X131534668Y-86825040D02*
G01*
X131085227Y-86825040D01*
X131085227Y-84599091D01*
X131534668Y-84599091D01*
X131534668Y-86825040D01*
G37*
D10*
X100000003Y-80999989D02*
X160000003Y-80999989D01*
X160000003Y-82999989D01*
X100000003Y-82999989D01*
X100000003Y-80999989D01*
G36*
X100000003Y-80999989D02*
G01*
X160000003Y-80999989D01*
X160000003Y-82999989D01*
X100000003Y-82999989D01*
X100000003Y-80999989D01*
G37*
D11*
G36*
X129540497Y-85475198D02*
G01*
X130421159Y-85475198D01*
X130421159Y-84599091D01*
X130870600Y-84599091D01*
X130870600Y-86825040D01*
X130421159Y-86825040D01*
X130421159Y-85851756D01*
X129540497Y-85851756D01*
X129540497Y-86825040D01*
X129091056Y-86825040D01*
X129091056Y-84599091D01*
X129540497Y-84599091D01*
X129540497Y-85475198D01*
G37*
D12*
%TO.C,J2*%
X151500000Y-107700000D03*
X151500000Y-110300000D03*
X151500000Y-105600000D03*
X149000000Y-107700000D03*
X151500000Y-112400000D03*
X149000000Y-105600000D03*
X149000000Y-109900000D03*
X149000000Y-112400000D03*
D13*
X154500000Y-102250000D03*
D14*
X155300000Y-109000000D03*
D13*
X154500000Y-115750000D03*
%TD*%
D15*
%TO.C,C5*%
X129475000Y-111750000D03*
X129475000Y-114700000D03*
%TD*%
D16*
%TO.C,RN2*%
X145325000Y-109925000D03*
D17*
X145325000Y-109125000D03*
X145325000Y-108325000D03*
D16*
X145325000Y-107525000D03*
X143525000Y-107525000D03*
D17*
X143525000Y-108325000D03*
X143525000Y-109125000D03*
D16*
X143525000Y-109925000D03*
%TD*%
D18*
%TO.C,U1*%
X132600000Y-104500000D03*
X132600000Y-104000000D03*
X132600000Y-103500000D03*
X132600000Y-103000000D03*
X132600000Y-102500000D03*
X132600000Y-102000000D03*
X132600000Y-101500000D03*
X132600000Y-101000000D03*
X132600000Y-100500000D03*
X132600000Y-100000000D03*
X132600000Y-99500000D03*
X132600000Y-99000000D03*
D19*
X131150000Y-97550000D03*
X130650000Y-97550000D03*
X130150000Y-97550000D03*
X129650000Y-97550000D03*
X129150000Y-97550000D03*
X128650000Y-97550000D03*
X128150000Y-97550000D03*
X127650000Y-97550000D03*
X127150000Y-97550000D03*
X126650000Y-97550000D03*
X126150000Y-97550000D03*
X125650000Y-97550000D03*
D18*
X124200000Y-99000000D03*
X124200000Y-99500000D03*
X124200000Y-100000000D03*
X124200000Y-100500000D03*
X124200000Y-101000000D03*
X124200000Y-101500000D03*
X124200000Y-102000000D03*
X124200000Y-102500000D03*
X124200000Y-103000000D03*
X124200000Y-103500000D03*
X124200000Y-104000000D03*
X124200000Y-104500000D03*
D19*
X125650000Y-105950000D03*
X126150000Y-105950000D03*
X126650000Y-105950000D03*
X127150000Y-105950000D03*
X127650000Y-105950000D03*
X128150000Y-105950000D03*
X128650000Y-105950000D03*
X129150000Y-105950000D03*
X129650000Y-105950000D03*
X130150000Y-105950000D03*
X130650000Y-105950000D03*
X131150000Y-105950000D03*
%TD*%
D15*
%TO.C,C7*%
X136775000Y-111750000D03*
X136775000Y-114700000D03*
%TD*%
D16*
%TO.C,RN1*%
X145325000Y-93000000D03*
D17*
X145325000Y-92200000D03*
X145325000Y-91400000D03*
D16*
X145325000Y-90600000D03*
X143525000Y-90600000D03*
D17*
X143525000Y-91400000D03*
X143525000Y-92200000D03*
D16*
X143525000Y-93000000D03*
%TD*%
D20*
%TO.C,C3*%
X126475000Y-93445200D03*
X126475000Y-94995200D03*
%TD*%
D21*
%TO.C,J4*%
X136800000Y-99110000D03*
D22*
X136800000Y-101650000D03*
X136800000Y-104190000D03*
%TD*%
D23*
%TO.C,Y1*%
X130775000Y-93445200D03*
X128575000Y-93445200D03*
X128575000Y-95145200D03*
X130775000Y-95145200D03*
%TD*%
D24*
%TO.C,C4*%
X132925000Y-95145200D03*
X132925000Y-93595200D03*
%TD*%
D25*
%TO.C,C2*%
X132500000Y-108575000D03*
X129550000Y-108575000D03*
%TD*%
D26*
%TO.C,S1*%
X102930000Y-86500000D03*
X102930000Y-91000000D03*
D27*
X105430000Y-85250000D03*
X105430000Y-92250000D03*
%TD*%
D28*
%TO.C,D1*%
X101250000Y-110850000D03*
D29*
X101575000Y-111800000D03*
X101575000Y-112700000D03*
D28*
X101250000Y-113650000D03*
%TD*%
D12*
%TO.C,J1*%
X151500000Y-90700000D03*
X151500000Y-93300000D03*
X151500000Y-88600000D03*
X149000000Y-90700000D03*
X151500000Y-95400000D03*
X149000000Y-88600000D03*
X149000000Y-92900000D03*
X149000000Y-95400000D03*
D13*
X154500000Y-85250000D03*
D14*
X155300000Y-92000000D03*
D13*
X154500000Y-98750000D03*
%TD*%
D30*
%TO.C,F1*%
X139150000Y-114700000D03*
X141950000Y-114700000D03*
%TD*%
D16*
%TO.C,RN3*%
X103575000Y-110425000D03*
D17*
X103575000Y-111225000D03*
X103575000Y-112025000D03*
D16*
X103575000Y-112825000D03*
X105375000Y-112825000D03*
D17*
X105375000Y-112025000D03*
X105375000Y-111225000D03*
D16*
X105375000Y-110425000D03*
%TD*%
D31*
%TO.C,C1*%
X124700000Y-108575000D03*
X127650000Y-108575000D03*
%TD*%
D32*
%TO.C,J3*%
X116280000Y-97000000D03*
X112260000Y-97000000D03*
X116280000Y-99500000D03*
X112260000Y-99500000D03*
X116280000Y-101500000D03*
X112260000Y-101500000D03*
X116280000Y-104000000D03*
X112260000Y-104000000D03*
D33*
X115930000Y-93930000D03*
X110250000Y-93930000D03*
X115930000Y-107070000D03*
X110250000Y-107070000D03*
%TD*%
D15*
%TO.C,C6*%
X131975000Y-111750000D03*
X131975000Y-114700000D03*
%TD*%
M02*
