%TF.GenerationSoftware,KiCad,Pcbnew,(6.0.6)*%
%TF.CreationDate,2022-08-24T09:56:22+01:00*%
%TF.ProjectId,ps2usb,70733275-7362-42e6-9b69-6361645f7063,rev?*%
%TF.SameCoordinates,Original*%
%TF.FileFunction,Soldermask,Top*%
%TF.FilePolarity,Negative*%
%FSLAX46Y46*%
G04 Gerber Fmt 4.6, Leading zero omitted, Abs format (unit mm)*
G04 Created by KiCad (PCBNEW (6.0.6)) date 2022-08-24 09:56:22*
%MOMM*%
%LPD*%
G01*
G04 APERTURE LIST*
G04 Aperture macros list*
%AMRoundRect*
0 Rectangle with rounded corners*
0 $1 Rounding radius*
0 $2 $3 $4 $5 $6 $7 $8 $9 X,Y pos of 4 corners*
0 Add a 4 corners polygon primitive as box body*
4,1,4,$2,$3,$4,$5,$6,$7,$8,$9,$2,$3,0*
0 Add four circle primitives for the rounded corners*
1,1,$1+$1,$2,$3*
1,1,$1+$1,$4,$5*
1,1,$1+$1,$6,$7*
1,1,$1+$1,$8,$9*
0 Add four rect primitives between the rounded corners*
20,1,$1+$1,$2,$3,$4,$5,0*
20,1,$1+$1,$4,$5,$6,$7,0*
20,1,$1+$1,$6,$7,$8,$9,0*
20,1,$1+$1,$8,$9,$2,$3,0*%
G04 Aperture macros list end*
%ADD10C,0.080000*%
%ADD11C,0.150000*%
%ADD12RoundRect,0.225000X0.225000X-0.225000X0.225000X0.225000X-0.225000X0.225000X-0.225000X-0.225000X0*%
%ADD13O,1.400000X0.300000*%
%ADD14O,0.300000X1.400000*%
%ADD15RoundRect,0.250000X0.625000X-0.312500X0.625000X0.312500X-0.625000X0.312500X-0.625000X-0.312500X0*%
%ADD16RoundRect,0.250000X0.650000X-0.325000X0.650000X0.325000X-0.650000X0.325000X-0.650000X-0.325000X0*%
%ADD17C,1.000000*%
%ADD18C,2.000000*%
%ADD19C,2.600000*%
%ADD20RoundRect,0.150000X0.300000X0.150000X-0.300000X0.150000X-0.300000X-0.150000X0.300000X-0.150000X0*%
%ADD21RoundRect,0.137500X0.137500X0.162500X-0.137500X0.162500X-0.137500X-0.162500X0.137500X-0.162500X0*%
%ADD22C,1.800000*%
%ADD23O,4.400000X3.000000*%
%ADD24C,4.400000*%
%ADD25O,3.000000X1.500000*%
%ADD26O,5.000000X3.500000*%
%ADD27RoundRect,0.250000X-0.625000X0.375000X-0.625000X-0.375000X0.625000X-0.375000X0.625000X0.375000X0*%
G04 APERTURE END LIST*
D10*
G36*
X133727146Y-88353491D02*
G01*
X133144157Y-88353491D01*
X133144157Y-85466118D01*
X133727146Y-85466118D01*
X133727146Y-88353491D01*
G37*
X133727146Y-88353491D02*
X133144157Y-88353491D01*
X133144157Y-85466118D01*
X133727146Y-85466118D01*
X133727146Y-88353491D01*
G36*
X135039567Y-85466118D02*
G01*
X135126996Y-85466980D01*
X135209072Y-85469565D01*
X135285792Y-85473873D01*
X135357158Y-85479905D01*
X135423169Y-85487660D01*
X135483825Y-85497138D01*
X135539126Y-85508340D01*
X135589073Y-85521264D01*
X135620548Y-85531074D01*
X135651453Y-85541792D01*
X135681789Y-85553417D01*
X135711556Y-85565950D01*
X135740753Y-85579391D01*
X135769381Y-85593740D01*
X135797439Y-85608997D01*
X135824928Y-85625161D01*
X135851848Y-85642234D01*
X135878199Y-85660214D01*
X135903980Y-85679102D01*
X135929192Y-85698897D01*
X135953834Y-85719601D01*
X135977907Y-85741212D01*
X136001411Y-85763731D01*
X136024346Y-85787158D01*
X136046657Y-85811377D01*
X136068291Y-85836273D01*
X136089249Y-85861846D01*
X136109529Y-85888097D01*
X136129132Y-85915024D01*
X136148058Y-85942628D01*
X136166308Y-85970910D01*
X136183880Y-85999868D01*
X136200775Y-86029504D01*
X136216993Y-86059817D01*
X136232534Y-86090807D01*
X136247398Y-86122474D01*
X136261585Y-86154818D01*
X136275095Y-86187839D01*
X136287928Y-86221537D01*
X136300084Y-86255913D01*
X136311532Y-86290888D01*
X136322241Y-86326879D01*
X136332212Y-86363885D01*
X136341444Y-86401907D01*
X136349938Y-86440944D01*
X136357693Y-86480996D01*
X136364710Y-86522064D01*
X136370988Y-86564148D01*
X136376527Y-86607247D01*
X136381328Y-86651361D01*
X136388714Y-86742637D01*
X136393145Y-86837976D01*
X136394623Y-86937378D01*
X136393238Y-87024962D01*
X136389083Y-87109468D01*
X136382159Y-87190897D01*
X136372465Y-87269249D01*
X136360002Y-87344523D01*
X136344769Y-87416719D01*
X136326766Y-87485838D01*
X136316726Y-87519244D01*
X136305994Y-87551880D01*
X136292091Y-87590802D01*
X136277465Y-87628785D01*
X136262117Y-87665830D01*
X136246045Y-87701936D01*
X136229249Y-87737104D01*
X136211731Y-87771333D01*
X136193489Y-87804623D01*
X136174525Y-87836975D01*
X136154837Y-87868388D01*
X136134426Y-87898862D01*
X136113291Y-87928398D01*
X136091434Y-87956995D01*
X136068853Y-87984653D01*
X136045550Y-88011373D01*
X136021523Y-88037154D01*
X135996772Y-88061997D01*
X135977400Y-88080207D01*
X135957197Y-88097910D01*
X135936162Y-88115105D01*
X135914297Y-88131793D01*
X135891601Y-88147972D01*
X135868074Y-88163644D01*
X135843716Y-88178809D01*
X135818528Y-88193465D01*
X135792508Y-88207614D01*
X135765657Y-88221255D01*
X135737976Y-88234388D01*
X135709463Y-88247013D01*
X135680120Y-88259131D01*
X135649946Y-88270741D01*
X135618940Y-88281842D01*
X135587104Y-88292436D01*
X135562469Y-88299830D01*
X135536819Y-88306746D01*
X135510153Y-88313185D01*
X135482471Y-88319148D01*
X135453774Y-88324633D01*
X135424062Y-88329641D01*
X135393333Y-88334173D01*
X135361589Y-88338227D01*
X135295055Y-88344905D01*
X135224459Y-88349675D01*
X135149800Y-88352537D01*
X135071079Y-88353491D01*
X133974035Y-88353491D01*
X133974035Y-87867011D01*
X134557024Y-87867011D01*
X134992297Y-87867011D01*
X135051230Y-87866581D01*
X135105916Y-87865288D01*
X135156355Y-87863134D01*
X135202547Y-87860119D01*
X135244493Y-87856241D01*
X135282191Y-87851502D01*
X135315643Y-87845901D01*
X135344849Y-87839438D01*
X135362382Y-87834814D01*
X135379531Y-87829805D01*
X135396295Y-87824411D01*
X135412675Y-87818633D01*
X135428670Y-87812470D01*
X135444280Y-87805922D01*
X135459506Y-87798990D01*
X135474347Y-87791673D01*
X135488803Y-87783972D01*
X135502875Y-87775886D01*
X135516562Y-87767415D01*
X135529864Y-87758560D01*
X135542781Y-87749320D01*
X135555314Y-87739695D01*
X135567462Y-87729686D01*
X135579226Y-87719292D01*
X135590905Y-87708283D01*
X135602307Y-87696428D01*
X135613432Y-87683727D01*
X135624280Y-87670179D01*
X135634851Y-87655785D01*
X135645145Y-87640544D01*
X135655162Y-87624457D01*
X135664902Y-87607524D01*
X135674365Y-87589744D01*
X135683551Y-87571118D01*
X135692460Y-87551646D01*
X135701092Y-87531327D01*
X135709447Y-87510161D01*
X135717525Y-87488149D01*
X135725326Y-87465291D01*
X135732850Y-87441587D01*
X135740005Y-87416667D01*
X135746699Y-87390655D01*
X135752930Y-87363551D01*
X135758701Y-87335354D01*
X135764009Y-87306065D01*
X135768856Y-87275683D01*
X135777165Y-87211642D01*
X135783628Y-87143231D01*
X135788244Y-87070450D01*
X135791014Y-86993299D01*
X135791937Y-86911777D01*
X135791014Y-86830500D01*
X135788244Y-86754086D01*
X135783628Y-86682534D01*
X135777165Y-86615846D01*
X135768856Y-86554020D01*
X135758701Y-86497057D01*
X135746699Y-86444957D01*
X135732850Y-86397719D01*
X135725280Y-86375624D01*
X135717340Y-86354144D01*
X135709032Y-86333280D01*
X135700353Y-86313030D01*
X135691306Y-86293397D01*
X135681889Y-86274378D01*
X135672103Y-86255975D01*
X135661947Y-86238188D01*
X135651423Y-86221015D01*
X135640528Y-86204458D01*
X135629265Y-86188517D01*
X135617632Y-86173191D01*
X135605630Y-86158481D01*
X135593259Y-86144385D01*
X135580518Y-86130906D01*
X135567408Y-86118042D01*
X135553891Y-86105740D01*
X135539927Y-86093946D01*
X135525517Y-86082660D01*
X135510660Y-86071881D01*
X135495358Y-86061610D01*
X135479609Y-86051847D01*
X135463414Y-86042591D01*
X135446773Y-86033844D01*
X135429685Y-86025604D01*
X135412152Y-86017872D01*
X135394172Y-86010647D01*
X135375746Y-86003931D01*
X135356873Y-85997722D01*
X135337555Y-85992021D01*
X135317790Y-85986828D01*
X135297579Y-85982143D01*
X135281399Y-85978804D01*
X135263388Y-85975680D01*
X135221874Y-85970079D01*
X135173035Y-85965340D01*
X135116872Y-85961463D01*
X135053384Y-85958447D01*
X134982572Y-85956293D01*
X134904436Y-85955001D01*
X134818976Y-85954570D01*
X134557024Y-85954570D01*
X134557024Y-87867011D01*
X133974035Y-87867011D01*
X133974035Y-85466118D01*
X135039567Y-85466118D01*
G37*
X135039567Y-85466118D02*
X135126996Y-85466980D01*
X135209072Y-85469565D01*
X135285792Y-85473873D01*
X135357158Y-85479905D01*
X135423169Y-85487660D01*
X135483825Y-85497138D01*
X135539126Y-85508340D01*
X135589073Y-85521264D01*
X135620548Y-85531074D01*
X135651453Y-85541792D01*
X135681789Y-85553417D01*
X135711556Y-85565950D01*
X135740753Y-85579391D01*
X135769381Y-85593740D01*
X135797439Y-85608997D01*
X135824928Y-85625161D01*
X135851848Y-85642234D01*
X135878199Y-85660214D01*
X135903980Y-85679102D01*
X135929192Y-85698897D01*
X135953834Y-85719601D01*
X135977907Y-85741212D01*
X136001411Y-85763731D01*
X136024346Y-85787158D01*
X136046657Y-85811377D01*
X136068291Y-85836273D01*
X136089249Y-85861846D01*
X136109529Y-85888097D01*
X136129132Y-85915024D01*
X136148058Y-85942628D01*
X136166308Y-85970910D01*
X136183880Y-85999868D01*
X136200775Y-86029504D01*
X136216993Y-86059817D01*
X136232534Y-86090807D01*
X136247398Y-86122474D01*
X136261585Y-86154818D01*
X136275095Y-86187839D01*
X136287928Y-86221537D01*
X136300084Y-86255913D01*
X136311532Y-86290888D01*
X136322241Y-86326879D01*
X136332212Y-86363885D01*
X136341444Y-86401907D01*
X136349938Y-86440944D01*
X136357693Y-86480996D01*
X136364710Y-86522064D01*
X136370988Y-86564148D01*
X136376527Y-86607247D01*
X136381328Y-86651361D01*
X136388714Y-86742637D01*
X136393145Y-86837976D01*
X136394623Y-86937378D01*
X136393238Y-87024962D01*
X136389083Y-87109468D01*
X136382159Y-87190897D01*
X136372465Y-87269249D01*
X136360002Y-87344523D01*
X136344769Y-87416719D01*
X136326766Y-87485838D01*
X136316726Y-87519244D01*
X136305994Y-87551880D01*
X136292091Y-87590802D01*
X136277465Y-87628785D01*
X136262117Y-87665830D01*
X136246045Y-87701936D01*
X136229249Y-87737104D01*
X136211731Y-87771333D01*
X136193489Y-87804623D01*
X136174525Y-87836975D01*
X136154837Y-87868388D01*
X136134426Y-87898862D01*
X136113291Y-87928398D01*
X136091434Y-87956995D01*
X136068853Y-87984653D01*
X136045550Y-88011373D01*
X136021523Y-88037154D01*
X135996772Y-88061997D01*
X135977400Y-88080207D01*
X135957197Y-88097910D01*
X135936162Y-88115105D01*
X135914297Y-88131793D01*
X135891601Y-88147972D01*
X135868074Y-88163644D01*
X135843716Y-88178809D01*
X135818528Y-88193465D01*
X135792508Y-88207614D01*
X135765657Y-88221255D01*
X135737976Y-88234388D01*
X135709463Y-88247013D01*
X135680120Y-88259131D01*
X135649946Y-88270741D01*
X135618940Y-88281842D01*
X135587104Y-88292436D01*
X135562469Y-88299830D01*
X135536819Y-88306746D01*
X135510153Y-88313185D01*
X135482471Y-88319148D01*
X135453774Y-88324633D01*
X135424062Y-88329641D01*
X135393333Y-88334173D01*
X135361589Y-88338227D01*
X135295055Y-88344905D01*
X135224459Y-88349675D01*
X135149800Y-88352537D01*
X135071079Y-88353491D01*
X133974035Y-88353491D01*
X133974035Y-87867011D01*
X134557024Y-87867011D01*
X134992297Y-87867011D01*
X135051230Y-87866581D01*
X135105916Y-87865288D01*
X135156355Y-87863134D01*
X135202547Y-87860119D01*
X135244493Y-87856241D01*
X135282191Y-87851502D01*
X135315643Y-87845901D01*
X135344849Y-87839438D01*
X135362382Y-87834814D01*
X135379531Y-87829805D01*
X135396295Y-87824411D01*
X135412675Y-87818633D01*
X135428670Y-87812470D01*
X135444280Y-87805922D01*
X135459506Y-87798990D01*
X135474347Y-87791673D01*
X135488803Y-87783972D01*
X135502875Y-87775886D01*
X135516562Y-87767415D01*
X135529864Y-87758560D01*
X135542781Y-87749320D01*
X135555314Y-87739695D01*
X135567462Y-87729686D01*
X135579226Y-87719292D01*
X135590905Y-87708283D01*
X135602307Y-87696428D01*
X135613432Y-87683727D01*
X135624280Y-87670179D01*
X135634851Y-87655785D01*
X135645145Y-87640544D01*
X135655162Y-87624457D01*
X135664902Y-87607524D01*
X135674365Y-87589744D01*
X135683551Y-87571118D01*
X135692460Y-87551646D01*
X135701092Y-87531327D01*
X135709447Y-87510161D01*
X135717525Y-87488149D01*
X135725326Y-87465291D01*
X135732850Y-87441587D01*
X135740005Y-87416667D01*
X135746699Y-87390655D01*
X135752930Y-87363551D01*
X135758701Y-87335354D01*
X135764009Y-87306065D01*
X135768856Y-87275683D01*
X135777165Y-87211642D01*
X135783628Y-87143231D01*
X135788244Y-87070450D01*
X135791014Y-86993299D01*
X135791937Y-86911777D01*
X135791014Y-86830500D01*
X135788244Y-86754086D01*
X135783628Y-86682534D01*
X135777165Y-86615846D01*
X135768856Y-86554020D01*
X135758701Y-86497057D01*
X135746699Y-86444957D01*
X135732850Y-86397719D01*
X135725280Y-86375624D01*
X135717340Y-86354144D01*
X135709032Y-86333280D01*
X135700353Y-86313030D01*
X135691306Y-86293397D01*
X135681889Y-86274378D01*
X135672103Y-86255975D01*
X135661947Y-86238188D01*
X135651423Y-86221015D01*
X135640528Y-86204458D01*
X135629265Y-86188517D01*
X135617632Y-86173191D01*
X135605630Y-86158481D01*
X135593259Y-86144385D01*
X135580518Y-86130906D01*
X135567408Y-86118042D01*
X135553891Y-86105740D01*
X135539927Y-86093946D01*
X135525517Y-86082660D01*
X135510660Y-86071881D01*
X135495358Y-86061610D01*
X135479609Y-86051847D01*
X135463414Y-86042591D01*
X135446773Y-86033844D01*
X135429685Y-86025604D01*
X135412152Y-86017872D01*
X135394172Y-86010647D01*
X135375746Y-86003931D01*
X135356873Y-85997722D01*
X135337555Y-85992021D01*
X135317790Y-85986828D01*
X135297579Y-85982143D01*
X135281399Y-85978804D01*
X135263388Y-85975680D01*
X135221874Y-85970079D01*
X135173035Y-85965340D01*
X135116872Y-85961463D01*
X135053384Y-85958447D01*
X134982572Y-85956293D01*
X134904436Y-85955001D01*
X134818976Y-85954570D01*
X134557024Y-85954570D01*
X134557024Y-87867011D01*
X133974035Y-87867011D01*
X133974035Y-85466118D01*
X135039567Y-85466118D01*
G36*
X131140422Y-86602553D02*
G01*
X132282766Y-86602553D01*
X132282766Y-85466118D01*
X132865756Y-85466118D01*
X132865756Y-88353491D01*
X132282766Y-88353491D01*
X132282766Y-87091006D01*
X131140422Y-87091006D01*
X131140422Y-88353491D01*
X130557432Y-88353491D01*
X130557432Y-85466118D01*
X131140422Y-85466118D01*
X131140422Y-86602553D01*
G37*
X131140422Y-86602553D02*
X132282766Y-86602553D01*
X132282766Y-85466118D01*
X132865756Y-85466118D01*
X132865756Y-88353491D01*
X132282766Y-88353491D01*
X132282766Y-87091006D01*
X131140422Y-87091006D01*
X131140422Y-88353491D01*
X130557432Y-88353491D01*
X130557432Y-85466118D01*
X131140422Y-85466118D01*
X131140422Y-86602553D01*
D11*
X100000003Y-117999989D02*
X160000003Y-117999989D01*
X160000003Y-117999989D02*
X160000003Y-119999989D01*
X160000003Y-119999989D02*
X100000003Y-119999989D01*
X100000003Y-119999989D02*
X100000003Y-117999989D01*
G36*
X100000003Y-117999989D02*
G01*
X160000003Y-117999989D01*
X160000003Y-119999989D01*
X100000003Y-119999989D01*
X100000003Y-117999989D01*
G37*
X100000003Y-80999989D02*
X160000003Y-80999989D01*
X160000003Y-80999989D02*
X160000003Y-82999989D01*
X160000003Y-82999989D02*
X100000003Y-82999989D01*
X100000003Y-82999989D02*
X100000003Y-80999989D01*
G36*
X100000003Y-80999989D02*
G01*
X160000003Y-80999989D01*
X160000003Y-82999989D01*
X100000003Y-82999989D01*
X100000003Y-80999989D01*
G37*
D12*
%TO.C,RN1*%
X144172003Y-95057189D03*
X141172003Y-100137189D03*
X144172003Y-100137189D03*
X144172003Y-98867189D03*
X144172003Y-97597189D03*
X144172003Y-96327189D03*
X141172003Y-95057189D03*
X141172003Y-96327189D03*
X141172003Y-97597189D03*
X141172003Y-98867189D03*
%TD*%
D13*
%TO.C,U1*%
X138450000Y-106500000D03*
X138450000Y-106000000D03*
X138450000Y-105500000D03*
X138450000Y-105000000D03*
X138450000Y-104500000D03*
X138450000Y-104000000D03*
X138450000Y-103500000D03*
X138450000Y-103000000D03*
X138450000Y-102500000D03*
X138450000Y-102000000D03*
X138450000Y-101500000D03*
X138450000Y-101000000D03*
D14*
X137000000Y-99550000D03*
X136500000Y-99550000D03*
X136000000Y-99550000D03*
X135500000Y-99550000D03*
X135000000Y-99550000D03*
X134500000Y-99550000D03*
X134000000Y-99550000D03*
X133500000Y-99550000D03*
X133000000Y-99550000D03*
X132500000Y-99550000D03*
X132000000Y-99550000D03*
X131500000Y-99550000D03*
D13*
X130050000Y-101000000D03*
X130050000Y-101500000D03*
X130050000Y-102000000D03*
X130050000Y-102500000D03*
X130050000Y-103000000D03*
X130050000Y-103500000D03*
X130050000Y-104000000D03*
X130050000Y-104500000D03*
X130050000Y-105000000D03*
X130050000Y-105500000D03*
X130050000Y-106000000D03*
X130050000Y-106500000D03*
D14*
X131500000Y-107950000D03*
X132000000Y-107950000D03*
X132500000Y-107950000D03*
X133000000Y-107950000D03*
X133500000Y-107950000D03*
X134000000Y-107950000D03*
X134500000Y-107950000D03*
X135000000Y-107950000D03*
X135500000Y-107950000D03*
X136000000Y-107950000D03*
X136500000Y-107950000D03*
X137000000Y-107950000D03*
%TD*%
D15*
%TO.C,R1*%
X127500000Y-113712500D03*
X127500000Y-110787500D03*
%TD*%
D16*
%TO.C,C3*%
X132000003Y-113724989D03*
X132000003Y-110774989D03*
%TD*%
D15*
%TO.C,R3*%
X120500000Y-113712500D03*
X120500000Y-110787500D03*
%TD*%
D17*
%TO.C,TP1*%
X142595803Y-106055389D03*
%TD*%
D16*
%TO.C,C4*%
X135500003Y-113724989D03*
X135500003Y-110774989D03*
%TD*%
D17*
%TO.C,TP3*%
X141376603Y-104226589D03*
%TD*%
D18*
%TO.C,S1*%
X102930000Y-86500000D03*
X102930000Y-91000000D03*
D19*
X105430000Y-92250000D03*
X105430000Y-85250000D03*
%TD*%
D16*
%TO.C,C2*%
X124500006Y-102000000D03*
X124500006Y-99050000D03*
%TD*%
D15*
%TO.C,R2*%
X124000000Y-113712500D03*
X124000000Y-110787500D03*
%TD*%
D20*
%TO.C,D1*%
X101250000Y-110850000D03*
D21*
X101575000Y-111800000D03*
X101575000Y-112700000D03*
D20*
X101250000Y-113650000D03*
%TD*%
D22*
%TO.C,J1*%
X151500000Y-90699989D03*
X151500000Y-93299989D03*
X151500000Y-88599989D03*
X149000000Y-90699989D03*
X151500000Y-95399989D03*
X149000000Y-88599989D03*
X149000000Y-92899989D03*
X149000000Y-95399989D03*
D23*
X154500000Y-85249989D03*
X154500000Y-98749989D03*
D24*
X155300000Y-91999989D03*
%TD*%
D25*
%TO.C,J2*%
X116280000Y-97000000D03*
X112260000Y-97000000D03*
X116280000Y-99500000D03*
X112260000Y-99500000D03*
X116280000Y-101500000D03*
X112260000Y-101500000D03*
X116280000Y-104000000D03*
X112260000Y-104000000D03*
D26*
X110250000Y-107070000D03*
X115930000Y-93930000D03*
X115930000Y-107070000D03*
X110250000Y-93930000D03*
%TD*%
D27*
%TO.C,F1*%
X142595803Y-110903789D03*
X142595803Y-113703789D03*
%TD*%
D17*
%TO.C,TP2*%
X143738803Y-104226589D03*
%TD*%
D16*
%TO.C,C1*%
X120750006Y-102000000D03*
X120750006Y-99050000D03*
%TD*%
D22*
%TO.C,J3*%
X151500000Y-107699989D03*
X151500000Y-110299989D03*
X151500000Y-105599989D03*
X149000000Y-107699989D03*
X151500000Y-112399989D03*
X149000000Y-105599989D03*
X149000000Y-109899989D03*
X149000000Y-112399989D03*
D23*
X154500000Y-102249989D03*
X154500000Y-115749989D03*
D24*
X155300000Y-108999989D03*
%TD*%
D16*
%TO.C,C5*%
X139000003Y-113778789D03*
X139000003Y-110828789D03*
%TD*%
M02*
