%TF.GenerationSoftware,KiCad,Pcbnew,8.0.3*%
%TF.CreationDate,2024-07-18T19:47:18-07:00*%
%TF.ProjectId,ps2usb,70733275-7362-42e6-9b69-6361645f7063,rev?*%
%TF.SameCoordinates,Original*%
%TF.FileFunction,Copper,L1,Top*%
%TF.FilePolarity,Positive*%
%FSLAX46Y46*%
G04 Gerber Fmt 4.6, Leading zero omitted, Abs format (unit mm)*
G04 Created by KiCad (PCBNEW 8.0.3) date 2024-07-18 19:47:18*
%MOMM*%
%LPD*%
G01*
G04 APERTURE LIST*
G04 Aperture macros list*
%AMRoundRect*
0 Rectangle with rounded corners*
0 $1 Rounding radius*
0 $2 $3 $4 $5 $6 $7 $8 $9 X,Y pos of 4 corners*
0 Add a 4 corners polygon primitive as box body*
4,1,4,$2,$3,$4,$5,$6,$7,$8,$9,$2,$3,0*
0 Add four circle primitives for the rounded corners*
1,1,$1+$1,$2,$3*
1,1,$1+$1,$4,$5*
1,1,$1+$1,$6,$7*
1,1,$1+$1,$8,$9*
0 Add four rect primitives between the rounded corners*
20,1,$1+$1,$2,$3,$4,$5,0*
20,1,$1+$1,$4,$5,$6,$7,0*
20,1,$1+$1,$6,$7,$8,$9,0*
20,1,$1+$1,$8,$9,$2,$3,0*%
G04 Aperture macros list end*
%TA.AperFunction,ComponentPad*%
%ADD10C,1.800000*%
%TD*%
%TA.AperFunction,ComponentPad*%
%ADD11O,4.400000X3.000000*%
%TD*%
%TA.AperFunction,ComponentPad*%
%ADD12C,4.400000*%
%TD*%
%TA.AperFunction,SMDPad,CuDef*%
%ADD13RoundRect,0.225000X-0.250000X0.225000X-0.250000X-0.225000X0.250000X-0.225000X0.250000X0.225000X0*%
%TD*%
%TA.AperFunction,SMDPad,CuDef*%
%ADD14R,0.800000X0.500000*%
%TD*%
%TA.AperFunction,SMDPad,CuDef*%
%ADD15R,0.800000X0.400000*%
%TD*%
%TA.AperFunction,SMDPad,CuDef*%
%ADD16O,1.400000X0.300000*%
%TD*%
%TA.AperFunction,SMDPad,CuDef*%
%ADD17O,0.300000X1.400000*%
%TD*%
%TA.AperFunction,ComponentPad*%
%ADD18R,1.700000X1.700000*%
%TD*%
%TA.AperFunction,ComponentPad*%
%ADD19O,1.700000X1.700000*%
%TD*%
%TA.AperFunction,SMDPad,CuDef*%
%ADD20R,1.400000X1.200000*%
%TD*%
%TA.AperFunction,SMDPad,CuDef*%
%ADD21RoundRect,0.225000X0.250000X-0.225000X0.250000X0.225000X-0.250000X0.225000X-0.250000X-0.225000X0*%
%TD*%
%TA.AperFunction,SMDPad,CuDef*%
%ADD22RoundRect,0.225000X0.225000X0.250000X-0.225000X0.250000X-0.225000X-0.250000X0.225000X-0.250000X0*%
%TD*%
%TA.AperFunction,ComponentPad*%
%ADD23C,2.000000*%
%TD*%
%TA.AperFunction,ComponentPad*%
%ADD24C,2.600000*%
%TD*%
%TA.AperFunction,SMDPad,CuDef*%
%ADD25RoundRect,0.150000X0.300000X0.150000X-0.300000X0.150000X-0.300000X-0.150000X0.300000X-0.150000X0*%
%TD*%
%TA.AperFunction,SMDPad,CuDef*%
%ADD26RoundRect,0.137500X0.137500X0.162500X-0.137500X0.162500X-0.137500X-0.162500X0.137500X-0.162500X0*%
%TD*%
%TA.AperFunction,SMDPad,CuDef*%
%ADD27RoundRect,0.250000X-0.375000X-0.625000X0.375000X-0.625000X0.375000X0.625000X-0.375000X0.625000X0*%
%TD*%
%TA.AperFunction,SMDPad,CuDef*%
%ADD28RoundRect,0.225000X-0.225000X-0.250000X0.225000X-0.250000X0.225000X0.250000X-0.225000X0.250000X0*%
%TD*%
%TA.AperFunction,ComponentPad*%
%ADD29O,3.000000X1.500000*%
%TD*%
%TA.AperFunction,ComponentPad*%
%ADD30O,5.000000X3.500000*%
%TD*%
%TA.AperFunction,ViaPad*%
%ADD31C,0.800000*%
%TD*%
%TA.AperFunction,Conductor*%
%ADD32C,0.250000*%
%TD*%
%TA.AperFunction,Conductor*%
%ADD33C,0.203200*%
%TD*%
%TA.AperFunction,Conductor*%
%ADD34C,0.889000*%
%TD*%
%TA.AperFunction,Conductor*%
%ADD35C,0.254000*%
%TD*%
G04 APERTURE END LIST*
D10*
%TO.P,J2,1,1*%
%TO.N,/DIN2-1*%
X151500000Y-107700000D03*
%TO.P,J2,2,2*%
%TO.N,/DIN2-2*%
X151500000Y-110300000D03*
%TO.P,J2,3,3*%
%TO.N,GND*%
X151500000Y-105600000D03*
%TO.P,J2,4,4*%
%TO.N,unconnected-(J2-Pad4)*%
X149000000Y-107700000D03*
%TO.P,J2,5,5*%
%TO.N,Net-(F1-Pad2)*%
X151500000Y-112400000D03*
%TO.P,J2,6,6*%
%TO.N,/DIN2-6*%
X149000000Y-105600000D03*
%TO.P,J2,7,7*%
%TO.N,unconnected-(J2-Pad7)*%
X149000000Y-109900000D03*
%TO.P,J2,8,8*%
%TO.N,/DIN2-8*%
X149000000Y-112400000D03*
D11*
%TO.P,J2,S,S*%
%TO.N,GND*%
X154500000Y-102250000D03*
D12*
X155300000Y-109000000D03*
D11*
X154500000Y-115750000D03*
%TD*%
D13*
%TO.P,C5,1*%
%TO.N,GND*%
X129525000Y-113125000D03*
%TO.P,C5,2*%
%TO.N,+5V*%
X129525000Y-114675000D03*
%TD*%
D14*
%TO.P,RN2,1,R1.1*%
%TO.N,+5V*%
X145325000Y-109925000D03*
D15*
%TO.P,RN2,2,R2.1*%
X145325000Y-109125000D03*
%TO.P,RN2,3,R3.1*%
X145325000Y-108325000D03*
D14*
%TO.P,RN2,4,R4.1*%
X145325000Y-107525000D03*
%TO.P,RN2,5,R4.2*%
%TO.N,/DIN2-1*%
X143525000Y-107525000D03*
D15*
%TO.P,RN2,6,R3.2*%
%TO.N,/DIN2-6*%
X143525000Y-108325000D03*
%TO.P,RN2,7,R2.2*%
%TO.N,/DIN2-2*%
X143525000Y-109125000D03*
D14*
%TO.P,RN2,8,R1.2*%
%TO.N,/DIN2-8*%
X143525000Y-109925000D03*
%TD*%
D16*
%TO.P,U1,1*%
%TO.N,N/C*%
X132600000Y-104500000D03*
%TO.P,U1,2*%
X132600000Y-104000000D03*
%TO.P,U1,3,P5.7/RST*%
%TO.N,unconnected-(U1A-P5.7{slash}RST-Pad3)*%
X132600000Y-103500000D03*
%TO.P,U1,4,P3.0/RXD*%
%TO.N,Net-(J4-Pin_3)*%
X132600000Y-103000000D03*
%TO.P,U1,5*%
%TO.N,N/C*%
X132600000Y-102500000D03*
%TO.P,U1,6,P4.4/TXD1_/A4*%
%TO.N,unconnected-(U1A-P4.4{slash}TXD1_{slash}A4-Pad6)*%
X132600000Y-102000000D03*
%TO.P,U1,7,P3.1/TXD*%
%TO.N,Net-(J4-Pin_2)*%
X132600000Y-101500000D03*
%TO.P,U1,8*%
%TO.N,N/C*%
X132600000Y-101000000D03*
%TO.P,U1,9*%
X132600000Y-100500000D03*
%TO.P,U1,10,P3.4/LEDC/XCS0/T0*%
%TO.N,Net-(U1A-P3.4{slash}LEDC{slash}XCS0{slash}T0)*%
X132600000Y-100000000D03*
%TO.P,U1,11,P3.5/DA6/T1*%
%TO.N,/DIN1-8*%
X132600000Y-99500000D03*
%TO.P,U1,12,P3.6/WR*%
%TO.N,/DIN1-2*%
X132600000Y-99000000D03*
D17*
%TO.P,U1,13,P3.7/RD*%
%TO.N,/DIN1-6*%
X131150000Y-97550000D03*
%TO.P,U1,14,P4.3/PWM1_/A3*%
%TO.N,/DIN1-1*%
X130650000Y-97550000D03*
%TO.P,U1,15,P2.4/PWM3_/CAP3_/A2*%
%TO.N,Net-(RN3-R1.2)*%
X130150000Y-97550000D03*
%TO.P,U1,16,P4.6/XI/SCS_*%
%TO.N,Net-(U1A-P4.6{slash}XI{slash}SCS_)*%
X129650000Y-97550000D03*
%TO.P,U1,17,P4.7/XO/SCK_*%
%TO.N,Net-(U1A-P4.7{slash}XO{slash}SCK_)*%
X129150000Y-97550000D03*
%TO.P,U1,18,GND*%
%TO.N,GND*%
X128650000Y-97550000D03*
%TO.P,U1,19*%
%TO.N,N/C*%
X128150000Y-97550000D03*
%TO.P,U1,20,P4.0/A0/RXD1_*%
%TO.N,GND*%
X127650000Y-97550000D03*
%TO.P,U1,21*%
%TO.N,N/C*%
X127150000Y-97550000D03*
%TO.P,U1,22*%
X126650000Y-97550000D03*
%TO.P,U1,23*%
X126150000Y-97550000D03*
%TO.P,U1,24*%
X125650000Y-97550000D03*
D16*
%TO.P,U1,25,P2.4/PWM1/A12*%
%TO.N,Net-(RN3-R4.2)*%
X124200000Y-99000000D03*
%TO.P,U1,26,P2.5/TNOW/PWM2*%
%TO.N,Net-(RN3-R3.2)*%
X124200000Y-99500000D03*
%TO.P,U1,27*%
%TO.N,N/C*%
X124200000Y-100000000D03*
%TO.P,U1,28*%
X124200000Y-100500000D03*
%TO.P,U1,29,P5.5/HP/!A15/XA*%
%TO.N,Net-(U1A-P5.5{slash}HP{slash}!A15{slash}XA)*%
X124200000Y-101000000D03*
%TO.P,U1,30,P5.4/HM/ALE/XB*%
%TO.N,Net-(U1A-P5.4{slash}HM{slash}ALE{slash}XB)*%
X124200000Y-101500000D03*
%TO.P,U1,31,P5.1/DP*%
%TO.N,Net-(U1A-P5.1{slash}DP)*%
X124200000Y-102000000D03*
%TO.P,U1,32,P5.0/DM*%
%TO.N,Net-(U1A-P5.0{slash}DM)*%
X124200000Y-102500000D03*
%TO.P,U1,33,P0.7/AD7/UDCD*%
%TO.N,/DIN2-8*%
X124200000Y-103000000D03*
%TO.P,U1,34,P0.6/AD6/URI*%
%TO.N,/DIN2-2*%
X124200000Y-103500000D03*
%TO.P,U1,35,P0.5/AD5/UDSR*%
%TO.N,/DIN2-6*%
X124200000Y-104000000D03*
%TO.P,U1,36,P0.4/AD4/UCTS*%
%TO.N,unconnected-(U1A-P0.4{slash}AD4{slash}UCTS-Pad36)*%
X124200000Y-104500000D03*
D17*
%TO.P,U1,37,P0.3/AD3/TXD_*%
%TO.N,/DIN2-1*%
X125650000Y-105950000D03*
%TO.P,U1,38*%
%TO.N,N/C*%
X126150000Y-105950000D03*
%TO.P,U1,39,P0.1/AD1/URTS*%
%TO.N,unconnected-(U1A-P0.1{slash}AD1{slash}URTS-Pad39)*%
X126650000Y-105950000D03*
%TO.P,U1,40*%
%TO.N,N/C*%
X127150000Y-105950000D03*
%TO.P,U1,41,VIN5*%
%TO.N,+5V*%
X127650000Y-105950000D03*
%TO.P,U1,42,VDD33*%
%TO.N,+3.3V*%
X128150000Y-105950000D03*
%TO.P,U1,43*%
%TO.N,N/C*%
X128650000Y-105950000D03*
%TO.P,U1,44*%
X129150000Y-105950000D03*
%TO.P,U1,45*%
X129650000Y-105950000D03*
%TO.P,U1,46*%
X130150000Y-105950000D03*
%TO.P,U1,47*%
X130650000Y-105950000D03*
%TO.P,U1,48*%
X131150000Y-105950000D03*
%TD*%
D13*
%TO.P,C7,1*%
%TO.N,GND*%
X136775000Y-113150000D03*
%TO.P,C7,2*%
%TO.N,+5V*%
X136775000Y-114700000D03*
%TD*%
D14*
%TO.P,RN1,1,R1.1*%
%TO.N,+5V*%
X145325000Y-93000000D03*
D15*
%TO.P,RN1,2,R2.1*%
X145325000Y-92200000D03*
%TO.P,RN1,3,R3.1*%
X145325000Y-91400000D03*
D14*
%TO.P,RN1,4,R4.1*%
X145325000Y-90600000D03*
%TO.P,RN1,5,R4.2*%
%TO.N,/DIN1-1*%
X143525000Y-90600000D03*
D15*
%TO.P,RN1,6,R3.2*%
%TO.N,/DIN1-6*%
X143525000Y-91400000D03*
%TO.P,RN1,7,R2.2*%
%TO.N,/DIN1-2*%
X143525000Y-92200000D03*
D14*
%TO.P,RN1,8,R1.2*%
%TO.N,/DIN1-8*%
X143525000Y-93000000D03*
%TD*%
D13*
%TO.P,C3,1*%
%TO.N,GND*%
X126475000Y-93445200D03*
%TO.P,C3,2*%
%TO.N,Net-(U1A-P4.7{slash}XO{slash}SCK_)*%
X126475000Y-94995200D03*
%TD*%
D18*
%TO.P,J4,1,Pin_1*%
%TO.N,GND*%
X136800000Y-99110000D03*
D19*
%TO.P,J4,2,Pin_2*%
%TO.N,Net-(J4-Pin_2)*%
X136800000Y-101650000D03*
%TO.P,J4,3,Pin_3*%
%TO.N,Net-(J4-Pin_3)*%
X136800000Y-104190000D03*
%TD*%
D20*
%TO.P,Y1,1,1*%
%TO.N,Net-(U1A-P4.6{slash}XI{slash}SCS_)*%
X130775000Y-93445200D03*
%TO.P,Y1,2,2*%
%TO.N,GND*%
X128575000Y-93445200D03*
%TO.P,Y1,3,3*%
%TO.N,Net-(U1A-P4.7{slash}XO{slash}SCK_)*%
X128575000Y-95145200D03*
%TO.P,Y1,4,4*%
%TO.N,GND*%
X130775000Y-95145200D03*
%TD*%
D21*
%TO.P,C4,1*%
%TO.N,GND*%
X132925000Y-95145200D03*
%TO.P,C4,2*%
%TO.N,Net-(U1A-P4.6{slash}XI{slash}SCS_)*%
X132925000Y-93595200D03*
%TD*%
D22*
%TO.P,C2,1*%
%TO.N,GND*%
X132425000Y-108575000D03*
%TO.P,C2,2*%
%TO.N,+3.3V*%
X130875000Y-108575000D03*
%TD*%
D23*
%TO.P,S1,1,1*%
%TO.N,Net-(U1A-P3.4{slash}LEDC{slash}XCS0{slash}T0)*%
X102930000Y-86500000D03*
%TO.P,S1,2,2*%
%TO.N,GND*%
X102930000Y-91000000D03*
D24*
%TO.P,S1,M,M*%
X105430000Y-85250000D03*
X105430000Y-92250000D03*
%TD*%
D25*
%TO.P,D1,1,1*%
%TO.N,+3.3V*%
X101250000Y-110850000D03*
D26*
%TO.P,D1,2,B*%
%TO.N,Net-(D1-B)*%
X101575000Y-111800000D03*
%TO.P,D1,3,G*%
%TO.N,Net-(D1-G)*%
X101575000Y-112700000D03*
D25*
%TO.P,D1,4,R*%
%TO.N,Net-(D1-R)*%
X101250000Y-113650000D03*
%TD*%
D10*
%TO.P,J1,1,1*%
%TO.N,/DIN1-1*%
X151500000Y-90700000D03*
%TO.P,J1,2,2*%
%TO.N,/DIN1-2*%
X151500000Y-93300000D03*
%TO.P,J1,3,3*%
%TO.N,GND*%
X151500000Y-88600000D03*
%TO.P,J1,4,4*%
%TO.N,unconnected-(J1-Pad4)*%
X149000000Y-90700000D03*
%TO.P,J1,5,5*%
%TO.N,Net-(F1-Pad2)*%
X151500000Y-95400000D03*
%TO.P,J1,6,6*%
%TO.N,/DIN1-6*%
X149000000Y-88600000D03*
%TO.P,J1,7,7*%
%TO.N,unconnected-(J1-Pad7)*%
X149000000Y-92900000D03*
%TO.P,J1,8,8*%
%TO.N,/DIN1-8*%
X149000000Y-95400000D03*
D11*
%TO.P,J1,S,S*%
%TO.N,GND*%
X154500000Y-85250000D03*
D12*
X155300000Y-92000000D03*
D11*
X154500000Y-98750000D03*
%TD*%
D27*
%TO.P,F1,1*%
%TO.N,+5V*%
X139150000Y-114700000D03*
%TO.P,F1,2*%
%TO.N,Net-(F1-Pad2)*%
X141950000Y-114700000D03*
%TD*%
D14*
%TO.P,RN3,1,R1.1*%
%TO.N,Net-(D1-B)*%
X103575000Y-110425000D03*
D15*
%TO.P,RN3,2,R2.1*%
X103575000Y-111225000D03*
%TO.P,RN3,3,R3.1*%
%TO.N,Net-(D1-G)*%
X103575000Y-112025000D03*
D14*
%TO.P,RN3,4,R4.1*%
%TO.N,Net-(D1-R)*%
X103575000Y-112825000D03*
%TO.P,RN3,5,R4.2*%
%TO.N,Net-(RN3-R4.2)*%
X105375000Y-112825000D03*
D15*
%TO.P,RN3,6,R3.2*%
%TO.N,Net-(RN3-R3.2)*%
X105375000Y-112025000D03*
%TO.P,RN3,7,R2.2*%
%TO.N,Net-(RN3-R1.2)*%
X105375000Y-111225000D03*
D14*
%TO.P,RN3,8,R1.2*%
X105375000Y-110425000D03*
%TD*%
D28*
%TO.P,C1,1*%
%TO.N,GND*%
X126100000Y-108575000D03*
%TO.P,C1,2*%
%TO.N,+5V*%
X127650000Y-108575000D03*
%TD*%
D29*
%TO.P,J3,1A,VBUS*%
%TO.N,+5V*%
X116280000Y-97000000D03*
%TO.P,J3,1B,VBUS*%
X112260000Y-97000000D03*
%TO.P,J3,2A,D-*%
%TO.N,Net-(U1A-P5.4{slash}HM{slash}ALE{slash}XB)*%
X116280000Y-99500000D03*
%TO.P,J3,2B,D-*%
%TO.N,Net-(U1A-P5.0{slash}DM)*%
X112260000Y-99500000D03*
%TO.P,J3,3A,D+*%
%TO.N,Net-(U1A-P5.5{slash}HP{slash}!A15{slash}XA)*%
X116280000Y-101500000D03*
%TO.P,J3,3B,D+*%
%TO.N,Net-(U1A-P5.1{slash}DP)*%
X112260000Y-101500000D03*
%TO.P,J3,4A,GND*%
%TO.N,GND*%
X116280000Y-104000000D03*
%TO.P,J3,4B,GND*%
X112260000Y-104000000D03*
D30*
%TO.P,J3,S,SHIELD*%
X115930000Y-93930000D03*
X110250000Y-93930000D03*
X115930000Y-107070000D03*
X110250000Y-107070000D03*
%TD*%
D13*
%TO.P,C6,1*%
%TO.N,GND*%
X132025000Y-113125000D03*
%TO.P,C6,2*%
%TO.N,+5V*%
X132025000Y-114675000D03*
%TD*%
D31*
%TO.N,+3.3V*%
X129550000Y-116200000D03*
X129550000Y-110325000D03*
%TO.N,GND*%
X119225000Y-101400000D03*
X157750003Y-82499989D03*
X158500003Y-118499989D03*
X128000000Y-82500000D03*
X145250000Y-118500000D03*
X127175000Y-96125000D03*
X122125000Y-100225000D03*
X101500000Y-82500000D03*
X114500000Y-82500000D03*
X123130000Y-108575000D03*
X104475000Y-114850000D03*
X134400000Y-112800000D03*
X106750000Y-96000000D03*
X147000000Y-91425000D03*
X134300000Y-102275000D03*
X130500003Y-118499989D03*
X101500003Y-118499989D03*
X128125000Y-103550000D03*
X132525000Y-97525000D03*
X119625000Y-93925000D03*
X134225000Y-95145200D03*
X115250000Y-118500000D03*
X134125000Y-108575000D03*
X144750000Y-82500000D03*
X127150000Y-92095200D03*
X128450000Y-100575000D03*
X147025000Y-108400000D03*
%TO.N,+5V*%
X139150000Y-110950000D03*
X139150000Y-108275000D03*
X146450000Y-109925000D03*
%TO.N,/DIN2-1*%
X126975000Y-104225000D03*
X135325000Y-106450000D03*
%TO.N,/DIN2-6*%
X129725000Y-104225000D03*
X133400000Y-105450000D03*
%TO.N,Net-(U1A-P3.4{slash}LEDC{slash}XCS0{slash}T0)*%
X126477400Y-99204800D03*
X126025000Y-96100000D03*
%TO.N,Net-(U1A-P5.1{slash}DP)*%
X122550000Y-103225000D03*
X125800000Y-102000000D03*
%TO.N,Net-(RN3-R4.2)*%
X124375000Y-96575000D03*
X125800000Y-99925000D03*
%TO.N,/DIN1-6*%
X149000000Y-86725000D03*
%TD*%
D32*
%TO.N,+3.3V*%
X100522600Y-111577400D02*
X100522600Y-114022600D01*
X101250000Y-110850000D02*
X100522600Y-111577400D01*
D33*
X130875000Y-108575000D02*
X129550000Y-108575000D01*
X129550000Y-110325000D02*
X130875000Y-109000000D01*
D32*
X100522600Y-114022600D02*
X102700000Y-116200000D01*
X102700000Y-116200000D02*
X129550000Y-116200000D01*
D33*
X130875000Y-109000000D02*
X130875000Y-108575000D01*
X128150000Y-105950000D02*
X128150000Y-107175000D01*
X129550000Y-108575000D02*
X128150000Y-107175000D01*
D34*
%TO.N,Net-(F1-Pad2)*%
X158550000Y-96625000D02*
X158550000Y-110575000D01*
X151500000Y-113672792D02*
X151500000Y-112400000D01*
X150472792Y-114700000D02*
X141950000Y-114700000D01*
X157325000Y-95400000D02*
X158550000Y-96625000D01*
X156725000Y-112400000D02*
X151500000Y-112400000D01*
X158550000Y-110575000D02*
X156725000Y-112400000D01*
X151500000Y-113672792D02*
X150472792Y-114700000D01*
X151500000Y-95400000D02*
X157325000Y-95400000D01*
%TO.N,GND*%
X110250000Y-107070000D02*
X115930000Y-107070000D01*
D33*
X127846342Y-96125000D02*
X127175000Y-96125000D01*
X127650000Y-96600000D02*
X127175000Y-96125000D01*
D34*
X108820000Y-93930000D02*
X106750000Y-96000000D01*
X110250000Y-93930000D02*
X115930000Y-93930000D01*
D33*
X127650000Y-97550000D02*
X127650000Y-96600000D01*
D32*
X123130000Y-108575000D02*
X126100000Y-108575000D01*
X126475000Y-93445200D02*
X128575000Y-93445200D01*
X126475000Y-92770200D02*
X126475000Y-93445200D01*
D34*
X115930000Y-107070000D02*
X115930000Y-108255000D01*
D32*
X130775000Y-95145200D02*
X132925000Y-95145200D01*
D34*
X119625000Y-93925000D02*
X119620000Y-93930000D01*
X110250000Y-93930000D02*
X108820000Y-93930000D01*
D32*
X127150000Y-92095200D02*
X126475000Y-92770200D01*
D33*
X128650000Y-96928658D02*
X127846342Y-96125000D01*
D34*
X112960000Y-104000000D02*
X115580000Y-104000000D01*
D33*
X128650000Y-97550000D02*
X128650000Y-96928658D01*
D32*
X127225000Y-92095200D02*
X128575000Y-93445200D01*
X134125000Y-108575000D02*
X132425000Y-108575000D01*
D34*
X119620000Y-93930000D02*
X115930000Y-93930000D01*
%TO.N,+5V*%
X127150000Y-114700000D02*
X128150000Y-114700000D01*
X127150000Y-114700000D02*
X127650000Y-114200000D01*
D35*
X150225000Y-94815876D02*
X149488524Y-94079400D01*
X150225000Y-95984124D02*
X150225000Y-94815876D01*
D33*
X139150000Y-110950000D02*
X139150000Y-114700000D01*
D35*
X139150000Y-107059124D02*
X150225000Y-95984124D01*
D33*
X145325000Y-107525000D02*
X145325000Y-109925000D01*
D34*
X128150000Y-114700000D02*
X127650000Y-114200000D01*
X128150000Y-114700000D02*
X136775000Y-114700000D01*
X108100000Y-114700000D02*
X127150000Y-114700000D01*
X107153100Y-100196900D02*
X107153100Y-113753100D01*
X112960000Y-97000000D02*
X110350000Y-97000000D01*
D35*
X139150000Y-107059124D02*
X139150000Y-108275000D01*
D34*
X112960000Y-97000000D02*
X115580000Y-97000000D01*
D35*
X145325000Y-93424736D02*
X145325000Y-90600000D01*
X145979664Y-94079400D02*
X145325000Y-93424736D01*
D33*
X146450000Y-109925000D02*
X145325000Y-109925000D01*
D34*
X107153100Y-113753100D02*
X108100000Y-114700000D01*
D35*
X149488524Y-94079400D02*
X145979664Y-94079400D01*
D33*
X127650000Y-105950000D02*
X127650000Y-108575000D01*
D34*
X110350000Y-97000000D02*
X107153100Y-100196900D01*
X127650000Y-114200000D02*
X127650000Y-108575000D01*
X136775000Y-114700000D02*
X139150000Y-114700000D01*
D33*
%TO.N,/DIN1-1*%
X130650000Y-96928658D02*
X130650000Y-97550000D01*
X143525000Y-90600000D02*
X139695096Y-90600000D01*
X143525000Y-90600000D02*
X143525000Y-88350000D01*
D32*
X151772600Y-86047600D02*
X145827400Y-86047600D01*
D33*
X134120096Y-96175000D02*
X131403658Y-96175000D01*
X131403658Y-96175000D02*
X130650000Y-96928658D01*
D32*
X152825000Y-90700000D02*
X153725000Y-89800000D01*
X153725000Y-88000000D02*
X151772600Y-86047600D01*
X145827400Y-86047600D02*
X143525000Y-88350000D01*
D33*
X139695096Y-90600000D02*
X134120096Y-96175000D01*
D32*
X153725000Y-89800000D02*
X153725000Y-88000000D01*
X151500000Y-90700000D02*
X152825000Y-90700000D01*
D33*
%TO.N,/DIN1-2*%
X144550000Y-88775000D02*
X145879000Y-87446000D01*
X149478003Y-87446000D02*
X150346000Y-88313997D01*
X143833000Y-92200000D02*
X144550000Y-91483000D01*
X143525000Y-92200000D02*
X143833000Y-92200000D01*
X150346000Y-88313997D02*
X150346000Y-92146000D01*
X139100884Y-92200000D02*
X132600000Y-98700884D01*
X132600000Y-98700884D02*
X132600000Y-99000000D01*
X144550000Y-91483000D02*
X144550000Y-88775000D01*
X143525000Y-92200000D02*
X139100884Y-92200000D01*
X150346000Y-92146000D02*
X151500000Y-93300000D01*
X145879000Y-87446000D02*
X149478003Y-87446000D01*
%TO.N,/DIN1-8*%
X134164389Y-97639389D02*
X134164389Y-98556953D01*
X138803778Y-93000000D02*
X134164389Y-97639389D01*
X145925000Y-95400000D02*
X149000000Y-95400000D01*
X133221342Y-99500000D02*
X132600000Y-99500000D01*
X143525000Y-93000000D02*
X138803778Y-93000000D01*
X143525000Y-93000000D02*
X145925000Y-95400000D01*
X134164389Y-98556953D02*
X133221342Y-99500000D01*
D32*
%TO.N,/DIN2-1*%
X150322600Y-104872600D02*
X150322600Y-106522600D01*
X149872600Y-104422600D02*
X150322600Y-104872600D01*
X137827400Y-108952400D02*
X135325000Y-106450000D01*
X150322600Y-106522600D02*
X151500000Y-107700000D01*
X146627400Y-104422600D02*
X149872600Y-104422600D01*
X143525000Y-107525000D02*
X146627400Y-104422600D01*
X143525000Y-107525000D02*
X140857989Y-107525000D01*
D33*
X126350000Y-104225000D02*
X126975000Y-104225000D01*
X125650000Y-104925000D02*
X126350000Y-104225000D01*
D32*
X140857989Y-107525000D02*
X139430589Y-108952400D01*
D33*
X125650000Y-105950000D02*
X125650000Y-104925000D01*
D32*
X139430589Y-108952400D02*
X137827400Y-108952400D01*
D33*
%TO.N,/DIN2-2*%
X125852894Y-103500000D02*
X126972294Y-102380600D01*
X124200000Y-103500000D02*
X125852894Y-103500000D01*
X131645600Y-105220600D02*
X131645600Y-109725000D01*
X142155600Y-110280600D02*
X144763524Y-112888524D01*
X145500000Y-111150000D02*
X150650000Y-111150000D01*
D35*
X147513524Y-112888524D02*
X148375000Y-113750000D01*
D33*
X131645600Y-109725000D02*
X132201200Y-110280600D01*
X144763524Y-112888524D02*
X147513524Y-112888524D01*
X150650000Y-111150000D02*
X151500000Y-110300000D01*
X132201200Y-110280600D02*
X142155600Y-110280600D01*
X143525000Y-109125000D02*
X144350000Y-109125000D01*
X150250000Y-113350000D02*
X149850000Y-113750000D01*
X128805600Y-102380600D02*
X131645600Y-105220600D01*
X149850000Y-113750000D02*
X148375000Y-113750000D01*
X144350000Y-110000000D02*
X145500000Y-111150000D01*
X144350000Y-109125000D02*
X144350000Y-110000000D01*
X150250000Y-111150000D02*
X150250000Y-113350000D01*
X126972294Y-102380600D02*
X128805600Y-102380600D01*
D35*
%TO.N,/DIN2-6*%
X146041200Y-105600000D02*
X149000000Y-105600000D01*
D33*
X128658306Y-102736200D02*
X129725000Y-103802894D01*
D35*
X139454897Y-109500000D02*
X137414183Y-109500000D01*
D33*
X125855788Y-104000000D02*
X127119588Y-102736200D01*
D35*
X143525000Y-108325000D02*
X140629897Y-108325000D01*
X144645600Y-107858400D02*
X144645600Y-106995600D01*
X137414183Y-109500000D02*
X133400000Y-105485817D01*
X133400000Y-105485817D02*
X133400000Y-105450000D01*
D33*
X127119588Y-102736200D02*
X128658306Y-102736200D01*
X124200000Y-104000000D02*
X125855788Y-104000000D01*
D35*
X140629897Y-108325000D02*
X139454897Y-109500000D01*
D33*
X129725000Y-103802894D02*
X129725000Y-104225000D01*
D35*
X143525000Y-108325000D02*
X144179000Y-108325000D01*
X144179000Y-108325000D02*
X144645600Y-107858400D01*
X144645600Y-106995600D02*
X146041200Y-105600000D01*
%TO.N,/DIN2-8*%
X146000000Y-112400000D02*
X149000000Y-112400000D01*
D33*
X126825000Y-102025000D02*
X129003658Y-102025000D01*
X136903658Y-109925000D02*
X143525000Y-109925000D01*
X124200000Y-103000000D02*
X125850000Y-103000000D01*
D35*
X143525000Y-109925000D02*
X146000000Y-112400000D01*
D33*
X129003658Y-102025000D02*
X136903658Y-109925000D01*
X125850000Y-103000000D02*
X126825000Y-102025000D01*
D32*
%TO.N,Net-(D1-R)*%
X102750000Y-113650000D02*
X103575000Y-112825000D01*
X101250000Y-113650000D02*
X102750000Y-113650000D01*
%TO.N,Net-(D1-G)*%
X101575000Y-112700000D02*
X102250000Y-112025000D01*
X102250000Y-112025000D02*
X103575000Y-112025000D01*
%TO.N,Net-(D1-B)*%
X102150000Y-111225000D02*
X103575000Y-111225000D01*
X101575000Y-111800000D02*
X102150000Y-111225000D01*
X103575000Y-110425000D02*
X103575000Y-111225000D01*
%TO.N,Net-(U1A-P3.4{slash}LEDC{slash}XCS0{slash}T0)*%
X102930000Y-86500000D02*
X105280000Y-88850000D01*
D33*
X128799896Y-100000000D02*
X132600000Y-100000000D01*
X126477400Y-99204800D02*
X128004696Y-99204800D01*
D32*
X124622496Y-95897600D02*
X125822600Y-95897600D01*
X117574896Y-88850000D02*
X124622496Y-95897600D01*
X105280000Y-88850000D02*
X117574896Y-88850000D01*
X125822600Y-95897600D02*
X126025000Y-96100000D01*
D33*
X128004696Y-99204800D02*
X128799896Y-100000000D01*
%TO.N,Net-(U1A-P4.6{slash}XI{slash}SCS_)*%
X129650000Y-97550000D02*
X129650000Y-95875000D01*
D32*
X132925000Y-93770200D02*
X131100000Y-93770200D01*
X129650000Y-94570200D02*
X130775000Y-93445200D01*
X129650000Y-95875000D02*
X129650000Y-94570200D01*
D33*
%TO.N,Net-(U1A-P4.7{slash}XO{slash}SCK_)*%
X129150000Y-97550000D02*
X129150000Y-95720200D01*
D32*
X126475000Y-95270200D02*
X128450000Y-95270200D01*
D33*
X129150000Y-95720200D02*
X128575000Y-95145200D01*
D32*
%TO.N,Net-(J4-Pin_3)*%
X135610000Y-103000000D02*
X132600000Y-103000000D01*
X136800000Y-104190000D02*
X135610000Y-103000000D01*
%TO.N,Net-(J4-Pin_2)*%
X136650000Y-101500000D02*
X132600000Y-101500000D01*
D35*
%TO.N,Net-(U1A-P5.4{slash}HM{slash}ALE{slash}XB)*%
X118925000Y-99500000D02*
X120925000Y-101500000D01*
X115580000Y-99500000D02*
X118925000Y-99500000D01*
X120925000Y-101500000D02*
X124200000Y-101500000D01*
D33*
%TO.N,Net-(U1A-P5.0{slash}DM)*%
X112960000Y-99500000D02*
X114325000Y-100865000D01*
X114804000Y-102504000D02*
X124196000Y-102504000D01*
X114325000Y-102025000D02*
X114804000Y-102504000D01*
X124196000Y-102504000D02*
X124200000Y-102500000D01*
X114325000Y-100865000D02*
X114325000Y-102025000D01*
%TO.N,Net-(U1A-P5.5{slash}HP{slash}!A15{slash}XA)*%
X114375000Y-100295000D02*
X114375000Y-98800000D01*
X115580000Y-101500000D02*
X114375000Y-100295000D01*
X114375000Y-98800000D02*
X114900000Y-98275000D01*
X114900000Y-98275000D02*
X118550000Y-98275000D01*
X121275000Y-101000000D02*
X124200000Y-101000000D01*
X118550000Y-98275000D02*
X121275000Y-101000000D01*
%TO.N,Net-(U1A-P5.1{slash}DP)*%
X114319600Y-102859600D02*
X122184600Y-102859600D01*
X122184600Y-102859600D02*
X122550000Y-103225000D01*
X112960000Y-101500000D02*
X114319600Y-102859600D01*
X124200000Y-102000000D02*
X125800000Y-102000000D01*
%TO.N,Net-(RN3-R3.2)*%
X121500000Y-99500000D02*
X124200000Y-99500000D01*
X106400000Y-98203916D02*
X108653916Y-95950000D01*
X106400000Y-111200000D02*
X106400000Y-98203916D01*
X105575000Y-112025000D02*
X106400000Y-111200000D01*
D32*
X105375000Y-112025000D02*
X105575000Y-112025000D01*
D33*
X117950000Y-95950000D02*
X121500000Y-99500000D01*
X108653916Y-95950000D02*
X117950000Y-95950000D01*
D32*
%TO.N,Net-(RN3-R1.2)*%
X118735589Y-91902600D02*
X125360389Y-98527400D01*
X105375000Y-110425000D02*
X105375000Y-95187823D01*
X129827035Y-98527400D02*
X130150000Y-98204435D01*
X105375000Y-95187823D02*
X108660223Y-91902600D01*
X108660223Y-91902600D02*
X118735589Y-91902600D01*
X130150000Y-98204435D02*
X130150000Y-97550000D01*
X125360389Y-98527400D02*
X129827035Y-98527400D01*
X105375000Y-111225000D02*
X105375000Y-110425000D01*
%TO.N,Net-(RN3-R4.2)*%
X125800000Y-99925000D02*
X124875000Y-99000000D01*
X108493544Y-91500199D02*
X119300199Y-91500199D01*
X105375000Y-112825000D02*
X105020200Y-112825000D01*
X105020200Y-112825000D02*
X104697600Y-112502400D01*
X104697600Y-95296143D02*
X108493544Y-91500199D01*
X124875000Y-99000000D02*
X124200000Y-99000000D01*
X104697600Y-112502400D02*
X104697600Y-95296143D01*
X119300199Y-91500199D02*
X124375000Y-96575000D01*
D33*
%TO.N,/DIN1-6*%
X144179000Y-88404000D02*
X144175000Y-88400000D01*
X132225000Y-96550000D02*
X131225000Y-97550000D01*
X131225000Y-97550000D02*
X131150000Y-97550000D01*
X143525000Y-91400000D02*
X139397990Y-91400000D01*
X134247990Y-96550000D02*
X132225000Y-96550000D01*
X143525000Y-91400000D02*
X144128200Y-91400000D01*
X139397990Y-91400000D02*
X134247990Y-96550000D01*
X144179000Y-91349200D02*
X144179000Y-88404000D01*
X144128200Y-91400000D02*
X144179000Y-91349200D01*
X145850000Y-86725000D02*
X149000000Y-86725000D01*
X144175000Y-88400000D02*
X145850000Y-86725000D01*
%TD*%
%TA.AperFunction,Conductor*%
%TO.N,GND*%
G36*
X159942121Y-81020002D02*
G01*
X159988614Y-81073658D01*
X160000000Y-81126000D01*
X160000000Y-119874000D01*
X159979998Y-119942121D01*
X159926342Y-119988614D01*
X159874000Y-120000000D01*
X100126000Y-120000000D01*
X100057879Y-119979998D01*
X100011386Y-119926342D01*
X100000000Y-119874000D01*
X100000000Y-115717922D01*
X100000000Y-114405936D01*
X100020002Y-114337818D01*
X100073658Y-114291325D01*
X100143932Y-114281221D01*
X100208512Y-114310715D01*
X100215095Y-114316844D01*
X102359515Y-116461263D01*
X102438737Y-116540485D01*
X102535763Y-116596503D01*
X102643982Y-116625500D01*
X128927520Y-116625500D01*
X128995641Y-116645502D01*
X129016026Y-116662971D01*
X129016112Y-116662875D01*
X129021816Y-116667928D01*
X129021817Y-116667929D01*
X129149148Y-116780734D01*
X129299775Y-116859790D01*
X129299776Y-116859790D01*
X129299778Y-116859791D01*
X129456461Y-116898409D01*
X129464944Y-116900500D01*
X129464947Y-116900500D01*
X129635053Y-116900500D01*
X129635056Y-116900500D01*
X129800225Y-116859790D01*
X129950852Y-116780734D01*
X130078183Y-116667929D01*
X130174818Y-116527930D01*
X130235140Y-116368872D01*
X130255645Y-116200000D01*
X130235140Y-116031128D01*
X130176119Y-115875500D01*
X130174820Y-115872074D01*
X130174818Y-115872070D01*
X130078184Y-115732072D01*
X130062212Y-115717922D01*
X130002826Y-115665311D01*
X129965102Y-115605168D01*
X129965882Y-115534176D01*
X130004920Y-115474875D01*
X130069820Y-115446093D01*
X130086381Y-115445000D01*
X136430519Y-115445000D01*
X136445542Y-115445899D01*
X136483856Y-115450500D01*
X136483859Y-115450500D01*
X137066141Y-115450500D01*
X137066144Y-115450500D01*
X137104458Y-115445899D01*
X137119481Y-115445000D01*
X138144808Y-115445000D01*
X138212929Y-115465002D01*
X138259422Y-115518658D01*
X138262023Y-115524777D01*
X138290637Y-115597339D01*
X138290641Y-115597345D01*
X138382077Y-115717922D01*
X138502654Y-115809358D01*
X138502658Y-115809361D01*
X138643435Y-115864877D01*
X138643434Y-115864877D01*
X138671394Y-115868234D01*
X138731898Y-115875500D01*
X138731901Y-115875500D01*
X139568099Y-115875500D01*
X139568102Y-115875500D01*
X139656564Y-115864877D01*
X139797342Y-115809361D01*
X139917922Y-115717922D01*
X140009361Y-115597342D01*
X140064877Y-115456564D01*
X140075500Y-115368102D01*
X140075500Y-114031898D01*
X140064877Y-113943436D01*
X140061549Y-113934998D01*
X140009361Y-113802658D01*
X140009358Y-113802654D01*
X139917922Y-113682077D01*
X139797345Y-113590641D01*
X139797341Y-113590638D01*
X139656564Y-113535122D01*
X139648735Y-113533144D01*
X139649505Y-113530097D01*
X139597769Y-113507875D01*
X139558040Y-113449035D01*
X139552100Y-113410803D01*
X139552100Y-111586336D01*
X139572102Y-111518215D01*
X139594545Y-111492025D01*
X139678183Y-111417929D01*
X139774818Y-111277930D01*
X139835140Y-111118872D01*
X139847791Y-111014683D01*
X139855645Y-110950002D01*
X139855645Y-110949996D01*
X139840333Y-110823887D01*
X139851978Y-110753852D01*
X139899639Y-110701231D01*
X139965414Y-110682700D01*
X141936855Y-110682700D01*
X142004976Y-110702702D01*
X142025950Y-110719605D01*
X144441763Y-113135418D01*
X144441764Y-113135419D01*
X144482056Y-113175711D01*
X144516630Y-113210285D01*
X144588032Y-113251509D01*
X144608319Y-113263222D01*
X144710586Y-113290624D01*
X147258857Y-113290624D01*
X147326978Y-113310626D01*
X147347953Y-113327529D01*
X147760328Y-113739905D01*
X147794353Y-113802217D01*
X147789288Y-113873033D01*
X147746741Y-113929868D01*
X147680221Y-113954679D01*
X147671232Y-113955000D01*
X142955192Y-113955000D01*
X142887071Y-113934998D01*
X142840578Y-113881342D01*
X142837977Y-113875223D01*
X142809362Y-113802660D01*
X142809358Y-113802654D01*
X142717922Y-113682077D01*
X142597345Y-113590641D01*
X142597341Y-113590638D01*
X142456564Y-113535122D01*
X142456565Y-113535122D01*
X142368105Y-113524500D01*
X142368102Y-113524500D01*
X141531898Y-113524500D01*
X141531894Y-113524500D01*
X141443435Y-113535122D01*
X141302658Y-113590638D01*
X141302654Y-113590641D01*
X141182077Y-113682077D01*
X141090641Y-113802654D01*
X141090638Y-113802658D01*
X141035122Y-113943435D01*
X141024500Y-114031894D01*
X141024500Y-115368100D01*
X141035122Y-115456564D01*
X141090638Y-115597341D01*
X141090641Y-115597345D01*
X141182077Y-115717922D01*
X141302654Y-115809358D01*
X141302658Y-115809361D01*
X141443435Y-115864877D01*
X141443434Y-115864877D01*
X141471394Y-115868234D01*
X141531898Y-115875500D01*
X141531901Y-115875500D01*
X142368099Y-115875500D01*
X142368102Y-115875500D01*
X142456564Y-115864877D01*
X142597342Y-115809361D01*
X142717922Y-115717922D01*
X142809361Y-115597342D01*
X142837977Y-115524776D01*
X142860367Y-115496000D01*
X151808113Y-115496000D01*
X153426518Y-115496000D01*
X153400000Y-115663428D01*
X153400000Y-115836572D01*
X153426518Y-116004000D01*
X151808113Y-116004000D01*
X151826355Y-116142574D01*
X151826356Y-116142577D01*
X151894484Y-116396835D01*
X151995216Y-116640023D01*
X151995221Y-116640034D01*
X152126823Y-116867975D01*
X152287066Y-117076807D01*
X152287075Y-117076818D01*
X152473181Y-117262924D01*
X152473192Y-117262933D01*
X152682024Y-117423176D01*
X152909965Y-117554778D01*
X152909976Y-117554783D01*
X153153164Y-117655515D01*
X153407424Y-117723644D01*
X153668386Y-117757999D01*
X153668396Y-117758000D01*
X154246000Y-117758000D01*
X154246000Y-116823481D01*
X154413428Y-116850000D01*
X154586572Y-116850000D01*
X154754000Y-116823481D01*
X154754000Y-117758000D01*
X155331604Y-117758000D01*
X155331613Y-117757999D01*
X155592575Y-117723644D01*
X155846835Y-117655515D01*
X156090023Y-117554783D01*
X156090034Y-117554778D01*
X156317975Y-117423176D01*
X156526807Y-117262933D01*
X156526818Y-117262924D01*
X156712924Y-117076818D01*
X156712933Y-117076807D01*
X156873176Y-116867975D01*
X157004778Y-116640034D01*
X157004783Y-116640023D01*
X157105515Y-116396835D01*
X157173643Y-116142577D01*
X157173644Y-116142574D01*
X157191887Y-116004000D01*
X155573482Y-116004000D01*
X155600000Y-115836572D01*
X155600000Y-115663428D01*
X155573482Y-115496000D01*
X157191887Y-115496000D01*
X157173644Y-115357425D01*
X157173643Y-115357422D01*
X157105515Y-115103164D01*
X157004783Y-114859976D01*
X157004778Y-114859965D01*
X156873176Y-114632024D01*
X156712933Y-114423192D01*
X156712924Y-114423181D01*
X156526818Y-114237075D01*
X156526807Y-114237066D01*
X156317975Y-114076823D01*
X156090034Y-113945221D01*
X156090023Y-113945216D01*
X155846835Y-113844484D01*
X155592575Y-113776355D01*
X155331613Y-113742000D01*
X154754000Y-113742000D01*
X154754000Y-114676518D01*
X154586572Y-114650000D01*
X154413428Y-114650000D01*
X154246000Y-114676518D01*
X154246000Y-113742000D01*
X153668386Y-113742000D01*
X153407424Y-113776355D01*
X153153164Y-113844484D01*
X152909976Y-113945216D01*
X152909965Y-113945221D01*
X152682024Y-114076823D01*
X152473192Y-114237066D01*
X152473181Y-114237075D01*
X152287075Y-114423181D01*
X152287066Y-114423192D01*
X152126823Y-114632024D01*
X151995221Y-114859965D01*
X151995216Y-114859976D01*
X151894484Y-115103164D01*
X151826356Y-115357422D01*
X151826355Y-115357425D01*
X151808113Y-115496000D01*
X142860367Y-115496000D01*
X142881575Y-115468743D01*
X142948545Y-115445175D01*
X142955192Y-115445000D01*
X150546167Y-115445000D01*
X150546168Y-115445000D01*
X150690101Y-115416371D01*
X150806631Y-115368102D01*
X150825682Y-115360211D01*
X150947702Y-115278679D01*
X151051471Y-115174910D01*
X152078679Y-114147702D01*
X152115841Y-114092085D01*
X152160211Y-114025682D01*
X152216370Y-113890101D01*
X152245000Y-113746168D01*
X152245000Y-113400949D01*
X152265002Y-113332828D01*
X152286112Y-113307836D01*
X152390981Y-113212236D01*
X152403945Y-113195069D01*
X152460958Y-113152761D01*
X152504496Y-113145000D01*
X156798375Y-113145000D01*
X156798376Y-113145000D01*
X156942309Y-113116371D01*
X157038178Y-113076659D01*
X157077890Y-113060211D01*
X157199910Y-112978679D01*
X157303679Y-112874910D01*
X159128679Y-111049910D01*
X159134140Y-111041735D01*
X159144989Y-111025501D01*
X159144989Y-111025500D01*
X159152217Y-111014683D01*
X159210211Y-110927890D01*
X159251381Y-110828497D01*
X159266371Y-110792309D01*
X159295000Y-110648376D01*
X159295000Y-110501624D01*
X159295000Y-96551624D01*
X159282685Y-96489711D01*
X159266371Y-96407692D01*
X159258630Y-96389005D01*
X159221970Y-96300500D01*
X159221969Y-96300497D01*
X159210211Y-96272111D01*
X159210211Y-96272110D01*
X159128679Y-96150090D01*
X159024910Y-96046321D01*
X158413784Y-95435195D01*
X157799918Y-94821328D01*
X157799904Y-94821316D01*
X157793519Y-94817050D01*
X157677889Y-94739788D01*
X157677887Y-94739787D01*
X157638178Y-94723340D01*
X157603151Y-94708831D01*
X157542313Y-94683630D01*
X157542309Y-94683629D01*
X157517776Y-94678749D01*
X157398381Y-94655000D01*
X157398376Y-94655000D01*
X156586037Y-94655000D01*
X156517916Y-94634998D01*
X156471423Y-94581342D01*
X156461319Y-94511068D01*
X156490813Y-94446488D01*
X156534325Y-94414101D01*
X156560760Y-94402203D01*
X156560771Y-94402197D01*
X156841127Y-94232716D01*
X157027495Y-94086705D01*
X157027496Y-94086705D01*
X155879461Y-92938670D01*
X156016602Y-92839033D01*
X156139033Y-92716602D01*
X156238670Y-92579461D01*
X157386705Y-93727496D01*
X157386705Y-93727495D01*
X157532716Y-93541127D01*
X157702196Y-93260772D01*
X157836651Y-92962024D01*
X157934117Y-92649247D01*
X157934119Y-92649238D01*
X157993169Y-92327010D01*
X157993170Y-92327007D01*
X158012950Y-92000001D01*
X158012950Y-91999998D01*
X157993170Y-91672992D01*
X157993169Y-91672989D01*
X157934119Y-91350761D01*
X157934117Y-91350752D01*
X157836651Y-91037975D01*
X157702196Y-90739227D01*
X157532717Y-90458874D01*
X157532714Y-90458869D01*
X157386706Y-90272503D01*
X157386705Y-90272502D01*
X156238669Y-91420537D01*
X156139033Y-91283398D01*
X156016602Y-91160967D01*
X155879460Y-91061328D01*
X157027496Y-89913293D01*
X157027495Y-89913292D01*
X156841130Y-89767285D01*
X156841125Y-89767282D01*
X156560772Y-89597803D01*
X156262024Y-89463348D01*
X155949247Y-89365882D01*
X155949238Y-89365880D01*
X155627010Y-89306830D01*
X155627007Y-89306829D01*
X155300001Y-89287050D01*
X155299999Y-89287050D01*
X154972992Y-89306829D01*
X154972989Y-89306830D01*
X154650761Y-89365880D01*
X154650752Y-89365882D01*
X154337968Y-89463350D01*
X154328208Y-89467743D01*
X154257879Y-89477458D01*
X154193462Y-89447609D01*
X154155409Y-89387671D01*
X154150500Y-89352842D01*
X154150500Y-87943983D01*
X154144545Y-87921758D01*
X154121503Y-87835763D01*
X154072532Y-87750943D01*
X154065487Y-87738740D01*
X154065483Y-87738735D01*
X154026463Y-87699715D01*
X153986263Y-87659515D01*
X153799843Y-87473095D01*
X153765817Y-87410783D01*
X153770882Y-87339968D01*
X153813429Y-87283132D01*
X153879949Y-87258321D01*
X153888938Y-87258000D01*
X154246000Y-87258000D01*
X154246000Y-86323481D01*
X154413428Y-86350000D01*
X154586572Y-86350000D01*
X154754000Y-86323481D01*
X154754000Y-87258000D01*
X155331604Y-87258000D01*
X155331613Y-87257999D01*
X155592575Y-87223644D01*
X155846835Y-87155515D01*
X156090023Y-87054783D01*
X156090034Y-87054778D01*
X156317975Y-86923176D01*
X156526807Y-86762933D01*
X156526818Y-86762924D01*
X156712924Y-86576818D01*
X156712933Y-86576807D01*
X156873176Y-86367975D01*
X157004778Y-86140034D01*
X157004783Y-86140023D01*
X157105515Y-85896835D01*
X157173643Y-85642577D01*
X157173644Y-85642574D01*
X157191887Y-85504000D01*
X155573482Y-85504000D01*
X155600000Y-85336572D01*
X155600000Y-85163428D01*
X155573482Y-84996000D01*
X157191887Y-84996000D01*
X157173644Y-84857425D01*
X157173643Y-84857422D01*
X157105515Y-84603164D01*
X157004783Y-84359976D01*
X157004778Y-84359965D01*
X156873176Y-84132024D01*
X156712933Y-83923192D01*
X156712924Y-83923181D01*
X156526818Y-83737075D01*
X156526807Y-83737066D01*
X156317975Y-83576823D01*
X156090034Y-83445221D01*
X156090023Y-83445216D01*
X155846835Y-83344484D01*
X155592575Y-83276355D01*
X155331613Y-83242000D01*
X154754000Y-83242000D01*
X154754000Y-84176518D01*
X154586572Y-84150000D01*
X154413428Y-84150000D01*
X154246000Y-84176518D01*
X154246000Y-83242000D01*
X153668386Y-83242000D01*
X153407424Y-83276355D01*
X153153164Y-83344484D01*
X152909976Y-83445216D01*
X152909965Y-83445221D01*
X152682024Y-83576823D01*
X152473192Y-83737066D01*
X152473181Y-83737075D01*
X152287075Y-83923181D01*
X152287066Y-83923192D01*
X152126823Y-84132024D01*
X151995221Y-84359965D01*
X151995216Y-84359976D01*
X151894484Y-84603164D01*
X151826356Y-84857422D01*
X151826355Y-84857425D01*
X151808113Y-84996000D01*
X153426518Y-84996000D01*
X153400000Y-85163428D01*
X153400000Y-85336572D01*
X153426518Y-85504000D01*
X151808113Y-85504000D01*
X151799595Y-85513712D01*
X151793967Y-85549804D01*
X151746838Y-85602902D01*
X151679985Y-85622100D01*
X145883418Y-85622100D01*
X145771381Y-85622100D01*
X145697647Y-85641857D01*
X145697646Y-85641856D01*
X145663169Y-85651095D01*
X145663164Y-85651096D01*
X145663163Y-85651097D01*
X145663162Y-85651097D01*
X145663158Y-85651099D01*
X145566140Y-85707112D01*
X145566135Y-85707116D01*
X145542016Y-85731236D01*
X145486915Y-85786337D01*
X145486913Y-85786339D01*
X143184520Y-88088730D01*
X143184512Y-88088740D01*
X143128499Y-88185758D01*
X143128496Y-88185765D01*
X143114588Y-88237671D01*
X143099500Y-88293982D01*
X143099500Y-88406018D01*
X143117083Y-88471640D01*
X143118607Y-88477326D01*
X143122900Y-88509937D01*
X143122900Y-89940336D01*
X143102898Y-90008457D01*
X143049242Y-90054950D01*
X143047794Y-90055600D01*
X142952235Y-90097793D01*
X142952232Y-90097795D01*
X142889033Y-90160995D01*
X142826721Y-90195021D01*
X142799938Y-90197900D01*
X139642157Y-90197900D01*
X139582451Y-90213898D01*
X139582450Y-90213897D01*
X139539889Y-90225302D01*
X139448204Y-90278236D01*
X139448194Y-90278244D01*
X134112991Y-95613448D01*
X134050679Y-95647474D01*
X133979864Y-95642409D01*
X133923028Y-95599862D01*
X133898217Y-95533342D01*
X133898549Y-95511545D01*
X133908000Y-95419051D01*
X133908000Y-95399200D01*
X130647000Y-95399200D01*
X130578879Y-95379198D01*
X130532386Y-95325542D01*
X130521000Y-95273200D01*
X130521000Y-95017200D01*
X130541002Y-94949079D01*
X130594658Y-94902586D01*
X130647000Y-94891200D01*
X133908000Y-94891200D01*
X133908000Y-94871347D01*
X133897744Y-94770970D01*
X133897742Y-94770958D01*
X133843847Y-94608315D01*
X133753890Y-94462471D01*
X133753885Y-94462465D01*
X133632734Y-94341314D01*
X133632725Y-94341307D01*
X133619045Y-94332869D01*
X133571567Y-94280083D01*
X133560165Y-94210008D01*
X133584797Y-94149494D01*
X133595861Y-94134905D01*
X133637364Y-94080175D01*
X133690359Y-93945790D01*
X133700500Y-93861344D01*
X133700500Y-93329056D01*
X133690359Y-93244610D01*
X133683278Y-93226655D01*
X133637364Y-93110225D01*
X133637361Y-93110221D01*
X133550078Y-92995121D01*
X133434978Y-92907838D01*
X133434974Y-92907835D01*
X133300590Y-92854840D01*
X133300591Y-92854840D01*
X133216146Y-92844700D01*
X133216144Y-92844700D01*
X132633856Y-92844700D01*
X132633853Y-92844700D01*
X132549409Y-92854840D01*
X132415025Y-92907835D01*
X132415021Y-92907838D01*
X132299921Y-92995121D01*
X132212638Y-93110221D01*
X132212635Y-93110225D01*
X132159639Y-93244612D01*
X132158385Y-93249576D01*
X132122300Y-93310718D01*
X132058888Y-93342646D01*
X132036227Y-93344700D01*
X131901499Y-93344700D01*
X131833378Y-93324698D01*
X131786885Y-93271042D01*
X131775499Y-93218700D01*
X131775499Y-92800340D01*
X131775499Y-92800336D01*
X131772585Y-92775209D01*
X131741645Y-92705136D01*
X131727206Y-92672434D01*
X131647767Y-92592995D01*
X131647765Y-92592994D01*
X131544989Y-92547614D01*
X131544990Y-92547614D01*
X131519868Y-92544700D01*
X130030140Y-92544700D01*
X130030133Y-92544701D01*
X130005009Y-92547614D01*
X130005005Y-92547616D01*
X129902234Y-92592993D01*
X129902232Y-92592995D01*
X129901275Y-92593953D01*
X129899106Y-92595136D01*
X129892603Y-92599592D01*
X129892152Y-92598933D01*
X129838961Y-92627975D01*
X129768145Y-92622906D01*
X129711316Y-92580362D01*
X129637904Y-92482295D01*
X129520965Y-92394755D01*
X129384093Y-92343705D01*
X129323597Y-92337200D01*
X128829000Y-92337200D01*
X128829000Y-93573200D01*
X128808998Y-93641321D01*
X128755342Y-93687814D01*
X128703000Y-93699200D01*
X125492000Y-93699200D01*
X125492000Y-93719052D01*
X125502255Y-93819429D01*
X125502257Y-93819441D01*
X125556152Y-93982084D01*
X125646109Y-94127928D01*
X125646114Y-94127934D01*
X125767265Y-94249085D01*
X125767274Y-94249092D01*
X125780952Y-94257529D01*
X125828431Y-94310315D01*
X125839834Y-94380389D01*
X125815204Y-94440904D01*
X125762635Y-94510225D01*
X125709640Y-94644609D01*
X125699500Y-94729053D01*
X125699500Y-95261346D01*
X125707874Y-95331077D01*
X125696137Y-95401097D01*
X125648407Y-95453655D01*
X125582773Y-95472100D01*
X124850934Y-95472100D01*
X124782813Y-95452098D01*
X124761839Y-95435195D01*
X122497991Y-93171347D01*
X125492000Y-93171347D01*
X125492000Y-93191200D01*
X126221000Y-93191200D01*
X126221000Y-92487200D01*
X126729000Y-92487200D01*
X126729000Y-93191200D01*
X128321000Y-93191200D01*
X128321000Y-92337200D01*
X127826402Y-92337200D01*
X127765906Y-92343705D01*
X127629035Y-92394755D01*
X127629034Y-92394755D01*
X127512095Y-92482295D01*
X127424555Y-92599234D01*
X127424553Y-92599239D01*
X127415945Y-92622317D01*
X127373397Y-92679151D01*
X127306876Y-92703960D01*
X127237502Y-92688867D01*
X127208796Y-92667376D01*
X127182734Y-92641314D01*
X127182728Y-92641309D01*
X127036884Y-92551352D01*
X126874241Y-92497457D01*
X126874229Y-92497455D01*
X126773852Y-92487200D01*
X126729000Y-92487200D01*
X126221000Y-92487200D01*
X126176147Y-92487200D01*
X126075770Y-92497455D01*
X126075758Y-92497457D01*
X125913115Y-92551352D01*
X125767271Y-92641309D01*
X125767265Y-92641314D01*
X125646114Y-92762465D01*
X125646109Y-92762471D01*
X125556152Y-92908315D01*
X125502257Y-93070958D01*
X125502255Y-93070970D01*
X125492000Y-93171347D01*
X122497991Y-93171347D01*
X119401480Y-90074835D01*
X121510988Y-90074835D01*
X121511057Y-90084717D01*
X121513702Y-90209094D01*
X121513701Y-90209094D01*
X122590761Y-90210296D01*
X123667821Y-90211498D01*
X125821938Y-90213898D01*
X125789893Y-90150275D01*
X125789221Y-90148920D01*
X125783691Y-90137602D01*
X125782431Y-90134946D01*
X125777570Y-90124379D01*
X125776374Y-90121697D01*
X125772087Y-90111775D01*
X125770883Y-90108891D01*
X125767347Y-90100105D01*
X125766020Y-90096661D01*
X125763637Y-90090186D01*
X125757000Y-90063406D01*
X125756995Y-90063368D01*
X125756635Y-90060684D01*
X125756053Y-90057604D01*
X125755260Y-90054163D01*
X125754268Y-90050396D01*
X125753090Y-90046339D01*
X125751737Y-90042025D01*
X125750222Y-90037490D01*
X125746750Y-90027897D01*
X125742772Y-90017839D01*
X125738384Y-90007596D01*
X125736066Y-90002492D01*
X125733681Y-89997447D01*
X125729344Y-89988205D01*
X125728392Y-89986126D01*
X125724469Y-89977333D01*
X125723690Y-89975544D01*
X125719930Y-89966708D01*
X125719103Y-89964718D01*
X125718908Y-89964237D01*
X125715642Y-89956179D01*
X125714885Y-89954259D01*
X125711898Y-89946480D01*
X125710998Y-89944057D01*
X125708779Y-89937868D01*
X125707606Y-89934438D01*
X125706494Y-89931024D01*
X125704833Y-89925497D01*
X125704155Y-89923037D01*
X125703526Y-89920664D01*
X125703107Y-89919013D01*
X125702284Y-89916115D01*
X125701366Y-89913172D01*
X125700364Y-89910205D01*
X125699287Y-89907236D01*
X125698144Y-89904286D01*
X125695700Y-89898527D01*
X125694418Y-89895760D01*
X125693109Y-89893097D01*
X125691781Y-89890559D01*
X125691780Y-89890557D01*
X125691771Y-89890540D01*
X125690445Y-89888165D01*
X125689124Y-89885963D01*
X125689118Y-89885955D01*
X125689111Y-89885942D01*
X125687788Y-89883906D01*
X125686485Y-89882079D01*
X125686481Y-89882074D01*
X125685967Y-89881353D01*
X125676479Y-89865776D01*
X125673799Y-89860560D01*
X125673042Y-89859086D01*
X125671768Y-89856534D01*
X125666702Y-89846076D01*
X125665830Y-89844235D01*
X125665424Y-89843360D01*
X125659944Y-89831544D01*
X125659239Y-89829996D01*
X125652714Y-89815399D01*
X125652250Y-89814345D01*
X125645419Y-89798539D01*
X125644937Y-89797403D01*
X125637865Y-89780470D01*
X125637863Y-89780465D01*
X125637863Y-89780464D01*
X125637855Y-89780447D01*
X125630558Y-89762958D01*
X125629703Y-89760974D01*
X125625442Y-89751082D01*
X125623278Y-89746057D01*
X125617369Y-89732771D01*
X125616240Y-89730231D01*
X125616216Y-89730178D01*
X125609566Y-89715730D01*
X125603519Y-89703124D01*
X125598268Y-89692769D01*
X125596180Y-89689001D01*
X125594013Y-89685089D01*
X125594009Y-89685084D01*
X125594006Y-89685077D01*
X125592306Y-89682358D01*
X125592295Y-89682344D01*
X125591081Y-89680543D01*
X125591144Y-89680500D01*
X125591140Y-89680493D01*
X125591225Y-89680439D01*
X125582274Y-89665771D01*
X125581836Y-89664900D01*
X125579918Y-89660921D01*
X125577786Y-89656291D01*
X125575942Y-89652082D01*
X125572488Y-89643794D01*
X125569017Y-89635463D01*
X125567448Y-89631510D01*
X125559752Y-89611096D01*
X125558602Y-89607917D01*
X125550753Y-89585231D01*
X125549723Y-89582121D01*
X125546376Y-89571562D01*
X125542447Y-89559171D01*
X125541392Y-89555663D01*
X125535130Y-89533689D01*
X125534243Y-89530406D01*
X125531977Y-89521547D01*
X125531291Y-89518729D01*
X125529047Y-89509034D01*
X125529041Y-89509007D01*
X125527922Y-89505021D01*
X125525487Y-89496344D01*
X125525484Y-89496337D01*
X125525481Y-89496324D01*
X125519660Y-89480205D01*
X125511817Y-89461095D01*
X125502189Y-89439441D01*
X125478531Y-89390287D01*
X125450593Y-89336314D01*
X125420279Y-89281093D01*
X125389493Y-89228194D01*
X125360141Y-89181188D01*
X125346598Y-89161011D01*
X125346582Y-89160987D01*
X125334149Y-89143675D01*
X125331129Y-89139591D01*
X125313292Y-89115470D01*
X125312524Y-89114418D01*
X125293409Y-89087901D01*
X125292385Y-89086460D01*
X125284224Y-89074797D01*
X125276831Y-89064230D01*
X125275648Y-89062508D01*
X125270657Y-89055112D01*
X125269211Y-89052921D01*
X125268142Y-89051264D01*
X125265686Y-89047455D01*
X125264964Y-89046322D01*
X125257873Y-89035059D01*
X125250689Y-89024062D01*
X125243724Y-89013847D01*
X125236926Y-89004360D01*
X125230254Y-88995559D01*
X125223681Y-88987418D01*
X125223676Y-88987413D01*
X125223667Y-88987401D01*
X125217111Y-88979831D01*
X125210544Y-88972807D01*
X125203923Y-88966283D01*
X125203912Y-88966273D01*
X125197244Y-88960249D01*
X125197223Y-88960231D01*
X125197202Y-88960212D01*
X125190335Y-88954549D01*
X125183279Y-88949246D01*
X125175987Y-88944259D01*
X125172274Y-88941945D01*
X125168413Y-88939538D01*
X125160528Y-88935048D01*
X125152365Y-88930781D01*
X125143541Y-88926213D01*
X125141008Y-88924864D01*
X125133455Y-88920733D01*
X125131124Y-88919426D01*
X125123558Y-88915077D01*
X125121275Y-88913733D01*
X125114260Y-88909502D01*
X125111800Y-88907979D01*
X125105840Y-88904195D01*
X125102911Y-88902278D01*
X125099828Y-88900198D01*
X125098691Y-88899431D01*
X125094804Y-88896700D01*
X125093190Y-88895520D01*
X125086747Y-88890396D01*
X125086718Y-88890432D01*
X125085571Y-88889487D01*
X125077852Y-88883427D01*
X125077833Y-88883414D01*
X125066470Y-88875832D01*
X125066446Y-88875817D01*
X125034630Y-88856990D01*
X125013125Y-88845319D01*
X124994076Y-88834980D01*
X124979457Y-88827494D01*
X124948668Y-88811727D01*
X124922986Y-88799236D01*
X124902371Y-88789209D01*
X124859171Y-88769415D01*
X124822907Y-88754264D01*
X124822882Y-88754254D01*
X124809269Y-88749287D01*
X124808620Y-88749050D01*
X124808615Y-88749048D01*
X124808600Y-88749043D01*
X124797544Y-88745735D01*
X124789650Y-88743561D01*
X124784751Y-88742104D01*
X124776791Y-88739560D01*
X124773385Y-88738418D01*
X124762970Y-88734759D01*
X124760273Y-88733777D01*
X124748505Y-88729339D01*
X124746151Y-88728424D01*
X124733772Y-88723470D01*
X124731509Y-88722539D01*
X124719129Y-88717301D01*
X124716730Y-88716257D01*
X124705015Y-88711011D01*
X124702290Y-88709751D01*
X124690176Y-88703976D01*
X124676828Y-88697646D01*
X124665629Y-88692701D01*
X124662262Y-88691214D01*
X124651354Y-88686691D01*
X124647062Y-88684912D01*
X124631702Y-88678922D01*
X124616645Y-88673415D01*
X124602345Y-88668565D01*
X124589237Y-88664537D01*
X124577755Y-88661501D01*
X124574136Y-88660593D01*
X124570911Y-88659739D01*
X124568573Y-88659086D01*
X124565669Y-88658237D01*
X124563000Y-88657422D01*
X124560353Y-88656582D01*
X124559697Y-88656365D01*
X124558065Y-88655827D01*
X124554299Y-88654518D01*
X124547598Y-88652069D01*
X124542792Y-88650200D01*
X124537077Y-88647842D01*
X124532152Y-88645686D01*
X124526624Y-88643124D01*
X124522537Y-88641140D01*
X124521415Y-88640570D01*
X124518472Y-88639026D01*
X124518040Y-88638792D01*
X124499615Y-88626610D01*
X124495777Y-88623557D01*
X124489022Y-88618572D01*
X124482308Y-88613899D01*
X124481594Y-88613402D01*
X124473716Y-88608191D01*
X124472604Y-88607490D01*
X124465642Y-88603100D01*
X124457626Y-88598297D01*
X124449859Y-88593907D01*
X124442647Y-88590121D01*
X124442636Y-88590111D01*
X124442635Y-88590115D01*
X124442627Y-88590111D01*
X124439011Y-88588212D01*
X124435377Y-88586304D01*
X124431040Y-88583917D01*
X124426275Y-88581171D01*
X124421950Y-88578561D01*
X124417568Y-88575796D01*
X124413231Y-88572933D01*
X124409186Y-88570141D01*
X124404917Y-88567061D01*
X124404008Y-88566375D01*
X124401192Y-88564252D01*
X124396955Y-88560911D01*
X124393557Y-88558112D01*
X124389385Y-88554517D01*
X124386289Y-88551729D01*
X124382203Y-88547881D01*
X124379407Y-88545128D01*
X124375417Y-88541017D01*
X124372893Y-88538295D01*
X124369040Y-88533942D01*
X124366730Y-88531208D01*
X124363040Y-88526628D01*
X124360969Y-88523931D01*
X124357450Y-88519117D01*
X124355568Y-88516410D01*
X124352283Y-88511439D01*
X124352167Y-88511255D01*
X124350575Y-88508715D01*
X124347495Y-88503530D01*
X124345949Y-88500780D01*
X124343117Y-88495442D01*
X124342666Y-88494541D01*
X125598793Y-88494541D01*
X125599312Y-88515771D01*
X125599313Y-88515785D01*
X125601648Y-88535521D01*
X125605805Y-88553813D01*
X125605806Y-88553820D01*
X125611783Y-88570717D01*
X125611785Y-88570722D01*
X125619595Y-88586316D01*
X125619605Y-88586332D01*
X125629237Y-88600680D01*
X125629242Y-88600687D01*
X125629244Y-88600689D01*
X125640732Y-88613900D01*
X125654066Y-88626027D01*
X125654072Y-88626031D01*
X125654074Y-88626033D01*
X125666433Y-88635081D01*
X125669251Y-88637144D01*
X125685714Y-88646526D01*
X125707844Y-88656859D01*
X125734912Y-88667940D01*
X125766189Y-88679565D01*
X125766194Y-88679566D01*
X125766203Y-88679570D01*
X125788834Y-88687105D01*
X125838454Y-88703627D01*
X125918807Y-88727413D01*
X126001416Y-88749287D01*
X126080449Y-88767615D01*
X126116801Y-88774939D01*
X126150072Y-88780764D01*
X126166485Y-88783060D01*
X126179496Y-88784881D01*
X126179506Y-88784882D01*
X126179534Y-88784886D01*
X126204456Y-88787100D01*
X126256531Y-88789871D01*
X126281122Y-88721844D01*
X126323089Y-88664583D01*
X126389355Y-88639100D01*
X126455851Y-88651926D01*
X126473248Y-88660604D01*
X126477041Y-88662578D01*
X126481424Y-88664955D01*
X126530172Y-88712808D01*
X126530427Y-88712658D01*
X126535542Y-88721344D01*
X126536209Y-88722439D01*
X126540595Y-88729638D01*
X126545798Y-88737911D01*
X126545923Y-88738109D01*
X126545965Y-88738254D01*
X126546000Y-88738233D01*
X126558712Y-88758498D01*
X126559393Y-88759597D01*
X126574284Y-88783886D01*
X126574782Y-88784705D01*
X126590480Y-88810753D01*
X126591014Y-88811647D01*
X126605515Y-88836166D01*
X126611043Y-88845319D01*
X126612800Y-88848228D01*
X126614034Y-88850164D01*
X126620965Y-88861041D01*
X126629748Y-88874235D01*
X126637017Y-88884738D01*
X126638873Y-88887419D01*
X126648060Y-88900198D01*
X126657033Y-88912177D01*
X126657044Y-88912191D01*
X126657053Y-88912203D01*
X126665499Y-88922948D01*
X126669286Y-88927467D01*
X126693816Y-88973624D01*
X126694813Y-88977097D01*
X126697186Y-88986801D01*
X126698596Y-88993745D01*
X126698666Y-88994090D01*
X126700075Y-89002482D01*
X126701371Y-89012199D01*
X126702136Y-89019597D01*
X126703000Y-89031321D01*
X126703313Y-89037935D01*
X126703593Y-89051264D01*
X126703575Y-89057321D01*
X126703178Y-89071982D01*
X126702900Y-89077605D01*
X126701774Y-89093269D01*
X126701274Y-89098622D01*
X126699391Y-89115005D01*
X126698692Y-89120149D01*
X126696039Y-89137057D01*
X126695137Y-89142128D01*
X126691728Y-89159251D01*
X126690616Y-89164296D01*
X126686463Y-89181451D01*
X126685120Y-89186531D01*
X126680247Y-89203527D01*
X126678629Y-89208740D01*
X126672195Y-89227990D01*
X126659019Y-89267876D01*
X126638346Y-89334164D01*
X126613067Y-89417438D01*
X126613023Y-89417587D01*
X126585854Y-89509009D01*
X126582352Y-89520717D01*
X126554407Y-89614129D01*
X126554172Y-89614905D01*
X126516926Y-89736555D01*
X126516734Y-89737177D01*
X126478487Y-89859829D01*
X126478257Y-89860560D01*
X126443374Y-89970074D01*
X126443274Y-89970386D01*
X126389222Y-90138565D01*
X126366692Y-90210581D01*
X126368710Y-90210671D01*
X126381362Y-90211240D01*
X126423404Y-90211854D01*
X126577813Y-90212897D01*
X127085399Y-90213859D01*
X127085519Y-90213859D01*
X127804105Y-90213859D01*
X127805046Y-90208459D01*
X127809505Y-90182900D01*
X127809580Y-90182473D01*
X127818038Y-90134946D01*
X127874950Y-89815134D01*
X127952559Y-89389945D01*
X127974247Y-89269343D01*
X127974493Y-89267876D01*
X127984817Y-89206152D01*
X127991606Y-89165569D01*
X128004724Y-89077799D01*
X128013689Y-89005209D01*
X128018586Y-88946975D01*
X128019456Y-88904650D01*
X128019505Y-88902278D01*
X128019386Y-88900198D01*
X128018500Y-88884738D01*
X128016532Y-88870277D01*
X128013613Y-88858787D01*
X128009754Y-88850164D01*
X128008380Y-88848127D01*
X128006251Y-88845327D01*
X128006245Y-88845319D01*
X127999910Y-88837637D01*
X127991082Y-88827483D01*
X127980203Y-88815348D01*
X127980197Y-88815342D01*
X127980150Y-88815289D01*
X127972825Y-88807291D01*
X127967456Y-88801429D01*
X127958667Y-88791998D01*
X127953340Y-88786281D01*
X127938188Y-88770267D01*
X127922349Y-88753775D01*
X127907231Y-88737894D01*
X127905532Y-88736073D01*
X127893062Y-88722439D01*
X127890938Y-88720057D01*
X127880539Y-88708083D01*
X127877952Y-88705005D01*
X127869555Y-88694673D01*
X127866414Y-88690642D01*
X127864790Y-88688468D01*
X127860063Y-88682138D01*
X127856385Y-88676944D01*
X127851956Y-88670341D01*
X127847855Y-88663802D01*
X127845121Y-88659130D01*
X127840813Y-88651115D01*
X127840363Y-88650200D01*
X127840062Y-88649587D01*
X127827949Y-88579635D01*
X127829257Y-88570926D01*
X127829638Y-88568879D01*
X127831363Y-88561030D01*
X127833236Y-88553640D01*
X127833774Y-88551596D01*
X127835899Y-88543814D01*
X127838500Y-88533725D01*
X127842836Y-88515784D01*
X127843958Y-88511144D01*
X127843959Y-88511135D01*
X127843968Y-88511102D01*
X127849240Y-88487587D01*
X127851596Y-88476383D01*
X127853654Y-88466020D01*
X127862801Y-88418881D01*
X127871974Y-88372425D01*
X127875464Y-88352480D01*
X127877961Y-88332631D01*
X127879481Y-88312959D01*
X127880040Y-88293544D01*
X127879657Y-88274466D01*
X127878346Y-88255808D01*
X127876125Y-88237648D01*
X127873010Y-88220069D01*
X127870016Y-88207379D01*
X127869020Y-88203154D01*
X127869019Y-88203150D01*
X127864167Y-88186973D01*
X127858471Y-88171617D01*
X127851948Y-88157164D01*
X127851944Y-88157156D01*
X127851941Y-88157150D01*
X127844617Y-88143699D01*
X127837559Y-88132925D01*
X127836487Y-88131289D01*
X127827582Y-88120029D01*
X127822723Y-88114984D01*
X127789873Y-88052048D01*
X127787768Y-88018977D01*
X127787885Y-88017276D01*
X127788342Y-88010579D01*
X127790227Y-87965716D01*
X127789363Y-87922800D01*
X127785811Y-87881924D01*
X127779629Y-87843183D01*
X127770874Y-87806672D01*
X127759605Y-87772484D01*
X127745880Y-87740713D01*
X127742617Y-87734432D01*
X127738124Y-87725781D01*
X127738107Y-87725750D01*
X127732835Y-87716723D01*
X127729758Y-87711455D01*
X127720816Y-87697797D01*
X127711297Y-87684803D01*
X127701207Y-87672484D01*
X127690559Y-87660856D01*
X127679363Y-87649934D01*
X127679348Y-87649920D01*
X127667586Y-87639692D01*
X127655289Y-87630192D01*
X127642473Y-87621436D01*
X127642470Y-87621434D01*
X127641867Y-87621072D01*
X127637471Y-87618432D01*
X127629096Y-87613402D01*
X127615237Y-87606148D01*
X127600833Y-87599648D01*
X127585953Y-87593941D01*
X127585924Y-87593931D01*
X127570568Y-87589023D01*
X127570546Y-87589017D01*
X127554692Y-87584909D01*
X127538321Y-87581609D01*
X127538301Y-87581606D01*
X127521452Y-87579135D01*
X127513186Y-87577994D01*
X127509769Y-87577474D01*
X127505689Y-87576795D01*
X127501742Y-87576139D01*
X127499075Y-87575666D01*
X127489699Y-87573898D01*
X127487453Y-87573453D01*
X127485708Y-87573091D01*
X127423071Y-87539669D01*
X127388446Y-87477688D01*
X127385726Y-87455749D01*
X127385455Y-87455763D01*
X127385371Y-87454100D01*
X127383898Y-87434777D01*
X127383894Y-87434743D01*
X127382325Y-87422874D01*
X127381455Y-87416294D01*
X127378921Y-87403182D01*
X127378064Y-87398746D01*
X127373742Y-87382167D01*
X127373741Y-87382162D01*
X127368498Y-87366549D01*
X127366005Y-87360623D01*
X127362347Y-87351926D01*
X127358002Y-87343537D01*
X127355313Y-87338346D01*
X127354009Y-87336281D01*
X127347399Y-87325811D01*
X127338629Y-87314363D01*
X127338623Y-87314357D01*
X127338617Y-87314349D01*
X127329025Y-87304032D01*
X127329018Y-87304025D01*
X127318576Y-87294821D01*
X127318568Y-87294815D01*
X127307344Y-87286793D01*
X127307327Y-87286782D01*
X127295271Y-87279927D01*
X127282443Y-87274293D01*
X127268842Y-87269899D01*
X127262047Y-87267823D01*
X127256906Y-87266130D01*
X127249507Y-87263515D01*
X127246245Y-87262312D01*
X127235762Y-87258278D01*
X127233356Y-87257323D01*
X127220911Y-87252238D01*
X127218898Y-87251395D01*
X127205365Y-87245590D01*
X127203534Y-87244788D01*
X127189530Y-87238516D01*
X127187682Y-87237670D01*
X127173860Y-87231210D01*
X127171852Y-87230250D01*
X127157652Y-87223305D01*
X127149535Y-87219417D01*
X127113627Y-87202217D01*
X127113616Y-87202212D01*
X127113599Y-87202204D01*
X127068495Y-87182446D01*
X127022996Y-87164237D01*
X126978115Y-87147937D01*
X126934646Y-87133816D01*
X126934649Y-87133816D01*
X126934631Y-87133811D01*
X126893430Y-87122163D01*
X126889406Y-87121170D01*
X126873941Y-87117356D01*
X126855384Y-87113291D01*
X126843311Y-87111023D01*
X126780056Y-87078784D01*
X126744271Y-87017466D01*
X126741520Y-86971830D01*
X126741696Y-86970399D01*
X126742471Y-86964093D01*
X126751606Y-86893314D01*
X126777800Y-86670620D01*
X126791656Y-86552822D01*
X126834375Y-86146272D01*
X126834692Y-86142951D01*
X126873995Y-85731236D01*
X126904728Y-85365465D01*
X126904728Y-85365454D01*
X126904733Y-85365404D01*
X126910855Y-85280164D01*
X126912207Y-85261340D01*
X126916896Y-85179291D01*
X126918543Y-85116362D01*
X126918147Y-85091143D01*
X126916897Y-85069597D01*
X126914760Y-85051353D01*
X126911706Y-85036041D01*
X126907702Y-85023293D01*
X126902718Y-85012740D01*
X126901709Y-85011271D01*
X126896723Y-85004011D01*
X126896718Y-85004005D01*
X126889684Y-84996738D01*
X126889683Y-84996737D01*
X126881567Y-84990549D01*
X126881014Y-84990176D01*
X126880838Y-84989993D01*
X126878666Y-84988337D01*
X126878922Y-84988000D01*
X126844350Y-84952052D01*
X126843737Y-84951062D01*
X126842314Y-84948708D01*
X126841203Y-84946823D01*
X126839828Y-84944430D01*
X126838768Y-84942538D01*
X126837363Y-84939959D01*
X126836436Y-84938210D01*
X126835054Y-84935526D01*
X126833542Y-84932501D01*
X126833521Y-84932459D01*
X126831258Y-84927996D01*
X126828775Y-84923492D01*
X126826099Y-84918976D01*
X126823254Y-84914480D01*
X126820264Y-84910033D01*
X126817154Y-84905666D01*
X126813951Y-84901409D01*
X126810677Y-84897294D01*
X126807359Y-84893349D01*
X126807190Y-84893160D01*
X126805775Y-84891574D01*
X126804020Y-84889607D01*
X126800687Y-84886097D01*
X126797384Y-84882849D01*
X126794135Y-84879894D01*
X126794126Y-84879887D01*
X126793536Y-84879350D01*
X126756598Y-84818720D01*
X126755106Y-84812017D01*
X126755092Y-84812021D01*
X126755088Y-84812008D01*
X126755018Y-84812024D01*
X126754571Y-84809938D01*
X126753092Y-84804028D01*
X126752547Y-84801849D01*
X126749968Y-84793818D01*
X126746846Y-84785865D01*
X126743193Y-84777998D01*
X126739021Y-84770227D01*
X126734341Y-84762560D01*
X126729164Y-84755008D01*
X126729156Y-84754997D01*
X126729145Y-84754982D01*
X126723500Y-84747576D01*
X126723495Y-84747570D01*
X126717381Y-84740300D01*
X126717373Y-84740292D01*
X126717366Y-84740283D01*
X126710767Y-84733128D01*
X126703716Y-84726124D01*
X126696225Y-84719280D01*
X126688306Y-84712606D01*
X126679969Y-84706110D01*
X126679002Y-84705412D01*
X126671232Y-84699804D01*
X126662086Y-84693688D01*
X126652567Y-84687783D01*
X126642691Y-84682103D01*
X126642686Y-84682100D01*
X126642675Y-84682094D01*
X126632422Y-84676628D01*
X126632410Y-84676622D01*
X126621818Y-84671394D01*
X126610873Y-84666402D01*
X126599607Y-84661666D01*
X126588038Y-84657194D01*
X126576128Y-84652980D01*
X126563972Y-84649060D01*
X126551505Y-84645421D01*
X126538750Y-84642074D01*
X126525790Y-84639048D01*
X126512552Y-84636332D01*
X126487172Y-84631747D01*
X126472204Y-84629435D01*
X126463893Y-84628151D01*
X126463883Y-84628149D01*
X126463878Y-84628149D01*
X126442606Y-84625580D01*
X126423215Y-84624075D01*
X126423186Y-84624074D01*
X126405498Y-84623669D01*
X126389454Y-84624401D01*
X126389426Y-84624403D01*
X126374875Y-84626306D01*
X126374854Y-84626310D01*
X126368109Y-84627711D01*
X126368090Y-84627715D01*
X126368084Y-84627716D01*
X126368073Y-84627719D01*
X126361651Y-84629425D01*
X126361620Y-84629435D01*
X126355502Y-84631455D01*
X126349658Y-84633799D01*
X126349645Y-84633805D01*
X126344117Y-84636450D01*
X126344082Y-84636469D01*
X126338805Y-84639444D01*
X126338802Y-84639446D01*
X126333730Y-84642777D01*
X126333725Y-84642781D01*
X126328932Y-84646413D01*
X126328905Y-84646435D01*
X126324317Y-84650414D01*
X126319893Y-84654770D01*
X126311609Y-84664511D01*
X126311606Y-84664515D01*
X126303957Y-84675659D01*
X126303939Y-84675688D01*
X126303596Y-84676293D01*
X126303507Y-84676378D01*
X126302527Y-84677946D01*
X126302137Y-84677702D01*
X126252554Y-84725640D01*
X126211836Y-84738787D01*
X126204110Y-84739888D01*
X126195650Y-84741814D01*
X126187404Y-84744420D01*
X126187400Y-84744421D01*
X126179416Y-84747684D01*
X126171729Y-84751583D01*
X126164330Y-84756119D01*
X126164326Y-84756121D01*
X126157266Y-84761262D01*
X126150562Y-84766996D01*
X126144227Y-84773318D01*
X126138313Y-84780181D01*
X126132803Y-84787620D01*
X126131437Y-84789773D01*
X126078046Y-84836570D01*
X126057280Y-84843665D01*
X126057375Y-84844013D01*
X126054855Y-84844696D01*
X126047914Y-84846887D01*
X126041151Y-84849625D01*
X126034604Y-84852884D01*
X126034601Y-84852886D01*
X126028349Y-84856610D01*
X126028343Y-84856614D01*
X126022424Y-84860770D01*
X126022410Y-84860780D01*
X126016837Y-84865356D01*
X126016813Y-84865377D01*
X126011673Y-84870304D01*
X126006963Y-84875595D01*
X126002761Y-84881184D01*
X126002752Y-84881197D01*
X126000867Y-84884074D01*
X126000851Y-84884101D01*
X125999113Y-84887032D01*
X125999112Y-84887033D01*
X125997493Y-84890077D01*
X125996038Y-84893160D01*
X125994770Y-84896228D01*
X125993629Y-84899441D01*
X125992683Y-84902632D01*
X125991907Y-84905885D01*
X125985838Y-84935125D01*
X125983487Y-84947107D01*
X125981611Y-84957611D01*
X125980249Y-84966730D01*
X125979402Y-84974758D01*
X125979088Y-84981923D01*
X125979327Y-84988349D01*
X125980138Y-84994309D01*
X125981533Y-84999966D01*
X125981535Y-84999973D01*
X125983534Y-85005552D01*
X125983536Y-85005556D01*
X125986160Y-85011263D01*
X125989422Y-85017297D01*
X125993001Y-85023293D01*
X125993346Y-85023870D01*
X126002807Y-85038763D01*
X126003663Y-85040129D01*
X126013748Y-85056462D01*
X126016357Y-85060886D01*
X126018939Y-85065477D01*
X126024032Y-85074530D01*
X126026980Y-85080092D01*
X126033067Y-85092303D01*
X126036149Y-85098964D01*
X126040854Y-85109964D01*
X126043826Y-85117589D01*
X126047454Y-85127871D01*
X126050081Y-85136232D01*
X126052868Y-85146316D01*
X126054942Y-85155010D01*
X126057059Y-85165524D01*
X126058480Y-85174099D01*
X126059999Y-85185745D01*
X126060789Y-85193833D01*
X126061124Y-85198960D01*
X126061657Y-85207144D01*
X126061920Y-85214446D01*
X126062029Y-85229892D01*
X126061913Y-85236245D01*
X126061134Y-85254192D01*
X126060787Y-85259549D01*
X126059010Y-85280164D01*
X126058553Y-85284565D01*
X126055691Y-85308081D01*
X126055210Y-85311617D01*
X126051221Y-85338113D01*
X126050773Y-85340881D01*
X126045627Y-85370559D01*
X126045240Y-85372683D01*
X126042029Y-85389485D01*
X126038799Y-85406386D01*
X126038777Y-85406502D01*
X126038773Y-85406525D01*
X126033753Y-85433473D01*
X126028272Y-85465830D01*
X126016664Y-85541757D01*
X126005397Y-85624312D01*
X125995872Y-85703788D01*
X125987134Y-85780707D01*
X125987033Y-85781570D01*
X125977853Y-85857698D01*
X125977738Y-85858624D01*
X125969220Y-85925112D01*
X125969014Y-85926640D01*
X125962181Y-85975245D01*
X125959177Y-85997148D01*
X125955938Y-86024879D01*
X125949175Y-86093182D01*
X125942712Y-86171128D01*
X125937363Y-86249709D01*
X125933888Y-86306080D01*
X125933814Y-86307195D01*
X125930766Y-86350389D01*
X125930567Y-86352872D01*
X125927728Y-86384254D01*
X125927210Y-86388977D01*
X125924381Y-86410970D01*
X125923537Y-86416544D01*
X125922464Y-86422696D01*
X125921535Y-86427477D01*
X125920440Y-86432581D01*
X125919140Y-86438044D01*
X125918168Y-86441759D01*
X125916507Y-86447541D01*
X125915948Y-86449325D01*
X125913116Y-86457392D01*
X125909622Y-86466360D01*
X125906393Y-86473911D01*
X125899889Y-86487843D01*
X125892454Y-86504216D01*
X125892441Y-86504247D01*
X125884950Y-86523025D01*
X125877444Y-86544019D01*
X125869951Y-86567090D01*
X125862559Y-86591903D01*
X125855289Y-86618338D01*
X125841310Y-86675235D01*
X125828389Y-86736149D01*
X125816889Y-86799486D01*
X125807171Y-86863678D01*
X125799628Y-86926927D01*
X125792498Y-86991595D01*
X125792307Y-86993227D01*
X125783944Y-87060962D01*
X125783745Y-87062498D01*
X125775137Y-87125805D01*
X125774828Y-87127943D01*
X125766956Y-87179225D01*
X125766926Y-87179420D01*
X125763342Y-87202204D01*
X125763240Y-87202851D01*
X125761746Y-87213481D01*
X125759558Y-87229059D01*
X125755991Y-87257089D01*
X125752631Y-87286062D01*
X125749555Y-87315306D01*
X125746902Y-87343537D01*
X125744727Y-87370328D01*
X125743149Y-87394528D01*
X125737007Y-87490344D01*
X125736851Y-87492485D01*
X125729242Y-87586165D01*
X125729055Y-87588254D01*
X125725970Y-87619731D01*
X125725970Y-87619735D01*
X125720210Y-87678488D01*
X125719974Y-87680696D01*
X125710225Y-87764835D01*
X125709901Y-87767396D01*
X125699627Y-87842563D01*
X125699132Y-87845859D01*
X125688765Y-87909175D01*
X125687867Y-87914056D01*
X125678179Y-87961439D01*
X125676057Y-87970206D01*
X125667317Y-88001387D01*
X125665397Y-88007612D01*
X125663091Y-88014454D01*
X125660215Y-88023952D01*
X125657838Y-88032954D01*
X125655930Y-88041600D01*
X125654528Y-88049759D01*
X125654525Y-88049775D01*
X125653599Y-88057628D01*
X125653162Y-88065129D01*
X125653214Y-88072303D01*
X125653755Y-88079156D01*
X125653757Y-88079180D01*
X125654787Y-88085752D01*
X125654788Y-88085759D01*
X125654790Y-88085767D01*
X125656316Y-88092115D01*
X125658336Y-88098239D01*
X125660849Y-88104160D01*
X125663858Y-88109904D01*
X125663866Y-88109919D01*
X125664861Y-88111652D01*
X125664934Y-88111958D01*
X125664995Y-88112074D01*
X125664965Y-88112089D01*
X125681427Y-88180689D01*
X125675257Y-88213808D01*
X125675058Y-88214412D01*
X125674529Y-88215984D01*
X125669340Y-88231063D01*
X125668870Y-88232403D01*
X125662565Y-88250075D01*
X125662290Y-88250840D01*
X125654622Y-88271902D01*
X125654485Y-88272274D01*
X125645543Y-88296596D01*
X125633503Y-88330640D01*
X125623240Y-88362640D01*
X125614761Y-88392664D01*
X125608075Y-88420785D01*
X125603177Y-88447097D01*
X125603174Y-88447117D01*
X125600084Y-88471624D01*
X125600084Y-88471633D01*
X125598794Y-88494504D01*
X125598793Y-88494541D01*
X124342666Y-88494541D01*
X124341729Y-88492667D01*
X124339135Y-88487149D01*
X124337913Y-88484378D01*
X124335607Y-88478790D01*
X124334496Y-88475903D01*
X124332446Y-88470167D01*
X124331468Y-88467206D01*
X124329724Y-88461469D01*
X124328855Y-88458344D01*
X124327402Y-88452591D01*
X124326657Y-88449310D01*
X124325492Y-88443561D01*
X124324886Y-88440163D01*
X124323995Y-88434379D01*
X124323529Y-88430802D01*
X124322918Y-88425091D01*
X124322606Y-88421376D01*
X124322257Y-88415659D01*
X124322108Y-88411757D01*
X124322018Y-88406184D01*
X124322044Y-88401980D01*
X124322200Y-88396500D01*
X124322418Y-88392145D01*
X124322804Y-88386751D01*
X124323232Y-88382159D01*
X124323831Y-88376918D01*
X124324494Y-88372035D01*
X124325290Y-88366963D01*
X124326198Y-88361862D01*
X124327180Y-88356923D01*
X124328360Y-88351553D01*
X124329491Y-88346845D01*
X124330967Y-88341191D01*
X124332247Y-88336645D01*
X124334699Y-88328540D01*
X124337435Y-88319404D01*
X124339723Y-88310271D01*
X124341561Y-88301078D01*
X124342942Y-88291763D01*
X124343864Y-88282264D01*
X124344322Y-88272518D01*
X124344311Y-88262462D01*
X124344309Y-88262433D01*
X124344277Y-88261019D01*
X124344840Y-88261005D01*
X124361114Y-88194082D01*
X124412523Y-88145117D01*
X124473953Y-88131197D01*
X124513800Y-88132386D01*
X124559243Y-88132551D01*
X124601399Y-88131379D01*
X124629665Y-88129526D01*
X124640355Y-88128826D01*
X124640370Y-88128824D01*
X124640395Y-88128823D01*
X124640423Y-88128819D01*
X124640433Y-88128819D01*
X124676333Y-88124843D01*
X124676333Y-88124842D01*
X124676360Y-88124840D01*
X124709421Y-88119384D01*
X124739706Y-88112409D01*
X124767342Y-88103871D01*
X124792457Y-88093725D01*
X124815179Y-88081924D01*
X124835635Y-88068424D01*
X124853953Y-88053179D01*
X124870260Y-88036145D01*
X124884686Y-88017276D01*
X124897356Y-87996527D01*
X124908398Y-87973853D01*
X124930702Y-87922814D01*
X124947488Y-87884400D01*
X124947489Y-87884396D01*
X124947501Y-87884370D01*
X124949272Y-87880033D01*
X124951058Y-87875049D01*
X124952846Y-87869475D01*
X124954625Y-87863371D01*
X124958107Y-87849805D01*
X124961408Y-87834821D01*
X124964432Y-87818886D01*
X124967084Y-87802470D01*
X124969267Y-87786042D01*
X124969915Y-87779643D01*
X124970881Y-87770124D01*
X124972576Y-87752716D01*
X124972971Y-87749187D01*
X124974844Y-87734373D01*
X124975380Y-87730601D01*
X124977577Y-87716682D01*
X124978272Y-87712700D01*
X124980771Y-87699664D01*
X124981665Y-87695407D01*
X124984437Y-87683275D01*
X124985549Y-87678791D01*
X124988578Y-87667490D01*
X124989942Y-87662776D01*
X124993193Y-87652325D01*
X124994843Y-87647387D01*
X124998286Y-87637760D01*
X125000263Y-87632597D01*
X125001092Y-87630566D01*
X125003880Y-87623736D01*
X125006165Y-87618486D01*
X125009968Y-87610273D01*
X125012626Y-87604881D01*
X125016557Y-87597363D01*
X125019568Y-87591932D01*
X125023657Y-87584975D01*
X125027022Y-87579569D01*
X125031290Y-87573088D01*
X125034993Y-87567771D01*
X125039454Y-87561709D01*
X125043493Y-87556513D01*
X125048136Y-87550852D01*
X125052465Y-87545847D01*
X125058849Y-87538851D01*
X125060434Y-87537149D01*
X125071664Y-87525322D01*
X125082235Y-87513749D01*
X125091379Y-87503125D01*
X125099135Y-87493291D01*
X125102503Y-87488621D01*
X125105539Y-87484090D01*
X125108246Y-87479678D01*
X125110630Y-87475366D01*
X125112695Y-87471133D01*
X125114446Y-87466959D01*
X125115887Y-87462827D01*
X125117023Y-87458715D01*
X125117860Y-87454604D01*
X125118401Y-87450474D01*
X125118601Y-87447145D01*
X125118650Y-87446331D01*
X125118650Y-87446322D01*
X125118651Y-87446306D01*
X125118616Y-87442080D01*
X125118561Y-87441335D01*
X125118300Y-87437786D01*
X125118033Y-87435804D01*
X125117706Y-87433375D01*
X125116841Y-87428857D01*
X125115709Y-87424202D01*
X125114315Y-87419391D01*
X125112664Y-87414404D01*
X125111570Y-87411551D01*
X125105853Y-87340785D01*
X125122522Y-87299407D01*
X125125402Y-87294822D01*
X125126814Y-87292575D01*
X125130317Y-87286058D01*
X125133488Y-87279130D01*
X125136326Y-87271796D01*
X125138831Y-87264059D01*
X125141003Y-87255920D01*
X125142842Y-87247384D01*
X125144347Y-87238453D01*
X125145518Y-87229129D01*
X125146020Y-87223305D01*
X125146355Y-87219426D01*
X125146580Y-87214899D01*
X125146858Y-87209318D01*
X125147026Y-87198837D01*
X125146860Y-87187974D01*
X125146359Y-87176735D01*
X125145523Y-87165121D01*
X125144352Y-87153135D01*
X125141003Y-87128061D01*
X125136311Y-87101535D01*
X125130275Y-87073581D01*
X125122892Y-87044223D01*
X125115333Y-87017611D01*
X125114179Y-87013546D01*
X125114161Y-87013483D01*
X125112859Y-87009022D01*
X125112967Y-86938028D01*
X125151442Y-86878360D01*
X125200793Y-86852747D01*
X125200629Y-86852202D01*
X125200655Y-86852193D01*
X125200647Y-86852163D01*
X125201980Y-86851793D01*
X125201999Y-86851789D01*
X125221402Y-86845943D01*
X125239994Y-86839301D01*
X125257897Y-86831778D01*
X125275238Y-86823288D01*
X125275254Y-86823279D01*
X125292122Y-86813758D01*
X125292126Y-86813755D01*
X125292141Y-86813747D01*
X125308731Y-86803068D01*
X125325133Y-86791166D01*
X125341470Y-86777957D01*
X125357869Y-86763354D01*
X125374454Y-86747272D01*
X125391350Y-86729626D01*
X125408680Y-86710330D01*
X125426571Y-86689300D01*
X125445147Y-86666449D01*
X125451475Y-86658079D01*
X125457235Y-86649554D01*
X125462423Y-86640863D01*
X125467037Y-86631996D01*
X125471075Y-86622942D01*
X125474534Y-86613689D01*
X125477411Y-86604227D01*
X125479705Y-86594544D01*
X125481412Y-86584631D01*
X125482530Y-86574476D01*
X125483057Y-86564068D01*
X125482990Y-86553396D01*
X125482326Y-86542450D01*
X125481064Y-86531219D01*
X125479200Y-86519691D01*
X125476731Y-86507856D01*
X125473657Y-86495704D01*
X125471337Y-86487843D01*
X125469972Y-86483217D01*
X125465683Y-86470415D01*
X125464172Y-86466360D01*
X125460769Y-86457229D01*
X125455243Y-86443695D01*
X125449098Y-86429789D01*
X125434941Y-86400817D01*
X125418277Y-86370225D01*
X125399087Y-86337925D01*
X125380410Y-86308631D01*
X125377365Y-86303855D01*
X125377359Y-86303846D01*
X125377350Y-86303832D01*
X125353047Y-86267858D01*
X125353037Y-86267843D01*
X125339191Y-86247361D01*
X125337557Y-86244882D01*
X125325751Y-86226475D01*
X125324033Y-86223718D01*
X125313708Y-86206642D01*
X125311846Y-86203455D01*
X125303146Y-86188047D01*
X125301042Y-86184163D01*
X125294135Y-86170862D01*
X125291777Y-86166075D01*
X125286389Y-86154515D01*
X125284388Y-86149987D01*
X125282982Y-86146625D01*
X125281527Y-86142989D01*
X125280352Y-86139912D01*
X125278782Y-86135553D01*
X125278181Y-86133782D01*
X125276488Y-86128395D01*
X125275821Y-86126093D01*
X125275194Y-86123851D01*
X125260766Y-86070269D01*
X125260757Y-86070234D01*
X125243935Y-86009661D01*
X125243632Y-86008570D01*
X125239145Y-85992096D01*
X125238408Y-85989251D01*
X125235074Y-85975699D01*
X125234175Y-85971767D01*
X125231644Y-85959793D01*
X125230707Y-85954876D01*
X125228859Y-85943996D01*
X125228037Y-85938393D01*
X125226740Y-85927927D01*
X125226147Y-85922001D01*
X125225574Y-85914483D01*
X125225322Y-85911170D01*
X125225015Y-85905368D01*
X125224661Y-85893442D01*
X125224618Y-85888108D01*
X125224797Y-85874498D01*
X125224946Y-85869846D01*
X125225750Y-85854039D01*
X125226007Y-85850178D01*
X125227527Y-85831762D01*
X125227823Y-85828659D01*
X125230128Y-85807396D01*
X125230417Y-85804961D01*
X125233551Y-85780610D01*
X125233809Y-85778718D01*
X125237244Y-85754888D01*
X125237821Y-85750884D01*
X125237989Y-85749761D01*
X125242896Y-85718245D01*
X125243045Y-85717321D01*
X125255530Y-85642472D01*
X125255746Y-85641221D01*
X125258507Y-85625781D01*
X125258800Y-85624205D01*
X125259206Y-85622100D01*
X125261736Y-85608959D01*
X125262024Y-85607515D01*
X125265090Y-85592621D01*
X125265421Y-85591068D01*
X125268461Y-85577231D01*
X125268815Y-85575677D01*
X125271693Y-85563459D01*
X125272217Y-85561324D01*
X125274654Y-85551792D01*
X125275540Y-85548517D01*
X125277095Y-85543072D01*
X125278910Y-85537262D01*
X125280397Y-85532879D01*
X125285013Y-85519058D01*
X125288670Y-85503916D01*
X125291390Y-85487528D01*
X125293195Y-85469968D01*
X125294150Y-85431626D01*
X125291714Y-85389485D01*
X125286063Y-85344140D01*
X125286063Y-85344138D01*
X125286061Y-85344124D01*
X125277380Y-85296216D01*
X125277374Y-85296183D01*
X125272077Y-85273260D01*
X125265826Y-85246209D01*
X125255010Y-85207144D01*
X125251600Y-85194826D01*
X125251287Y-85193850D01*
X125234861Y-85142585D01*
X125217782Y-85095579D01*
X125215798Y-85090119D01*
X125202095Y-85056462D01*
X125194586Y-85038018D01*
X125171402Y-84986866D01*
X125146422Y-84937260D01*
X125119825Y-84889794D01*
X125091788Y-84845062D01*
X125091784Y-84845057D01*
X125091777Y-84845045D01*
X125062490Y-84803658D01*
X125049840Y-84787966D01*
X125047996Y-84785861D01*
X125033238Y-84769016D01*
X125010757Y-84745112D01*
X124990286Y-84723344D01*
X124937880Y-84670675D01*
X124931490Y-84664504D01*
X124902463Y-84636469D01*
X124880186Y-84614954D01*
X124821503Y-84560264D01*
X124766036Y-84510594D01*
X124766032Y-84510590D01*
X124766009Y-84510570D01*
X124717932Y-84469880D01*
X124697997Y-84454165D01*
X124694645Y-84451734D01*
X124681495Y-84442200D01*
X124601106Y-84388913D01*
X124566131Y-84367008D01*
X124524874Y-84341168D01*
X124451885Y-84298509D01*
X124451875Y-84298503D01*
X124381102Y-84260398D01*
X124311490Y-84226304D01*
X124276850Y-84210621D01*
X124276843Y-84210618D01*
X124276832Y-84210613D01*
X124242082Y-84195729D01*
X124242075Y-84195726D01*
X124171827Y-84168133D01*
X124099785Y-84143024D01*
X124099763Y-84143016D01*
X124099741Y-84143009D01*
X124033855Y-84121093D01*
X124033144Y-84120854D01*
X123969845Y-84099279D01*
X123968852Y-84098935D01*
X123915408Y-84080220D01*
X123913650Y-84079590D01*
X123876540Y-84065974D01*
X123813701Y-84044952D01*
X123743413Y-84027160D01*
X123678617Y-84014813D01*
X123666763Y-84012555D01*
X123666761Y-84012554D01*
X123666752Y-84012553D01*
X123666749Y-84012552D01*
X123603253Y-84003675D01*
X123584922Y-84001112D01*
X123556879Y-83998398D01*
X123499032Y-83992799D01*
X123410198Y-83987585D01*
X123319607Y-83985441D01*
X123228374Y-83986338D01*
X123137676Y-83990243D01*
X123048608Y-83997128D01*
X122962334Y-84006963D01*
X122880009Y-84019714D01*
X122802728Y-84035361D01*
X122802708Y-84035366D01*
X122731705Y-84053856D01*
X122668007Y-84075191D01*
X122667993Y-84075196D01*
X122612820Y-84099321D01*
X122601906Y-84104430D01*
X122597265Y-84106489D01*
X122584804Y-84111720D01*
X122581643Y-84112997D01*
X122565553Y-84119245D01*
X122563102Y-84120168D01*
X122544618Y-84126907D01*
X122542494Y-84127660D01*
X122522552Y-84134529D01*
X122520538Y-84135204D01*
X122500050Y-84141877D01*
X122497955Y-84142539D01*
X122477643Y-84148765D01*
X122475272Y-84149466D01*
X122455064Y-84155229D01*
X122454326Y-84155437D01*
X122410421Y-84167669D01*
X122370247Y-84179490D01*
X122333822Y-84191077D01*
X122300569Y-84202779D01*
X122269992Y-84214916D01*
X122241557Y-84227829D01*
X122241544Y-84227835D01*
X122214795Y-84241825D01*
X122189177Y-84257241D01*
X122164210Y-84274398D01*
X122139354Y-84293644D01*
X122114166Y-84315257D01*
X122088087Y-84339605D01*
X122060611Y-84367015D01*
X122031269Y-84397778D01*
X121964852Y-84470771D01*
X121920938Y-84522336D01*
X121920934Y-84522342D01*
X121878795Y-84576569D01*
X121838562Y-84633137D01*
X121800404Y-84691681D01*
X121764479Y-84751827D01*
X121730880Y-84813332D01*
X121699801Y-84875766D01*
X121671367Y-84938836D01*
X121645727Y-85002185D01*
X121623030Y-85065468D01*
X121603410Y-85128371D01*
X121587019Y-85190541D01*
X121587012Y-85190571D01*
X121574004Y-85251629D01*
X121574003Y-85251634D01*
X121564505Y-85311318D01*
X121564505Y-85311323D01*
X121558674Y-85369233D01*
X121558671Y-85369278D01*
X121556649Y-85425079D01*
X121556648Y-85425094D01*
X121558768Y-85499752D01*
X121564744Y-85593535D01*
X121573752Y-85698975D01*
X121584948Y-85808387D01*
X121595035Y-85893471D01*
X121597527Y-85914493D01*
X121601594Y-85943996D01*
X121610646Y-86009661D01*
X121623473Y-86086361D01*
X121624891Y-86093182D01*
X121629524Y-86115475D01*
X121635191Y-86137157D01*
X121636029Y-86140023D01*
X121644468Y-86168905D01*
X121645002Y-86170789D01*
X121656493Y-86212513D01*
X121656788Y-86213604D01*
X121669207Y-86260539D01*
X121669516Y-86261730D01*
X121681436Y-86308631D01*
X121693620Y-86353884D01*
X121707450Y-86398062D01*
X121722864Y-86441021D01*
X121739829Y-86482732D01*
X121758319Y-86523157D01*
X121778273Y-86562195D01*
X121778281Y-86562209D01*
X121778282Y-86562211D01*
X121799683Y-86599845D01*
X121808791Y-86614287D01*
X121822476Y-86635989D01*
X121822502Y-86636027D01*
X121846636Y-86670605D01*
X121846656Y-86670633D01*
X121872124Y-86703633D01*
X121872148Y-86703663D01*
X121898886Y-86734997D01*
X121898908Y-86735022D01*
X121899973Y-86736149D01*
X121926919Y-86764677D01*
X121956142Y-86792570D01*
X121986535Y-86818635D01*
X122018057Y-86842816D01*
X122050672Y-86865054D01*
X122054066Y-86867302D01*
X122063699Y-86873684D01*
X122066149Y-86875349D01*
X122079595Y-86884719D01*
X122081432Y-86886025D01*
X122096237Y-86896754D01*
X122097848Y-86897941D01*
X122113187Y-86909434D01*
X122114644Y-86910543D01*
X122129861Y-86922309D01*
X122131420Y-86923534D01*
X122145845Y-86935055D01*
X122147594Y-86936478D01*
X122160573Y-86947230D01*
X122162722Y-86949051D01*
X122171943Y-86957048D01*
X122174650Y-86959396D01*
X122175109Y-86959796D01*
X122187200Y-86970386D01*
X122191241Y-86973800D01*
X122199349Y-86980650D01*
X122210998Y-86990137D01*
X122215602Y-86993736D01*
X122256953Y-87051447D01*
X122263605Y-87082986D01*
X122265588Y-87107842D01*
X122265747Y-87110085D01*
X122268014Y-87146742D01*
X122268130Y-87148935D01*
X122272407Y-87245342D01*
X122272474Y-87247149D01*
X122276211Y-87371755D01*
X122276241Y-87372909D01*
X122279430Y-87526036D01*
X122279444Y-87526836D01*
X122282067Y-87708095D01*
X122282074Y-87708681D01*
X122284133Y-87918332D01*
X122284135Y-87918571D01*
X122284950Y-88021456D01*
X122267426Y-88086562D01*
X122234794Y-88141776D01*
X122234261Y-88142670D01*
X122230855Y-88148326D01*
X122208309Y-88185765D01*
X122208102Y-88186108D01*
X122207280Y-88187453D01*
X122176956Y-88236411D01*
X122176057Y-88237841D01*
X122106344Y-88347093D01*
X122105313Y-88348682D01*
X122032601Y-88458943D01*
X122031725Y-88460254D01*
X121997580Y-88510648D01*
X121996799Y-88511787D01*
X121965057Y-88557545D01*
X121945052Y-88587074D01*
X121925413Y-88618273D01*
X121906282Y-88650854D01*
X121887693Y-88684695D01*
X121877956Y-88703621D01*
X121869722Y-88719624D01*
X121864893Y-88729638D01*
X121852450Y-88755441D01*
X121835936Y-88791998D01*
X121820287Y-88829044D01*
X121805530Y-88866495D01*
X121791765Y-88904122D01*
X121779043Y-88941800D01*
X121767471Y-88979248D01*
X121757092Y-89016381D01*
X121747995Y-89052959D01*
X121747990Y-89052980D01*
X121747988Y-89052990D01*
X121743885Y-89071982D01*
X121740227Y-89088913D01*
X121733878Y-89124007D01*
X121721332Y-89196281D01*
X121720936Y-89198452D01*
X121706062Y-89276045D01*
X121705714Y-89277795D01*
X121689017Y-89358688D01*
X121688678Y-89360278D01*
X121670999Y-89440674D01*
X121670631Y-89442296D01*
X121652739Y-89518828D01*
X121652282Y-89520717D01*
X121635021Y-89589731D01*
X121634356Y-89592277D01*
X121618690Y-89649783D01*
X121617490Y-89653907D01*
X121603877Y-89697906D01*
X121603182Y-89700083D01*
X121599495Y-89711275D01*
X121596895Y-89719772D01*
X121596065Y-89722488D01*
X121594038Y-89729691D01*
X121593172Y-89732771D01*
X121590759Y-89742195D01*
X121588697Y-89751088D01*
X121586928Y-89759498D01*
X121583885Y-89775733D01*
X121581124Y-89791216D01*
X121580747Y-89793234D01*
X121577696Y-89808860D01*
X121577123Y-89811630D01*
X121575462Y-89819226D01*
X121574952Y-89821459D01*
X121572878Y-89830181D01*
X121572318Y-89832441D01*
X121569806Y-89842200D01*
X121569216Y-89844409D01*
X121565832Y-89856631D01*
X121565821Y-89856675D01*
X121564182Y-89864404D01*
X121562471Y-89871461D01*
X121561048Y-89876670D01*
X121559482Y-89881947D01*
X121557209Y-89889034D01*
X121555987Y-89892656D01*
X121552792Y-89901668D01*
X121552078Y-89903630D01*
X121533603Y-89953120D01*
X121528953Y-89966970D01*
X121524589Y-89981402D01*
X121520622Y-89996515D01*
X121517170Y-90012407D01*
X121517169Y-90012413D01*
X121514368Y-90029084D01*
X121514363Y-90029123D01*
X121512331Y-90046660D01*
X121511637Y-90055839D01*
X121511187Y-90065198D01*
X121510988Y-90074835D01*
X119401480Y-90074835D01*
X117836165Y-88509520D01*
X117836155Y-88509512D01*
X117739137Y-88453499D01*
X117739134Y-88453498D01*
X117739133Y-88453497D01*
X117739131Y-88453496D01*
X117739130Y-88453496D01*
X117689541Y-88440209D01*
X117630914Y-88424500D01*
X117630912Y-88424500D01*
X105508438Y-88424500D01*
X105440317Y-88404498D01*
X105419343Y-88387595D01*
X104162359Y-87130611D01*
X104128333Y-87068299D01*
X104133398Y-86997484D01*
X104137249Y-86988289D01*
X104156739Y-86946496D01*
X104196046Y-86799799D01*
X104232996Y-86739178D01*
X104296857Y-86708156D01*
X104367351Y-86716584D01*
X104388730Y-86728305D01*
X104523462Y-86820163D01*
X104523470Y-86820168D01*
X104767602Y-86937735D01*
X105026547Y-87017611D01*
X105026555Y-87017612D01*
X105294513Y-87058000D01*
X105565487Y-87058000D01*
X105833444Y-87017612D01*
X105833452Y-87017611D01*
X106092397Y-86937735D01*
X106336529Y-86820168D01*
X106336530Y-86820167D01*
X106517544Y-86696753D01*
X105673488Y-85852698D01*
X105737890Y-85826022D01*
X105844351Y-85754888D01*
X105934888Y-85664351D01*
X106006022Y-85557890D01*
X106032698Y-85493489D01*
X106875906Y-86336697D01*
X106875907Y-86336696D01*
X106928025Y-86271343D01*
X106928031Y-86271335D01*
X107063519Y-86036664D01*
X107162518Y-85784416D01*
X107162519Y-85784413D01*
X107222819Y-85520227D01*
X107243069Y-85250000D01*
X107222819Y-84979772D01*
X107162519Y-84715586D01*
X107162518Y-84715583D01*
X107063519Y-84463335D01*
X106928031Y-84228664D01*
X106875906Y-84163302D01*
X106875905Y-84163302D01*
X106032697Y-85006509D01*
X106006022Y-84942110D01*
X105934888Y-84835649D01*
X105844351Y-84745112D01*
X105737890Y-84673978D01*
X105673488Y-84647301D01*
X106517543Y-83803246D01*
X106517543Y-83803244D01*
X106336537Y-83679836D01*
X106336529Y-83679831D01*
X106092397Y-83562264D01*
X105833452Y-83482388D01*
X105833444Y-83482387D01*
X105565487Y-83442000D01*
X105294513Y-83442000D01*
X105026555Y-83482387D01*
X105026547Y-83482388D01*
X104767602Y-83562264D01*
X104523470Y-83679831D01*
X104523462Y-83679836D01*
X104342455Y-83803244D01*
X104342455Y-83803246D01*
X105186510Y-84647301D01*
X105122110Y-84673978D01*
X105015649Y-84745112D01*
X104925112Y-84835649D01*
X104853978Y-84942110D01*
X104827301Y-85006511D01*
X103984093Y-84163302D01*
X103984091Y-84163302D01*
X103931968Y-84228664D01*
X103796480Y-84463335D01*
X103697481Y-84715583D01*
X103697480Y-84715586D01*
X103637180Y-84979772D01*
X103620755Y-85198960D01*
X103595718Y-85265396D01*
X103538738Y-85307749D01*
X103467905Y-85312573D01*
X103441858Y-85303739D01*
X103376503Y-85273264D01*
X103376499Y-85273262D01*
X103376496Y-85273261D01*
X103376494Y-85273260D01*
X103376493Y-85273260D01*
X103156695Y-85214365D01*
X102930000Y-85194532D01*
X102703304Y-85214365D01*
X102483506Y-85273260D01*
X102483501Y-85273262D01*
X102277262Y-85369433D01*
X102090865Y-85499948D01*
X102090855Y-85499957D01*
X101929957Y-85660855D01*
X101929948Y-85660865D01*
X101799433Y-85847262D01*
X101703262Y-86053501D01*
X101703260Y-86053506D01*
X101644365Y-86273304D01*
X101624532Y-86500000D01*
X101644365Y-86726695D01*
X101703260Y-86946493D01*
X101703262Y-86946498D01*
X101799433Y-87152737D01*
X101929948Y-87339134D01*
X101929957Y-87339144D01*
X102090855Y-87500042D01*
X102090865Y-87500051D01*
X102277262Y-87630566D01*
X102277261Y-87630566D01*
X102304636Y-87643331D01*
X102483504Y-87726739D01*
X102703308Y-87785635D01*
X102930000Y-87805468D01*
X103156692Y-87785635D01*
X103376496Y-87726739D01*
X103418267Y-87707260D01*
X103488454Y-87696598D01*
X103553267Y-87725575D01*
X103560611Y-87732359D01*
X104939515Y-89111263D01*
X105018737Y-89190485D01*
X105018738Y-89190486D01*
X105018740Y-89190487D01*
X105083698Y-89227990D01*
X105115763Y-89246503D01*
X105223982Y-89275500D01*
X117346458Y-89275500D01*
X117414579Y-89295502D01*
X117435553Y-89312405D01*
X118982752Y-90859604D01*
X119016778Y-90921916D01*
X119011713Y-90992731D01*
X118969166Y-91049567D01*
X118902646Y-91074378D01*
X118893657Y-91074699D01*
X108549562Y-91074699D01*
X108437525Y-91074699D01*
X108414383Y-91080900D01*
X108414382Y-91080899D01*
X108329314Y-91103693D01*
X108329302Y-91103698D01*
X108232284Y-91159711D01*
X108232283Y-91159712D01*
X108232281Y-91159713D01*
X108232281Y-91159714D01*
X108232280Y-91159715D01*
X107991896Y-91400099D01*
X107419221Y-91972773D01*
X107356909Y-92006798D01*
X107286093Y-92001733D01*
X107229258Y-91959186D01*
X107207285Y-91911715D01*
X107162519Y-91715586D01*
X107162518Y-91715583D01*
X107063519Y-91463335D01*
X106928031Y-91228664D01*
X106875906Y-91163302D01*
X106032698Y-92006511D01*
X106006022Y-91942110D01*
X105934888Y-91835649D01*
X105844351Y-91745112D01*
X105737890Y-91673978D01*
X105673487Y-91647301D01*
X106517543Y-90803246D01*
X106517543Y-90803244D01*
X106336537Y-90679836D01*
X106336529Y-90679831D01*
X106092397Y-90562264D01*
X105833452Y-90482388D01*
X105833444Y-90482387D01*
X105565487Y-90442000D01*
X105294513Y-90442000D01*
X105026555Y-90482387D01*
X105026547Y-90482388D01*
X104767602Y-90562264D01*
X104557092Y-90663640D01*
X104487039Y-90675175D01*
X104421870Y-90647006D01*
X104382276Y-90588075D01*
X104379904Y-90579531D01*
X104368628Y-90532564D01*
X104277791Y-90313261D01*
X104163102Y-90126108D01*
X104163101Y-90126107D01*
X103414157Y-90875051D01*
X103395925Y-90807007D01*
X103330099Y-90692993D01*
X103237007Y-90599901D01*
X103122993Y-90534075D01*
X103054946Y-90515841D01*
X103803890Y-89766897D01*
X103803890Y-89766896D01*
X103616738Y-89652208D01*
X103397437Y-89561371D01*
X103166632Y-89505960D01*
X102930000Y-89487337D01*
X102693367Y-89505960D01*
X102462562Y-89561371D01*
X102243266Y-89652206D01*
X102056108Y-89766897D01*
X102056108Y-89766898D01*
X102805052Y-90515842D01*
X102737007Y-90534075D01*
X102622993Y-90599901D01*
X102529901Y-90692993D01*
X102464075Y-90807007D01*
X102445842Y-90875052D01*
X101696898Y-90126108D01*
X101696897Y-90126108D01*
X101582206Y-90313266D01*
X101491371Y-90532562D01*
X101435960Y-90763367D01*
X101417337Y-91000000D01*
X101435960Y-91236632D01*
X101491371Y-91467437D01*
X101582208Y-91686738D01*
X101696896Y-91873890D01*
X101696897Y-91873890D01*
X102445841Y-91124946D01*
X102464075Y-91192993D01*
X102529901Y-91307007D01*
X102622993Y-91400099D01*
X102737007Y-91465925D01*
X102805052Y-91484158D01*
X102056107Y-92233102D01*
X102243261Y-92347791D01*
X102462562Y-92438628D01*
X102693367Y-92494039D01*
X102930000Y-92512662D01*
X103166632Y-92494039D01*
X103397438Y-92438627D01*
X103397441Y-92438627D01*
X103463176Y-92411398D01*
X103533765Y-92403808D01*
X103597253Y-92435586D01*
X103633481Y-92496644D01*
X103637042Y-92518385D01*
X103637179Y-92520221D01*
X103697480Y-92784413D01*
X103697481Y-92784416D01*
X103796480Y-93036664D01*
X103931968Y-93271335D01*
X103984092Y-93336696D01*
X103984093Y-93336696D01*
X104827301Y-92493487D01*
X104853978Y-92557890D01*
X104925112Y-92664351D01*
X105015649Y-92754888D01*
X105122110Y-92826022D01*
X105186511Y-92852698D01*
X104342455Y-93696753D01*
X104523469Y-93820167D01*
X104523470Y-93820168D01*
X104767602Y-93937735D01*
X105026547Y-94017611D01*
X105026556Y-94017613D01*
X105082017Y-94025972D01*
X105146396Y-94055903D01*
X105184373Y-94115889D01*
X105183891Y-94186884D01*
X105152335Y-94239660D01*
X104436337Y-94955658D01*
X104414097Y-94977898D01*
X104357116Y-95034878D01*
X104357112Y-95034883D01*
X104301099Y-95131901D01*
X104301096Y-95131908D01*
X104272100Y-95240126D01*
X104272100Y-109784323D01*
X104252098Y-109852444D01*
X104198442Y-109898937D01*
X104128168Y-109909041D01*
X104095206Y-109899587D01*
X104044989Y-109877414D01*
X104044990Y-109877414D01*
X104019868Y-109874500D01*
X103130140Y-109874500D01*
X103130133Y-109874501D01*
X103105009Y-109877414D01*
X103105005Y-109877416D01*
X103002234Y-109922793D01*
X102922795Y-110002232D01*
X102922794Y-110002234D01*
X102877414Y-110105009D01*
X102874500Y-110130130D01*
X102874500Y-110130133D01*
X102874501Y-110673500D01*
X102854499Y-110741621D01*
X102800844Y-110788114D01*
X102748501Y-110799500D01*
X102126500Y-110799500D01*
X102058379Y-110779498D01*
X102011886Y-110725842D01*
X102000500Y-110673500D01*
X102000500Y-110645735D01*
X102000500Y-110645734D01*
X101997646Y-110615301D01*
X101993680Y-110603968D01*
X101952793Y-110487118D01*
X101952791Y-110487114D01*
X101872150Y-110377849D01*
X101762885Y-110297208D01*
X101762881Y-110297206D01*
X101634704Y-110252355D01*
X101634700Y-110252354D01*
X101604266Y-110249500D01*
X100895734Y-110249500D01*
X100895733Y-110249500D01*
X100865299Y-110252354D01*
X100865295Y-110252355D01*
X100737118Y-110297206D01*
X100737114Y-110297208D01*
X100627849Y-110377849D01*
X100547208Y-110487114D01*
X100547206Y-110487118D01*
X100502355Y-110615295D01*
X100502354Y-110615299D01*
X100499500Y-110645733D01*
X100499500Y-110946562D01*
X100479498Y-111014683D01*
X100462595Y-111035657D01*
X100261336Y-111236916D01*
X100215095Y-111283156D01*
X100152783Y-111317181D01*
X100081967Y-111312115D01*
X100025132Y-111269568D01*
X100000322Y-111203047D01*
X100000001Y-111194060D01*
X100000002Y-107122062D01*
X100000003Y-94250000D01*
X100000000Y-85750000D01*
X100000000Y-81126000D01*
X100020002Y-81057879D01*
X100073658Y-81011386D01*
X100126000Y-81000000D01*
X159874000Y-81000000D01*
X159942121Y-81020002D01*
G37*
%TD.AperFunction*%
%TA.AperFunction,Conductor*%
G36*
X106326133Y-111946690D02*
G01*
X106382969Y-111989237D01*
X106407779Y-112055757D01*
X106408100Y-112064745D01*
X106408100Y-113826481D01*
X106436730Y-113970415D01*
X106462198Y-114031898D01*
X106462199Y-114031898D01*
X106492889Y-114105990D01*
X106565745Y-114215025D01*
X106574421Y-114228010D01*
X107521321Y-115174910D01*
X107625090Y-115278679D01*
X107747110Y-115360211D01*
X107766159Y-115368101D01*
X107766160Y-115368102D01*
X107766161Y-115368102D01*
X107882688Y-115416370D01*
X107882689Y-115416370D01*
X107882691Y-115416371D01*
X107979961Y-115435718D01*
X108026618Y-115444999D01*
X108026621Y-115444999D01*
X108026624Y-115445000D01*
X108173376Y-115445000D01*
X127076624Y-115445000D01*
X127223376Y-115445000D01*
X128076624Y-115445000D01*
X129013619Y-115445000D01*
X129081740Y-115465002D01*
X129128233Y-115518658D01*
X129138337Y-115588932D01*
X129108843Y-115653512D01*
X129097175Y-115665309D01*
X129038180Y-115717574D01*
X129016112Y-115737125D01*
X129015266Y-115736170D01*
X128961690Y-115769778D01*
X128927520Y-115774500D01*
X102928438Y-115774500D01*
X102860317Y-115754498D01*
X102839343Y-115737595D01*
X101563375Y-114461627D01*
X101529349Y-114399315D01*
X101534414Y-114328500D01*
X101576961Y-114271664D01*
X101627816Y-114252062D01*
X101627209Y-114249282D01*
X101634691Y-114247646D01*
X101634699Y-114247646D01*
X101762882Y-114202793D01*
X101872150Y-114122150D01*
X101872155Y-114122142D01*
X101878823Y-114115476D01*
X101880869Y-114117521D01*
X101925345Y-114083749D01*
X101970186Y-114075500D01*
X102806016Y-114075500D01*
X102806018Y-114075500D01*
X102914237Y-114046503D01*
X103011263Y-113990485D01*
X103589343Y-113412403D01*
X103651656Y-113378379D01*
X103678439Y-113375499D01*
X104019860Y-113375499D01*
X104019864Y-113375499D01*
X104044991Y-113372585D01*
X104147765Y-113327206D01*
X104227206Y-113247765D01*
X104272585Y-113144991D01*
X104275500Y-113119865D01*
X104275499Y-112986236D01*
X104295501Y-112918118D01*
X104349156Y-112871625D01*
X104419430Y-112861520D01*
X104484011Y-112891013D01*
X104490594Y-112897142D01*
X104638396Y-113044944D01*
X104672420Y-113107254D01*
X104674461Y-113119521D01*
X104677415Y-113144990D01*
X104677416Y-113144994D01*
X104722793Y-113247765D01*
X104802232Y-113327204D01*
X104802234Y-113327205D01*
X104802235Y-113327206D01*
X104905009Y-113372585D01*
X104930135Y-113375500D01*
X105819864Y-113375499D01*
X105844991Y-113372585D01*
X105947765Y-113327206D01*
X106027206Y-113247765D01*
X106072585Y-113144991D01*
X106075500Y-113119865D01*
X106075499Y-112530136D01*
X106072585Y-112505009D01*
X106055922Y-112467271D01*
X106048691Y-112450893D01*
X106039473Y-112380497D01*
X106048691Y-112349105D01*
X106056895Y-112330525D01*
X106072585Y-112294991D01*
X106075500Y-112269865D01*
X106075499Y-112145344D01*
X106095501Y-112077225D01*
X106112399Y-112056254D01*
X106193005Y-111975648D01*
X106255318Y-111941624D01*
X106326133Y-111946690D01*
G37*
%TD.AperFunction*%
%TA.AperFunction,Conductor*%
G36*
X121805306Y-103281702D02*
G01*
X121851799Y-103335358D01*
X121862266Y-103372513D01*
X121864859Y-103393871D01*
X121925179Y-103552925D01*
X121925181Y-103552929D01*
X122021816Y-103692928D01*
X122021818Y-103692930D01*
X122117684Y-103777860D01*
X122149148Y-103805734D01*
X122299775Y-103884790D01*
X122299776Y-103884790D01*
X122299778Y-103884791D01*
X122406784Y-103911165D01*
X122464944Y-103925500D01*
X122464947Y-103925500D01*
X122635053Y-103925500D01*
X122635056Y-103925500D01*
X122800225Y-103884790D01*
X122950852Y-103805734D01*
X123010570Y-103752828D01*
X123074819Y-103722629D01*
X123145200Y-103731960D01*
X123199364Y-103777860D01*
X123220113Y-103845757D01*
X123215828Y-103879752D01*
X123199500Y-103940690D01*
X123199500Y-104059307D01*
X123199499Y-104059307D01*
X123199500Y-104059309D01*
X123225278Y-104155515D01*
X123230202Y-104173888D01*
X123237773Y-104187002D01*
X123254509Y-104255998D01*
X123237773Y-104312998D01*
X123230202Y-104326111D01*
X123230201Y-104326113D01*
X123230201Y-104326114D01*
X123209841Y-104402100D01*
X123199500Y-104440692D01*
X123199500Y-104559307D01*
X123199499Y-104559307D01*
X123230201Y-104673886D01*
X123289508Y-104776609D01*
X123289516Y-104776619D01*
X123373380Y-104860483D01*
X123373385Y-104860487D01*
X123373387Y-104860489D01*
X123373388Y-104860490D01*
X123373390Y-104860491D01*
X123393432Y-104872062D01*
X123476114Y-104919799D01*
X123590691Y-104950500D01*
X123590693Y-104950500D01*
X124809307Y-104950500D01*
X124809309Y-104950500D01*
X124923886Y-104919799D01*
X125026613Y-104860489D01*
X125026778Y-104860324D01*
X125032805Y-104854298D01*
X125095117Y-104820272D01*
X125165932Y-104825337D01*
X125222768Y-104867884D01*
X125247579Y-104934404D01*
X125247900Y-104943393D01*
X125247900Y-105161696D01*
X125232753Y-105218229D01*
X125233362Y-105218482D01*
X125231447Y-105223105D01*
X125231022Y-105224692D01*
X125230201Y-105226112D01*
X125226504Y-105239910D01*
X125204055Y-105323694D01*
X125199500Y-105340692D01*
X125199500Y-106559307D01*
X125199499Y-106559307D01*
X125230201Y-106673886D01*
X125289508Y-106776609D01*
X125289516Y-106776619D01*
X125373380Y-106860483D01*
X125373385Y-106860487D01*
X125373387Y-106860489D01*
X125476114Y-106919799D01*
X125590691Y-106950500D01*
X125590693Y-106950500D01*
X125709307Y-106950500D01*
X125709309Y-106950500D01*
X125823886Y-106919799D01*
X125837000Y-106912227D01*
X125905993Y-106895489D01*
X125962999Y-106912227D01*
X125976114Y-106919799D01*
X126090691Y-106950500D01*
X126090693Y-106950500D01*
X126209307Y-106950500D01*
X126209309Y-106950500D01*
X126323886Y-106919799D01*
X126337000Y-106912227D01*
X126405993Y-106895489D01*
X126462999Y-106912227D01*
X126476114Y-106919799D01*
X126590691Y-106950500D01*
X126590693Y-106950500D01*
X126709307Y-106950500D01*
X126709309Y-106950500D01*
X126823886Y-106919799D01*
X126837000Y-106912227D01*
X126905993Y-106895489D01*
X126962999Y-106912227D01*
X126976114Y-106919799D01*
X127090691Y-106950500D01*
X127090693Y-106950500D01*
X127121900Y-106950500D01*
X127190021Y-106970502D01*
X127236514Y-107024158D01*
X127247900Y-107076500D01*
X127247900Y-107744198D01*
X127227898Y-107812319D01*
X127174242Y-107858812D01*
X127168133Y-107861409D01*
X127165032Y-107862632D01*
X127165026Y-107862635D01*
X127095704Y-107915204D01*
X127029339Y-107940427D01*
X126959872Y-107925766D01*
X126912329Y-107880952D01*
X126903892Y-107867274D01*
X126903885Y-107867265D01*
X126782734Y-107746114D01*
X126782728Y-107746109D01*
X126636884Y-107656152D01*
X126474241Y-107602257D01*
X126474229Y-107602255D01*
X126373852Y-107592000D01*
X126354000Y-107592000D01*
X126354000Y-109558000D01*
X126373853Y-109558000D01*
X126373852Y-109557999D01*
X126474229Y-109547744D01*
X126474241Y-109547742D01*
X126636885Y-109493846D01*
X126636886Y-109493846D01*
X126712852Y-109446990D01*
X126781332Y-109428252D01*
X126849071Y-109449511D01*
X126894563Y-109504018D01*
X126905000Y-109554230D01*
X126905000Y-113829000D01*
X126884998Y-113897121D01*
X126831342Y-113943614D01*
X126779000Y-113955000D01*
X108460779Y-113955000D01*
X108392658Y-113934998D01*
X108371684Y-113918095D01*
X107935005Y-113481416D01*
X107900979Y-113419104D01*
X107898100Y-113392321D01*
X107898100Y-108942468D01*
X107918102Y-108874347D01*
X107971758Y-108827854D01*
X108042032Y-108817750D01*
X108100804Y-108842506D01*
X108242825Y-108951484D01*
X108499156Y-109099477D01*
X108499167Y-109099482D01*
X108772632Y-109212755D01*
X109058548Y-109289366D01*
X109352000Y-109327999D01*
X109352010Y-109328000D01*
X109996000Y-109328000D01*
X109996000Y-108194105D01*
X110159493Y-108220000D01*
X110340507Y-108220000D01*
X110504000Y-108194105D01*
X110504000Y-109328000D01*
X111147990Y-109328000D01*
X111147999Y-109327999D01*
X111441451Y-109289366D01*
X111727367Y-109212755D01*
X112000832Y-109099482D01*
X112000843Y-109099477D01*
X112257174Y-108951484D01*
X112491991Y-108771301D01*
X112492012Y-108771282D01*
X112701282Y-108562012D01*
X112701301Y-108561991D01*
X112881484Y-108327174D01*
X112980881Y-108155014D01*
X113032263Y-108106021D01*
X113101977Y-108092585D01*
X113167888Y-108118971D01*
X113199119Y-108155014D01*
X113298515Y-108327174D01*
X113478698Y-108561991D01*
X113478717Y-108562012D01*
X113687987Y-108771282D01*
X113688008Y-108771301D01*
X113922825Y-108951484D01*
X114179156Y-109099477D01*
X114179167Y-109099482D01*
X114452632Y-109212755D01*
X114738548Y-109289366D01*
X115032000Y-109327999D01*
X115032010Y-109328000D01*
X115676000Y-109328000D01*
X115676000Y-108194105D01*
X115839493Y-108220000D01*
X116020507Y-108220000D01*
X116184000Y-108194105D01*
X116184000Y-109328000D01*
X116827990Y-109328000D01*
X116827999Y-109327999D01*
X117121451Y-109289366D01*
X117407367Y-109212755D01*
X117680832Y-109099482D01*
X117680843Y-109099477D01*
X117937174Y-108951484D01*
X118038345Y-108873852D01*
X125142000Y-108873852D01*
X125152255Y-108974229D01*
X125152257Y-108974241D01*
X125206152Y-109136884D01*
X125296109Y-109282728D01*
X125296114Y-109282734D01*
X125417265Y-109403885D01*
X125417271Y-109403890D01*
X125563115Y-109493847D01*
X125725758Y-109547742D01*
X125725770Y-109547744D01*
X125826147Y-109557999D01*
X125826147Y-109558000D01*
X125846000Y-109558000D01*
X125846000Y-108829000D01*
X125142000Y-108829000D01*
X125142000Y-108873852D01*
X118038345Y-108873852D01*
X118171991Y-108771301D01*
X118172012Y-108771282D01*
X118381282Y-108562012D01*
X118381301Y-108561991D01*
X118561484Y-108327174D01*
X118590944Y-108276147D01*
X125142000Y-108276147D01*
X125142000Y-108321000D01*
X125846000Y-108321000D01*
X125846000Y-107592000D01*
X125826147Y-107592000D01*
X125725770Y-107602255D01*
X125725758Y-107602257D01*
X125563115Y-107656152D01*
X125417271Y-107746109D01*
X125417265Y-107746114D01*
X125296114Y-107867265D01*
X125296109Y-107867271D01*
X125206152Y-108013115D01*
X125152257Y-108175758D01*
X125152255Y-108175770D01*
X125142000Y-108276147D01*
X118590944Y-108276147D01*
X118709477Y-108070843D01*
X118709482Y-108070832D01*
X118822755Y-107797367D01*
X118899366Y-107511451D01*
X118924044Y-107324000D01*
X117054105Y-107324000D01*
X117080000Y-107160507D01*
X117080000Y-106979493D01*
X117054105Y-106816000D01*
X118924044Y-106816000D01*
X118924044Y-106815999D01*
X118899366Y-106628548D01*
X118822755Y-106342632D01*
X118709482Y-106069167D01*
X118709477Y-106069156D01*
X118561484Y-105812825D01*
X118381301Y-105578008D01*
X118381282Y-105577987D01*
X118172012Y-105368717D01*
X118171991Y-105368698D01*
X117937172Y-105188515D01*
X117937160Y-105188507D01*
X117878658Y-105154730D01*
X117829665Y-105103347D01*
X117816230Y-105033634D01*
X117842617Y-104967723D01*
X117852564Y-104956516D01*
X117989548Y-104819532D01*
X118105935Y-104659339D01*
X118195834Y-104482902D01*
X118257024Y-104294579D01*
X118263452Y-104254000D01*
X116010703Y-104254000D01*
X116045925Y-104192993D01*
X116080000Y-104065826D01*
X116080000Y-103934174D01*
X116045925Y-103807007D01*
X116010703Y-103746000D01*
X118263452Y-103746000D01*
X118257024Y-103705420D01*
X118195833Y-103517094D01*
X118159050Y-103444902D01*
X118145946Y-103375125D01*
X118172647Y-103309341D01*
X118230675Y-103268435D01*
X118271317Y-103261700D01*
X121737185Y-103261700D01*
X121805306Y-103281702D01*
G37*
%TD.AperFunction*%
%TA.AperFunction,Conductor*%
G36*
X128609012Y-108203121D02*
G01*
X128615581Y-108209236D01*
X128963441Y-108557096D01*
X129303106Y-108896761D01*
X129323134Y-108908324D01*
X129394795Y-108949698D01*
X129497062Y-108977100D01*
X129602938Y-108977100D01*
X130025054Y-108977100D01*
X130093175Y-108997102D01*
X130139668Y-109050758D01*
X130149772Y-109121032D01*
X130120278Y-109185612D01*
X130114149Y-109192195D01*
X129718749Y-109587595D01*
X129656437Y-109621621D01*
X129629654Y-109624500D01*
X129464940Y-109624500D01*
X129299778Y-109665208D01*
X129299774Y-109665210D01*
X129149148Y-109744265D01*
X129149142Y-109744270D01*
X129021818Y-109857069D01*
X129021816Y-109857071D01*
X128925181Y-109997070D01*
X128925179Y-109997074D01*
X128864859Y-110156128D01*
X128844355Y-110324997D01*
X128844355Y-110325002D01*
X128864859Y-110493871D01*
X128925179Y-110652925D01*
X128925181Y-110652929D01*
X129021816Y-110792928D01*
X129021818Y-110792930D01*
X129061995Y-110828524D01*
X129149148Y-110905734D01*
X129299775Y-110984790D01*
X129299776Y-110984790D01*
X129299778Y-110984791D01*
X129421057Y-111014683D01*
X129464944Y-111025500D01*
X129464947Y-111025500D01*
X129635053Y-111025500D01*
X129635056Y-111025500D01*
X129800225Y-110984790D01*
X129950852Y-110905734D01*
X130078183Y-110792929D01*
X130174818Y-110652930D01*
X130177548Y-110645733D01*
X130189091Y-110615295D01*
X130235140Y-110493872D01*
X130255645Y-110325000D01*
X130254778Y-110317863D01*
X130248207Y-110263745D01*
X130259851Y-110193709D01*
X130284190Y-110159463D01*
X131028407Y-109415247D01*
X131090717Y-109381224D01*
X131161533Y-109386289D01*
X131218368Y-109428836D01*
X131243179Y-109495356D01*
X131243500Y-109504345D01*
X131243500Y-109672062D01*
X131243500Y-109777938D01*
X131257839Y-109831451D01*
X131270901Y-109880202D01*
X131270904Y-109880209D01*
X131323838Y-109971893D01*
X131323839Y-109971894D01*
X131323840Y-109971895D01*
X131879440Y-110527495D01*
X131936735Y-110584790D01*
X131954306Y-110602361D01*
X132000131Y-110628818D01*
X132045995Y-110655298D01*
X132148262Y-110682700D01*
X138334586Y-110682700D01*
X138402707Y-110702702D01*
X138449200Y-110756358D01*
X138459667Y-110823887D01*
X138444355Y-110949996D01*
X138444355Y-110950002D01*
X138464859Y-111118871D01*
X138525179Y-111277925D01*
X138525181Y-111277929D01*
X138619175Y-111414101D01*
X138621817Y-111417929D01*
X138705453Y-111492024D01*
X138743178Y-111552167D01*
X138747900Y-111586336D01*
X138747900Y-113410803D01*
X138727898Y-113478924D01*
X138674242Y-113525417D01*
X138650967Y-113531964D01*
X138651265Y-113533144D01*
X138643435Y-113535122D01*
X138502658Y-113590638D01*
X138502654Y-113590641D01*
X138382077Y-113682077D01*
X138290641Y-113802654D01*
X138290637Y-113802660D01*
X138262023Y-113875223D01*
X138218425Y-113931257D01*
X138151455Y-113954825D01*
X138144808Y-113955000D01*
X137754231Y-113955000D01*
X137686110Y-113934998D01*
X137639617Y-113881342D01*
X137629513Y-113811068D01*
X137646990Y-113762853D01*
X137693847Y-113686885D01*
X137747742Y-113524241D01*
X137747744Y-113524229D01*
X137757999Y-113423852D01*
X137758000Y-113423852D01*
X137758000Y-113404000D01*
X135792000Y-113404000D01*
X135792000Y-113423852D01*
X135802255Y-113524229D01*
X135802257Y-113524241D01*
X135856152Y-113686885D01*
X135903010Y-113762853D01*
X135921747Y-113831333D01*
X135900488Y-113899072D01*
X135845980Y-113944563D01*
X135795769Y-113955000D01*
X132988811Y-113955000D01*
X132920690Y-113934998D01*
X132874197Y-113881342D01*
X132864093Y-113811068D01*
X132881570Y-113762853D01*
X132943847Y-113661885D01*
X132997742Y-113499241D01*
X132997744Y-113499229D01*
X133007999Y-113398852D01*
X133008000Y-113398852D01*
X133008000Y-113379000D01*
X131042000Y-113379000D01*
X131042000Y-113398852D01*
X131052255Y-113499229D01*
X131052257Y-113499241D01*
X131106152Y-113661885D01*
X131168430Y-113762853D01*
X131187167Y-113831333D01*
X131165908Y-113899072D01*
X131111400Y-113944563D01*
X131061189Y-113955000D01*
X130488811Y-113955000D01*
X130420690Y-113934998D01*
X130374197Y-113881342D01*
X130364093Y-113811068D01*
X130381570Y-113762853D01*
X130443847Y-113661885D01*
X130497742Y-113499241D01*
X130497744Y-113499229D01*
X130507999Y-113398852D01*
X130508000Y-113398852D01*
X130508000Y-113379000D01*
X129397000Y-113379000D01*
X129328879Y-113358998D01*
X129282386Y-113305342D01*
X129271000Y-113253000D01*
X129271000Y-112876147D01*
X135792000Y-112876147D01*
X135792000Y-112896000D01*
X136521000Y-112896000D01*
X137029000Y-112896000D01*
X137758000Y-112896000D01*
X137758000Y-112876147D01*
X137747744Y-112775770D01*
X137747742Y-112775758D01*
X137693847Y-112613115D01*
X137603890Y-112467271D01*
X137603885Y-112467265D01*
X137482734Y-112346114D01*
X137482728Y-112346109D01*
X137336884Y-112256152D01*
X137174241Y-112202257D01*
X137174229Y-112202255D01*
X137073852Y-112192000D01*
X137029000Y-112192000D01*
X137029000Y-112896000D01*
X136521000Y-112896000D01*
X136521000Y-112192000D01*
X136476147Y-112192000D01*
X136375770Y-112202255D01*
X136375758Y-112202257D01*
X136213115Y-112256152D01*
X136067271Y-112346109D01*
X136067265Y-112346114D01*
X135946114Y-112467265D01*
X135946109Y-112467271D01*
X135856152Y-112613115D01*
X135802257Y-112775758D01*
X135802255Y-112775770D01*
X135792000Y-112876147D01*
X129271000Y-112876147D01*
X129271000Y-112871000D01*
X129779000Y-112871000D01*
X130508000Y-112871000D01*
X130508000Y-112851147D01*
X131042000Y-112851147D01*
X131042000Y-112871000D01*
X131771000Y-112871000D01*
X132279000Y-112871000D01*
X133008000Y-112871000D01*
X133008000Y-112851147D01*
X132997744Y-112750770D01*
X132997742Y-112750758D01*
X132943847Y-112588115D01*
X132853890Y-112442271D01*
X132853885Y-112442265D01*
X132732734Y-112321114D01*
X132732728Y-112321109D01*
X132586884Y-112231152D01*
X132424241Y-112177257D01*
X132424229Y-112177255D01*
X132323852Y-112167000D01*
X132279000Y-112167000D01*
X132279000Y-112871000D01*
X131771000Y-112871000D01*
X131771000Y-112167000D01*
X131726147Y-112167000D01*
X131625770Y-112177255D01*
X131625758Y-112177257D01*
X131463115Y-112231152D01*
X131317271Y-112321109D01*
X131317265Y-112321114D01*
X131196114Y-112442265D01*
X131196109Y-112442271D01*
X131106152Y-112588115D01*
X131052257Y-112750758D01*
X131052255Y-112750770D01*
X131042000Y-112851147D01*
X130508000Y-112851147D01*
X130497744Y-112750770D01*
X130497742Y-112750758D01*
X130443847Y-112588115D01*
X130353890Y-112442271D01*
X130353885Y-112442265D01*
X130232734Y-112321114D01*
X130232728Y-112321109D01*
X130086884Y-112231152D01*
X129924241Y-112177257D01*
X129924229Y-112177255D01*
X129823852Y-112167000D01*
X129779000Y-112167000D01*
X129779000Y-112871000D01*
X129271000Y-112871000D01*
X129271000Y-112167000D01*
X129226147Y-112167000D01*
X129125770Y-112177255D01*
X129125758Y-112177257D01*
X128963115Y-112231152D01*
X128817271Y-112321109D01*
X128817265Y-112321114D01*
X128696114Y-112442265D01*
X128696109Y-112442271D01*
X128628241Y-112552304D01*
X128575455Y-112599782D01*
X128505380Y-112611185D01*
X128440264Y-112582893D01*
X128400782Y-112523887D01*
X128395000Y-112486157D01*
X128395000Y-108919479D01*
X128395899Y-108904455D01*
X128400500Y-108866144D01*
X128400500Y-108298345D01*
X128420502Y-108230224D01*
X128474158Y-108183731D01*
X128544432Y-108173627D01*
X128609012Y-108203121D01*
G37*
%TD.AperFunction*%
%TA.AperFunction,Conductor*%
G36*
X154460967Y-109716602D02*
G01*
X154583398Y-109839033D01*
X154720539Y-109938671D01*
X153572503Y-111086706D01*
X153758869Y-111232714D01*
X153758874Y-111232717D01*
X154039228Y-111402197D01*
X154039239Y-111402203D01*
X154065675Y-111414101D01*
X154119585Y-111460298D01*
X154139961Y-111528308D01*
X154120333Y-111596538D01*
X154066934Y-111643324D01*
X154013963Y-111655000D01*
X152504496Y-111655000D01*
X152436375Y-111634998D01*
X152403947Y-111604933D01*
X152390980Y-111587763D01*
X152232309Y-111443115D01*
X152195443Y-111382441D01*
X152197232Y-111311467D01*
X152232309Y-111256885D01*
X152390982Y-111112235D01*
X152438049Y-111049908D01*
X152525058Y-110934689D01*
X152525059Y-110934685D01*
X152525061Y-110934684D01*
X152624225Y-110735537D01*
X152624226Y-110735533D01*
X152624229Y-110735528D01*
X152685115Y-110521536D01*
X152699025Y-110371419D01*
X152725226Y-110305437D01*
X152782943Y-110264093D01*
X152853849Y-110260516D01*
X152915433Y-110295842D01*
X152932316Y-110317863D01*
X153067285Y-110541130D01*
X153213292Y-110727495D01*
X153213293Y-110727496D01*
X154361328Y-109579460D01*
X154460967Y-109716602D01*
G37*
%TD.AperFunction*%
%TA.AperFunction,Conductor*%
G36*
X147861879Y-106047502D02*
G01*
X147906547Y-106097335D01*
X147974942Y-106234689D01*
X147974943Y-106234690D01*
X148109017Y-106412235D01*
X148267690Y-106556885D01*
X148304556Y-106617560D01*
X148302767Y-106688534D01*
X148267690Y-106743115D01*
X148109017Y-106887764D01*
X147974942Y-107065310D01*
X147974938Y-107065315D01*
X147875774Y-107264462D01*
X147875768Y-107264479D01*
X147814885Y-107478460D01*
X147794357Y-107700000D01*
X147814885Y-107921539D01*
X147875768Y-108135520D01*
X147875774Y-108135537D01*
X147974938Y-108334684D01*
X147974942Y-108334689D01*
X148109017Y-108512235D01*
X148273436Y-108662123D01*
X148323099Y-108692873D01*
X148370486Y-108745740D01*
X148381769Y-108815834D01*
X148353365Y-108880901D01*
X148323099Y-108907127D01*
X148273436Y-108937876D01*
X148109017Y-109087764D01*
X147974942Y-109265310D01*
X147974938Y-109265315D01*
X147875774Y-109464462D01*
X147875768Y-109464479D01*
X147814885Y-109678460D01*
X147794357Y-109900000D01*
X147814885Y-110121539D01*
X147875768Y-110335520D01*
X147875774Y-110335537D01*
X147974938Y-110534684D01*
X147974941Y-110534688D01*
X147983460Y-110545969D01*
X148008549Y-110612385D01*
X147993749Y-110681822D01*
X147943757Y-110732234D01*
X147882909Y-110747900D01*
X146900645Y-110747900D01*
X146832524Y-110727898D01*
X146786031Y-110674242D01*
X146775927Y-110603968D01*
X146805421Y-110539388D01*
X146842089Y-110510333D01*
X146850852Y-110505734D01*
X146978183Y-110392929D01*
X147074818Y-110252930D01*
X147075037Y-110252354D01*
X147124647Y-110121539D01*
X147135140Y-110093872D01*
X147155645Y-109925000D01*
X147153707Y-109909041D01*
X147135140Y-109756128D01*
X147074820Y-109597074D01*
X147074818Y-109597070D01*
X146978183Y-109457071D01*
X146978181Y-109457069D01*
X146850857Y-109344270D01*
X146850851Y-109344265D01*
X146700225Y-109265210D01*
X146700221Y-109265208D01*
X146535059Y-109224500D01*
X146535056Y-109224500D01*
X146364944Y-109224500D01*
X146364940Y-109224500D01*
X146199770Y-109265211D01*
X146196176Y-109266574D01*
X146193360Y-109266790D01*
X146192374Y-109267034D01*
X146192333Y-109266869D01*
X146125389Y-109272026D01*
X146062892Y-109238342D01*
X146028527Y-109176217D01*
X146025499Y-109148761D01*
X146025499Y-108880140D01*
X146025499Y-108880136D01*
X146022585Y-108855009D01*
X145987652Y-108775893D01*
X145978434Y-108705498D01*
X145987649Y-108674112D01*
X146022585Y-108594991D01*
X146025500Y-108569865D01*
X146025499Y-108080136D01*
X146022585Y-108055009D01*
X145998691Y-108000893D01*
X145989473Y-107930497D01*
X145998691Y-107899105D01*
X146022585Y-107844991D01*
X146025500Y-107819865D01*
X146025499Y-107230136D01*
X146022585Y-107205009D01*
X145988801Y-107128495D01*
X145977206Y-107102234D01*
X145897767Y-107022795D01*
X145897765Y-107022794D01*
X145794989Y-106977414D01*
X145794990Y-106977414D01*
X145769870Y-106974500D01*
X145769865Y-106974500D01*
X145575466Y-106974500D01*
X145507345Y-106954498D01*
X145460852Y-106900842D01*
X145450748Y-106830568D01*
X145480242Y-106765988D01*
X145486371Y-106759404D01*
X145528736Y-106717040D01*
X146181373Y-106064404D01*
X146243685Y-106030379D01*
X146270468Y-106027500D01*
X147793758Y-106027500D01*
X147861879Y-106047502D01*
G37*
%TD.AperFunction*%
%TA.AperFunction,Conductor*%
G36*
X132256212Y-105846663D02*
G01*
X132262795Y-105852792D01*
X136073408Y-109663405D01*
X136107434Y-109725717D01*
X136102369Y-109796532D01*
X136059822Y-109853368D01*
X135993302Y-109878179D01*
X135984313Y-109878500D01*
X132419945Y-109878500D01*
X132351824Y-109858498D01*
X132330850Y-109841595D01*
X132198223Y-109708968D01*
X132164197Y-109646656D01*
X132169262Y-109575841D01*
X132171000Y-109573136D01*
X132171000Y-109558000D01*
X132679000Y-109558000D01*
X132698853Y-109558000D01*
X132698852Y-109557999D01*
X132799229Y-109547744D01*
X132799241Y-109547742D01*
X132961884Y-109493847D01*
X133107728Y-109403890D01*
X133107734Y-109403885D01*
X133228885Y-109282734D01*
X133228890Y-109282728D01*
X133318847Y-109136884D01*
X133372742Y-108974241D01*
X133372744Y-108974229D01*
X133382999Y-108873852D01*
X133383000Y-108873852D01*
X133383000Y-108829000D01*
X132679000Y-108829000D01*
X132679000Y-109558000D01*
X132171000Y-109558000D01*
X132171000Y-108321000D01*
X132679000Y-108321000D01*
X133383000Y-108321000D01*
X133383000Y-108276147D01*
X133372744Y-108175770D01*
X133372742Y-108175758D01*
X133318847Y-108013115D01*
X133228890Y-107867271D01*
X133228885Y-107867265D01*
X133107734Y-107746114D01*
X133107728Y-107746109D01*
X132961884Y-107656152D01*
X132799241Y-107602257D01*
X132799229Y-107602255D01*
X132698852Y-107592000D01*
X132679000Y-107592000D01*
X132679000Y-108321000D01*
X132171000Y-108321000D01*
X132171000Y-107591999D01*
X132169879Y-107590878D01*
X132105579Y-107571998D01*
X132059086Y-107518342D01*
X132047700Y-107466000D01*
X132047700Y-105941887D01*
X132067702Y-105873766D01*
X132121358Y-105827273D01*
X132191632Y-105817169D01*
X132256212Y-105846663D01*
G37*
%TD.AperFunction*%
%TA.AperFunction,Conductor*%
G36*
X142868059Y-93422102D02*
G01*
X142889033Y-93439005D01*
X142952232Y-93502204D01*
X142952234Y-93502205D01*
X142952235Y-93502206D01*
X143055009Y-93547585D01*
X143055008Y-93547585D01*
X143059478Y-93548103D01*
X143080135Y-93550500D01*
X143454654Y-93550499D01*
X143522774Y-93570501D01*
X143543749Y-93587404D01*
X145678099Y-95721755D01*
X145678104Y-95721759D01*
X145678106Y-95721761D01*
X145678107Y-95721762D01*
X145678109Y-95721763D01*
X145711441Y-95741007D01*
X145732021Y-95752889D01*
X145769795Y-95774698D01*
X145872062Y-95802100D01*
X145872063Y-95802100D01*
X145977938Y-95802100D01*
X147781110Y-95802100D01*
X147849231Y-95822102D01*
X147893900Y-95871937D01*
X147974938Y-96034684D01*
X147974942Y-96034689D01*
X148109017Y-96212235D01*
X148273438Y-96362124D01*
X148273439Y-96362125D01*
X148462587Y-96479240D01*
X148462590Y-96479241D01*
X148462599Y-96479247D01*
X148529519Y-96505172D01*
X148670053Y-96559616D01*
X148670056Y-96559616D01*
X148670060Y-96559618D01*
X148750923Y-96574734D01*
X148814206Y-96606912D01*
X148850048Y-96668197D01*
X148847067Y-96739131D01*
X148816863Y-96787683D01*
X141360541Y-104244007D01*
X138887509Y-106717039D01*
X138866672Y-106737876D01*
X138807916Y-106796631D01*
X138807912Y-106796636D01*
X138751635Y-106894110D01*
X138751634Y-106894113D01*
X138751633Y-106894115D01*
X138722500Y-107002843D01*
X138722500Y-107002844D01*
X138722500Y-107661165D01*
X138702498Y-107729286D01*
X138680054Y-107755476D01*
X138621819Y-107807068D01*
X138621816Y-107807071D01*
X138525181Y-107947070D01*
X138525179Y-107947074D01*
X138464859Y-108106128D01*
X138444355Y-108274997D01*
X138444355Y-108275003D01*
X138457797Y-108385713D01*
X138446152Y-108455748D01*
X138398491Y-108508369D01*
X138332716Y-108526900D01*
X138055838Y-108526900D01*
X137987717Y-108506898D01*
X137966743Y-108489995D01*
X136062776Y-106586028D01*
X136028750Y-106523716D01*
X136026790Y-106481743D01*
X136030645Y-106449999D01*
X136030645Y-106449997D01*
X136010140Y-106281128D01*
X135949820Y-106122074D01*
X135949818Y-106122070D01*
X135853183Y-105982071D01*
X135853181Y-105982069D01*
X135725857Y-105869270D01*
X135725851Y-105869265D01*
X135575225Y-105790210D01*
X135575221Y-105790208D01*
X135410059Y-105749500D01*
X135410056Y-105749500D01*
X135239944Y-105749500D01*
X135239940Y-105749500D01*
X135074778Y-105790208D01*
X135074774Y-105790210D01*
X134924148Y-105869265D01*
X134924142Y-105869270D01*
X134796818Y-105982069D01*
X134796817Y-105982070D01*
X134761828Y-106032760D01*
X134706669Y-106077459D01*
X134636100Y-106085241D01*
X134572526Y-106053635D01*
X134569038Y-106050278D01*
X134134204Y-105615445D01*
X134100179Y-105553132D01*
X134098218Y-105511160D01*
X134102841Y-105473095D01*
X134105645Y-105450000D01*
X134095775Y-105368717D01*
X134085140Y-105281128D01*
X134024820Y-105122074D01*
X134024818Y-105122070D01*
X133928183Y-104982071D01*
X133928181Y-104982069D01*
X133800857Y-104869270D01*
X133800851Y-104869265D01*
X133643476Y-104786668D01*
X133644803Y-104784139D01*
X133598824Y-104749317D01*
X133574386Y-104682659D01*
X133578405Y-104641766D01*
X133600500Y-104559309D01*
X133600500Y-104440691D01*
X133569799Y-104326114D01*
X133562227Y-104312999D01*
X133545489Y-104244007D01*
X133562227Y-104187000D01*
X133569799Y-104173886D01*
X133600500Y-104059309D01*
X133600500Y-103940691D01*
X133569799Y-103826114D01*
X133562227Y-103812999D01*
X133545489Y-103744007D01*
X133562227Y-103687000D01*
X133569799Y-103673886D01*
X133600500Y-103559309D01*
X133600500Y-103551500D01*
X133620502Y-103483379D01*
X133674158Y-103436886D01*
X133726500Y-103425500D01*
X135381562Y-103425500D01*
X135449683Y-103445502D01*
X135470657Y-103462405D01*
X135683142Y-103674890D01*
X135717168Y-103737202D01*
X135715237Y-103798466D01*
X135664244Y-103977686D01*
X135644571Y-104190000D01*
X135664244Y-104402311D01*
X135722593Y-104607384D01*
X135722594Y-104607386D01*
X135722595Y-104607389D01*
X135817634Y-104798255D01*
X135946128Y-104968407D01*
X135946129Y-104968408D01*
X136103699Y-105112053D01*
X136103701Y-105112054D01*
X136284974Y-105224294D01*
X136284975Y-105224294D01*
X136284981Y-105224298D01*
X136483802Y-105301321D01*
X136693390Y-105340500D01*
X136693393Y-105340500D01*
X136906607Y-105340500D01*
X136906610Y-105340500D01*
X137116198Y-105301321D01*
X137315019Y-105224298D01*
X137496302Y-105112052D01*
X137653872Y-104968407D01*
X137782366Y-104798255D01*
X137877405Y-104607389D01*
X137935756Y-104402310D01*
X137955429Y-104190000D01*
X137935756Y-103977690D01*
X137877405Y-103772611D01*
X137782366Y-103581745D01*
X137653872Y-103411593D01*
X137560104Y-103326111D01*
X137496300Y-103267946D01*
X137496298Y-103267945D01*
X137315025Y-103155705D01*
X137315021Y-103155703D01*
X137315019Y-103155702D01*
X137116198Y-103078679D01*
X136929902Y-103043854D01*
X136866618Y-103011676D01*
X136830776Y-102950391D01*
X136833757Y-102879457D01*
X136874615Y-102821395D01*
X136929901Y-102796145D01*
X137116198Y-102761321D01*
X137315019Y-102684298D01*
X137496302Y-102572052D01*
X137653872Y-102428407D01*
X137782366Y-102258255D01*
X137877405Y-102067389D01*
X137935756Y-101862310D01*
X137955429Y-101650000D01*
X137935756Y-101437690D01*
X137877405Y-101232611D01*
X137782366Y-101041745D01*
X137653872Y-100871593D01*
X137608626Y-100830345D01*
X137496300Y-100727946D01*
X137496298Y-100727945D01*
X137452985Y-100701127D01*
X137405598Y-100648260D01*
X137394315Y-100578166D01*
X137422719Y-100513099D01*
X137481792Y-100473717D01*
X137519316Y-100468000D01*
X137698585Y-100468000D01*
X137698597Y-100467999D01*
X137759093Y-100461494D01*
X137895964Y-100410444D01*
X137895965Y-100410444D01*
X138012904Y-100322904D01*
X138100444Y-100205965D01*
X138100444Y-100205964D01*
X138151494Y-100069093D01*
X138157999Y-100008597D01*
X138158000Y-100008585D01*
X138158000Y-99364000D01*
X137230703Y-99364000D01*
X137265925Y-99302993D01*
X137300000Y-99175826D01*
X137300000Y-99044174D01*
X137265925Y-98917007D01*
X137230703Y-98856000D01*
X138158000Y-98856000D01*
X138158000Y-98211414D01*
X138157999Y-98211402D01*
X138151494Y-98150906D01*
X138100444Y-98014035D01*
X138100444Y-98014034D01*
X138012904Y-97897095D01*
X137895965Y-97809555D01*
X137759093Y-97758505D01*
X137698597Y-97752000D01*
X137054000Y-97752000D01*
X137054000Y-98679297D01*
X136992993Y-98644075D01*
X136865826Y-98610000D01*
X136734174Y-98610000D01*
X136607007Y-98644075D01*
X136546000Y-98679297D01*
X136546000Y-97752000D01*
X135901402Y-97752000D01*
X135840906Y-97758505D01*
X135704035Y-97809555D01*
X135704034Y-97809555D01*
X135587095Y-97897095D01*
X135499555Y-98014034D01*
X135499555Y-98014035D01*
X135448505Y-98150906D01*
X135442000Y-98211402D01*
X135442000Y-98856000D01*
X136369297Y-98856000D01*
X136334075Y-98917007D01*
X136300000Y-99044174D01*
X136300000Y-99175826D01*
X136334075Y-99302993D01*
X136369297Y-99364000D01*
X135442000Y-99364000D01*
X135442000Y-100008597D01*
X135448505Y-100069093D01*
X135499555Y-100205964D01*
X135499555Y-100205965D01*
X135587095Y-100322904D01*
X135704034Y-100410444D01*
X135840906Y-100461494D01*
X135901402Y-100467999D01*
X135901415Y-100468000D01*
X136080684Y-100468000D01*
X136148805Y-100488002D01*
X136195298Y-100541658D01*
X136205402Y-100611932D01*
X136175908Y-100676512D01*
X136147015Y-100701127D01*
X136103701Y-100727945D01*
X136103699Y-100727946D01*
X135946128Y-100871592D01*
X135946124Y-100871597D01*
X135830706Y-101024433D01*
X135773692Y-101066740D01*
X135730157Y-101074500D01*
X133726500Y-101074500D01*
X133658379Y-101054498D01*
X133611886Y-101000842D01*
X133600500Y-100948500D01*
X133600500Y-100940692D01*
X133595808Y-100923181D01*
X133569799Y-100826114D01*
X133562227Y-100812999D01*
X133545489Y-100744007D01*
X133562227Y-100687000D01*
X133569799Y-100673886D01*
X133600500Y-100559309D01*
X133600500Y-100440691D01*
X133569799Y-100326114D01*
X133562227Y-100312999D01*
X133545489Y-100244007D01*
X133562227Y-100187000D01*
X133569799Y-100173886D01*
X133600500Y-100059309D01*
X133600500Y-99940691D01*
X133569799Y-99826114D01*
X133569798Y-99826113D01*
X133567661Y-99818136D01*
X133569768Y-99817571D01*
X133563402Y-99758429D01*
X133595172Y-99694938D01*
X133598276Y-99691719D01*
X134486150Y-98803848D01*
X134539087Y-98712158D01*
X134566489Y-98609891D01*
X134566489Y-97858134D01*
X134586491Y-97790013D01*
X134603394Y-97769039D01*
X138933429Y-93439005D01*
X138995741Y-93404979D01*
X139022524Y-93402100D01*
X142799938Y-93402100D01*
X142868059Y-93422102D01*
G37*
%TD.AperFunction*%
%TA.AperFunction,Conductor*%
G36*
X154754000Y-101176518D02*
G01*
X154586572Y-101150000D01*
X154413428Y-101150000D01*
X154246000Y-101176518D01*
X154246000Y-99823481D01*
X154413428Y-99850000D01*
X154586572Y-99850000D01*
X154754000Y-99823481D01*
X154754000Y-101176518D01*
G37*
%TD.AperFunction*%
%TA.AperFunction,Conductor*%
G36*
X157032342Y-96165002D02*
G01*
X157053316Y-96181905D01*
X157768095Y-96896684D01*
X157802121Y-96958996D01*
X157805000Y-96985779D01*
X157805000Y-107457300D01*
X157784998Y-107525421D01*
X157731342Y-107571914D01*
X157661068Y-107582018D01*
X157596488Y-107552524D01*
X157571172Y-107522485D01*
X157532717Y-107458874D01*
X157532714Y-107458869D01*
X157386706Y-107272503D01*
X157386705Y-107272502D01*
X156238670Y-108420538D01*
X156139033Y-108283398D01*
X156016602Y-108160967D01*
X155879461Y-108061329D01*
X157027496Y-106913293D01*
X157027495Y-106913292D01*
X156841130Y-106767285D01*
X156841125Y-106767282D01*
X156560772Y-106597803D01*
X156262024Y-106463348D01*
X155949247Y-106365882D01*
X155949238Y-106365880D01*
X155627010Y-106306830D01*
X155627007Y-106306829D01*
X155300001Y-106287050D01*
X155299999Y-106287050D01*
X154972992Y-106306829D01*
X154972989Y-106306830D01*
X154650761Y-106365880D01*
X154650752Y-106365882D01*
X154337975Y-106463348D01*
X154039227Y-106597803D01*
X153758877Y-106767280D01*
X153572502Y-106913293D01*
X154720538Y-108061329D01*
X154583398Y-108160967D01*
X154460967Y-108283398D01*
X154361329Y-108420538D01*
X153213293Y-107272502D01*
X153067280Y-107458877D01*
X152932315Y-107682137D01*
X152879957Y-107730085D01*
X152809986Y-107742115D01*
X152744620Y-107714406D01*
X152704611Y-107655756D01*
X152699025Y-107628584D01*
X152685115Y-107478464D01*
X152624229Y-107264472D01*
X152624227Y-107264468D01*
X152624225Y-107264462D01*
X152525061Y-107065315D01*
X152525057Y-107065310D01*
X152390984Y-106887767D01*
X152343257Y-106844258D01*
X152306391Y-106783583D01*
X152304403Y-106763613D01*
X151584123Y-106043333D01*
X151673694Y-106019333D01*
X151776306Y-105960090D01*
X151860090Y-105876306D01*
X151919333Y-105773694D01*
X151943333Y-105684124D01*
X152659200Y-106399991D01*
X152659202Y-106399991D01*
X152742544Y-106272427D01*
X152836273Y-106058747D01*
X152836275Y-106058743D01*
X152893555Y-105832549D01*
X152912825Y-105600000D01*
X152893555Y-105367450D01*
X152836275Y-105141256D01*
X152836273Y-105141252D01*
X152742544Y-104927572D01*
X152659201Y-104800007D01*
X151943333Y-105515875D01*
X151919333Y-105426306D01*
X151860090Y-105323694D01*
X151776306Y-105239910D01*
X151673694Y-105180667D01*
X151584123Y-105156666D01*
X152301319Y-104439470D01*
X152272740Y-104417227D01*
X152067525Y-104306172D01*
X152067522Y-104306170D01*
X151846832Y-104230407D01*
X151846823Y-104230405D01*
X151616666Y-104192000D01*
X151383334Y-104192000D01*
X151153176Y-104230405D01*
X151153167Y-104230407D01*
X150932477Y-104306170D01*
X150932474Y-104306172D01*
X150727251Y-104417232D01*
X150669825Y-104461929D01*
X150603783Y-104487985D01*
X150534137Y-104474199D01*
X150503342Y-104451594D01*
X150133863Y-104082115D01*
X150133861Y-104082114D01*
X150133859Y-104082112D01*
X150036841Y-104026099D01*
X150036838Y-104026098D01*
X150036837Y-104026097D01*
X150036835Y-104026096D01*
X150036834Y-104026096D01*
X150007836Y-104018326D01*
X149928618Y-103997100D01*
X146683418Y-103997100D01*
X146571381Y-103997100D01*
X146513389Y-104012638D01*
X146463165Y-104026096D01*
X146463158Y-104026099D01*
X146366140Y-104082112D01*
X146366130Y-104082120D01*
X143510655Y-106937595D01*
X143448343Y-106971621D01*
X143421560Y-106974500D01*
X143080140Y-106974500D01*
X143080133Y-106974501D01*
X143055009Y-106977414D01*
X143055005Y-106977416D01*
X142952235Y-107022793D01*
X142932335Y-107042694D01*
X142912432Y-107062596D01*
X142850124Y-107096620D01*
X142823339Y-107099500D01*
X140914007Y-107099500D01*
X140801970Y-107099500D01*
X140717768Y-107122062D01*
X140717767Y-107122061D01*
X140693758Y-107128495D01*
X140693753Y-107128496D01*
X140693752Y-107128497D01*
X140693751Y-107128497D01*
X140693747Y-107128499D01*
X140596729Y-107184512D01*
X140596725Y-107184516D01*
X139905961Y-107875278D01*
X139843649Y-107909303D01*
X139772833Y-107904238D01*
X139715998Y-107861691D01*
X139713185Y-107857781D01*
X139678183Y-107807071D01*
X139678180Y-107807068D01*
X139619946Y-107755476D01*
X139582221Y-107695332D01*
X139577500Y-107661165D01*
X139577500Y-107288390D01*
X139597502Y-107220269D01*
X139614405Y-107199295D01*
X148317701Y-98496000D01*
X151808113Y-98496000D01*
X153426518Y-98496000D01*
X153400000Y-98663428D01*
X153400000Y-98836572D01*
X153426518Y-99004000D01*
X151808113Y-99004000D01*
X151826355Y-99142574D01*
X151826356Y-99142577D01*
X151894484Y-99396835D01*
X151995216Y-99640023D01*
X151995221Y-99640034D01*
X152126823Y-99867975D01*
X152287066Y-100076807D01*
X152287075Y-100076818D01*
X152473181Y-100262924D01*
X152473201Y-100262941D01*
X152651867Y-100400038D01*
X152693734Y-100457376D01*
X152697956Y-100528247D01*
X152663192Y-100590150D01*
X152651867Y-100599962D01*
X152473201Y-100737058D01*
X152473181Y-100737075D01*
X152287075Y-100923181D01*
X152287066Y-100923192D01*
X152126823Y-101132024D01*
X151995221Y-101359965D01*
X151995216Y-101359976D01*
X151894484Y-101603164D01*
X151826356Y-101857422D01*
X151826355Y-101857425D01*
X151808113Y-101996000D01*
X153426518Y-101996000D01*
X153400000Y-102163428D01*
X153400000Y-102336572D01*
X153426518Y-102504000D01*
X151808113Y-102504000D01*
X151826355Y-102642574D01*
X151826356Y-102642577D01*
X151894484Y-102896835D01*
X151995216Y-103140023D01*
X151995221Y-103140034D01*
X152126823Y-103367975D01*
X152287066Y-103576807D01*
X152287075Y-103576818D01*
X152473181Y-103762924D01*
X152473192Y-103762933D01*
X152682024Y-103923176D01*
X152909965Y-104054778D01*
X152909976Y-104054783D01*
X153153164Y-104155515D01*
X153407424Y-104223644D01*
X153668386Y-104257999D01*
X153668396Y-104258000D01*
X154246000Y-104258000D01*
X154246000Y-103323481D01*
X154413428Y-103350000D01*
X154586572Y-103350000D01*
X154754000Y-103323481D01*
X154754000Y-104258000D01*
X155331604Y-104258000D01*
X155331613Y-104257999D01*
X155592575Y-104223644D01*
X155846835Y-104155515D01*
X156090023Y-104054783D01*
X156090034Y-104054778D01*
X156317975Y-103923176D01*
X156526807Y-103762933D01*
X156526818Y-103762924D01*
X156712924Y-103576818D01*
X156712933Y-103576807D01*
X156873176Y-103367975D01*
X157004778Y-103140034D01*
X157004783Y-103140023D01*
X157105515Y-102896835D01*
X157173643Y-102642577D01*
X157173644Y-102642574D01*
X157191887Y-102504000D01*
X155573482Y-102504000D01*
X155600000Y-102336572D01*
X155600000Y-102163428D01*
X155573482Y-101996000D01*
X157191887Y-101996000D01*
X157173644Y-101857425D01*
X157173643Y-101857422D01*
X157105515Y-101603164D01*
X157004783Y-101359976D01*
X157004778Y-101359965D01*
X156873176Y-101132024D01*
X156712933Y-100923192D01*
X156712924Y-100923181D01*
X156526818Y-100737075D01*
X156526807Y-100737066D01*
X156348131Y-100599963D01*
X156306264Y-100542625D01*
X156302042Y-100471754D01*
X156336806Y-100409851D01*
X156348131Y-100400037D01*
X156526807Y-100262933D01*
X156526818Y-100262924D01*
X156712924Y-100076818D01*
X156712933Y-100076807D01*
X156873176Y-99867975D01*
X157004778Y-99640034D01*
X157004783Y-99640023D01*
X157105515Y-99396835D01*
X157173643Y-99142577D01*
X157173644Y-99142574D01*
X157191887Y-99004000D01*
X155573482Y-99004000D01*
X155600000Y-98836572D01*
X155600000Y-98663428D01*
X155573482Y-98496000D01*
X157191887Y-98496000D01*
X157173644Y-98357425D01*
X157173643Y-98357422D01*
X157105515Y-98103164D01*
X157004783Y-97859976D01*
X157004778Y-97859965D01*
X156873176Y-97632024D01*
X156712933Y-97423192D01*
X156712924Y-97423181D01*
X156526818Y-97237075D01*
X156526807Y-97237066D01*
X156317975Y-97076823D01*
X156090034Y-96945221D01*
X156090023Y-96945216D01*
X155846835Y-96844484D01*
X155592575Y-96776355D01*
X155331613Y-96742000D01*
X154754000Y-96742000D01*
X154754000Y-97676518D01*
X154586572Y-97650000D01*
X154413428Y-97650000D01*
X154246000Y-97676518D01*
X154246000Y-96742000D01*
X153668386Y-96742000D01*
X153407424Y-96776355D01*
X153153164Y-96844484D01*
X152909976Y-96945216D01*
X152909965Y-96945221D01*
X152682024Y-97076823D01*
X152473192Y-97237066D01*
X152473181Y-97237075D01*
X152287075Y-97423181D01*
X152287066Y-97423192D01*
X152126823Y-97632024D01*
X151995221Y-97859965D01*
X151995216Y-97859976D01*
X151894484Y-98103164D01*
X151826356Y-98357422D01*
X151826355Y-98357425D01*
X151808113Y-98496000D01*
X148317701Y-98496000D01*
X150519996Y-96293705D01*
X150582308Y-96259679D01*
X150653123Y-96264744D01*
X150693977Y-96289686D01*
X150773432Y-96362120D01*
X150773439Y-96362125D01*
X150962587Y-96479240D01*
X150962590Y-96479241D01*
X150962599Y-96479247D01*
X151029519Y-96505172D01*
X151170053Y-96559616D01*
X151170056Y-96559616D01*
X151170060Y-96559618D01*
X151388757Y-96600500D01*
X151388760Y-96600500D01*
X151611240Y-96600500D01*
X151611243Y-96600500D01*
X151829940Y-96559618D01*
X151829944Y-96559616D01*
X151829946Y-96559616D01*
X151883298Y-96538946D01*
X152037401Y-96479247D01*
X152226562Y-96362124D01*
X152390981Y-96212236D01*
X152398876Y-96201780D01*
X152403947Y-96195067D01*
X152460961Y-96152760D01*
X152504496Y-96145000D01*
X156964221Y-96145000D01*
X157032342Y-96165002D01*
G37*
%TD.AperFunction*%
%TA.AperFunction,Conductor*%
G36*
X114780000Y-106979493D02*
G01*
X114780000Y-107160507D01*
X114805895Y-107324000D01*
X111374105Y-107324000D01*
X111400000Y-107160507D01*
X111400000Y-106979493D01*
X111374105Y-106816000D01*
X114805895Y-106816000D01*
X114780000Y-106979493D01*
G37*
%TD.AperFunction*%
%TA.AperFunction,Conductor*%
G36*
X110785299Y-97765002D02*
G01*
X110806269Y-97781901D01*
X110840345Y-97815977D01*
X111012402Y-97930941D01*
X111203580Y-98010130D01*
X111406535Y-98050500D01*
X111406536Y-98050500D01*
X113113464Y-98050500D01*
X113113465Y-98050500D01*
X113316420Y-98010130D01*
X113507598Y-97930941D01*
X113679655Y-97815977D01*
X113713727Y-97781904D01*
X113776037Y-97747880D01*
X113802822Y-97745000D01*
X114557154Y-97745000D01*
X114625275Y-97765002D01*
X114671768Y-97818658D01*
X114681872Y-97888932D01*
X114652378Y-97953512D01*
X114646250Y-97960095D01*
X114128105Y-98478240D01*
X114101089Y-98505256D01*
X114053238Y-98553106D01*
X114000304Y-98644790D01*
X114000302Y-98644795D01*
X113981758Y-98714005D01*
X113980736Y-98717818D01*
X113943784Y-98778440D01*
X113879923Y-98809462D01*
X113809429Y-98801033D01*
X113769934Y-98774301D01*
X113679662Y-98684029D01*
X113679656Y-98684024D01*
X113679655Y-98684023D01*
X113507598Y-98569059D01*
X113316420Y-98489870D01*
X113257952Y-98478240D01*
X113113467Y-98449500D01*
X113113465Y-98449500D01*
X111406535Y-98449500D01*
X111406532Y-98449500D01*
X111203579Y-98489870D01*
X111203574Y-98489872D01*
X111012402Y-98569059D01*
X110840343Y-98684024D01*
X110840337Y-98684029D01*
X110694029Y-98830337D01*
X110694024Y-98830343D01*
X110579059Y-99002402D01*
X110499872Y-99193574D01*
X110499870Y-99193579D01*
X110459500Y-99396532D01*
X110459500Y-99603467D01*
X110477048Y-99691687D01*
X110499870Y-99806420D01*
X110579059Y-99997598D01*
X110643387Y-100093872D01*
X110694024Y-100169656D01*
X110694029Y-100169662D01*
X110840337Y-100315970D01*
X110840343Y-100315975D01*
X110840345Y-100315977D01*
X110928225Y-100374696D01*
X110958964Y-100395235D01*
X111004492Y-100449712D01*
X111013340Y-100520155D01*
X110982699Y-100584199D01*
X110958964Y-100604765D01*
X110840343Y-100684024D01*
X110840337Y-100684029D01*
X110694029Y-100830337D01*
X110694024Y-100830343D01*
X110579059Y-101002402D01*
X110499872Y-101193574D01*
X110499870Y-101193579D01*
X110459500Y-101396532D01*
X110459500Y-101603467D01*
X110499748Y-101805807D01*
X110499870Y-101806420D01*
X110579059Y-101997598D01*
X110694023Y-102169655D01*
X110694024Y-102169656D01*
X110694029Y-102169662D01*
X110840337Y-102315970D01*
X110840343Y-102315975D01*
X110840345Y-102315977D01*
X111012402Y-102430941D01*
X111203580Y-102510130D01*
X111252462Y-102519853D01*
X111315370Y-102552759D01*
X111350503Y-102614453D01*
X111346703Y-102685348D01*
X111305178Y-102742935D01*
X111247594Y-102767879D01*
X111215418Y-102772975D01*
X111215418Y-102772976D01*
X111027097Y-102834165D01*
X110850660Y-102924064D01*
X110690465Y-103040453D01*
X110690462Y-103040455D01*
X110550455Y-103180462D01*
X110550453Y-103180465D01*
X110434064Y-103340660D01*
X110344165Y-103517097D01*
X110282975Y-103705420D01*
X110276547Y-103746000D01*
X112529297Y-103746000D01*
X112494075Y-103807007D01*
X112460000Y-103934174D01*
X112460000Y-104065826D01*
X112494075Y-104192993D01*
X112529297Y-104254000D01*
X110276548Y-104254000D01*
X110282975Y-104294579D01*
X110344165Y-104482902D01*
X110434064Y-104659339D01*
X110479936Y-104722476D01*
X110503794Y-104789343D01*
X110504000Y-104796537D01*
X110504000Y-105945894D01*
X110340507Y-105920000D01*
X110159493Y-105920000D01*
X109996000Y-105945894D01*
X109996000Y-104812000D01*
X109352000Y-104812000D01*
X109058548Y-104850633D01*
X108772632Y-104927244D01*
X108499167Y-105040517D01*
X108499156Y-105040522D01*
X108242825Y-105188515D01*
X108100804Y-105297493D01*
X108034584Y-105323094D01*
X107965035Y-105308829D01*
X107914239Y-105259228D01*
X107898100Y-105197531D01*
X107898100Y-100557679D01*
X107918102Y-100489558D01*
X107935005Y-100468584D01*
X110621684Y-97781905D01*
X110683996Y-97747879D01*
X110710779Y-97745000D01*
X110717178Y-97745000D01*
X110785299Y-97765002D01*
G37*
%TD.AperFunction*%
%TA.AperFunction,Conductor*%
G36*
X128507682Y-103158302D02*
G01*
X128528656Y-103175205D01*
X129087324Y-103733873D01*
X129121350Y-103796185D01*
X129116285Y-103867000D01*
X129101928Y-103894540D01*
X129100183Y-103897066D01*
X129100179Y-103897075D01*
X129039859Y-104056128D01*
X129019355Y-104224997D01*
X129019355Y-104225002D01*
X129039859Y-104393871D01*
X129100179Y-104552925D01*
X129100181Y-104552929D01*
X129140498Y-104611337D01*
X129196817Y-104692929D01*
X129237746Y-104729189D01*
X129275471Y-104789331D01*
X129274691Y-104860324D01*
X129235654Y-104919625D01*
X129170753Y-104948407D01*
X129154192Y-104949500D01*
X129090691Y-104949500D01*
X128976114Y-104980201D01*
X128976113Y-104980201D01*
X128976111Y-104980202D01*
X128962998Y-104987773D01*
X128894002Y-105004509D01*
X128837002Y-104987773D01*
X128823888Y-104980202D01*
X128823887Y-104980201D01*
X128823886Y-104980201D01*
X128709309Y-104949500D01*
X128590691Y-104949500D01*
X128476114Y-104980201D01*
X128476113Y-104980201D01*
X128476111Y-104980202D01*
X128462998Y-104987773D01*
X128394002Y-105004509D01*
X128337002Y-104987773D01*
X128323888Y-104980202D01*
X128323887Y-104980201D01*
X128323886Y-104980201D01*
X128209309Y-104949500D01*
X128090691Y-104949500D01*
X127976114Y-104980201D01*
X127976113Y-104980201D01*
X127976111Y-104980202D01*
X127962998Y-104987773D01*
X127894002Y-105004509D01*
X127837002Y-104987773D01*
X127823888Y-104980202D01*
X127823887Y-104980201D01*
X127823886Y-104980201D01*
X127709309Y-104949500D01*
X127590691Y-104949500D01*
X127566149Y-104956075D01*
X127495173Y-104954386D01*
X127436378Y-104914591D01*
X127408430Y-104849327D01*
X127420204Y-104779313D01*
X127449983Y-104740059D01*
X127503183Y-104692929D01*
X127599818Y-104552930D01*
X127660140Y-104393872D01*
X127669960Y-104312998D01*
X127680645Y-104225002D01*
X127680645Y-104224997D01*
X127660140Y-104056128D01*
X127599820Y-103897074D01*
X127599818Y-103897070D01*
X127503183Y-103757071D01*
X127503181Y-103757069D01*
X127375857Y-103644270D01*
X127375851Y-103644265D01*
X127225225Y-103565210D01*
X127225221Y-103565208D01*
X127148515Y-103546303D01*
X127087160Y-103510580D01*
X127054859Y-103447357D01*
X127061866Y-103376707D01*
X127089569Y-103334873D01*
X127249240Y-103175202D01*
X127311550Y-103141179D01*
X127338333Y-103138300D01*
X128439561Y-103138300D01*
X128507682Y-103158302D01*
G37*
%TD.AperFunction*%
%TA.AperFunction,Conductor*%
G36*
X115114075Y-103807007D02*
G01*
X115080000Y-103934174D01*
X115080000Y-104065826D01*
X115114075Y-104192993D01*
X115149297Y-104254000D01*
X113390703Y-104254000D01*
X113425925Y-104192993D01*
X113460000Y-104065826D01*
X113460000Y-103934174D01*
X113425925Y-103807007D01*
X113390703Y-103746000D01*
X115149297Y-103746000D01*
X115114075Y-103807007D01*
G37*
%TD.AperFunction*%
%TA.AperFunction,Conductor*%
G36*
X127854071Y-99626902D02*
G01*
X127875045Y-99643804D01*
X128553001Y-100321761D01*
X128553002Y-100321762D01*
X128553004Y-100321763D01*
X128644686Y-100374696D01*
X128644688Y-100374696D01*
X128644691Y-100374698D01*
X128746958Y-100402100D01*
X128746959Y-100402100D01*
X128852834Y-100402100D01*
X131473500Y-100402100D01*
X131541621Y-100422102D01*
X131588114Y-100475758D01*
X131599500Y-100528100D01*
X131599500Y-100559307D01*
X131599499Y-100559307D01*
X131607764Y-100590150D01*
X131623334Y-100648260D01*
X131630202Y-100673888D01*
X131637773Y-100687002D01*
X131654509Y-100755998D01*
X131637773Y-100812998D01*
X131630202Y-100826111D01*
X131630201Y-100826113D01*
X131630201Y-100826114D01*
X131618016Y-100871591D01*
X131599500Y-100940692D01*
X131599500Y-101059307D01*
X131599499Y-101059307D01*
X131630202Y-101173888D01*
X131637773Y-101187002D01*
X131654509Y-101255998D01*
X131637773Y-101312998D01*
X131630202Y-101326111D01*
X131630201Y-101326113D01*
X131630201Y-101326114D01*
X131611332Y-101396536D01*
X131599500Y-101440692D01*
X131599500Y-101559307D01*
X131599499Y-101559307D01*
X131599500Y-101559309D01*
X131629714Y-101672070D01*
X131630202Y-101673888D01*
X131637773Y-101687002D01*
X131654509Y-101755998D01*
X131637773Y-101812998D01*
X131630202Y-101826111D01*
X131630201Y-101826113D01*
X131630201Y-101826114D01*
X131603571Y-101925500D01*
X131599500Y-101940692D01*
X131599500Y-102059307D01*
X131599499Y-102059307D01*
X131609055Y-102094970D01*
X131629069Y-102169662D01*
X131630202Y-102173888D01*
X131637773Y-102187002D01*
X131654509Y-102255998D01*
X131637773Y-102312998D01*
X131630202Y-102326111D01*
X131630201Y-102326113D01*
X131630201Y-102326114D01*
X131602792Y-102428408D01*
X131599500Y-102440692D01*
X131599500Y-102559307D01*
X131599499Y-102559307D01*
X131611741Y-102604992D01*
X131629763Y-102672253D01*
X131630202Y-102673888D01*
X131637773Y-102687002D01*
X131654509Y-102755998D01*
X131637773Y-102812998D01*
X131630202Y-102826111D01*
X131630201Y-102826113D01*
X131630201Y-102826114D01*
X131613188Y-102889609D01*
X131599500Y-102940692D01*
X131599500Y-103059307D01*
X131599499Y-103059307D01*
X131611211Y-103103016D01*
X131626025Y-103158302D01*
X131630202Y-103173888D01*
X131637773Y-103187002D01*
X131654509Y-103255998D01*
X131637773Y-103312998D01*
X131630202Y-103326111D01*
X131630201Y-103326113D01*
X131630201Y-103326114D01*
X131603571Y-103425500D01*
X131599500Y-103440692D01*
X131599500Y-103559307D01*
X131599499Y-103559307D01*
X131610377Y-103599901D01*
X131622265Y-103644270D01*
X131630202Y-103673888D01*
X131637773Y-103687002D01*
X131654509Y-103755998D01*
X131637773Y-103812998D01*
X131630199Y-103826115D01*
X131627158Y-103833460D01*
X131582612Y-103888742D01*
X131515249Y-103911165D01*
X131446457Y-103893609D01*
X131421653Y-103874340D01*
X129250554Y-101703240D01*
X129250552Y-101703238D01*
X129158867Y-101650304D01*
X129158864Y-101650303D01*
X129158863Y-101650302D01*
X129158861Y-101650301D01*
X129158860Y-101650301D01*
X129131456Y-101642958D01*
X129056596Y-101622900D01*
X126877937Y-101622900D01*
X126772062Y-101622900D01*
X126717260Y-101637583D01*
X126669797Y-101650301D01*
X126669790Y-101650304D01*
X126584547Y-101699520D01*
X126515552Y-101716258D01*
X126448460Y-101693037D01*
X126417851Y-101661977D01*
X126409792Y-101650302D01*
X126328183Y-101532071D01*
X126225036Y-101440691D01*
X126200857Y-101419270D01*
X126200851Y-101419265D01*
X126050225Y-101340210D01*
X126050221Y-101340208D01*
X125885059Y-101299500D01*
X125885056Y-101299500D01*
X125714944Y-101299500D01*
X125714940Y-101299500D01*
X125549778Y-101340208D01*
X125549774Y-101340210D01*
X125399148Y-101419265D01*
X125399146Y-101419267D01*
X125386487Y-101430482D01*
X125322233Y-101460680D01*
X125251852Y-101451346D01*
X125197691Y-101405443D01*
X125181231Y-101368780D01*
X125169799Y-101326114D01*
X125162227Y-101312999D01*
X125145489Y-101244007D01*
X125162227Y-101187000D01*
X125169799Y-101173886D01*
X125200500Y-101059309D01*
X125200500Y-100940691D01*
X125169799Y-100826114D01*
X125162227Y-100812999D01*
X125145489Y-100744007D01*
X125162227Y-100687000D01*
X125169799Y-100673886D01*
X125197472Y-100570607D01*
X125234422Y-100509987D01*
X125298283Y-100478966D01*
X125368778Y-100487394D01*
X125392269Y-100502279D01*
X125392874Y-100501403D01*
X125399148Y-100505734D01*
X125549775Y-100584790D01*
X125549776Y-100584790D01*
X125549778Y-100584791D01*
X125675191Y-100615702D01*
X125714944Y-100625500D01*
X125714947Y-100625500D01*
X125885053Y-100625500D01*
X125885056Y-100625500D01*
X126050225Y-100584790D01*
X126200852Y-100505734D01*
X126328183Y-100392929D01*
X126424818Y-100252930D01*
X126485140Y-100093872D01*
X126493126Y-100028100D01*
X126495875Y-100005465D01*
X126523942Y-99940252D01*
X126582810Y-99900565D01*
X126590797Y-99898314D01*
X126727625Y-99864590D01*
X126878252Y-99785534D01*
X127005583Y-99672729D01*
X127008854Y-99667989D01*
X127013458Y-99661321D01*
X127068618Y-99616623D01*
X127117152Y-99606900D01*
X127785950Y-99606900D01*
X127854071Y-99626902D01*
G37*
%TD.AperFunction*%
%TA.AperFunction,Conductor*%
G36*
X135655194Y-101945502D02*
G01*
X135701687Y-101999158D01*
X135708263Y-102017018D01*
X135722593Y-102067384D01*
X135722594Y-102067386D01*
X135722595Y-102067389D01*
X135817634Y-102258255D01*
X135939240Y-102419286D01*
X135964329Y-102485699D01*
X135949530Y-102555136D01*
X135899539Y-102605549D01*
X135830229Y-102620932D01*
X135782028Y-102606265D01*
X135781866Y-102606658D01*
X135777845Y-102604992D01*
X135775694Y-102604338D01*
X135774243Y-102603500D01*
X135774239Y-102603498D01*
X135774237Y-102603497D01*
X135774235Y-102603496D01*
X135774234Y-102603496D01*
X135745236Y-102595726D01*
X135666018Y-102574500D01*
X135666016Y-102574500D01*
X133726500Y-102574500D01*
X133658379Y-102554498D01*
X133611886Y-102500842D01*
X133600500Y-102448500D01*
X133600500Y-102440692D01*
X133597887Y-102430940D01*
X133569799Y-102326114D01*
X133562227Y-102312999D01*
X133545489Y-102244007D01*
X133562227Y-102187000D01*
X133569799Y-102173886D01*
X133600500Y-102059309D01*
X133600500Y-102051500D01*
X133620502Y-101983379D01*
X133674158Y-101936886D01*
X133726500Y-101925500D01*
X135587073Y-101925500D01*
X135655194Y-101945502D01*
G37*
%TD.AperFunction*%
%TA.AperFunction,Conductor*%
G36*
X118763855Y-99947502D02*
G01*
X118784824Y-99964400D01*
X120662508Y-101842085D01*
X120705283Y-101866781D01*
X120754276Y-101918163D01*
X120767713Y-101987876D01*
X120741326Y-102053787D01*
X120683494Y-102094970D01*
X120642283Y-102101900D01*
X118106310Y-102101900D01*
X118038189Y-102081898D01*
X117991696Y-102028242D01*
X117981592Y-101957968D01*
X117989899Y-101927686D01*
X118040130Y-101806420D01*
X118080500Y-101603465D01*
X118080500Y-101396535D01*
X118040130Y-101193580D01*
X117960941Y-101002402D01*
X117845977Y-100830345D01*
X117845975Y-100830343D01*
X117845970Y-100830337D01*
X117699662Y-100684029D01*
X117699651Y-100684020D01*
X117581036Y-100604765D01*
X117535508Y-100550289D01*
X117526659Y-100479846D01*
X117557300Y-100415801D01*
X117581036Y-100395235D01*
X117611775Y-100374696D01*
X117699655Y-100315977D01*
X117845977Y-100169655D01*
X117960941Y-99997598D01*
X117960941Y-99997596D01*
X117960944Y-99997593D01*
X117962812Y-99994099D01*
X117964271Y-99992613D01*
X117964380Y-99992451D01*
X117964410Y-99992471D01*
X118012566Y-99943453D01*
X118073931Y-99927500D01*
X118695734Y-99927500D01*
X118763855Y-99947502D01*
G37*
%TD.AperFunction*%
%TA.AperFunction,Conductor*%
G36*
X118289012Y-96858121D02*
G01*
X118295595Y-96864250D01*
X121253103Y-99821759D01*
X121253105Y-99821761D01*
X121302017Y-99850000D01*
X121344795Y-99874698D01*
X121447062Y-99902100D01*
X121552937Y-99902100D01*
X123073500Y-99902100D01*
X123141621Y-99922102D01*
X123188114Y-99975758D01*
X123199500Y-100028100D01*
X123199500Y-100059307D01*
X123199499Y-100059307D01*
X123208761Y-100093872D01*
X123229069Y-100169662D01*
X123230202Y-100173888D01*
X123237773Y-100187002D01*
X123254509Y-100255998D01*
X123237773Y-100312998D01*
X123230202Y-100326111D01*
X123230201Y-100326113D01*
X123230201Y-100326114D01*
X123206170Y-100415801D01*
X123199500Y-100440692D01*
X123199500Y-100471900D01*
X123179498Y-100540021D01*
X123125842Y-100586514D01*
X123073500Y-100597900D01*
X121493745Y-100597900D01*
X121425624Y-100577898D01*
X121404650Y-100560995D01*
X118796896Y-97953240D01*
X118796894Y-97953238D01*
X118705209Y-97900304D01*
X118705206Y-97900303D01*
X118705205Y-97900302D01*
X118705203Y-97900301D01*
X118705202Y-97900301D01*
X118662771Y-97888932D01*
X118602938Y-97872900D01*
X118602936Y-97872900D01*
X117945582Y-97872900D01*
X117877461Y-97852898D01*
X117830968Y-97799242D01*
X117820864Y-97728968D01*
X117844232Y-97675933D01*
X117842538Y-97674801D01*
X117845975Y-97669656D01*
X117845977Y-97669655D01*
X117960941Y-97497598D01*
X118040130Y-97306420D01*
X118080500Y-97103465D01*
X118080500Y-96953345D01*
X118100502Y-96885224D01*
X118154158Y-96838731D01*
X118224432Y-96828627D01*
X118289012Y-96858121D01*
G37*
%TD.AperFunction*%
%TA.AperFunction,Conductor*%
G36*
X133544060Y-96972102D02*
G01*
X133590553Y-97025758D01*
X133600657Y-97096032D01*
X133571163Y-97160612D01*
X133565034Y-97167195D01*
X132353105Y-98379124D01*
X132309568Y-98422661D01*
X132278238Y-98453991D01*
X132259469Y-98486500D01*
X132208087Y-98535493D01*
X132150350Y-98549500D01*
X131990691Y-98549500D01*
X131917696Y-98569059D01*
X131876113Y-98580201D01*
X131773390Y-98639508D01*
X131773380Y-98639516D01*
X131689516Y-98723380D01*
X131689508Y-98723390D01*
X131630201Y-98826113D01*
X131614850Y-98883402D01*
X131603999Y-98923903D01*
X131599500Y-98940692D01*
X131599500Y-99059307D01*
X131599499Y-99059307D01*
X131609840Y-99097900D01*
X131629763Y-99172253D01*
X131630202Y-99173888D01*
X131637773Y-99187002D01*
X131654509Y-99255998D01*
X131637773Y-99312998D01*
X131630202Y-99326111D01*
X131630201Y-99326113D01*
X131630201Y-99326114D01*
X131611333Y-99396532D01*
X131599500Y-99440692D01*
X131599500Y-99471900D01*
X131579498Y-99540021D01*
X131525842Y-99586514D01*
X131473500Y-99597900D01*
X129018643Y-99597900D01*
X128950522Y-99577898D01*
X128929548Y-99560996D01*
X128765084Y-99396532D01*
X128536546Y-99167995D01*
X128502522Y-99105683D01*
X128507586Y-99034868D01*
X128550133Y-98978032D01*
X128616653Y-98953221D01*
X128625642Y-98952900D01*
X129883051Y-98952900D01*
X129883053Y-98952900D01*
X129991272Y-98923903D01*
X130088298Y-98867885D01*
X130393341Y-98562840D01*
X130455651Y-98528817D01*
X130515046Y-98530230D01*
X130590691Y-98550500D01*
X130590692Y-98550500D01*
X130709307Y-98550500D01*
X130709309Y-98550500D01*
X130823886Y-98519799D01*
X130837000Y-98512227D01*
X130905993Y-98495489D01*
X130962999Y-98512227D01*
X130976114Y-98519799D01*
X131090691Y-98550500D01*
X131090693Y-98550500D01*
X131209307Y-98550500D01*
X131209309Y-98550500D01*
X131323886Y-98519799D01*
X131426613Y-98460489D01*
X131510489Y-98376613D01*
X131569799Y-98273886D01*
X131600500Y-98159309D01*
X131600500Y-97795346D01*
X131620502Y-97727225D01*
X131637405Y-97706250D01*
X132354652Y-96989004D01*
X132416964Y-96954979D01*
X132443747Y-96952100D01*
X133475939Y-96952100D01*
X133544060Y-96972102D01*
G37*
%TD.AperFunction*%
%TA.AperFunction,Conductor*%
G36*
X118768107Y-92536915D02*
G01*
X118770252Y-92539011D01*
X124565646Y-98334405D01*
X124599672Y-98396717D01*
X124594607Y-98467532D01*
X124552060Y-98524368D01*
X124485540Y-98549179D01*
X124476551Y-98549500D01*
X123590691Y-98549500D01*
X123517696Y-98569059D01*
X123476113Y-98580201D01*
X123373390Y-98639508D01*
X123373380Y-98639516D01*
X123289516Y-98723380D01*
X123289508Y-98723390D01*
X123230201Y-98826113D01*
X123214850Y-98883402D01*
X123203999Y-98923903D01*
X123199500Y-98940692D01*
X123199500Y-98971900D01*
X123179498Y-99040021D01*
X123125842Y-99086514D01*
X123073500Y-99097900D01*
X121718745Y-99097900D01*
X121650624Y-99077898D01*
X121629650Y-99060995D01*
X118275070Y-95706414D01*
X118241044Y-95644102D01*
X118246109Y-95573286D01*
X118275070Y-95528223D01*
X118381289Y-95422004D01*
X118381301Y-95421991D01*
X118561484Y-95187174D01*
X118709477Y-94930843D01*
X118709482Y-94930832D01*
X118822755Y-94657367D01*
X118899366Y-94371451D01*
X118924044Y-94184000D01*
X117054105Y-94184000D01*
X117080000Y-94020507D01*
X117080000Y-93839493D01*
X117054105Y-93676000D01*
X118924044Y-93676000D01*
X118924044Y-93675999D01*
X118899366Y-93488548D01*
X118822755Y-93202632D01*
X118709482Y-92929167D01*
X118709477Y-92929157D01*
X118572038Y-92691106D01*
X118555300Y-92622111D01*
X118578520Y-92555019D01*
X118634327Y-92511132D01*
X118705002Y-92504383D01*
X118768107Y-92536915D01*
G37*
%TD.AperFunction*%
%TA.AperFunction,Conductor*%
G36*
X107176378Y-94092358D02*
G01*
X107233214Y-94134905D01*
X107257268Y-94193968D01*
X107280633Y-94371452D01*
X107357244Y-94657367D01*
X107470517Y-94930832D01*
X107470522Y-94930843D01*
X107618515Y-95187174D01*
X107798698Y-95421991D01*
X107798717Y-95422012D01*
X108007987Y-95631282D01*
X108008008Y-95631301D01*
X108118062Y-95715748D01*
X108159929Y-95773085D01*
X108164151Y-95843956D01*
X108130454Y-95904805D01*
X107141332Y-96893929D01*
X106153105Y-97882156D01*
X106124294Y-97910967D01*
X106078237Y-97957023D01*
X106035619Y-98030841D01*
X105984236Y-98079834D01*
X105914523Y-98093270D01*
X105848612Y-98066884D01*
X105807430Y-98009051D01*
X105800500Y-97967841D01*
X105800500Y-95416261D01*
X105820502Y-95348140D01*
X105837405Y-95327166D01*
X106435518Y-94729053D01*
X107043253Y-94121317D01*
X107105563Y-94087294D01*
X107176378Y-94092358D01*
G37*
%TD.AperFunction*%
%TA.AperFunction,Conductor*%
G36*
X127519447Y-95715702D02*
G01*
X127565940Y-95769358D01*
X127576486Y-95807181D01*
X127577415Y-95815191D01*
X127577415Y-95815193D01*
X127577416Y-95815194D01*
X127622793Y-95917965D01*
X127702232Y-95997404D01*
X127702234Y-95997405D01*
X127702235Y-95997406D01*
X127805009Y-96042785D01*
X127830135Y-96045700D01*
X128621900Y-96045699D01*
X128690021Y-96065701D01*
X128736514Y-96119357D01*
X128747900Y-96171699D01*
X128747900Y-96295986D01*
X128727898Y-96364107D01*
X128674242Y-96410600D01*
X128603968Y-96420704D01*
X128541967Y-96393386D01*
X128500000Y-96358945D01*
X128458068Y-96367286D01*
X128338320Y-96416888D01*
X128230548Y-96488899D01*
X128229928Y-96489408D01*
X128229539Y-96489572D01*
X128225403Y-96492337D01*
X128224878Y-96491552D01*
X128164580Y-96517158D01*
X128094602Y-96505172D01*
X128074606Y-96492322D01*
X128074597Y-96492337D01*
X128073772Y-96491786D01*
X128070072Y-96489408D01*
X128069451Y-96488899D01*
X127961679Y-96416888D01*
X127841931Y-96367286D01*
X127800000Y-96358945D01*
X127800000Y-96671457D01*
X127783120Y-96734456D01*
X127759120Y-96776026D01*
X127707737Y-96825020D01*
X127638024Y-96838457D01*
X127572113Y-96812070D01*
X127540880Y-96776026D01*
X127516880Y-96734456D01*
X127500000Y-96671457D01*
X127500000Y-96358945D01*
X127458068Y-96367286D01*
X127338320Y-96416888D01*
X127230550Y-96488897D01*
X127230544Y-96488902D01*
X127206852Y-96512595D01*
X127144540Y-96546621D01*
X127117757Y-96549500D01*
X127090691Y-96549500D01*
X126976114Y-96580201D01*
X126976113Y-96580201D01*
X126976111Y-96580202D01*
X126962998Y-96587773D01*
X126894002Y-96604509D01*
X126837002Y-96587773D01*
X126823889Y-96580202D01*
X126823886Y-96580201D01*
X126748073Y-96559886D01*
X126687453Y-96522936D01*
X126656431Y-96459075D01*
X126662875Y-96393501D01*
X126668299Y-96379200D01*
X126710140Y-96268872D01*
X126730645Y-96100000D01*
X126726480Y-96065701D01*
X126710140Y-95931129D01*
X126702426Y-95910786D01*
X126696974Y-95840000D01*
X126730657Y-95777502D01*
X126792782Y-95743136D01*
X126805205Y-95741009D01*
X126850590Y-95735559D01*
X126929388Y-95704485D01*
X126975612Y-95695700D01*
X127451326Y-95695700D01*
X127519447Y-95715702D01*
G37*
%TD.AperFunction*%
%TA.AperFunction,Conductor*%
G36*
X154460967Y-92716602D02*
G01*
X154583398Y-92839033D01*
X154720538Y-92938670D01*
X153572502Y-94086705D01*
X153572503Y-94086706D01*
X153758869Y-94232714D01*
X153758874Y-94232717D01*
X154039228Y-94402197D01*
X154039239Y-94402203D01*
X154065675Y-94414101D01*
X154119585Y-94460298D01*
X154139961Y-94528308D01*
X154120333Y-94596538D01*
X154066934Y-94643324D01*
X154013963Y-94655000D01*
X152504496Y-94655000D01*
X152436375Y-94634998D01*
X152403947Y-94604933D01*
X152390980Y-94587763D01*
X152232309Y-94443115D01*
X152195443Y-94382441D01*
X152197232Y-94311467D01*
X152232309Y-94256885D01*
X152390982Y-94112235D01*
X152431938Y-94058000D01*
X152525058Y-93934689D01*
X152525059Y-93934685D01*
X152525061Y-93934684D01*
X152624225Y-93735537D01*
X152624226Y-93735533D01*
X152624229Y-93735528D01*
X152685115Y-93521536D01*
X152699025Y-93371419D01*
X152725226Y-93305437D01*
X152782943Y-93264093D01*
X152853849Y-93260516D01*
X152915433Y-93295842D01*
X152932316Y-93317863D01*
X153067285Y-93541130D01*
X153213292Y-93727495D01*
X153213293Y-93727496D01*
X154361328Y-92579460D01*
X154460967Y-92716602D01*
G37*
%TD.AperFunction*%
%TA.AperFunction,Conductor*%
G36*
X114780000Y-93839493D02*
G01*
X114780000Y-94020507D01*
X114805895Y-94184000D01*
X111374105Y-94184000D01*
X111400000Y-94020507D01*
X111400000Y-93839493D01*
X111374105Y-93676000D01*
X114805895Y-93676000D01*
X114780000Y-93839493D01*
G37*
%TD.AperFunction*%
%TA.AperFunction,Conductor*%
G36*
X147897930Y-87868102D02*
G01*
X147944423Y-87921758D01*
X147954527Y-87992032D01*
X147942599Y-88030263D01*
X147875774Y-88164463D01*
X147875768Y-88164479D01*
X147814885Y-88378460D01*
X147794357Y-88600000D01*
X147814885Y-88821539D01*
X147875768Y-89035520D01*
X147875774Y-89035537D01*
X147974938Y-89234684D01*
X147974942Y-89234689D01*
X148109017Y-89412235D01*
X148267690Y-89556885D01*
X148304556Y-89617560D01*
X148302767Y-89688534D01*
X148267690Y-89743115D01*
X148109017Y-89887764D01*
X147974942Y-90065310D01*
X147974938Y-90065315D01*
X147875774Y-90264462D01*
X147875768Y-90264479D01*
X147814885Y-90478460D01*
X147794357Y-90700000D01*
X147814885Y-90921539D01*
X147875768Y-91135520D01*
X147875774Y-91135537D01*
X147974938Y-91334684D01*
X147974942Y-91334689D01*
X148109017Y-91512235D01*
X148273436Y-91662123D01*
X148323099Y-91692873D01*
X148370486Y-91745740D01*
X148381769Y-91815834D01*
X148353365Y-91880901D01*
X148323099Y-91907127D01*
X148273436Y-91937876D01*
X148109017Y-92087764D01*
X147974942Y-92265310D01*
X147974938Y-92265315D01*
X147875774Y-92464462D01*
X147875768Y-92464479D01*
X147814885Y-92678460D01*
X147794357Y-92900000D01*
X147814885Y-93121539D01*
X147875768Y-93335520D01*
X147875774Y-93335536D01*
X147942599Y-93469737D01*
X147955059Y-93539631D01*
X147927752Y-93605167D01*
X147869349Y-93645535D01*
X147829809Y-93651900D01*
X146208930Y-93651900D01*
X146140809Y-93631898D01*
X146119835Y-93614995D01*
X146023045Y-93518205D01*
X145989019Y-93455893D01*
X145994084Y-93385078D01*
X145996876Y-93378216D01*
X146001145Y-93368548D01*
X146022585Y-93319991D01*
X146025500Y-93294865D01*
X146025499Y-92705136D01*
X146022585Y-92680009D01*
X146005500Y-92641314D01*
X145998691Y-92625893D01*
X145989473Y-92555497D01*
X145998690Y-92524107D01*
X146022585Y-92469991D01*
X146025500Y-92444865D01*
X146025499Y-91955136D01*
X146022585Y-91930009D01*
X145987652Y-91850893D01*
X145978434Y-91780498D01*
X145987649Y-91749112D01*
X146022585Y-91669991D01*
X146025500Y-91644865D01*
X146025499Y-91155136D01*
X146022585Y-91130009D01*
X146007791Y-91096503D01*
X145998691Y-91075893D01*
X145989473Y-91005497D01*
X145998691Y-90974105D01*
X146022585Y-90919991D01*
X146025500Y-90894865D01*
X146025499Y-90305136D01*
X146022585Y-90280009D01*
X145991273Y-90209094D01*
X145977206Y-90177234D01*
X145897767Y-90097795D01*
X145897765Y-90097794D01*
X145794989Y-90052414D01*
X145794990Y-90052414D01*
X145769870Y-90049500D01*
X145769865Y-90049500D01*
X145078100Y-90049500D01*
X145009979Y-90029498D01*
X144963486Y-89975842D01*
X144952100Y-89923500D01*
X144952100Y-88993745D01*
X144972102Y-88925624D01*
X144989005Y-88904650D01*
X146008651Y-87885005D01*
X146070963Y-87850979D01*
X146097746Y-87848100D01*
X147829809Y-87848100D01*
X147897930Y-87868102D01*
G37*
%TD.AperFunction*%
%TA.AperFunction,Conductor*%
G36*
X152923303Y-87820581D02*
G01*
X152975087Y-87851835D01*
X153262595Y-88139343D01*
X153296621Y-88201655D01*
X153299500Y-88228438D01*
X153299500Y-89571562D01*
X153279498Y-89639683D01*
X153262599Y-89660652D01*
X153010097Y-89913155D01*
X152759542Y-90163710D01*
X152697230Y-90197735D01*
X152626414Y-90192670D01*
X152569579Y-90150123D01*
X152557656Y-90130777D01*
X152555331Y-90126107D01*
X152525058Y-90065311D01*
X152453139Y-89970074D01*
X152390984Y-89887767D01*
X152369488Y-89868171D01*
X152343256Y-89844257D01*
X152306391Y-89783583D01*
X152304403Y-89763613D01*
X151584123Y-89043333D01*
X151673694Y-89019333D01*
X151776306Y-88960090D01*
X151860090Y-88876306D01*
X151919333Y-88773694D01*
X151943333Y-88684123D01*
X152659200Y-89399991D01*
X152659202Y-89399991D01*
X152742544Y-89272427D01*
X152836273Y-89058747D01*
X152836275Y-89058743D01*
X152893555Y-88832549D01*
X152912825Y-88600000D01*
X152893555Y-88367450D01*
X152836275Y-88141256D01*
X152836273Y-88141252D01*
X152770605Y-87991544D01*
X152761558Y-87921126D01*
X152792018Y-87856996D01*
X152852315Y-87819514D01*
X152923303Y-87820581D01*
G37*
%TD.AperFunction*%
%TA.AperFunction,Conductor*%
G36*
X151612283Y-86493102D02*
G01*
X151633257Y-86510005D01*
X152244759Y-87121507D01*
X152278785Y-87183819D01*
X152273720Y-87254634D01*
X152231173Y-87311470D01*
X152164653Y-87336281D01*
X152095696Y-87321416D01*
X152067531Y-87306174D01*
X152067522Y-87306170D01*
X151846832Y-87230407D01*
X151846823Y-87230405D01*
X151616666Y-87192000D01*
X151383334Y-87192000D01*
X151153176Y-87230405D01*
X151153167Y-87230407D01*
X150932477Y-87306170D01*
X150932474Y-87306172D01*
X150727258Y-87417227D01*
X150698680Y-87439469D01*
X150698680Y-87439470D01*
X151415877Y-88156666D01*
X151326306Y-88180667D01*
X151223694Y-88239910D01*
X151139910Y-88323694D01*
X151080667Y-88426306D01*
X151056666Y-88515876D01*
X150752300Y-88211510D01*
X150725805Y-88165611D01*
X150723857Y-88166419D01*
X150720698Y-88158791D01*
X150667760Y-88067102D01*
X150630921Y-88030263D01*
X150592895Y-87992237D01*
X149724898Y-87124240D01*
X149724897Y-87124239D01*
X149713424Y-87117615D01*
X149664431Y-87066231D01*
X149650996Y-86996518D01*
X149658612Y-86963819D01*
X149685140Y-86893872D01*
X149694276Y-86818635D01*
X149705645Y-86725002D01*
X149705645Y-86724996D01*
X149692203Y-86614287D01*
X149703848Y-86544252D01*
X149751509Y-86491631D01*
X149817284Y-86473100D01*
X151544162Y-86473100D01*
X151612283Y-86493102D01*
G37*
%TD.AperFunction*%
%TD*%
%TA.AperFunction,Conductor*%
%TO.N,GND*%
G36*
X159985648Y-81014352D02*
G01*
X160000000Y-81049000D01*
X160000000Y-83999989D01*
X156771863Y-83999989D01*
X156712938Y-83923197D01*
X156712928Y-83923185D01*
X156526814Y-83737071D01*
X156526802Y-83737061D01*
X156317991Y-83576834D01*
X156317976Y-83576824D01*
X156090025Y-83445217D01*
X155846831Y-83344482D01*
X155592593Y-83276359D01*
X155331608Y-83242000D01*
X154754000Y-83242000D01*
X154754000Y-83999989D01*
X154246000Y-83999989D01*
X154246000Y-83242000D01*
X153668392Y-83242000D01*
X153407406Y-83276359D01*
X153153168Y-83344482D01*
X153153167Y-83344482D01*
X152909974Y-83445217D01*
X152682023Y-83576824D01*
X152682008Y-83576834D01*
X152473197Y-83737061D01*
X152473185Y-83737071D01*
X152287071Y-83923185D01*
X152287061Y-83923197D01*
X152228137Y-83999989D01*
X123573322Y-83999989D01*
X123525031Y-83995316D01*
X123499021Y-83992799D01*
X123437624Y-83989195D01*
X123410192Y-83987585D01*
X123319631Y-83985441D01*
X123228388Y-83986338D01*
X123137656Y-83990244D01*
X123048622Y-83997127D01*
X123023518Y-83999989D01*
X106320800Y-83999989D01*
X106517543Y-83803246D01*
X106336537Y-83679836D01*
X106092384Y-83562259D01*
X106092382Y-83562258D01*
X105833448Y-83482388D01*
X105565489Y-83442000D01*
X105294511Y-83442000D01*
X105026551Y-83482388D01*
X104767617Y-83562258D01*
X104767615Y-83562259D01*
X104523462Y-83679836D01*
X104342454Y-83803245D01*
X104539198Y-83999989D01*
X100000003Y-83999989D01*
X100000003Y-81048992D01*
X100014352Y-81014352D01*
X100049000Y-81000000D01*
X159951000Y-81000000D01*
X159985648Y-81014352D01*
G37*
%TD.AperFunction*%
%TD*%
%TA.AperFunction,Conductor*%
%TO.N,GND*%
G36*
X152287066Y-117076807D02*
G01*
X152287075Y-117076818D01*
X152473181Y-117262924D01*
X152473192Y-117262933D01*
X152682024Y-117423176D01*
X152909965Y-117554778D01*
X152909976Y-117554783D01*
X153153164Y-117655515D01*
X153407424Y-117723644D01*
X153668386Y-117757999D01*
X153668396Y-117758000D01*
X154246000Y-117758000D01*
X154246000Y-116999989D01*
X154754000Y-116999989D01*
X154754000Y-117758000D01*
X155331604Y-117758000D01*
X155331613Y-117757999D01*
X155592575Y-117723644D01*
X155846835Y-117655515D01*
X156090023Y-117554783D01*
X156090034Y-117554778D01*
X156317975Y-117423176D01*
X156526807Y-117262933D01*
X156526818Y-117262924D01*
X156712924Y-117076818D01*
X156712933Y-117076807D01*
X156771878Y-116999989D01*
X160000000Y-116999989D01*
X160000000Y-119874000D01*
X159979998Y-119942121D01*
X159926342Y-119988614D01*
X159874051Y-119999989D01*
X100125963Y-119999989D01*
X100057879Y-119979998D01*
X100011386Y-119926342D01*
X100000003Y-119874013D01*
X100000003Y-116999989D01*
X152228121Y-116999989D01*
X152287066Y-117076807D01*
G37*
%TD.AperFunction*%
%TD*%
M02*
