%TF.GenerationSoftware,KiCad,Pcbnew,8.0.3*%
%TF.CreationDate,2024-07-06T22:04:31-07:00*%
%TF.ProjectId,ps2usb,70733275-7362-42e6-9b69-6361645f7063,rev?*%
%TF.SameCoordinates,Original*%
%TF.FileFunction,Copper,L1,Top*%
%TF.FilePolarity,Positive*%
%FSLAX46Y46*%
G04 Gerber Fmt 4.6, Leading zero omitted, Abs format (unit mm)*
G04 Created by KiCad (PCBNEW 8.0.3) date 2024-07-06 22:04:31*
%MOMM*%
%LPD*%
G01*
G04 APERTURE LIST*
G04 Aperture macros list*
%AMRoundRect*
0 Rectangle with rounded corners*
0 $1 Rounding radius*
0 $2 $3 $4 $5 $6 $7 $8 $9 X,Y pos of 4 corners*
0 Add a 4 corners polygon primitive as box body*
4,1,4,$2,$3,$4,$5,$6,$7,$8,$9,$2,$3,0*
0 Add four circle primitives for the rounded corners*
1,1,$1+$1,$2,$3*
1,1,$1+$1,$4,$5*
1,1,$1+$1,$6,$7*
1,1,$1+$1,$8,$9*
0 Add four rect primitives between the rounded corners*
20,1,$1+$1,$2,$3,$4,$5,0*
20,1,$1+$1,$4,$5,$6,$7,0*
20,1,$1+$1,$6,$7,$8,$9,0*
20,1,$1+$1,$8,$9,$2,$3,0*%
G04 Aperture macros list end*
%TA.AperFunction,ComponentPad*%
%ADD10C,1.800000*%
%TD*%
%TA.AperFunction,ComponentPad*%
%ADD11O,4.400000X3.000000*%
%TD*%
%TA.AperFunction,ComponentPad*%
%ADD12C,4.400000*%
%TD*%
%TA.AperFunction,SMDPad,CuDef*%
%ADD13RoundRect,0.250000X-0.650000X0.325000X-0.650000X-0.325000X0.650000X-0.325000X0.650000X0.325000X0*%
%TD*%
%TA.AperFunction,SMDPad,CuDef*%
%ADD14R,0.800000X0.500000*%
%TD*%
%TA.AperFunction,SMDPad,CuDef*%
%ADD15R,0.800000X0.400000*%
%TD*%
%TA.AperFunction,SMDPad,CuDef*%
%ADD16O,1.400000X0.300000*%
%TD*%
%TA.AperFunction,SMDPad,CuDef*%
%ADD17O,0.300000X1.400000*%
%TD*%
%TA.AperFunction,SMDPad,CuDef*%
%ADD18RoundRect,0.225000X-0.250000X0.225000X-0.250000X-0.225000X0.250000X-0.225000X0.250000X0.225000X0*%
%TD*%
%TA.AperFunction,ComponentPad*%
%ADD19R,1.700000X1.700000*%
%TD*%
%TA.AperFunction,ComponentPad*%
%ADD20O,1.700000X1.700000*%
%TD*%
%TA.AperFunction,SMDPad,CuDef*%
%ADD21R,1.400000X1.200000*%
%TD*%
%TA.AperFunction,SMDPad,CuDef*%
%ADD22RoundRect,0.225000X0.250000X-0.225000X0.250000X0.225000X-0.250000X0.225000X-0.250000X-0.225000X0*%
%TD*%
%TA.AperFunction,SMDPad,CuDef*%
%ADD23RoundRect,0.250000X0.325000X0.650000X-0.325000X0.650000X-0.325000X-0.650000X0.325000X-0.650000X0*%
%TD*%
%TA.AperFunction,ComponentPad*%
%ADD24C,2.000000*%
%TD*%
%TA.AperFunction,ComponentPad*%
%ADD25C,2.600000*%
%TD*%
%TA.AperFunction,SMDPad,CuDef*%
%ADD26RoundRect,0.150000X0.300000X0.150000X-0.300000X0.150000X-0.300000X-0.150000X0.300000X-0.150000X0*%
%TD*%
%TA.AperFunction,SMDPad,CuDef*%
%ADD27RoundRect,0.137500X0.137500X0.162500X-0.137500X0.162500X-0.137500X-0.162500X0.137500X-0.162500X0*%
%TD*%
%TA.AperFunction,SMDPad,CuDef*%
%ADD28RoundRect,0.250000X-0.375000X-0.625000X0.375000X-0.625000X0.375000X0.625000X-0.375000X0.625000X0*%
%TD*%
%TA.AperFunction,SMDPad,CuDef*%
%ADD29RoundRect,0.250000X-0.325000X-0.650000X0.325000X-0.650000X0.325000X0.650000X-0.325000X0.650000X0*%
%TD*%
%TA.AperFunction,ComponentPad*%
%ADD30O,3.000000X1.500000*%
%TD*%
%TA.AperFunction,ComponentPad*%
%ADD31O,5.000000X3.500000*%
%TD*%
%TA.AperFunction,ViaPad*%
%ADD32C,0.800000*%
%TD*%
%TA.AperFunction,Conductor*%
%ADD33C,0.250000*%
%TD*%
%TA.AperFunction,Conductor*%
%ADD34C,0.203200*%
%TD*%
%TA.AperFunction,Conductor*%
%ADD35C,0.889000*%
%TD*%
%TA.AperFunction,Conductor*%
%ADD36C,0.254000*%
%TD*%
G04 APERTURE END LIST*
D10*
%TO.P,J2,1,1*%
%TO.N,/DIN2-1*%
X151500000Y-107700000D03*
%TO.P,J2,2,2*%
%TO.N,/DIN2-2*%
X151500000Y-110300000D03*
%TO.P,J2,3,3*%
%TO.N,GND*%
X151500000Y-105600000D03*
%TO.P,J2,4,4*%
%TO.N,unconnected-(J2-Pad4)*%
X149000000Y-107700000D03*
%TO.P,J2,5,5*%
%TO.N,Net-(F1-Pad2)*%
X151500000Y-112400000D03*
%TO.P,J2,6,6*%
%TO.N,/DIN2-6*%
X149000000Y-105600000D03*
%TO.P,J2,7,7*%
%TO.N,unconnected-(J2-Pad7)*%
X149000000Y-109900000D03*
%TO.P,J2,8,8*%
%TO.N,/DIN2-8*%
X149000000Y-112400000D03*
D11*
%TO.P,J2,S,S*%
%TO.N,GND*%
X154500000Y-102250000D03*
D12*
X155300000Y-109000000D03*
D11*
X154500000Y-115750000D03*
%TD*%
D13*
%TO.P,C6,1*%
%TO.N,GND*%
X129475000Y-111750000D03*
%TO.P,C6,2*%
%TO.N,+5V*%
X129475000Y-114700000D03*
%TD*%
D14*
%TO.P,RN2,1,R1.1*%
%TO.N,+5V*%
X145325000Y-109925000D03*
D15*
%TO.P,RN2,2,R2.1*%
X145325000Y-109125000D03*
%TO.P,RN2,3,R3.1*%
X145325000Y-108325000D03*
D14*
%TO.P,RN2,4,R4.1*%
X145325000Y-107525000D03*
%TO.P,RN2,5,R4.2*%
%TO.N,/DIN2-1*%
X143525000Y-107525000D03*
D15*
%TO.P,RN2,6,R3.2*%
%TO.N,/DIN2-6*%
X143525000Y-108325000D03*
%TO.P,RN2,7,R2.2*%
%TO.N,/DIN2-2*%
X143525000Y-109125000D03*
D14*
%TO.P,RN2,8,R1.2*%
%TO.N,/DIN2-8*%
X143525000Y-109925000D03*
%TD*%
D16*
%TO.P,U1,1*%
%TO.N,N/C*%
X132600000Y-104500000D03*
%TO.P,U1,2*%
X132600000Y-104000000D03*
%TO.P,U1,3,P5.7/RST*%
%TO.N,unconnected-(U1A-P5.7{slash}RST-Pad3)*%
X132600000Y-103500000D03*
%TO.P,U1,4,P3.0/RXD*%
%TO.N,Net-(J4-Pin_3)*%
X132600000Y-103000000D03*
%TO.P,U1,5*%
%TO.N,N/C*%
X132600000Y-102500000D03*
%TO.P,U1,6,P4.4/TXD1_/A4*%
%TO.N,unconnected-(U1A-P4.4{slash}TXD1_{slash}A4-Pad6)*%
X132600000Y-102000000D03*
%TO.P,U1,7,P3.1/TXD*%
%TO.N,Net-(J4-Pin_2)*%
X132600000Y-101500000D03*
%TO.P,U1,8*%
%TO.N,N/C*%
X132600000Y-101000000D03*
%TO.P,U1,9*%
X132600000Y-100500000D03*
%TO.P,U1,10,P3.4/LEDC/XCS0/T0*%
%TO.N,Net-(U1A-P3.4{slash}LEDC{slash}XCS0{slash}T0)*%
X132600000Y-100000000D03*
%TO.P,U1,11,P3.5/DA6/T1*%
%TO.N,/DIN1-8*%
X132600000Y-99500000D03*
%TO.P,U1,12,P3.6/WR*%
%TO.N,/DIN1-2*%
X132600000Y-99000000D03*
D17*
%TO.P,U1,13,P3.7/RD*%
%TO.N,/DIN1-6*%
X131150000Y-97550000D03*
%TO.P,U1,14,P4.3/PWM1_/A3*%
%TO.N,/DIN1-1*%
X130650000Y-97550000D03*
%TO.P,U1,15,P2.4/PWM3_/CAP3_/A2*%
%TO.N,Net-(RN3-R1.2)*%
X130150000Y-97550000D03*
%TO.P,U1,16,P4.6/XI/SCS_*%
%TO.N,Net-(U1A-P4.6{slash}XI{slash}SCS_)*%
X129650000Y-97550000D03*
%TO.P,U1,17,P4.7/XO/SCK_*%
%TO.N,Net-(U1A-P4.7{slash}XO{slash}SCK_)*%
X129150000Y-97550000D03*
%TO.P,U1,18,GND*%
%TO.N,GND*%
X128650000Y-97550000D03*
%TO.P,U1,19*%
%TO.N,N/C*%
X128150000Y-97550000D03*
%TO.P,U1,20,P4.0/A0/RXD1_*%
%TO.N,GND*%
X127650000Y-97550000D03*
%TO.P,U1,21*%
%TO.N,N/C*%
X127150000Y-97550000D03*
%TO.P,U1,22*%
X126650000Y-97550000D03*
%TO.P,U1,23*%
X126150000Y-97550000D03*
%TO.P,U1,24*%
X125650000Y-97550000D03*
D16*
%TO.P,U1,25,P2.4/PWM1/A12*%
%TO.N,Net-(RN3-R4.2)*%
X124200000Y-99000000D03*
%TO.P,U1,26,P2.5/TNOW/PWM2*%
%TO.N,Net-(RN3-R3.2)*%
X124200000Y-99500000D03*
%TO.P,U1,27*%
%TO.N,N/C*%
X124200000Y-100000000D03*
%TO.P,U1,28*%
X124200000Y-100500000D03*
%TO.P,U1,29,P5.5/HP/!A15/XA*%
%TO.N,Net-(U1A-P5.5{slash}HP{slash}!A15{slash}XA)*%
X124200000Y-101000000D03*
%TO.P,U1,30,P5.4/HM/ALE/XB*%
%TO.N,Net-(U1A-P5.4{slash}HM{slash}ALE{slash}XB)*%
X124200000Y-101500000D03*
%TO.P,U1,31,P5.1/DP*%
%TO.N,Net-(U1A-P5.1{slash}DP)*%
X124200000Y-102000000D03*
%TO.P,U1,32,P5.0/DM*%
%TO.N,Net-(U1A-P5.0{slash}DM)*%
X124200000Y-102500000D03*
%TO.P,U1,33,P0.7/AD7/UDCD*%
%TO.N,/DIN2-8*%
X124200000Y-103000000D03*
%TO.P,U1,34,P0.6/AD6/URI*%
%TO.N,/DIN2-2*%
X124200000Y-103500000D03*
%TO.P,U1,35,P0.5/AD5/UDSR*%
%TO.N,/DIN2-6*%
X124200000Y-104000000D03*
%TO.P,U1,36,P0.4/AD4/UCTS*%
%TO.N,unconnected-(U1A-P0.4{slash}AD4{slash}UCTS-Pad36)*%
X124200000Y-104500000D03*
D17*
%TO.P,U1,37,P0.3/AD3/TXD_*%
%TO.N,/DIN2-1*%
X125650000Y-105950000D03*
%TO.P,U1,38*%
%TO.N,N/C*%
X126150000Y-105950000D03*
%TO.P,U1,39,P0.1/AD1/URTS*%
%TO.N,unconnected-(U1A-P0.1{slash}AD1{slash}URTS-Pad39)*%
X126650000Y-105950000D03*
%TO.P,U1,40*%
%TO.N,N/C*%
X127150000Y-105950000D03*
%TO.P,U1,41,VIN5*%
%TO.N,+5V*%
X127650000Y-105950000D03*
%TO.P,U1,42,VDD33*%
%TO.N,+3.3V*%
X128150000Y-105950000D03*
%TO.P,U1,43*%
%TO.N,N/C*%
X128650000Y-105950000D03*
%TO.P,U1,44*%
X129150000Y-105950000D03*
%TO.P,U1,45*%
X129650000Y-105950000D03*
%TO.P,U1,46*%
X130150000Y-105950000D03*
%TO.P,U1,47*%
X130650000Y-105950000D03*
%TO.P,U1,48*%
X131150000Y-105950000D03*
%TD*%
D13*
%TO.P,C7,1*%
%TO.N,GND*%
X136775000Y-111750000D03*
%TO.P,C7,2*%
%TO.N,+5V*%
X136775000Y-114700000D03*
%TD*%
D14*
%TO.P,RN1,1,R1.1*%
%TO.N,+5V*%
X145325000Y-93000000D03*
D15*
%TO.P,RN1,2,R2.1*%
X145325000Y-92200000D03*
%TO.P,RN1,3,R3.1*%
X145325000Y-91400000D03*
D14*
%TO.P,RN1,4,R4.1*%
X145325000Y-90600000D03*
%TO.P,RN1,5,R4.2*%
%TO.N,/DIN1-1*%
X143525000Y-90600000D03*
D15*
%TO.P,RN1,6,R3.2*%
%TO.N,/DIN1-6*%
X143525000Y-91400000D03*
%TO.P,RN1,7,R2.2*%
%TO.N,/DIN1-2*%
X143525000Y-92200000D03*
D14*
%TO.P,RN1,8,R1.2*%
%TO.N,/DIN1-8*%
X143525000Y-93000000D03*
%TD*%
D18*
%TO.P,C3,1*%
%TO.N,GND*%
X126475000Y-93445200D03*
%TO.P,C3,2*%
%TO.N,Net-(U1A-P4.7{slash}XO{slash}SCK_)*%
X126475000Y-94995200D03*
%TD*%
D19*
%TO.P,J4,1,Pin_1*%
%TO.N,GND*%
X136800000Y-99110000D03*
D20*
%TO.P,J4,2,Pin_2*%
%TO.N,Net-(J4-Pin_2)*%
X136800000Y-101650000D03*
%TO.P,J4,3,Pin_3*%
%TO.N,Net-(J4-Pin_3)*%
X136800000Y-104190000D03*
%TD*%
D21*
%TO.P,Y1,1,1*%
%TO.N,Net-(U1A-P4.6{slash}XI{slash}SCS_)*%
X130775000Y-93445200D03*
%TO.P,Y1,2,2*%
%TO.N,GND*%
X128575000Y-93445200D03*
%TO.P,Y1,3,3*%
%TO.N,Net-(U1A-P4.7{slash}XO{slash}SCK_)*%
X128575000Y-95145200D03*
%TO.P,Y1,4,4*%
%TO.N,GND*%
X130775000Y-95145200D03*
%TD*%
D22*
%TO.P,C4,1*%
%TO.N,GND*%
X132925000Y-95145200D03*
%TO.P,C4,2*%
%TO.N,Net-(U1A-P4.6{slash}XI{slash}SCS_)*%
X132925000Y-93595200D03*
%TD*%
D23*
%TO.P,C2,1*%
%TO.N,GND*%
X132500000Y-108575000D03*
%TO.P,C2,2*%
%TO.N,+3.3V*%
X129550000Y-108575000D03*
%TD*%
D24*
%TO.P,S1,1,1*%
%TO.N,Net-(U1A-P3.4{slash}LEDC{slash}XCS0{slash}T0)*%
X102930000Y-86500000D03*
%TO.P,S1,2,2*%
%TO.N,GND*%
X102930000Y-91000000D03*
D25*
%TO.P,S1,M,M*%
X105430000Y-85250000D03*
X105430000Y-92250000D03*
%TD*%
D26*
%TO.P,D1,1,1*%
%TO.N,+3.3V*%
X101250000Y-110850000D03*
D27*
%TO.P,D1,2,B*%
%TO.N,Net-(D1-B)*%
X101575000Y-111800000D03*
%TO.P,D1,3,G*%
%TO.N,Net-(D1-G)*%
X101575000Y-112700000D03*
D26*
%TO.P,D1,4,R*%
%TO.N,Net-(D1-R)*%
X101250000Y-113650000D03*
%TD*%
D10*
%TO.P,J1,1,1*%
%TO.N,/DIN1-1*%
X151500000Y-90700000D03*
%TO.P,J1,2,2*%
%TO.N,/DIN1-2*%
X151500000Y-93300000D03*
%TO.P,J1,3,3*%
%TO.N,GND*%
X151500000Y-88600000D03*
%TO.P,J1,4,4*%
%TO.N,unconnected-(J1-Pad4)*%
X149000000Y-90700000D03*
%TO.P,J1,5,5*%
%TO.N,Net-(F1-Pad2)*%
X151500000Y-95400000D03*
%TO.P,J1,6,6*%
%TO.N,/DIN1-6*%
X149000000Y-88600000D03*
%TO.P,J1,7,7*%
%TO.N,unconnected-(J1-Pad7)*%
X149000000Y-92900000D03*
%TO.P,J1,8,8*%
%TO.N,/DIN1-8*%
X149000000Y-95400000D03*
D11*
%TO.P,J1,S,S*%
%TO.N,GND*%
X154500000Y-85250000D03*
D12*
X155300000Y-92000000D03*
D11*
X154500000Y-98750000D03*
%TD*%
D28*
%TO.P,F1,1*%
%TO.N,+5V*%
X139150000Y-114700000D03*
%TO.P,F1,2*%
%TO.N,Net-(F1-Pad2)*%
X141950000Y-114700000D03*
%TD*%
D14*
%TO.P,RN3,1,R1.1*%
%TO.N,Net-(D1-B)*%
X103575000Y-110425000D03*
D15*
%TO.P,RN3,2,R2.1*%
X103575000Y-111225000D03*
%TO.P,RN3,3,R3.1*%
%TO.N,Net-(D1-G)*%
X103575000Y-112025000D03*
D14*
%TO.P,RN3,4,R4.1*%
%TO.N,Net-(D1-R)*%
X103575000Y-112825000D03*
%TO.P,RN3,5,R4.2*%
%TO.N,Net-(RN3-R4.2)*%
X105375000Y-112825000D03*
D15*
%TO.P,RN3,6,R3.2*%
%TO.N,Net-(RN3-R3.2)*%
X105375000Y-112025000D03*
%TO.P,RN3,7,R2.2*%
%TO.N,Net-(RN3-R1.2)*%
X105375000Y-111225000D03*
D14*
%TO.P,RN3,8,R1.2*%
X105375000Y-110425000D03*
%TD*%
D29*
%TO.P,C1,1*%
%TO.N,GND*%
X124700000Y-108575000D03*
%TO.P,C1,2*%
%TO.N,+5V*%
X127650000Y-108575000D03*
%TD*%
D30*
%TO.P,J3,1A,VBUS*%
%TO.N,+5V*%
X116280000Y-97000000D03*
%TO.P,J3,1B,VBUS*%
X112260000Y-97000000D03*
%TO.P,J3,2A,D-*%
%TO.N,Net-(U1A-P5.4{slash}HM{slash}ALE{slash}XB)*%
X116280000Y-99500000D03*
%TO.P,J3,2B,D-*%
%TO.N,Net-(U1A-P5.0{slash}DM)*%
X112260000Y-99500000D03*
%TO.P,J3,3A,D+*%
%TO.N,Net-(U1A-P5.5{slash}HP{slash}!A15{slash}XA)*%
X116280000Y-101500000D03*
%TO.P,J3,3B,D+*%
%TO.N,Net-(U1A-P5.1{slash}DP)*%
X112260000Y-101500000D03*
%TO.P,J3,4A,GND*%
%TO.N,GND*%
X116280000Y-104000000D03*
%TO.P,J3,4B,GND*%
X112260000Y-104000000D03*
D31*
%TO.P,J3,S,SHIELD*%
X115930000Y-93930000D03*
X110250000Y-93930000D03*
X115930000Y-107070000D03*
X110250000Y-107070000D03*
%TD*%
D13*
%TO.P,C5,1*%
%TO.N,GND*%
X131975000Y-111750000D03*
%TO.P,C5,2*%
%TO.N,+5V*%
X131975000Y-114700000D03*
%TD*%
D32*
%TO.N,+3.3V*%
X129550000Y-116200000D03*
X129550000Y-110325000D03*
%TO.N,GND*%
X119225000Y-101400000D03*
X157750003Y-82499989D03*
X158500003Y-118499989D03*
X128000000Y-82500000D03*
X145250000Y-118500000D03*
X127175000Y-96125000D03*
X122125000Y-100225000D03*
X101500000Y-82500000D03*
X114500000Y-82500000D03*
X123130000Y-108575000D03*
X104475000Y-114850000D03*
X134400000Y-112800000D03*
X106750000Y-96000000D03*
X147000000Y-91425000D03*
X134300000Y-102275000D03*
X130500003Y-118499989D03*
X101500003Y-118499989D03*
X128125000Y-103550000D03*
X132525000Y-97525000D03*
X119625000Y-93925000D03*
X134225000Y-95145200D03*
X115250000Y-118500000D03*
X134125000Y-108575000D03*
X144750000Y-82500000D03*
X127150000Y-92095200D03*
X128450000Y-100575000D03*
X147025000Y-108400000D03*
%TO.N,+5V*%
X139150000Y-110950000D03*
X139150000Y-108275000D03*
X146450000Y-109925000D03*
%TO.N,/DIN2-1*%
X126975000Y-104225000D03*
X135325000Y-106450000D03*
%TO.N,/DIN2-6*%
X129725000Y-104225000D03*
X133400000Y-105450000D03*
%TO.N,Net-(U1A-P3.4{slash}LEDC{slash}XCS0{slash}T0)*%
X126477400Y-99204800D03*
X126025000Y-96100000D03*
%TO.N,Net-(U1A-P5.1{slash}DP)*%
X122550000Y-103225000D03*
X125800000Y-102000000D03*
%TO.N,Net-(RN3-R4.2)*%
X124375000Y-96575000D03*
X125800000Y-99925000D03*
%TO.N,/DIN1-6*%
X149000000Y-86725000D03*
%TD*%
D33*
%TO.N,+3.3V*%
X100522600Y-111577400D02*
X100522600Y-114022600D01*
X101250000Y-110850000D02*
X100522600Y-111577400D01*
X100522600Y-114022600D02*
X102700000Y-116200000D01*
X102700000Y-116200000D02*
X129550000Y-116200000D01*
D34*
X128150000Y-107175000D02*
X129550000Y-108575000D01*
X129550000Y-108575000D02*
X129550000Y-110325000D01*
X128150000Y-105950000D02*
X128150000Y-107175000D01*
D35*
%TO.N,Net-(F1-Pad2)*%
X158550000Y-96625000D02*
X158550000Y-110575000D01*
X151500000Y-113672792D02*
X151500000Y-112400000D01*
X150472792Y-114700000D02*
X141950000Y-114700000D01*
X157325000Y-95400000D02*
X158550000Y-96625000D01*
X156725000Y-112400000D02*
X151500000Y-112400000D01*
X158550000Y-110575000D02*
X156725000Y-112400000D01*
X151500000Y-113672792D02*
X150472792Y-114700000D01*
X151500000Y-95400000D02*
X157325000Y-95400000D01*
%TO.N,GND*%
X110250000Y-107070000D02*
X115930000Y-107070000D01*
D33*
X123130000Y-108575000D02*
X124700000Y-108575000D01*
D34*
X127846342Y-96125000D02*
X127175000Y-96125000D01*
X127650000Y-96600000D02*
X127175000Y-96125000D01*
D35*
X108820000Y-93930000D02*
X106750000Y-96000000D01*
X110250000Y-93930000D02*
X115930000Y-93930000D01*
D34*
X127650000Y-97550000D02*
X127650000Y-96600000D01*
D33*
X126475000Y-93445200D02*
X128575000Y-93445200D01*
X126475000Y-92770200D02*
X126475000Y-93445200D01*
D35*
X115930000Y-107070000D02*
X115930000Y-108255000D01*
D33*
X130775000Y-95145200D02*
X132925000Y-95145200D01*
D35*
X119625000Y-93925000D02*
X119620000Y-93930000D01*
X110250000Y-93930000D02*
X108820000Y-93930000D01*
D33*
X127150000Y-92095200D02*
X126475000Y-92770200D01*
X134125000Y-108575000D02*
X132500000Y-108575000D01*
D34*
X128650000Y-96928658D02*
X127846342Y-96125000D01*
D35*
X112960000Y-104000000D02*
X115580000Y-104000000D01*
D34*
X128650000Y-97550000D02*
X128650000Y-96928658D01*
D33*
X127225000Y-92095200D02*
X128575000Y-93445200D01*
D35*
X119620000Y-93930000D02*
X115930000Y-93930000D01*
%TO.N,+5V*%
X127150000Y-114700000D02*
X128150000Y-114700000D01*
X127150000Y-114700000D02*
X127650000Y-114200000D01*
D34*
X127650000Y-105950000D02*
X127650000Y-108575000D01*
D36*
X150225000Y-94815876D02*
X149488524Y-94079400D01*
X150225000Y-95984124D02*
X150225000Y-94815876D01*
D34*
X139150000Y-110950000D02*
X139150000Y-114700000D01*
D36*
X139150000Y-107059124D02*
X150225000Y-95984124D01*
D34*
X145325000Y-107525000D02*
X145325000Y-109925000D01*
D35*
X128150000Y-114700000D02*
X127650000Y-114200000D01*
X128150000Y-114700000D02*
X136775000Y-114700000D01*
X108100000Y-114700000D02*
X127150000Y-114700000D01*
X107153100Y-100196900D02*
X107153100Y-113753100D01*
X112960000Y-97000000D02*
X110350000Y-97000000D01*
D36*
X139150000Y-107059124D02*
X139150000Y-108275000D01*
D35*
X112960000Y-97000000D02*
X115580000Y-97000000D01*
D36*
X145325000Y-93424736D02*
X145325000Y-90600000D01*
X145979664Y-94079400D02*
X145325000Y-93424736D01*
D34*
X146450000Y-109925000D02*
X145325000Y-109925000D01*
D35*
X107153100Y-113753100D02*
X108100000Y-114700000D01*
D36*
X149488524Y-94079400D02*
X145979664Y-94079400D01*
D35*
X110350000Y-97000000D02*
X107153100Y-100196900D01*
X127650000Y-114200000D02*
X127650000Y-108575000D01*
X136775000Y-114700000D02*
X139150000Y-114700000D01*
D34*
%TO.N,/DIN1-1*%
X130650000Y-96928658D02*
X130650000Y-97550000D01*
X143525000Y-90600000D02*
X139695096Y-90600000D01*
X143525000Y-90600000D02*
X143525000Y-88350000D01*
D33*
X151772600Y-86047600D02*
X145827400Y-86047600D01*
D34*
X134120096Y-96175000D02*
X131403658Y-96175000D01*
X131403658Y-96175000D02*
X130650000Y-96928658D01*
D33*
X152825000Y-90700000D02*
X153725000Y-89800000D01*
X153725000Y-88000000D02*
X151772600Y-86047600D01*
X145827400Y-86047600D02*
X143525000Y-88350000D01*
D34*
X139695096Y-90600000D02*
X134120096Y-96175000D01*
D33*
X153725000Y-89800000D02*
X153725000Y-88000000D01*
X151500000Y-90700000D02*
X152825000Y-90700000D01*
D34*
%TO.N,/DIN1-2*%
X144550000Y-88775000D02*
X145879000Y-87446000D01*
X149478003Y-87446000D02*
X150346000Y-88313997D01*
X143833000Y-92200000D02*
X144550000Y-91483000D01*
X143525000Y-92200000D02*
X143833000Y-92200000D01*
X150346000Y-88313997D02*
X150346000Y-92146000D01*
X139100884Y-92200000D02*
X132600000Y-98700884D01*
X132600000Y-98700884D02*
X132600000Y-99000000D01*
X144550000Y-91483000D02*
X144550000Y-88775000D01*
X143525000Y-92200000D02*
X139100884Y-92200000D01*
X150346000Y-92146000D02*
X151500000Y-93300000D01*
X145879000Y-87446000D02*
X149478003Y-87446000D01*
%TO.N,/DIN1-8*%
X134164389Y-97639389D02*
X134164389Y-98556953D01*
X138803778Y-93000000D02*
X134164389Y-97639389D01*
X145925000Y-95400000D02*
X149000000Y-95400000D01*
X133221342Y-99500000D02*
X132600000Y-99500000D01*
X143525000Y-93000000D02*
X138803778Y-93000000D01*
X143525000Y-93000000D02*
X145925000Y-95400000D01*
X134164389Y-98556953D02*
X133221342Y-99500000D01*
D33*
%TO.N,/DIN2-1*%
X150322600Y-104872600D02*
X150322600Y-106522600D01*
X149872600Y-104422600D02*
X150322600Y-104872600D01*
X137827400Y-108952400D02*
X135325000Y-106450000D01*
X150322600Y-106522600D02*
X151500000Y-107700000D01*
X146627400Y-104422600D02*
X149872600Y-104422600D01*
X143525000Y-107525000D02*
X146627400Y-104422600D01*
X143525000Y-107525000D02*
X140857989Y-107525000D01*
D34*
X126350000Y-104225000D02*
X126975000Y-104225000D01*
X125650000Y-104925000D02*
X126350000Y-104225000D01*
D33*
X140857989Y-107525000D02*
X139430589Y-108952400D01*
D34*
X125650000Y-105950000D02*
X125650000Y-104925000D01*
D33*
X139430589Y-108952400D02*
X137827400Y-108952400D01*
D34*
%TO.N,/DIN2-2*%
X125852894Y-103500000D02*
X126972294Y-102380600D01*
X124200000Y-103500000D02*
X125852894Y-103500000D01*
X131645600Y-105220600D02*
X131645600Y-109725000D01*
X142155600Y-110280600D02*
X144763524Y-112888524D01*
X145500000Y-111150000D02*
X150650000Y-111150000D01*
D36*
X147513524Y-112888524D02*
X148375000Y-113750000D01*
D34*
X131645600Y-109725000D02*
X132201200Y-110280600D01*
X144763524Y-112888524D02*
X147513524Y-112888524D01*
X150650000Y-111150000D02*
X151500000Y-110300000D01*
X132201200Y-110280600D02*
X142155600Y-110280600D01*
X143525000Y-109125000D02*
X144350000Y-109125000D01*
X150250000Y-113350000D02*
X149850000Y-113750000D01*
X128805600Y-102380600D02*
X131645600Y-105220600D01*
X149850000Y-113750000D02*
X148375000Y-113750000D01*
X144350000Y-110000000D02*
X145500000Y-111150000D01*
X144350000Y-109125000D02*
X144350000Y-110000000D01*
X150250000Y-111150000D02*
X150250000Y-113350000D01*
X126972294Y-102380600D02*
X128805600Y-102380600D01*
D36*
%TO.N,/DIN2-6*%
X146041200Y-105600000D02*
X149000000Y-105600000D01*
D34*
X128658306Y-102736200D02*
X129725000Y-103802894D01*
D36*
X139454897Y-109500000D02*
X137414183Y-109500000D01*
D34*
X125855788Y-104000000D02*
X127119588Y-102736200D01*
D36*
X143525000Y-108325000D02*
X140629897Y-108325000D01*
X144645600Y-107858400D02*
X144645600Y-106995600D01*
X137414183Y-109500000D02*
X133400000Y-105485817D01*
X133400000Y-105485817D02*
X133400000Y-105450000D01*
D34*
X127119588Y-102736200D02*
X128658306Y-102736200D01*
X124200000Y-104000000D02*
X125855788Y-104000000D01*
D36*
X140629897Y-108325000D02*
X139454897Y-109500000D01*
D34*
X129725000Y-103802894D02*
X129725000Y-104225000D01*
D36*
X143525000Y-108325000D02*
X144179000Y-108325000D01*
X144179000Y-108325000D02*
X144645600Y-107858400D01*
X144645600Y-106995600D02*
X146041200Y-105600000D01*
%TO.N,/DIN2-8*%
X146000000Y-112400000D02*
X149000000Y-112400000D01*
D34*
X126825000Y-102025000D02*
X129003658Y-102025000D01*
X136903658Y-109925000D02*
X143525000Y-109925000D01*
X124200000Y-103000000D02*
X125850000Y-103000000D01*
D36*
X143525000Y-109925000D02*
X146000000Y-112400000D01*
D34*
X129003658Y-102025000D02*
X136903658Y-109925000D01*
X125850000Y-103000000D02*
X126825000Y-102025000D01*
D33*
%TO.N,Net-(D1-R)*%
X102750000Y-113650000D02*
X103575000Y-112825000D01*
X101250000Y-113650000D02*
X102750000Y-113650000D01*
%TO.N,Net-(D1-G)*%
X101575000Y-112700000D02*
X102250000Y-112025000D01*
X102250000Y-112025000D02*
X103575000Y-112025000D01*
%TO.N,Net-(D1-B)*%
X102150000Y-111225000D02*
X103575000Y-111225000D01*
X101575000Y-111800000D02*
X102150000Y-111225000D01*
X103575000Y-110425000D02*
X103575000Y-111225000D01*
%TO.N,Net-(U1A-P3.4{slash}LEDC{slash}XCS0{slash}T0)*%
X102930000Y-86500000D02*
X105280000Y-88850000D01*
D34*
X128799896Y-100000000D02*
X132600000Y-100000000D01*
X126477400Y-99204800D02*
X128004696Y-99204800D01*
D33*
X124622496Y-95897600D02*
X125822600Y-95897600D01*
X117574896Y-88850000D02*
X124622496Y-95897600D01*
X105280000Y-88850000D02*
X117574896Y-88850000D01*
X125822600Y-95897600D02*
X126025000Y-96100000D01*
D34*
X128004696Y-99204800D02*
X128799896Y-100000000D01*
%TO.N,Net-(U1A-P4.6{slash}XI{slash}SCS_)*%
X129650000Y-97550000D02*
X129650000Y-95875000D01*
D33*
X132925000Y-93770200D02*
X131100000Y-93770200D01*
X129650000Y-94570200D02*
X130775000Y-93445200D01*
X129650000Y-95875000D02*
X129650000Y-94570200D01*
D34*
%TO.N,Net-(U1A-P4.7{slash}XO{slash}SCK_)*%
X129150000Y-97550000D02*
X129150000Y-95720200D01*
D33*
X126475000Y-95270200D02*
X128450000Y-95270200D01*
D34*
X129150000Y-95720200D02*
X128575000Y-95145200D01*
D33*
%TO.N,Net-(J4-Pin_3)*%
X135610000Y-103000000D02*
X132600000Y-103000000D01*
X136800000Y-104190000D02*
X135610000Y-103000000D01*
%TO.N,Net-(J4-Pin_2)*%
X136650000Y-101500000D02*
X132600000Y-101500000D01*
D36*
%TO.N,Net-(U1A-P5.4{slash}HM{slash}ALE{slash}XB)*%
X118925000Y-99500000D02*
X120925000Y-101500000D01*
X115580000Y-99500000D02*
X118925000Y-99500000D01*
X120925000Y-101500000D02*
X124200000Y-101500000D01*
D34*
%TO.N,Net-(U1A-P5.0{slash}DM)*%
X112960000Y-99500000D02*
X114325000Y-100865000D01*
X114804000Y-102504000D02*
X124196000Y-102504000D01*
X114325000Y-102025000D02*
X114804000Y-102504000D01*
X124196000Y-102504000D02*
X124200000Y-102500000D01*
X114325000Y-100865000D02*
X114325000Y-102025000D01*
%TO.N,Net-(U1A-P5.5{slash}HP{slash}!A15{slash}XA)*%
X114375000Y-100295000D02*
X114375000Y-98800000D01*
X115580000Y-101500000D02*
X114375000Y-100295000D01*
X114375000Y-98800000D02*
X114900000Y-98275000D01*
X114900000Y-98275000D02*
X118550000Y-98275000D01*
X121275000Y-101000000D02*
X124200000Y-101000000D01*
X118550000Y-98275000D02*
X121275000Y-101000000D01*
%TO.N,Net-(U1A-P5.1{slash}DP)*%
X114319600Y-102859600D02*
X122184600Y-102859600D01*
X122184600Y-102859600D02*
X122550000Y-103225000D01*
X112960000Y-101500000D02*
X114319600Y-102859600D01*
X124200000Y-102000000D02*
X125800000Y-102000000D01*
%TO.N,Net-(RN3-R3.2)*%
X121500000Y-99500000D02*
X124200000Y-99500000D01*
X106400000Y-98203916D02*
X108653916Y-95950000D01*
X106400000Y-111200000D02*
X106400000Y-98203916D01*
X105575000Y-112025000D02*
X106400000Y-111200000D01*
D33*
X105375000Y-112025000D02*
X105575000Y-112025000D01*
D34*
X117950000Y-95950000D02*
X121500000Y-99500000D01*
X108653916Y-95950000D02*
X117950000Y-95950000D01*
D33*
%TO.N,Net-(RN3-R1.2)*%
X118735589Y-91902600D02*
X125360389Y-98527400D01*
X105375000Y-110425000D02*
X105375000Y-95187823D01*
X129827035Y-98527400D02*
X130150000Y-98204435D01*
X105375000Y-95187823D02*
X108660223Y-91902600D01*
X108660223Y-91902600D02*
X118735589Y-91902600D01*
X130150000Y-98204435D02*
X130150000Y-97550000D01*
X125360389Y-98527400D02*
X129827035Y-98527400D01*
X105375000Y-111225000D02*
X105375000Y-110425000D01*
%TO.N,Net-(RN3-R4.2)*%
X125800000Y-99925000D02*
X124875000Y-99000000D01*
X108493544Y-91500199D02*
X119300199Y-91500199D01*
X105375000Y-112825000D02*
X105020200Y-112825000D01*
X105020200Y-112825000D02*
X104697600Y-112502400D01*
X104697600Y-95296143D02*
X108493544Y-91500199D01*
X124875000Y-99000000D02*
X124200000Y-99000000D01*
X104697600Y-112502400D02*
X104697600Y-95296143D01*
X119300199Y-91500199D02*
X124375000Y-96575000D01*
D34*
%TO.N,/DIN1-6*%
X144179000Y-88404000D02*
X144175000Y-88400000D01*
X132225000Y-96550000D02*
X131225000Y-97550000D01*
X131225000Y-97550000D02*
X131150000Y-97550000D01*
X143525000Y-91400000D02*
X139397990Y-91400000D01*
X134247990Y-96550000D02*
X132225000Y-96550000D01*
X143525000Y-91400000D02*
X144128200Y-91400000D01*
X139397990Y-91400000D02*
X134247990Y-96550000D01*
X144179000Y-91349200D02*
X144179000Y-88404000D01*
X144128200Y-91400000D02*
X144179000Y-91349200D01*
X145850000Y-86725000D02*
X149000000Y-86725000D01*
X144175000Y-88400000D02*
X145850000Y-86725000D01*
%TD*%
%TA.AperFunction,Conductor*%
%TO.N,GND*%
G36*
X159942121Y-81020002D02*
G01*
X159988614Y-81073658D01*
X160000000Y-81126000D01*
X160000000Y-119874000D01*
X159979998Y-119942121D01*
X159926342Y-119988614D01*
X159874000Y-120000000D01*
X100126000Y-120000000D01*
X100057879Y-119979998D01*
X100011386Y-119926342D01*
X100000000Y-119874000D01*
X100000000Y-115710935D01*
X100000000Y-114405936D01*
X100020002Y-114337818D01*
X100073658Y-114291325D01*
X100143932Y-114281221D01*
X100208512Y-114310715D01*
X100215095Y-114316844D01*
X102359515Y-116461263D01*
X102438737Y-116540485D01*
X102535763Y-116596503D01*
X102643982Y-116625500D01*
X128927520Y-116625500D01*
X128995641Y-116645502D01*
X129016026Y-116662971D01*
X129016112Y-116662875D01*
X129021816Y-116667928D01*
X129021817Y-116667929D01*
X129149148Y-116780734D01*
X129299775Y-116859790D01*
X129299776Y-116859790D01*
X129299778Y-116859791D01*
X129456461Y-116898409D01*
X129464944Y-116900500D01*
X129464947Y-116900500D01*
X129635053Y-116900500D01*
X129635056Y-116900500D01*
X129800225Y-116859790D01*
X129950852Y-116780734D01*
X130078183Y-116667929D01*
X130174818Y-116527930D01*
X130235140Y-116368872D01*
X130255645Y-116200000D01*
X130235140Y-116031128D01*
X130176119Y-115875500D01*
X130174820Y-115872074D01*
X130174818Y-115872072D01*
X130174818Y-115872070D01*
X130103840Y-115769242D01*
X130081606Y-115701821D01*
X130099353Y-115633078D01*
X130151447Y-115584842D01*
X130192514Y-115572568D01*
X130256564Y-115564877D01*
X130397342Y-115509361D01*
X130448452Y-115470602D01*
X130514816Y-115445379D01*
X130524586Y-115445000D01*
X130925414Y-115445000D01*
X130993535Y-115465002D01*
X131001540Y-115470597D01*
X131030313Y-115492416D01*
X131052658Y-115509361D01*
X131193435Y-115564877D01*
X131193434Y-115564877D01*
X131221394Y-115568234D01*
X131281898Y-115575500D01*
X131281901Y-115575500D01*
X132668099Y-115575500D01*
X132668102Y-115575500D01*
X132756564Y-115564877D01*
X132897342Y-115509361D01*
X132948452Y-115470602D01*
X133014816Y-115445379D01*
X133024586Y-115445000D01*
X135725414Y-115445000D01*
X135793535Y-115465002D01*
X135801540Y-115470597D01*
X135830313Y-115492416D01*
X135852658Y-115509361D01*
X135993435Y-115564877D01*
X135993434Y-115564877D01*
X136021394Y-115568234D01*
X136081898Y-115575500D01*
X136081901Y-115575500D01*
X137468099Y-115575500D01*
X137468102Y-115575500D01*
X137556564Y-115564877D01*
X137697342Y-115509361D01*
X137748452Y-115470602D01*
X137814816Y-115445379D01*
X137824586Y-115445000D01*
X138144808Y-115445000D01*
X138212929Y-115465002D01*
X138259422Y-115518658D01*
X138262023Y-115524777D01*
X138290637Y-115597339D01*
X138290641Y-115597345D01*
X138382077Y-115717922D01*
X138502654Y-115809358D01*
X138502658Y-115809361D01*
X138643435Y-115864877D01*
X138643434Y-115864877D01*
X138671394Y-115868234D01*
X138731898Y-115875500D01*
X138731901Y-115875500D01*
X139568099Y-115875500D01*
X139568102Y-115875500D01*
X139656564Y-115864877D01*
X139797342Y-115809361D01*
X139917922Y-115717922D01*
X140009361Y-115597342D01*
X140064877Y-115456564D01*
X140075500Y-115368102D01*
X140075500Y-114031898D01*
X140064877Y-113943436D01*
X140061549Y-113934998D01*
X140009361Y-113802658D01*
X140009358Y-113802654D01*
X139917922Y-113682077D01*
X139797345Y-113590641D01*
X139797341Y-113590638D01*
X139656564Y-113535122D01*
X139648735Y-113533144D01*
X139649505Y-113530097D01*
X139597769Y-113507875D01*
X139558040Y-113449035D01*
X139552100Y-113410803D01*
X139552100Y-111586336D01*
X139572102Y-111518215D01*
X139594545Y-111492025D01*
X139678183Y-111417929D01*
X139774818Y-111277930D01*
X139835140Y-111118872D01*
X139847791Y-111014683D01*
X139855645Y-110950002D01*
X139855645Y-110949996D01*
X139840333Y-110823887D01*
X139851978Y-110753852D01*
X139899639Y-110701231D01*
X139965414Y-110682700D01*
X141936855Y-110682700D01*
X142004976Y-110702702D01*
X142025950Y-110719605D01*
X144441763Y-113135418D01*
X144441764Y-113135419D01*
X144482056Y-113175711D01*
X144516630Y-113210285D01*
X144588032Y-113251509D01*
X144608319Y-113263222D01*
X144710586Y-113290624D01*
X147258857Y-113290624D01*
X147326978Y-113310626D01*
X147347953Y-113327529D01*
X147760328Y-113739905D01*
X147794353Y-113802217D01*
X147789288Y-113873033D01*
X147746741Y-113929868D01*
X147680221Y-113954679D01*
X147671232Y-113955000D01*
X142955192Y-113955000D01*
X142887071Y-113934998D01*
X142840578Y-113881342D01*
X142837977Y-113875223D01*
X142809362Y-113802660D01*
X142809358Y-113802654D01*
X142717922Y-113682077D01*
X142597345Y-113590641D01*
X142597341Y-113590638D01*
X142456564Y-113535122D01*
X142456565Y-113535122D01*
X142368105Y-113524500D01*
X142368102Y-113524500D01*
X141531898Y-113524500D01*
X141531894Y-113524500D01*
X141443435Y-113535122D01*
X141302658Y-113590638D01*
X141302654Y-113590641D01*
X141182077Y-113682077D01*
X141090641Y-113802654D01*
X141090638Y-113802658D01*
X141035122Y-113943435D01*
X141024500Y-114031894D01*
X141024500Y-115368100D01*
X141035122Y-115456564D01*
X141090638Y-115597341D01*
X141090641Y-115597345D01*
X141182077Y-115717922D01*
X141302654Y-115809358D01*
X141302658Y-115809361D01*
X141443435Y-115864877D01*
X141443434Y-115864877D01*
X141471394Y-115868234D01*
X141531898Y-115875500D01*
X141531901Y-115875500D01*
X142368099Y-115875500D01*
X142368102Y-115875500D01*
X142456564Y-115864877D01*
X142597342Y-115809361D01*
X142717922Y-115717922D01*
X142809361Y-115597342D01*
X142837977Y-115524776D01*
X142860367Y-115496000D01*
X151808113Y-115496000D01*
X153426518Y-115496000D01*
X153400000Y-115663428D01*
X153400000Y-115836572D01*
X153426518Y-116004000D01*
X151808113Y-116004000D01*
X151826355Y-116142574D01*
X151826356Y-116142577D01*
X151894484Y-116396835D01*
X151995216Y-116640023D01*
X151995221Y-116640034D01*
X152126823Y-116867975D01*
X152287066Y-117076807D01*
X152287075Y-117076818D01*
X152473181Y-117262924D01*
X152473192Y-117262933D01*
X152682024Y-117423176D01*
X152909965Y-117554778D01*
X152909976Y-117554783D01*
X153153164Y-117655515D01*
X153407424Y-117723644D01*
X153668386Y-117757999D01*
X153668396Y-117758000D01*
X154246000Y-117758000D01*
X154246000Y-116823481D01*
X154413428Y-116850000D01*
X154586572Y-116850000D01*
X154754000Y-116823481D01*
X154754000Y-117758000D01*
X155331604Y-117758000D01*
X155331613Y-117757999D01*
X155592575Y-117723644D01*
X155846835Y-117655515D01*
X156090023Y-117554783D01*
X156090034Y-117554778D01*
X156317975Y-117423176D01*
X156526807Y-117262933D01*
X156526818Y-117262924D01*
X156712924Y-117076818D01*
X156712933Y-117076807D01*
X156873176Y-116867975D01*
X157004778Y-116640034D01*
X157004783Y-116640023D01*
X157105515Y-116396835D01*
X157173643Y-116142577D01*
X157173644Y-116142574D01*
X157191887Y-116004000D01*
X155573482Y-116004000D01*
X155600000Y-115836572D01*
X155600000Y-115663428D01*
X155573482Y-115496000D01*
X157191887Y-115496000D01*
X157173644Y-115357425D01*
X157173643Y-115357422D01*
X157105515Y-115103164D01*
X157004783Y-114859976D01*
X157004778Y-114859965D01*
X156873176Y-114632024D01*
X156712933Y-114423192D01*
X156712924Y-114423181D01*
X156526818Y-114237075D01*
X156526807Y-114237066D01*
X156317975Y-114076823D01*
X156090034Y-113945221D01*
X156090023Y-113945216D01*
X155846835Y-113844484D01*
X155592575Y-113776355D01*
X155331613Y-113742000D01*
X154754000Y-113742000D01*
X154754000Y-114676518D01*
X154586572Y-114650000D01*
X154413428Y-114650000D01*
X154246000Y-114676518D01*
X154246000Y-113742000D01*
X153668386Y-113742000D01*
X153407424Y-113776355D01*
X153153164Y-113844484D01*
X152909976Y-113945216D01*
X152909965Y-113945221D01*
X152682024Y-114076823D01*
X152473192Y-114237066D01*
X152473181Y-114237075D01*
X152287075Y-114423181D01*
X152287066Y-114423192D01*
X152126823Y-114632024D01*
X151995221Y-114859965D01*
X151995216Y-114859976D01*
X151894484Y-115103164D01*
X151826356Y-115357422D01*
X151826355Y-115357425D01*
X151808113Y-115496000D01*
X142860367Y-115496000D01*
X142881575Y-115468743D01*
X142948545Y-115445175D01*
X142955192Y-115445000D01*
X150546167Y-115445000D01*
X150546168Y-115445000D01*
X150690101Y-115416371D01*
X150806631Y-115368102D01*
X150825682Y-115360211D01*
X150947702Y-115278679D01*
X151051471Y-115174910D01*
X152078679Y-114147702D01*
X152106551Y-114105989D01*
X152160211Y-114025682D01*
X152216370Y-113890101D01*
X152245000Y-113746168D01*
X152245000Y-113400949D01*
X152265002Y-113332828D01*
X152286112Y-113307836D01*
X152390981Y-113212236D01*
X152403945Y-113195069D01*
X152460958Y-113152761D01*
X152504496Y-113145000D01*
X156798375Y-113145000D01*
X156798376Y-113145000D01*
X156942309Y-113116371D01*
X157038178Y-113076659D01*
X157077890Y-113060211D01*
X157199910Y-112978679D01*
X157303679Y-112874910D01*
X159128679Y-111049910D01*
X159134140Y-111041735D01*
X159144989Y-111025501D01*
X159144989Y-111025500D01*
X159152217Y-111014683D01*
X159210211Y-110927890D01*
X159251381Y-110828497D01*
X159266371Y-110792309D01*
X159295000Y-110648376D01*
X159295000Y-110501624D01*
X159295000Y-96551624D01*
X159282685Y-96489711D01*
X159266371Y-96407692D01*
X159258630Y-96389005D01*
X159221970Y-96300500D01*
X159221969Y-96300497D01*
X159210211Y-96272111D01*
X159210211Y-96272110D01*
X159128679Y-96150090D01*
X159024910Y-96046321D01*
X158413784Y-95435195D01*
X157799918Y-94821328D01*
X157799904Y-94821316D01*
X157793519Y-94817050D01*
X157677889Y-94739788D01*
X157677887Y-94739787D01*
X157638178Y-94723340D01*
X157603151Y-94708831D01*
X157542313Y-94683630D01*
X157542309Y-94683629D01*
X157517776Y-94678749D01*
X157398381Y-94655000D01*
X157398376Y-94655000D01*
X156586037Y-94655000D01*
X156517916Y-94634998D01*
X156471423Y-94581342D01*
X156461319Y-94511068D01*
X156490813Y-94446488D01*
X156534325Y-94414101D01*
X156560760Y-94402203D01*
X156560771Y-94402197D01*
X156841127Y-94232716D01*
X157027495Y-94086705D01*
X157027496Y-94086705D01*
X155879461Y-92938670D01*
X156016602Y-92839033D01*
X156139033Y-92716602D01*
X156238670Y-92579461D01*
X157386705Y-93727496D01*
X157386705Y-93727495D01*
X157532716Y-93541127D01*
X157702196Y-93260772D01*
X157836651Y-92962024D01*
X157934117Y-92649247D01*
X157934119Y-92649238D01*
X157993169Y-92327010D01*
X157993170Y-92327007D01*
X158012950Y-92000001D01*
X158012950Y-91999998D01*
X157993170Y-91672992D01*
X157993169Y-91672989D01*
X157934119Y-91350761D01*
X157934117Y-91350752D01*
X157836651Y-91037975D01*
X157702196Y-90739227D01*
X157532717Y-90458874D01*
X157532714Y-90458869D01*
X157386706Y-90272503D01*
X157386705Y-90272502D01*
X156238669Y-91420537D01*
X156139033Y-91283398D01*
X156016602Y-91160967D01*
X155879460Y-91061328D01*
X157027496Y-89913293D01*
X157027495Y-89913292D01*
X156841130Y-89767285D01*
X156841125Y-89767282D01*
X156560772Y-89597803D01*
X156262024Y-89463348D01*
X155949247Y-89365882D01*
X155949238Y-89365880D01*
X155627010Y-89306830D01*
X155627007Y-89306829D01*
X155300001Y-89287050D01*
X155299999Y-89287050D01*
X154972992Y-89306829D01*
X154972989Y-89306830D01*
X154650761Y-89365880D01*
X154650752Y-89365882D01*
X154337968Y-89463350D01*
X154328208Y-89467743D01*
X154257879Y-89477458D01*
X154193462Y-89447609D01*
X154155409Y-89387671D01*
X154150500Y-89352842D01*
X154150500Y-87943983D01*
X154150259Y-87943082D01*
X154121503Y-87835763D01*
X154097081Y-87793462D01*
X154065487Y-87738740D01*
X154065483Y-87738735D01*
X154025921Y-87699173D01*
X153986263Y-87659515D01*
X153799843Y-87473095D01*
X153765817Y-87410783D01*
X153770882Y-87339968D01*
X153813429Y-87283132D01*
X153879949Y-87258321D01*
X153888938Y-87258000D01*
X154246000Y-87258000D01*
X154246000Y-86323481D01*
X154413428Y-86350000D01*
X154586572Y-86350000D01*
X154754000Y-86323481D01*
X154754000Y-87258000D01*
X155331604Y-87258000D01*
X155331613Y-87257999D01*
X155592575Y-87223644D01*
X155846835Y-87155515D01*
X156090023Y-87054783D01*
X156090034Y-87054778D01*
X156317975Y-86923176D01*
X156526807Y-86762933D01*
X156526818Y-86762924D01*
X156712924Y-86576818D01*
X156712933Y-86576807D01*
X156873176Y-86367975D01*
X157004778Y-86140034D01*
X157004783Y-86140023D01*
X157105515Y-85896835D01*
X157173643Y-85642577D01*
X157173644Y-85642574D01*
X157191887Y-85504000D01*
X155573482Y-85504000D01*
X155600000Y-85336572D01*
X155600000Y-85163428D01*
X155573482Y-84996000D01*
X157191887Y-84996000D01*
X157173644Y-84857425D01*
X157173643Y-84857422D01*
X157105515Y-84603164D01*
X157004783Y-84359976D01*
X157004778Y-84359965D01*
X156873176Y-84132024D01*
X156712933Y-83923192D01*
X156712924Y-83923181D01*
X156526818Y-83737075D01*
X156526807Y-83737066D01*
X156317975Y-83576823D01*
X156090034Y-83445221D01*
X156090023Y-83445216D01*
X155846835Y-83344484D01*
X155592575Y-83276355D01*
X155331613Y-83242000D01*
X154754000Y-83242000D01*
X154754000Y-84176518D01*
X154586572Y-84150000D01*
X154413428Y-84150000D01*
X154246000Y-84176518D01*
X154246000Y-83242000D01*
X153668386Y-83242000D01*
X153407424Y-83276355D01*
X153153164Y-83344484D01*
X152909976Y-83445216D01*
X152909965Y-83445221D01*
X152682024Y-83576823D01*
X152473192Y-83737066D01*
X152473181Y-83737075D01*
X152287075Y-83923181D01*
X152287066Y-83923192D01*
X152126823Y-84132024D01*
X151995221Y-84359965D01*
X151995216Y-84359976D01*
X151894484Y-84603164D01*
X151826356Y-84857422D01*
X151826355Y-84857425D01*
X151808113Y-84996000D01*
X153426518Y-84996000D01*
X153400000Y-85163428D01*
X153400000Y-85336572D01*
X153426518Y-85504000D01*
X151808113Y-85504000D01*
X151799595Y-85513712D01*
X151793967Y-85549804D01*
X151746838Y-85602902D01*
X151679985Y-85622100D01*
X145883418Y-85622100D01*
X145771381Y-85622100D01*
X145680547Y-85646439D01*
X145680546Y-85646438D01*
X145663167Y-85651095D01*
X145663158Y-85651099D01*
X145566140Y-85707112D01*
X145566135Y-85707116D01*
X145540337Y-85732915D01*
X145486915Y-85786337D01*
X145486913Y-85786339D01*
X143184520Y-88088730D01*
X143184512Y-88088740D01*
X143128499Y-88185758D01*
X143128496Y-88185765D01*
X143117062Y-88228438D01*
X143099500Y-88293982D01*
X143099500Y-88406018D01*
X143117708Y-88473970D01*
X143118607Y-88477326D01*
X143122900Y-88509937D01*
X143122900Y-89940336D01*
X143102898Y-90008457D01*
X143049242Y-90054950D01*
X143047794Y-90055600D01*
X142952235Y-90097793D01*
X142952232Y-90097795D01*
X142889033Y-90160995D01*
X142826721Y-90195021D01*
X142799938Y-90197900D01*
X139642157Y-90197900D01*
X139577827Y-90215137D01*
X139577826Y-90215136D01*
X139539889Y-90225302D01*
X139448204Y-90278236D01*
X139448194Y-90278244D01*
X134112991Y-95613448D01*
X134050679Y-95647474D01*
X133979864Y-95642409D01*
X133923028Y-95599862D01*
X133898217Y-95533342D01*
X133898549Y-95511545D01*
X133908000Y-95419051D01*
X133908000Y-95399200D01*
X130647000Y-95399200D01*
X130578879Y-95379198D01*
X130532386Y-95325542D01*
X130521000Y-95273200D01*
X130521000Y-95017200D01*
X130541002Y-94949079D01*
X130594658Y-94902586D01*
X130647000Y-94891200D01*
X133908000Y-94891200D01*
X133908000Y-94871347D01*
X133897744Y-94770970D01*
X133897742Y-94770958D01*
X133843847Y-94608315D01*
X133753890Y-94462471D01*
X133753885Y-94462465D01*
X133632734Y-94341314D01*
X133632725Y-94341307D01*
X133619045Y-94332869D01*
X133571567Y-94280083D01*
X133560165Y-94210008D01*
X133584797Y-94149494D01*
X133595861Y-94134905D01*
X133637364Y-94080175D01*
X133690359Y-93945790D01*
X133700500Y-93861344D01*
X133700500Y-93329056D01*
X133690359Y-93244610D01*
X133683278Y-93226655D01*
X133637364Y-93110225D01*
X133637361Y-93110221D01*
X133550078Y-92995121D01*
X133434978Y-92907838D01*
X133434974Y-92907835D01*
X133300590Y-92854840D01*
X133300591Y-92854840D01*
X133216146Y-92844700D01*
X133216144Y-92844700D01*
X132633856Y-92844700D01*
X132633853Y-92844700D01*
X132549409Y-92854840D01*
X132415025Y-92907835D01*
X132415021Y-92907838D01*
X132299921Y-92995121D01*
X132212638Y-93110221D01*
X132212635Y-93110225D01*
X132159639Y-93244612D01*
X132158385Y-93249576D01*
X132122300Y-93310718D01*
X132058888Y-93342646D01*
X132036227Y-93344700D01*
X131901499Y-93344700D01*
X131833378Y-93324698D01*
X131786885Y-93271042D01*
X131775499Y-93218700D01*
X131775499Y-92800340D01*
X131775499Y-92800336D01*
X131772585Y-92775209D01*
X131741645Y-92705136D01*
X131727206Y-92672434D01*
X131647767Y-92592995D01*
X131647765Y-92592994D01*
X131544989Y-92547614D01*
X131544990Y-92547614D01*
X131519868Y-92544700D01*
X130030140Y-92544700D01*
X130030133Y-92544701D01*
X130005009Y-92547614D01*
X130005005Y-92547616D01*
X129902234Y-92592993D01*
X129902232Y-92592995D01*
X129901275Y-92593953D01*
X129899106Y-92595136D01*
X129892603Y-92599592D01*
X129892152Y-92598933D01*
X129838961Y-92627975D01*
X129768145Y-92622906D01*
X129711316Y-92580362D01*
X129637904Y-92482295D01*
X129520965Y-92394755D01*
X129384093Y-92343705D01*
X129323597Y-92337200D01*
X128829000Y-92337200D01*
X128829000Y-93573200D01*
X128808998Y-93641321D01*
X128755342Y-93687814D01*
X128703000Y-93699200D01*
X125492000Y-93699200D01*
X125492000Y-93719052D01*
X125502255Y-93819429D01*
X125502257Y-93819441D01*
X125556152Y-93982084D01*
X125646109Y-94127928D01*
X125646114Y-94127934D01*
X125767265Y-94249085D01*
X125767274Y-94249092D01*
X125780952Y-94257529D01*
X125828431Y-94310315D01*
X125839834Y-94380389D01*
X125815204Y-94440904D01*
X125762635Y-94510225D01*
X125709640Y-94644609D01*
X125699500Y-94729053D01*
X125699500Y-95261346D01*
X125707874Y-95331077D01*
X125696137Y-95401097D01*
X125648407Y-95453655D01*
X125582773Y-95472100D01*
X124850934Y-95472100D01*
X124782813Y-95452098D01*
X124761839Y-95435195D01*
X122497991Y-93171347D01*
X125492000Y-93171347D01*
X125492000Y-93191200D01*
X126221000Y-93191200D01*
X126221000Y-92487200D01*
X126729000Y-92487200D01*
X126729000Y-93191200D01*
X128321000Y-93191200D01*
X128321000Y-92337200D01*
X127826402Y-92337200D01*
X127765906Y-92343705D01*
X127629035Y-92394755D01*
X127629034Y-92394755D01*
X127512095Y-92482295D01*
X127424555Y-92599234D01*
X127424553Y-92599239D01*
X127415945Y-92622317D01*
X127373397Y-92679151D01*
X127306876Y-92703960D01*
X127237502Y-92688867D01*
X127208796Y-92667376D01*
X127182734Y-92641314D01*
X127182728Y-92641309D01*
X127036884Y-92551352D01*
X126874241Y-92497457D01*
X126874229Y-92497455D01*
X126773852Y-92487200D01*
X126729000Y-92487200D01*
X126221000Y-92487200D01*
X126176147Y-92487200D01*
X126075770Y-92497455D01*
X126075758Y-92497457D01*
X125913115Y-92551352D01*
X125767271Y-92641309D01*
X125767265Y-92641314D01*
X125646114Y-92762465D01*
X125646109Y-92762471D01*
X125556152Y-92908315D01*
X125502257Y-93070958D01*
X125502255Y-93070970D01*
X125492000Y-93171347D01*
X122497991Y-93171347D01*
X119796282Y-90469637D01*
X121429829Y-90469637D01*
X121429898Y-90479519D01*
X121432543Y-90603896D01*
X121432542Y-90603896D01*
X122509602Y-90605098D01*
X123586662Y-90606300D01*
X125740779Y-90608700D01*
X125708734Y-90545077D01*
X125708062Y-90543722D01*
X125702532Y-90532404D01*
X125701272Y-90529748D01*
X125696411Y-90519181D01*
X125695215Y-90516499D01*
X125690928Y-90506577D01*
X125689724Y-90503693D01*
X125686188Y-90494907D01*
X125684861Y-90491463D01*
X125682478Y-90484988D01*
X125675841Y-90458208D01*
X125675476Y-90455488D01*
X125674892Y-90452398D01*
X125674102Y-90448969D01*
X125673105Y-90445183D01*
X125671931Y-90441141D01*
X125670589Y-90436862D01*
X125670588Y-90436860D01*
X125670578Y-90436827D01*
X125669063Y-90432292D01*
X125665591Y-90422699D01*
X125661613Y-90412641D01*
X125657225Y-90402398D01*
X125654907Y-90397294D01*
X125652522Y-90392249D01*
X125648185Y-90383007D01*
X125647233Y-90380928D01*
X125643310Y-90372135D01*
X125642531Y-90370346D01*
X125638771Y-90361510D01*
X125637944Y-90359520D01*
X125634483Y-90350981D01*
X125633726Y-90349061D01*
X125630739Y-90341282D01*
X125629839Y-90338859D01*
X125627620Y-90332670D01*
X125626447Y-90329240D01*
X125625335Y-90325826D01*
X125623674Y-90320299D01*
X125622996Y-90317839D01*
X125622367Y-90315466D01*
X125621948Y-90313815D01*
X125621125Y-90310917D01*
X125620207Y-90307974D01*
X125619205Y-90305007D01*
X125618128Y-90302038D01*
X125616985Y-90299088D01*
X125614541Y-90293329D01*
X125613259Y-90290562D01*
X125611950Y-90287899D01*
X125610622Y-90285361D01*
X125610621Y-90285359D01*
X125610612Y-90285342D01*
X125609286Y-90282967D01*
X125607965Y-90280765D01*
X125607959Y-90280757D01*
X125607952Y-90280744D01*
X125606629Y-90278708D01*
X125605326Y-90276881D01*
X125605322Y-90276876D01*
X125604808Y-90276155D01*
X125595320Y-90260578D01*
X125592640Y-90255362D01*
X125591883Y-90253888D01*
X125590609Y-90251336D01*
X125585543Y-90240878D01*
X125584671Y-90239037D01*
X125584265Y-90238162D01*
X125578785Y-90226346D01*
X125578080Y-90224798D01*
X125571555Y-90210201D01*
X125571091Y-90209147D01*
X125564260Y-90193341D01*
X125563778Y-90192205D01*
X125556706Y-90175272D01*
X125556704Y-90175267D01*
X125556704Y-90175266D01*
X125556696Y-90175249D01*
X125549399Y-90157760D01*
X125547913Y-90154311D01*
X125544283Y-90145884D01*
X125542119Y-90140859D01*
X125536210Y-90127573D01*
X125535081Y-90125033D01*
X125535057Y-90124980D01*
X125528407Y-90110532D01*
X125522360Y-90097926D01*
X125517109Y-90087571D01*
X125512847Y-90079879D01*
X125511147Y-90077160D01*
X125511136Y-90077146D01*
X125509922Y-90075345D01*
X125509985Y-90075302D01*
X125509981Y-90075295D01*
X125510066Y-90075241D01*
X125501115Y-90060573D01*
X125500677Y-90059702D01*
X125498759Y-90055723D01*
X125496627Y-90051093D01*
X125494783Y-90046884D01*
X125487865Y-90030282D01*
X125486289Y-90026312D01*
X125478593Y-90005898D01*
X125477443Y-90002719D01*
X125469594Y-89980033D01*
X125468564Y-89976923D01*
X125468221Y-89975842D01*
X125461288Y-89953973D01*
X125460233Y-89950465D01*
X125453971Y-89928491D01*
X125453084Y-89925208D01*
X125450818Y-89916349D01*
X125450132Y-89913531D01*
X125447888Y-89903836D01*
X125447882Y-89903809D01*
X125444322Y-89891126D01*
X125438501Y-89875007D01*
X125430658Y-89855897D01*
X125421030Y-89834243D01*
X125397372Y-89785089D01*
X125396592Y-89783583D01*
X125388156Y-89767285D01*
X125369434Y-89731116D01*
X125339120Y-89675895D01*
X125308334Y-89622996D01*
X125306933Y-89620753D01*
X125292931Y-89598329D01*
X125278982Y-89575990D01*
X125265439Y-89555813D01*
X125265423Y-89555789D01*
X125252990Y-89538477D01*
X125249970Y-89534393D01*
X125232133Y-89510272D01*
X125231365Y-89509220D01*
X125212250Y-89482703D01*
X125211226Y-89481262D01*
X125203065Y-89469599D01*
X125195672Y-89459032D01*
X125194489Y-89457310D01*
X125189498Y-89449914D01*
X125188052Y-89447723D01*
X125187978Y-89447609D01*
X125184527Y-89442257D01*
X125183805Y-89441124D01*
X125176714Y-89429861D01*
X125169530Y-89418864D01*
X125162565Y-89408649D01*
X125155767Y-89399162D01*
X125149095Y-89390361D01*
X125142522Y-89382220D01*
X125142517Y-89382215D01*
X125142508Y-89382203D01*
X125135952Y-89374633D01*
X125129385Y-89367609D01*
X125122764Y-89361085D01*
X125122753Y-89361075D01*
X125116085Y-89355051D01*
X125116064Y-89355033D01*
X125116043Y-89355014D01*
X125109176Y-89349351D01*
X125102120Y-89344048D01*
X125094828Y-89339061D01*
X125091115Y-89336747D01*
X125087254Y-89334340D01*
X125079369Y-89329850D01*
X125071206Y-89325583D01*
X125062382Y-89321015D01*
X125059849Y-89319666D01*
X125052296Y-89315535D01*
X125049965Y-89314228D01*
X125042399Y-89309879D01*
X125040116Y-89308535D01*
X125033101Y-89304304D01*
X125030641Y-89302781D01*
X125024681Y-89298997D01*
X125021752Y-89297080D01*
X125018669Y-89295000D01*
X125017532Y-89294233D01*
X125013645Y-89291502D01*
X125012031Y-89290322D01*
X125005588Y-89285198D01*
X125005559Y-89285234D01*
X125004412Y-89284289D01*
X124996693Y-89278229D01*
X124996674Y-89278216D01*
X124985311Y-89270634D01*
X124985287Y-89270619D01*
X124953471Y-89251792D01*
X124931966Y-89240121D01*
X124912917Y-89229782D01*
X124898298Y-89222296D01*
X124867509Y-89206529D01*
X124834526Y-89190487D01*
X124821212Y-89184011D01*
X124778012Y-89164217D01*
X124741748Y-89149066D01*
X124741723Y-89149056D01*
X124728110Y-89144089D01*
X124727461Y-89143852D01*
X124727456Y-89143850D01*
X124727441Y-89143845D01*
X124716385Y-89140537D01*
X124708491Y-89138363D01*
X124703592Y-89136906D01*
X124695632Y-89134362D01*
X124692226Y-89133220D01*
X124681811Y-89129561D01*
X124679114Y-89128579D01*
X124667346Y-89124141D01*
X124664992Y-89123226D01*
X124652613Y-89118272D01*
X124650350Y-89117341D01*
X124637970Y-89112103D01*
X124635571Y-89111059D01*
X124623856Y-89105813D01*
X124621131Y-89104553D01*
X124609017Y-89098778D01*
X124595669Y-89092448D01*
X124584470Y-89087503D01*
X124581103Y-89086016D01*
X124570195Y-89081493D01*
X124565903Y-89079714D01*
X124550543Y-89073724D01*
X124535486Y-89068217D01*
X124521186Y-89063367D01*
X124508078Y-89059339D01*
X124496596Y-89056303D01*
X124492977Y-89055395D01*
X124489752Y-89054541D01*
X124487414Y-89053888D01*
X124484510Y-89053039D01*
X124481841Y-89052224D01*
X124479194Y-89051384D01*
X124478538Y-89051167D01*
X124476906Y-89050629D01*
X124473140Y-89049320D01*
X124466439Y-89046871D01*
X124461633Y-89045002D01*
X124455918Y-89042644D01*
X124450993Y-89040488D01*
X124445465Y-89037926D01*
X124441378Y-89035942D01*
X124440256Y-89035372D01*
X124437313Y-89033828D01*
X124436881Y-89033594D01*
X124418456Y-89021412D01*
X124417717Y-89020824D01*
X124414626Y-89018365D01*
X124407871Y-89013380D01*
X124407863Y-89013374D01*
X124401149Y-89008701D01*
X124400435Y-89008204D01*
X124392557Y-89002993D01*
X124391445Y-89002292D01*
X124384483Y-88997902D01*
X124376467Y-88993099D01*
X124368700Y-88988709D01*
X124361488Y-88984923D01*
X124361477Y-88984913D01*
X124361476Y-88984917D01*
X124361468Y-88984913D01*
X124357852Y-88983014D01*
X124354218Y-88981106D01*
X124349881Y-88978719D01*
X124345116Y-88975973D01*
X124340791Y-88973363D01*
X124336409Y-88970598D01*
X124332072Y-88967735D01*
X124328027Y-88964943D01*
X124323758Y-88961863D01*
X124322849Y-88961177D01*
X124320033Y-88959054D01*
X124315796Y-88955713D01*
X124312398Y-88952914D01*
X124308226Y-88949319D01*
X124305130Y-88946531D01*
X124301044Y-88942683D01*
X124298248Y-88939930D01*
X124294258Y-88935819D01*
X124291734Y-88933097D01*
X124287881Y-88928744D01*
X124285571Y-88926010D01*
X124281881Y-88921430D01*
X124279810Y-88918733D01*
X124276291Y-88913919D01*
X124274409Y-88911212D01*
X124271124Y-88906241D01*
X124271008Y-88906057D01*
X124269416Y-88903517D01*
X124266336Y-88898332D01*
X124264790Y-88895582D01*
X124261958Y-88890244D01*
X124261507Y-88889343D01*
X125517634Y-88889343D01*
X125518153Y-88910573D01*
X125518154Y-88910587D01*
X125520489Y-88930323D01*
X125524646Y-88948615D01*
X125524647Y-88948622D01*
X125530624Y-88965519D01*
X125530626Y-88965524D01*
X125538436Y-88981118D01*
X125538446Y-88981134D01*
X125548078Y-88995482D01*
X125548083Y-88995489D01*
X125548085Y-88995491D01*
X125559573Y-89008702D01*
X125572907Y-89020829D01*
X125572913Y-89020833D01*
X125572915Y-89020835D01*
X125585274Y-89029883D01*
X125588092Y-89031946D01*
X125604555Y-89041328D01*
X125626685Y-89051661D01*
X125653753Y-89062742D01*
X125685030Y-89074367D01*
X125685035Y-89074368D01*
X125685044Y-89074372D01*
X125707675Y-89081907D01*
X125757295Y-89098429D01*
X125837648Y-89122215D01*
X125920257Y-89144089D01*
X125999290Y-89162417D01*
X126035642Y-89169741D01*
X126068913Y-89175566D01*
X126085326Y-89177862D01*
X126098337Y-89179683D01*
X126098347Y-89179684D01*
X126098375Y-89179688D01*
X126123297Y-89181902D01*
X126175372Y-89184673D01*
X126199963Y-89116646D01*
X126241930Y-89059385D01*
X126308196Y-89033902D01*
X126374692Y-89046728D01*
X126392089Y-89055406D01*
X126395882Y-89057380D01*
X126400265Y-89059757D01*
X126449013Y-89107610D01*
X126449268Y-89107460D01*
X126454383Y-89116146D01*
X126455050Y-89117241D01*
X126459436Y-89124440D01*
X126464639Y-89132713D01*
X126464764Y-89132911D01*
X126464806Y-89133056D01*
X126464841Y-89133035D01*
X126477553Y-89153300D01*
X126478234Y-89154399D01*
X126493125Y-89178688D01*
X126493623Y-89179507D01*
X126509321Y-89205555D01*
X126509855Y-89206449D01*
X126524356Y-89230968D01*
X126529884Y-89240121D01*
X126531641Y-89243030D01*
X126532875Y-89244966D01*
X126539806Y-89255843D01*
X126548589Y-89269037D01*
X126555858Y-89279540D01*
X126557714Y-89282221D01*
X126566901Y-89295000D01*
X126575874Y-89306979D01*
X126575885Y-89306993D01*
X126575894Y-89307005D01*
X126584340Y-89317750D01*
X126588127Y-89322269D01*
X126612657Y-89368426D01*
X126613654Y-89371899D01*
X126616027Y-89381603D01*
X126617259Y-89387671D01*
X126617507Y-89388892D01*
X126618916Y-89397284D01*
X126620212Y-89407001D01*
X126620977Y-89414399D01*
X126621841Y-89426123D01*
X126622154Y-89432737D01*
X126622434Y-89446066D01*
X126622416Y-89452123D01*
X126622019Y-89466784D01*
X126621741Y-89472407D01*
X126620615Y-89488071D01*
X126620115Y-89493424D01*
X126618232Y-89509807D01*
X126617533Y-89514951D01*
X126614880Y-89531859D01*
X126613978Y-89536930D01*
X126610569Y-89554053D01*
X126609457Y-89559098D01*
X126605304Y-89576253D01*
X126603961Y-89581333D01*
X126599088Y-89598329D01*
X126597470Y-89603542D01*
X126591036Y-89622792D01*
X126577860Y-89662678D01*
X126557187Y-89728966D01*
X126531908Y-89812240D01*
X126531864Y-89812389D01*
X126504695Y-89903811D01*
X126501193Y-89915519D01*
X126473248Y-90008931D01*
X126473013Y-90009707D01*
X126435767Y-90131357D01*
X126435575Y-90131979D01*
X126397328Y-90254631D01*
X126397098Y-90255362D01*
X126362215Y-90364876D01*
X126362115Y-90365188D01*
X126308063Y-90533367D01*
X126285533Y-90605383D01*
X126287551Y-90605473D01*
X126300203Y-90606042D01*
X126342245Y-90606656D01*
X126496654Y-90607699D01*
X127004240Y-90608661D01*
X127004360Y-90608661D01*
X127722946Y-90608661D01*
X127724474Y-90599901D01*
X127728346Y-90577702D01*
X127728421Y-90577275D01*
X127736235Y-90533367D01*
X127793791Y-90209936D01*
X127871400Y-89784747D01*
X127893088Y-89664145D01*
X127893334Y-89662678D01*
X127900346Y-89620753D01*
X127910447Y-89560371D01*
X127923565Y-89472601D01*
X127932530Y-89400011D01*
X127937427Y-89341777D01*
X127938229Y-89302781D01*
X127938346Y-89297080D01*
X127938346Y-89297075D01*
X127937341Y-89279540D01*
X127935373Y-89265079D01*
X127932454Y-89253589D01*
X127928595Y-89244966D01*
X127927221Y-89242929D01*
X127925092Y-89240129D01*
X127925086Y-89240121D01*
X127918751Y-89232439D01*
X127909923Y-89222285D01*
X127899044Y-89210150D01*
X127899038Y-89210144D01*
X127898991Y-89210091D01*
X127891666Y-89202093D01*
X127886297Y-89196231D01*
X127877508Y-89186800D01*
X127872181Y-89181083D01*
X127857029Y-89165069D01*
X127841190Y-89148577D01*
X127826072Y-89132696D01*
X127824373Y-89130875D01*
X127811903Y-89117241D01*
X127809779Y-89114859D01*
X127799380Y-89102885D01*
X127796793Y-89099807D01*
X127788396Y-89089475D01*
X127785255Y-89085444D01*
X127783631Y-89083270D01*
X127778904Y-89076940D01*
X127775226Y-89071746D01*
X127770797Y-89065143D01*
X127766696Y-89058604D01*
X127763962Y-89053932D01*
X127759654Y-89045917D01*
X127759204Y-89045002D01*
X127758903Y-89044389D01*
X127746790Y-88974437D01*
X127748098Y-88965728D01*
X127748479Y-88963681D01*
X127750204Y-88955832D01*
X127752077Y-88948442D01*
X127752615Y-88946398D01*
X127754740Y-88938616D01*
X127757341Y-88928527D01*
X127761677Y-88910586D01*
X127762799Y-88905946D01*
X127762800Y-88905937D01*
X127762809Y-88905904D01*
X127768081Y-88882389D01*
X127770437Y-88871185D01*
X127772495Y-88860822D01*
X127781642Y-88813683D01*
X127790815Y-88767227D01*
X127794305Y-88747282D01*
X127796802Y-88727433D01*
X127798322Y-88707761D01*
X127798881Y-88688346D01*
X127798498Y-88669268D01*
X127797187Y-88650610D01*
X127794966Y-88632450D01*
X127791851Y-88614871D01*
X127788857Y-88602181D01*
X127787861Y-88597956D01*
X127787860Y-88597952D01*
X127783008Y-88581775D01*
X127777312Y-88566419D01*
X127770789Y-88551966D01*
X127770785Y-88551958D01*
X127770782Y-88551952D01*
X127763458Y-88538501D01*
X127756400Y-88527727D01*
X127755328Y-88526091D01*
X127746423Y-88514831D01*
X127741564Y-88509786D01*
X127708714Y-88446850D01*
X127706609Y-88413779D01*
X127706726Y-88412078D01*
X127707003Y-88408016D01*
X127707183Y-88405384D01*
X127708726Y-88368655D01*
X127709068Y-88360518D01*
X127708204Y-88317602D01*
X127704652Y-88276726D01*
X127698470Y-88237985D01*
X127689715Y-88201474D01*
X127678446Y-88167286D01*
X127664721Y-88135515D01*
X127661458Y-88129234D01*
X127656965Y-88120583D01*
X127656948Y-88120552D01*
X127651676Y-88111525D01*
X127648599Y-88106257D01*
X127639657Y-88092599D01*
X127630138Y-88079605D01*
X127620048Y-88067286D01*
X127619880Y-88067102D01*
X127609400Y-88055658D01*
X127598204Y-88044736D01*
X127598189Y-88044722D01*
X127586427Y-88034494D01*
X127574130Y-88024994D01*
X127561314Y-88016238D01*
X127561311Y-88016236D01*
X127560708Y-88015874D01*
X127556312Y-88013234D01*
X127547937Y-88008204D01*
X127534078Y-88000950D01*
X127519674Y-87994450D01*
X127504794Y-87988743D01*
X127504765Y-87988733D01*
X127489409Y-87983825D01*
X127489387Y-87983819D01*
X127473533Y-87979711D01*
X127457162Y-87976411D01*
X127457142Y-87976408D01*
X127440293Y-87973937D01*
X127432027Y-87972796D01*
X127428610Y-87972276D01*
X127424530Y-87971597D01*
X127420583Y-87970941D01*
X127417916Y-87970468D01*
X127408540Y-87968700D01*
X127406294Y-87968255D01*
X127404549Y-87967893D01*
X127341912Y-87934471D01*
X127307287Y-87872490D01*
X127304567Y-87850551D01*
X127304296Y-87850565D01*
X127304212Y-87848902D01*
X127302739Y-87829579D01*
X127302735Y-87829545D01*
X127301166Y-87817676D01*
X127300296Y-87811096D01*
X127297762Y-87797984D01*
X127296905Y-87793548D01*
X127292583Y-87776969D01*
X127292582Y-87776964D01*
X127287339Y-87761351D01*
X127284846Y-87755425D01*
X127281188Y-87746728D01*
X127276843Y-87738339D01*
X127274154Y-87733148D01*
X127272872Y-87731117D01*
X127266240Y-87720613D01*
X127257470Y-87709165D01*
X127257464Y-87709159D01*
X127257458Y-87709151D01*
X127247866Y-87698834D01*
X127247859Y-87698827D01*
X127237417Y-87689623D01*
X127237409Y-87689617D01*
X127226185Y-87681595D01*
X127226168Y-87681584D01*
X127214112Y-87674729D01*
X127201284Y-87669095D01*
X127187683Y-87664701D01*
X127180888Y-87662625D01*
X127175747Y-87660932D01*
X127168348Y-87658317D01*
X127165086Y-87657114D01*
X127154603Y-87653080D01*
X127152197Y-87652125D01*
X127139752Y-87647040D01*
X127137739Y-87646197D01*
X127124206Y-87640392D01*
X127122375Y-87639590D01*
X127108371Y-87633318D01*
X127106523Y-87632472D01*
X127092701Y-87626012D01*
X127090693Y-87625052D01*
X127076493Y-87618107D01*
X127068376Y-87614219D01*
X127032468Y-87597019D01*
X127032457Y-87597014D01*
X127032440Y-87597006D01*
X126987336Y-87577248D01*
X126941837Y-87559039D01*
X126896956Y-87542739D01*
X126853487Y-87528618D01*
X126853490Y-87528618D01*
X126853472Y-87528613D01*
X126812271Y-87516965D01*
X126808247Y-87515972D01*
X126792782Y-87512158D01*
X126774225Y-87508093D01*
X126762152Y-87505825D01*
X126698897Y-87473586D01*
X126663112Y-87412268D01*
X126660361Y-87366632D01*
X126660537Y-87365201D01*
X126661312Y-87358895D01*
X126670447Y-87288116D01*
X126696311Y-87068226D01*
X126710497Y-86947624D01*
X126753216Y-86541074D01*
X126754086Y-86531959D01*
X126792836Y-86126038D01*
X126823569Y-85760267D01*
X126823569Y-85760256D01*
X126823574Y-85760206D01*
X126830458Y-85664351D01*
X126831048Y-85656142D01*
X126835737Y-85574093D01*
X126837384Y-85511164D01*
X126836988Y-85485945D01*
X126835738Y-85464399D01*
X126833601Y-85446155D01*
X126830547Y-85430843D01*
X126826543Y-85418095D01*
X126821559Y-85407542D01*
X126820550Y-85406073D01*
X126815564Y-85398813D01*
X126815559Y-85398807D01*
X126808525Y-85391540D01*
X126808524Y-85391539D01*
X126800408Y-85385351D01*
X126799855Y-85384978D01*
X126799679Y-85384795D01*
X126797507Y-85383139D01*
X126797763Y-85382802D01*
X126763191Y-85346854D01*
X126762578Y-85345864D01*
X126761155Y-85343510D01*
X126760044Y-85341625D01*
X126758669Y-85339232D01*
X126757609Y-85337340D01*
X126756204Y-85334761D01*
X126755277Y-85333012D01*
X126753895Y-85330328D01*
X126752383Y-85327303D01*
X126752362Y-85327261D01*
X126750099Y-85322798D01*
X126747616Y-85318294D01*
X126744940Y-85313778D01*
X126742095Y-85309282D01*
X126739105Y-85304835D01*
X126738324Y-85303739D01*
X126736002Y-85300478D01*
X126735995Y-85300468D01*
X126732792Y-85296211D01*
X126729518Y-85292096D01*
X126726200Y-85288151D01*
X126726031Y-85287962D01*
X126723280Y-85284879D01*
X126722861Y-85284409D01*
X126719528Y-85280899D01*
X126716225Y-85277651D01*
X126712976Y-85274696D01*
X126712967Y-85274689D01*
X126712377Y-85274152D01*
X126675439Y-85213522D01*
X126673947Y-85206819D01*
X126673933Y-85206823D01*
X126673929Y-85206810D01*
X126673859Y-85206826D01*
X126673412Y-85204740D01*
X126671933Y-85198830D01*
X126671388Y-85196651D01*
X126668809Y-85188620D01*
X126665687Y-85180667D01*
X126662034Y-85172800D01*
X126657862Y-85165029D01*
X126653182Y-85157362D01*
X126648005Y-85149810D01*
X126647997Y-85149799D01*
X126647986Y-85149784D01*
X126642341Y-85142378D01*
X126642336Y-85142372D01*
X126636222Y-85135102D01*
X126636214Y-85135094D01*
X126636207Y-85135085D01*
X126629608Y-85127930D01*
X126622557Y-85120926D01*
X126615066Y-85114082D01*
X126607147Y-85107408D01*
X126598810Y-85100912D01*
X126597843Y-85100214D01*
X126590073Y-85094606D01*
X126580927Y-85088490D01*
X126571408Y-85082585D01*
X126561532Y-85076905D01*
X126561527Y-85076902D01*
X126561516Y-85076896D01*
X126551263Y-85071430D01*
X126551251Y-85071424D01*
X126540659Y-85066196D01*
X126529714Y-85061204D01*
X126518448Y-85056468D01*
X126506879Y-85051996D01*
X126494969Y-85047782D01*
X126482813Y-85043862D01*
X126470346Y-85040223D01*
X126457591Y-85036876D01*
X126444631Y-85033850D01*
X126431393Y-85031134D01*
X126406013Y-85026549D01*
X126391045Y-85024237D01*
X126382734Y-85022953D01*
X126382724Y-85022951D01*
X126382719Y-85022951D01*
X126361447Y-85020382D01*
X126342056Y-85018877D01*
X126342027Y-85018876D01*
X126324339Y-85018471D01*
X126308295Y-85019203D01*
X126308267Y-85019205D01*
X126293716Y-85021108D01*
X126293695Y-85021112D01*
X126286950Y-85022513D01*
X126286931Y-85022517D01*
X126286925Y-85022518D01*
X126286914Y-85022521D01*
X126280492Y-85024227D01*
X126280461Y-85024237D01*
X126274343Y-85026257D01*
X126268499Y-85028601D01*
X126268486Y-85028607D01*
X126262958Y-85031252D01*
X126262923Y-85031271D01*
X126257646Y-85034246D01*
X126257643Y-85034248D01*
X126252571Y-85037579D01*
X126252566Y-85037583D01*
X126247773Y-85041215D01*
X126247746Y-85041237D01*
X126243158Y-85045216D01*
X126238734Y-85049572D01*
X126230450Y-85059313D01*
X126230447Y-85059317D01*
X126222798Y-85070461D01*
X126222780Y-85070490D01*
X126222437Y-85071095D01*
X126222348Y-85071180D01*
X126221368Y-85072748D01*
X126220978Y-85072504D01*
X126171395Y-85120442D01*
X126130677Y-85133589D01*
X126122951Y-85134690D01*
X126114491Y-85136616D01*
X126106245Y-85139222D01*
X126106241Y-85139223D01*
X126098257Y-85142486D01*
X126090570Y-85146385D01*
X126083171Y-85150921D01*
X126083167Y-85150923D01*
X126076107Y-85156064D01*
X126069403Y-85161798D01*
X126063068Y-85168120D01*
X126057154Y-85174983D01*
X126051644Y-85182422D01*
X126050278Y-85184575D01*
X125996887Y-85231372D01*
X125976121Y-85238467D01*
X125976216Y-85238815D01*
X125973696Y-85239498D01*
X125966755Y-85241689D01*
X125959992Y-85244427D01*
X125953445Y-85247686D01*
X125953442Y-85247688D01*
X125947190Y-85251412D01*
X125947184Y-85251416D01*
X125941265Y-85255572D01*
X125941251Y-85255582D01*
X125935678Y-85260158D01*
X125935654Y-85260179D01*
X125930514Y-85265106D01*
X125925804Y-85270397D01*
X125921602Y-85275986D01*
X125921593Y-85275999D01*
X125919708Y-85278876D01*
X125919692Y-85278903D01*
X125917954Y-85281834D01*
X125917953Y-85281835D01*
X125916334Y-85284879D01*
X125914879Y-85287962D01*
X125913611Y-85291030D01*
X125912470Y-85294243D01*
X125911524Y-85297434D01*
X125910748Y-85300687D01*
X125904679Y-85329927D01*
X125902328Y-85341909D01*
X125900452Y-85352413D01*
X125899090Y-85361532D01*
X125898243Y-85369560D01*
X125897929Y-85376725D01*
X125898168Y-85383151D01*
X125898979Y-85389111D01*
X125900374Y-85394768D01*
X125900376Y-85394775D01*
X125902375Y-85400354D01*
X125902377Y-85400358D01*
X125905001Y-85406065D01*
X125908263Y-85412099D01*
X125911842Y-85418095D01*
X125912187Y-85418672D01*
X125921648Y-85433565D01*
X125922504Y-85434931D01*
X125932589Y-85451264D01*
X125935198Y-85455688D01*
X125937780Y-85460279D01*
X125942873Y-85469332D01*
X125945821Y-85474894D01*
X125951908Y-85487105D01*
X125954990Y-85493766D01*
X125959695Y-85504766D01*
X125962667Y-85512391D01*
X125966295Y-85522673D01*
X125968922Y-85531034D01*
X125971709Y-85541118D01*
X125973783Y-85549812D01*
X125975900Y-85560326D01*
X125977321Y-85568901D01*
X125978840Y-85580547D01*
X125979630Y-85588635D01*
X125980410Y-85600600D01*
X125980498Y-85601946D01*
X125980761Y-85609248D01*
X125980870Y-85624694D01*
X125980754Y-85631047D01*
X125979975Y-85648994D01*
X125979628Y-85654351D01*
X125977851Y-85674966D01*
X125977394Y-85679367D01*
X125974532Y-85702883D01*
X125974051Y-85706419D01*
X125970062Y-85732915D01*
X125969614Y-85735683D01*
X125964468Y-85765361D01*
X125964081Y-85767485D01*
X125960478Y-85786339D01*
X125957640Y-85801188D01*
X125957618Y-85801304D01*
X125957614Y-85801327D01*
X125952594Y-85828275D01*
X125947113Y-85860632D01*
X125935505Y-85936559D01*
X125924238Y-86019114D01*
X125914713Y-86098590D01*
X125905975Y-86175509D01*
X125905874Y-86176372D01*
X125896694Y-86252500D01*
X125896579Y-86253426D01*
X125888061Y-86319914D01*
X125887855Y-86321442D01*
X125881022Y-86370047D01*
X125878018Y-86391950D01*
X125874779Y-86419681D01*
X125868016Y-86487984D01*
X125861553Y-86565930D01*
X125856204Y-86644511D01*
X125852729Y-86700882D01*
X125852655Y-86701997D01*
X125849607Y-86745191D01*
X125849408Y-86747674D01*
X125846569Y-86779056D01*
X125846051Y-86783779D01*
X125843222Y-86805772D01*
X125842378Y-86811346D01*
X125841305Y-86817498D01*
X125840376Y-86822279D01*
X125839281Y-86827383D01*
X125837981Y-86832846D01*
X125837009Y-86836561D01*
X125835348Y-86842343D01*
X125834789Y-86844127D01*
X125831957Y-86852194D01*
X125828463Y-86861162D01*
X125825234Y-86868713D01*
X125818730Y-86882645D01*
X125811295Y-86899018D01*
X125811282Y-86899049D01*
X125803791Y-86917827D01*
X125796285Y-86938821D01*
X125788792Y-86961892D01*
X125781400Y-86986705D01*
X125774130Y-87013140D01*
X125760151Y-87070037D01*
X125747230Y-87130951D01*
X125735730Y-87194288D01*
X125726012Y-87258480D01*
X125718461Y-87321795D01*
X125711339Y-87386397D01*
X125711148Y-87388029D01*
X125702785Y-87455764D01*
X125702586Y-87457300D01*
X125693978Y-87520607D01*
X125693669Y-87522745D01*
X125685797Y-87574027D01*
X125685767Y-87574222D01*
X125682183Y-87597006D01*
X125682081Y-87597653D01*
X125680587Y-87608283D01*
X125678399Y-87623861D01*
X125674832Y-87651891D01*
X125671472Y-87680864D01*
X125668396Y-87710108D01*
X125665743Y-87738339D01*
X125663568Y-87765130D01*
X125661990Y-87789330D01*
X125655848Y-87885146D01*
X125655692Y-87887287D01*
X125648083Y-87980967D01*
X125647896Y-87983056D01*
X125644811Y-88014533D01*
X125644811Y-88014537D01*
X125639051Y-88073290D01*
X125638815Y-88075498D01*
X125629066Y-88159637D01*
X125628742Y-88162198D01*
X125618468Y-88237365D01*
X125617973Y-88240661D01*
X125607606Y-88303977D01*
X125606708Y-88308858D01*
X125597020Y-88356241D01*
X125594898Y-88365008D01*
X125586158Y-88396189D01*
X125584238Y-88402414D01*
X125581932Y-88409256D01*
X125579056Y-88418754D01*
X125576679Y-88427756D01*
X125574771Y-88436402D01*
X125573369Y-88444561D01*
X125573366Y-88444577D01*
X125572440Y-88452430D01*
X125572003Y-88459931D01*
X125572055Y-88467105D01*
X125572596Y-88473958D01*
X125572598Y-88473982D01*
X125573628Y-88480554D01*
X125573629Y-88480561D01*
X125573631Y-88480569D01*
X125575157Y-88486917D01*
X125577177Y-88493041D01*
X125579690Y-88498962D01*
X125582699Y-88504706D01*
X125582707Y-88504721D01*
X125583702Y-88506454D01*
X125583775Y-88506760D01*
X125583836Y-88506876D01*
X125583806Y-88506891D01*
X125600268Y-88575491D01*
X125594098Y-88608610D01*
X125593899Y-88609214D01*
X125593370Y-88610786D01*
X125588181Y-88625865D01*
X125587711Y-88627205D01*
X125581406Y-88644877D01*
X125581131Y-88645642D01*
X125573463Y-88666704D01*
X125573326Y-88667076D01*
X125564384Y-88691398D01*
X125552344Y-88725442D01*
X125542081Y-88757442D01*
X125533602Y-88787466D01*
X125526916Y-88815587D01*
X125522018Y-88841899D01*
X125522015Y-88841919D01*
X125518925Y-88866426D01*
X125518925Y-88866435D01*
X125517635Y-88889306D01*
X125517634Y-88889343D01*
X124261507Y-88889343D01*
X124260570Y-88887469D01*
X124257976Y-88881951D01*
X124256754Y-88879180D01*
X124254448Y-88873592D01*
X124253337Y-88870705D01*
X124251287Y-88864969D01*
X124250309Y-88862008D01*
X124248565Y-88856271D01*
X124247696Y-88853146D01*
X124246243Y-88847393D01*
X124245498Y-88844112D01*
X124244333Y-88838363D01*
X124243727Y-88834965D01*
X124242836Y-88829181D01*
X124242370Y-88825604D01*
X124241759Y-88819893D01*
X124241447Y-88816178D01*
X124241098Y-88810461D01*
X124240949Y-88806559D01*
X124240859Y-88800986D01*
X124240885Y-88796782D01*
X124241041Y-88791302D01*
X124241259Y-88786947D01*
X124241645Y-88781553D01*
X124242073Y-88776961D01*
X124242672Y-88771720D01*
X124243335Y-88766837D01*
X124244131Y-88761765D01*
X124245039Y-88756664D01*
X124246021Y-88751725D01*
X124247201Y-88746355D01*
X124248332Y-88741647D01*
X124249808Y-88735993D01*
X124251088Y-88731447D01*
X124253540Y-88723342D01*
X124256276Y-88714206D01*
X124258564Y-88705073D01*
X124260402Y-88695880D01*
X124261783Y-88686565D01*
X124262705Y-88677066D01*
X124263163Y-88667320D01*
X124263152Y-88657264D01*
X124263150Y-88657235D01*
X124263118Y-88655821D01*
X124263681Y-88655807D01*
X124279955Y-88588884D01*
X124331364Y-88539919D01*
X124392794Y-88525999D01*
X124432641Y-88527188D01*
X124478084Y-88527353D01*
X124520240Y-88526181D01*
X124548506Y-88524328D01*
X124559196Y-88523628D01*
X124559211Y-88523626D01*
X124559236Y-88523625D01*
X124559264Y-88523621D01*
X124559274Y-88523621D01*
X124595174Y-88519645D01*
X124595174Y-88519644D01*
X124595201Y-88519642D01*
X124628262Y-88514186D01*
X124658547Y-88507211D01*
X124686183Y-88498673D01*
X124711298Y-88488527D01*
X124734020Y-88476726D01*
X124754476Y-88463226D01*
X124772794Y-88447981D01*
X124789101Y-88430947D01*
X124803527Y-88412078D01*
X124816197Y-88391329D01*
X124816206Y-88391311D01*
X124827237Y-88368660D01*
X124866329Y-88279202D01*
X124866330Y-88279198D01*
X124866342Y-88279172D01*
X124868113Y-88274835D01*
X124869899Y-88269851D01*
X124871687Y-88264277D01*
X124873466Y-88258173D01*
X124876948Y-88244607D01*
X124880249Y-88229623D01*
X124883273Y-88213688D01*
X124885925Y-88197272D01*
X124888108Y-88180844D01*
X124888756Y-88174445D01*
X124889722Y-88164926D01*
X124890498Y-88156948D01*
X124891419Y-88147496D01*
X124891812Y-88143989D01*
X124893685Y-88129175D01*
X124894221Y-88125403D01*
X124894982Y-88120583D01*
X124896418Y-88111484D01*
X124897113Y-88107502D01*
X124899612Y-88094466D01*
X124900506Y-88090209D01*
X124903278Y-88078077D01*
X124904390Y-88073593D01*
X124907419Y-88062292D01*
X124908783Y-88057578D01*
X124912034Y-88047127D01*
X124913684Y-88042189D01*
X124917127Y-88032562D01*
X124919104Y-88027399D01*
X124922721Y-88018538D01*
X124925006Y-88013288D01*
X124928809Y-88005075D01*
X124931467Y-87999683D01*
X124935398Y-87992165D01*
X124938409Y-87986734D01*
X124942498Y-87979777D01*
X124945863Y-87974371D01*
X124950131Y-87967890D01*
X124953834Y-87962573D01*
X124958295Y-87956511D01*
X124962334Y-87951315D01*
X124966977Y-87945654D01*
X124971306Y-87940649D01*
X124977690Y-87933653D01*
X124979275Y-87931951D01*
X124990505Y-87920124D01*
X125001076Y-87908551D01*
X125010220Y-87897927D01*
X125017976Y-87888093D01*
X125021344Y-87883423D01*
X125024380Y-87878892D01*
X125027087Y-87874480D01*
X125029471Y-87870168D01*
X125031536Y-87865935D01*
X125033287Y-87861761D01*
X125034728Y-87857629D01*
X125035864Y-87853517D01*
X125036701Y-87849406D01*
X125037242Y-87845276D01*
X125037442Y-87841947D01*
X125037491Y-87841133D01*
X125037491Y-87841124D01*
X125037492Y-87841108D01*
X125037457Y-87836882D01*
X125037374Y-87835758D01*
X125037141Y-87832588D01*
X125036874Y-87830606D01*
X125036547Y-87828177D01*
X125035682Y-87823659D01*
X125034937Y-87820595D01*
X125034553Y-87819015D01*
X125034103Y-87817462D01*
X125033156Y-87814193D01*
X125031505Y-87809206D01*
X125030411Y-87806353D01*
X125024694Y-87735587D01*
X125041363Y-87694209D01*
X125044243Y-87689624D01*
X125045655Y-87687377D01*
X125049158Y-87680860D01*
X125052329Y-87673932D01*
X125055167Y-87666598D01*
X125057672Y-87658861D01*
X125059844Y-87650722D01*
X125061683Y-87642186D01*
X125063188Y-87633255D01*
X125064359Y-87623931D01*
X125064861Y-87618107D01*
X125065196Y-87614228D01*
X125065421Y-87609701D01*
X125065699Y-87604120D01*
X125065867Y-87593639D01*
X125065701Y-87582776D01*
X125065200Y-87571537D01*
X125064364Y-87559923D01*
X125063193Y-87547937D01*
X125059844Y-87522863D01*
X125055152Y-87496337D01*
X125049116Y-87468383D01*
X125041733Y-87439025D01*
X125033767Y-87410980D01*
X125033020Y-87408348D01*
X125033002Y-87408285D01*
X125031700Y-87403824D01*
X125031808Y-87332830D01*
X125070283Y-87273162D01*
X125119634Y-87247549D01*
X125119470Y-87247004D01*
X125119496Y-87246995D01*
X125119488Y-87246965D01*
X125120821Y-87246595D01*
X125120840Y-87246591D01*
X125140243Y-87240745D01*
X125158835Y-87234103D01*
X125176738Y-87226580D01*
X125194079Y-87218090D01*
X125194095Y-87218081D01*
X125210963Y-87208560D01*
X125210967Y-87208557D01*
X125210982Y-87208549D01*
X125227572Y-87197870D01*
X125243974Y-87185968D01*
X125260311Y-87172759D01*
X125276710Y-87158156D01*
X125293295Y-87142074D01*
X125310191Y-87124428D01*
X125327521Y-87105132D01*
X125345412Y-87084102D01*
X125363988Y-87061251D01*
X125370316Y-87052881D01*
X125376076Y-87044356D01*
X125381264Y-87035665D01*
X125385878Y-87026798D01*
X125389916Y-87017744D01*
X125393375Y-87008491D01*
X125396252Y-86999029D01*
X125398546Y-86989346D01*
X125400253Y-86979433D01*
X125401371Y-86969278D01*
X125401898Y-86958870D01*
X125401831Y-86948198D01*
X125401167Y-86937252D01*
X125399905Y-86926021D01*
X125398041Y-86914493D01*
X125395572Y-86902658D01*
X125392498Y-86890506D01*
X125390178Y-86882645D01*
X125388813Y-86878019D01*
X125384524Y-86865217D01*
X125383013Y-86861162D01*
X125379610Y-86852031D01*
X125374084Y-86838497D01*
X125367939Y-86824591D01*
X125353782Y-86795619D01*
X125337118Y-86765027D01*
X125317928Y-86732727D01*
X125299251Y-86703433D01*
X125296206Y-86698657D01*
X125296200Y-86698648D01*
X125296191Y-86698634D01*
X125271888Y-86662660D01*
X125271878Y-86662645D01*
X125258032Y-86642163D01*
X125256398Y-86639684D01*
X125244592Y-86621277D01*
X125242874Y-86618520D01*
X125232549Y-86601444D01*
X125230687Y-86598257D01*
X125221987Y-86582849D01*
X125219883Y-86578965D01*
X125212976Y-86565664D01*
X125210618Y-86560877D01*
X125205230Y-86549317D01*
X125203229Y-86544789D01*
X125201823Y-86541427D01*
X125200368Y-86537791D01*
X125199193Y-86534714D01*
X125197623Y-86530355D01*
X125197022Y-86528584D01*
X125195329Y-86523197D01*
X125194662Y-86520895D01*
X125194035Y-86518653D01*
X125179607Y-86465071D01*
X125179598Y-86465036D01*
X125162776Y-86404463D01*
X125162473Y-86403372D01*
X125157986Y-86386898D01*
X125157249Y-86384053D01*
X125153915Y-86370501D01*
X125153016Y-86366569D01*
X125150485Y-86354595D01*
X125149548Y-86349678D01*
X125147700Y-86338798D01*
X125146878Y-86333195D01*
X125145581Y-86322729D01*
X125144988Y-86316803D01*
X125144415Y-86309285D01*
X125144163Y-86305972D01*
X125143856Y-86300170D01*
X125143502Y-86288244D01*
X125143459Y-86282910D01*
X125143638Y-86269300D01*
X125143787Y-86264648D01*
X125144591Y-86248841D01*
X125144848Y-86244980D01*
X125146368Y-86226564D01*
X125146664Y-86223461D01*
X125148969Y-86202198D01*
X125149258Y-86199763D01*
X125152392Y-86175412D01*
X125152650Y-86173520D01*
X125154179Y-86162905D01*
X125156662Y-86145686D01*
X125156830Y-86144563D01*
X125161737Y-86113047D01*
X125161886Y-86112123D01*
X125174371Y-86037274D01*
X125174587Y-86036023D01*
X125177348Y-86020583D01*
X125177641Y-86019007D01*
X125180567Y-86003815D01*
X125180865Y-86002317D01*
X125183931Y-85987423D01*
X125184262Y-85985870D01*
X125187302Y-85972033D01*
X125187656Y-85970479D01*
X125190534Y-85958261D01*
X125191058Y-85956126D01*
X125193495Y-85946594D01*
X125194381Y-85943319D01*
X125195936Y-85937874D01*
X125197751Y-85932064D01*
X125199238Y-85927681D01*
X125203854Y-85913860D01*
X125207511Y-85898718D01*
X125210231Y-85882330D01*
X125212036Y-85864770D01*
X125212991Y-85826428D01*
X125210555Y-85784287D01*
X125204904Y-85738942D01*
X125204904Y-85738940D01*
X125204902Y-85738926D01*
X125196221Y-85691018D01*
X125196215Y-85690985D01*
X125189254Y-85660861D01*
X125184667Y-85641011D01*
X125170437Y-85589614D01*
X125153702Y-85537387D01*
X125136623Y-85490381D01*
X125134639Y-85484921D01*
X125120936Y-85451264D01*
X125113427Y-85432820D01*
X125090243Y-85381668D01*
X125065263Y-85332062D01*
X125038666Y-85284596D01*
X125010629Y-85239864D01*
X125010625Y-85239859D01*
X125010618Y-85239847D01*
X124981331Y-85198460D01*
X124968681Y-85182768D01*
X124966837Y-85180663D01*
X124952079Y-85163818D01*
X124931910Y-85142372D01*
X124909127Y-85118146D01*
X124856721Y-85065477D01*
X124851466Y-85060402D01*
X124821304Y-85031271D01*
X124799027Y-85009756D01*
X124740344Y-84955066D01*
X124684877Y-84905396D01*
X124684873Y-84905392D01*
X124684850Y-84905372D01*
X124636773Y-84864682D01*
X124616838Y-84848967D01*
X124613486Y-84846536D01*
X124600336Y-84837002D01*
X124519947Y-84783715D01*
X124458311Y-84745112D01*
X124443715Y-84735970D01*
X124370726Y-84693311D01*
X124370716Y-84693305D01*
X124299943Y-84655200D01*
X124230331Y-84621106D01*
X124195691Y-84605423D01*
X124195684Y-84605420D01*
X124195673Y-84605415D01*
X124160923Y-84590531D01*
X124160916Y-84590528D01*
X124090668Y-84562935D01*
X124018626Y-84537826D01*
X124018604Y-84537818D01*
X124018582Y-84537811D01*
X123952696Y-84515895D01*
X123951985Y-84515656D01*
X123888686Y-84494081D01*
X123887693Y-84493737D01*
X123834249Y-84475022D01*
X123832491Y-84474392D01*
X123795381Y-84460776D01*
X123732542Y-84439754D01*
X123662254Y-84421962D01*
X123597458Y-84409615D01*
X123585604Y-84407357D01*
X123585602Y-84407356D01*
X123585593Y-84407355D01*
X123585590Y-84407354D01*
X123522094Y-84398477D01*
X123503763Y-84395914D01*
X123475720Y-84393200D01*
X123417873Y-84387601D01*
X123329039Y-84382387D01*
X123238448Y-84380243D01*
X123147215Y-84381140D01*
X123056517Y-84385045D01*
X122967449Y-84391930D01*
X122881175Y-84401765D01*
X122798850Y-84414516D01*
X122721569Y-84430163D01*
X122721549Y-84430168D01*
X122650546Y-84448658D01*
X122586848Y-84469993D01*
X122586834Y-84469998D01*
X122531661Y-84494123D01*
X122520747Y-84499232D01*
X122516106Y-84501291D01*
X122503645Y-84506522D01*
X122500484Y-84507799D01*
X122484394Y-84514047D01*
X122481943Y-84514970D01*
X122463459Y-84521709D01*
X122461335Y-84522462D01*
X122441393Y-84529331D01*
X122439379Y-84530006D01*
X122418891Y-84536679D01*
X122416796Y-84537341D01*
X122396484Y-84543567D01*
X122394113Y-84544268D01*
X122373905Y-84550031D01*
X122373167Y-84550239D01*
X122329262Y-84562471D01*
X122289088Y-84574292D01*
X122252663Y-84585879D01*
X122219410Y-84597581D01*
X122188833Y-84609718D01*
X122160398Y-84622631D01*
X122160385Y-84622637D01*
X122133636Y-84636627D01*
X122108018Y-84652043D01*
X122083051Y-84669200D01*
X122058195Y-84688446D01*
X122033007Y-84710059D01*
X122006928Y-84734407D01*
X121979452Y-84761817D01*
X121950110Y-84792580D01*
X121883693Y-84865573D01*
X121839779Y-84917138D01*
X121839775Y-84917144D01*
X121797636Y-84971371D01*
X121757403Y-85027939D01*
X121719245Y-85086483D01*
X121683320Y-85146629D01*
X121649721Y-85208134D01*
X121618642Y-85270568D01*
X121590208Y-85333638D01*
X121564568Y-85396987D01*
X121541871Y-85460270D01*
X121522251Y-85523173D01*
X121505860Y-85585343D01*
X121505853Y-85585373D01*
X121492845Y-85646431D01*
X121492844Y-85646436D01*
X121483346Y-85706120D01*
X121483346Y-85706125D01*
X121477515Y-85764035D01*
X121477512Y-85764080D01*
X121475490Y-85819881D01*
X121475489Y-85819896D01*
X121477609Y-85894554D01*
X121483585Y-85988337D01*
X121492593Y-86093777D01*
X121503789Y-86203189D01*
X121513876Y-86288273D01*
X121516368Y-86309295D01*
X121520435Y-86338798D01*
X121529487Y-86404463D01*
X121542314Y-86481163D01*
X121546229Y-86500000D01*
X121548365Y-86510277D01*
X121554032Y-86531959D01*
X121555725Y-86537753D01*
X121563309Y-86563707D01*
X121563843Y-86565591D01*
X121575334Y-86607315D01*
X121575629Y-86608406D01*
X121588048Y-86655341D01*
X121588357Y-86656532D01*
X121600277Y-86703433D01*
X121612461Y-86748686D01*
X121626291Y-86792864D01*
X121641705Y-86835823D01*
X121658670Y-86877534D01*
X121677160Y-86917959D01*
X121697114Y-86956997D01*
X121697122Y-86957011D01*
X121697123Y-86957013D01*
X121718524Y-86994647D01*
X121730186Y-87013140D01*
X121741317Y-87030791D01*
X121741343Y-87030829D01*
X121765477Y-87065407D01*
X121765497Y-87065435D01*
X121790965Y-87098435D01*
X121790989Y-87098465D01*
X121817727Y-87129799D01*
X121817749Y-87129824D01*
X121818814Y-87130951D01*
X121845760Y-87159479D01*
X121874983Y-87187372D01*
X121905376Y-87213437D01*
X121936898Y-87237618D01*
X121969513Y-87259856D01*
X121972907Y-87262104D01*
X121982540Y-87268486D01*
X121984990Y-87270151D01*
X121998436Y-87279521D01*
X122000273Y-87280827D01*
X122015078Y-87291556D01*
X122016689Y-87292743D01*
X122032028Y-87304236D01*
X122033472Y-87305335D01*
X122034557Y-87306174D01*
X122048702Y-87317111D01*
X122050261Y-87318336D01*
X122064686Y-87329857D01*
X122066435Y-87331280D01*
X122079414Y-87342032D01*
X122081563Y-87343853D01*
X122090784Y-87351850D01*
X122093491Y-87354198D01*
X122093950Y-87354598D01*
X122106041Y-87365188D01*
X122110082Y-87368602D01*
X122118190Y-87375452D01*
X122129839Y-87384939D01*
X122134443Y-87388538D01*
X122175794Y-87446249D01*
X122182446Y-87477788D01*
X122184429Y-87502644D01*
X122184588Y-87504887D01*
X122186855Y-87541544D01*
X122186971Y-87543737D01*
X122191248Y-87640144D01*
X122191315Y-87641951D01*
X122195052Y-87766557D01*
X122195082Y-87767711D01*
X122198271Y-87920838D01*
X122198285Y-87921638D01*
X122200908Y-88102897D01*
X122200915Y-88103483D01*
X122202974Y-88313134D01*
X122202976Y-88313373D01*
X122203791Y-88416258D01*
X122186267Y-88481364D01*
X122153635Y-88536578D01*
X122153102Y-88537472D01*
X122149696Y-88543128D01*
X122131719Y-88572980D01*
X122126943Y-88580910D01*
X122126121Y-88582255D01*
X122095797Y-88631213D01*
X122094898Y-88632643D01*
X122025185Y-88741895D01*
X122024154Y-88743484D01*
X121951442Y-88853745D01*
X121950566Y-88855056D01*
X121916421Y-88905450D01*
X121915640Y-88906589D01*
X121883898Y-88952347D01*
X121863893Y-88981876D01*
X121844254Y-89013075D01*
X121825123Y-89045656D01*
X121806534Y-89079497D01*
X121796797Y-89098423D01*
X121788563Y-89114426D01*
X121783734Y-89124440D01*
X121771291Y-89150243D01*
X121754777Y-89186800D01*
X121739128Y-89223846D01*
X121724371Y-89261297D01*
X121710606Y-89298924D01*
X121697884Y-89336602D01*
X121686312Y-89374050D01*
X121675933Y-89411183D01*
X121666836Y-89447761D01*
X121666831Y-89447782D01*
X121666829Y-89447792D01*
X121663468Y-89463348D01*
X121659068Y-89483715D01*
X121652719Y-89518809D01*
X121640173Y-89591083D01*
X121639777Y-89593254D01*
X121624903Y-89670847D01*
X121624555Y-89672597D01*
X121607858Y-89753490D01*
X121607519Y-89755080D01*
X121589840Y-89835476D01*
X121589472Y-89837098D01*
X121571580Y-89913630D01*
X121571123Y-89915519D01*
X121553862Y-89984533D01*
X121553197Y-89987079D01*
X121537531Y-90044585D01*
X121536331Y-90048709D01*
X121522718Y-90092708D01*
X121522023Y-90094885D01*
X121518336Y-90106077D01*
X121515736Y-90114574D01*
X121514906Y-90117290D01*
X121512879Y-90124493D01*
X121512013Y-90127573D01*
X121509600Y-90136997D01*
X121507538Y-90145890D01*
X121505769Y-90154300D01*
X121502726Y-90170535D01*
X121499965Y-90186018D01*
X121499588Y-90188036D01*
X121496537Y-90203662D01*
X121495964Y-90206432D01*
X121494303Y-90214028D01*
X121493793Y-90216261D01*
X121491719Y-90224983D01*
X121491159Y-90227243D01*
X121488647Y-90237002D01*
X121488057Y-90239211D01*
X121484673Y-90251433D01*
X121484662Y-90251477D01*
X121483023Y-90259206D01*
X121481312Y-90266263D01*
X121479889Y-90271472D01*
X121478323Y-90276749D01*
X121476050Y-90283836D01*
X121474828Y-90287458D01*
X121471633Y-90296470D01*
X121470919Y-90298432D01*
X121452444Y-90347922D01*
X121447794Y-90361772D01*
X121443430Y-90376204D01*
X121439463Y-90391317D01*
X121436011Y-90407209D01*
X121436010Y-90407215D01*
X121433209Y-90423886D01*
X121433204Y-90423925D01*
X121431172Y-90441462D01*
X121430478Y-90450641D01*
X121430028Y-90460000D01*
X121429829Y-90469637D01*
X119796282Y-90469637D01*
X117836165Y-88509520D01*
X117836155Y-88509512D01*
X117739137Y-88453499D01*
X117739134Y-88453498D01*
X117739133Y-88453497D01*
X117739131Y-88453496D01*
X117739130Y-88453496D01*
X117705783Y-88444561D01*
X117630914Y-88424500D01*
X117630912Y-88424500D01*
X105508438Y-88424500D01*
X105440317Y-88404498D01*
X105419343Y-88387595D01*
X104162359Y-87130611D01*
X104128333Y-87068299D01*
X104133398Y-86997484D01*
X104137249Y-86988289D01*
X104156739Y-86946496D01*
X104156740Y-86946491D01*
X104156742Y-86946487D01*
X104177581Y-86868713D01*
X104196046Y-86799799D01*
X104232996Y-86739178D01*
X104296857Y-86708156D01*
X104367351Y-86716584D01*
X104388730Y-86728305D01*
X104523462Y-86820163D01*
X104523470Y-86820168D01*
X104767602Y-86937735D01*
X105026547Y-87017611D01*
X105026555Y-87017612D01*
X105294513Y-87058000D01*
X105565487Y-87058000D01*
X105833444Y-87017612D01*
X105833452Y-87017611D01*
X106092397Y-86937735D01*
X106336529Y-86820168D01*
X106336530Y-86820167D01*
X106517544Y-86696753D01*
X105673488Y-85852698D01*
X105737890Y-85826022D01*
X105844351Y-85754888D01*
X105934888Y-85664351D01*
X106006022Y-85557890D01*
X106032698Y-85493489D01*
X106875906Y-86336697D01*
X106875907Y-86336696D01*
X106928025Y-86271343D01*
X106928031Y-86271335D01*
X107063519Y-86036664D01*
X107162518Y-85784416D01*
X107162519Y-85784413D01*
X107222819Y-85520227D01*
X107243069Y-85250000D01*
X107222819Y-84979772D01*
X107162519Y-84715586D01*
X107162518Y-84715583D01*
X107063519Y-84463335D01*
X106928031Y-84228664D01*
X106875906Y-84163302D01*
X106875905Y-84163302D01*
X106032697Y-85006509D01*
X106006022Y-84942110D01*
X105934888Y-84835649D01*
X105844351Y-84745112D01*
X105737890Y-84673978D01*
X105673488Y-84647301D01*
X106517543Y-83803246D01*
X106517543Y-83803244D01*
X106336537Y-83679836D01*
X106336529Y-83679831D01*
X106092397Y-83562264D01*
X105833452Y-83482388D01*
X105833444Y-83482387D01*
X105565487Y-83442000D01*
X105294513Y-83442000D01*
X105026555Y-83482387D01*
X105026547Y-83482388D01*
X104767602Y-83562264D01*
X104523470Y-83679831D01*
X104523462Y-83679836D01*
X104342455Y-83803244D01*
X104342455Y-83803246D01*
X105186510Y-84647301D01*
X105122110Y-84673978D01*
X105015649Y-84745112D01*
X104925112Y-84835649D01*
X104853978Y-84942110D01*
X104827301Y-85006511D01*
X103984093Y-84163302D01*
X103984091Y-84163302D01*
X103931968Y-84228664D01*
X103796480Y-84463335D01*
X103697481Y-84715583D01*
X103697480Y-84715586D01*
X103637180Y-84979772D01*
X103620755Y-85198960D01*
X103595718Y-85265396D01*
X103538738Y-85307749D01*
X103467905Y-85312573D01*
X103441858Y-85303739D01*
X103376503Y-85273264D01*
X103376499Y-85273262D01*
X103376496Y-85273261D01*
X103376494Y-85273260D01*
X103376493Y-85273260D01*
X103156695Y-85214365D01*
X102930000Y-85194532D01*
X102703304Y-85214365D01*
X102483506Y-85273260D01*
X102483501Y-85273262D01*
X102277262Y-85369433D01*
X102090865Y-85499948D01*
X102090855Y-85499957D01*
X101929957Y-85660855D01*
X101929948Y-85660865D01*
X101799433Y-85847262D01*
X101703262Y-86053501D01*
X101703260Y-86053506D01*
X101644365Y-86273304D01*
X101624532Y-86500000D01*
X101644365Y-86726695D01*
X101703260Y-86946492D01*
X101703261Y-86946496D01*
X101717158Y-86976298D01*
X101799433Y-87152737D01*
X101929948Y-87339134D01*
X101929957Y-87339144D01*
X102090855Y-87500042D01*
X102090865Y-87500051D01*
X102277262Y-87630566D01*
X102277261Y-87630566D01*
X102344316Y-87661834D01*
X102483504Y-87726739D01*
X102661703Y-87774487D01*
X102694955Y-87783397D01*
X102703308Y-87785635D01*
X102930000Y-87805468D01*
X103156692Y-87785635D01*
X103376496Y-87726739D01*
X103418267Y-87707260D01*
X103488454Y-87696598D01*
X103553267Y-87725575D01*
X103560611Y-87732359D01*
X104939515Y-89111263D01*
X105018737Y-89190485D01*
X105018738Y-89190486D01*
X105018740Y-89190487D01*
X105052798Y-89210150D01*
X105115763Y-89246503D01*
X105223982Y-89275500D01*
X117346458Y-89275500D01*
X117414579Y-89295502D01*
X117435553Y-89312405D01*
X118982752Y-90859604D01*
X119016778Y-90921916D01*
X119011713Y-90992731D01*
X118969166Y-91049567D01*
X118902646Y-91074378D01*
X118893657Y-91074699D01*
X108549562Y-91074699D01*
X108437525Y-91074699D01*
X108414383Y-91080900D01*
X108414382Y-91080899D01*
X108329314Y-91103693D01*
X108329302Y-91103698D01*
X108232284Y-91159711D01*
X108232283Y-91159712D01*
X108232281Y-91159713D01*
X108232281Y-91159714D01*
X108232280Y-91159715D01*
X107991896Y-91400099D01*
X107419221Y-91972773D01*
X107356909Y-92006798D01*
X107286093Y-92001733D01*
X107229258Y-91959186D01*
X107207285Y-91911715D01*
X107162519Y-91715586D01*
X107162518Y-91715583D01*
X107063519Y-91463335D01*
X106928031Y-91228664D01*
X106875906Y-91163302D01*
X106032698Y-92006511D01*
X106006022Y-91942110D01*
X105934888Y-91835649D01*
X105844351Y-91745112D01*
X105737890Y-91673978D01*
X105673487Y-91647301D01*
X106517543Y-90803246D01*
X106517543Y-90803244D01*
X106336537Y-90679836D01*
X106336529Y-90679831D01*
X106092397Y-90562264D01*
X105833452Y-90482388D01*
X105833444Y-90482387D01*
X105565487Y-90442000D01*
X105294513Y-90442000D01*
X105026555Y-90482387D01*
X105026547Y-90482388D01*
X104767602Y-90562264D01*
X104557092Y-90663640D01*
X104487039Y-90675175D01*
X104421870Y-90647006D01*
X104382276Y-90588075D01*
X104379904Y-90579531D01*
X104368628Y-90532564D01*
X104277791Y-90313261D01*
X104163102Y-90126108D01*
X104163101Y-90126107D01*
X103414157Y-90875051D01*
X103395925Y-90807007D01*
X103330099Y-90692993D01*
X103237007Y-90599901D01*
X103122993Y-90534075D01*
X103054946Y-90515841D01*
X103803890Y-89766897D01*
X103803890Y-89766896D01*
X103616738Y-89652208D01*
X103397437Y-89561371D01*
X103166632Y-89505960D01*
X102930000Y-89487337D01*
X102693367Y-89505960D01*
X102462562Y-89561371D01*
X102243266Y-89652206D01*
X102056108Y-89766897D01*
X102056108Y-89766898D01*
X102805052Y-90515842D01*
X102737007Y-90534075D01*
X102622993Y-90599901D01*
X102529901Y-90692993D01*
X102464075Y-90807007D01*
X102445842Y-90875052D01*
X101696898Y-90126108D01*
X101696897Y-90126108D01*
X101582206Y-90313266D01*
X101491371Y-90532562D01*
X101435960Y-90763367D01*
X101417337Y-91000000D01*
X101435960Y-91236632D01*
X101491371Y-91467437D01*
X101582208Y-91686738D01*
X101696896Y-91873890D01*
X101696897Y-91873890D01*
X102445841Y-91124946D01*
X102464075Y-91192993D01*
X102529901Y-91307007D01*
X102622993Y-91400099D01*
X102737007Y-91465925D01*
X102805052Y-91484158D01*
X102056107Y-92233102D01*
X102243261Y-92347791D01*
X102462562Y-92438628D01*
X102693367Y-92494039D01*
X102930000Y-92512662D01*
X103166632Y-92494039D01*
X103397438Y-92438627D01*
X103397441Y-92438627D01*
X103463176Y-92411398D01*
X103533765Y-92403808D01*
X103597253Y-92435586D01*
X103633481Y-92496644D01*
X103637042Y-92518385D01*
X103637179Y-92520221D01*
X103697480Y-92784413D01*
X103697481Y-92784416D01*
X103796480Y-93036664D01*
X103931968Y-93271335D01*
X103984092Y-93336696D01*
X103984093Y-93336696D01*
X104827301Y-92493487D01*
X104853978Y-92557890D01*
X104925112Y-92664351D01*
X105015649Y-92754888D01*
X105122110Y-92826022D01*
X105186511Y-92852698D01*
X104342455Y-93696753D01*
X104523469Y-93820167D01*
X104523470Y-93820168D01*
X104767602Y-93937735D01*
X105026547Y-94017611D01*
X105026556Y-94017613D01*
X105082017Y-94025972D01*
X105146396Y-94055903D01*
X105184373Y-94115889D01*
X105183891Y-94186884D01*
X105152335Y-94239660D01*
X104436337Y-94955658D01*
X104414097Y-94977898D01*
X104357116Y-95034878D01*
X104357112Y-95034883D01*
X104301099Y-95131901D01*
X104301096Y-95131908D01*
X104272100Y-95240126D01*
X104272100Y-109784323D01*
X104252098Y-109852444D01*
X104198442Y-109898937D01*
X104128168Y-109909041D01*
X104095206Y-109899587D01*
X104044989Y-109877414D01*
X104044990Y-109877414D01*
X104019868Y-109874500D01*
X103130140Y-109874500D01*
X103130133Y-109874501D01*
X103105009Y-109877414D01*
X103105005Y-109877416D01*
X103002234Y-109922793D01*
X102922795Y-110002232D01*
X102922794Y-110002234D01*
X102877414Y-110105009D01*
X102874500Y-110130130D01*
X102874500Y-110130133D01*
X102874501Y-110673500D01*
X102854499Y-110741621D01*
X102800844Y-110788114D01*
X102748501Y-110799500D01*
X102126500Y-110799500D01*
X102058379Y-110779498D01*
X102011886Y-110725842D01*
X102000500Y-110673500D01*
X102000500Y-110645735D01*
X102000500Y-110645734D01*
X101997646Y-110615301D01*
X101993680Y-110603968D01*
X101952793Y-110487118D01*
X101952791Y-110487114D01*
X101872150Y-110377849D01*
X101762885Y-110297208D01*
X101762881Y-110297206D01*
X101634704Y-110252355D01*
X101634700Y-110252354D01*
X101604266Y-110249500D01*
X100895734Y-110249500D01*
X100895733Y-110249500D01*
X100865299Y-110252354D01*
X100865295Y-110252355D01*
X100737118Y-110297206D01*
X100737114Y-110297208D01*
X100627849Y-110377849D01*
X100547208Y-110487114D01*
X100547206Y-110487118D01*
X100502355Y-110615295D01*
X100502354Y-110615299D01*
X100499500Y-110645733D01*
X100499500Y-110946562D01*
X100479498Y-111014683D01*
X100462595Y-111035657D01*
X100261336Y-111236916D01*
X100215095Y-111283156D01*
X100152783Y-111317181D01*
X100081967Y-111312115D01*
X100025132Y-111269568D01*
X100000322Y-111203047D01*
X100000001Y-111194060D01*
X100000002Y-107122062D01*
X100000003Y-94250000D01*
X100000000Y-85750000D01*
X100000000Y-81126000D01*
X100020002Y-81057879D01*
X100073658Y-81011386D01*
X100126000Y-81000000D01*
X159874000Y-81000000D01*
X159942121Y-81020002D01*
G37*
%TD.AperFunction*%
%TA.AperFunction,Conductor*%
G36*
X106326133Y-111946690D02*
G01*
X106382969Y-111989237D01*
X106407779Y-112055757D01*
X106408100Y-112064745D01*
X106408100Y-113826481D01*
X106436730Y-113970415D01*
X106462198Y-114031898D01*
X106462199Y-114031898D01*
X106492889Y-114105990D01*
X106572468Y-114225087D01*
X106572469Y-114225090D01*
X106574417Y-114228005D01*
X106574421Y-114228010D01*
X107521321Y-115174910D01*
X107625090Y-115278679D01*
X107747110Y-115360211D01*
X107766159Y-115368101D01*
X107766160Y-115368102D01*
X107766161Y-115368102D01*
X107882688Y-115416370D01*
X107882689Y-115416370D01*
X107882691Y-115416371D01*
X107979961Y-115435718D01*
X108026618Y-115444999D01*
X108026621Y-115444999D01*
X108026624Y-115445000D01*
X108173376Y-115445000D01*
X127076624Y-115445000D01*
X127223376Y-115445000D01*
X128076624Y-115445000D01*
X128425414Y-115445000D01*
X128493535Y-115465002D01*
X128501540Y-115470597D01*
X128530313Y-115492416D01*
X128552658Y-115509361D01*
X128608253Y-115531285D01*
X128664286Y-115574883D01*
X128687854Y-115641854D01*
X128671472Y-115710935D01*
X128620344Y-115760193D01*
X128562029Y-115774500D01*
X102928438Y-115774500D01*
X102860317Y-115754498D01*
X102839343Y-115737595D01*
X101563375Y-114461627D01*
X101529349Y-114399315D01*
X101534414Y-114328500D01*
X101576961Y-114271664D01*
X101627816Y-114252062D01*
X101627209Y-114249282D01*
X101634691Y-114247646D01*
X101634699Y-114247646D01*
X101762882Y-114202793D01*
X101872150Y-114122150D01*
X101872155Y-114122142D01*
X101878823Y-114115476D01*
X101880869Y-114117521D01*
X101925345Y-114083749D01*
X101970186Y-114075500D01*
X102806016Y-114075500D01*
X102806018Y-114075500D01*
X102914237Y-114046503D01*
X103011263Y-113990485D01*
X103589343Y-113412403D01*
X103651656Y-113378379D01*
X103678439Y-113375499D01*
X104019860Y-113375499D01*
X104019864Y-113375499D01*
X104044991Y-113372585D01*
X104147765Y-113327206D01*
X104227206Y-113247765D01*
X104272585Y-113144991D01*
X104275500Y-113119865D01*
X104275499Y-112986236D01*
X104295501Y-112918118D01*
X104349156Y-112871625D01*
X104419430Y-112861520D01*
X104484011Y-112891013D01*
X104490594Y-112897142D01*
X104638396Y-113044944D01*
X104672420Y-113107254D01*
X104674461Y-113119521D01*
X104677415Y-113144990D01*
X104677416Y-113144994D01*
X104722793Y-113247765D01*
X104802232Y-113327204D01*
X104802234Y-113327205D01*
X104802235Y-113327206D01*
X104905009Y-113372585D01*
X104930135Y-113375500D01*
X105819864Y-113375499D01*
X105844991Y-113372585D01*
X105947765Y-113327206D01*
X106027206Y-113247765D01*
X106072585Y-113144991D01*
X106075500Y-113119865D01*
X106075499Y-112530136D01*
X106072585Y-112505009D01*
X106050571Y-112455151D01*
X106048691Y-112450893D01*
X106039473Y-112380497D01*
X106048691Y-112349105D01*
X106056895Y-112330525D01*
X106072585Y-112294991D01*
X106075500Y-112269865D01*
X106075499Y-112145344D01*
X106095501Y-112077225D01*
X106112399Y-112056254D01*
X106193005Y-111975648D01*
X106255318Y-111941624D01*
X106326133Y-111946690D01*
G37*
%TD.AperFunction*%
%TA.AperFunction,Conductor*%
G36*
X121805306Y-103281702D02*
G01*
X121851799Y-103335358D01*
X121862266Y-103372513D01*
X121864859Y-103393871D01*
X121925179Y-103552925D01*
X121925181Y-103552929D01*
X122021816Y-103692928D01*
X122021818Y-103692930D01*
X122117684Y-103777860D01*
X122149148Y-103805734D01*
X122299775Y-103884790D01*
X122299776Y-103884790D01*
X122299778Y-103884791D01*
X122406784Y-103911165D01*
X122464944Y-103925500D01*
X122464947Y-103925500D01*
X122635053Y-103925500D01*
X122635056Y-103925500D01*
X122800225Y-103884790D01*
X122950852Y-103805734D01*
X123010570Y-103752828D01*
X123074819Y-103722629D01*
X123145200Y-103731960D01*
X123199364Y-103777860D01*
X123220113Y-103845757D01*
X123215828Y-103879752D01*
X123199500Y-103940690D01*
X123199500Y-104059307D01*
X123199499Y-104059307D01*
X123199500Y-104059309D01*
X123225278Y-104155515D01*
X123230202Y-104173888D01*
X123237773Y-104187002D01*
X123254509Y-104255998D01*
X123237773Y-104312998D01*
X123230202Y-104326111D01*
X123230201Y-104326113D01*
X123230201Y-104326114D01*
X123209841Y-104402100D01*
X123199500Y-104440692D01*
X123199500Y-104559307D01*
X123199499Y-104559307D01*
X123230201Y-104673886D01*
X123289508Y-104776609D01*
X123289516Y-104776619D01*
X123373380Y-104860483D01*
X123373385Y-104860487D01*
X123373387Y-104860489D01*
X123373388Y-104860490D01*
X123373390Y-104860491D01*
X123393432Y-104872062D01*
X123476114Y-104919799D01*
X123590691Y-104950500D01*
X123590693Y-104950500D01*
X124809307Y-104950500D01*
X124809309Y-104950500D01*
X124923886Y-104919799D01*
X125026613Y-104860489D01*
X125026778Y-104860324D01*
X125032805Y-104854298D01*
X125095117Y-104820272D01*
X125165932Y-104825337D01*
X125222768Y-104867884D01*
X125247579Y-104934404D01*
X125247900Y-104943393D01*
X125247900Y-105161696D01*
X125232753Y-105218229D01*
X125233362Y-105218482D01*
X125231447Y-105223105D01*
X125231022Y-105224692D01*
X125230201Y-105226112D01*
X125226504Y-105239910D01*
X125204055Y-105323694D01*
X125199500Y-105340692D01*
X125199500Y-106559307D01*
X125199499Y-106559307D01*
X125230201Y-106673886D01*
X125289508Y-106776609D01*
X125289516Y-106776619D01*
X125373380Y-106860483D01*
X125373385Y-106860487D01*
X125373387Y-106860489D01*
X125476114Y-106919799D01*
X125590691Y-106950500D01*
X125590693Y-106950500D01*
X125709307Y-106950500D01*
X125709309Y-106950500D01*
X125823886Y-106919799D01*
X125837000Y-106912227D01*
X125905993Y-106895489D01*
X125962999Y-106912227D01*
X125976114Y-106919799D01*
X126090691Y-106950500D01*
X126090693Y-106950500D01*
X126209307Y-106950500D01*
X126209309Y-106950500D01*
X126323886Y-106919799D01*
X126337000Y-106912227D01*
X126405993Y-106895489D01*
X126462999Y-106912227D01*
X126476114Y-106919799D01*
X126590691Y-106950500D01*
X126590693Y-106950500D01*
X126709307Y-106950500D01*
X126709309Y-106950500D01*
X126823886Y-106919799D01*
X126837000Y-106912227D01*
X126905993Y-106895489D01*
X126962999Y-106912227D01*
X126976114Y-106919799D01*
X127090691Y-106950500D01*
X127090693Y-106950500D01*
X127121900Y-106950500D01*
X127190021Y-106970502D01*
X127236514Y-107024158D01*
X127247900Y-107076500D01*
X127247900Y-107277889D01*
X127227898Y-107346010D01*
X127174242Y-107392503D01*
X127168125Y-107395104D01*
X127090818Y-107425590D01*
X127052658Y-107440639D01*
X127052657Y-107440639D01*
X127052656Y-107440640D01*
X127052654Y-107440641D01*
X126932077Y-107532077D01*
X126840641Y-107652654D01*
X126840638Y-107652658D01*
X126785122Y-107793435D01*
X126774500Y-107881894D01*
X126774500Y-109268105D01*
X126785122Y-109356564D01*
X126840638Y-109497341D01*
X126840641Y-109497346D01*
X126871591Y-109538158D01*
X126878694Y-109547525D01*
X126879396Y-109548450D01*
X126904621Y-109614814D01*
X126905000Y-109624585D01*
X126905000Y-113829000D01*
X126884998Y-113897121D01*
X126831342Y-113943614D01*
X126779000Y-113955000D01*
X108460779Y-113955000D01*
X108392658Y-113934998D01*
X108371684Y-113918095D01*
X107935005Y-113481416D01*
X107900979Y-113419104D01*
X107898100Y-113392321D01*
X107898100Y-108942468D01*
X107918102Y-108874347D01*
X107971758Y-108827854D01*
X108042032Y-108817750D01*
X108100804Y-108842506D01*
X108242825Y-108951484D01*
X108499156Y-109099477D01*
X108499167Y-109099482D01*
X108772632Y-109212755D01*
X109058548Y-109289366D01*
X109352000Y-109327999D01*
X109352010Y-109328000D01*
X109996000Y-109328000D01*
X109996000Y-108194105D01*
X110159493Y-108220000D01*
X110340507Y-108220000D01*
X110504000Y-108194105D01*
X110504000Y-109328000D01*
X111147990Y-109328000D01*
X111147999Y-109327999D01*
X111441451Y-109289366D01*
X111727367Y-109212755D01*
X112000832Y-109099482D01*
X112000843Y-109099477D01*
X112257174Y-108951484D01*
X112491991Y-108771301D01*
X112492012Y-108771282D01*
X112701282Y-108562012D01*
X112701301Y-108561991D01*
X112881484Y-108327174D01*
X112980881Y-108155014D01*
X113032263Y-108106021D01*
X113101977Y-108092585D01*
X113167888Y-108118971D01*
X113199119Y-108155014D01*
X113298515Y-108327174D01*
X113478698Y-108561991D01*
X113478717Y-108562012D01*
X113687987Y-108771282D01*
X113688008Y-108771301D01*
X113922825Y-108951484D01*
X114179156Y-109099477D01*
X114179167Y-109099482D01*
X114452632Y-109212755D01*
X114738548Y-109289366D01*
X115032000Y-109327999D01*
X115032010Y-109328000D01*
X115676000Y-109328000D01*
X115676000Y-108194105D01*
X115839493Y-108220000D01*
X116020507Y-108220000D01*
X116184000Y-108194105D01*
X116184000Y-109328000D01*
X116827990Y-109328000D01*
X116827999Y-109327999D01*
X117121451Y-109289366D01*
X117173140Y-109275516D01*
X123617000Y-109275516D01*
X123627605Y-109379318D01*
X123627606Y-109379321D01*
X123683342Y-109547525D01*
X123776365Y-109698339D01*
X123776370Y-109698345D01*
X123901654Y-109823629D01*
X123901660Y-109823634D01*
X124052474Y-109916657D01*
X124220678Y-109972393D01*
X124220681Y-109972394D01*
X124324483Y-109982999D01*
X124324483Y-109983000D01*
X124446000Y-109983000D01*
X124954000Y-109983000D01*
X125075517Y-109983000D01*
X125075516Y-109982999D01*
X125179318Y-109972394D01*
X125179321Y-109972393D01*
X125347525Y-109916657D01*
X125498339Y-109823634D01*
X125498345Y-109823629D01*
X125623629Y-109698345D01*
X125623634Y-109698339D01*
X125716657Y-109547525D01*
X125772393Y-109379321D01*
X125772394Y-109379318D01*
X125782999Y-109275516D01*
X125783000Y-109275516D01*
X125783000Y-108829000D01*
X124954000Y-108829000D01*
X124954000Y-109983000D01*
X124446000Y-109983000D01*
X124446000Y-108829000D01*
X123617000Y-108829000D01*
X123617000Y-109275516D01*
X117173140Y-109275516D01*
X117407367Y-109212755D01*
X117680832Y-109099482D01*
X117680843Y-109099477D01*
X117937174Y-108951484D01*
X118171991Y-108771301D01*
X118172012Y-108771282D01*
X118381282Y-108562012D01*
X118381301Y-108561991D01*
X118561484Y-108327174D01*
X118709477Y-108070843D01*
X118709482Y-108070832D01*
X118790812Y-107874483D01*
X123617000Y-107874483D01*
X123617000Y-108321000D01*
X124446000Y-108321000D01*
X124954000Y-108321000D01*
X125783000Y-108321000D01*
X125783000Y-107874483D01*
X125772394Y-107770681D01*
X125772393Y-107770678D01*
X125716657Y-107602474D01*
X125623634Y-107451660D01*
X125623629Y-107451654D01*
X125498345Y-107326370D01*
X125498339Y-107326365D01*
X125347525Y-107233342D01*
X125179321Y-107177606D01*
X125179318Y-107177605D01*
X125075516Y-107167000D01*
X124954000Y-107167000D01*
X124954000Y-108321000D01*
X124446000Y-108321000D01*
X124446000Y-107167000D01*
X124324483Y-107167000D01*
X124220681Y-107177605D01*
X124220678Y-107177606D01*
X124052474Y-107233342D01*
X123901660Y-107326365D01*
X123901654Y-107326370D01*
X123776370Y-107451654D01*
X123776365Y-107451660D01*
X123683342Y-107602474D01*
X123627606Y-107770678D01*
X123627605Y-107770681D01*
X123617000Y-107874483D01*
X118790812Y-107874483D01*
X118822755Y-107797367D01*
X118899366Y-107511451D01*
X118924044Y-107324000D01*
X117054105Y-107324000D01*
X117080000Y-107160507D01*
X117080000Y-106979493D01*
X117054105Y-106816000D01*
X118924044Y-106816000D01*
X118924044Y-106815999D01*
X118899366Y-106628548D01*
X118822755Y-106342632D01*
X118709482Y-106069167D01*
X118709477Y-106069156D01*
X118561484Y-105812825D01*
X118381301Y-105578008D01*
X118381282Y-105577987D01*
X118172012Y-105368717D01*
X118171991Y-105368698D01*
X117937172Y-105188515D01*
X117937160Y-105188507D01*
X117878658Y-105154730D01*
X117829665Y-105103347D01*
X117816230Y-105033634D01*
X117842617Y-104967723D01*
X117852564Y-104956516D01*
X117989548Y-104819532D01*
X118105935Y-104659339D01*
X118195834Y-104482902D01*
X118257024Y-104294579D01*
X118263452Y-104254000D01*
X116010703Y-104254000D01*
X116045925Y-104192993D01*
X116080000Y-104065826D01*
X116080000Y-103934174D01*
X116045925Y-103807007D01*
X116010703Y-103746000D01*
X118263452Y-103746000D01*
X118257024Y-103705420D01*
X118195833Y-103517094D01*
X118159050Y-103444902D01*
X118145946Y-103375125D01*
X118172647Y-103309341D01*
X118230675Y-103268435D01*
X118271317Y-103261700D01*
X121737185Y-103261700D01*
X121805306Y-103281702D01*
G37*
%TD.AperFunction*%
%TA.AperFunction,Conductor*%
G36*
X135559256Y-110702702D02*
G01*
X135605749Y-110756358D01*
X135615853Y-110826632D01*
X135586359Y-110891212D01*
X135580230Y-110897795D01*
X135526370Y-110951654D01*
X135526365Y-110951660D01*
X135433342Y-111102474D01*
X135377606Y-111270678D01*
X135377605Y-111270681D01*
X135367000Y-111374483D01*
X135367000Y-111496000D01*
X138183000Y-111496000D01*
X138183000Y-111374483D01*
X138172394Y-111270681D01*
X138172393Y-111270678D01*
X138116657Y-111102474D01*
X138023634Y-110951660D01*
X138023629Y-110951654D01*
X137969770Y-110897795D01*
X137935744Y-110835483D01*
X137940809Y-110764668D01*
X137983356Y-110707832D01*
X138049876Y-110683021D01*
X138058865Y-110682700D01*
X138334586Y-110682700D01*
X138402707Y-110702702D01*
X138449200Y-110756358D01*
X138459667Y-110823887D01*
X138444355Y-110949996D01*
X138444355Y-110950002D01*
X138464859Y-111118871D01*
X138525179Y-111277925D01*
X138525181Y-111277929D01*
X138619175Y-111414101D01*
X138621817Y-111417929D01*
X138705453Y-111492024D01*
X138743178Y-111552167D01*
X138747900Y-111586336D01*
X138747900Y-113410803D01*
X138727898Y-113478924D01*
X138674242Y-113525417D01*
X138650967Y-113531964D01*
X138651265Y-113533144D01*
X138643435Y-113535122D01*
X138502658Y-113590638D01*
X138502654Y-113590641D01*
X138382077Y-113682077D01*
X138290641Y-113802654D01*
X138290637Y-113802660D01*
X138262023Y-113875223D01*
X138218425Y-113931257D01*
X138151455Y-113954825D01*
X138144808Y-113955000D01*
X137824586Y-113955000D01*
X137756465Y-113934998D01*
X137748459Y-113929402D01*
X137698360Y-113891411D01*
X137697341Y-113890638D01*
X137556564Y-113835122D01*
X137556565Y-113835122D01*
X137468105Y-113824500D01*
X137468102Y-113824500D01*
X136081898Y-113824500D01*
X136081894Y-113824500D01*
X135993435Y-113835122D01*
X135852658Y-113890638D01*
X135818636Y-113916438D01*
X135801547Y-113929397D01*
X135735184Y-113954621D01*
X135725414Y-113955000D01*
X133024586Y-113955000D01*
X132956465Y-113934998D01*
X132948459Y-113929402D01*
X132898360Y-113891411D01*
X132897341Y-113890638D01*
X132756564Y-113835122D01*
X132756565Y-113835122D01*
X132668105Y-113824500D01*
X132668102Y-113824500D01*
X131281898Y-113824500D01*
X131281894Y-113824500D01*
X131193435Y-113835122D01*
X131052658Y-113890638D01*
X131018636Y-113916438D01*
X131001547Y-113929397D01*
X130935184Y-113954621D01*
X130925414Y-113955000D01*
X130524586Y-113955000D01*
X130456465Y-113934998D01*
X130448459Y-113929402D01*
X130398360Y-113891411D01*
X130397341Y-113890638D01*
X130256564Y-113835122D01*
X130256565Y-113835122D01*
X130168105Y-113824500D01*
X130168102Y-113824500D01*
X128781898Y-113824500D01*
X128781894Y-113824500D01*
X128693434Y-113835122D01*
X128567224Y-113884894D01*
X128496514Y-113891277D01*
X128433579Y-113858418D01*
X128398400Y-113796751D01*
X128395000Y-113767679D01*
X128395000Y-112905533D01*
X128415002Y-112837412D01*
X128468658Y-112790919D01*
X128538932Y-112780815D01*
X128560633Y-112785929D01*
X128670669Y-112822392D01*
X128670681Y-112822394D01*
X128774483Y-112832999D01*
X128774483Y-112833000D01*
X129221000Y-112833000D01*
X129729000Y-112833000D01*
X130175517Y-112833000D01*
X130175516Y-112832999D01*
X130279318Y-112822394D01*
X130279321Y-112822393D01*
X130447525Y-112766657D01*
X130598339Y-112673634D01*
X130598345Y-112673629D01*
X130635905Y-112636070D01*
X130698217Y-112602044D01*
X130769032Y-112607109D01*
X130814095Y-112636070D01*
X130851654Y-112673629D01*
X130851660Y-112673634D01*
X131002474Y-112766657D01*
X131170678Y-112822393D01*
X131170681Y-112822394D01*
X131274483Y-112832999D01*
X131274483Y-112833000D01*
X131721000Y-112833000D01*
X132229000Y-112833000D01*
X132675517Y-112833000D01*
X132675516Y-112832999D01*
X132779318Y-112822394D01*
X132779321Y-112822393D01*
X132947525Y-112766657D01*
X133098339Y-112673634D01*
X133098345Y-112673629D01*
X133223629Y-112548345D01*
X133223634Y-112548339D01*
X133316657Y-112397525D01*
X133372393Y-112229321D01*
X133372394Y-112229318D01*
X133382999Y-112125516D01*
X133383000Y-112125516D01*
X135367000Y-112125516D01*
X135377605Y-112229318D01*
X135377606Y-112229321D01*
X135433342Y-112397525D01*
X135526365Y-112548339D01*
X135526370Y-112548345D01*
X135651654Y-112673629D01*
X135651660Y-112673634D01*
X135802474Y-112766657D01*
X135970678Y-112822393D01*
X135970681Y-112822394D01*
X136074483Y-112832999D01*
X136074483Y-112833000D01*
X136521000Y-112833000D01*
X137029000Y-112833000D01*
X137475517Y-112833000D01*
X137475516Y-112832999D01*
X137579318Y-112822394D01*
X137579321Y-112822393D01*
X137747525Y-112766657D01*
X137898339Y-112673634D01*
X137898345Y-112673629D01*
X138023629Y-112548345D01*
X138023634Y-112548339D01*
X138116657Y-112397525D01*
X138172393Y-112229321D01*
X138172394Y-112229318D01*
X138182999Y-112125516D01*
X138183000Y-112125516D01*
X138183000Y-112004000D01*
X137029000Y-112004000D01*
X137029000Y-112833000D01*
X136521000Y-112833000D01*
X136521000Y-112004000D01*
X135367000Y-112004000D01*
X135367000Y-112125516D01*
X133383000Y-112125516D01*
X133383000Y-112004000D01*
X132229000Y-112004000D01*
X132229000Y-112833000D01*
X131721000Y-112833000D01*
X131721000Y-112004000D01*
X129729000Y-112004000D01*
X129729000Y-112833000D01*
X129221000Y-112833000D01*
X129221000Y-111622000D01*
X129241002Y-111553879D01*
X129294658Y-111507386D01*
X129347000Y-111496000D01*
X133383000Y-111496000D01*
X133383000Y-111374483D01*
X133372394Y-111270681D01*
X133372393Y-111270678D01*
X133316657Y-111102474D01*
X133223634Y-110951660D01*
X133223629Y-110951654D01*
X133169770Y-110897795D01*
X133135744Y-110835483D01*
X133140809Y-110764668D01*
X133183356Y-110707832D01*
X133249876Y-110683021D01*
X133258865Y-110682700D01*
X135491135Y-110682700D01*
X135559256Y-110702702D01*
G37*
%TD.AperFunction*%
%TA.AperFunction,Conductor*%
G36*
X154460967Y-109716602D02*
G01*
X154583398Y-109839033D01*
X154720539Y-109938671D01*
X153572503Y-111086706D01*
X153758869Y-111232714D01*
X153758874Y-111232717D01*
X154039228Y-111402197D01*
X154039239Y-111402203D01*
X154065675Y-111414101D01*
X154119585Y-111460298D01*
X154139961Y-111528308D01*
X154120333Y-111596538D01*
X154066934Y-111643324D01*
X154013963Y-111655000D01*
X152504496Y-111655000D01*
X152436375Y-111634998D01*
X152403947Y-111604933D01*
X152390980Y-111587763D01*
X152232309Y-111443115D01*
X152195443Y-111382441D01*
X152197232Y-111311467D01*
X152232309Y-111256885D01*
X152390982Y-111112235D01*
X152438049Y-111049908D01*
X152525058Y-110934689D01*
X152525059Y-110934685D01*
X152525061Y-110934684D01*
X152624225Y-110735537D01*
X152624226Y-110735533D01*
X152624229Y-110735528D01*
X152685115Y-110521536D01*
X152699025Y-110371419D01*
X152725226Y-110305437D01*
X152782943Y-110264093D01*
X152853849Y-110260516D01*
X152915433Y-110295842D01*
X152932316Y-110317863D01*
X153067285Y-110541130D01*
X153213292Y-110727495D01*
X153213293Y-110727496D01*
X154361328Y-109579460D01*
X154460967Y-109716602D01*
G37*
%TD.AperFunction*%
%TA.AperFunction,Conductor*%
G36*
X147861879Y-106047502D02*
G01*
X147906547Y-106097335D01*
X147974942Y-106234689D01*
X147974943Y-106234690D01*
X148109017Y-106412235D01*
X148267690Y-106556885D01*
X148304556Y-106617560D01*
X148302767Y-106688534D01*
X148267690Y-106743115D01*
X148109017Y-106887764D01*
X147974942Y-107065310D01*
X147974938Y-107065315D01*
X147875774Y-107264462D01*
X147875768Y-107264479D01*
X147814885Y-107478460D01*
X147794357Y-107700000D01*
X147814885Y-107921539D01*
X147875768Y-108135520D01*
X147875774Y-108135537D01*
X147974938Y-108334684D01*
X147974942Y-108334689D01*
X148109017Y-108512235D01*
X148273436Y-108662123D01*
X148323099Y-108692873D01*
X148370486Y-108745740D01*
X148381769Y-108815834D01*
X148353365Y-108880901D01*
X148323099Y-108907127D01*
X148273436Y-108937876D01*
X148109017Y-109087764D01*
X147974942Y-109265310D01*
X147974938Y-109265315D01*
X147875774Y-109464462D01*
X147875768Y-109464479D01*
X147814885Y-109678460D01*
X147794357Y-109900000D01*
X147814885Y-110121539D01*
X147875768Y-110335520D01*
X147875774Y-110335537D01*
X147974938Y-110534684D01*
X147974941Y-110534688D01*
X147983460Y-110545969D01*
X148008549Y-110612385D01*
X147993749Y-110681822D01*
X147943757Y-110732234D01*
X147882909Y-110747900D01*
X146900645Y-110747900D01*
X146832524Y-110727898D01*
X146786031Y-110674242D01*
X146775927Y-110603968D01*
X146805421Y-110539388D01*
X146842089Y-110510333D01*
X146850852Y-110505734D01*
X146978183Y-110392929D01*
X147074818Y-110252930D01*
X147075037Y-110252354D01*
X147124647Y-110121539D01*
X147135140Y-110093872D01*
X147146895Y-109997066D01*
X147155645Y-109925002D01*
X147155645Y-109924997D01*
X147135140Y-109756128D01*
X147074820Y-109597074D01*
X147074818Y-109597070D01*
X146978183Y-109457071D01*
X146978181Y-109457069D01*
X146850857Y-109344270D01*
X146850851Y-109344265D01*
X146700225Y-109265210D01*
X146700221Y-109265208D01*
X146535059Y-109224500D01*
X146535056Y-109224500D01*
X146364944Y-109224500D01*
X146364940Y-109224500D01*
X146199770Y-109265211D01*
X146196176Y-109266574D01*
X146193360Y-109266790D01*
X146192374Y-109267034D01*
X146192333Y-109266869D01*
X146125389Y-109272026D01*
X146062892Y-109238342D01*
X146028527Y-109176217D01*
X146025499Y-109148761D01*
X146025499Y-108880140D01*
X146025499Y-108880136D01*
X146022585Y-108855009D01*
X145987652Y-108775893D01*
X145978434Y-108705498D01*
X145987649Y-108674112D01*
X146022585Y-108594991D01*
X146025500Y-108569865D01*
X146025499Y-108080136D01*
X146022585Y-108055009D01*
X145998691Y-108000893D01*
X145989473Y-107930497D01*
X145998691Y-107899105D01*
X146022585Y-107844991D01*
X146025500Y-107819865D01*
X146025499Y-107230136D01*
X146022585Y-107205009D01*
X145988801Y-107128495D01*
X145977206Y-107102234D01*
X145897767Y-107022795D01*
X145897765Y-107022794D01*
X145794989Y-106977414D01*
X145794990Y-106977414D01*
X145769870Y-106974500D01*
X145769865Y-106974500D01*
X145575466Y-106974500D01*
X145507345Y-106954498D01*
X145460852Y-106900842D01*
X145450748Y-106830568D01*
X145480242Y-106765988D01*
X145486371Y-106759404D01*
X145528736Y-106717040D01*
X146181373Y-106064404D01*
X146243685Y-106030379D01*
X146270468Y-106027500D01*
X147793758Y-106027500D01*
X147861879Y-106047502D01*
G37*
%TD.AperFunction*%
%TA.AperFunction,Conductor*%
G36*
X132256212Y-105846663D02*
G01*
X132262795Y-105852792D01*
X136073408Y-109663405D01*
X136107434Y-109725717D01*
X136102369Y-109796532D01*
X136059822Y-109853368D01*
X135993302Y-109878179D01*
X135984313Y-109878500D01*
X133538269Y-109878500D01*
X133470148Y-109858498D01*
X133423655Y-109804842D01*
X133413551Y-109734568D01*
X133431028Y-109686353D01*
X133516657Y-109547525D01*
X133572393Y-109379321D01*
X133572394Y-109379318D01*
X133582999Y-109275516D01*
X133583000Y-109275516D01*
X133583000Y-108829000D01*
X132372000Y-108829000D01*
X132303879Y-108808998D01*
X132257386Y-108755342D01*
X132246000Y-108703000D01*
X132246000Y-108321000D01*
X132754000Y-108321000D01*
X133583000Y-108321000D01*
X133583000Y-107874483D01*
X133572394Y-107770681D01*
X133572393Y-107770678D01*
X133516657Y-107602474D01*
X133423634Y-107451660D01*
X133423629Y-107451654D01*
X133298345Y-107326370D01*
X133298339Y-107326365D01*
X133147525Y-107233342D01*
X132979321Y-107177606D01*
X132979318Y-107177605D01*
X132875516Y-107167000D01*
X132754000Y-107167000D01*
X132754000Y-108321000D01*
X132246000Y-108321000D01*
X132246000Y-107167000D01*
X132173700Y-107167000D01*
X132105579Y-107146998D01*
X132059086Y-107093342D01*
X132047700Y-107041000D01*
X132047700Y-105941887D01*
X132067702Y-105873766D01*
X132121358Y-105827273D01*
X132191632Y-105817169D01*
X132256212Y-105846663D01*
G37*
%TD.AperFunction*%
%TA.AperFunction,Conductor*%
G36*
X142868059Y-93422102D02*
G01*
X142889033Y-93439005D01*
X142952232Y-93502204D01*
X142952234Y-93502205D01*
X142952235Y-93502206D01*
X143055009Y-93547585D01*
X143055008Y-93547585D01*
X143059478Y-93548103D01*
X143080135Y-93550500D01*
X143454654Y-93550499D01*
X143522774Y-93570501D01*
X143543749Y-93587404D01*
X145678099Y-95721755D01*
X145678104Y-95721759D01*
X145678106Y-95721761D01*
X145678107Y-95721762D01*
X145678109Y-95721763D01*
X145711441Y-95741007D01*
X145732021Y-95752889D01*
X145769795Y-95774698D01*
X145872062Y-95802100D01*
X145872063Y-95802100D01*
X145977938Y-95802100D01*
X147781110Y-95802100D01*
X147849231Y-95822102D01*
X147893900Y-95871937D01*
X147974938Y-96034684D01*
X147974942Y-96034689D01*
X148109017Y-96212235D01*
X148273438Y-96362124D01*
X148273439Y-96362125D01*
X148462587Y-96479240D01*
X148462590Y-96479241D01*
X148462599Y-96479247D01*
X148529519Y-96505172D01*
X148670053Y-96559616D01*
X148670056Y-96559616D01*
X148670060Y-96559618D01*
X148750923Y-96574734D01*
X148814206Y-96606912D01*
X148850048Y-96668197D01*
X148847067Y-96739131D01*
X148816863Y-96787683D01*
X141360541Y-104244007D01*
X138887509Y-106717039D01*
X138866672Y-106737876D01*
X138807916Y-106796631D01*
X138807912Y-106796636D01*
X138751635Y-106894110D01*
X138751634Y-106894113D01*
X138751633Y-106894115D01*
X138722500Y-107002843D01*
X138722500Y-107002844D01*
X138722500Y-107661165D01*
X138702498Y-107729286D01*
X138680054Y-107755476D01*
X138621819Y-107807068D01*
X138621816Y-107807071D01*
X138525181Y-107947070D01*
X138525179Y-107947074D01*
X138464859Y-108106128D01*
X138444355Y-108274997D01*
X138444355Y-108275003D01*
X138457797Y-108385713D01*
X138446152Y-108455748D01*
X138398491Y-108508369D01*
X138332716Y-108526900D01*
X138055838Y-108526900D01*
X137987717Y-108506898D01*
X137966743Y-108489995D01*
X136062776Y-106586028D01*
X136028750Y-106523716D01*
X136026790Y-106481743D01*
X136030645Y-106449999D01*
X136030645Y-106449997D01*
X136010140Y-106281128D01*
X135949820Y-106122074D01*
X135949818Y-106122070D01*
X135853183Y-105982071D01*
X135853181Y-105982069D01*
X135725857Y-105869270D01*
X135725851Y-105869265D01*
X135575225Y-105790210D01*
X135575221Y-105790208D01*
X135410059Y-105749500D01*
X135410056Y-105749500D01*
X135239944Y-105749500D01*
X135239940Y-105749500D01*
X135074778Y-105790208D01*
X135074774Y-105790210D01*
X134924148Y-105869265D01*
X134924142Y-105869270D01*
X134796818Y-105982069D01*
X134796817Y-105982070D01*
X134761828Y-106032760D01*
X134706669Y-106077459D01*
X134636100Y-106085241D01*
X134572526Y-106053635D01*
X134569038Y-106050278D01*
X134134204Y-105615445D01*
X134100179Y-105553132D01*
X134098218Y-105511160D01*
X134102841Y-105473095D01*
X134105645Y-105450000D01*
X134095775Y-105368717D01*
X134085140Y-105281128D01*
X134024820Y-105122074D01*
X134024818Y-105122070D01*
X133928183Y-104982071D01*
X133928181Y-104982069D01*
X133800857Y-104869270D01*
X133800851Y-104869265D01*
X133643476Y-104786668D01*
X133644803Y-104784139D01*
X133598824Y-104749317D01*
X133574386Y-104682659D01*
X133578405Y-104641766D01*
X133600500Y-104559309D01*
X133600500Y-104440691D01*
X133569799Y-104326114D01*
X133562227Y-104312999D01*
X133545489Y-104244007D01*
X133562227Y-104187000D01*
X133569799Y-104173886D01*
X133600500Y-104059309D01*
X133600500Y-103940691D01*
X133569799Y-103826114D01*
X133562227Y-103812999D01*
X133545489Y-103744007D01*
X133562227Y-103687000D01*
X133569799Y-103673886D01*
X133600500Y-103559309D01*
X133600500Y-103551500D01*
X133620502Y-103483379D01*
X133674158Y-103436886D01*
X133726500Y-103425500D01*
X135381562Y-103425500D01*
X135449683Y-103445502D01*
X135470657Y-103462405D01*
X135683142Y-103674890D01*
X135717168Y-103737202D01*
X135715237Y-103798466D01*
X135664244Y-103977686D01*
X135644571Y-104190000D01*
X135664244Y-104402311D01*
X135722593Y-104607384D01*
X135722594Y-104607386D01*
X135722595Y-104607389D01*
X135817634Y-104798255D01*
X135946128Y-104968407D01*
X135946129Y-104968408D01*
X136103699Y-105112053D01*
X136103701Y-105112054D01*
X136284974Y-105224294D01*
X136284975Y-105224294D01*
X136284981Y-105224298D01*
X136483802Y-105301321D01*
X136693390Y-105340500D01*
X136693393Y-105340500D01*
X136906607Y-105340500D01*
X136906610Y-105340500D01*
X137116198Y-105301321D01*
X137315019Y-105224298D01*
X137496302Y-105112052D01*
X137653872Y-104968407D01*
X137782366Y-104798255D01*
X137877405Y-104607389D01*
X137935756Y-104402310D01*
X137955429Y-104190000D01*
X137935756Y-103977690D01*
X137877405Y-103772611D01*
X137782366Y-103581745D01*
X137653872Y-103411593D01*
X137560104Y-103326111D01*
X137496300Y-103267946D01*
X137496298Y-103267945D01*
X137315025Y-103155705D01*
X137315021Y-103155703D01*
X137315019Y-103155702D01*
X137116198Y-103078679D01*
X136929902Y-103043854D01*
X136866618Y-103011676D01*
X136830776Y-102950391D01*
X136833757Y-102879457D01*
X136874615Y-102821395D01*
X136929901Y-102796145D01*
X137116198Y-102761321D01*
X137315019Y-102684298D01*
X137496302Y-102572052D01*
X137653872Y-102428407D01*
X137782366Y-102258255D01*
X137877405Y-102067389D01*
X137935756Y-101862310D01*
X137955429Y-101650000D01*
X137935756Y-101437690D01*
X137877405Y-101232611D01*
X137782366Y-101041745D01*
X137653872Y-100871593D01*
X137608626Y-100830345D01*
X137496300Y-100727946D01*
X137496298Y-100727945D01*
X137452985Y-100701127D01*
X137405598Y-100648260D01*
X137394315Y-100578166D01*
X137422719Y-100513099D01*
X137481792Y-100473717D01*
X137519316Y-100468000D01*
X137698585Y-100468000D01*
X137698597Y-100467999D01*
X137759093Y-100461494D01*
X137895964Y-100410444D01*
X137895965Y-100410444D01*
X138012904Y-100322904D01*
X138100444Y-100205965D01*
X138100444Y-100205964D01*
X138151494Y-100069093D01*
X138157999Y-100008597D01*
X138158000Y-100008585D01*
X138158000Y-99364000D01*
X137230703Y-99364000D01*
X137265925Y-99302993D01*
X137300000Y-99175826D01*
X137300000Y-99044174D01*
X137265925Y-98917007D01*
X137230703Y-98856000D01*
X138158000Y-98856000D01*
X138158000Y-98211414D01*
X138157999Y-98211402D01*
X138151494Y-98150906D01*
X138100444Y-98014035D01*
X138100444Y-98014034D01*
X138012904Y-97897095D01*
X137895965Y-97809555D01*
X137759093Y-97758505D01*
X137698597Y-97752000D01*
X137054000Y-97752000D01*
X137054000Y-98679297D01*
X136992993Y-98644075D01*
X136865826Y-98610000D01*
X136734174Y-98610000D01*
X136607007Y-98644075D01*
X136546000Y-98679297D01*
X136546000Y-97752000D01*
X135901402Y-97752000D01*
X135840906Y-97758505D01*
X135704035Y-97809555D01*
X135704034Y-97809555D01*
X135587095Y-97897095D01*
X135499555Y-98014034D01*
X135499555Y-98014035D01*
X135448505Y-98150906D01*
X135442000Y-98211402D01*
X135442000Y-98856000D01*
X136369297Y-98856000D01*
X136334075Y-98917007D01*
X136300000Y-99044174D01*
X136300000Y-99175826D01*
X136334075Y-99302993D01*
X136369297Y-99364000D01*
X135442000Y-99364000D01*
X135442000Y-100008597D01*
X135448505Y-100069093D01*
X135499555Y-100205964D01*
X135499555Y-100205965D01*
X135587095Y-100322904D01*
X135704034Y-100410444D01*
X135840906Y-100461494D01*
X135901402Y-100467999D01*
X135901415Y-100468000D01*
X136080684Y-100468000D01*
X136148805Y-100488002D01*
X136195298Y-100541658D01*
X136205402Y-100611932D01*
X136175908Y-100676512D01*
X136147015Y-100701127D01*
X136103701Y-100727945D01*
X136103699Y-100727946D01*
X135946128Y-100871592D01*
X135946124Y-100871597D01*
X135830706Y-101024433D01*
X135773692Y-101066740D01*
X135730157Y-101074500D01*
X133726500Y-101074500D01*
X133658379Y-101054498D01*
X133611886Y-101000842D01*
X133600500Y-100948500D01*
X133600500Y-100940692D01*
X133595808Y-100923181D01*
X133569799Y-100826114D01*
X133562227Y-100812999D01*
X133545489Y-100744007D01*
X133562227Y-100687000D01*
X133569799Y-100673886D01*
X133600500Y-100559309D01*
X133600500Y-100440691D01*
X133569799Y-100326114D01*
X133562227Y-100312999D01*
X133545489Y-100244007D01*
X133562227Y-100187000D01*
X133569799Y-100173886D01*
X133600500Y-100059309D01*
X133600500Y-99940691D01*
X133569799Y-99826114D01*
X133569798Y-99826113D01*
X133567661Y-99818136D01*
X133569768Y-99817571D01*
X133563402Y-99758429D01*
X133595172Y-99694938D01*
X133598276Y-99691719D01*
X134486150Y-98803848D01*
X134539087Y-98712158D01*
X134566489Y-98609891D01*
X134566489Y-97858134D01*
X134586491Y-97790013D01*
X134603394Y-97769039D01*
X138933429Y-93439005D01*
X138995741Y-93404979D01*
X139022524Y-93402100D01*
X142799938Y-93402100D01*
X142868059Y-93422102D01*
G37*
%TD.AperFunction*%
%TA.AperFunction,Conductor*%
G36*
X154754000Y-101176518D02*
G01*
X154586572Y-101150000D01*
X154413428Y-101150000D01*
X154246000Y-101176518D01*
X154246000Y-99823481D01*
X154413428Y-99850000D01*
X154586572Y-99850000D01*
X154754000Y-99823481D01*
X154754000Y-101176518D01*
G37*
%TD.AperFunction*%
%TA.AperFunction,Conductor*%
G36*
X157032342Y-96165002D02*
G01*
X157053316Y-96181905D01*
X157768095Y-96896684D01*
X157802121Y-96958996D01*
X157805000Y-96985779D01*
X157805000Y-107457300D01*
X157784998Y-107525421D01*
X157731342Y-107571914D01*
X157661068Y-107582018D01*
X157596488Y-107552524D01*
X157571172Y-107522485D01*
X157532717Y-107458874D01*
X157532714Y-107458869D01*
X157386706Y-107272503D01*
X157386705Y-107272502D01*
X156238670Y-108420538D01*
X156139033Y-108283398D01*
X156016602Y-108160967D01*
X155879461Y-108061329D01*
X157027496Y-106913293D01*
X157027495Y-106913292D01*
X156841130Y-106767285D01*
X156841125Y-106767282D01*
X156560772Y-106597803D01*
X156262024Y-106463348D01*
X155949247Y-106365882D01*
X155949238Y-106365880D01*
X155627010Y-106306830D01*
X155627007Y-106306829D01*
X155300001Y-106287050D01*
X155299999Y-106287050D01*
X154972992Y-106306829D01*
X154972989Y-106306830D01*
X154650761Y-106365880D01*
X154650752Y-106365882D01*
X154337975Y-106463348D01*
X154039227Y-106597803D01*
X153758877Y-106767280D01*
X153572502Y-106913293D01*
X154720538Y-108061329D01*
X154583398Y-108160967D01*
X154460967Y-108283398D01*
X154361329Y-108420538D01*
X153213293Y-107272502D01*
X153067280Y-107458877D01*
X152932315Y-107682137D01*
X152879957Y-107730085D01*
X152809986Y-107742115D01*
X152744620Y-107714406D01*
X152704611Y-107655756D01*
X152699025Y-107628584D01*
X152685115Y-107478464D01*
X152674353Y-107440641D01*
X152624231Y-107264479D01*
X152624225Y-107264462D01*
X152525061Y-107065315D01*
X152525057Y-107065310D01*
X152390984Y-106887767D01*
X152343257Y-106844258D01*
X152306391Y-106783583D01*
X152304403Y-106763613D01*
X151584123Y-106043333D01*
X151673694Y-106019333D01*
X151776306Y-105960090D01*
X151860090Y-105876306D01*
X151919333Y-105773694D01*
X151943333Y-105684124D01*
X152659200Y-106399991D01*
X152659202Y-106399991D01*
X152742544Y-106272427D01*
X152836273Y-106058747D01*
X152836275Y-106058743D01*
X152893555Y-105832549D01*
X152912825Y-105600000D01*
X152893555Y-105367450D01*
X152836275Y-105141256D01*
X152836273Y-105141252D01*
X152742544Y-104927572D01*
X152659201Y-104800007D01*
X151943333Y-105515875D01*
X151919333Y-105426306D01*
X151860090Y-105323694D01*
X151776306Y-105239910D01*
X151673694Y-105180667D01*
X151584123Y-105156666D01*
X152301319Y-104439470D01*
X152272740Y-104417227D01*
X152067525Y-104306172D01*
X152067522Y-104306170D01*
X151846832Y-104230407D01*
X151846823Y-104230405D01*
X151616666Y-104192000D01*
X151383334Y-104192000D01*
X151153176Y-104230405D01*
X151153167Y-104230407D01*
X150932477Y-104306170D01*
X150932474Y-104306172D01*
X150727251Y-104417232D01*
X150669825Y-104461929D01*
X150603783Y-104487985D01*
X150534137Y-104474199D01*
X150503342Y-104451594D01*
X150133863Y-104082115D01*
X150133861Y-104082114D01*
X150133859Y-104082112D01*
X150036841Y-104026099D01*
X150036838Y-104026098D01*
X150036837Y-104026097D01*
X150036835Y-104026096D01*
X150036834Y-104026096D01*
X150007836Y-104018326D01*
X149928618Y-103997100D01*
X146683418Y-103997100D01*
X146571381Y-103997100D01*
X146513389Y-104012638D01*
X146463165Y-104026096D01*
X146463158Y-104026099D01*
X146366140Y-104082112D01*
X146366130Y-104082120D01*
X143510655Y-106937595D01*
X143448343Y-106971621D01*
X143421560Y-106974500D01*
X143080140Y-106974500D01*
X143080133Y-106974501D01*
X143055009Y-106977414D01*
X143055005Y-106977416D01*
X142952235Y-107022793D01*
X142934029Y-107041000D01*
X142912432Y-107062596D01*
X142850124Y-107096620D01*
X142823339Y-107099500D01*
X140914007Y-107099500D01*
X140801970Y-107099500D01*
X140717768Y-107122062D01*
X140717767Y-107122061D01*
X140693758Y-107128495D01*
X140693753Y-107128496D01*
X140693752Y-107128497D01*
X140693751Y-107128497D01*
X140693747Y-107128499D01*
X140596729Y-107184512D01*
X140596725Y-107184516D01*
X139905961Y-107875278D01*
X139843649Y-107909303D01*
X139772833Y-107904238D01*
X139715998Y-107861691D01*
X139713185Y-107857781D01*
X139678183Y-107807071D01*
X139667230Y-107797367D01*
X139619946Y-107755476D01*
X139582221Y-107695332D01*
X139577500Y-107661165D01*
X139577500Y-107288390D01*
X139597502Y-107220269D01*
X139614405Y-107199295D01*
X148317701Y-98496000D01*
X151808113Y-98496000D01*
X153426518Y-98496000D01*
X153400000Y-98663428D01*
X153400000Y-98836572D01*
X153426518Y-99004000D01*
X151808113Y-99004000D01*
X151826355Y-99142574D01*
X151826356Y-99142577D01*
X151894484Y-99396835D01*
X151995216Y-99640023D01*
X151995221Y-99640034D01*
X152126823Y-99867975D01*
X152287066Y-100076807D01*
X152287075Y-100076818D01*
X152473181Y-100262924D01*
X152473201Y-100262941D01*
X152651867Y-100400038D01*
X152693734Y-100457376D01*
X152697956Y-100528247D01*
X152663192Y-100590150D01*
X152651867Y-100599962D01*
X152473201Y-100737058D01*
X152473181Y-100737075D01*
X152287075Y-100923181D01*
X152287066Y-100923192D01*
X152126823Y-101132024D01*
X151995221Y-101359965D01*
X151995216Y-101359976D01*
X151894484Y-101603164D01*
X151826356Y-101857422D01*
X151826355Y-101857425D01*
X151808113Y-101996000D01*
X153426518Y-101996000D01*
X153400000Y-102163428D01*
X153400000Y-102336572D01*
X153426518Y-102504000D01*
X151808113Y-102504000D01*
X151826355Y-102642574D01*
X151826356Y-102642577D01*
X151894484Y-102896835D01*
X151995216Y-103140023D01*
X151995221Y-103140034D01*
X152126823Y-103367975D01*
X152287066Y-103576807D01*
X152287075Y-103576818D01*
X152473181Y-103762924D01*
X152473192Y-103762933D01*
X152682024Y-103923176D01*
X152909965Y-104054778D01*
X152909976Y-104054783D01*
X153153164Y-104155515D01*
X153407424Y-104223644D01*
X153668386Y-104257999D01*
X153668396Y-104258000D01*
X154246000Y-104258000D01*
X154246000Y-103323481D01*
X154413428Y-103350000D01*
X154586572Y-103350000D01*
X154754000Y-103323481D01*
X154754000Y-104258000D01*
X155331604Y-104258000D01*
X155331613Y-104257999D01*
X155592575Y-104223644D01*
X155846835Y-104155515D01*
X156090023Y-104054783D01*
X156090034Y-104054778D01*
X156317975Y-103923176D01*
X156526807Y-103762933D01*
X156526818Y-103762924D01*
X156712924Y-103576818D01*
X156712933Y-103576807D01*
X156873176Y-103367975D01*
X157004778Y-103140034D01*
X157004783Y-103140023D01*
X157105515Y-102896835D01*
X157173643Y-102642577D01*
X157173644Y-102642574D01*
X157191887Y-102504000D01*
X155573482Y-102504000D01*
X155600000Y-102336572D01*
X155600000Y-102163428D01*
X155573482Y-101996000D01*
X157191887Y-101996000D01*
X157173644Y-101857425D01*
X157173643Y-101857422D01*
X157105515Y-101603164D01*
X157004783Y-101359976D01*
X157004778Y-101359965D01*
X156873176Y-101132024D01*
X156712933Y-100923192D01*
X156712924Y-100923181D01*
X156526818Y-100737075D01*
X156526807Y-100737066D01*
X156348131Y-100599963D01*
X156306264Y-100542625D01*
X156302042Y-100471754D01*
X156336806Y-100409851D01*
X156348131Y-100400037D01*
X156526807Y-100262933D01*
X156526818Y-100262924D01*
X156712924Y-100076818D01*
X156712933Y-100076807D01*
X156873176Y-99867975D01*
X157004778Y-99640034D01*
X157004783Y-99640023D01*
X157105515Y-99396835D01*
X157173643Y-99142577D01*
X157173644Y-99142574D01*
X157191887Y-99004000D01*
X155573482Y-99004000D01*
X155600000Y-98836572D01*
X155600000Y-98663428D01*
X155573482Y-98496000D01*
X157191887Y-98496000D01*
X157173644Y-98357425D01*
X157173643Y-98357422D01*
X157105515Y-98103164D01*
X157004783Y-97859976D01*
X157004778Y-97859965D01*
X156873176Y-97632024D01*
X156712933Y-97423192D01*
X156712924Y-97423181D01*
X156526818Y-97237075D01*
X156526807Y-97237066D01*
X156317975Y-97076823D01*
X156090034Y-96945221D01*
X156090023Y-96945216D01*
X155846835Y-96844484D01*
X155592575Y-96776355D01*
X155331613Y-96742000D01*
X154754000Y-96742000D01*
X154754000Y-97676518D01*
X154586572Y-97650000D01*
X154413428Y-97650000D01*
X154246000Y-97676518D01*
X154246000Y-96742000D01*
X153668386Y-96742000D01*
X153407424Y-96776355D01*
X153153164Y-96844484D01*
X152909976Y-96945216D01*
X152909965Y-96945221D01*
X152682024Y-97076823D01*
X152473192Y-97237066D01*
X152473181Y-97237075D01*
X152287075Y-97423181D01*
X152287066Y-97423192D01*
X152126823Y-97632024D01*
X151995221Y-97859965D01*
X151995216Y-97859976D01*
X151894484Y-98103164D01*
X151826356Y-98357422D01*
X151826355Y-98357425D01*
X151808113Y-98496000D01*
X148317701Y-98496000D01*
X150519996Y-96293705D01*
X150582308Y-96259679D01*
X150653123Y-96264744D01*
X150693977Y-96289686D01*
X150773432Y-96362120D01*
X150773439Y-96362125D01*
X150962587Y-96479240D01*
X150962590Y-96479241D01*
X150962599Y-96479247D01*
X151029519Y-96505172D01*
X151170053Y-96559616D01*
X151170056Y-96559616D01*
X151170060Y-96559618D01*
X151388757Y-96600500D01*
X151388760Y-96600500D01*
X151611240Y-96600500D01*
X151611243Y-96600500D01*
X151829940Y-96559618D01*
X151829944Y-96559616D01*
X151829946Y-96559616D01*
X151883298Y-96538946D01*
X152037401Y-96479247D01*
X152226562Y-96362124D01*
X152390981Y-96212236D01*
X152398876Y-96201780D01*
X152403947Y-96195067D01*
X152460961Y-96152760D01*
X152504496Y-96145000D01*
X156964221Y-96145000D01*
X157032342Y-96165002D01*
G37*
%TD.AperFunction*%
%TA.AperFunction,Conductor*%
G36*
X114780000Y-106979493D02*
G01*
X114780000Y-107160507D01*
X114805895Y-107324000D01*
X111374105Y-107324000D01*
X111400000Y-107160507D01*
X111400000Y-106979493D01*
X111374105Y-106816000D01*
X114805895Y-106816000D01*
X114780000Y-106979493D01*
G37*
%TD.AperFunction*%
%TA.AperFunction,Conductor*%
G36*
X110785299Y-97765002D02*
G01*
X110806269Y-97781901D01*
X110840345Y-97815977D01*
X111012402Y-97930941D01*
X111203580Y-98010130D01*
X111406535Y-98050500D01*
X111406536Y-98050500D01*
X113113464Y-98050500D01*
X113113465Y-98050500D01*
X113316420Y-98010130D01*
X113507598Y-97930941D01*
X113679655Y-97815977D01*
X113713727Y-97781904D01*
X113776037Y-97747880D01*
X113802822Y-97745000D01*
X114557154Y-97745000D01*
X114625275Y-97765002D01*
X114671768Y-97818658D01*
X114681872Y-97888932D01*
X114652378Y-97953512D01*
X114646250Y-97960095D01*
X114128105Y-98478240D01*
X114101089Y-98505256D01*
X114053238Y-98553106D01*
X114000304Y-98644790D01*
X114000302Y-98644795D01*
X113981758Y-98714005D01*
X113980736Y-98717818D01*
X113943784Y-98778440D01*
X113879923Y-98809462D01*
X113809429Y-98801033D01*
X113769934Y-98774301D01*
X113679662Y-98684029D01*
X113679656Y-98684024D01*
X113679655Y-98684023D01*
X113507598Y-98569059D01*
X113316420Y-98489870D01*
X113257952Y-98478240D01*
X113113467Y-98449500D01*
X113113465Y-98449500D01*
X111406535Y-98449500D01*
X111406532Y-98449500D01*
X111203579Y-98489870D01*
X111203574Y-98489872D01*
X111012402Y-98569059D01*
X110840343Y-98684024D01*
X110840337Y-98684029D01*
X110694029Y-98830337D01*
X110694024Y-98830343D01*
X110579059Y-99002402D01*
X110499872Y-99193574D01*
X110499870Y-99193579D01*
X110459500Y-99396532D01*
X110459500Y-99603467D01*
X110477048Y-99691687D01*
X110499870Y-99806420D01*
X110579059Y-99997598D01*
X110643387Y-100093872D01*
X110694024Y-100169656D01*
X110694029Y-100169662D01*
X110840337Y-100315970D01*
X110840343Y-100315975D01*
X110840345Y-100315977D01*
X110928225Y-100374696D01*
X110958964Y-100395235D01*
X111004492Y-100449712D01*
X111013340Y-100520155D01*
X110982699Y-100584199D01*
X110958964Y-100604765D01*
X110840343Y-100684024D01*
X110840337Y-100684029D01*
X110694029Y-100830337D01*
X110694024Y-100830343D01*
X110579059Y-101002402D01*
X110499872Y-101193574D01*
X110499870Y-101193579D01*
X110459500Y-101396532D01*
X110459500Y-101603467D01*
X110499748Y-101805807D01*
X110499870Y-101806420D01*
X110579059Y-101997598D01*
X110694023Y-102169655D01*
X110694024Y-102169656D01*
X110694029Y-102169662D01*
X110840337Y-102315970D01*
X110840343Y-102315975D01*
X110840345Y-102315977D01*
X111012402Y-102430941D01*
X111203580Y-102510130D01*
X111252462Y-102519853D01*
X111315370Y-102552759D01*
X111350503Y-102614453D01*
X111346703Y-102685348D01*
X111305178Y-102742935D01*
X111247594Y-102767879D01*
X111215418Y-102772975D01*
X111215418Y-102772976D01*
X111027097Y-102834165D01*
X110850660Y-102924064D01*
X110690465Y-103040453D01*
X110690462Y-103040455D01*
X110550455Y-103180462D01*
X110550453Y-103180465D01*
X110434064Y-103340660D01*
X110344165Y-103517097D01*
X110282975Y-103705420D01*
X110276547Y-103746000D01*
X112529297Y-103746000D01*
X112494075Y-103807007D01*
X112460000Y-103934174D01*
X112460000Y-104065826D01*
X112494075Y-104192993D01*
X112529297Y-104254000D01*
X110276548Y-104254000D01*
X110282975Y-104294579D01*
X110344165Y-104482902D01*
X110434064Y-104659339D01*
X110479936Y-104722476D01*
X110503794Y-104789343D01*
X110504000Y-104796537D01*
X110504000Y-105945894D01*
X110340507Y-105920000D01*
X110159493Y-105920000D01*
X109996000Y-105945894D01*
X109996000Y-104812000D01*
X109352000Y-104812000D01*
X109058548Y-104850633D01*
X108772632Y-104927244D01*
X108499167Y-105040517D01*
X108499156Y-105040522D01*
X108242825Y-105188515D01*
X108100804Y-105297493D01*
X108034584Y-105323094D01*
X107965035Y-105308829D01*
X107914239Y-105259228D01*
X107898100Y-105197531D01*
X107898100Y-100557679D01*
X107918102Y-100489558D01*
X107935005Y-100468584D01*
X110621684Y-97781905D01*
X110683996Y-97747879D01*
X110710779Y-97745000D01*
X110717178Y-97745000D01*
X110785299Y-97765002D01*
G37*
%TD.AperFunction*%
%TA.AperFunction,Conductor*%
G36*
X128507682Y-103158302D02*
G01*
X128528656Y-103175205D01*
X129087324Y-103733873D01*
X129121350Y-103796185D01*
X129116285Y-103867000D01*
X129101928Y-103894540D01*
X129100183Y-103897066D01*
X129100179Y-103897075D01*
X129039859Y-104056128D01*
X129019355Y-104224997D01*
X129019355Y-104225002D01*
X129039859Y-104393871D01*
X129100179Y-104552925D01*
X129100181Y-104552929D01*
X129140498Y-104611337D01*
X129196817Y-104692929D01*
X129237746Y-104729189D01*
X129275471Y-104789331D01*
X129274691Y-104860324D01*
X129235654Y-104919625D01*
X129170753Y-104948407D01*
X129154192Y-104949500D01*
X129090691Y-104949500D01*
X128976114Y-104980201D01*
X128976113Y-104980201D01*
X128976111Y-104980202D01*
X128962998Y-104987773D01*
X128894002Y-105004509D01*
X128837002Y-104987773D01*
X128823888Y-104980202D01*
X128823887Y-104980201D01*
X128823886Y-104980201D01*
X128709309Y-104949500D01*
X128590691Y-104949500D01*
X128476114Y-104980201D01*
X128476113Y-104980201D01*
X128476111Y-104980202D01*
X128462998Y-104987773D01*
X128394002Y-105004509D01*
X128337002Y-104987773D01*
X128323888Y-104980202D01*
X128323887Y-104980201D01*
X128323886Y-104980201D01*
X128209309Y-104949500D01*
X128090691Y-104949500D01*
X127976114Y-104980201D01*
X127976113Y-104980201D01*
X127976111Y-104980202D01*
X127962998Y-104987773D01*
X127894002Y-105004509D01*
X127837002Y-104987773D01*
X127823888Y-104980202D01*
X127823887Y-104980201D01*
X127823886Y-104980201D01*
X127709309Y-104949500D01*
X127590691Y-104949500D01*
X127566149Y-104956075D01*
X127495173Y-104954386D01*
X127436378Y-104914591D01*
X127408430Y-104849327D01*
X127420204Y-104779313D01*
X127449983Y-104740059D01*
X127503183Y-104692929D01*
X127599818Y-104552930D01*
X127660140Y-104393872D01*
X127669960Y-104312998D01*
X127680645Y-104225002D01*
X127680645Y-104224997D01*
X127660140Y-104056128D01*
X127599820Y-103897074D01*
X127599818Y-103897070D01*
X127503183Y-103757071D01*
X127503181Y-103757069D01*
X127375857Y-103644270D01*
X127375851Y-103644265D01*
X127225225Y-103565210D01*
X127225221Y-103565208D01*
X127148515Y-103546303D01*
X127087160Y-103510580D01*
X127054859Y-103447357D01*
X127061866Y-103376707D01*
X127089569Y-103334873D01*
X127249240Y-103175202D01*
X127311550Y-103141179D01*
X127338333Y-103138300D01*
X128439561Y-103138300D01*
X128507682Y-103158302D01*
G37*
%TD.AperFunction*%
%TA.AperFunction,Conductor*%
G36*
X115114075Y-103807007D02*
G01*
X115080000Y-103934174D01*
X115080000Y-104065826D01*
X115114075Y-104192993D01*
X115149297Y-104254000D01*
X113390703Y-104254000D01*
X113425925Y-104192993D01*
X113460000Y-104065826D01*
X113460000Y-103934174D01*
X113425925Y-103807007D01*
X113390703Y-103746000D01*
X115149297Y-103746000D01*
X115114075Y-103807007D01*
G37*
%TD.AperFunction*%
%TA.AperFunction,Conductor*%
G36*
X127854071Y-99626902D02*
G01*
X127875045Y-99643804D01*
X128553001Y-100321761D01*
X128553002Y-100321762D01*
X128553004Y-100321763D01*
X128644686Y-100374696D01*
X128644688Y-100374696D01*
X128644691Y-100374698D01*
X128746958Y-100402100D01*
X128746959Y-100402100D01*
X128852834Y-100402100D01*
X131473500Y-100402100D01*
X131541621Y-100422102D01*
X131588114Y-100475758D01*
X131599500Y-100528100D01*
X131599500Y-100559307D01*
X131599499Y-100559307D01*
X131607764Y-100590150D01*
X131623334Y-100648260D01*
X131630202Y-100673888D01*
X131637773Y-100687002D01*
X131654509Y-100755998D01*
X131637773Y-100812998D01*
X131630202Y-100826111D01*
X131630201Y-100826113D01*
X131630201Y-100826114D01*
X131618016Y-100871591D01*
X131599500Y-100940692D01*
X131599500Y-101059307D01*
X131599499Y-101059307D01*
X131630202Y-101173888D01*
X131637773Y-101187002D01*
X131654509Y-101255998D01*
X131637773Y-101312998D01*
X131630202Y-101326111D01*
X131630201Y-101326113D01*
X131630201Y-101326114D01*
X131611332Y-101396536D01*
X131599500Y-101440692D01*
X131599500Y-101559307D01*
X131599499Y-101559307D01*
X131599500Y-101559309D01*
X131629714Y-101672070D01*
X131630202Y-101673888D01*
X131637773Y-101687002D01*
X131654509Y-101755998D01*
X131637773Y-101812998D01*
X131630202Y-101826111D01*
X131630201Y-101826113D01*
X131630201Y-101826114D01*
X131603571Y-101925500D01*
X131599500Y-101940692D01*
X131599500Y-102059307D01*
X131599499Y-102059307D01*
X131609055Y-102094970D01*
X131629069Y-102169662D01*
X131630202Y-102173888D01*
X131637773Y-102187002D01*
X131654509Y-102255998D01*
X131637773Y-102312998D01*
X131630202Y-102326111D01*
X131630201Y-102326113D01*
X131630201Y-102326114D01*
X131602792Y-102428408D01*
X131599500Y-102440692D01*
X131599500Y-102559307D01*
X131599499Y-102559307D01*
X131611741Y-102604992D01*
X131629763Y-102672253D01*
X131630202Y-102673888D01*
X131637773Y-102687002D01*
X131654509Y-102755998D01*
X131637773Y-102812998D01*
X131630202Y-102826111D01*
X131630201Y-102826113D01*
X131630201Y-102826114D01*
X131613188Y-102889609D01*
X131599500Y-102940692D01*
X131599500Y-103059307D01*
X131599499Y-103059307D01*
X131611211Y-103103016D01*
X131626025Y-103158302D01*
X131630202Y-103173888D01*
X131637773Y-103187002D01*
X131654509Y-103255998D01*
X131637773Y-103312998D01*
X131630202Y-103326111D01*
X131630201Y-103326113D01*
X131630201Y-103326114D01*
X131603571Y-103425500D01*
X131599500Y-103440692D01*
X131599500Y-103559307D01*
X131599499Y-103559307D01*
X131610377Y-103599901D01*
X131622265Y-103644270D01*
X131630202Y-103673888D01*
X131637773Y-103687002D01*
X131654509Y-103755998D01*
X131637773Y-103812998D01*
X131630199Y-103826115D01*
X131627158Y-103833460D01*
X131582612Y-103888742D01*
X131515249Y-103911165D01*
X131446457Y-103893609D01*
X131421653Y-103874340D01*
X129250554Y-101703240D01*
X129250552Y-101703238D01*
X129158867Y-101650304D01*
X129158864Y-101650303D01*
X129158863Y-101650302D01*
X129158861Y-101650301D01*
X129158860Y-101650301D01*
X129131456Y-101642958D01*
X129056596Y-101622900D01*
X126877937Y-101622900D01*
X126772062Y-101622900D01*
X126717260Y-101637583D01*
X126669797Y-101650301D01*
X126669790Y-101650304D01*
X126584547Y-101699520D01*
X126515552Y-101716258D01*
X126448460Y-101693037D01*
X126417851Y-101661977D01*
X126409792Y-101650302D01*
X126328183Y-101532071D01*
X126225036Y-101440691D01*
X126200857Y-101419270D01*
X126200851Y-101419265D01*
X126050225Y-101340210D01*
X126050221Y-101340208D01*
X125885059Y-101299500D01*
X125885056Y-101299500D01*
X125714944Y-101299500D01*
X125714940Y-101299500D01*
X125549778Y-101340208D01*
X125549774Y-101340210D01*
X125399148Y-101419265D01*
X125399146Y-101419267D01*
X125386487Y-101430482D01*
X125322233Y-101460680D01*
X125251852Y-101451346D01*
X125197691Y-101405443D01*
X125181231Y-101368780D01*
X125169799Y-101326114D01*
X125162227Y-101312999D01*
X125145489Y-101244007D01*
X125162227Y-101187000D01*
X125169799Y-101173886D01*
X125200500Y-101059309D01*
X125200500Y-100940691D01*
X125169799Y-100826114D01*
X125162227Y-100812999D01*
X125145489Y-100744007D01*
X125162227Y-100687000D01*
X125169799Y-100673886D01*
X125197472Y-100570607D01*
X125234422Y-100509987D01*
X125298283Y-100478966D01*
X125368778Y-100487394D01*
X125392269Y-100502279D01*
X125392874Y-100501403D01*
X125399148Y-100505734D01*
X125549775Y-100584790D01*
X125549776Y-100584790D01*
X125549778Y-100584791D01*
X125675191Y-100615702D01*
X125714944Y-100625500D01*
X125714947Y-100625500D01*
X125885053Y-100625500D01*
X125885056Y-100625500D01*
X126050225Y-100584790D01*
X126200852Y-100505734D01*
X126328183Y-100392929D01*
X126424818Y-100252930D01*
X126485140Y-100093872D01*
X126493126Y-100028100D01*
X126495875Y-100005465D01*
X126523942Y-99940252D01*
X126582810Y-99900565D01*
X126590797Y-99898314D01*
X126727625Y-99864590D01*
X126878252Y-99785534D01*
X127005583Y-99672729D01*
X127008854Y-99667989D01*
X127013458Y-99661321D01*
X127068618Y-99616623D01*
X127117152Y-99606900D01*
X127785950Y-99606900D01*
X127854071Y-99626902D01*
G37*
%TD.AperFunction*%
%TA.AperFunction,Conductor*%
G36*
X135655194Y-101945502D02*
G01*
X135701687Y-101999158D01*
X135708263Y-102017018D01*
X135722593Y-102067384D01*
X135722594Y-102067386D01*
X135722595Y-102067389D01*
X135817634Y-102258255D01*
X135939240Y-102419286D01*
X135964329Y-102485699D01*
X135949530Y-102555136D01*
X135899539Y-102605549D01*
X135830229Y-102620932D01*
X135782028Y-102606265D01*
X135781866Y-102606658D01*
X135777845Y-102604992D01*
X135775694Y-102604338D01*
X135774243Y-102603500D01*
X135774239Y-102603498D01*
X135774237Y-102603497D01*
X135774235Y-102603496D01*
X135774234Y-102603496D01*
X135745236Y-102595726D01*
X135666018Y-102574500D01*
X135666016Y-102574500D01*
X133726500Y-102574500D01*
X133658379Y-102554498D01*
X133611886Y-102500842D01*
X133600500Y-102448500D01*
X133600500Y-102440692D01*
X133597887Y-102430940D01*
X133569799Y-102326114D01*
X133562227Y-102312999D01*
X133545489Y-102244007D01*
X133562227Y-102187000D01*
X133569799Y-102173886D01*
X133600500Y-102059309D01*
X133600500Y-102051500D01*
X133620502Y-101983379D01*
X133674158Y-101936886D01*
X133726500Y-101925500D01*
X135587073Y-101925500D01*
X135655194Y-101945502D01*
G37*
%TD.AperFunction*%
%TA.AperFunction,Conductor*%
G36*
X118763855Y-99947502D02*
G01*
X118784824Y-99964400D01*
X120662508Y-101842085D01*
X120705283Y-101866781D01*
X120754276Y-101918163D01*
X120767713Y-101987876D01*
X120741326Y-102053787D01*
X120683494Y-102094970D01*
X120642283Y-102101900D01*
X118106310Y-102101900D01*
X118038189Y-102081898D01*
X117991696Y-102028242D01*
X117981592Y-101957968D01*
X117989899Y-101927686D01*
X118040130Y-101806420D01*
X118080500Y-101603465D01*
X118080500Y-101396535D01*
X118040130Y-101193580D01*
X117960941Y-101002402D01*
X117845977Y-100830345D01*
X117845975Y-100830343D01*
X117845970Y-100830337D01*
X117699662Y-100684029D01*
X117699651Y-100684020D01*
X117581036Y-100604765D01*
X117535508Y-100550289D01*
X117526659Y-100479846D01*
X117557300Y-100415801D01*
X117581036Y-100395235D01*
X117611775Y-100374696D01*
X117699655Y-100315977D01*
X117845977Y-100169655D01*
X117960941Y-99997598D01*
X117960941Y-99997596D01*
X117960944Y-99997593D01*
X117962812Y-99994099D01*
X117964271Y-99992613D01*
X117964380Y-99992451D01*
X117964410Y-99992471D01*
X118012566Y-99943453D01*
X118073931Y-99927500D01*
X118695734Y-99927500D01*
X118763855Y-99947502D01*
G37*
%TD.AperFunction*%
%TA.AperFunction,Conductor*%
G36*
X118289012Y-96858121D02*
G01*
X118295595Y-96864250D01*
X121253103Y-99821759D01*
X121253105Y-99821761D01*
X121302017Y-99850000D01*
X121344795Y-99874698D01*
X121447062Y-99902100D01*
X121552937Y-99902100D01*
X123073500Y-99902100D01*
X123141621Y-99922102D01*
X123188114Y-99975758D01*
X123199500Y-100028100D01*
X123199500Y-100059307D01*
X123199499Y-100059307D01*
X123208761Y-100093872D01*
X123229069Y-100169662D01*
X123230202Y-100173888D01*
X123237773Y-100187002D01*
X123254509Y-100255998D01*
X123237773Y-100312998D01*
X123230202Y-100326111D01*
X123230201Y-100326113D01*
X123230201Y-100326114D01*
X123206170Y-100415801D01*
X123199500Y-100440692D01*
X123199500Y-100471900D01*
X123179498Y-100540021D01*
X123125842Y-100586514D01*
X123073500Y-100597900D01*
X121493745Y-100597900D01*
X121425624Y-100577898D01*
X121404650Y-100560995D01*
X118796896Y-97953240D01*
X118796894Y-97953238D01*
X118705209Y-97900304D01*
X118705206Y-97900303D01*
X118705205Y-97900302D01*
X118705203Y-97900301D01*
X118705202Y-97900301D01*
X118662771Y-97888932D01*
X118602938Y-97872900D01*
X118602936Y-97872900D01*
X117945582Y-97872900D01*
X117877461Y-97852898D01*
X117830968Y-97799242D01*
X117820864Y-97728968D01*
X117844232Y-97675933D01*
X117842538Y-97674801D01*
X117845975Y-97669656D01*
X117845977Y-97669655D01*
X117960941Y-97497598D01*
X118040130Y-97306420D01*
X118080500Y-97103465D01*
X118080500Y-96953345D01*
X118100502Y-96885224D01*
X118154158Y-96838731D01*
X118224432Y-96828627D01*
X118289012Y-96858121D01*
G37*
%TD.AperFunction*%
%TA.AperFunction,Conductor*%
G36*
X133544060Y-96972102D02*
G01*
X133590553Y-97025758D01*
X133600657Y-97096032D01*
X133571163Y-97160612D01*
X133565034Y-97167195D01*
X132353105Y-98379124D01*
X132309568Y-98422661D01*
X132278238Y-98453991D01*
X132259469Y-98486500D01*
X132208087Y-98535493D01*
X132150350Y-98549500D01*
X131990691Y-98549500D01*
X131917696Y-98569059D01*
X131876113Y-98580201D01*
X131773390Y-98639508D01*
X131773380Y-98639516D01*
X131689516Y-98723380D01*
X131689508Y-98723390D01*
X131630201Y-98826113D01*
X131614850Y-98883402D01*
X131603999Y-98923903D01*
X131599500Y-98940692D01*
X131599500Y-99059307D01*
X131599499Y-99059307D01*
X131609840Y-99097900D01*
X131629763Y-99172253D01*
X131630202Y-99173888D01*
X131637773Y-99187002D01*
X131654509Y-99255998D01*
X131637773Y-99312998D01*
X131630202Y-99326111D01*
X131630201Y-99326113D01*
X131630201Y-99326114D01*
X131611333Y-99396532D01*
X131599500Y-99440692D01*
X131599500Y-99471900D01*
X131579498Y-99540021D01*
X131525842Y-99586514D01*
X131473500Y-99597900D01*
X129018643Y-99597900D01*
X128950522Y-99577898D01*
X128929548Y-99560996D01*
X128765084Y-99396532D01*
X128536546Y-99167995D01*
X128502522Y-99105683D01*
X128507586Y-99034868D01*
X128550133Y-98978032D01*
X128616653Y-98953221D01*
X128625642Y-98952900D01*
X129883051Y-98952900D01*
X129883053Y-98952900D01*
X129991272Y-98923903D01*
X130088298Y-98867885D01*
X130393341Y-98562840D01*
X130455651Y-98528817D01*
X130515046Y-98530230D01*
X130590691Y-98550500D01*
X130590692Y-98550500D01*
X130709307Y-98550500D01*
X130709309Y-98550500D01*
X130823886Y-98519799D01*
X130837000Y-98512227D01*
X130905993Y-98495489D01*
X130962999Y-98512227D01*
X130976114Y-98519799D01*
X131090691Y-98550500D01*
X131090693Y-98550500D01*
X131209307Y-98550500D01*
X131209309Y-98550500D01*
X131323886Y-98519799D01*
X131426613Y-98460489D01*
X131510489Y-98376613D01*
X131569799Y-98273886D01*
X131600500Y-98159309D01*
X131600500Y-97795346D01*
X131620502Y-97727225D01*
X131637405Y-97706250D01*
X132354652Y-96989004D01*
X132416964Y-96954979D01*
X132443747Y-96952100D01*
X133475939Y-96952100D01*
X133544060Y-96972102D01*
G37*
%TD.AperFunction*%
%TA.AperFunction,Conductor*%
G36*
X118768107Y-92536915D02*
G01*
X118770252Y-92539011D01*
X124565646Y-98334405D01*
X124599672Y-98396717D01*
X124594607Y-98467532D01*
X124552060Y-98524368D01*
X124485540Y-98549179D01*
X124476551Y-98549500D01*
X123590691Y-98549500D01*
X123517696Y-98569059D01*
X123476113Y-98580201D01*
X123373390Y-98639508D01*
X123373380Y-98639516D01*
X123289516Y-98723380D01*
X123289508Y-98723390D01*
X123230201Y-98826113D01*
X123214850Y-98883402D01*
X123203999Y-98923903D01*
X123199500Y-98940692D01*
X123199500Y-98971900D01*
X123179498Y-99040021D01*
X123125842Y-99086514D01*
X123073500Y-99097900D01*
X121718745Y-99097900D01*
X121650624Y-99077898D01*
X121629650Y-99060995D01*
X118275070Y-95706414D01*
X118241044Y-95644102D01*
X118246109Y-95573286D01*
X118275070Y-95528223D01*
X118381289Y-95422004D01*
X118381301Y-95421991D01*
X118561484Y-95187174D01*
X118709477Y-94930843D01*
X118709482Y-94930832D01*
X118822755Y-94657367D01*
X118899366Y-94371451D01*
X118924044Y-94184000D01*
X117054105Y-94184000D01*
X117080000Y-94020507D01*
X117080000Y-93839493D01*
X117054105Y-93676000D01*
X118924044Y-93676000D01*
X118924044Y-93675999D01*
X118899366Y-93488548D01*
X118822755Y-93202632D01*
X118709482Y-92929167D01*
X118709477Y-92929157D01*
X118572038Y-92691106D01*
X118555300Y-92622111D01*
X118578520Y-92555019D01*
X118634327Y-92511132D01*
X118705002Y-92504383D01*
X118768107Y-92536915D01*
G37*
%TD.AperFunction*%
%TA.AperFunction,Conductor*%
G36*
X107176378Y-94092358D02*
G01*
X107233214Y-94134905D01*
X107257268Y-94193968D01*
X107280633Y-94371452D01*
X107357244Y-94657367D01*
X107470517Y-94930832D01*
X107470522Y-94930843D01*
X107618515Y-95187174D01*
X107798698Y-95421991D01*
X107798717Y-95422012D01*
X108007987Y-95631282D01*
X108008008Y-95631301D01*
X108118062Y-95715748D01*
X108159929Y-95773085D01*
X108164151Y-95843956D01*
X108130454Y-95904805D01*
X107141332Y-96893929D01*
X106153105Y-97882156D01*
X106124294Y-97910967D01*
X106078237Y-97957023D01*
X106035619Y-98030841D01*
X105984236Y-98079834D01*
X105914523Y-98093270D01*
X105848612Y-98066884D01*
X105807430Y-98009051D01*
X105800500Y-97967841D01*
X105800500Y-95416261D01*
X105820502Y-95348140D01*
X105837405Y-95327166D01*
X106435518Y-94729053D01*
X107043253Y-94121317D01*
X107105563Y-94087294D01*
X107176378Y-94092358D01*
G37*
%TD.AperFunction*%
%TA.AperFunction,Conductor*%
G36*
X127519447Y-95715702D02*
G01*
X127565940Y-95769358D01*
X127576486Y-95807181D01*
X127577415Y-95815191D01*
X127577415Y-95815193D01*
X127577416Y-95815194D01*
X127622793Y-95917965D01*
X127702232Y-95997404D01*
X127702234Y-95997405D01*
X127702235Y-95997406D01*
X127805009Y-96042785D01*
X127830135Y-96045700D01*
X128621900Y-96045699D01*
X128690021Y-96065701D01*
X128736514Y-96119357D01*
X128747900Y-96171699D01*
X128747900Y-96295986D01*
X128727898Y-96364107D01*
X128674242Y-96410600D01*
X128603968Y-96420704D01*
X128541967Y-96393386D01*
X128500000Y-96358945D01*
X128458068Y-96367286D01*
X128338320Y-96416888D01*
X128230548Y-96488899D01*
X128229928Y-96489408D01*
X128229539Y-96489572D01*
X128225403Y-96492337D01*
X128224878Y-96491552D01*
X128164580Y-96517158D01*
X128094602Y-96505172D01*
X128074606Y-96492322D01*
X128074597Y-96492337D01*
X128073772Y-96491786D01*
X128070072Y-96489408D01*
X128069451Y-96488899D01*
X127961679Y-96416888D01*
X127841931Y-96367286D01*
X127800000Y-96358945D01*
X127800000Y-96671457D01*
X127783120Y-96734456D01*
X127759120Y-96776026D01*
X127707737Y-96825020D01*
X127638024Y-96838457D01*
X127572113Y-96812070D01*
X127540880Y-96776026D01*
X127516880Y-96734456D01*
X127500000Y-96671457D01*
X127500000Y-96358945D01*
X127458068Y-96367286D01*
X127338320Y-96416888D01*
X127230550Y-96488897D01*
X127230544Y-96488902D01*
X127206852Y-96512595D01*
X127144540Y-96546621D01*
X127117757Y-96549500D01*
X127090691Y-96549500D01*
X126976114Y-96580201D01*
X126976113Y-96580201D01*
X126976111Y-96580202D01*
X126962998Y-96587773D01*
X126894002Y-96604509D01*
X126837002Y-96587773D01*
X126823889Y-96580202D01*
X126823886Y-96580201D01*
X126748073Y-96559886D01*
X126687453Y-96522936D01*
X126656431Y-96459075D01*
X126662875Y-96393501D01*
X126668299Y-96379200D01*
X126710140Y-96268872D01*
X126730645Y-96100000D01*
X126726480Y-96065701D01*
X126710140Y-95931129D01*
X126702426Y-95910786D01*
X126696974Y-95840000D01*
X126730657Y-95777502D01*
X126792782Y-95743136D01*
X126805205Y-95741009D01*
X126850590Y-95735559D01*
X126929388Y-95704485D01*
X126975612Y-95695700D01*
X127451326Y-95695700D01*
X127519447Y-95715702D01*
G37*
%TD.AperFunction*%
%TA.AperFunction,Conductor*%
G36*
X154460967Y-92716602D02*
G01*
X154583398Y-92839033D01*
X154720538Y-92938670D01*
X153572502Y-94086705D01*
X153572503Y-94086706D01*
X153758869Y-94232714D01*
X153758874Y-94232717D01*
X154039228Y-94402197D01*
X154039239Y-94402203D01*
X154065675Y-94414101D01*
X154119585Y-94460298D01*
X154139961Y-94528308D01*
X154120333Y-94596538D01*
X154066934Y-94643324D01*
X154013963Y-94655000D01*
X152504496Y-94655000D01*
X152436375Y-94634998D01*
X152403947Y-94604933D01*
X152390980Y-94587763D01*
X152232309Y-94443115D01*
X152195443Y-94382441D01*
X152197232Y-94311467D01*
X152232309Y-94256885D01*
X152390982Y-94112235D01*
X152431938Y-94058000D01*
X152525058Y-93934689D01*
X152525059Y-93934685D01*
X152525061Y-93934684D01*
X152624225Y-93735537D01*
X152624226Y-93735533D01*
X152624229Y-93735528D01*
X152685115Y-93521536D01*
X152699025Y-93371419D01*
X152725226Y-93305437D01*
X152782943Y-93264093D01*
X152853849Y-93260516D01*
X152915433Y-93295842D01*
X152932316Y-93317863D01*
X153067285Y-93541130D01*
X153213292Y-93727495D01*
X153213293Y-93727496D01*
X154361328Y-92579460D01*
X154460967Y-92716602D01*
G37*
%TD.AperFunction*%
%TA.AperFunction,Conductor*%
G36*
X114780000Y-93839493D02*
G01*
X114780000Y-94020507D01*
X114805895Y-94184000D01*
X111374105Y-94184000D01*
X111400000Y-94020507D01*
X111400000Y-93839493D01*
X111374105Y-93676000D01*
X114805895Y-93676000D01*
X114780000Y-93839493D01*
G37*
%TD.AperFunction*%
%TA.AperFunction,Conductor*%
G36*
X147897930Y-87868102D02*
G01*
X147944423Y-87921758D01*
X147954527Y-87992032D01*
X147942599Y-88030263D01*
X147875774Y-88164463D01*
X147875768Y-88164479D01*
X147814885Y-88378460D01*
X147794357Y-88600000D01*
X147814885Y-88821539D01*
X147875768Y-89035520D01*
X147875774Y-89035537D01*
X147974938Y-89234684D01*
X147974942Y-89234689D01*
X148109017Y-89412235D01*
X148267690Y-89556885D01*
X148304556Y-89617560D01*
X148302767Y-89688534D01*
X148267690Y-89743115D01*
X148109017Y-89887764D01*
X147974942Y-90065310D01*
X147974938Y-90065315D01*
X147875774Y-90264462D01*
X147875768Y-90264479D01*
X147814885Y-90478460D01*
X147794357Y-90700000D01*
X147814885Y-90921539D01*
X147875768Y-91135520D01*
X147875774Y-91135537D01*
X147974938Y-91334684D01*
X147974942Y-91334689D01*
X148109017Y-91512235D01*
X148273436Y-91662123D01*
X148323099Y-91692873D01*
X148370486Y-91745740D01*
X148381769Y-91815834D01*
X148353365Y-91880901D01*
X148323099Y-91907127D01*
X148273436Y-91937876D01*
X148109017Y-92087764D01*
X147974942Y-92265310D01*
X147974938Y-92265315D01*
X147875774Y-92464462D01*
X147875768Y-92464479D01*
X147814885Y-92678460D01*
X147794357Y-92900000D01*
X147814885Y-93121539D01*
X147875768Y-93335520D01*
X147875774Y-93335536D01*
X147942599Y-93469737D01*
X147955059Y-93539631D01*
X147927752Y-93605167D01*
X147869349Y-93645535D01*
X147829809Y-93651900D01*
X146208930Y-93651900D01*
X146140809Y-93631898D01*
X146119835Y-93614995D01*
X146023045Y-93518205D01*
X145989019Y-93455893D01*
X145994084Y-93385078D01*
X145996876Y-93378216D01*
X146001145Y-93368548D01*
X146022585Y-93319991D01*
X146025500Y-93294865D01*
X146025499Y-92705136D01*
X146022585Y-92680009D01*
X146005500Y-92641314D01*
X145998691Y-92625893D01*
X145989473Y-92555497D01*
X145998690Y-92524107D01*
X146022585Y-92469991D01*
X146025500Y-92444865D01*
X146025499Y-91955136D01*
X146022585Y-91930009D01*
X145987652Y-91850893D01*
X145978434Y-91780498D01*
X145987649Y-91749112D01*
X146022585Y-91669991D01*
X146025500Y-91644865D01*
X146025499Y-91155136D01*
X146022585Y-91130009D01*
X146007791Y-91096503D01*
X145998691Y-91075893D01*
X145989473Y-91005497D01*
X145998691Y-90974105D01*
X146022585Y-90919991D01*
X146025500Y-90894865D01*
X146025499Y-90305136D01*
X146022585Y-90280009D01*
X145994438Y-90216261D01*
X145977206Y-90177234D01*
X145897767Y-90097795D01*
X145897765Y-90097794D01*
X145794989Y-90052414D01*
X145794990Y-90052414D01*
X145769870Y-90049500D01*
X145769865Y-90049500D01*
X145078100Y-90049500D01*
X145009979Y-90029498D01*
X144963486Y-89975842D01*
X144952100Y-89923500D01*
X144952100Y-88993745D01*
X144972102Y-88925624D01*
X144989005Y-88904650D01*
X146008651Y-87885005D01*
X146070963Y-87850979D01*
X146097746Y-87848100D01*
X147829809Y-87848100D01*
X147897930Y-87868102D01*
G37*
%TD.AperFunction*%
%TA.AperFunction,Conductor*%
G36*
X152923303Y-87820581D02*
G01*
X152975087Y-87851835D01*
X153262595Y-88139343D01*
X153296621Y-88201655D01*
X153299500Y-88228438D01*
X153299500Y-89571562D01*
X153279498Y-89639683D01*
X153262599Y-89660652D01*
X153009960Y-89913292D01*
X152759542Y-90163710D01*
X152697230Y-90197735D01*
X152626414Y-90192670D01*
X152569579Y-90150123D01*
X152557656Y-90130777D01*
X152556061Y-90127573D01*
X152525058Y-90065311D01*
X152464057Y-89984533D01*
X152390984Y-89887767D01*
X152356024Y-89855897D01*
X152343256Y-89844257D01*
X152306391Y-89783583D01*
X152304403Y-89763613D01*
X151584123Y-89043333D01*
X151673694Y-89019333D01*
X151776306Y-88960090D01*
X151860090Y-88876306D01*
X151919333Y-88773694D01*
X151943333Y-88684123D01*
X152659200Y-89399991D01*
X152659202Y-89399991D01*
X152742544Y-89272427D01*
X152836273Y-89058747D01*
X152836275Y-89058743D01*
X152893555Y-88832549D01*
X152912825Y-88600000D01*
X152893555Y-88367450D01*
X152836275Y-88141256D01*
X152836273Y-88141252D01*
X152770605Y-87991544D01*
X152761558Y-87921126D01*
X152792018Y-87856996D01*
X152852315Y-87819514D01*
X152923303Y-87820581D01*
G37*
%TD.AperFunction*%
%TA.AperFunction,Conductor*%
G36*
X151612283Y-86493102D02*
G01*
X151633257Y-86510005D01*
X152244759Y-87121507D01*
X152278785Y-87183819D01*
X152273720Y-87254634D01*
X152231173Y-87311470D01*
X152164653Y-87336281D01*
X152095696Y-87321416D01*
X152067531Y-87306174D01*
X152067522Y-87306170D01*
X151846832Y-87230407D01*
X151846823Y-87230405D01*
X151616666Y-87192000D01*
X151383334Y-87192000D01*
X151153176Y-87230405D01*
X151153167Y-87230407D01*
X150932477Y-87306170D01*
X150932474Y-87306172D01*
X150727258Y-87417227D01*
X150698680Y-87439469D01*
X150698680Y-87439470D01*
X151415877Y-88156666D01*
X151326306Y-88180667D01*
X151223694Y-88239910D01*
X151139910Y-88323694D01*
X151080667Y-88426306D01*
X151056666Y-88515876D01*
X150752300Y-88211510D01*
X150725805Y-88165611D01*
X150723857Y-88166419D01*
X150720698Y-88158791D01*
X150667760Y-88067102D01*
X150630622Y-88029964D01*
X150592895Y-87992237D01*
X149724898Y-87124240D01*
X149724897Y-87124239D01*
X149713424Y-87117615D01*
X149664431Y-87066231D01*
X149650996Y-86996518D01*
X149658612Y-86963819D01*
X149685140Y-86893872D01*
X149703043Y-86746432D01*
X149705645Y-86725002D01*
X149705645Y-86724996D01*
X149692203Y-86614287D01*
X149703848Y-86544252D01*
X149751509Y-86491631D01*
X149817284Y-86473100D01*
X151544162Y-86473100D01*
X151612283Y-86493102D01*
G37*
%TD.AperFunction*%
%TD*%
%TA.AperFunction,Conductor*%
%TO.N,GND*%
G36*
X159985648Y-81014352D02*
G01*
X160000000Y-81049000D01*
X160000000Y-83999989D01*
X156771863Y-83999989D01*
X156712938Y-83923197D01*
X156712928Y-83923185D01*
X156526814Y-83737071D01*
X156526802Y-83737061D01*
X156317991Y-83576834D01*
X156317976Y-83576824D01*
X156090025Y-83445217D01*
X155846831Y-83344482D01*
X155592593Y-83276359D01*
X155331608Y-83242000D01*
X154754000Y-83242000D01*
X154754000Y-83999989D01*
X154246000Y-83999989D01*
X154246000Y-83242000D01*
X153668392Y-83242000D01*
X153407406Y-83276359D01*
X153153168Y-83344482D01*
X153153167Y-83344482D01*
X152909974Y-83445217D01*
X152682023Y-83576824D01*
X152682008Y-83576834D01*
X152473197Y-83737061D01*
X152473185Y-83737071D01*
X152287071Y-83923185D01*
X152287061Y-83923197D01*
X152228137Y-83999989D01*
X106320800Y-83999989D01*
X106517543Y-83803246D01*
X106336537Y-83679836D01*
X106092384Y-83562259D01*
X106092382Y-83562258D01*
X105833448Y-83482388D01*
X105565489Y-83442000D01*
X105294511Y-83442000D01*
X105026551Y-83482388D01*
X104767617Y-83562258D01*
X104767615Y-83562259D01*
X104523462Y-83679836D01*
X104342454Y-83803245D01*
X104539198Y-83999989D01*
X100000003Y-83999989D01*
X100000003Y-81048992D01*
X100014352Y-81014352D01*
X100049000Y-81000000D01*
X159951000Y-81000000D01*
X159985648Y-81014352D01*
G37*
%TD.AperFunction*%
%TD*%
%TA.AperFunction,Conductor*%
%TO.N,GND*%
G36*
X152287066Y-117076807D02*
G01*
X152287075Y-117076818D01*
X152473181Y-117262924D01*
X152473192Y-117262933D01*
X152682024Y-117423176D01*
X152909965Y-117554778D01*
X152909976Y-117554783D01*
X153153164Y-117655515D01*
X153407424Y-117723644D01*
X153668386Y-117757999D01*
X153668396Y-117758000D01*
X154246000Y-117758000D01*
X154246000Y-116999989D01*
X154754000Y-116999989D01*
X154754000Y-117758000D01*
X155331604Y-117758000D01*
X155331613Y-117757999D01*
X155592575Y-117723644D01*
X155846835Y-117655515D01*
X156090023Y-117554783D01*
X156090034Y-117554778D01*
X156317975Y-117423176D01*
X156526807Y-117262933D01*
X156526818Y-117262924D01*
X156712924Y-117076818D01*
X156712933Y-117076807D01*
X156771878Y-116999989D01*
X160000000Y-116999989D01*
X160000000Y-119874000D01*
X159979998Y-119942121D01*
X159926342Y-119988614D01*
X159874051Y-119999989D01*
X100125963Y-119999989D01*
X100057879Y-119979998D01*
X100011386Y-119926342D01*
X100000003Y-119874013D01*
X100000003Y-116999989D01*
X152228121Y-116999989D01*
X152287066Y-117076807D01*
G37*
%TD.AperFunction*%
%TD*%
M02*
