%TF.GenerationSoftware,KiCad,Pcbnew,8.0.3*%
%TF.CreationDate,2024-07-06T22:04:31-07:00*%
%TF.ProjectId,ps2usb,70733275-7362-42e6-9b69-6361645f7063,rev?*%
%TF.SameCoordinates,Original*%
%TF.FileFunction,Legend,Top*%
%TF.FilePolarity,Positive*%
%FSLAX46Y46*%
G04 Gerber Fmt 4.6, Leading zero omitted, Abs format (unit mm)*
G04 Created by KiCad (PCBNEW 8.0.3) date 2024-07-06 22:04:31*
%MOMM*%
%LPD*%
G01*
G04 APERTURE LIST*
%ADD10C,0.000000*%
%ADD11C,0.287500*%
%ADD12C,0.300000*%
%ADD13C,0.150000*%
%ADD14C,0.250000*%
%ADD15C,0.120000*%
%ADD16C,0.310000*%
G04 APERTURE END LIST*
D10*
G36*
X137861169Y-87219842D02*
G01*
X137525607Y-87219842D01*
X137265963Y-86545679D01*
X136335195Y-86545679D01*
X136090736Y-87219842D01*
X135777948Y-87219842D01*
X136128984Y-86305776D01*
X136420223Y-86305776D01*
X137174859Y-86305776D01*
X136942547Y-85689313D01*
X136892820Y-85555126D01*
X136849925Y-85433466D01*
X136813864Y-85324332D01*
X136798395Y-85274463D01*
X136784635Y-85227725D01*
X136773461Y-85281200D01*
X136761195Y-85334581D01*
X136747838Y-85387867D01*
X136733390Y-85441057D01*
X136717850Y-85494154D01*
X136701219Y-85547155D01*
X136683496Y-85600061D01*
X136664683Y-85652872D01*
X136420223Y-86305776D01*
X136128984Y-86305776D01*
X136632797Y-84993893D01*
X136950139Y-84993893D01*
X137861169Y-87219842D01*
G37*
G36*
X139328462Y-86741552D02*
G01*
X139328462Y-84993893D01*
X139610881Y-84993893D01*
X139610881Y-87219842D01*
X139308723Y-87219842D01*
X138139568Y-85470665D01*
X138139568Y-87219842D01*
X137857149Y-87219842D01*
X137857149Y-84993893D01*
X138159308Y-84993893D01*
X139328462Y-86741552D01*
G37*
G36*
X134629516Y-86569974D02*
G01*
X134692529Y-86762430D01*
X134716633Y-86837874D01*
X134735803Y-86899463D01*
X134757440Y-86831610D01*
X134784392Y-86749523D01*
X134816657Y-86653200D01*
X134854237Y-86542643D01*
X135387190Y-84993893D01*
X135783487Y-84993893D01*
X135783487Y-87219842D01*
X135499550Y-87219842D01*
X135499550Y-85356786D01*
X134852719Y-87219842D01*
X134587002Y-87219842D01*
X133943208Y-85324900D01*
X133943208Y-87219842D01*
X133659270Y-87219842D01*
X133659270Y-84993893D01*
X134102638Y-84993893D01*
X134629516Y-86569974D01*
G37*
G36*
X123388386Y-85196700D02*
G01*
X123404501Y-85199566D01*
X123420242Y-85204346D01*
X123435543Y-85211053D01*
X123450338Y-85219702D01*
X123464562Y-85230308D01*
X123478151Y-85242884D01*
X123491037Y-85257446D01*
X123503157Y-85274008D01*
X123514443Y-85292584D01*
X123524832Y-85313188D01*
X123534258Y-85335835D01*
X123542654Y-85360539D01*
X123549956Y-85387314D01*
X123555674Y-85407500D01*
X123564383Y-85433620D01*
X123589321Y-85500318D01*
X123621860Y-85580723D01*
X123659091Y-85668149D01*
X123698104Y-85755910D01*
X123735988Y-85837320D01*
X123769835Y-85905694D01*
X123784335Y-85932903D01*
X123796735Y-85954345D01*
X123804433Y-85967278D01*
X123811047Y-85979303D01*
X123816573Y-85990499D01*
X123821005Y-86000945D01*
X123822808Y-86005911D01*
X123824337Y-86010719D01*
X123825588Y-86015379D01*
X123826563Y-86019900D01*
X123827260Y-86024292D01*
X123827679Y-86028566D01*
X123827819Y-86032731D01*
X123827679Y-86036796D01*
X123827259Y-86040772D01*
X123826557Y-86044668D01*
X123825574Y-86048494D01*
X123824308Y-86052261D01*
X123822760Y-86055977D01*
X123820927Y-86059653D01*
X123818810Y-86063298D01*
X123816408Y-86066923D01*
X123813719Y-86070537D01*
X123810745Y-86074150D01*
X123803933Y-86081411D01*
X123795966Y-86088786D01*
X123786840Y-86096353D01*
X123779059Y-86101923D01*
X123769990Y-86107370D01*
X123759751Y-86112663D01*
X123748464Y-86117769D01*
X123736245Y-86122657D01*
X123723215Y-86127295D01*
X123709492Y-86131651D01*
X123695195Y-86135694D01*
X123680444Y-86139391D01*
X123665357Y-86142712D01*
X123650053Y-86145624D01*
X123634652Y-86148096D01*
X123619273Y-86150096D01*
X123604034Y-86151592D01*
X123589055Y-86152553D01*
X123574455Y-86152946D01*
X123569690Y-86152992D01*
X123565528Y-86153109D01*
X123563663Y-86153217D01*
X123561937Y-86153369D01*
X123560347Y-86153576D01*
X123558887Y-86153847D01*
X123557555Y-86154190D01*
X123556347Y-86154614D01*
X123555258Y-86155130D01*
X123554285Y-86155745D01*
X123553423Y-86156469D01*
X123552670Y-86157312D01*
X123552020Y-86158283D01*
X123551471Y-86159389D01*
X123551018Y-86160642D01*
X123550657Y-86162049D01*
X123550385Y-86163621D01*
X123550197Y-86165366D01*
X123550090Y-86167293D01*
X123550060Y-86169411D01*
X123550102Y-86171730D01*
X123550214Y-86174259D01*
X123550629Y-86179983D01*
X123551273Y-86186655D01*
X123553125Y-86203140D01*
X123554464Y-86223781D01*
X123556054Y-86263518D01*
X123559755Y-86390946D01*
X123563753Y-86566752D01*
X123567574Y-86772259D01*
X123572308Y-87008917D01*
X123577821Y-87197750D01*
X123584132Y-87339334D01*
X123591263Y-87434247D01*
X123601880Y-87536220D01*
X123606309Y-87580757D01*
X123606540Y-87581515D01*
X123607209Y-87582126D01*
X123608295Y-87582595D01*
X123609775Y-87582927D01*
X123613821Y-87583199D01*
X123619166Y-87582983D01*
X123625627Y-87582317D01*
X123633019Y-87581241D01*
X123641160Y-87579795D01*
X123649866Y-87578018D01*
X123658955Y-87575950D01*
X123668243Y-87573630D01*
X123677547Y-87571098D01*
X123686683Y-87568394D01*
X123695470Y-87565557D01*
X123703722Y-87562627D01*
X123711258Y-87559642D01*
X123717894Y-87556644D01*
X123724794Y-87552679D01*
X123731749Y-87547523D01*
X123738745Y-87541218D01*
X123745767Y-87533807D01*
X123752800Y-87525331D01*
X123759829Y-87515834D01*
X123773817Y-87493947D01*
X123787615Y-87468483D01*
X123801105Y-87439784D01*
X123814169Y-87408189D01*
X123826690Y-87374038D01*
X123838550Y-87337671D01*
X123849632Y-87299428D01*
X123859817Y-87259649D01*
X123868990Y-87218673D01*
X123877031Y-87176842D01*
X123883825Y-87134494D01*
X123889252Y-87091970D01*
X123893196Y-87049609D01*
X123903640Y-86910371D01*
X123870142Y-86860682D01*
X123859988Y-86844662D01*
X123850801Y-86828210D01*
X123842571Y-86811380D01*
X123835286Y-86794223D01*
X123828934Y-86776793D01*
X123823505Y-86759143D01*
X123818987Y-86741326D01*
X123815369Y-86723395D01*
X123812640Y-86705403D01*
X123810788Y-86687402D01*
X123809802Y-86669446D01*
X123809670Y-86651588D01*
X123810382Y-86633881D01*
X123811926Y-86616378D01*
X123814291Y-86599131D01*
X123817465Y-86582194D01*
X123821438Y-86565619D01*
X123826197Y-86549460D01*
X123831732Y-86533770D01*
X123838031Y-86518601D01*
X123845083Y-86504007D01*
X123852877Y-86490041D01*
X123861402Y-86476755D01*
X123870645Y-86464202D01*
X123880596Y-86452436D01*
X123891244Y-86441510D01*
X123902577Y-86431476D01*
X123914584Y-86422387D01*
X123927253Y-86414297D01*
X123940574Y-86407258D01*
X123954534Y-86401324D01*
X123969124Y-86396547D01*
X124004770Y-86388237D01*
X124039266Y-86383498D01*
X124072541Y-86382146D01*
X124104526Y-86383997D01*
X124135151Y-86388865D01*
X124164346Y-86396567D01*
X124192042Y-86406918D01*
X124218167Y-86419735D01*
X124242654Y-86434831D01*
X124265432Y-86452024D01*
X124286430Y-86471129D01*
X124305580Y-86491961D01*
X124322811Y-86514337D01*
X124338054Y-86538071D01*
X124351239Y-86562979D01*
X124362296Y-86588878D01*
X124371156Y-86615582D01*
X124377748Y-86642908D01*
X124382002Y-86670670D01*
X124383849Y-86698685D01*
X124383220Y-86726768D01*
X124380044Y-86754736D01*
X124374251Y-86782402D01*
X124365772Y-86809584D01*
X124354536Y-86836096D01*
X124340475Y-86861755D01*
X124323518Y-86886376D01*
X124303596Y-86909775D01*
X124280638Y-86931767D01*
X124254575Y-86952168D01*
X124225337Y-86970794D01*
X124192854Y-86987459D01*
X124142629Y-87010453D01*
X124136187Y-87131862D01*
X124132187Y-87191876D01*
X124126634Y-87251106D01*
X124119595Y-87309320D01*
X124111135Y-87366290D01*
X124101322Y-87421785D01*
X124090221Y-87475576D01*
X124077900Y-87527433D01*
X124064424Y-87577126D01*
X124049861Y-87624426D01*
X124034275Y-87669102D01*
X124017735Y-87710925D01*
X124000306Y-87749665D01*
X123982055Y-87785092D01*
X123963048Y-87816977D01*
X123943351Y-87845089D01*
X123923032Y-87869199D01*
X123912945Y-87879801D01*
X123903277Y-87889551D01*
X123893897Y-87898529D01*
X123884673Y-87906815D01*
X123875473Y-87914488D01*
X123866165Y-87921630D01*
X123856618Y-87928318D01*
X123846700Y-87934635D01*
X123836280Y-87940658D01*
X123825226Y-87946469D01*
X123813406Y-87952146D01*
X123800689Y-87957770D01*
X123786944Y-87963421D01*
X123772037Y-87969179D01*
X123755839Y-87975123D01*
X123738216Y-87981333D01*
X123658717Y-88008889D01*
X123658942Y-88197818D01*
X123659888Y-88412390D01*
X123661867Y-88662971D01*
X123664578Y-88939196D01*
X123614027Y-88984188D01*
X123594606Y-89001272D01*
X123586300Y-89008286D01*
X123578676Y-89014394D01*
X123571543Y-89019681D01*
X123564711Y-89024234D01*
X123561348Y-89026261D01*
X123557988Y-89028136D01*
X123554608Y-89029870D01*
X123551184Y-89031474D01*
X123547692Y-89032958D01*
X123544107Y-89034332D01*
X123540407Y-89035608D01*
X123536568Y-89036796D01*
X123528374Y-89038951D01*
X123519336Y-89040882D01*
X123509262Y-89042674D01*
X123497962Y-89044412D01*
X123470918Y-89048070D01*
X123436535Y-89052259D01*
X123408080Y-89054977D01*
X123395735Y-89055761D01*
X123384463Y-89056149D01*
X123374128Y-89056131D01*
X123364593Y-89055698D01*
X123355723Y-89054839D01*
X123347380Y-89053546D01*
X123339429Y-89051809D01*
X123331734Y-89049618D01*
X123324157Y-89046963D01*
X123316563Y-89043836D01*
X123308816Y-89040227D01*
X123300779Y-89036125D01*
X123300771Y-89036125D01*
X123293482Y-89032000D01*
X123286571Y-89027489D01*
X123280030Y-89022520D01*
X123273847Y-89017023D01*
X123268012Y-89010925D01*
X123262516Y-89004156D01*
X123257348Y-88996643D01*
X123252498Y-88988316D01*
X123247957Y-88979102D01*
X123243714Y-88968931D01*
X123239760Y-88957731D01*
X123236083Y-88945430D01*
X123232675Y-88931956D01*
X123229524Y-88917239D01*
X123226622Y-88901207D01*
X123223958Y-88883788D01*
X123221521Y-88864911D01*
X123219303Y-88844505D01*
X123217292Y-88822497D01*
X123215479Y-88798817D01*
X123213854Y-88773393D01*
X123212406Y-88746153D01*
X123210004Y-88685941D01*
X123208192Y-88617608D01*
X123206890Y-88540584D01*
X123206018Y-88454296D01*
X123205494Y-88358172D01*
X123205472Y-88237395D01*
X123204510Y-88149306D01*
X123202775Y-88115783D01*
X123199723Y-88088348D01*
X123194992Y-88066307D01*
X123191884Y-88057091D01*
X123188222Y-88048963D01*
X123183959Y-88041836D01*
X123179051Y-88035623D01*
X123173453Y-88030238D01*
X123167120Y-88025592D01*
X123160006Y-88021601D01*
X123152066Y-88018176D01*
X123133529Y-88012679D01*
X123111148Y-88008406D01*
X123084562Y-88004664D01*
X123017332Y-87995990D01*
X122976870Y-87989263D01*
X122939259Y-87980749D01*
X122921473Y-87975771D01*
X122904341Y-87970284D01*
X122887844Y-87964268D01*
X122871961Y-87957702D01*
X122856674Y-87950566D01*
X122841964Y-87942840D01*
X122827809Y-87934502D01*
X122814192Y-87925533D01*
X122801093Y-87915911D01*
X122788491Y-87905617D01*
X122776368Y-87894629D01*
X122764704Y-87882927D01*
X122753480Y-87870491D01*
X122742676Y-87857299D01*
X122732273Y-87843332D01*
X122722251Y-87828569D01*
X122712590Y-87812989D01*
X122703272Y-87796572D01*
X122694277Y-87779297D01*
X122685584Y-87761144D01*
X122669032Y-87722120D01*
X122653458Y-87679336D01*
X122638708Y-87632628D01*
X122624625Y-87581831D01*
X122606791Y-87511300D01*
X122592278Y-87448524D01*
X122580791Y-87391454D01*
X122572038Y-87338039D01*
X122565725Y-87286228D01*
X122561558Y-87233972D01*
X122559244Y-87179220D01*
X122558488Y-87119922D01*
X122558323Y-87060440D01*
X122557498Y-87015606D01*
X122556606Y-86997912D01*
X122555272Y-86982956D01*
X122553400Y-86970428D01*
X122550900Y-86960022D01*
X122547677Y-86951429D01*
X122543639Y-86944341D01*
X122538693Y-86938449D01*
X122532746Y-86933445D01*
X122525706Y-86929022D01*
X122517478Y-86924871D01*
X122497091Y-86916152D01*
X122480008Y-86908411D01*
X122463851Y-86899759D01*
X122448625Y-86890236D01*
X122434335Y-86879884D01*
X122420986Y-86868743D01*
X122408584Y-86856855D01*
X122397133Y-86844261D01*
X122386639Y-86831001D01*
X122377106Y-86817116D01*
X122368541Y-86802647D01*
X122360947Y-86787635D01*
X122354330Y-86772122D01*
X122348696Y-86756147D01*
X122344048Y-86739753D01*
X122340394Y-86722979D01*
X122337736Y-86705867D01*
X122336081Y-86688458D01*
X122335435Y-86670793D01*
X122335800Y-86652912D01*
X122337184Y-86634857D01*
X122339591Y-86616668D01*
X122343026Y-86598387D01*
X122347495Y-86580054D01*
X122353002Y-86561711D01*
X122359552Y-86543397D01*
X122367151Y-86525155D01*
X122375804Y-86507025D01*
X122385516Y-86489048D01*
X122396291Y-86471265D01*
X122408136Y-86453717D01*
X122421055Y-86436445D01*
X122435053Y-86419490D01*
X122450544Y-86402627D01*
X122466559Y-86387149D01*
X122483014Y-86373084D01*
X122499823Y-86360460D01*
X122516902Y-86349306D01*
X122534164Y-86339651D01*
X122551526Y-86331521D01*
X122568901Y-86324947D01*
X122586204Y-86319957D01*
X122594802Y-86318064D01*
X122603351Y-86316578D01*
X122611839Y-86315501D01*
X122620255Y-86314839D01*
X122628590Y-86314593D01*
X122636833Y-86314769D01*
X122644973Y-86315368D01*
X122652998Y-86316396D01*
X122660900Y-86317854D01*
X122668666Y-86319748D01*
X122676287Y-86322080D01*
X122683752Y-86324854D01*
X122691049Y-86328074D01*
X122698169Y-86331743D01*
X122716580Y-86342355D01*
X122734274Y-86353378D01*
X122751241Y-86364786D01*
X122767470Y-86376551D01*
X122782949Y-86388648D01*
X122797667Y-86401051D01*
X122811613Y-86413732D01*
X122824775Y-86426667D01*
X122837142Y-86439829D01*
X122848703Y-86453191D01*
X122859447Y-86466727D01*
X122869361Y-86480412D01*
X122878435Y-86494219D01*
X122886658Y-86508121D01*
X122894018Y-86522092D01*
X122900504Y-86536107D01*
X122906104Y-86550139D01*
X122910808Y-86564161D01*
X122914604Y-86578148D01*
X122917480Y-86592073D01*
X122919426Y-86605911D01*
X122920430Y-86619634D01*
X122920481Y-86633216D01*
X122919567Y-86646632D01*
X122917677Y-86659855D01*
X122914801Y-86672859D01*
X122910925Y-86685617D01*
X122906041Y-86698104D01*
X122900135Y-86710293D01*
X122893196Y-86722158D01*
X122885214Y-86733673D01*
X122876177Y-86744812D01*
X122860115Y-86765658D01*
X122846363Y-86788650D01*
X122834854Y-86813603D01*
X122825519Y-86840332D01*
X122818293Y-86868654D01*
X122813108Y-86898385D01*
X122809897Y-86929340D01*
X122808592Y-86961336D01*
X122809128Y-86994188D01*
X122811435Y-87027713D01*
X122821098Y-87096044D01*
X122837045Y-87164855D01*
X122858739Y-87232675D01*
X122885641Y-87298030D01*
X122917214Y-87359450D01*
X122934585Y-87388223D01*
X122952922Y-87415459D01*
X122972159Y-87440976D01*
X122992228Y-87464588D01*
X123013061Y-87486111D01*
X123034592Y-87505362D01*
X123056754Y-87522156D01*
X123079479Y-87536309D01*
X123102701Y-87547638D01*
X123126352Y-87555958D01*
X123150364Y-87561084D01*
X123174672Y-87562834D01*
X123176903Y-87561449D01*
X123179046Y-87557388D01*
X123183054Y-87541813D01*
X123186674Y-87517253D01*
X123189881Y-87484852D01*
X123194970Y-87401101D01*
X123198136Y-87299715D01*
X123199197Y-87189844D01*
X123197971Y-87080641D01*
X123194273Y-86981258D01*
X123191439Y-86938109D01*
X123187920Y-86900847D01*
X123186033Y-86878590D01*
X123184000Y-86844391D01*
X123179752Y-86747003D01*
X123175688Y-86622358D01*
X123172319Y-86484128D01*
X123167146Y-86243414D01*
X123164413Y-86142852D01*
X123162023Y-86142452D01*
X123155561Y-86141598D01*
X123132194Y-86138742D01*
X123097865Y-86134708D01*
X123056128Y-86129921D01*
X123028959Y-86126427D01*
X123004540Y-86122397D01*
X122982829Y-86117784D01*
X122963787Y-86112542D01*
X122955254Y-86109670D01*
X122947373Y-86106624D01*
X122940139Y-86103397D01*
X122933547Y-86099984D01*
X122927592Y-86096379D01*
X122922268Y-86092576D01*
X122917572Y-86088570D01*
X122913497Y-86084354D01*
X122910040Y-86079923D01*
X122907194Y-86075271D01*
X122904954Y-86070392D01*
X122903317Y-86065281D01*
X122902275Y-86059931D01*
X122901826Y-86054338D01*
X122901963Y-86048494D01*
X122902681Y-86042395D01*
X122903976Y-86036035D01*
X122905843Y-86029407D01*
X122908275Y-86022506D01*
X122911269Y-86015326D01*
X122918921Y-86000108D01*
X122928758Y-85983705D01*
X122931738Y-85978893D01*
X122934704Y-85973781D01*
X122937635Y-85968413D01*
X122940515Y-85962835D01*
X122943325Y-85957091D01*
X122946048Y-85951227D01*
X122951154Y-85939318D01*
X122953502Y-85933363D01*
X122955688Y-85927468D01*
X122957695Y-85921678D01*
X122959505Y-85916037D01*
X122961098Y-85910591D01*
X122962457Y-85905385D01*
X122963563Y-85900464D01*
X122964398Y-85895873D01*
X122966712Y-85884558D01*
X122970730Y-85868742D01*
X122976231Y-85849145D01*
X122982996Y-85826491D01*
X122990801Y-85801502D01*
X122999428Y-85774900D01*
X123008655Y-85747407D01*
X123018261Y-85719747D01*
X123061149Y-85596269D01*
X123098071Y-85486654D01*
X123108869Y-85455899D01*
X123120536Y-85426784D01*
X123133006Y-85399324D01*
X123146214Y-85373532D01*
X123160094Y-85349424D01*
X123174582Y-85327014D01*
X123189611Y-85306315D01*
X123205116Y-85287343D01*
X123221032Y-85270111D01*
X123237294Y-85254634D01*
X123253835Y-85240928D01*
X123270590Y-85229004D01*
X123287495Y-85218880D01*
X123304483Y-85210568D01*
X123321489Y-85204082D01*
X123338448Y-85199439D01*
X123355294Y-85196651D01*
X123371962Y-85195733D01*
X123388386Y-85196700D01*
G37*
D11*
G36*
X129660101Y-87765476D02*
G01*
X129723826Y-87784547D01*
X129780678Y-87817922D01*
X129838318Y-87874938D01*
X129886604Y-87951422D01*
X129892739Y-87963938D01*
X129930497Y-88061145D01*
X129958981Y-88174765D01*
X129978191Y-88304799D01*
X129987276Y-88429320D01*
X129989642Y-88542300D01*
X129985929Y-88681184D01*
X129974790Y-88808185D01*
X129952410Y-88941334D01*
X129919922Y-89058309D01*
X129884031Y-89145700D01*
X129832627Y-89230331D01*
X129780094Y-89286328D01*
X129719740Y-89327053D01*
X129663471Y-89349324D01*
X129601771Y-89360990D01*
X129562144Y-89362899D01*
X129366371Y-89362899D01*
X129366371Y-90324333D01*
X129006845Y-90324333D01*
X129006845Y-88842122D01*
X129366371Y-88842122D01*
X129454005Y-88842122D01*
X129512748Y-88834543D01*
X129571071Y-88802026D01*
X129599501Y-88764507D01*
X129633341Y-88662621D01*
X129641352Y-88564208D01*
X129628479Y-88436524D01*
X129604837Y-88363909D01*
X129552594Y-88301942D01*
X129492398Y-88282577D01*
X129468330Y-88281286D01*
X129366371Y-88281286D01*
X129366371Y-88842122D01*
X129006845Y-88842122D01*
X129006845Y-87760509D01*
X129601748Y-87760509D01*
X129660101Y-87765476D01*
G37*
D12*
X109810714Y-116778328D02*
X109810714Y-115778328D01*
X109810714Y-116064042D02*
X109882143Y-115921185D01*
X109882143Y-115921185D02*
X109953572Y-115849757D01*
X109953572Y-115849757D02*
X110096429Y-115778328D01*
X110096429Y-115778328D02*
X110239286Y-115778328D01*
X111382143Y-116778328D02*
X111382143Y-115992614D01*
X111382143Y-115992614D02*
X111310714Y-115849757D01*
X111310714Y-115849757D02*
X111167857Y-115778328D01*
X111167857Y-115778328D02*
X110882143Y-115778328D01*
X110882143Y-115778328D02*
X110739285Y-115849757D01*
X111382143Y-116706900D02*
X111239285Y-116778328D01*
X111239285Y-116778328D02*
X110882143Y-116778328D01*
X110882143Y-116778328D02*
X110739285Y-116706900D01*
X110739285Y-116706900D02*
X110667857Y-116564042D01*
X110667857Y-116564042D02*
X110667857Y-116421185D01*
X110667857Y-116421185D02*
X110739285Y-116278328D01*
X110739285Y-116278328D02*
X110882143Y-116206900D01*
X110882143Y-116206900D02*
X111239285Y-116206900D01*
X111239285Y-116206900D02*
X111382143Y-116135471D01*
X112025000Y-116706900D02*
X112167857Y-116778328D01*
X112167857Y-116778328D02*
X112453571Y-116778328D01*
X112453571Y-116778328D02*
X112596428Y-116706900D01*
X112596428Y-116706900D02*
X112667857Y-116564042D01*
X112667857Y-116564042D02*
X112667857Y-116492614D01*
X112667857Y-116492614D02*
X112596428Y-116349757D01*
X112596428Y-116349757D02*
X112453571Y-116278328D01*
X112453571Y-116278328D02*
X112239286Y-116278328D01*
X112239286Y-116278328D02*
X112096428Y-116206900D01*
X112096428Y-116206900D02*
X112025000Y-116064042D01*
X112025000Y-116064042D02*
X112025000Y-115992614D01*
X112025000Y-115992614D02*
X112096428Y-115849757D01*
X112096428Y-115849757D02*
X112239286Y-115778328D01*
X112239286Y-115778328D02*
X112453571Y-115778328D01*
X112453571Y-115778328D02*
X112596428Y-115849757D01*
X113096429Y-115778328D02*
X113667857Y-115778328D01*
X113310714Y-115278328D02*
X113310714Y-116564042D01*
X113310714Y-116564042D02*
X113382143Y-116706900D01*
X113382143Y-116706900D02*
X113525000Y-116778328D01*
X113525000Y-116778328D02*
X113667857Y-116778328D01*
X114739286Y-116706900D02*
X114596429Y-116778328D01*
X114596429Y-116778328D02*
X114310715Y-116778328D01*
X114310715Y-116778328D02*
X114167857Y-116706900D01*
X114167857Y-116706900D02*
X114096429Y-116564042D01*
X114096429Y-116564042D02*
X114096429Y-115992614D01*
X114096429Y-115992614D02*
X114167857Y-115849757D01*
X114167857Y-115849757D02*
X114310715Y-115778328D01*
X114310715Y-115778328D02*
X114596429Y-115778328D01*
X114596429Y-115778328D02*
X114739286Y-115849757D01*
X114739286Y-115849757D02*
X114810715Y-115992614D01*
X114810715Y-115992614D02*
X114810715Y-116135471D01*
X114810715Y-116135471D02*
X114096429Y-116278328D01*
X115453571Y-116778328D02*
X115453571Y-115778328D01*
X115453571Y-116064042D02*
X115525000Y-115921185D01*
X115525000Y-115921185D02*
X115596429Y-115849757D01*
X115596429Y-115849757D02*
X115739286Y-115778328D01*
X115739286Y-115778328D02*
X115882143Y-115778328D01*
X116382142Y-116778328D02*
X116382142Y-115778328D01*
X116382142Y-115278328D02*
X116310714Y-115349757D01*
X116310714Y-115349757D02*
X116382142Y-115421185D01*
X116382142Y-115421185D02*
X116453571Y-115349757D01*
X116453571Y-115349757D02*
X116382142Y-115278328D01*
X116382142Y-115278328D02*
X116382142Y-115421185D01*
X117096428Y-116635471D02*
X117167857Y-116706900D01*
X117167857Y-116706900D02*
X117096428Y-116778328D01*
X117096428Y-116778328D02*
X117025000Y-116706900D01*
X117025000Y-116706900D02*
X117096428Y-116635471D01*
X117096428Y-116635471D02*
X117096428Y-116778328D01*
X118453572Y-116706900D02*
X118310714Y-116778328D01*
X118310714Y-116778328D02*
X118025000Y-116778328D01*
X118025000Y-116778328D02*
X117882143Y-116706900D01*
X117882143Y-116706900D02*
X117810714Y-116635471D01*
X117810714Y-116635471D02*
X117739286Y-116492614D01*
X117739286Y-116492614D02*
X117739286Y-116064042D01*
X117739286Y-116064042D02*
X117810714Y-115921185D01*
X117810714Y-115921185D02*
X117882143Y-115849757D01*
X117882143Y-115849757D02*
X118025000Y-115778328D01*
X118025000Y-115778328D02*
X118310714Y-115778328D01*
X118310714Y-115778328D02*
X118453572Y-115849757D01*
X119310714Y-116778328D02*
X119167857Y-116706900D01*
X119167857Y-116706900D02*
X119096428Y-116635471D01*
X119096428Y-116635471D02*
X119025000Y-116492614D01*
X119025000Y-116492614D02*
X119025000Y-116064042D01*
X119025000Y-116064042D02*
X119096428Y-115921185D01*
X119096428Y-115921185D02*
X119167857Y-115849757D01*
X119167857Y-115849757D02*
X119310714Y-115778328D01*
X119310714Y-115778328D02*
X119525000Y-115778328D01*
X119525000Y-115778328D02*
X119667857Y-115849757D01*
X119667857Y-115849757D02*
X119739286Y-115921185D01*
X119739286Y-115921185D02*
X119810714Y-116064042D01*
X119810714Y-116064042D02*
X119810714Y-116492614D01*
X119810714Y-116492614D02*
X119739286Y-116635471D01*
X119739286Y-116635471D02*
X119667857Y-116706900D01*
X119667857Y-116706900D02*
X119525000Y-116778328D01*
X119525000Y-116778328D02*
X119310714Y-116778328D01*
X120453571Y-116778328D02*
X120453571Y-115778328D01*
X120453571Y-115921185D02*
X120525000Y-115849757D01*
X120525000Y-115849757D02*
X120667857Y-115778328D01*
X120667857Y-115778328D02*
X120882143Y-115778328D01*
X120882143Y-115778328D02*
X121025000Y-115849757D01*
X121025000Y-115849757D02*
X121096429Y-115992614D01*
X121096429Y-115992614D02*
X121096429Y-116778328D01*
X121096429Y-115992614D02*
X121167857Y-115849757D01*
X121167857Y-115849757D02*
X121310714Y-115778328D01*
X121310714Y-115778328D02*
X121525000Y-115778328D01*
X121525000Y-115778328D02*
X121667857Y-115849757D01*
X121667857Y-115849757D02*
X121739286Y-115992614D01*
X121739286Y-115992614D02*
X121739286Y-116778328D01*
D11*
G36*
X130026175Y-89412407D02*
G01*
X130366601Y-89362959D01*
X130378056Y-89493847D01*
X130399607Y-89614288D01*
X130411542Y-89655269D01*
X130455192Y-89747568D01*
X130510061Y-89801555D01*
X130569677Y-89817386D01*
X130626138Y-89804370D01*
X130679593Y-89752613D01*
X130687646Y-89738519D01*
X130722355Y-89635816D01*
X130729216Y-89555120D01*
X130712160Y-89434482D01*
X130689612Y-89378607D01*
X130640418Y-89316482D01*
X130586156Y-89275167D01*
X130524047Y-89239606D01*
X130506479Y-89230887D01*
X130449741Y-89200724D01*
X130384744Y-89159611D01*
X130326330Y-89114708D01*
X130274499Y-89066014D01*
X130220991Y-89002580D01*
X130170547Y-88921676D01*
X130131147Y-88831965D01*
X130097969Y-88716970D01*
X130077429Y-88588673D01*
X130069530Y-88447075D01*
X130069431Y-88428440D01*
X130075538Y-88295475D01*
X130093858Y-88167688D01*
X130121113Y-88056010D01*
X130158516Y-87953807D01*
X130206122Y-87866274D01*
X130257693Y-87800037D01*
X130276720Y-87780599D01*
X130333492Y-87736784D01*
X130391060Y-87708715D01*
X130455993Y-87690230D01*
X130517512Y-87682015D01*
X130561531Y-87680450D01*
X130628376Y-87684881D01*
X130690050Y-87698176D01*
X130746554Y-87720335D01*
X130807533Y-87758624D01*
X130861067Y-87809677D01*
X130899991Y-87861970D01*
X130946472Y-87951629D01*
X130983921Y-88061775D01*
X131012338Y-88192408D01*
X131029507Y-88320685D01*
X131038745Y-88439081D01*
X130701409Y-88481644D01*
X130685587Y-88360430D01*
X130652751Y-88252652D01*
X130644952Y-88237530D01*
X130593762Y-88180258D01*
X130535492Y-88161465D01*
X130526140Y-88161167D01*
X130468529Y-88177595D01*
X130432046Y-88219378D01*
X130402093Y-88325616D01*
X130400587Y-88360839D01*
X130426709Y-88470378D01*
X130481186Y-88527414D01*
X130540796Y-88560936D01*
X130546645Y-88563642D01*
X130603198Y-88591398D01*
X130668039Y-88626258D01*
X130726379Y-88661302D01*
X130787806Y-88703596D01*
X130847639Y-88753274D01*
X130882576Y-88788978D01*
X130935371Y-88857415D01*
X130983713Y-88943676D01*
X131021193Y-89040696D01*
X131030319Y-89071900D01*
X131056705Y-89192822D01*
X131072138Y-89323212D01*
X131076664Y-89449963D01*
X131071776Y-89585011D01*
X131057112Y-89714117D01*
X131032672Y-89837282D01*
X131014870Y-89903139D01*
X130976381Y-90011758D01*
X130930116Y-90104533D01*
X130882463Y-90173699D01*
X130842691Y-90217358D01*
X130783882Y-90264185D01*
X130726491Y-90294184D01*
X130663563Y-90313940D01*
X130605217Y-90322720D01*
X130564059Y-90324392D01*
X130493027Y-90320373D01*
X130427675Y-90308314D01*
X130368001Y-90288215D01*
X130301395Y-90251787D01*
X130243663Y-90202797D01*
X130186097Y-90127429D01*
X130154818Y-90067134D01*
X130115635Y-89965542D01*
X130083405Y-89854179D01*
X130058125Y-89733047D01*
X130039798Y-89602143D01*
X130028422Y-89461470D01*
X130026175Y-89412407D01*
G37*
D12*
X110596428Y-114278328D02*
X110096428Y-113564042D01*
X109739285Y-114278328D02*
X109739285Y-112778328D01*
X109739285Y-112778328D02*
X110310714Y-112778328D01*
X110310714Y-112778328D02*
X110453571Y-112849757D01*
X110453571Y-112849757D02*
X110525000Y-112921185D01*
X110525000Y-112921185D02*
X110596428Y-113064042D01*
X110596428Y-113064042D02*
X110596428Y-113278328D01*
X110596428Y-113278328D02*
X110525000Y-113421185D01*
X110525000Y-113421185D02*
X110453571Y-113492614D01*
X110453571Y-113492614D02*
X110310714Y-113564042D01*
X110310714Y-113564042D02*
X109739285Y-113564042D01*
X111239285Y-113492614D02*
X111739285Y-113492614D01*
X111953571Y-114278328D02*
X111239285Y-114278328D01*
X111239285Y-114278328D02*
X111239285Y-112778328D01*
X111239285Y-112778328D02*
X111953571Y-112778328D01*
X112382143Y-112778328D02*
X112882143Y-114278328D01*
X112882143Y-114278328D02*
X113382143Y-112778328D01*
X115524999Y-113492614D02*
X115739285Y-113564042D01*
X115739285Y-113564042D02*
X115810714Y-113635471D01*
X115810714Y-113635471D02*
X115882142Y-113778328D01*
X115882142Y-113778328D02*
X115882142Y-113992614D01*
X115882142Y-113992614D02*
X115810714Y-114135471D01*
X115810714Y-114135471D02*
X115739285Y-114206900D01*
X115739285Y-114206900D02*
X115596428Y-114278328D01*
X115596428Y-114278328D02*
X115024999Y-114278328D01*
X115024999Y-114278328D02*
X115024999Y-112778328D01*
X115024999Y-112778328D02*
X115524999Y-112778328D01*
X115524999Y-112778328D02*
X115667857Y-112849757D01*
X115667857Y-112849757D02*
X115739285Y-112921185D01*
X115739285Y-112921185D02*
X115810714Y-113064042D01*
X115810714Y-113064042D02*
X115810714Y-113206900D01*
X115810714Y-113206900D02*
X115739285Y-113349757D01*
X115739285Y-113349757D02*
X115667857Y-113421185D01*
X115667857Y-113421185D02*
X115524999Y-113492614D01*
X115524999Y-113492614D02*
X115024999Y-113492614D01*
X117792857Y-114206900D02*
X117935714Y-114278328D01*
X117935714Y-114278328D02*
X118221428Y-114278328D01*
X118221428Y-114278328D02*
X118364285Y-114206900D01*
X118364285Y-114206900D02*
X118435714Y-114064042D01*
X118435714Y-114064042D02*
X118435714Y-113992614D01*
X118435714Y-113992614D02*
X118364285Y-113849757D01*
X118364285Y-113849757D02*
X118221428Y-113778328D01*
X118221428Y-113778328D02*
X118007143Y-113778328D01*
X118007143Y-113778328D02*
X117864285Y-113706900D01*
X117864285Y-113706900D02*
X117792857Y-113564042D01*
X117792857Y-113564042D02*
X117792857Y-113492614D01*
X117792857Y-113492614D02*
X117864285Y-113349757D01*
X117864285Y-113349757D02*
X118007143Y-113278328D01*
X118007143Y-113278328D02*
X118221428Y-113278328D01*
X118221428Y-113278328D02*
X118364285Y-113349757D01*
X118935714Y-113278328D02*
X119221429Y-114278328D01*
X119221429Y-114278328D02*
X119507143Y-113564042D01*
X119507143Y-113564042D02*
X119792857Y-114278328D01*
X119792857Y-114278328D02*
X120078571Y-113278328D01*
D11*
G36*
X132428075Y-90324333D02*
G01*
X131462693Y-90324333D01*
X131473169Y-90185129D01*
X131490096Y-90049580D01*
X131513475Y-89917684D01*
X131543306Y-89789443D01*
X131563248Y-89717803D01*
X131600021Y-89607812D01*
X131638571Y-89511279D01*
X131684307Y-89410313D01*
X131726070Y-89326350D01*
X131772433Y-89239551D01*
X131823395Y-89149915D01*
X131878956Y-89057443D01*
X131928448Y-88974982D01*
X131977103Y-88888677D01*
X132020727Y-88803101D01*
X132059842Y-88708173D01*
X132088269Y-88598842D01*
X132099446Y-88481585D01*
X132085683Y-88355468D01*
X132060404Y-88283164D01*
X132010083Y-88216861D01*
X131962096Y-88201167D01*
X131905991Y-88223387D01*
X131861261Y-88290049D01*
X131830275Y-88402497D01*
X131813574Y-88535234D01*
X131808736Y-88601764D01*
X131486287Y-88542300D01*
X131496149Y-88416412D01*
X131511105Y-88288165D01*
X131532632Y-88163806D01*
X131555945Y-88070972D01*
X131591576Y-87972718D01*
X131635272Y-87889990D01*
X131687031Y-87822787D01*
X131698351Y-87811210D01*
X131755772Y-87767337D01*
X131816214Y-87740392D01*
X131876358Y-87726122D01*
X131933302Y-87720804D01*
X131953389Y-87720450D01*
X132014362Y-87723442D01*
X132078807Y-87734499D01*
X132136049Y-87753702D01*
X132192646Y-87785625D01*
X132217416Y-87805577D01*
X132272599Y-87867253D01*
X132319827Y-87946656D01*
X132359101Y-88043786D01*
X132366001Y-88065339D01*
X132394588Y-88179034D01*
X132412587Y-88301042D01*
X132419999Y-88431363D01*
X132420211Y-88458425D01*
X132415300Y-88586761D01*
X132400570Y-88711928D01*
X132376019Y-88833926D01*
X132358136Y-88900334D01*
X132320762Y-89008386D01*
X132277662Y-89107167D01*
X132232996Y-89194984D01*
X132181200Y-89285705D01*
X132132590Y-89363525D01*
X132083012Y-89439284D01*
X132036235Y-89512917D01*
X132002543Y-89569457D01*
X131959693Y-89652125D01*
X131925582Y-89723436D01*
X132428075Y-89723436D01*
X132428075Y-90324333D01*
G37*
G36*
X131087752Y-90324392D02*
G01*
X131366946Y-87640390D01*
X131479017Y-87640390D01*
X131199262Y-90324392D01*
X131087752Y-90324392D01*
G37*
D13*
X145491666Y-114204819D02*
X145491666Y-114919104D01*
X145491666Y-114919104D02*
X145444047Y-115061961D01*
X145444047Y-115061961D02*
X145348809Y-115157200D01*
X145348809Y-115157200D02*
X145205952Y-115204819D01*
X145205952Y-115204819D02*
X145110714Y-115204819D01*
X145920238Y-114300057D02*
X145967857Y-114252438D01*
X145967857Y-114252438D02*
X146063095Y-114204819D01*
X146063095Y-114204819D02*
X146301190Y-114204819D01*
X146301190Y-114204819D02*
X146396428Y-114252438D01*
X146396428Y-114252438D02*
X146444047Y-114300057D01*
X146444047Y-114300057D02*
X146491666Y-114395295D01*
X146491666Y-114395295D02*
X146491666Y-114490533D01*
X146491666Y-114490533D02*
X146444047Y-114633390D01*
X146444047Y-114633390D02*
X145872619Y-115204819D01*
X145872619Y-115204819D02*
X146491666Y-115204819D01*
X129258333Y-116609580D02*
X129210714Y-116657200D01*
X129210714Y-116657200D02*
X129067857Y-116704819D01*
X129067857Y-116704819D02*
X128972619Y-116704819D01*
X128972619Y-116704819D02*
X128829762Y-116657200D01*
X128829762Y-116657200D02*
X128734524Y-116561961D01*
X128734524Y-116561961D02*
X128686905Y-116466723D01*
X128686905Y-116466723D02*
X128639286Y-116276247D01*
X128639286Y-116276247D02*
X128639286Y-116133390D01*
X128639286Y-116133390D02*
X128686905Y-115942914D01*
X128686905Y-115942914D02*
X128734524Y-115847676D01*
X128734524Y-115847676D02*
X128829762Y-115752438D01*
X128829762Y-115752438D02*
X128972619Y-115704819D01*
X128972619Y-115704819D02*
X129067857Y-115704819D01*
X129067857Y-115704819D02*
X129210714Y-115752438D01*
X129210714Y-115752438D02*
X129258333Y-115800057D01*
X130115476Y-115704819D02*
X129925000Y-115704819D01*
X129925000Y-115704819D02*
X129829762Y-115752438D01*
X129829762Y-115752438D02*
X129782143Y-115800057D01*
X129782143Y-115800057D02*
X129686905Y-115942914D01*
X129686905Y-115942914D02*
X129639286Y-116133390D01*
X129639286Y-116133390D02*
X129639286Y-116514342D01*
X129639286Y-116514342D02*
X129686905Y-116609580D01*
X129686905Y-116609580D02*
X129734524Y-116657200D01*
X129734524Y-116657200D02*
X129829762Y-116704819D01*
X129829762Y-116704819D02*
X130020238Y-116704819D01*
X130020238Y-116704819D02*
X130115476Y-116657200D01*
X130115476Y-116657200D02*
X130163095Y-116609580D01*
X130163095Y-116609580D02*
X130210714Y-116514342D01*
X130210714Y-116514342D02*
X130210714Y-116276247D01*
X130210714Y-116276247D02*
X130163095Y-116181009D01*
X130163095Y-116181009D02*
X130115476Y-116133390D01*
X130115476Y-116133390D02*
X130020238Y-116085771D01*
X130020238Y-116085771D02*
X129829762Y-116085771D01*
X129829762Y-116085771D02*
X129734524Y-116133390D01*
X129734524Y-116133390D02*
X129686905Y-116181009D01*
X129686905Y-116181009D02*
X129639286Y-116276247D01*
X143784523Y-106679819D02*
X143451190Y-106203628D01*
X143213095Y-106679819D02*
X143213095Y-105679819D01*
X143213095Y-105679819D02*
X143594047Y-105679819D01*
X143594047Y-105679819D02*
X143689285Y-105727438D01*
X143689285Y-105727438D02*
X143736904Y-105775057D01*
X143736904Y-105775057D02*
X143784523Y-105870295D01*
X143784523Y-105870295D02*
X143784523Y-106013152D01*
X143784523Y-106013152D02*
X143736904Y-106108390D01*
X143736904Y-106108390D02*
X143689285Y-106156009D01*
X143689285Y-106156009D02*
X143594047Y-106203628D01*
X143594047Y-106203628D02*
X143213095Y-106203628D01*
X144213095Y-106679819D02*
X144213095Y-105679819D01*
X144213095Y-105679819D02*
X144784523Y-106679819D01*
X144784523Y-106679819D02*
X144784523Y-105679819D01*
X145213095Y-105775057D02*
X145260714Y-105727438D01*
X145260714Y-105727438D02*
X145355952Y-105679819D01*
X145355952Y-105679819D02*
X145594047Y-105679819D01*
X145594047Y-105679819D02*
X145689285Y-105727438D01*
X145689285Y-105727438D02*
X145736904Y-105775057D01*
X145736904Y-105775057D02*
X145784523Y-105870295D01*
X145784523Y-105870295D02*
X145784523Y-105965533D01*
X145784523Y-105965533D02*
X145736904Y-106108390D01*
X145736904Y-106108390D02*
X145165476Y-106679819D01*
X145165476Y-106679819D02*
X145784523Y-106679819D01*
X122988095Y-105229819D02*
X122988095Y-106039342D01*
X122988095Y-106039342D02*
X123035714Y-106134580D01*
X123035714Y-106134580D02*
X123083333Y-106182200D01*
X123083333Y-106182200D02*
X123178571Y-106229819D01*
X123178571Y-106229819D02*
X123369047Y-106229819D01*
X123369047Y-106229819D02*
X123464285Y-106182200D01*
X123464285Y-106182200D02*
X123511904Y-106134580D01*
X123511904Y-106134580D02*
X123559523Y-106039342D01*
X123559523Y-106039342D02*
X123559523Y-105229819D01*
X124559523Y-106229819D02*
X123988095Y-106229819D01*
X124273809Y-106229819D02*
X124273809Y-105229819D01*
X124273809Y-105229819D02*
X124178571Y-105372676D01*
X124178571Y-105372676D02*
X124083333Y-105467914D01*
X124083333Y-105467914D02*
X123988095Y-105515533D01*
X136558333Y-116734580D02*
X136510714Y-116782200D01*
X136510714Y-116782200D02*
X136367857Y-116829819D01*
X136367857Y-116829819D02*
X136272619Y-116829819D01*
X136272619Y-116829819D02*
X136129762Y-116782200D01*
X136129762Y-116782200D02*
X136034524Y-116686961D01*
X136034524Y-116686961D02*
X135986905Y-116591723D01*
X135986905Y-116591723D02*
X135939286Y-116401247D01*
X135939286Y-116401247D02*
X135939286Y-116258390D01*
X135939286Y-116258390D02*
X135986905Y-116067914D01*
X135986905Y-116067914D02*
X136034524Y-115972676D01*
X136034524Y-115972676D02*
X136129762Y-115877438D01*
X136129762Y-115877438D02*
X136272619Y-115829819D01*
X136272619Y-115829819D02*
X136367857Y-115829819D01*
X136367857Y-115829819D02*
X136510714Y-115877438D01*
X136510714Y-115877438D02*
X136558333Y-115925057D01*
X136891667Y-115829819D02*
X137558333Y-115829819D01*
X137558333Y-115829819D02*
X137129762Y-116829819D01*
X142059523Y-89679819D02*
X141726190Y-89203628D01*
X141488095Y-89679819D02*
X141488095Y-88679819D01*
X141488095Y-88679819D02*
X141869047Y-88679819D01*
X141869047Y-88679819D02*
X141964285Y-88727438D01*
X141964285Y-88727438D02*
X142011904Y-88775057D01*
X142011904Y-88775057D02*
X142059523Y-88870295D01*
X142059523Y-88870295D02*
X142059523Y-89013152D01*
X142059523Y-89013152D02*
X142011904Y-89108390D01*
X142011904Y-89108390D02*
X141964285Y-89156009D01*
X141964285Y-89156009D02*
X141869047Y-89203628D01*
X141869047Y-89203628D02*
X141488095Y-89203628D01*
X142488095Y-89679819D02*
X142488095Y-88679819D01*
X142488095Y-88679819D02*
X143059523Y-89679819D01*
X143059523Y-89679819D02*
X143059523Y-88679819D01*
X144059523Y-89679819D02*
X143488095Y-89679819D01*
X143773809Y-89679819D02*
X143773809Y-88679819D01*
X143773809Y-88679819D02*
X143678571Y-88822676D01*
X143678571Y-88822676D02*
X143583333Y-88917914D01*
X143583333Y-88917914D02*
X143488095Y-88965533D01*
X124558333Y-94559580D02*
X124510714Y-94607200D01*
X124510714Y-94607200D02*
X124367857Y-94654819D01*
X124367857Y-94654819D02*
X124272619Y-94654819D01*
X124272619Y-94654819D02*
X124129762Y-94607200D01*
X124129762Y-94607200D02*
X124034524Y-94511961D01*
X124034524Y-94511961D02*
X123986905Y-94416723D01*
X123986905Y-94416723D02*
X123939286Y-94226247D01*
X123939286Y-94226247D02*
X123939286Y-94083390D01*
X123939286Y-94083390D02*
X123986905Y-93892914D01*
X123986905Y-93892914D02*
X124034524Y-93797676D01*
X124034524Y-93797676D02*
X124129762Y-93702438D01*
X124129762Y-93702438D02*
X124272619Y-93654819D01*
X124272619Y-93654819D02*
X124367857Y-93654819D01*
X124367857Y-93654819D02*
X124510714Y-93702438D01*
X124510714Y-93702438D02*
X124558333Y-93750057D01*
X124891667Y-93654819D02*
X125510714Y-93654819D01*
X125510714Y-93654819D02*
X125177381Y-94035771D01*
X125177381Y-94035771D02*
X125320238Y-94035771D01*
X125320238Y-94035771D02*
X125415476Y-94083390D01*
X125415476Y-94083390D02*
X125463095Y-94131009D01*
X125463095Y-94131009D02*
X125510714Y-94226247D01*
X125510714Y-94226247D02*
X125510714Y-94464342D01*
X125510714Y-94464342D02*
X125463095Y-94559580D01*
X125463095Y-94559580D02*
X125415476Y-94607200D01*
X125415476Y-94607200D02*
X125320238Y-94654819D01*
X125320238Y-94654819D02*
X125034524Y-94654819D01*
X125034524Y-94654819D02*
X124939286Y-94607200D01*
X124939286Y-94607200D02*
X124891667Y-94559580D01*
X137141666Y-96079819D02*
X137141666Y-96794104D01*
X137141666Y-96794104D02*
X137094047Y-96936961D01*
X137094047Y-96936961D02*
X136998809Y-97032200D01*
X136998809Y-97032200D02*
X136855952Y-97079819D01*
X136855952Y-97079819D02*
X136760714Y-97079819D01*
X138046428Y-96413152D02*
X138046428Y-97079819D01*
X137808333Y-96032200D02*
X137570238Y-96746485D01*
X137570238Y-96746485D02*
X138189285Y-96746485D01*
X129748809Y-91878628D02*
X129748809Y-92354819D01*
X129415476Y-91354819D02*
X129748809Y-91878628D01*
X129748809Y-91878628D02*
X130082142Y-91354819D01*
X130939285Y-92354819D02*
X130367857Y-92354819D01*
X130653571Y-92354819D02*
X130653571Y-91354819D01*
X130653571Y-91354819D02*
X130558333Y-91497676D01*
X130558333Y-91497676D02*
X130463095Y-91592914D01*
X130463095Y-91592914D02*
X130367857Y-91640533D01*
X134508333Y-94234580D02*
X134460714Y-94282200D01*
X134460714Y-94282200D02*
X134317857Y-94329819D01*
X134317857Y-94329819D02*
X134222619Y-94329819D01*
X134222619Y-94329819D02*
X134079762Y-94282200D01*
X134079762Y-94282200D02*
X133984524Y-94186961D01*
X133984524Y-94186961D02*
X133936905Y-94091723D01*
X133936905Y-94091723D02*
X133889286Y-93901247D01*
X133889286Y-93901247D02*
X133889286Y-93758390D01*
X133889286Y-93758390D02*
X133936905Y-93567914D01*
X133936905Y-93567914D02*
X133984524Y-93472676D01*
X133984524Y-93472676D02*
X134079762Y-93377438D01*
X134079762Y-93377438D02*
X134222619Y-93329819D01*
X134222619Y-93329819D02*
X134317857Y-93329819D01*
X134317857Y-93329819D02*
X134460714Y-93377438D01*
X134460714Y-93377438D02*
X134508333Y-93425057D01*
X135365476Y-93663152D02*
X135365476Y-94329819D01*
X135127381Y-93282200D02*
X134889286Y-93996485D01*
X134889286Y-93996485D02*
X135508333Y-93996485D01*
X122658333Y-110209580D02*
X122610714Y-110257200D01*
X122610714Y-110257200D02*
X122467857Y-110304819D01*
X122467857Y-110304819D02*
X122372619Y-110304819D01*
X122372619Y-110304819D02*
X122229762Y-110257200D01*
X122229762Y-110257200D02*
X122134524Y-110161961D01*
X122134524Y-110161961D02*
X122086905Y-110066723D01*
X122086905Y-110066723D02*
X122039286Y-109876247D01*
X122039286Y-109876247D02*
X122039286Y-109733390D01*
X122039286Y-109733390D02*
X122086905Y-109542914D01*
X122086905Y-109542914D02*
X122134524Y-109447676D01*
X122134524Y-109447676D02*
X122229762Y-109352438D01*
X122229762Y-109352438D02*
X122372619Y-109304819D01*
X122372619Y-109304819D02*
X122467857Y-109304819D01*
X122467857Y-109304819D02*
X122610714Y-109352438D01*
X122610714Y-109352438D02*
X122658333Y-109400057D01*
X123039286Y-109400057D02*
X123086905Y-109352438D01*
X123086905Y-109352438D02*
X123182143Y-109304819D01*
X123182143Y-109304819D02*
X123420238Y-109304819D01*
X123420238Y-109304819D02*
X123515476Y-109352438D01*
X123515476Y-109352438D02*
X123563095Y-109400057D01*
X123563095Y-109400057D02*
X123610714Y-109495295D01*
X123610714Y-109495295D02*
X123610714Y-109590533D01*
X123610714Y-109590533D02*
X123563095Y-109733390D01*
X123563095Y-109733390D02*
X122991667Y-110304819D01*
X122991667Y-110304819D02*
X123610714Y-110304819D01*
X108438095Y-89032200D02*
X108580952Y-89079819D01*
X108580952Y-89079819D02*
X108819047Y-89079819D01*
X108819047Y-89079819D02*
X108914285Y-89032200D01*
X108914285Y-89032200D02*
X108961904Y-88984580D01*
X108961904Y-88984580D02*
X109009523Y-88889342D01*
X109009523Y-88889342D02*
X109009523Y-88794104D01*
X109009523Y-88794104D02*
X108961904Y-88698866D01*
X108961904Y-88698866D02*
X108914285Y-88651247D01*
X108914285Y-88651247D02*
X108819047Y-88603628D01*
X108819047Y-88603628D02*
X108628571Y-88556009D01*
X108628571Y-88556009D02*
X108533333Y-88508390D01*
X108533333Y-88508390D02*
X108485714Y-88460771D01*
X108485714Y-88460771D02*
X108438095Y-88365533D01*
X108438095Y-88365533D02*
X108438095Y-88270295D01*
X108438095Y-88270295D02*
X108485714Y-88175057D01*
X108485714Y-88175057D02*
X108533333Y-88127438D01*
X108533333Y-88127438D02*
X108628571Y-88079819D01*
X108628571Y-88079819D02*
X108866666Y-88079819D01*
X108866666Y-88079819D02*
X109009523Y-88127438D01*
X109961904Y-89079819D02*
X109390476Y-89079819D01*
X109676190Y-89079819D02*
X109676190Y-88079819D01*
X109676190Y-88079819D02*
X109580952Y-88222676D01*
X109580952Y-88222676D02*
X109485714Y-88317914D01*
X109485714Y-88317914D02*
X109390476Y-88365533D01*
X101988094Y-121795180D02*
X101988094Y-122795180D01*
X101988094Y-122795180D02*
X101749999Y-122795180D01*
X101749999Y-122795180D02*
X101607142Y-122747561D01*
X101607142Y-122747561D02*
X101511904Y-122652323D01*
X101511904Y-122652323D02*
X101464285Y-122557085D01*
X101464285Y-122557085D02*
X101416666Y-122366609D01*
X101416666Y-122366609D02*
X101416666Y-122223752D01*
X101416666Y-122223752D02*
X101464285Y-122033276D01*
X101464285Y-122033276D02*
X101511904Y-121938038D01*
X101511904Y-121938038D02*
X101607142Y-121842800D01*
X101607142Y-121842800D02*
X101749999Y-121795180D01*
X101749999Y-121795180D02*
X101988094Y-121795180D01*
X100464285Y-121795180D02*
X101035713Y-121795180D01*
X100749999Y-121795180D02*
X100749999Y-122795180D01*
X100749999Y-122795180D02*
X100845237Y-122652323D01*
X100845237Y-122652323D02*
X100940475Y-122557085D01*
X100940475Y-122557085D02*
X101035713Y-122509466D01*
X185945180Y-91666666D02*
X185230895Y-91666666D01*
X185230895Y-91666666D02*
X185088038Y-91619047D01*
X185088038Y-91619047D02*
X184992800Y-91523809D01*
X184992800Y-91523809D02*
X184945180Y-91380952D01*
X184945180Y-91380952D02*
X184945180Y-91285714D01*
X184945180Y-92666666D02*
X184945180Y-92095238D01*
X184945180Y-92380952D02*
X185945180Y-92380952D01*
X185945180Y-92380952D02*
X185802323Y-92285714D01*
X185802323Y-92285714D02*
X185707085Y-92190476D01*
X185707085Y-92190476D02*
X185659466Y-92095238D01*
X140241666Y-112806009D02*
X139908333Y-112806009D01*
X139908333Y-113329819D02*
X139908333Y-112329819D01*
X139908333Y-112329819D02*
X140384523Y-112329819D01*
X141289285Y-113329819D02*
X140717857Y-113329819D01*
X141003571Y-113329819D02*
X141003571Y-112329819D01*
X141003571Y-112329819D02*
X140908333Y-112472676D01*
X140908333Y-112472676D02*
X140813095Y-112567914D01*
X140813095Y-112567914D02*
X140717857Y-112615533D01*
X106934523Y-112179819D02*
X106601190Y-111703628D01*
X106363095Y-112179819D02*
X106363095Y-111179819D01*
X106363095Y-111179819D02*
X106744047Y-111179819D01*
X106744047Y-111179819D02*
X106839285Y-111227438D01*
X106839285Y-111227438D02*
X106886904Y-111275057D01*
X106886904Y-111275057D02*
X106934523Y-111370295D01*
X106934523Y-111370295D02*
X106934523Y-111513152D01*
X106934523Y-111513152D02*
X106886904Y-111608390D01*
X106886904Y-111608390D02*
X106839285Y-111656009D01*
X106839285Y-111656009D02*
X106744047Y-111703628D01*
X106744047Y-111703628D02*
X106363095Y-111703628D01*
X107363095Y-112179819D02*
X107363095Y-111179819D01*
X107363095Y-111179819D02*
X107934523Y-112179819D01*
X107934523Y-112179819D02*
X107934523Y-111179819D01*
X108315476Y-111179819D02*
X108934523Y-111179819D01*
X108934523Y-111179819D02*
X108601190Y-111560771D01*
X108601190Y-111560771D02*
X108744047Y-111560771D01*
X108744047Y-111560771D02*
X108839285Y-111608390D01*
X108839285Y-111608390D02*
X108886904Y-111656009D01*
X108886904Y-111656009D02*
X108934523Y-111751247D01*
X108934523Y-111751247D02*
X108934523Y-111989342D01*
X108934523Y-111989342D02*
X108886904Y-112084580D01*
X108886904Y-112084580D02*
X108839285Y-112132200D01*
X108839285Y-112132200D02*
X108744047Y-112179819D01*
X108744047Y-112179819D02*
X108458333Y-112179819D01*
X108458333Y-112179819D02*
X108363095Y-112132200D01*
X108363095Y-112132200D02*
X108315476Y-112084580D01*
X134233333Y-110284580D02*
X134185714Y-110332200D01*
X134185714Y-110332200D02*
X134042857Y-110379819D01*
X134042857Y-110379819D02*
X133947619Y-110379819D01*
X133947619Y-110379819D02*
X133804762Y-110332200D01*
X133804762Y-110332200D02*
X133709524Y-110236961D01*
X133709524Y-110236961D02*
X133661905Y-110141723D01*
X133661905Y-110141723D02*
X133614286Y-109951247D01*
X133614286Y-109951247D02*
X133614286Y-109808390D01*
X133614286Y-109808390D02*
X133661905Y-109617914D01*
X133661905Y-109617914D02*
X133709524Y-109522676D01*
X133709524Y-109522676D02*
X133804762Y-109427438D01*
X133804762Y-109427438D02*
X133947619Y-109379819D01*
X133947619Y-109379819D02*
X134042857Y-109379819D01*
X134042857Y-109379819D02*
X134185714Y-109427438D01*
X134185714Y-109427438D02*
X134233333Y-109475057D01*
X135185714Y-110379819D02*
X134614286Y-110379819D01*
X134900000Y-110379819D02*
X134900000Y-109379819D01*
X134900000Y-109379819D02*
X134804762Y-109522676D01*
X134804762Y-109522676D02*
X134709524Y-109617914D01*
X134709524Y-109617914D02*
X134614286Y-109665533D01*
X112616666Y-109104819D02*
X112616666Y-109819104D01*
X112616666Y-109819104D02*
X112569047Y-109961961D01*
X112569047Y-109961961D02*
X112473809Y-110057200D01*
X112473809Y-110057200D02*
X112330952Y-110104819D01*
X112330952Y-110104819D02*
X112235714Y-110104819D01*
X112997619Y-109104819D02*
X113616666Y-109104819D01*
X113616666Y-109104819D02*
X113283333Y-109485771D01*
X113283333Y-109485771D02*
X113426190Y-109485771D01*
X113426190Y-109485771D02*
X113521428Y-109533390D01*
X113521428Y-109533390D02*
X113569047Y-109581009D01*
X113569047Y-109581009D02*
X113616666Y-109676247D01*
X113616666Y-109676247D02*
X113616666Y-109914342D01*
X113616666Y-109914342D02*
X113569047Y-110009580D01*
X113569047Y-110009580D02*
X113521428Y-110057200D01*
X113521428Y-110057200D02*
X113426190Y-110104819D01*
X113426190Y-110104819D02*
X113140476Y-110104819D01*
X113140476Y-110104819D02*
X113045238Y-110057200D01*
X113045238Y-110057200D02*
X112997619Y-110009580D01*
X131858333Y-116559580D02*
X131810714Y-116607200D01*
X131810714Y-116607200D02*
X131667857Y-116654819D01*
X131667857Y-116654819D02*
X131572619Y-116654819D01*
X131572619Y-116654819D02*
X131429762Y-116607200D01*
X131429762Y-116607200D02*
X131334524Y-116511961D01*
X131334524Y-116511961D02*
X131286905Y-116416723D01*
X131286905Y-116416723D02*
X131239286Y-116226247D01*
X131239286Y-116226247D02*
X131239286Y-116083390D01*
X131239286Y-116083390D02*
X131286905Y-115892914D01*
X131286905Y-115892914D02*
X131334524Y-115797676D01*
X131334524Y-115797676D02*
X131429762Y-115702438D01*
X131429762Y-115702438D02*
X131572619Y-115654819D01*
X131572619Y-115654819D02*
X131667857Y-115654819D01*
X131667857Y-115654819D02*
X131810714Y-115702438D01*
X131810714Y-115702438D02*
X131858333Y-115750057D01*
X132763095Y-115654819D02*
X132286905Y-115654819D01*
X132286905Y-115654819D02*
X132239286Y-116131009D01*
X132239286Y-116131009D02*
X132286905Y-116083390D01*
X132286905Y-116083390D02*
X132382143Y-116035771D01*
X132382143Y-116035771D02*
X132620238Y-116035771D01*
X132620238Y-116035771D02*
X132715476Y-116083390D01*
X132715476Y-116083390D02*
X132763095Y-116131009D01*
X132763095Y-116131009D02*
X132810714Y-116226247D01*
X132810714Y-116226247D02*
X132810714Y-116464342D01*
X132810714Y-116464342D02*
X132763095Y-116559580D01*
X132763095Y-116559580D02*
X132715476Y-116607200D01*
X132715476Y-116607200D02*
X132620238Y-116654819D01*
X132620238Y-116654819D02*
X132382143Y-116654819D01*
X132382143Y-116654819D02*
X132286905Y-116607200D01*
X132286905Y-116607200D02*
X132239286Y-116559580D01*
D14*
%TO.C,J2*%
X147000000Y-102250000D02*
X147000000Y-115750000D01*
X147000000Y-115750000D02*
X152000000Y-115750000D01*
X152000000Y-102250000D02*
X147000000Y-102250000D01*
X157000000Y-102250000D02*
X159500000Y-102250000D01*
X157000000Y-115750000D02*
X159500000Y-115750000D01*
D15*
%TO.C,C6*%
X128565000Y-112513748D02*
X128565000Y-113936252D01*
X130385000Y-112513748D02*
X130385000Y-113936252D01*
%TO.C,RN2*%
X143925000Y-107045000D02*
X144925000Y-107045000D01*
X143925000Y-110405000D02*
X144925000Y-110405000D01*
%TO.C,U1*%
X125400000Y-98750000D02*
X131400000Y-98750000D01*
X125400000Y-104750000D02*
X125400000Y-98750000D01*
X130400000Y-104750000D02*
X125400000Y-104750000D01*
X131400000Y-98750000D02*
X131400000Y-103750000D01*
X131400000Y-103750000D02*
X130400000Y-104750000D01*
D16*
X134055000Y-104500000D02*
G75*
G02*
X133745000Y-104500000I-155000J0D01*
G01*
X133745000Y-104500000D02*
G75*
G02*
X134055000Y-104500000I155000J0D01*
G01*
D15*
%TO.C,C7*%
X135865000Y-112513748D02*
X135865000Y-113936252D01*
X137685000Y-112513748D02*
X137685000Y-113936252D01*
%TO.C,RN1*%
X143925000Y-90120000D02*
X144925000Y-90120000D01*
X143925000Y-93480000D02*
X144925000Y-93480000D01*
%TO.C,C3*%
X125965000Y-94079620D02*
X125965000Y-94360780D01*
X126985000Y-94079620D02*
X126985000Y-94360780D01*
%TO.C,J4*%
X135470000Y-97780000D02*
X136800000Y-97780000D01*
X135470000Y-99110000D02*
X135470000Y-97780000D01*
X135470000Y-100380000D02*
X135470000Y-105520000D01*
X135470000Y-100380000D02*
X138130000Y-100380000D01*
X135470000Y-105520000D02*
X138130000Y-105520000D01*
X138130000Y-100380000D02*
X138130000Y-105520000D01*
%TO.C,Y1*%
X131675000Y-92645200D02*
X127675000Y-92645200D01*
X131675000Y-95945200D02*
X131675000Y-92645200D01*
%TO.C,C4*%
X132415000Y-94510780D02*
X132415000Y-94229620D01*
X133435000Y-94510780D02*
X133435000Y-94229620D01*
%TO.C,C2*%
X131736252Y-107665000D02*
X130313748Y-107665000D01*
X131736252Y-109485000D02*
X130313748Y-109485000D01*
%TO.C,S1*%
X101680000Y-85250000D02*
X103930000Y-85250000D01*
X101680000Y-92250000D02*
X101680000Y-85250000D01*
X103930000Y-92250000D02*
X101680000Y-92250000D01*
X104430000Y-88750000D02*
X105180000Y-88000000D01*
X104430000Y-88750000D02*
X105180000Y-89500000D01*
X106180000Y-88750000D02*
X104430000Y-88750000D01*
X106930000Y-85250000D02*
X107930000Y-85250000D01*
X107930000Y-85250000D02*
X107930000Y-92250000D01*
X107930000Y-92250000D02*
X106930000Y-92250000D01*
%TO.C,D1*%
X101000000Y-113250000D02*
X101000000Y-111250000D01*
X101000000Y-113250000D02*
G75*
G02*
X101000000Y-111250000I0J1000000D01*
G01*
D14*
%TO.C,J1*%
X147000000Y-85250000D02*
X147000000Y-98750000D01*
X147000000Y-98750000D02*
X152000000Y-98750000D01*
X152000000Y-85250000D02*
X147000000Y-85250000D01*
X157000000Y-85250000D02*
X159500000Y-85250000D01*
X157000000Y-98750000D02*
X159500000Y-98750000D01*
D15*
%TO.C,F1*%
X139947936Y-113790000D02*
X141152064Y-113790000D01*
X139947936Y-115610000D02*
X141152064Y-115610000D01*
%TO.C,RN3*%
X104975000Y-109945000D02*
X103975000Y-109945000D01*
X104975000Y-113305000D02*
X103975000Y-113305000D01*
%TO.C,C1*%
X125463748Y-107665000D02*
X126886252Y-107665000D01*
X125463748Y-109485000D02*
X126886252Y-109485000D01*
%TO.C,J3*%
X107470000Y-94000000D02*
X107470000Y-107000000D01*
X108470000Y-100500000D02*
X109220000Y-99750000D01*
X108470000Y-100500000D02*
X109220000Y-101250000D01*
X110220000Y-100500000D02*
X108470000Y-100500000D01*
%TO.C,C5*%
X131065000Y-112513748D02*
X131065000Y-113936252D01*
X132885000Y-112513748D02*
X132885000Y-113936252D01*
%TD*%
M02*
