%TF.GenerationSoftware,KiCad,Pcbnew,(7.0.0)*%
%TF.CreationDate,2023-02-18T15:18:28+00:00*%
%TF.ProjectId,frontcase,66726f6e-7463-4617-9365-2e6b69636164,rev?*%
%TF.SameCoordinates,Original*%
%TF.FileFunction,Copper,L2,Bot*%
%TF.FilePolarity,Positive*%
%FSLAX46Y46*%
G04 Gerber Fmt 4.6, Leading zero omitted, Abs format (unit mm)*
G04 Created by KiCad (PCBNEW (7.0.0)) date 2023-02-18 15:18:28*
%MOMM*%
%LPD*%
G01*
G04 APERTURE LIST*
%TA.AperFunction,ComponentPad*%
%ADD10C,5.000000*%
%TD*%
%TA.AperFunction,ComponentPad*%
%ADD11C,13.000000*%
%TD*%
G04 APERTURE END LIST*
D10*
%TO.P,REF\u002A\u002A,1*%
%TO.N,GND*%
X118250000Y-86000000D03*
X118250000Y-107500000D03*
X169750000Y-86000000D03*
X169750000Y-107500000D03*
D11*
%TO.P,REF\u002A\u002A,2*%
X127200000Y-96600000D03*
%TD*%
%TA.AperFunction,Conductor*%
%TO.N,GND*%
G36*
X173754119Y-81000770D02*
G01*
X173833648Y-81005982D01*
X174011461Y-81018699D01*
X174027024Y-81020796D01*
X174138397Y-81042949D01*
X174140394Y-81043364D01*
X174280143Y-81073765D01*
X174293806Y-81077557D01*
X174407737Y-81116232D01*
X174411067Y-81117417D01*
X174538725Y-81165031D01*
X174550384Y-81170065D01*
X174660600Y-81224418D01*
X174665254Y-81226835D01*
X174782421Y-81290812D01*
X174791994Y-81296608D01*
X174895238Y-81365594D01*
X174900724Y-81369477D01*
X175006668Y-81448786D01*
X175014216Y-81454906D01*
X175107936Y-81537097D01*
X175113953Y-81542733D01*
X175207265Y-81636045D01*
X175212901Y-81642062D01*
X175295092Y-81735782D01*
X175301218Y-81743337D01*
X175355338Y-81815633D01*
X175380519Y-81849271D01*
X175384413Y-81854773D01*
X175453382Y-81957993D01*
X175459196Y-81967595D01*
X175523162Y-82084742D01*
X175525580Y-82089398D01*
X175579925Y-82199597D01*
X175584975Y-82211293D01*
X175632549Y-82338843D01*
X175633794Y-82342342D01*
X175672434Y-82456170D01*
X175676240Y-82469881D01*
X175706613Y-82609506D01*
X175707071Y-82611708D01*
X175729200Y-82722959D01*
X175731300Y-82738551D01*
X175743993Y-82916021D01*
X175744044Y-82916768D01*
X175749230Y-82995880D01*
X175749500Y-83004122D01*
X175749500Y-108995878D01*
X175749230Y-109004120D01*
X175744044Y-109083230D01*
X175743993Y-109083977D01*
X175731300Y-109261447D01*
X175729200Y-109277039D01*
X175707071Y-109388290D01*
X175706613Y-109390492D01*
X175676240Y-109530117D01*
X175672432Y-109543836D01*
X175633806Y-109657624D01*
X175632549Y-109661155D01*
X175584975Y-109788705D01*
X175579925Y-109800401D01*
X175525580Y-109910600D01*
X175523162Y-109915256D01*
X175459196Y-110032403D01*
X175453373Y-110042021D01*
X175384415Y-110145222D01*
X175380519Y-110150727D01*
X175301230Y-110256646D01*
X175295092Y-110264216D01*
X175212901Y-110357936D01*
X175207265Y-110363953D01*
X175113953Y-110457265D01*
X175107936Y-110462901D01*
X175014216Y-110545092D01*
X175006646Y-110551230D01*
X174900727Y-110630519D01*
X174895222Y-110634415D01*
X174792021Y-110703373D01*
X174782403Y-110709196D01*
X174665256Y-110773162D01*
X174660600Y-110775580D01*
X174550401Y-110829925D01*
X174538705Y-110834975D01*
X174411155Y-110882549D01*
X174407624Y-110883806D01*
X174293836Y-110922432D01*
X174280117Y-110926240D01*
X174140492Y-110956613D01*
X174138290Y-110957071D01*
X174027039Y-110979200D01*
X174011447Y-110981300D01*
X173833977Y-110993993D01*
X173833230Y-110994044D01*
X173757750Y-110998992D01*
X173754118Y-110999230D01*
X173745878Y-110999500D01*
X114254122Y-110999500D01*
X114245881Y-110999230D01*
X114241591Y-110998948D01*
X114166768Y-110994044D01*
X114166021Y-110993993D01*
X113988551Y-110981300D01*
X113972959Y-110979200D01*
X113861708Y-110957071D01*
X113859506Y-110956613D01*
X113719881Y-110926240D01*
X113706170Y-110922434D01*
X113592342Y-110883794D01*
X113588856Y-110882553D01*
X113461294Y-110834975D01*
X113449597Y-110829925D01*
X113339398Y-110775580D01*
X113334742Y-110773162D01*
X113217595Y-110709196D01*
X113207993Y-110703382D01*
X113104773Y-110634413D01*
X113099267Y-110630516D01*
X112993349Y-110551227D01*
X112985781Y-110545091D01*
X112892062Y-110462902D01*
X112886044Y-110457265D01*
X112792733Y-110363954D01*
X112787096Y-110357936D01*
X112704907Y-110264217D01*
X112698771Y-110256649D01*
X112619482Y-110150731D01*
X112615596Y-110145241D01*
X112546608Y-110041994D01*
X112540812Y-110032421D01*
X112476835Y-109915254D01*
X112474418Y-109910600D01*
X112462630Y-109886697D01*
X112420065Y-109800384D01*
X112415031Y-109788725D01*
X112367417Y-109661067D01*
X112366232Y-109657737D01*
X112327557Y-109543806D01*
X112323765Y-109530143D01*
X112293364Y-109390394D01*
X112292949Y-109388397D01*
X112270796Y-109277024D01*
X112268699Y-109261461D01*
X112255977Y-109083570D01*
X112250770Y-109004119D01*
X112250500Y-108995880D01*
X112250500Y-103172127D01*
X138714661Y-103172127D01*
X138714756Y-103175756D01*
X138714756Y-103175758D01*
X138717056Y-103263582D01*
X138723167Y-103496973D01*
X138723677Y-103500562D01*
X138723678Y-103500564D01*
X138768441Y-103815090D01*
X138768443Y-103815103D01*
X138768954Y-103818689D01*
X138769872Y-103822191D01*
X138769875Y-103822202D01*
X138835690Y-104073069D01*
X138851415Y-104133010D01*
X138852729Y-104136382D01*
X138852731Y-104136386D01*
X138948400Y-104381766D01*
X138969456Y-104435770D01*
X139121513Y-104722957D01*
X139305571Y-104990763D01*
X139307952Y-104993492D01*
X139484153Y-105195475D01*
X139519191Y-105235639D01*
X139521867Y-105238074D01*
X139521872Y-105238079D01*
X139718127Y-105416658D01*
X139759539Y-105454340D01*
X140023432Y-105643966D01*
X140307371Y-105802004D01*
X140607593Y-105926360D01*
X140920118Y-106015385D01*
X141240804Y-106067900D01*
X141565401Y-106083207D01*
X141889607Y-106061105D01*
X142209123Y-106001886D01*
X142519715Y-105906336D01*
X142817267Y-105775720D01*
X143097834Y-105611770D01*
X143357697Y-105416658D01*
X143593413Y-105192972D01*
X143801857Y-104943676D01*
X143980267Y-104672074D01*
X144126276Y-104381766D01*
X144237951Y-104076600D01*
X144313811Y-103760621D01*
X144352850Y-103438017D01*
X144358420Y-103260786D01*
X144339714Y-102936367D01*
X144283844Y-102616248D01*
X144219788Y-102400000D01*
X150999459Y-102400000D01*
X150999500Y-102400099D01*
X150999617Y-102400383D01*
X151000000Y-102400541D01*
X151000099Y-102400500D01*
X164499901Y-102400500D01*
X164500000Y-102400541D01*
X164500383Y-102400383D01*
X164500500Y-102400099D01*
X164500541Y-102400000D01*
X164500500Y-102399901D01*
X164500500Y-96100099D01*
X164500541Y-96100000D01*
X164500383Y-96099617D01*
X164500099Y-96099500D01*
X164500000Y-96099459D01*
X164499901Y-96099500D01*
X151000099Y-96099500D01*
X151000000Y-96099459D01*
X150999901Y-96099500D01*
X150999617Y-96099617D01*
X150999459Y-96100000D01*
X150999500Y-96100099D01*
X150999500Y-102399901D01*
X150999459Y-102400000D01*
X144219788Y-102400000D01*
X144191551Y-102304672D01*
X144064059Y-102005769D01*
X144019116Y-101926976D01*
X143904852Y-101726651D01*
X143904849Y-101726647D01*
X143903055Y-101723501D01*
X143710676Y-101461608D01*
X143489471Y-101223563D01*
X143486717Y-101221211D01*
X143486713Y-101221207D01*
X143245142Y-101014887D01*
X143242371Y-101012520D01*
X142993040Y-100844976D01*
X142954314Y-100803598D01*
X142937641Y-100749434D01*
X142946392Y-100693440D01*
X142978794Y-100646950D01*
X143121333Y-100518032D01*
X143315865Y-100287939D01*
X143477993Y-100033970D01*
X143604823Y-99760658D01*
X143694093Y-99472879D01*
X143744209Y-99175770D01*
X143754277Y-98874631D01*
X143724118Y-98574838D01*
X143654269Y-98281739D01*
X143545977Y-98000566D01*
X143401175Y-97736335D01*
X143222446Y-97493762D01*
X143219527Y-97490744D01*
X143219523Y-97490739D01*
X143015909Y-97280205D01*
X143012980Y-97277176D01*
X142776515Y-97090442D01*
X142772900Y-97088301D01*
X142772896Y-97088298D01*
X142520895Y-96939038D01*
X142520893Y-96939037D01*
X142517270Y-96936891D01*
X142239872Y-96819264D01*
X142235819Y-96818153D01*
X142235814Y-96818152D01*
X141953335Y-96740773D01*
X141953331Y-96740772D01*
X141949271Y-96739660D01*
X141945100Y-96739099D01*
X141945095Y-96739098D01*
X141654829Y-96700061D01*
X141654819Y-96700060D01*
X141650653Y-96699500D01*
X141424756Y-96699500D01*
X141422672Y-96699639D01*
X141422657Y-96699640D01*
X141203564Y-96714306D01*
X141203549Y-96714307D01*
X141199366Y-96714588D01*
X141195253Y-96715423D01*
X141195238Y-96715426D01*
X140908229Y-96773764D01*
X140908227Y-96773764D01*
X140904097Y-96774604D01*
X140900118Y-96775985D01*
X140900113Y-96775987D01*
X140623454Y-96872054D01*
X140619463Y-96873440D01*
X140615691Y-96875345D01*
X140615691Y-96875346D01*
X140354307Y-97007428D01*
X140354295Y-97007434D01*
X140350541Y-97009332D01*
X140347077Y-97011709D01*
X140347065Y-97011717D01*
X140105600Y-97177474D01*
X140105593Y-97177479D01*
X140102131Y-97179856D01*
X140099015Y-97182674D01*
X140099009Y-97182679D01*
X139881792Y-97379141D01*
X139881787Y-97379145D01*
X139878667Y-97381968D01*
X139875955Y-97385174D01*
X139875945Y-97385186D01*
X139686851Y-97608847D01*
X139686842Y-97608858D01*
X139684135Y-97612061D01*
X139681876Y-97615598D01*
X139681869Y-97615609D01*
X139524279Y-97862470D01*
X139524275Y-97862476D01*
X139522007Y-97866030D01*
X139520234Y-97869850D01*
X139520230Y-97869858D01*
X139396949Y-98135522D01*
X139396945Y-98135530D01*
X139395177Y-98139342D01*
X139393933Y-98143351D01*
X139393930Y-98143360D01*
X139307154Y-98423097D01*
X139307149Y-98423114D01*
X139305907Y-98427121D01*
X139255791Y-98724230D01*
X139255650Y-98728430D01*
X139255650Y-98728436D01*
X139250763Y-98874631D01*
X139245723Y-99025369D01*
X139246143Y-99029553D01*
X139246144Y-99029554D01*
X139275459Y-99320963D01*
X139275460Y-99320971D01*
X139275882Y-99325162D01*
X139276858Y-99329260D01*
X139276859Y-99329262D01*
X139344753Y-99614160D01*
X139344755Y-99614169D01*
X139345731Y-99618261D01*
X139347243Y-99622188D01*
X139347246Y-99622196D01*
X139399026Y-99756639D01*
X139454023Y-99899434D01*
X139456045Y-99903123D01*
X139456047Y-99903128D01*
X139529700Y-100037529D01*
X139598825Y-100163665D01*
X139601318Y-100167049D01*
X139601319Y-100167050D01*
X139690390Y-100287939D01*
X139777554Y-100406238D01*
X139780471Y-100409254D01*
X139780476Y-100409260D01*
X139882560Y-100514813D01*
X139987020Y-100622824D01*
X140046630Y-100669897D01*
X140083375Y-100716927D01*
X140094356Y-100775593D01*
X140077106Y-100832730D01*
X140035496Y-100875518D01*
X139903863Y-100958090D01*
X139903846Y-100958102D01*
X139900779Y-100960026D01*
X139897943Y-100962297D01*
X139897936Y-100962303D01*
X139650008Y-101160930D01*
X139649998Y-101160938D01*
X139647172Y-101163203D01*
X139644628Y-101165773D01*
X139644621Y-101165780D01*
X139584814Y-101226217D01*
X139418598Y-101394183D01*
X139416364Y-101397031D01*
X139416357Y-101397040D01*
X139220328Y-101647047D01*
X139218088Y-101649904D01*
X139216200Y-101652984D01*
X139216193Y-101652995D01*
X139050195Y-101923879D01*
X139050189Y-101923890D01*
X139048298Y-101926976D01*
X139046770Y-101930265D01*
X139046766Y-101930275D01*
X138913010Y-102218427D01*
X138911479Y-102221726D01*
X138910339Y-102225172D01*
X138910339Y-102225173D01*
X138810584Y-102526804D01*
X138810581Y-102526814D01*
X138809445Y-102530250D01*
X138808709Y-102533800D01*
X138808708Y-102533807D01*
X138744283Y-102844906D01*
X138743548Y-102848456D01*
X138743227Y-102852052D01*
X138743225Y-102852066D01*
X138714984Y-103168505D01*
X138714661Y-103172127D01*
X112250500Y-103172127D01*
X112250500Y-93700000D01*
X150999459Y-93700000D01*
X150999500Y-93700099D01*
X150999617Y-93700383D01*
X151000000Y-93700541D01*
X151000099Y-93700500D01*
X164499901Y-93700500D01*
X164500000Y-93700541D01*
X164500383Y-93700383D01*
X164500500Y-93700099D01*
X164500541Y-93700000D01*
X164500500Y-93699901D01*
X164500500Y-87560099D01*
X164500541Y-87560000D01*
X164500383Y-87559617D01*
X164500099Y-87559500D01*
X164500000Y-87559459D01*
X164499901Y-87559500D01*
X151000099Y-87559500D01*
X151000000Y-87559459D01*
X150999901Y-87559500D01*
X150999617Y-87559617D01*
X150999459Y-87560000D01*
X150999500Y-87560099D01*
X150999500Y-93699901D01*
X150999459Y-93700000D01*
X112250500Y-93700000D01*
X112250500Y-83004120D01*
X112250770Y-82995882D01*
X112251089Y-82991005D01*
X112255983Y-82916339D01*
X112268700Y-82738534D01*
X112270795Y-82722979D01*
X112292958Y-82611556D01*
X112293355Y-82609648D01*
X112323767Y-82469847D01*
X112327554Y-82456202D01*
X112366246Y-82342220D01*
X112367402Y-82338974D01*
X112415037Y-82211260D01*
X112420058Y-82199629D01*
X112474440Y-82089355D01*
X112476814Y-82084784D01*
X112540824Y-81967558D01*
X112546595Y-81958025D01*
X112615620Y-81854722D01*
X112619458Y-81849300D01*
X112698791Y-81743323D01*
X112704886Y-81735806D01*
X112787124Y-81642031D01*
X112792703Y-81636075D01*
X112886075Y-81542703D01*
X112892031Y-81537124D01*
X112985806Y-81454886D01*
X112993323Y-81448791D01*
X113099300Y-81369458D01*
X113104722Y-81365620D01*
X113208025Y-81296595D01*
X113217558Y-81290824D01*
X113334784Y-81226814D01*
X113339355Y-81224440D01*
X113449629Y-81170058D01*
X113461260Y-81165037D01*
X113588974Y-81117402D01*
X113592220Y-81116246D01*
X113706202Y-81077554D01*
X113719847Y-81073767D01*
X113859648Y-81043355D01*
X113861556Y-81042958D01*
X113972979Y-81020795D01*
X113988534Y-81018700D01*
X114166339Y-81005983D01*
X114241005Y-81001089D01*
X114245882Y-81000770D01*
X114254120Y-81000500D01*
X173745880Y-81000500D01*
X173754119Y-81000770D01*
G37*
%TD.AperFunction*%
%TD*%
%TA.AperFunction,Conductor*%
%TO.N,GND*%
G36*
X173754119Y-81000770D02*
G01*
X173833648Y-81005982D01*
X174011461Y-81018699D01*
X174027024Y-81020796D01*
X174138397Y-81042949D01*
X174140394Y-81043364D01*
X174280143Y-81073765D01*
X174293806Y-81077557D01*
X174407737Y-81116232D01*
X174411067Y-81117417D01*
X174538725Y-81165031D01*
X174550384Y-81170065D01*
X174660600Y-81224418D01*
X174665254Y-81226835D01*
X174782421Y-81290812D01*
X174791994Y-81296608D01*
X174895238Y-81365594D01*
X174900724Y-81369477D01*
X175006668Y-81448786D01*
X175014216Y-81454906D01*
X175107936Y-81537097D01*
X175113953Y-81542733D01*
X175207265Y-81636045D01*
X175212901Y-81642062D01*
X175295092Y-81735782D01*
X175301218Y-81743337D01*
X175355338Y-81815633D01*
X175380519Y-81849271D01*
X175384413Y-81854773D01*
X175453382Y-81957993D01*
X175459196Y-81967595D01*
X175523162Y-82084742D01*
X175525580Y-82089398D01*
X175579925Y-82199597D01*
X175584975Y-82211293D01*
X175632549Y-82338843D01*
X175633794Y-82342342D01*
X175672434Y-82456170D01*
X175676240Y-82469881D01*
X175706613Y-82609506D01*
X175707071Y-82611708D01*
X175729200Y-82722959D01*
X175731300Y-82738551D01*
X175743993Y-82916021D01*
X175744044Y-82916768D01*
X175749230Y-82995880D01*
X175749500Y-83004122D01*
X175749500Y-108995878D01*
X175749230Y-109004120D01*
X175744044Y-109083230D01*
X175743993Y-109083977D01*
X175731300Y-109261447D01*
X175729200Y-109277039D01*
X175707071Y-109388290D01*
X175706613Y-109390492D01*
X175676240Y-109530117D01*
X175672432Y-109543836D01*
X175633806Y-109657624D01*
X175632549Y-109661155D01*
X175584975Y-109788705D01*
X175579925Y-109800401D01*
X175525580Y-109910600D01*
X175523162Y-109915256D01*
X175459196Y-110032403D01*
X175453373Y-110042021D01*
X175384415Y-110145222D01*
X175380519Y-110150727D01*
X175301230Y-110256646D01*
X175295092Y-110264216D01*
X175212901Y-110357936D01*
X175207265Y-110363953D01*
X175113953Y-110457265D01*
X175107936Y-110462901D01*
X175014216Y-110545092D01*
X175006646Y-110551230D01*
X174900727Y-110630519D01*
X174895222Y-110634415D01*
X174792021Y-110703373D01*
X174782403Y-110709196D01*
X174665256Y-110773162D01*
X174660600Y-110775580D01*
X174550401Y-110829925D01*
X174538705Y-110834975D01*
X174411155Y-110882549D01*
X174407624Y-110883806D01*
X174293836Y-110922432D01*
X174280117Y-110926240D01*
X174140492Y-110956613D01*
X174138290Y-110957071D01*
X174027039Y-110979200D01*
X174011447Y-110981300D01*
X173833977Y-110993993D01*
X173833230Y-110994044D01*
X173757750Y-110998992D01*
X173754118Y-110999230D01*
X173745878Y-110999500D01*
X114254122Y-110999500D01*
X114245881Y-110999230D01*
X114241591Y-110998948D01*
X114166768Y-110994044D01*
X114166021Y-110993993D01*
X113988551Y-110981300D01*
X113972959Y-110979200D01*
X113861708Y-110957071D01*
X113859506Y-110956613D01*
X113719881Y-110926240D01*
X113706170Y-110922434D01*
X113592342Y-110883794D01*
X113588856Y-110882553D01*
X113461294Y-110834975D01*
X113449597Y-110829925D01*
X113339398Y-110775580D01*
X113334742Y-110773162D01*
X113217595Y-110709196D01*
X113207993Y-110703382D01*
X113104773Y-110634413D01*
X113099267Y-110630516D01*
X112993349Y-110551227D01*
X112985781Y-110545091D01*
X112892062Y-110462902D01*
X112886044Y-110457265D01*
X112792733Y-110363954D01*
X112787096Y-110357936D01*
X112704907Y-110264217D01*
X112698771Y-110256649D01*
X112619482Y-110150731D01*
X112615596Y-110145241D01*
X112546608Y-110041994D01*
X112540812Y-110032421D01*
X112476835Y-109915254D01*
X112474418Y-109910600D01*
X112462630Y-109886697D01*
X112420065Y-109800384D01*
X112415031Y-109788725D01*
X112367417Y-109661067D01*
X112366232Y-109657737D01*
X112327557Y-109543806D01*
X112323765Y-109530143D01*
X112293364Y-109390394D01*
X112292949Y-109388397D01*
X112270796Y-109277024D01*
X112268699Y-109261461D01*
X112255977Y-109083570D01*
X112250770Y-109004119D01*
X112250500Y-108995880D01*
X112250500Y-103172127D01*
X138714661Y-103172127D01*
X138714756Y-103175756D01*
X138714756Y-103175758D01*
X138717056Y-103263582D01*
X138723167Y-103496973D01*
X138723677Y-103500562D01*
X138723678Y-103500564D01*
X138768441Y-103815090D01*
X138768443Y-103815103D01*
X138768954Y-103818689D01*
X138769872Y-103822191D01*
X138769875Y-103822202D01*
X138835690Y-104073069D01*
X138851415Y-104133010D01*
X138852729Y-104136382D01*
X138852731Y-104136386D01*
X138948400Y-104381766D01*
X138969456Y-104435770D01*
X139121513Y-104722957D01*
X139305571Y-104990763D01*
X139307952Y-104993492D01*
X139484153Y-105195475D01*
X139519191Y-105235639D01*
X139521867Y-105238074D01*
X139521872Y-105238079D01*
X139718127Y-105416658D01*
X139759539Y-105454340D01*
X140023432Y-105643966D01*
X140307371Y-105802004D01*
X140607593Y-105926360D01*
X140920118Y-106015385D01*
X141240804Y-106067900D01*
X141565401Y-106083207D01*
X141889607Y-106061105D01*
X142209123Y-106001886D01*
X142519715Y-105906336D01*
X142817267Y-105775720D01*
X143097834Y-105611770D01*
X143357697Y-105416658D01*
X143593413Y-105192972D01*
X143801857Y-104943676D01*
X143980267Y-104672074D01*
X144126276Y-104381766D01*
X144237951Y-104076600D01*
X144313811Y-103760621D01*
X144352850Y-103438017D01*
X144358420Y-103260786D01*
X144339714Y-102936367D01*
X144283844Y-102616248D01*
X144219788Y-102400000D01*
X150999459Y-102400000D01*
X150999500Y-102400099D01*
X150999617Y-102400383D01*
X151000000Y-102400541D01*
X151000099Y-102400500D01*
X164499901Y-102400500D01*
X164500000Y-102400541D01*
X164500383Y-102400383D01*
X164500500Y-102400099D01*
X164500541Y-102400000D01*
X164500500Y-102399901D01*
X164500500Y-96100099D01*
X164500541Y-96100000D01*
X164500383Y-96099617D01*
X164500099Y-96099500D01*
X164500000Y-96099459D01*
X164499901Y-96099500D01*
X151000099Y-96099500D01*
X151000000Y-96099459D01*
X150999901Y-96099500D01*
X150999617Y-96099617D01*
X150999459Y-96100000D01*
X150999500Y-96100099D01*
X150999500Y-102399901D01*
X150999459Y-102400000D01*
X144219788Y-102400000D01*
X144191551Y-102304672D01*
X144064059Y-102005769D01*
X144019116Y-101926976D01*
X143904852Y-101726651D01*
X143904849Y-101726647D01*
X143903055Y-101723501D01*
X143710676Y-101461608D01*
X143489471Y-101223563D01*
X143486717Y-101221211D01*
X143486713Y-101221207D01*
X143245142Y-101014887D01*
X143242371Y-101012520D01*
X142993040Y-100844976D01*
X142954314Y-100803598D01*
X142937641Y-100749434D01*
X142946392Y-100693440D01*
X142978794Y-100646950D01*
X143121333Y-100518032D01*
X143315865Y-100287939D01*
X143477993Y-100033970D01*
X143604823Y-99760658D01*
X143694093Y-99472879D01*
X143744209Y-99175770D01*
X143754277Y-98874631D01*
X143724118Y-98574838D01*
X143654269Y-98281739D01*
X143545977Y-98000566D01*
X143401175Y-97736335D01*
X143222446Y-97493762D01*
X143219527Y-97490744D01*
X143219523Y-97490739D01*
X143015909Y-97280205D01*
X143012980Y-97277176D01*
X142776515Y-97090442D01*
X142772900Y-97088301D01*
X142772896Y-97088298D01*
X142520895Y-96939038D01*
X142520893Y-96939037D01*
X142517270Y-96936891D01*
X142239872Y-96819264D01*
X142235819Y-96818153D01*
X142235814Y-96818152D01*
X141953335Y-96740773D01*
X141953331Y-96740772D01*
X141949271Y-96739660D01*
X141945100Y-96739099D01*
X141945095Y-96739098D01*
X141654829Y-96700061D01*
X141654819Y-96700060D01*
X141650653Y-96699500D01*
X141424756Y-96699500D01*
X141422672Y-96699639D01*
X141422657Y-96699640D01*
X141203564Y-96714306D01*
X141203549Y-96714307D01*
X141199366Y-96714588D01*
X141195253Y-96715423D01*
X141195238Y-96715426D01*
X140908229Y-96773764D01*
X140908227Y-96773764D01*
X140904097Y-96774604D01*
X140900118Y-96775985D01*
X140900113Y-96775987D01*
X140623454Y-96872054D01*
X140619463Y-96873440D01*
X140615691Y-96875345D01*
X140615691Y-96875346D01*
X140354307Y-97007428D01*
X140354295Y-97007434D01*
X140350541Y-97009332D01*
X140347077Y-97011709D01*
X140347065Y-97011717D01*
X140105600Y-97177474D01*
X140105593Y-97177479D01*
X140102131Y-97179856D01*
X140099015Y-97182674D01*
X140099009Y-97182679D01*
X139881792Y-97379141D01*
X139881787Y-97379145D01*
X139878667Y-97381968D01*
X139875955Y-97385174D01*
X139875945Y-97385186D01*
X139686851Y-97608847D01*
X139686842Y-97608858D01*
X139684135Y-97612061D01*
X139681876Y-97615598D01*
X139681869Y-97615609D01*
X139524279Y-97862470D01*
X139524275Y-97862476D01*
X139522007Y-97866030D01*
X139520234Y-97869850D01*
X139520230Y-97869858D01*
X139396949Y-98135522D01*
X139396945Y-98135530D01*
X139395177Y-98139342D01*
X139393933Y-98143351D01*
X139393930Y-98143360D01*
X139307154Y-98423097D01*
X139307149Y-98423114D01*
X139305907Y-98427121D01*
X139255791Y-98724230D01*
X139255650Y-98728430D01*
X139255650Y-98728436D01*
X139250763Y-98874631D01*
X139245723Y-99025369D01*
X139246143Y-99029553D01*
X139246144Y-99029554D01*
X139275459Y-99320963D01*
X139275460Y-99320971D01*
X139275882Y-99325162D01*
X139276858Y-99329260D01*
X139276859Y-99329262D01*
X139344753Y-99614160D01*
X139344755Y-99614169D01*
X139345731Y-99618261D01*
X139347243Y-99622188D01*
X139347246Y-99622196D01*
X139399026Y-99756639D01*
X139454023Y-99899434D01*
X139456045Y-99903123D01*
X139456047Y-99903128D01*
X139529700Y-100037529D01*
X139598825Y-100163665D01*
X139601318Y-100167049D01*
X139601319Y-100167050D01*
X139690390Y-100287939D01*
X139777554Y-100406238D01*
X139780471Y-100409254D01*
X139780476Y-100409260D01*
X139882560Y-100514813D01*
X139987020Y-100622824D01*
X140046630Y-100669897D01*
X140083375Y-100716927D01*
X140094356Y-100775593D01*
X140077106Y-100832730D01*
X140035496Y-100875518D01*
X139903863Y-100958090D01*
X139903846Y-100958102D01*
X139900779Y-100960026D01*
X139897943Y-100962297D01*
X139897936Y-100962303D01*
X139650008Y-101160930D01*
X139649998Y-101160938D01*
X139647172Y-101163203D01*
X139644628Y-101165773D01*
X139644621Y-101165780D01*
X139584814Y-101226217D01*
X139418598Y-101394183D01*
X139416364Y-101397031D01*
X139416357Y-101397040D01*
X139220328Y-101647047D01*
X139218088Y-101649904D01*
X139216200Y-101652984D01*
X139216193Y-101652995D01*
X139050195Y-101923879D01*
X139050189Y-101923890D01*
X139048298Y-101926976D01*
X139046770Y-101930265D01*
X139046766Y-101930275D01*
X138913010Y-102218427D01*
X138911479Y-102221726D01*
X138910339Y-102225172D01*
X138910339Y-102225173D01*
X138810584Y-102526804D01*
X138810581Y-102526814D01*
X138809445Y-102530250D01*
X138808709Y-102533800D01*
X138808708Y-102533807D01*
X138744283Y-102844906D01*
X138743548Y-102848456D01*
X138743227Y-102852052D01*
X138743225Y-102852066D01*
X138714984Y-103168505D01*
X138714661Y-103172127D01*
X112250500Y-103172127D01*
X112250500Y-93700000D01*
X150999459Y-93700000D01*
X150999500Y-93700099D01*
X150999617Y-93700383D01*
X151000000Y-93700541D01*
X151000099Y-93700500D01*
X164499901Y-93700500D01*
X164500000Y-93700541D01*
X164500383Y-93700383D01*
X164500500Y-93700099D01*
X164500541Y-93700000D01*
X164500500Y-93699901D01*
X164500500Y-87560099D01*
X164500541Y-87560000D01*
X164500383Y-87559617D01*
X164500099Y-87559500D01*
X164500000Y-87559459D01*
X164499901Y-87559500D01*
X151000099Y-87559500D01*
X151000000Y-87559459D01*
X150999901Y-87559500D01*
X150999617Y-87559617D01*
X150999459Y-87560000D01*
X150999500Y-87560099D01*
X150999500Y-93699901D01*
X150999459Y-93700000D01*
X112250500Y-93700000D01*
X112250500Y-83004120D01*
X112250770Y-82995882D01*
X112251089Y-82991005D01*
X112255983Y-82916339D01*
X112268700Y-82738534D01*
X112270795Y-82722979D01*
X112292958Y-82611556D01*
X112293355Y-82609648D01*
X112323767Y-82469847D01*
X112327554Y-82456202D01*
X112366246Y-82342220D01*
X112367402Y-82338974D01*
X112415037Y-82211260D01*
X112420058Y-82199629D01*
X112474440Y-82089355D01*
X112476814Y-82084784D01*
X112540824Y-81967558D01*
X112546595Y-81958025D01*
X112615620Y-81854722D01*
X112619458Y-81849300D01*
X112698791Y-81743323D01*
X112704886Y-81735806D01*
X112787124Y-81642031D01*
X112792703Y-81636075D01*
X112886075Y-81542703D01*
X112892031Y-81537124D01*
X112985806Y-81454886D01*
X112993323Y-81448791D01*
X113099300Y-81369458D01*
X113104722Y-81365620D01*
X113208025Y-81296595D01*
X113217558Y-81290824D01*
X113334784Y-81226814D01*
X113339355Y-81224440D01*
X113449629Y-81170058D01*
X113461260Y-81165037D01*
X113588974Y-81117402D01*
X113592220Y-81116246D01*
X113706202Y-81077554D01*
X113719847Y-81073767D01*
X113859648Y-81043355D01*
X113861556Y-81042958D01*
X113972979Y-81020795D01*
X113988534Y-81018700D01*
X114166339Y-81005983D01*
X114241005Y-81001089D01*
X114245882Y-81000770D01*
X114254120Y-81000500D01*
X173745880Y-81000500D01*
X173754119Y-81000770D01*
G37*
%TD.AperFunction*%
%TD*%
M02*
