%TF.GenerationSoftware,KiCad,Pcbnew,(6.0.6)*%
%TF.CreationDate,2022-08-23T20:39:57+01:00*%
%TF.ProjectId,rearcase,72656172-6361-4736-952e-6b696361645f,rev?*%
%TF.SameCoordinates,Original*%
%TF.FileFunction,Copper,L1,Top*%
%TF.FilePolarity,Positive*%
%FSLAX46Y46*%
G04 Gerber Fmt 4.6, Leading zero omitted, Abs format (unit mm)*
G04 Created by KiCad (PCBNEW (6.0.6)) date 2022-08-23 20:39:57*
%MOMM*%
%LPD*%
G01*
G04 APERTURE LIST*
%TA.AperFunction,ViaPad*%
%ADD10C,0.600000*%
%TD*%
G04 APERTURE END LIST*
D10*
%TO.N,GND*%
X171250000Y-105500000D03*
X171250000Y-90500000D03*
X136750000Y-90500000D03*
X136750000Y-105500000D03*
X154000000Y-96250000D03*
%TD*%
%TA.AperFunction,NonConductor*%
G36*
X171249962Y-86501066D02*
G01*
X171250000Y-86501082D01*
X171250034Y-86501068D01*
X171252903Y-86501134D01*
X171595532Y-86516975D01*
X171599579Y-86517174D01*
X171614092Y-86517887D01*
X171625314Y-86518943D01*
X171869912Y-86553063D01*
X171870991Y-86553219D01*
X171920889Y-86560620D01*
X171991252Y-86571058D01*
X172001582Y-86573035D01*
X172132766Y-86603889D01*
X172222031Y-86624884D01*
X172223798Y-86625313D01*
X172361543Y-86659816D01*
X172370970Y-86662572D01*
X172577622Y-86731836D01*
X172580027Y-86732669D01*
X172666825Y-86763725D01*
X172721632Y-86783335D01*
X172730050Y-86786694D01*
X172849388Y-86839387D01*
X172925337Y-86872922D01*
X172928315Y-86874283D01*
X173068246Y-86940465D01*
X173075684Y-86944291D01*
X173259894Y-87046896D01*
X173263306Y-87048867D01*
X173398231Y-87129738D01*
X173404659Y-87133861D01*
X173577392Y-87252185D01*
X173581162Y-87254873D01*
X173708621Y-87349403D01*
X173714058Y-87353671D01*
X173874464Y-87486871D01*
X173878585Y-87490447D01*
X173996613Y-87597421D01*
X174001092Y-87601686D01*
X174148314Y-87748908D01*
X174152579Y-87753387D01*
X174259553Y-87871415D01*
X174263129Y-87875536D01*
X174337462Y-87965052D01*
X174363176Y-87996017D01*
X174396329Y-88035942D01*
X174400591Y-88041371D01*
X174495127Y-88168838D01*
X174497815Y-88172608D01*
X174614347Y-88342725D01*
X174616138Y-88345339D01*
X174620261Y-88351768D01*
X174701133Y-88486694D01*
X174703104Y-88490106D01*
X174783810Y-88635000D01*
X174805708Y-88674314D01*
X174809535Y-88681754D01*
X174875717Y-88821685D01*
X174877078Y-88824663D01*
X174893547Y-88861961D01*
X174963306Y-89019950D01*
X174966665Y-89028368D01*
X174979588Y-89064485D01*
X175017331Y-89169973D01*
X175018164Y-89172378D01*
X175087428Y-89379030D01*
X175090184Y-89388457D01*
X175124687Y-89526202D01*
X175125116Y-89527969D01*
X175142296Y-89601011D01*
X175176965Y-89748418D01*
X175178942Y-89758748D01*
X175186476Y-89809536D01*
X175196781Y-89879009D01*
X175196937Y-89880088D01*
X175231057Y-90124686D01*
X175232113Y-90135908D01*
X175233006Y-90154075D01*
X175233023Y-90154415D01*
X175244850Y-90410237D01*
X175248866Y-90497097D01*
X175248932Y-90499966D01*
X175248918Y-90500000D01*
X175248934Y-90500038D01*
X175249000Y-90502916D01*
X175249000Y-97375757D01*
X175228998Y-97443878D01*
X175175342Y-97490371D01*
X175105068Y-97500475D01*
X175040488Y-97470981D01*
X175002104Y-97411255D01*
X174999030Y-97396804D01*
X174998891Y-97396831D01*
X174998241Y-97393425D01*
X174997780Y-97389991D01*
X174948203Y-97190404D01*
X174912367Y-97046136D01*
X174912365Y-97046129D01*
X174911530Y-97042768D01*
X174787698Y-96707108D01*
X174696822Y-96525238D01*
X174629326Y-96390156D01*
X174629322Y-96390149D01*
X174627780Y-96387063D01*
X174433709Y-96086499D01*
X174304419Y-95927691D01*
X174210012Y-95811729D01*
X174210005Y-95811722D01*
X174207827Y-95809046D01*
X173952863Y-95558056D01*
X173671897Y-95336560D01*
X173368322Y-95147234D01*
X173365196Y-95145733D01*
X173365187Y-95145728D01*
X173195759Y-95064370D01*
X173045804Y-94992363D01*
X173004019Y-94977689D01*
X172711499Y-94874963D01*
X172711491Y-94874961D01*
X172708240Y-94873819D01*
X172704878Y-94873040D01*
X172704872Y-94873038D01*
X172492887Y-94823903D01*
X172359705Y-94793033D01*
X172356288Y-94792629D01*
X172356279Y-94792627D01*
X172007115Y-94751301D01*
X172007114Y-94751301D01*
X172004411Y-94750981D01*
X172001696Y-94750896D01*
X172001687Y-94750895D01*
X171976731Y-94750111D01*
X171957286Y-94749500D01*
X171710183Y-94749500D01*
X171708464Y-94749595D01*
X171708449Y-94749595D01*
X171566311Y-94757418D01*
X171442766Y-94764217D01*
X171439354Y-94764785D01*
X171439344Y-94764786D01*
X171196045Y-94805283D01*
X171089847Y-94822959D01*
X170745505Y-94920073D01*
X170413900Y-95054387D01*
X170410848Y-95056034D01*
X170102086Y-95222633D01*
X170102082Y-95222636D01*
X170099036Y-95224279D01*
X170096188Y-95226248D01*
X170096187Y-95226248D01*
X169807557Y-95425731D01*
X169807551Y-95425735D01*
X169804716Y-95427695D01*
X169534496Y-95662181D01*
X169532148Y-95664721D01*
X169532146Y-95664723D01*
X169398735Y-95809046D01*
X169291638Y-95924903D01*
X169289579Y-95927691D01*
X169081140Y-96209894D01*
X169081135Y-96209902D01*
X169079077Y-96212688D01*
X168899379Y-96522060D01*
X168754715Y-96849283D01*
X168646833Y-97190404D01*
X168646158Y-97193797D01*
X168646156Y-97193805D01*
X168601182Y-97419906D01*
X168577034Y-97541304D01*
X168546163Y-97897744D01*
X168549271Y-98029639D01*
X168553347Y-98202575D01*
X168554592Y-98255419D01*
X168602220Y-98610009D01*
X168603056Y-98613373D01*
X168603056Y-98613375D01*
X168663782Y-98857842D01*
X168688470Y-98957232D01*
X168812302Y-99292892D01*
X168888756Y-99445899D01*
X168970674Y-99609844D01*
X168970678Y-99609851D01*
X168972220Y-99612937D01*
X169166291Y-99913501D01*
X169180414Y-99930848D01*
X169389988Y-100188271D01*
X169389995Y-100188278D01*
X169392173Y-100190954D01*
X169647137Y-100441944D01*
X169928103Y-100663440D01*
X170231678Y-100852766D01*
X170234804Y-100854267D01*
X170234813Y-100854272D01*
X170356590Y-100912748D01*
X170554196Y-101007637D01*
X170557465Y-101008785D01*
X170888501Y-101125037D01*
X170888509Y-101125039D01*
X170891760Y-101126181D01*
X170895122Y-101126960D01*
X170895128Y-101126962D01*
X171033671Y-101159074D01*
X171240295Y-101206967D01*
X171243712Y-101207371D01*
X171243721Y-101207373D01*
X171592885Y-101248699D01*
X171595589Y-101249019D01*
X171598304Y-101249104D01*
X171598313Y-101249105D01*
X171623269Y-101249889D01*
X171642714Y-101250500D01*
X171889817Y-101250500D01*
X171891536Y-101250405D01*
X171891551Y-101250405D01*
X172033689Y-101242582D01*
X172157234Y-101235783D01*
X172160646Y-101235215D01*
X172160656Y-101235214D01*
X172411406Y-101193477D01*
X172510153Y-101177041D01*
X172854495Y-101079927D01*
X173186100Y-100945613D01*
X173416038Y-100821545D01*
X173497914Y-100777367D01*
X173497918Y-100777364D01*
X173500964Y-100775721D01*
X173663422Y-100663440D01*
X173792443Y-100574269D01*
X173792449Y-100574265D01*
X173795284Y-100572305D01*
X174065504Y-100337819D01*
X174199019Y-100193384D01*
X174306014Y-100077637D01*
X174308362Y-100075097D01*
X174425738Y-99916183D01*
X174518860Y-99790106D01*
X174518865Y-99790098D01*
X174520923Y-99787312D01*
X174549302Y-99738455D01*
X174698880Y-99480937D01*
X174700621Y-99477940D01*
X174845285Y-99150717D01*
X174953167Y-98809596D01*
X174990037Y-98624243D01*
X174999421Y-98577064D01*
X175032329Y-98514155D01*
X175094024Y-98479023D01*
X175164919Y-98482823D01*
X175222505Y-98524349D01*
X175248499Y-98590416D01*
X175249000Y-98601646D01*
X175249000Y-105497084D01*
X175248934Y-105499962D01*
X175248918Y-105500000D01*
X175248932Y-105500034D01*
X175248866Y-105502903D01*
X175233024Y-105845558D01*
X175233006Y-105845925D01*
X175232113Y-105864092D01*
X175231057Y-105875314D01*
X175196937Y-106119912D01*
X175196781Y-106120991D01*
X175178942Y-106241252D01*
X175176965Y-106251582D01*
X175146111Y-106382766D01*
X175125116Y-106472031D01*
X175124687Y-106473798D01*
X175090184Y-106611543D01*
X175087428Y-106620970D01*
X175018164Y-106827622D01*
X175017331Y-106830027D01*
X174986275Y-106916825D01*
X174966665Y-106971632D01*
X174963306Y-106980050D01*
X174910613Y-107099388D01*
X174877078Y-107175337D01*
X174875717Y-107178315D01*
X174809535Y-107318246D01*
X174805709Y-107325684D01*
X174703104Y-107509894D01*
X174701133Y-107513306D01*
X174620262Y-107648231D01*
X174616139Y-107654659D01*
X174497815Y-107827392D01*
X174495127Y-107831162D01*
X174400597Y-107958621D01*
X174396329Y-107964058D01*
X174263129Y-108124464D01*
X174259553Y-108128585D01*
X174152579Y-108246613D01*
X174148314Y-108251092D01*
X174001092Y-108398314D01*
X173996613Y-108402579D01*
X173878585Y-108509553D01*
X173874464Y-108513129D01*
X173714058Y-108646329D01*
X173708629Y-108650591D01*
X173581162Y-108745127D01*
X173577392Y-108747815D01*
X173404661Y-108866138D01*
X173398232Y-108870261D01*
X173263306Y-108951133D01*
X173259894Y-108953104D01*
X173075686Y-109055708D01*
X173068246Y-109059535D01*
X172928315Y-109125717D01*
X172925337Y-109127078D01*
X172849388Y-109160613D01*
X172730050Y-109213306D01*
X172721632Y-109216665D01*
X172666825Y-109236275D01*
X172580027Y-109267331D01*
X172577622Y-109268164D01*
X172370970Y-109337428D01*
X172361543Y-109340184D01*
X172223798Y-109374687D01*
X172222031Y-109375116D01*
X172132766Y-109396111D01*
X172001582Y-109426965D01*
X171991252Y-109428942D01*
X171920889Y-109439380D01*
X171870991Y-109446781D01*
X171869912Y-109446937D01*
X171625314Y-109481057D01*
X171614092Y-109482113D01*
X171599579Y-109482826D01*
X171595532Y-109483025D01*
X171252903Y-109498866D01*
X171250034Y-109498932D01*
X171250000Y-109498918D01*
X171249962Y-109498934D01*
X171247084Y-109499000D01*
X136752916Y-109499000D01*
X136750038Y-109498934D01*
X136750000Y-109498918D01*
X136749966Y-109498932D01*
X136747097Y-109498866D01*
X136404468Y-109483025D01*
X136400421Y-109482826D01*
X136385908Y-109482113D01*
X136374686Y-109481057D01*
X136130088Y-109446937D01*
X136129009Y-109446781D01*
X136079111Y-109439380D01*
X136008748Y-109428942D01*
X135998418Y-109426965D01*
X135867234Y-109396111D01*
X135777969Y-109375116D01*
X135776202Y-109374687D01*
X135638457Y-109340184D01*
X135629030Y-109337428D01*
X135422378Y-109268164D01*
X135419973Y-109267331D01*
X135333175Y-109236275D01*
X135278368Y-109216665D01*
X135269950Y-109213306D01*
X135150612Y-109160613D01*
X135074663Y-109127078D01*
X135071685Y-109125717D01*
X134931754Y-109059535D01*
X134924314Y-109055708D01*
X134740106Y-108953104D01*
X134736694Y-108951133D01*
X134601768Y-108870261D01*
X134595339Y-108866138D01*
X134422608Y-108747815D01*
X134418838Y-108745127D01*
X134291371Y-108650591D01*
X134285942Y-108646329D01*
X134125536Y-108513129D01*
X134121415Y-108509553D01*
X134003387Y-108402579D01*
X133998908Y-108398314D01*
X133851686Y-108251092D01*
X133847421Y-108246613D01*
X133740447Y-108128585D01*
X133736871Y-108124464D01*
X133603671Y-107964058D01*
X133599403Y-107958621D01*
X133504873Y-107831162D01*
X133502185Y-107827392D01*
X133383861Y-107654659D01*
X133379738Y-107648231D01*
X133298867Y-107513306D01*
X133296896Y-107509894D01*
X133194291Y-107325684D01*
X133190465Y-107318246D01*
X133124283Y-107178315D01*
X133122922Y-107175337D01*
X133089387Y-107099388D01*
X133036694Y-106980050D01*
X133033335Y-106971632D01*
X133013725Y-106916825D01*
X132982669Y-106830027D01*
X132981836Y-106827622D01*
X132912572Y-106620970D01*
X132909816Y-106611543D01*
X132875313Y-106473798D01*
X132874884Y-106472031D01*
X132853889Y-106382766D01*
X132823035Y-106251582D01*
X132821058Y-106241252D01*
X132803219Y-106120991D01*
X132803063Y-106119912D01*
X132768943Y-105875314D01*
X132767887Y-105864092D01*
X132766994Y-105845925D01*
X132766976Y-105845558D01*
X132751134Y-105502903D01*
X132751068Y-105500034D01*
X132751082Y-105500000D01*
X132751066Y-105499962D01*
X132751000Y-105497084D01*
X132751000Y-103800000D01*
X164145052Y-103800000D01*
X164164812Y-104051069D01*
X164223604Y-104295956D01*
X164319981Y-104528631D01*
X164451570Y-104743365D01*
X164615130Y-104934870D01*
X164806635Y-105098430D01*
X165021369Y-105230019D01*
X165025939Y-105231912D01*
X165025943Y-105231914D01*
X165249471Y-105324502D01*
X165254044Y-105326396D01*
X165338907Y-105346770D01*
X165494118Y-105384033D01*
X165494124Y-105384034D01*
X165498931Y-105385188D01*
X165750000Y-105404948D01*
X166001069Y-105385188D01*
X166005876Y-105384034D01*
X166005882Y-105384033D01*
X166161093Y-105346770D01*
X166245956Y-105326396D01*
X166250529Y-105324502D01*
X166474057Y-105231914D01*
X166474061Y-105231912D01*
X166478631Y-105230019D01*
X166693365Y-105098430D01*
X166884870Y-104934870D01*
X167048430Y-104743365D01*
X167180019Y-104528631D01*
X167276396Y-104295956D01*
X167335188Y-104051069D01*
X167354948Y-103800000D01*
X167335188Y-103548931D01*
X167276396Y-103304044D01*
X167180019Y-103071369D01*
X167048430Y-102856635D01*
X166884870Y-102665130D01*
X166693365Y-102501570D01*
X166478631Y-102369981D01*
X166474061Y-102368088D01*
X166474057Y-102368086D01*
X166250529Y-102275498D01*
X166250527Y-102275497D01*
X166245956Y-102273604D01*
X166161093Y-102253230D01*
X166005882Y-102215967D01*
X166005876Y-102215966D01*
X166001069Y-102214812D01*
X165750000Y-102195052D01*
X165498931Y-102214812D01*
X165494124Y-102215966D01*
X165494118Y-102215967D01*
X165338907Y-102253230D01*
X165254044Y-102273604D01*
X165249473Y-102275497D01*
X165249471Y-102275498D01*
X165025943Y-102368086D01*
X165025939Y-102368088D01*
X165021369Y-102369981D01*
X164806635Y-102501570D01*
X164615130Y-102665130D01*
X164451570Y-102856635D01*
X164319981Y-103071369D01*
X164223604Y-103304044D01*
X164164812Y-103548931D01*
X164145052Y-103800000D01*
X132751000Y-103800000D01*
X132751000Y-103700000D01*
X147248918Y-103700000D01*
X147249000Y-103700198D01*
X147249235Y-103700765D01*
X147250000Y-103701082D01*
X147250198Y-103701000D01*
X160749802Y-103701000D01*
X160750000Y-103701082D01*
X160750765Y-103700765D01*
X160751000Y-103700198D01*
X160751082Y-103700000D01*
X160751000Y-103699802D01*
X160751000Y-97400198D01*
X160751082Y-97400000D01*
X160750765Y-97399235D01*
X160750198Y-97399000D01*
X160750000Y-97398918D01*
X160749802Y-97399000D01*
X147250198Y-97399000D01*
X147250000Y-97398918D01*
X147249802Y-97399000D01*
X147249235Y-97399235D01*
X147248918Y-97400000D01*
X147249000Y-97400198D01*
X147249000Y-103699802D01*
X147248918Y-103700000D01*
X132751000Y-103700000D01*
X132751000Y-98624243D01*
X132771002Y-98556122D01*
X132824658Y-98509629D01*
X132894932Y-98499525D01*
X132959512Y-98529019D01*
X132997896Y-98588745D01*
X133000970Y-98603196D01*
X133001109Y-98603169D01*
X133001759Y-98606574D01*
X133002220Y-98610009D01*
X133003056Y-98613373D01*
X133003056Y-98613375D01*
X133063782Y-98857842D01*
X133088470Y-98957232D01*
X133212302Y-99292892D01*
X133288756Y-99445899D01*
X133370674Y-99609844D01*
X133370678Y-99609851D01*
X133372220Y-99612937D01*
X133566291Y-99913501D01*
X133580414Y-99930848D01*
X133789988Y-100188271D01*
X133789995Y-100188278D01*
X133792173Y-100190954D01*
X134047137Y-100441944D01*
X134328103Y-100663440D01*
X134631678Y-100852766D01*
X134634804Y-100854267D01*
X134634813Y-100854272D01*
X134756590Y-100912748D01*
X134954196Y-101007637D01*
X134957465Y-101008785D01*
X135288501Y-101125037D01*
X135288509Y-101125039D01*
X135291760Y-101126181D01*
X135295122Y-101126960D01*
X135295128Y-101126962D01*
X135433671Y-101159074D01*
X135640295Y-101206967D01*
X135643712Y-101207371D01*
X135643721Y-101207373D01*
X135992885Y-101248699D01*
X135995589Y-101249019D01*
X135998304Y-101249104D01*
X135998313Y-101249105D01*
X136023269Y-101249889D01*
X136042714Y-101250500D01*
X136289817Y-101250500D01*
X136291536Y-101250405D01*
X136291551Y-101250405D01*
X136433689Y-101242582D01*
X136557234Y-101235783D01*
X136560646Y-101235215D01*
X136560656Y-101235214D01*
X136811406Y-101193477D01*
X136910153Y-101177041D01*
X137254495Y-101079927D01*
X137586100Y-100945613D01*
X137816038Y-100821545D01*
X137897914Y-100777367D01*
X137897918Y-100777364D01*
X137900964Y-100775721D01*
X138063422Y-100663440D01*
X138192443Y-100574269D01*
X138192449Y-100574265D01*
X138195284Y-100572305D01*
X138465504Y-100337819D01*
X138475287Y-100327236D01*
X139994958Y-100327236D01*
X139995321Y-100331384D01*
X139995321Y-100331389D01*
X140004780Y-100439508D01*
X140021014Y-100625065D01*
X140086232Y-100916832D01*
X140087676Y-100920756D01*
X140087676Y-100920757D01*
X140155142Y-101104126D01*
X140189464Y-101197410D01*
X140191415Y-101201110D01*
X140191417Y-101201115D01*
X140217405Y-101250405D01*
X140328898Y-101461870D01*
X140502084Y-101705565D01*
X140705979Y-101924216D01*
X140937000Y-102113979D01*
X141191090Y-102271521D01*
X141463783Y-102394074D01*
X141638027Y-102446018D01*
X141746290Y-102478293D01*
X141746292Y-102478293D01*
X141750289Y-102479485D01*
X141754409Y-102480138D01*
X141754411Y-102480138D01*
X141872423Y-102498829D01*
X142045575Y-102526254D01*
X142088135Y-102528187D01*
X142137659Y-102530436D01*
X142137678Y-102530436D01*
X142139078Y-102530500D01*
X142325834Y-102530500D01*
X142548309Y-102515723D01*
X142841377Y-102456630D01*
X143124056Y-102359296D01*
X143127789Y-102357427D01*
X143127793Y-102357425D01*
X143387640Y-102227303D01*
X143387642Y-102227302D01*
X143391378Y-102225431D01*
X143638647Y-102057387D01*
X143861520Y-101858117D01*
X144056079Y-101631120D01*
X144218908Y-101380386D01*
X144347145Y-101110319D01*
X144356601Y-101080869D01*
X144437258Y-100829651D01*
X144437258Y-100829650D01*
X144438538Y-100825664D01*
X144467396Y-100665278D01*
X144490741Y-100535531D01*
X144490742Y-100535526D01*
X144491480Y-100531422D01*
X144495544Y-100441944D01*
X144504853Y-100236934D01*
X144504853Y-100236929D01*
X144505042Y-100232764D01*
X144501150Y-100188271D01*
X144491004Y-100072309D01*
X144478986Y-99934935D01*
X144413768Y-99643168D01*
X144310536Y-99362590D01*
X144275423Y-99295991D01*
X144173055Y-99101834D01*
X144173054Y-99101833D01*
X144171102Y-99098130D01*
X143997916Y-98854435D01*
X143794021Y-98635784D01*
X143563000Y-98446021D01*
X143308910Y-98288479D01*
X143036217Y-98165926D01*
X142811007Y-98098788D01*
X142753710Y-98081707D01*
X142753708Y-98081707D01*
X142749711Y-98080515D01*
X142745591Y-98079862D01*
X142745589Y-98079862D01*
X142627577Y-98061171D01*
X142454425Y-98033746D01*
X142411865Y-98031813D01*
X142362341Y-98029564D01*
X142362322Y-98029564D01*
X142360922Y-98029500D01*
X142174166Y-98029500D01*
X141951691Y-98044277D01*
X141658623Y-98103370D01*
X141375944Y-98200704D01*
X141372211Y-98202573D01*
X141372207Y-98202575D01*
X141196268Y-98290679D01*
X141108622Y-98334569D01*
X140861353Y-98502613D01*
X140858239Y-98505397D01*
X140858238Y-98505398D01*
X140725316Y-98624243D01*
X140638480Y-98701883D01*
X140443921Y-98928880D01*
X140385986Y-99018092D01*
X140302013Y-99147399D01*
X140281092Y-99179614D01*
X140152855Y-99449681D01*
X140061462Y-99734336D01*
X140008520Y-100028578D01*
X140008331Y-100032745D01*
X140008330Y-100032752D01*
X139995147Y-100323066D01*
X139994958Y-100327236D01*
X138475287Y-100327236D01*
X138599019Y-100193384D01*
X138706014Y-100077637D01*
X138708362Y-100075097D01*
X138825738Y-99916183D01*
X138918860Y-99790106D01*
X138918865Y-99790098D01*
X138920923Y-99787312D01*
X138949302Y-99738455D01*
X139098880Y-99480937D01*
X139100621Y-99477940D01*
X139245285Y-99150717D01*
X139353167Y-98809596D01*
X139390037Y-98624243D01*
X139422291Y-98462089D01*
X139422966Y-98458696D01*
X139424255Y-98443820D01*
X139453538Y-98105712D01*
X139453538Y-98105706D01*
X139453837Y-98102256D01*
X139449099Y-97901212D01*
X139445490Y-97748045D01*
X139445489Y-97748038D01*
X139445408Y-97744581D01*
X139397780Y-97389991D01*
X139348203Y-97190404D01*
X139312367Y-97046136D01*
X139312365Y-97046129D01*
X139311530Y-97042768D01*
X139187698Y-96707108D01*
X139096822Y-96525238D01*
X139029326Y-96390156D01*
X139029322Y-96390149D01*
X139027780Y-96387063D01*
X138833709Y-96086499D01*
X138704419Y-95927691D01*
X138610012Y-95811729D01*
X138610005Y-95811722D01*
X138607827Y-95809046D01*
X138352863Y-95558056D01*
X138071897Y-95336560D01*
X137768322Y-95147234D01*
X137765196Y-95145733D01*
X137765187Y-95145728D01*
X137595759Y-95064370D01*
X137461708Y-95000000D01*
X147248918Y-95000000D01*
X147249000Y-95000198D01*
X147249235Y-95000765D01*
X147250000Y-95001082D01*
X147250198Y-95001000D01*
X160749802Y-95001000D01*
X160750000Y-95001082D01*
X160750765Y-95000765D01*
X160751000Y-95000198D01*
X160751082Y-95000000D01*
X160751000Y-94999802D01*
X160751000Y-88860198D01*
X160751082Y-88860000D01*
X160750765Y-88859235D01*
X160750198Y-88859000D01*
X160750000Y-88858918D01*
X160749802Y-88859000D01*
X147250198Y-88859000D01*
X147250000Y-88858918D01*
X147249802Y-88859000D01*
X147249235Y-88859235D01*
X147248918Y-88860000D01*
X147249000Y-88860198D01*
X147249000Y-94999802D01*
X147248918Y-95000000D01*
X137461708Y-95000000D01*
X137445804Y-94992363D01*
X137404019Y-94977689D01*
X137111499Y-94874963D01*
X137111491Y-94874961D01*
X137108240Y-94873819D01*
X137104878Y-94873040D01*
X137104872Y-94873038D01*
X136892887Y-94823903D01*
X136759705Y-94793033D01*
X136756288Y-94792629D01*
X136756279Y-94792627D01*
X136407115Y-94751301D01*
X136407114Y-94751301D01*
X136404411Y-94750981D01*
X136401696Y-94750896D01*
X136401687Y-94750895D01*
X136376731Y-94750111D01*
X136357286Y-94749500D01*
X136110183Y-94749500D01*
X136108464Y-94749595D01*
X136108449Y-94749595D01*
X135966311Y-94757418D01*
X135842766Y-94764217D01*
X135839354Y-94764785D01*
X135839344Y-94764786D01*
X135596045Y-94805283D01*
X135489847Y-94822959D01*
X135145505Y-94920073D01*
X134813900Y-95054387D01*
X134810848Y-95056034D01*
X134502086Y-95222633D01*
X134502082Y-95222636D01*
X134499036Y-95224279D01*
X134496188Y-95226248D01*
X134496187Y-95226248D01*
X134207557Y-95425731D01*
X134207551Y-95425735D01*
X134204716Y-95427695D01*
X133934496Y-95662181D01*
X133932148Y-95664721D01*
X133932146Y-95664723D01*
X133798735Y-95809046D01*
X133691638Y-95924903D01*
X133689579Y-95927691D01*
X133481140Y-96209894D01*
X133481135Y-96209902D01*
X133479077Y-96212688D01*
X133299379Y-96522060D01*
X133154715Y-96849283D01*
X133046833Y-97190404D01*
X133046158Y-97193797D01*
X133046156Y-97193805D01*
X133000579Y-97422936D01*
X132967671Y-97485845D01*
X132905976Y-97520977D01*
X132835081Y-97517177D01*
X132777495Y-97475651D01*
X132751501Y-97409584D01*
X132751000Y-97398354D01*
X132751000Y-93973924D01*
X139205894Y-93973924D01*
X139205969Y-93984484D01*
X139205977Y-93984871D01*
X139205978Y-93984930D01*
X139207453Y-94054288D01*
X139208789Y-94117130D01*
X141506515Y-94119694D01*
X143786124Y-94122234D01*
X143786125Y-94122234D01*
X143804241Y-94122254D01*
X143770008Y-94054288D01*
X143769331Y-94052922D01*
X143763393Y-94040769D01*
X143762131Y-94038109D01*
X143756885Y-94026704D01*
X143755694Y-94024033D01*
X143754350Y-94020923D01*
X143751013Y-94013200D01*
X143749828Y-94010359D01*
X143745964Y-94000761D01*
X143744623Y-93997278D01*
X143741910Y-93989908D01*
X143740287Y-93985213D01*
X143740040Y-93984451D01*
X143735433Y-93962112D01*
X143735078Y-93962169D01*
X143735000Y-93961685D01*
X143734968Y-93961689D01*
X143734809Y-93960505D01*
X143734584Y-93958826D01*
X143733963Y-93955541D01*
X143733117Y-93951870D01*
X143732060Y-93947853D01*
X143730803Y-93943524D01*
X143729360Y-93938923D01*
X143727743Y-93934086D01*
X143724040Y-93923853D01*
X143719797Y-93913124D01*
X143717945Y-93908800D01*
X143715384Y-93902823D01*
X143715376Y-93902805D01*
X143715116Y-93902198D01*
X143712644Y-93896754D01*
X143710100Y-93891373D01*
X143705440Y-93881446D01*
X143704442Y-93879263D01*
X143700307Y-93869992D01*
X143699440Y-93868002D01*
X143695401Y-93858510D01*
X143694568Y-93856506D01*
X143690895Y-93847444D01*
X143690036Y-93845266D01*
X143686857Y-93836984D01*
X143685893Y-93834389D01*
X143683510Y-93827745D01*
X143682311Y-93824239D01*
X143681040Y-93820335D01*
X143679389Y-93814843D01*
X143678596Y-93811969D01*
X143677956Y-93809554D01*
X143677488Y-93807710D01*
X143676609Y-93804619D01*
X143676369Y-93803849D01*
X143676356Y-93803805D01*
X143675854Y-93802197D01*
X143675631Y-93801480D01*
X143675401Y-93800799D01*
X143674778Y-93798953D01*
X143674764Y-93798914D01*
X143674562Y-93798315D01*
X143673413Y-93795148D01*
X143672194Y-93792001D01*
X143671440Y-93790223D01*
X143669992Y-93786813D01*
X143669587Y-93785858D01*
X143668219Y-93782907D01*
X143666823Y-93780067D01*
X143665407Y-93777359D01*
X143663982Y-93774808D01*
X143662559Y-93772434D01*
X143661147Y-93770262D01*
X143659757Y-93768314D01*
X143659775Y-93768301D01*
X143659580Y-93768014D01*
X143659683Y-93767944D01*
X143649476Y-93751685D01*
X143645394Y-93743739D01*
X143644086Y-93741119D01*
X143638673Y-93729947D01*
X143637785Y-93728076D01*
X143631374Y-93714252D01*
X143630744Y-93712867D01*
X143623745Y-93697210D01*
X143623181Y-93695925D01*
X143616008Y-93679328D01*
X143615402Y-93677902D01*
X143607896Y-93659931D01*
X143607879Y-93659891D01*
X143605780Y-93654861D01*
X143600102Y-93641252D01*
X143592337Y-93623224D01*
X143592226Y-93622974D01*
X143592197Y-93622908D01*
X143584941Y-93606594D01*
X143584940Y-93606591D01*
X143584804Y-93606286D01*
X143580711Y-93597393D01*
X143577928Y-93591348D01*
X143577915Y-93591320D01*
X143577710Y-93590875D01*
X143575751Y-93586791D01*
X143571564Y-93578061D01*
X143571551Y-93578034D01*
X143571260Y-93577428D01*
X143569018Y-93573007D01*
X143566183Y-93567416D01*
X143566169Y-93567389D01*
X143565659Y-93566384D01*
X143561113Y-93558179D01*
X143559300Y-93555278D01*
X143558013Y-93553507D01*
X143556991Y-93551992D01*
X143548946Y-93538272D01*
X143548094Y-93536583D01*
X143546136Y-93532522D01*
X143543763Y-93527367D01*
X143541909Y-93523139D01*
X143534407Y-93505133D01*
X143532817Y-93501124D01*
X143524543Y-93479178D01*
X143523369Y-93475929D01*
X143514955Y-93451612D01*
X143513918Y-93448486D01*
X143506084Y-93423773D01*
X143505018Y-93420230D01*
X143498290Y-93396621D01*
X143497396Y-93393312D01*
X143494928Y-93383663D01*
X143494244Y-93380856D01*
X143492146Y-93371791D01*
X143492142Y-93371777D01*
X143491817Y-93370371D01*
X143488020Y-93356842D01*
X143485340Y-93349419D01*
X143482258Y-93340884D01*
X143482248Y-93340857D01*
X143481811Y-93339648D01*
X143473445Y-93319264D01*
X143463175Y-93296167D01*
X143437940Y-93243736D01*
X143408139Y-93186165D01*
X143406864Y-93183841D01*
X143376183Y-93127952D01*
X143376175Y-93127938D01*
X143375804Y-93127262D01*
X143342966Y-93070836D01*
X143311657Y-93020697D01*
X143297212Y-92999174D01*
X143283910Y-92980652D01*
X143261736Y-92950667D01*
X143260840Y-92949439D01*
X143240421Y-92921115D01*
X143239430Y-92919721D01*
X143228700Y-92904384D01*
X143222765Y-92895901D01*
X143221574Y-92894167D01*
X143217804Y-92888582D01*
X143216181Y-92886177D01*
X143214729Y-92883977D01*
X143210849Y-92877959D01*
X143210126Y-92876824D01*
X143202880Y-92865318D01*
X143202570Y-92864825D01*
X143194911Y-92853099D01*
X143187480Y-92842202D01*
X143180231Y-92832085D01*
X143179730Y-92831424D01*
X143173668Y-92823427D01*
X143173656Y-92823412D01*
X143173115Y-92822698D01*
X143166085Y-92813991D01*
X143159091Y-92805917D01*
X143157742Y-92804473D01*
X143152978Y-92799377D01*
X143152973Y-92799372D01*
X143152087Y-92798424D01*
X143145025Y-92791465D01*
X143137855Y-92784990D01*
X143136779Y-92784102D01*
X143136768Y-92784093D01*
X143131613Y-92779841D01*
X143131601Y-92779831D01*
X143130531Y-92778949D01*
X143123004Y-92773293D01*
X143115227Y-92767973D01*
X143107150Y-92762939D01*
X143098728Y-92758143D01*
X143089910Y-92753535D01*
X143080544Y-92748687D01*
X143078033Y-92747350D01*
X143069719Y-92742802D01*
X143067439Y-92741523D01*
X143059200Y-92736787D01*
X143056988Y-92735485D01*
X143049275Y-92730833D01*
X143046860Y-92729338D01*
X143040304Y-92725175D01*
X143037377Y-92723260D01*
X143033989Y-92720974D01*
X143032637Y-92720062D01*
X143028795Y-92717362D01*
X143026582Y-92715745D01*
X143020796Y-92711254D01*
X143019925Y-92710537D01*
X143018790Y-92709556D01*
X143010541Y-92703080D01*
X142998384Y-92694969D01*
X142988397Y-92689059D01*
X142965456Y-92675483D01*
X142965429Y-92675468D01*
X142964446Y-92674886D01*
X142963430Y-92674335D01*
X142963406Y-92674321D01*
X142926410Y-92654244D01*
X142921170Y-92651400D01*
X142872753Y-92626605D01*
X142870681Y-92625597D01*
X142824028Y-92602907D01*
X142823389Y-92602596D01*
X142822745Y-92602301D01*
X142822724Y-92602291D01*
X142790433Y-92587496D01*
X142777273Y-92581466D01*
X142743298Y-92567271D01*
X142739921Y-92565860D01*
X142739918Y-92565859D01*
X142738602Y-92565309D01*
X142723368Y-92559750D01*
X142711569Y-92556219D01*
X142702947Y-92553843D01*
X142698102Y-92552403D01*
X142693028Y-92550781D01*
X142689274Y-92549581D01*
X142685882Y-92548443D01*
X142674614Y-92544485D01*
X142671936Y-92543511D01*
X142659134Y-92538684D01*
X142656864Y-92537801D01*
X142643430Y-92532425D01*
X142641187Y-92531501D01*
X142627811Y-92525842D01*
X142625416Y-92524799D01*
X142612759Y-92519132D01*
X142610052Y-92517881D01*
X142597150Y-92511730D01*
X142596242Y-92511299D01*
X142583550Y-92505280D01*
X142582783Y-92504916D01*
X142582025Y-92504581D01*
X142581996Y-92504568D01*
X142567900Y-92498344D01*
X142567890Y-92498340D01*
X142567252Y-92498058D01*
X142566631Y-92497800D01*
X142566611Y-92497792D01*
X142551598Y-92491568D01*
X142551552Y-92491550D01*
X142551049Y-92491341D01*
X142534666Y-92484950D01*
X142518595Y-92479073D01*
X142508104Y-92475515D01*
X142504223Y-92474199D01*
X142504212Y-92474196D01*
X142503329Y-92473896D01*
X142502439Y-92473622D01*
X142502425Y-92473618D01*
X142496010Y-92471647D01*
X142489358Y-92469603D01*
X142488153Y-92469284D01*
X142488145Y-92469282D01*
X142481191Y-92467443D01*
X142477176Y-92466381D01*
X142473101Y-92465359D01*
X142469943Y-92464521D01*
X142467221Y-92463761D01*
X142464372Y-92462929D01*
X142461284Y-92461987D01*
X142458662Y-92461154D01*
X142457884Y-92460897D01*
X142455942Y-92460257D01*
X142452208Y-92458958D01*
X142447288Y-92457160D01*
X142444819Y-92456258D01*
X142440026Y-92454395D01*
X142433536Y-92451718D01*
X142428595Y-92449555D01*
X142427676Y-92449129D01*
X142422427Y-92446696D01*
X142418386Y-92444734D01*
X142416964Y-92444012D01*
X142413949Y-92442430D01*
X142412717Y-92441762D01*
X142394337Y-92429604D01*
X142389677Y-92425897D01*
X142388786Y-92425240D01*
X142388758Y-92425218D01*
X142383190Y-92421110D01*
X142382472Y-92420580D01*
X142381756Y-92420082D01*
X142381737Y-92420068D01*
X142375192Y-92415512D01*
X142375146Y-92415481D01*
X142374540Y-92415059D01*
X142373905Y-92414639D01*
X142373883Y-92414624D01*
X142369709Y-92411863D01*
X142366137Y-92409500D01*
X142357523Y-92404070D01*
X142348955Y-92398936D01*
X142347359Y-92398034D01*
X142341540Y-92394744D01*
X142341522Y-92394734D01*
X142340692Y-92394265D01*
X142333001Y-92390228D01*
X142332994Y-92390221D01*
X142332993Y-92390223D01*
X142325092Y-92386075D01*
X142320762Y-92383692D01*
X142315402Y-92380604D01*
X142311064Y-92377987D01*
X142307886Y-92375982D01*
X142306071Y-92374836D01*
X142301765Y-92371993D01*
X142297175Y-92368825D01*
X142292878Y-92365724D01*
X142288651Y-92362536D01*
X142284408Y-92359191D01*
X142282290Y-92357447D01*
X142280491Y-92355964D01*
X142276312Y-92352363D01*
X142273928Y-92350217D01*
X142272746Y-92349152D01*
X142268681Y-92345324D01*
X142265418Y-92342112D01*
X142261401Y-92337973D01*
X142258433Y-92334771D01*
X142254620Y-92330464D01*
X142253775Y-92329464D01*
X142251898Y-92327243D01*
X142248228Y-92322690D01*
X142245726Y-92319432D01*
X142242260Y-92314690D01*
X142240002Y-92311444D01*
X142236704Y-92306451D01*
X142234670Y-92303206D01*
X142231589Y-92298018D01*
X142229776Y-92294792D01*
X142226940Y-92289451D01*
X142226336Y-92288244D01*
X143566221Y-92288244D01*
X143566775Y-92310932D01*
X143569266Y-92331990D01*
X143570000Y-92335219D01*
X143570001Y-92335227D01*
X143572295Y-92345324D01*
X143573698Y-92351497D01*
X143580078Y-92369531D01*
X143581829Y-92373027D01*
X143581831Y-92373033D01*
X143582734Y-92374836D01*
X143588410Y-92386172D01*
X143598700Y-92401498D01*
X143610954Y-92415590D01*
X143625177Y-92428525D01*
X143627876Y-92430501D01*
X143638472Y-92438259D01*
X143638479Y-92438264D01*
X143641374Y-92440383D01*
X143644492Y-92442160D01*
X143644497Y-92442163D01*
X143652528Y-92446739D01*
X143658935Y-92450390D01*
X143661239Y-92451466D01*
X143661245Y-92451469D01*
X143664222Y-92452859D01*
X143682540Y-92461413D01*
X143687900Y-92463607D01*
X143710513Y-92472864D01*
X143710534Y-92472872D01*
X143711413Y-92473232D01*
X143744775Y-92485632D01*
X143821858Y-92511299D01*
X143907568Y-92536670D01*
X143995684Y-92560002D01*
X144016329Y-92564790D01*
X144079061Y-92579339D01*
X144079080Y-92579343D01*
X144079985Y-92579553D01*
X144118761Y-92587365D01*
X144154251Y-92593578D01*
X144178365Y-92596952D01*
X144181817Y-92597435D01*
X144185676Y-92597975D01*
X144187261Y-92598116D01*
X144187263Y-92598116D01*
X144211131Y-92600236D01*
X144211141Y-92600237D01*
X144212259Y-92600336D01*
X144267807Y-92603292D01*
X144272059Y-92591529D01*
X144272061Y-92591527D01*
X144297226Y-92521912D01*
X144339195Y-92464649D01*
X144405460Y-92439165D01*
X144468959Y-92450547D01*
X144470810Y-92451409D01*
X144473814Y-92452859D01*
X144499081Y-92465463D01*
X144502882Y-92467440D01*
X144509798Y-92471190D01*
X144559414Y-92519918D01*
X144560555Y-92521935D01*
X144560797Y-92522346D01*
X144560820Y-92522386D01*
X144565218Y-92529856D01*
X144565429Y-92530214D01*
X144570808Y-92539043D01*
X144571016Y-92539373D01*
X144576504Y-92548101D01*
X144576572Y-92548210D01*
X144590136Y-92569832D01*
X144590803Y-92570907D01*
X144604793Y-92593728D01*
X144606770Y-92596952D01*
X144607268Y-92597771D01*
X144624037Y-92625597D01*
X144624569Y-92626488D01*
X144635573Y-92645092D01*
X144640073Y-92652700D01*
X144640238Y-92652973D01*
X144647429Y-92664882D01*
X144647453Y-92664920D01*
X144647827Y-92665540D01*
X144656536Y-92679207D01*
X144665905Y-92693281D01*
X144666213Y-92693726D01*
X144666232Y-92693754D01*
X144675300Y-92706856D01*
X144675638Y-92707344D01*
X144678449Y-92711254D01*
X144685041Y-92720424D01*
X144685069Y-92720462D01*
X144685437Y-92720974D01*
X144695008Y-92733752D01*
X144700140Y-92740280D01*
X144703441Y-92744479D01*
X144703458Y-92744500D01*
X144704054Y-92745258D01*
X144704687Y-92746014D01*
X144704707Y-92746038D01*
X144709221Y-92751425D01*
X144733751Y-92797577D01*
X144735398Y-92803313D01*
X144737774Y-92813025D01*
X144739478Y-92821425D01*
X144740884Y-92829806D01*
X144742334Y-92840679D01*
X144743098Y-92848063D01*
X144744056Y-92861046D01*
X144744369Y-92867663D01*
X144744677Y-92882344D01*
X144744659Y-92888368D01*
X144744226Y-92904384D01*
X144743947Y-92910022D01*
X144742718Y-92927102D01*
X144742220Y-92932435D01*
X144740171Y-92950276D01*
X144739470Y-92955438D01*
X144736589Y-92973793D01*
X144735693Y-92978829D01*
X144735330Y-92980652D01*
X144731983Y-92997467D01*
X144730871Y-93002512D01*
X144726353Y-93021175D01*
X144725009Y-93026258D01*
X144719723Y-93044693D01*
X144718110Y-93049893D01*
X144711170Y-93070653D01*
X144697128Y-93113162D01*
X144675086Y-93183841D01*
X144675028Y-93184033D01*
X144657015Y-93243371D01*
X144648064Y-93272856D01*
X144623105Y-93356842D01*
X144619149Y-93370154D01*
X144619021Y-93370352D01*
X144619084Y-93370371D01*
X144585460Y-93482774D01*
X144585275Y-93483386D01*
X144546591Y-93609728D01*
X144545578Y-93613038D01*
X144545386Y-93613658D01*
X144504550Y-93744613D01*
X144504320Y-93745345D01*
X144467136Y-93862082D01*
X144467036Y-93862394D01*
X144447563Y-93922986D01*
X144409340Y-94041916D01*
X144409298Y-94042050D01*
X144409285Y-94042091D01*
X144394464Y-94089467D01*
X144385313Y-94118717D01*
X144398368Y-94119303D01*
X144398369Y-94119303D01*
X144398971Y-94119330D01*
X144400960Y-94119419D01*
X144419788Y-94119694D01*
X144445520Y-94120070D01*
X144445556Y-94120070D01*
X144445804Y-94120074D01*
X144446069Y-94120076D01*
X144446184Y-94120077D01*
X144610507Y-94121186D01*
X145151932Y-94122213D01*
X145918552Y-94122213D01*
X145924263Y-94089467D01*
X145924338Y-94089041D01*
X145994066Y-93697210D01*
X145994165Y-93696660D01*
X146076903Y-93243371D01*
X146099980Y-93115047D01*
X146099984Y-93115021D01*
X146100037Y-93114729D01*
X146118553Y-93004037D01*
X146119157Y-93000000D01*
X146132427Y-92911211D01*
X146132546Y-92910416D01*
X146138176Y-92864825D01*
X146141955Y-92834227D01*
X146141956Y-92834214D01*
X146142108Y-92832986D01*
X146147332Y-92770870D01*
X146148312Y-92723187D01*
X146148154Y-92720424D01*
X146147530Y-92709556D01*
X146147239Y-92704484D01*
X146145141Y-92689059D01*
X146143932Y-92684298D01*
X146143363Y-92682062D01*
X146142027Y-92676802D01*
X146137911Y-92667605D01*
X146136445Y-92665431D01*
X146134175Y-92662445D01*
X146127411Y-92654244D01*
X146118003Y-92643423D01*
X146106333Y-92630405D01*
X146106071Y-92630119D01*
X146106024Y-92630067D01*
X146092998Y-92615846D01*
X146092783Y-92615611D01*
X146077736Y-92599462D01*
X146071996Y-92593396D01*
X146061863Y-92582687D01*
X146061804Y-92582625D01*
X146061574Y-92582382D01*
X146061384Y-92582184D01*
X146061220Y-92582012D01*
X146044841Y-92564957D01*
X146044458Y-92564557D01*
X146028499Y-92547792D01*
X146026791Y-92545962D01*
X146013399Y-92531322D01*
X146011240Y-92528899D01*
X146000003Y-92515961D01*
X145997380Y-92512840D01*
X145988278Y-92501640D01*
X145985129Y-92497599D01*
X145978118Y-92488212D01*
X145974433Y-92483007D01*
X145969452Y-92475582D01*
X145965345Y-92469035D01*
X145963754Y-92466317D01*
X145962162Y-92463595D01*
X145957821Y-92455518D01*
X145957749Y-92455370D01*
X145955737Y-92451275D01*
X145943547Y-92382265D01*
X145943704Y-92380803D01*
X145945112Y-92371199D01*
X145945423Y-92369531D01*
X145945829Y-92367347D01*
X145947565Y-92359438D01*
X145949364Y-92352345D01*
X145949629Y-92351297D01*
X145950208Y-92349101D01*
X145952338Y-92341298D01*
X145952356Y-92341230D01*
X145952465Y-92340831D01*
X145955240Y-92330070D01*
X145955342Y-92329649D01*
X145955359Y-92329580D01*
X145960954Y-92306427D01*
X145961072Y-92305939D01*
X145966696Y-92280856D01*
X145969209Y-92268904D01*
X145971405Y-92257851D01*
X145971751Y-92256071D01*
X145981118Y-92207792D01*
X145981198Y-92207383D01*
X145990809Y-92158711D01*
X145990813Y-92158690D01*
X145990946Y-92158016D01*
X145991065Y-92157337D01*
X145994410Y-92138218D01*
X145994411Y-92138209D01*
X145994668Y-92136742D01*
X145997332Y-92115570D01*
X145998953Y-92094586D01*
X145999274Y-92083466D01*
X145999506Y-92075417D01*
X145999506Y-92075400D01*
X145999550Y-92073876D01*
X145999140Y-92053527D01*
X145997742Y-92033625D01*
X145995373Y-92014255D01*
X145992051Y-91995503D01*
X145987793Y-91977457D01*
X145982618Y-91960201D01*
X145981142Y-91956221D01*
X145977300Y-91945863D01*
X145977294Y-91945849D01*
X145976542Y-91943821D01*
X145969584Y-91928405D01*
X145961762Y-91914037D01*
X145953092Y-91900805D01*
X145943594Y-91888794D01*
X145941458Y-91886576D01*
X145935823Y-91880725D01*
X145902976Y-91817784D01*
X145900873Y-91784727D01*
X145901679Y-91772935D01*
X145901682Y-91772887D01*
X145901739Y-91772048D01*
X145903384Y-91732873D01*
X145903667Y-91726134D01*
X145903667Y-91726120D01*
X145903748Y-91724194D01*
X145902828Y-91678416D01*
X145899039Y-91634816D01*
X145895881Y-91615025D01*
X145892828Y-91595895D01*
X145892826Y-91595882D01*
X145892444Y-91593492D01*
X145883105Y-91554546D01*
X145871085Y-91518079D01*
X145856445Y-91484191D01*
X145848162Y-91468245D01*
X145839248Y-91452982D01*
X145829710Y-91438414D01*
X145819556Y-91424553D01*
X145808794Y-91411413D01*
X145807619Y-91410129D01*
X145807607Y-91410116D01*
X145799416Y-91401172D01*
X145797432Y-91399005D01*
X145785477Y-91387343D01*
X145772937Y-91376439D01*
X145771521Y-91375345D01*
X145771510Y-91375336D01*
X145761253Y-91367412D01*
X145761250Y-91367410D01*
X145759820Y-91366305D01*
X145746133Y-91356954D01*
X145731885Y-91348398D01*
X145730266Y-91347550D01*
X145730256Y-91347545D01*
X145718710Y-91341502D01*
X145718708Y-91341501D01*
X145717084Y-91340651D01*
X145715437Y-91339908D01*
X145715419Y-91339899D01*
X145708091Y-91336593D01*
X145701736Y-91333725D01*
X145685850Y-91327632D01*
X145684154Y-91327090D01*
X145684140Y-91327085D01*
X145671140Y-91322930D01*
X145671131Y-91322927D01*
X145669434Y-91322385D01*
X145652495Y-91317996D01*
X145635041Y-91314478D01*
X145633414Y-91314239D01*
X145633406Y-91314238D01*
X145626832Y-91313274D01*
X145617080Y-91311844D01*
X145608157Y-91310613D01*
X145604727Y-91310091D01*
X145600911Y-91309456D01*
X145595913Y-91308625D01*
X145593260Y-91308154D01*
X145583067Y-91306232D01*
X145580774Y-91305778D01*
X145572354Y-91304028D01*
X145509729Y-91270582D01*
X145475127Y-91208588D01*
X145472032Y-91183756D01*
X145471971Y-91181253D01*
X145471903Y-91178490D01*
X145470329Y-91157839D01*
X145469699Y-91153068D01*
X145468623Y-91144934D01*
X145467726Y-91138143D01*
X145464109Y-91119431D01*
X145459496Y-91101732D01*
X145453902Y-91085074D01*
X145447343Y-91069484D01*
X145439837Y-91054993D01*
X145438411Y-91052734D01*
X145432921Y-91044038D01*
X145432916Y-91044031D01*
X145431399Y-91041628D01*
X145422045Y-91029417D01*
X145420009Y-91027227D01*
X145420003Y-91027220D01*
X145413921Y-91020679D01*
X145411792Y-91018389D01*
X145400656Y-91008573D01*
X145388653Y-90999996D01*
X145383975Y-90997336D01*
X145378631Y-90994297D01*
X145378621Y-90994292D01*
X145375800Y-90992688D01*
X145362112Y-90986676D01*
X145347607Y-90981990D01*
X145346825Y-90981751D01*
X145340202Y-90979727D01*
X145335038Y-90978027D01*
X145326877Y-90975143D01*
X145323613Y-90973939D01*
X145319487Y-90972351D01*
X145312162Y-90969533D01*
X145309800Y-90968595D01*
X145296372Y-90963107D01*
X145294531Y-90962337D01*
X145279728Y-90955988D01*
X145278027Y-90955242D01*
X145262934Y-90948481D01*
X145261094Y-90947639D01*
X145246228Y-90940691D01*
X145244220Y-90939731D01*
X145229214Y-90932392D01*
X145228969Y-90932272D01*
X145200061Y-90918425D01*
X145183020Y-90910262D01*
X145182998Y-90910252D01*
X145182042Y-90909794D01*
X145133874Y-90888694D01*
X145132956Y-90888327D01*
X145132945Y-90888322D01*
X145086321Y-90869663D01*
X145086291Y-90869651D01*
X145085385Y-90869289D01*
X145049783Y-90856359D01*
X145038503Y-90852262D01*
X145038494Y-90852259D01*
X145037492Y-90851895D01*
X144991113Y-90836828D01*
X144947166Y-90824403D01*
X144946184Y-90824161D01*
X144946158Y-90824154D01*
X144927186Y-90819477D01*
X144926391Y-90819281D01*
X144925605Y-90819109D01*
X144925593Y-90819106D01*
X144907458Y-90815133D01*
X144907459Y-90815133D01*
X144906568Y-90814938D01*
X144895789Y-90812913D01*
X144888931Y-90811624D01*
X144888918Y-90811622D01*
X144887812Y-90811414D01*
X144887826Y-90811337D01*
X144824326Y-90780371D01*
X144787467Y-90719692D01*
X144784165Y-90671892D01*
X144786095Y-90656193D01*
X144786189Y-90655439D01*
X144786792Y-90650771D01*
X144795887Y-90580298D01*
X144796961Y-90571172D01*
X144824245Y-90339194D01*
X144838607Y-90217091D01*
X144838719Y-90216031D01*
X144874132Y-89879009D01*
X144884177Y-89783411D01*
X144926435Y-89340748D01*
X144959217Y-88950592D01*
X144967194Y-88839526D01*
X144967791Y-88829077D01*
X144972142Y-88752960D01*
X144972143Y-88752931D01*
X144972196Y-88752007D01*
X144973953Y-88684882D01*
X144973531Y-88657983D01*
X144972837Y-88646026D01*
X144972306Y-88636869D01*
X144972304Y-88636852D01*
X144972197Y-88635000D01*
X144971831Y-88631871D01*
X144970210Y-88618043D01*
X144969917Y-88615539D01*
X144966659Y-88599207D01*
X144962389Y-88585609D01*
X144959368Y-88579213D01*
X144959232Y-88578924D01*
X144959229Y-88578919D01*
X144957072Y-88574352D01*
X144950676Y-88565041D01*
X144943167Y-88557282D01*
X144934512Y-88550682D01*
X144932479Y-88549476D01*
X144897605Y-88514011D01*
X144896916Y-88512952D01*
X144895418Y-88510594D01*
X144894109Y-88508481D01*
X144892719Y-88506182D01*
X144891390Y-88503928D01*
X144890028Y-88501558D01*
X144888819Y-88499399D01*
X144887448Y-88496885D01*
X144886306Y-88494731D01*
X144884938Y-88492073D01*
X144884551Y-88491298D01*
X144883262Y-88488719D01*
X144880848Y-88483959D01*
X144878200Y-88479154D01*
X144876734Y-88476679D01*
X144875836Y-88475163D01*
X144875818Y-88475133D01*
X144875346Y-88474337D01*
X144872310Y-88469541D01*
X144870548Y-88466920D01*
X144869570Y-88465465D01*
X144869552Y-88465439D01*
X144869121Y-88464798D01*
X144865805Y-88460140D01*
X144862387Y-88455600D01*
X144858895Y-88451210D01*
X144855356Y-88447003D01*
X144854783Y-88446361D01*
X144854766Y-88446341D01*
X144852436Y-88443730D01*
X144851795Y-88443011D01*
X144848240Y-88439266D01*
X144844716Y-88435802D01*
X144841251Y-88432650D01*
X144840616Y-88432123D01*
X144802349Y-88372377D01*
X144799970Y-88362240D01*
X144799882Y-88362259D01*
X144799429Y-88360145D01*
X144799052Y-88358041D01*
X144796890Y-88349402D01*
X144794139Y-88340836D01*
X144791540Y-88334214D01*
X144791507Y-88334129D01*
X144791501Y-88334114D01*
X144790809Y-88332352D01*
X144786913Y-88323961D01*
X144782463Y-88315671D01*
X144777471Y-88307494D01*
X144771949Y-88299438D01*
X144770182Y-88297119D01*
X144766841Y-88292737D01*
X144765909Y-88291514D01*
X144759363Y-88283731D01*
X144752324Y-88276100D01*
X144744804Y-88268629D01*
X144736814Y-88261329D01*
X144728366Y-88254209D01*
X144723487Y-88250407D01*
X144720368Y-88247976D01*
X144720347Y-88247960D01*
X144719474Y-88247280D01*
X144710148Y-88240551D01*
X144700402Y-88234032D01*
X144690246Y-88227733D01*
X144679694Y-88221663D01*
X144678836Y-88221206D01*
X144678815Y-88221194D01*
X144674283Y-88218779D01*
X144668757Y-88215833D01*
X144662213Y-88212603D01*
X144658327Y-88210685D01*
X144658311Y-88210677D01*
X144657447Y-88210251D01*
X144645777Y-88204929D01*
X144644915Y-88204566D01*
X144644891Y-88204556D01*
X144634576Y-88200219D01*
X144633758Y-88199875D01*
X144621403Y-88195100D01*
X144613973Y-88192471D01*
X144609550Y-88190906D01*
X144609534Y-88190901D01*
X144608724Y-88190614D01*
X144607915Y-88190353D01*
X144596553Y-88186689D01*
X144596527Y-88186681D01*
X144595733Y-88186425D01*
X144582441Y-88182545D01*
X144581626Y-88182331D01*
X144581611Y-88182327D01*
X144569713Y-88179205D01*
X144569693Y-88179200D01*
X144568862Y-88178982D01*
X144555007Y-88175747D01*
X144540888Y-88172849D01*
X144540193Y-88172723D01*
X144540175Y-88172720D01*
X144514623Y-88168105D01*
X144514601Y-88168101D01*
X144513813Y-88167959D01*
X144488992Y-88164124D01*
X144487929Y-88163996D01*
X144487917Y-88163994D01*
X144481434Y-88163211D01*
X144466291Y-88161383D01*
X144456821Y-88160649D01*
X144447272Y-88159908D01*
X144447259Y-88159907D01*
X144445578Y-88159777D01*
X144443884Y-88159738D01*
X144443882Y-88159738D01*
X144442080Y-88159697D01*
X144426718Y-88159344D01*
X144413459Y-88159949D01*
X144412229Y-88160005D01*
X144412228Y-88160005D01*
X144409578Y-88160126D01*
X144406951Y-88160470D01*
X144406946Y-88160470D01*
X144402453Y-88161058D01*
X144394025Y-88162160D01*
X144389602Y-88163078D01*
X144388516Y-88163303D01*
X144388506Y-88163305D01*
X144386802Y-88163659D01*
X144385122Y-88164106D01*
X144385112Y-88164108D01*
X144382829Y-88164715D01*
X144379926Y-88165487D01*
X144373380Y-88167647D01*
X144371540Y-88168385D01*
X144371531Y-88168388D01*
X144371484Y-88168407D01*
X144367147Y-88170146D01*
X144361210Y-88172988D01*
X144355554Y-88176178D01*
X144350161Y-88179720D01*
X144345015Y-88183621D01*
X144340099Y-88187884D01*
X144338685Y-88189277D01*
X144338680Y-88189281D01*
X144337372Y-88190569D01*
X144335396Y-88192515D01*
X144333600Y-88194627D01*
X144333597Y-88194630D01*
X144332934Y-88195410D01*
X144326563Y-88202901D01*
X144318383Y-88214817D01*
X144315910Y-88219172D01*
X144264878Y-88268530D01*
X144221120Y-88281676D01*
X144221165Y-88281989D01*
X144211901Y-88283309D01*
X144202861Y-88285366D01*
X144194071Y-88288144D01*
X144185557Y-88291624D01*
X144177345Y-88295790D01*
X144169459Y-88300624D01*
X144161926Y-88306108D01*
X144154772Y-88312227D01*
X144148022Y-88318963D01*
X144141702Y-88326297D01*
X144135838Y-88334214D01*
X144134628Y-88336121D01*
X144134625Y-88336125D01*
X144132519Y-88339443D01*
X144079129Y-88386240D01*
X144057622Y-88393583D01*
X144057696Y-88393858D01*
X144055204Y-88394533D01*
X144052685Y-88395106D01*
X144050231Y-88395880D01*
X144050225Y-88395882D01*
X144048217Y-88396516D01*
X144045279Y-88397443D01*
X144042975Y-88398377D01*
X144042963Y-88398381D01*
X144040308Y-88399457D01*
X144040298Y-88399461D01*
X144038066Y-88400366D01*
X144035912Y-88401438D01*
X144035900Y-88401443D01*
X144034686Y-88402047D01*
X144031095Y-88403834D01*
X144024415Y-88407812D01*
X144018076Y-88412262D01*
X144012128Y-88417147D01*
X144010389Y-88418814D01*
X144010380Y-88418822D01*
X144009310Y-88419848D01*
X144006618Y-88422429D01*
X144004960Y-88424292D01*
X144003323Y-88426130D01*
X144003314Y-88426141D01*
X144001597Y-88428070D01*
X144000042Y-88430138D01*
X144000039Y-88430142D01*
X143998521Y-88432162D01*
X143997114Y-88434033D01*
X143995090Y-88437124D01*
X143993218Y-88440281D01*
X143991506Y-88443500D01*
X143989958Y-88446777D01*
X143988583Y-88450105D01*
X143987384Y-88453482D01*
X143986370Y-88456902D01*
X143985969Y-88458583D01*
X143985768Y-88459427D01*
X143985545Y-88460360D01*
X143985354Y-88461281D01*
X143979660Y-88488719D01*
X143979060Y-88491608D01*
X143976554Y-88504374D01*
X143974563Y-88515524D01*
X143973106Y-88525278D01*
X143972202Y-88533853D01*
X143971868Y-88541468D01*
X143972124Y-88548341D01*
X143972987Y-88554690D01*
X143974477Y-88560734D01*
X143976612Y-88566690D01*
X143979410Y-88572777D01*
X143982890Y-88579213D01*
X143987070Y-88586216D01*
X143997229Y-88602206D01*
X143997984Y-88603411D01*
X144003945Y-88613063D01*
X144008916Y-88621113D01*
X144011530Y-88625547D01*
X144019921Y-88640466D01*
X144022868Y-88646026D01*
X144029556Y-88659444D01*
X144032632Y-88666093D01*
X144037859Y-88678311D01*
X144040837Y-88685948D01*
X144044895Y-88697454D01*
X144047517Y-88705800D01*
X144050644Y-88717117D01*
X144052714Y-88725794D01*
X144055096Y-88737619D01*
X144056519Y-88746209D01*
X144058207Y-88759155D01*
X144058998Y-88767254D01*
X144059956Y-88781957D01*
X144060220Y-88789257D01*
X144060340Y-88806211D01*
X144060224Y-88812547D01*
X144059828Y-88821685D01*
X144059377Y-88832068D01*
X144059032Y-88837406D01*
X144057102Y-88859794D01*
X144056651Y-88864133D01*
X144053564Y-88889497D01*
X144053083Y-88893030D01*
X144048795Y-88921515D01*
X144048346Y-88924286D01*
X144042828Y-88956108D01*
X144042441Y-88958235D01*
X144035559Y-88994242D01*
X144030179Y-89023125D01*
X144024325Y-89057687D01*
X144011948Y-89138642D01*
X143999930Y-89226700D01*
X143989773Y-89311452D01*
X143984218Y-89360356D01*
X143980441Y-89393600D01*
X143980340Y-89394463D01*
X143970539Y-89475739D01*
X143970423Y-89476666D01*
X143961343Y-89547538D01*
X143961138Y-89549065D01*
X143953836Y-89601011D01*
X143951369Y-89619005D01*
X143950628Y-89624406D01*
X143947174Y-89653973D01*
X143947130Y-89654414D01*
X143947125Y-89654463D01*
X143940561Y-89720763D01*
X143939961Y-89726824D01*
X143933067Y-89809959D01*
X143933033Y-89810464D01*
X143927536Y-89891206D01*
X143927361Y-89893772D01*
X143923759Y-89952221D01*
X143923652Y-89953949D01*
X143923578Y-89955067D01*
X143920317Y-90001281D01*
X143920118Y-90003758D01*
X143917074Y-90037424D01*
X143916558Y-90042137D01*
X143914744Y-90056239D01*
X143913490Y-90065987D01*
X143912642Y-90071578D01*
X143911430Y-90078520D01*
X143910502Y-90083292D01*
X143909270Y-90089032D01*
X143907974Y-90094480D01*
X143906836Y-90098830D01*
X143905182Y-90104589D01*
X143904434Y-90106978D01*
X143901597Y-90115059D01*
X143897667Y-90125145D01*
X143894438Y-90132695D01*
X143889690Y-90142867D01*
X143887400Y-90147772D01*
X143879458Y-90165261D01*
X143871455Y-90185322D01*
X143863440Y-90207739D01*
X143855463Y-90232299D01*
X143847572Y-90258787D01*
X143846796Y-90261610D01*
X143843956Y-90271938D01*
X143839816Y-90286991D01*
X143824905Y-90347685D01*
X143811120Y-90412670D01*
X143798852Y-90480232D01*
X143798723Y-90481083D01*
X143798721Y-90481096D01*
X143795011Y-90505604D01*
X143788493Y-90548660D01*
X143780434Y-90616242D01*
X143780409Y-90616467D01*
X143780399Y-90616555D01*
X143772840Y-90685116D01*
X143772650Y-90686745D01*
X143764896Y-90749555D01*
X143763701Y-90759232D01*
X143763512Y-90760688D01*
X143755518Y-90819477D01*
X143754313Y-90828338D01*
X143754014Y-90830407D01*
X143745867Y-90883490D01*
X143745599Y-90885236D01*
X143745526Y-90885705D01*
X143741736Y-90909794D01*
X143741629Y-90910471D01*
X143737707Y-90938394D01*
X143737654Y-90938811D01*
X143734056Y-90967078D01*
X143733899Y-90968310D01*
X143730308Y-90999277D01*
X143727040Y-91030356D01*
X143724197Y-91060605D01*
X143724167Y-91060976D01*
X143724163Y-91061020D01*
X143721931Y-91088499D01*
X143721927Y-91088560D01*
X143721884Y-91089084D01*
X143720204Y-91114851D01*
X143713767Y-91215293D01*
X143713648Y-91217144D01*
X143713492Y-91219285D01*
X143705359Y-91319417D01*
X143705172Y-91321509D01*
X143701875Y-91355145D01*
X143701875Y-91355146D01*
X143695720Y-91417940D01*
X143695495Y-91420050D01*
X143685064Y-91510066D01*
X143684756Y-91512499D01*
X143683628Y-91520752D01*
X143673763Y-91592928D01*
X143673268Y-91596227D01*
X143662164Y-91664037D01*
X143661267Y-91668913D01*
X143650835Y-91719940D01*
X143648713Y-91728702D01*
X143639255Y-91762448D01*
X143637336Y-91768670D01*
X143634798Y-91776199D01*
X143631739Y-91786301D01*
X143629197Y-91795930D01*
X143627172Y-91805111D01*
X143625665Y-91813870D01*
X143625470Y-91815524D01*
X143625469Y-91815531D01*
X143624970Y-91819767D01*
X143624679Y-91822234D01*
X143624212Y-91830228D01*
X143624268Y-91837877D01*
X143624847Y-91845209D01*
X143625949Y-91852247D01*
X143627577Y-91859020D01*
X143629731Y-91865551D01*
X143632413Y-91871867D01*
X143633595Y-91874123D01*
X143633596Y-91874126D01*
X143634487Y-91875828D01*
X143634493Y-91875839D01*
X143635622Y-91877994D01*
X143636920Y-91880064D01*
X143638137Y-91882183D01*
X143637206Y-91882718D01*
X143655330Y-91947063D01*
X143648992Y-91985156D01*
X143647516Y-91989629D01*
X143647005Y-91991145D01*
X143641482Y-92007195D01*
X143641011Y-92008539D01*
X143634180Y-92027684D01*
X143633906Y-92028444D01*
X143625823Y-92050647D01*
X143625686Y-92051023D01*
X143616718Y-92075417D01*
X143616087Y-92077132D01*
X143603243Y-92113447D01*
X143592297Y-92147579D01*
X143583253Y-92179605D01*
X143582950Y-92180880D01*
X143582949Y-92180883D01*
X143576647Y-92207383D01*
X143576118Y-92209606D01*
X143570898Y-92237660D01*
X143567597Y-92263846D01*
X143567474Y-92266019D01*
X143567474Y-92266024D01*
X143566638Y-92280856D01*
X143566221Y-92288244D01*
X142226336Y-92288244D01*
X142225264Y-92286101D01*
X142222681Y-92280608D01*
X142221191Y-92277231D01*
X142218890Y-92271654D01*
X142217555Y-92268184D01*
X142215517Y-92262478D01*
X142214343Y-92258923D01*
X142212590Y-92253154D01*
X142211573Y-92249495D01*
X142210107Y-92243690D01*
X142209245Y-92239899D01*
X142208064Y-92234073D01*
X142207356Y-92230101D01*
X142206457Y-92224270D01*
X142205916Y-92220118D01*
X142205300Y-92214359D01*
X142204937Y-92210027D01*
X142204590Y-92204337D01*
X142204416Y-92199802D01*
X142204325Y-92194182D01*
X142204355Y-92189392D01*
X142204511Y-92183865D01*
X142204763Y-92178844D01*
X142205147Y-92173484D01*
X142205638Y-92168217D01*
X142206239Y-92162967D01*
X142206986Y-92157468D01*
X142207789Y-92152347D01*
X142208815Y-92146583D01*
X142209791Y-92141668D01*
X142211122Y-92135612D01*
X142212266Y-92130851D01*
X142213901Y-92124590D01*
X142215206Y-92119957D01*
X142217853Y-92111203D01*
X142217881Y-92111109D01*
X142220365Y-92102814D01*
X142220367Y-92102808D01*
X142220770Y-92101461D01*
X142222494Y-92094586D01*
X142222838Y-92093212D01*
X142222840Y-92093202D01*
X142223212Y-92091719D01*
X142225171Y-92081913D01*
X142225833Y-92077455D01*
X142226413Y-92073542D01*
X142226414Y-92073536D01*
X142226645Y-92071977D01*
X142227628Y-92061844D01*
X142227944Y-92055125D01*
X142228044Y-92052984D01*
X142228044Y-92052981D01*
X142228116Y-92051449D01*
X142228105Y-92040723D01*
X142228038Y-92039272D01*
X142227711Y-92032206D01*
X142244542Y-91963233D01*
X142295991Y-91914310D01*
X142357331Y-91900437D01*
X142408893Y-91901975D01*
X142409682Y-91901978D01*
X142409690Y-91901978D01*
X142421883Y-91902022D01*
X142457366Y-91902151D01*
X142458361Y-91902123D01*
X142458388Y-91902123D01*
X142501124Y-91900934D01*
X142501145Y-91900933D01*
X142502332Y-91900900D01*
X142503523Y-91900822D01*
X142503544Y-91900821D01*
X142542479Y-91898270D01*
X142542482Y-91898270D01*
X142543928Y-91898175D01*
X142545358Y-91898017D01*
X142545365Y-91898016D01*
X142580615Y-91894112D01*
X142580629Y-91894110D01*
X142582291Y-91893926D01*
X142583949Y-91893652D01*
X142583959Y-91893651D01*
X142598766Y-91891207D01*
X142617556Y-91888106D01*
X142649860Y-91880667D01*
X142652045Y-91879992D01*
X142652052Y-91879990D01*
X142671030Y-91874126D01*
X142679338Y-91871559D01*
X142681784Y-91870571D01*
X142681789Y-91870569D01*
X142703346Y-91861860D01*
X142703354Y-91861856D01*
X142706127Y-91860736D01*
X142730364Y-91848148D01*
X142734818Y-91845209D01*
X142749270Y-91835671D01*
X142752184Y-91833748D01*
X142771723Y-91817488D01*
X142789118Y-91799318D01*
X142791708Y-91795930D01*
X142802505Y-91781808D01*
X142802511Y-91781799D01*
X142804505Y-91779191D01*
X142812805Y-91765598D01*
X142816464Y-91759606D01*
X142816466Y-91759603D01*
X142818019Y-91757059D01*
X142829798Y-91732873D01*
X142834436Y-91722261D01*
X142871191Y-91638150D01*
X142871198Y-91638133D01*
X142871508Y-91637424D01*
X142873397Y-91632798D01*
X142875301Y-91627482D01*
X142877209Y-91621536D01*
X142879106Y-91615025D01*
X142882820Y-91600555D01*
X142884133Y-91594598D01*
X142886139Y-91585494D01*
X142886141Y-91585483D01*
X142886342Y-91584572D01*
X142889568Y-91567575D01*
X142892396Y-91550065D01*
X142894725Y-91532541D01*
X142896452Y-91515505D01*
X142896993Y-91509956D01*
X142898265Y-91496888D01*
X142898661Y-91493349D01*
X142900689Y-91477309D01*
X142901230Y-91473503D01*
X142903603Y-91458468D01*
X142904316Y-91454388D01*
X142904319Y-91454376D01*
X142907015Y-91440310D01*
X142907925Y-91435976D01*
X142910934Y-91422803D01*
X142912066Y-91418239D01*
X142913190Y-91414046D01*
X142915360Y-91405950D01*
X142916744Y-91401172D01*
X142920284Y-91389792D01*
X142921956Y-91384788D01*
X142925738Y-91374213D01*
X142927722Y-91369030D01*
X142931710Y-91359259D01*
X142934021Y-91353950D01*
X142938215Y-91344893D01*
X142940877Y-91339489D01*
X142945250Y-91331124D01*
X142948287Y-91325649D01*
X142950721Y-91321509D01*
X142952843Y-91317898D01*
X142956229Y-91312459D01*
X142956660Y-91311805D01*
X142961000Y-91305215D01*
X142964729Y-91299861D01*
X142969701Y-91293104D01*
X142973757Y-91287884D01*
X142979002Y-91281490D01*
X142983336Y-91276482D01*
X142990267Y-91268886D01*
X142991968Y-91267058D01*
X143002838Y-91255609D01*
X143003948Y-91254440D01*
X143015224Y-91242096D01*
X143015799Y-91241428D01*
X143015822Y-91241402D01*
X143024106Y-91231776D01*
X143024978Y-91230763D01*
X143028910Y-91225778D01*
X143032411Y-91221338D01*
X143032413Y-91221335D01*
X143033250Y-91220274D01*
X143036844Y-91215293D01*
X143040082Y-91210459D01*
X143042970Y-91205753D01*
X143045512Y-91201153D01*
X143047715Y-91196638D01*
X143049582Y-91192187D01*
X143051119Y-91187778D01*
X143051677Y-91185759D01*
X143051749Y-91185500D01*
X143051752Y-91185486D01*
X143052331Y-91183392D01*
X143053223Y-91179007D01*
X143053801Y-91174602D01*
X143054068Y-91170156D01*
X143054030Y-91165648D01*
X143053692Y-91161057D01*
X143053060Y-91156363D01*
X143052137Y-91151544D01*
X143050930Y-91146579D01*
X143049443Y-91141447D01*
X143048407Y-91138319D01*
X143048146Y-91137530D01*
X143048142Y-91137518D01*
X143047681Y-91136127D01*
X143046882Y-91134043D01*
X143044928Y-91128945D01*
X143039217Y-91058179D01*
X143058233Y-91013303D01*
X143058683Y-91012689D01*
X143062775Y-91006177D01*
X143066512Y-90999224D01*
X143069894Y-90991835D01*
X143072921Y-90984012D01*
X143075594Y-90975759D01*
X143077910Y-90967078D01*
X143079871Y-90957973D01*
X143081476Y-90948446D01*
X143082726Y-90938501D01*
X143083618Y-90928141D01*
X143084155Y-90917369D01*
X143084334Y-90906189D01*
X143084157Y-90894602D01*
X143083623Y-90882613D01*
X143082731Y-90870225D01*
X143081482Y-90857440D01*
X143080791Y-90852262D01*
X143078089Y-90832035D01*
X143077910Y-90830694D01*
X143072905Y-90802400D01*
X143066466Y-90772583D01*
X143058591Y-90741267D01*
X143049279Y-90708479D01*
X143045446Y-90695348D01*
X143045560Y-90624353D01*
X143084039Y-90564688D01*
X143135556Y-90537877D01*
X143142972Y-90536005D01*
X143163669Y-90529769D01*
X143165160Y-90529236D01*
X143165167Y-90529234D01*
X143181886Y-90523261D01*
X143181898Y-90523256D01*
X143183500Y-90522684D01*
X143202597Y-90514659D01*
X143221094Y-90505604D01*
X143239124Y-90495426D01*
X143240638Y-90494451D01*
X143240647Y-90494446D01*
X143246170Y-90490890D01*
X143256820Y-90484035D01*
X143262062Y-90480232D01*
X143272996Y-90472298D01*
X143274315Y-90471341D01*
X143291742Y-90457250D01*
X143306373Y-90444222D01*
X143308235Y-90442564D01*
X143308246Y-90442554D01*
X143309234Y-90441674D01*
X143326924Y-90424520D01*
X143344946Y-90405698D01*
X143363432Y-90385116D01*
X143382516Y-90362683D01*
X143397738Y-90343957D01*
X143401610Y-90339194D01*
X143401616Y-90339187D01*
X143402330Y-90338308D01*
X143409080Y-90329380D01*
X143415224Y-90320287D01*
X143420758Y-90311017D01*
X143421600Y-90309399D01*
X143424806Y-90303238D01*
X143424813Y-90303223D01*
X143425679Y-90301559D01*
X143429986Y-90291901D01*
X143433676Y-90282031D01*
X143436745Y-90271938D01*
X143439192Y-90261610D01*
X143441013Y-90251036D01*
X143442206Y-90240204D01*
X143442767Y-90229102D01*
X143442696Y-90217719D01*
X143441988Y-90206043D01*
X143440641Y-90194063D01*
X143438653Y-90181767D01*
X143436020Y-90169143D01*
X143432741Y-90156180D01*
X143428811Y-90142867D01*
X143424230Y-90129190D01*
X143418993Y-90115140D01*
X143413523Y-90101743D01*
X143413427Y-90101507D01*
X143413414Y-90101476D01*
X143413099Y-90100705D01*
X143406545Y-90085872D01*
X143391444Y-90054968D01*
X143373669Y-90022336D01*
X143364052Y-90006148D01*
X143353699Y-89988723D01*
X143353200Y-89987883D01*
X143333011Y-89956217D01*
X143330463Y-89952221D01*
X143330458Y-89952213D01*
X143330014Y-89951517D01*
X143304090Y-89913145D01*
X143299679Y-89906620D01*
X143289260Y-89891206D01*
X143287590Y-89888670D01*
X143274949Y-89868962D01*
X143273187Y-89866134D01*
X143262078Y-89847763D01*
X143260183Y-89844521D01*
X143250773Y-89827856D01*
X143248707Y-89824042D01*
X143241172Y-89809531D01*
X143238795Y-89804704D01*
X143232953Y-89792170D01*
X143230916Y-89787562D01*
X143229301Y-89783701D01*
X143227832Y-89780027D01*
X143226515Y-89776578D01*
X143224894Y-89772078D01*
X143224170Y-89769942D01*
X143222488Y-89764592D01*
X143221702Y-89761882D01*
X143221049Y-89759546D01*
X143205708Y-89702575D01*
X143205657Y-89702384D01*
X143187450Y-89636820D01*
X143187308Y-89636301D01*
X143182597Y-89619005D01*
X143181815Y-89615987D01*
X143178229Y-89601408D01*
X143177306Y-89597370D01*
X143174569Y-89584421D01*
X143173627Y-89579479D01*
X143171593Y-89567513D01*
X143170767Y-89561889D01*
X143169337Y-89550346D01*
X143168745Y-89544425D01*
X143168160Y-89536741D01*
X143167835Y-89532463D01*
X143167530Y-89526702D01*
X143167141Y-89513622D01*
X143167097Y-89508242D01*
X143167292Y-89493446D01*
X143167442Y-89488750D01*
X143168313Y-89471608D01*
X143168574Y-89467703D01*
X143170206Y-89447937D01*
X143170512Y-89444731D01*
X143172982Y-89421936D01*
X143173279Y-89419432D01*
X143176635Y-89393346D01*
X143176895Y-89391439D01*
X143181176Y-89361754D01*
X143181386Y-89360356D01*
X143186561Y-89327116D01*
X143186778Y-89325767D01*
X143200061Y-89246138D01*
X143200311Y-89244695D01*
X143203243Y-89228295D01*
X143203550Y-89226640D01*
X143206704Y-89210264D01*
X143207018Y-89208690D01*
X143210263Y-89192926D01*
X143210594Y-89191365D01*
X143213852Y-89176537D01*
X143214262Y-89174736D01*
X143217310Y-89161798D01*
X143217880Y-89159477D01*
X143220499Y-89149241D01*
X143221404Y-89145898D01*
X143223113Y-89139909D01*
X143224942Y-89134045D01*
X143226597Y-89129167D01*
X143231521Y-89114425D01*
X143232150Y-89111822D01*
X143232153Y-89111810D01*
X143234887Y-89100486D01*
X143234888Y-89100482D01*
X143235421Y-89098274D01*
X143235974Y-89094946D01*
X143238001Y-89082726D01*
X143238322Y-89080793D01*
X143240248Y-89062062D01*
X143241267Y-89021164D01*
X143239720Y-88994402D01*
X143238788Y-88978284D01*
X143238787Y-88978275D01*
X143238668Y-88976214D01*
X143236428Y-88958235D01*
X143232856Y-88929578D01*
X143232856Y-88929577D01*
X143232640Y-88927845D01*
X143223373Y-88876692D01*
X143221202Y-88867294D01*
X143211360Y-88824706D01*
X143211055Y-88823386D01*
X143195876Y-88768562D01*
X143178025Y-88712854D01*
X143173002Y-88699030D01*
X143158094Y-88657999D01*
X143158085Y-88657976D01*
X143157692Y-88656894D01*
X143149539Y-88636869D01*
X143135534Y-88602467D01*
X143135526Y-88602449D01*
X143135065Y-88601316D01*
X143110335Y-88546754D01*
X143096958Y-88520189D01*
X143084322Y-88495095D01*
X143084312Y-88495076D01*
X143083690Y-88493841D01*
X143082700Y-88492073D01*
X143060036Y-88451627D01*
X143055320Y-88443210D01*
X143052690Y-88439013D01*
X143026358Y-88397002D01*
X143026357Y-88397000D01*
X143025414Y-88395496D01*
X142994161Y-88351331D01*
X142980669Y-88334593D01*
X142962960Y-88314381D01*
X142950130Y-88300738D01*
X142917744Y-88266301D01*
X142917724Y-88266280D01*
X142917150Y-88265670D01*
X142892812Y-88241209D01*
X142861684Y-88209923D01*
X142861671Y-88209910D01*
X142861236Y-88209473D01*
X142799722Y-88150064D01*
X142737114Y-88091716D01*
X142677916Y-88038704D01*
X142655370Y-88019622D01*
X142627480Y-87996017D01*
X142627474Y-87996012D01*
X142626635Y-87995302D01*
X142605370Y-87978539D01*
X142604366Y-87977811D01*
X142604342Y-87977793D01*
X142588839Y-87966555D01*
X142587773Y-87965782D01*
X142517082Y-87918922D01*
X142502682Y-87909376D01*
X142502645Y-87909352D01*
X142501987Y-87908916D01*
X142489993Y-87901404D01*
X142421550Y-87858538D01*
X142421539Y-87858532D01*
X142420705Y-87858009D01*
X142342850Y-87812506D01*
X142341880Y-87811984D01*
X142341868Y-87811977D01*
X142268393Y-87772417D01*
X142268379Y-87772410D01*
X142267343Y-87771852D01*
X142266289Y-87771336D01*
X142266268Y-87771325D01*
X142219243Y-87748294D01*
X142193106Y-87735493D01*
X142192258Y-87735109D01*
X142192243Y-87735102D01*
X142156690Y-87719006D01*
X142156127Y-87718751D01*
X142119061Y-87702874D01*
X142074003Y-87685176D01*
X142045259Y-87673886D01*
X142045249Y-87673882D01*
X142044128Y-87673442D01*
X142042301Y-87672805D01*
X141967624Y-87646777D01*
X141967231Y-87646640D01*
X141896958Y-87623265D01*
X141896317Y-87623050D01*
X141828486Y-87599930D01*
X141827800Y-87599693D01*
X141770429Y-87579603D01*
X141769005Y-87579092D01*
X141729127Y-87564461D01*
X141662124Y-87542046D01*
X141654306Y-87540067D01*
X141623406Y-87532246D01*
X141587138Y-87523066D01*
X141505387Y-87507489D01*
X141503860Y-87507276D01*
X141503851Y-87507274D01*
X141419422Y-87495469D01*
X141419411Y-87495468D01*
X141418090Y-87495283D01*
X141331175Y-87486871D01*
X141327642Y-87486529D01*
X141327636Y-87486529D01*
X141326463Y-87486415D01*
X141231725Y-87480854D01*
X141135094Y-87478568D01*
X141134064Y-87478578D01*
X141134048Y-87478578D01*
X141038857Y-87479513D01*
X141038828Y-87479514D01*
X141037788Y-87479524D01*
X140941024Y-87483690D01*
X140846022Y-87491034D01*
X140844892Y-87491163D01*
X140844869Y-87491165D01*
X140776910Y-87498912D01*
X140753998Y-87501524D01*
X140752734Y-87501720D01*
X140752725Y-87501721D01*
X140667590Y-87514908D01*
X140666170Y-87515128D01*
X140664780Y-87515409D01*
X140664760Y-87515413D01*
X140585446Y-87531472D01*
X140585438Y-87531474D01*
X140583758Y-87531814D01*
X140507977Y-87551548D01*
X140440048Y-87574301D01*
X140437486Y-87575421D01*
X140437484Y-87575422D01*
X140381948Y-87599705D01*
X140381931Y-87599712D01*
X140381187Y-87600038D01*
X140380457Y-87600380D01*
X140380443Y-87600386D01*
X140369387Y-87605561D01*
X140364753Y-87607617D01*
X140351205Y-87613304D01*
X140348065Y-87614572D01*
X140330646Y-87621336D01*
X140328208Y-87622255D01*
X140325343Y-87623299D01*
X140308358Y-87629491D01*
X140306242Y-87630241D01*
X140293849Y-87634511D01*
X140284784Y-87637633D01*
X140282894Y-87638267D01*
X140260730Y-87645485D01*
X140258779Y-87646102D01*
X140236891Y-87652811D01*
X140234607Y-87653486D01*
X140217651Y-87658322D01*
X140212966Y-87659658D01*
X140212233Y-87659864D01*
X140165789Y-87672805D01*
X140165679Y-87672837D01*
X140165254Y-87672955D01*
X140122457Y-87685547D01*
X140121835Y-87685745D01*
X140084495Y-87697623D01*
X140084470Y-87697631D01*
X140083591Y-87697911D01*
X140082699Y-87698225D01*
X140049265Y-87709990D01*
X140049251Y-87709995D01*
X140048115Y-87710395D01*
X140046964Y-87710852D01*
X140016907Y-87722783D01*
X140016896Y-87722788D01*
X140015487Y-87723347D01*
X140014119Y-87723968D01*
X140014110Y-87723972D01*
X140003930Y-87728595D01*
X139985168Y-87737114D01*
X139956617Y-87752046D01*
X139955014Y-87753011D01*
X139955001Y-87753018D01*
X139935804Y-87764571D01*
X139929294Y-87768489D01*
X139927751Y-87769549D01*
X139927739Y-87769557D01*
X139910346Y-87781509D01*
X139902657Y-87786793D01*
X139876167Y-87807305D01*
X139849282Y-87830374D01*
X139821462Y-87856347D01*
X139792167Y-87885572D01*
X139791686Y-87886076D01*
X139791651Y-87886112D01*
X139761331Y-87917900D01*
X139760856Y-87918398D01*
X139760388Y-87918912D01*
X139760379Y-87918922D01*
X139717741Y-87965782D01*
X139690023Y-87996245D01*
X139643171Y-88051260D01*
X139598216Y-88109112D01*
X139597436Y-88110209D01*
X139556455Y-88167830D01*
X139555311Y-88169438D01*
X139554632Y-88170479D01*
X139554627Y-88170487D01*
X139540269Y-88192515D01*
X139514612Y-88231876D01*
X139476274Y-88296065D01*
X139475703Y-88297110D01*
X139475698Y-88297119D01*
X139442418Y-88358041D01*
X139440450Y-88361643D01*
X139439916Y-88362716D01*
X139407827Y-88427180D01*
X139407815Y-88427206D01*
X139407296Y-88428248D01*
X139406805Y-88429336D01*
X139406805Y-88429337D01*
X139378870Y-88491298D01*
X139376967Y-88495518D01*
X139376518Y-88496627D01*
X139376516Y-88496632D01*
X139351769Y-88557775D01*
X139349617Y-88563091D01*
X139349196Y-88564264D01*
X139349194Y-88564270D01*
X139348326Y-88566690D01*
X139325402Y-88630605D01*
X139304476Y-88697699D01*
X139286993Y-88764010D01*
X139286683Y-88765466D01*
X139286679Y-88765482D01*
X139282391Y-88785610D01*
X139273110Y-88829176D01*
X139262980Y-88892836D01*
X139262800Y-88894624D01*
X139262798Y-88894639D01*
X139256962Y-88952598D01*
X139256758Y-88954628D01*
X139254599Y-89014190D01*
X139254657Y-89016232D01*
X139256490Y-89080793D01*
X139256860Y-89093841D01*
X139256929Y-89094923D01*
X139256930Y-89094946D01*
X139262073Y-89175641D01*
X139263235Y-89193879D01*
X139263286Y-89194478D01*
X139263289Y-89194516D01*
X139272797Y-89305807D01*
X139272839Y-89306294D01*
X139272890Y-89306794D01*
X139272893Y-89306824D01*
X139277890Y-89355654D01*
X139284790Y-89423078D01*
X139284842Y-89423516D01*
X139284844Y-89423535D01*
X139291032Y-89475739D01*
X139298202Y-89536222D01*
X139302131Y-89564722D01*
X139311999Y-89636301D01*
X139312194Y-89637718D01*
X139325880Y-89719557D01*
X139332332Y-89750603D01*
X139338377Y-89773731D01*
X139348315Y-89807737D01*
X139348803Y-89809458D01*
X139359352Y-89847763D01*
X139361097Y-89854101D01*
X139361426Y-89855321D01*
X139374684Y-89905428D01*
X139374993Y-89906620D01*
X139382304Y-89935386D01*
X139387699Y-89956611D01*
X139400704Y-90004916D01*
X139415449Y-90052016D01*
X139431893Y-90097848D01*
X139432379Y-90099043D01*
X139432381Y-90099048D01*
X139445386Y-90131019D01*
X139449995Y-90142351D01*
X139469713Y-90185463D01*
X139470341Y-90186692D01*
X139470348Y-90186706D01*
X139490369Y-90225874D01*
X139490380Y-90225894D01*
X139491007Y-90227121D01*
X139497385Y-90238337D01*
X139510620Y-90261610D01*
X139513835Y-90267264D01*
X139514592Y-90268465D01*
X139514599Y-90268476D01*
X139523148Y-90282031D01*
X139538157Y-90305830D01*
X139563930Y-90342757D01*
X139591115Y-90377984D01*
X139619670Y-90411447D01*
X139649554Y-90443085D01*
X139650741Y-90444218D01*
X139650745Y-90444222D01*
X139679158Y-90471341D01*
X139680725Y-90472837D01*
X139713144Y-90500641D01*
X139714506Y-90501686D01*
X139714510Y-90501689D01*
X139742633Y-90523261D01*
X139746768Y-90526433D01*
X139781556Y-90550154D01*
X139781840Y-90550342D01*
X139781923Y-90550398D01*
X139795506Y-90559395D01*
X139797960Y-90561062D01*
X139812469Y-90571172D01*
X139814373Y-90572526D01*
X139830168Y-90583973D01*
X139831784Y-90585163D01*
X139848250Y-90597501D01*
X139849736Y-90598632D01*
X139858451Y-90605370D01*
X139866085Y-90611272D01*
X139867645Y-90612498D01*
X139883158Y-90624888D01*
X139884859Y-90626272D01*
X139898867Y-90637877D01*
X139900992Y-90639678D01*
X139914004Y-90650963D01*
X139914241Y-90651170D01*
X139927187Y-90662509D01*
X139927591Y-90662850D01*
X139927622Y-90662877D01*
X139938293Y-90671892D01*
X139940134Y-90673447D01*
X139952588Y-90683589D01*
X139953043Y-90683945D01*
X139953071Y-90683967D01*
X139960386Y-90689685D01*
X140001739Y-90747395D01*
X140008393Y-90778937D01*
X140010808Y-90809207D01*
X140010965Y-90811414D01*
X140013395Y-90850709D01*
X140013508Y-90852847D01*
X140018076Y-90955847D01*
X140018143Y-90957652D01*
X140019194Y-90992688D01*
X140021995Y-91086043D01*
X140022132Y-91090623D01*
X140022162Y-91091777D01*
X140025566Y-91255226D01*
X140025580Y-91256027D01*
X140028378Y-91449413D01*
X140028385Y-91449998D01*
X140030582Y-91673650D01*
X140031370Y-91772935D01*
X140031473Y-91785983D01*
X140013950Y-91851087D01*
X139977885Y-91912109D01*
X139977554Y-91912664D01*
X139949421Y-91959379D01*
X139948706Y-91960549D01*
X139916135Y-92013139D01*
X139915363Y-92014366D01*
X139845028Y-92124590D01*
X139840928Y-92131016D01*
X139839906Y-92132592D01*
X139825196Y-92154899D01*
X139762240Y-92250366D01*
X139761385Y-92251645D01*
X139724951Y-92305418D01*
X139724900Y-92305493D01*
X139724134Y-92306610D01*
X139690248Y-92355459D01*
X139668886Y-92386993D01*
X139647958Y-92420239D01*
X139627540Y-92455009D01*
X139627112Y-92455787D01*
X139627103Y-92455804D01*
X139617166Y-92473896D01*
X139607709Y-92491113D01*
X139588544Y-92528363D01*
X139570120Y-92566568D01*
X139552515Y-92605541D01*
X139535806Y-92645092D01*
X139535509Y-92645845D01*
X139535502Y-92645863D01*
X139522366Y-92679207D01*
X139520071Y-92685032D01*
X139505386Y-92725172D01*
X139491829Y-92765323D01*
X139491590Y-92766097D01*
X139480089Y-92803313D01*
X139479476Y-92805296D01*
X139479250Y-92806105D01*
X139479239Y-92806142D01*
X139468977Y-92842859D01*
X139468406Y-92844902D01*
X139468185Y-92845793D01*
X139468177Y-92845821D01*
X139460467Y-92876824D01*
X139458694Y-92883952D01*
X139458499Y-92884854D01*
X139458491Y-92884889D01*
X139450635Y-92921256D01*
X139450419Y-92922257D01*
X139450241Y-92923242D01*
X139450237Y-92923261D01*
X139443657Y-92959628D01*
X139430254Y-93036845D01*
X139429857Y-93039018D01*
X139428265Y-93047325D01*
X139415645Y-93113162D01*
X139413957Y-93121966D01*
X139413608Y-93123717D01*
X139395780Y-93210085D01*
X139395442Y-93211672D01*
X139376569Y-93297503D01*
X139376201Y-93299128D01*
X139357063Y-93380987D01*
X139356624Y-93382800D01*
X139338162Y-93456614D01*
X139337521Y-93459065D01*
X139320732Y-93520691D01*
X139319540Y-93524792D01*
X139304954Y-93571941D01*
X139304271Y-93574077D01*
X139300520Y-93585462D01*
X139300297Y-93586139D01*
X139300109Y-93586752D01*
X139300097Y-93586791D01*
X139298703Y-93591348D01*
X139296642Y-93598083D01*
X139293567Y-93609019D01*
X139293393Y-93609698D01*
X139293385Y-93609728D01*
X139291159Y-93618419D01*
X139290978Y-93619126D01*
X139288785Y-93628584D01*
X139286895Y-93637572D01*
X139283655Y-93654861D01*
X139283595Y-93655198D01*
X139280705Y-93671398D01*
X139280329Y-93673411D01*
X139277022Y-93690353D01*
X139276455Y-93693094D01*
X139274649Y-93701349D01*
X139274170Y-93703450D01*
X139271882Y-93713075D01*
X139271343Y-93715251D01*
X139268593Y-93725935D01*
X139268023Y-93728067D01*
X139264388Y-93741197D01*
X139262588Y-93749685D01*
X139260874Y-93756753D01*
X139259238Y-93762740D01*
X139257672Y-93768013D01*
X139255143Y-93775897D01*
X139253928Y-93779499D01*
X139250472Y-93789247D01*
X139249775Y-93791163D01*
X139242958Y-93809425D01*
X139230017Y-93844089D01*
X139229695Y-93845048D01*
X139229694Y-93845051D01*
X139225849Y-93856506D01*
X139225064Y-93858843D01*
X139224801Y-93859712D01*
X139224790Y-93859747D01*
X139223990Y-93862394D01*
X139220403Y-93874254D01*
X139216168Y-93890393D01*
X139215892Y-93891665D01*
X139215889Y-93891676D01*
X139214786Y-93896754D01*
X139212488Y-93907331D01*
X139212243Y-93908790D01*
X139212241Y-93908800D01*
X139211515Y-93913124D01*
X139209497Y-93925138D01*
X139207326Y-93943885D01*
X139206589Y-93953634D01*
X139206550Y-93954441D01*
X139206548Y-93954474D01*
X139206200Y-93961689D01*
X139206106Y-93963644D01*
X139205894Y-93973924D01*
X132751000Y-93973924D01*
X132751000Y-90502916D01*
X132751066Y-90500038D01*
X132751082Y-90500000D01*
X132751068Y-90499966D01*
X132751134Y-90497097D01*
X132755150Y-90410237D01*
X132766977Y-90154415D01*
X132766994Y-90154075D01*
X132767887Y-90135908D01*
X132768943Y-90124686D01*
X132803063Y-89880088D01*
X132803219Y-89879009D01*
X132813524Y-89809536D01*
X132821058Y-89758748D01*
X132823035Y-89748418D01*
X132857704Y-89601011D01*
X132874884Y-89527969D01*
X132875313Y-89526202D01*
X132909816Y-89388457D01*
X132912572Y-89379030D01*
X132981836Y-89172378D01*
X132982669Y-89169973D01*
X133020412Y-89064485D01*
X133033335Y-89028368D01*
X133036694Y-89019950D01*
X133106453Y-88861961D01*
X133122922Y-88824663D01*
X133124283Y-88821685D01*
X133190465Y-88681754D01*
X133194292Y-88674314D01*
X133216190Y-88635000D01*
X133296896Y-88490106D01*
X133298867Y-88486694D01*
X133379739Y-88351768D01*
X133383862Y-88345339D01*
X133385653Y-88342725D01*
X133502185Y-88172608D01*
X133504873Y-88168838D01*
X133599409Y-88041371D01*
X133603671Y-88035942D01*
X133636825Y-87996017D01*
X133662538Y-87965052D01*
X133736871Y-87875536D01*
X133740447Y-87871415D01*
X133847421Y-87753387D01*
X133851686Y-87748908D01*
X133998908Y-87601686D01*
X134003387Y-87597421D01*
X134121415Y-87490447D01*
X134125536Y-87486871D01*
X134285942Y-87353671D01*
X134291379Y-87349403D01*
X134418838Y-87254873D01*
X134422608Y-87252185D01*
X134595341Y-87133861D01*
X134601769Y-87129738D01*
X134736694Y-87048867D01*
X134740106Y-87046896D01*
X134924316Y-86944291D01*
X134931754Y-86940465D01*
X135071685Y-86874283D01*
X135074663Y-86872922D01*
X135150612Y-86839387D01*
X135269950Y-86786694D01*
X135278368Y-86783335D01*
X135333175Y-86763725D01*
X135419973Y-86732669D01*
X135422378Y-86731836D01*
X135629030Y-86662572D01*
X135638457Y-86659816D01*
X135776202Y-86625313D01*
X135777969Y-86624884D01*
X135867234Y-86603889D01*
X135998418Y-86573035D01*
X136008748Y-86571058D01*
X136079111Y-86560620D01*
X136129009Y-86553219D01*
X136130088Y-86553063D01*
X136374686Y-86518943D01*
X136385908Y-86517887D01*
X136400421Y-86517174D01*
X136404468Y-86516975D01*
X136747097Y-86501134D01*
X136749966Y-86501068D01*
X136750000Y-86501082D01*
X136750038Y-86501066D01*
X136752916Y-86501000D01*
X171247084Y-86501000D01*
X171249962Y-86501066D01*
G37*
%TD.AperFunction*%
M02*
