%TF.GenerationSoftware,KiCad,Pcbnew,(6.0.6)*%
%TF.CreationDate,2022-08-23T20:39:58+01:00*%
%TF.ProjectId,rearcase,72656172-6361-4736-952e-6b696361645f,rev?*%
%TF.SameCoordinates,Original*%
%TF.FileFunction,Soldermask,Bot*%
%TF.FilePolarity,Negative*%
%FSLAX46Y46*%
G04 Gerber Fmt 4.6, Leading zero omitted, Abs format (unit mm)*
G04 Created by KiCad (PCBNEW (6.0.6)) date 2022-08-23 20:39:58*
%MOMM*%
%LPD*%
G01*
G04 APERTURE LIST*
%ADD10C,1.460000*%
%ADD11C,3.500000*%
%ADD12C,4.000000*%
G04 APERTURE END LIST*
%TO.C,REF\u002A\u002A*%
D10*
X166480000Y-103800000D02*
G75*
G03*
X166480000Y-103800000I-730000J0D01*
G01*
%TD*%
D11*
%TO.C,REF\u002A\u002A*%
X171800000Y-98000000D03*
D12*
X142250000Y-100280000D03*
D11*
X136200000Y-98000000D03*
%TD*%
G36*
X171253094Y-86500152D02*
G01*
X171635886Y-86518957D01*
X171648192Y-86520169D01*
X172024234Y-86575950D01*
X172036362Y-86578362D01*
X172405133Y-86670735D01*
X172416965Y-86674324D01*
X172774906Y-86802397D01*
X172786330Y-86807129D01*
X173129993Y-86969669D01*
X173140898Y-86975498D01*
X173466975Y-87170942D01*
X173477256Y-87177812D01*
X173782601Y-87404271D01*
X173792159Y-87412115D01*
X174073840Y-87667416D01*
X174082584Y-87676160D01*
X174337885Y-87957841D01*
X174345729Y-87967399D01*
X174572188Y-88272744D01*
X174579058Y-88283025D01*
X174774502Y-88609102D01*
X174780331Y-88620007D01*
X174942871Y-88963670D01*
X174947603Y-88975094D01*
X175075676Y-89333035D01*
X175079265Y-89344867D01*
X175171638Y-89713638D01*
X175174050Y-89725766D01*
X175229831Y-90101808D01*
X175231043Y-90114114D01*
X175249848Y-90496906D01*
X175250000Y-90503088D01*
X175250000Y-105496912D01*
X175249848Y-105503094D01*
X175231043Y-105885886D01*
X175229831Y-105898192D01*
X175174050Y-106274234D01*
X175171638Y-106286362D01*
X175079265Y-106655133D01*
X175075676Y-106666965D01*
X174947603Y-107024906D01*
X174942871Y-107036330D01*
X174780331Y-107379993D01*
X174774502Y-107390898D01*
X174579058Y-107716975D01*
X174572188Y-107727256D01*
X174345729Y-108032601D01*
X174337885Y-108042159D01*
X174082584Y-108323840D01*
X174073840Y-108332584D01*
X173792159Y-108587885D01*
X173782601Y-108595729D01*
X173477256Y-108822188D01*
X173466975Y-108829058D01*
X173140898Y-109024502D01*
X173129993Y-109030331D01*
X172786330Y-109192871D01*
X172774906Y-109197603D01*
X172416965Y-109325676D01*
X172405133Y-109329265D01*
X172036362Y-109421638D01*
X172024234Y-109424050D01*
X171648192Y-109479831D01*
X171635886Y-109481043D01*
X171253094Y-109499848D01*
X171246912Y-109500000D01*
X136753088Y-109500000D01*
X136746906Y-109499848D01*
X136364114Y-109481043D01*
X136351808Y-109479831D01*
X135975766Y-109424050D01*
X135963638Y-109421638D01*
X135594867Y-109329265D01*
X135583035Y-109325676D01*
X135225094Y-109197603D01*
X135213670Y-109192871D01*
X134870007Y-109030331D01*
X134859102Y-109024502D01*
X134533025Y-108829058D01*
X134522744Y-108822188D01*
X134217399Y-108595729D01*
X134207841Y-108587885D01*
X133926160Y-108332584D01*
X133917416Y-108323840D01*
X133662115Y-108042159D01*
X133654271Y-108032601D01*
X133427812Y-107727256D01*
X133420942Y-107716975D01*
X133225498Y-107390898D01*
X133219669Y-107379993D01*
X133057129Y-107036330D01*
X133052397Y-107024906D01*
X132924324Y-106666965D01*
X132920735Y-106655133D01*
X132828362Y-106286362D01*
X132825950Y-106274234D01*
X132770169Y-105898192D01*
X132768957Y-105885886D01*
X132750152Y-105503094D01*
X132750000Y-105496912D01*
X132750000Y-103681885D01*
X147250000Y-103681885D01*
X147254475Y-103697124D01*
X147255865Y-103698329D01*
X147263548Y-103700000D01*
X160731885Y-103700000D01*
X160747124Y-103695525D01*
X160748329Y-103694135D01*
X160750000Y-103686452D01*
X160750000Y-97418115D01*
X160745525Y-97402876D01*
X160744135Y-97401671D01*
X160736452Y-97400000D01*
X147268115Y-97400000D01*
X147252876Y-97404475D01*
X147251671Y-97405865D01*
X147250000Y-97413548D01*
X147250000Y-103681885D01*
X132750000Y-103681885D01*
X132750000Y-94981885D01*
X147250000Y-94981885D01*
X147254475Y-94997124D01*
X147255865Y-94998329D01*
X147263548Y-95000000D01*
X160731885Y-95000000D01*
X160747124Y-94995525D01*
X160748329Y-94994135D01*
X160750000Y-94986452D01*
X160750000Y-88878115D01*
X160745525Y-88862876D01*
X160744135Y-88861671D01*
X160736452Y-88860000D01*
X147268115Y-88860000D01*
X147252876Y-88864475D01*
X147251671Y-88865865D01*
X147250000Y-88873548D01*
X147250000Y-94981885D01*
X132750000Y-94981885D01*
X132750000Y-90503088D01*
X132750152Y-90496906D01*
X132768957Y-90114114D01*
X132770169Y-90101808D01*
X132825950Y-89725766D01*
X132828362Y-89713638D01*
X132920735Y-89344867D01*
X132924324Y-89333035D01*
X133052397Y-88975094D01*
X133057129Y-88963670D01*
X133219669Y-88620007D01*
X133225498Y-88609102D01*
X133420942Y-88283025D01*
X133427812Y-88272744D01*
X133654271Y-87967399D01*
X133662115Y-87957841D01*
X133917416Y-87676160D01*
X133926160Y-87667416D01*
X134207841Y-87412115D01*
X134217399Y-87404271D01*
X134522744Y-87177812D01*
X134533025Y-87170942D01*
X134859102Y-86975498D01*
X134870007Y-86969669D01*
X135213670Y-86807129D01*
X135225094Y-86802397D01*
X135583035Y-86674324D01*
X135594867Y-86670735D01*
X135963638Y-86578362D01*
X135975766Y-86575950D01*
X136351808Y-86520169D01*
X136364114Y-86518957D01*
X136746906Y-86500152D01*
X136753088Y-86500000D01*
X171246912Y-86500000D01*
X171253094Y-86500152D01*
G37*
M02*
