%TF.GenerationSoftware,KiCad,Pcbnew,(7.0.0)*%
%TF.CreationDate,2023-02-18T15:18:28+00:00*%
%TF.ProjectId,frontcase,66726f6e-7463-4617-9365-2e6b69636164,rev?*%
%TF.SameCoordinates,Original*%
%TF.FileFunction,Soldermask,Top*%
%TF.FilePolarity,Negative*%
%FSLAX46Y46*%
G04 Gerber Fmt 4.6, Leading zero omitted, Abs format (unit mm)*
G04 Created by KiCad (PCBNEW (7.0.0)) date 2023-02-18 15:18:28*
%MOMM*%
%LPD*%
G01*
G04 APERTURE LIST*
%ADD10C,0.070000*%
%ADD11C,0.000000*%
%ADD12C,4.000000*%
%ADD13C,5.000000*%
%ADD14C,13.000000*%
G04 APERTURE END LIST*
D10*
G36*
X138342526Y-81439665D02*
G01*
X138359004Y-81441188D01*
X138375674Y-81443549D01*
X138392520Y-81446747D01*
X138409528Y-81450782D01*
X138426682Y-81455655D01*
X138461362Y-81467910D01*
X138496437Y-81483510D01*
X138531781Y-81502454D01*
X138567269Y-81524738D01*
X138602776Y-81550362D01*
X138638177Y-81579322D01*
X138673347Y-81611617D01*
X138708161Y-81647245D01*
X138742493Y-81686204D01*
X138776220Y-81728491D01*
X138809215Y-81774105D01*
X138841354Y-81823044D01*
X138872512Y-81875305D01*
X138920790Y-81959321D01*
X138980711Y-82062142D01*
X139044646Y-82170750D01*
X139104963Y-82272129D01*
X139132792Y-82319171D01*
X139159864Y-82366049D01*
X139185507Y-82411521D01*
X139209051Y-82454348D01*
X139229823Y-82493288D01*
X139247151Y-82527103D01*
X139260365Y-82554552D01*
X139268793Y-82574395D01*
X139272023Y-82582484D01*
X139275872Y-82591077D01*
X139280288Y-82600098D01*
X139285223Y-82609471D01*
X139290625Y-82619120D01*
X139296444Y-82628970D01*
X139302631Y-82638945D01*
X139309135Y-82648970D01*
X139315907Y-82658969D01*
X139322895Y-82668865D01*
X139330050Y-82678585D01*
X139337321Y-82688051D01*
X139344659Y-82697189D01*
X139352014Y-82705922D01*
X139359334Y-82714176D01*
X139366571Y-82721874D01*
X139379160Y-82735231D01*
X139390648Y-82748236D01*
X139401027Y-82760901D01*
X139410290Y-82773240D01*
X139418430Y-82785264D01*
X139425439Y-82796987D01*
X139431311Y-82808420D01*
X139436038Y-82819576D01*
X139439614Y-82830467D01*
X139442031Y-82841106D01*
X139443283Y-82851505D01*
X139443361Y-82861677D01*
X139442260Y-82871635D01*
X139439973Y-82881390D01*
X139436491Y-82890955D01*
X139431808Y-82900343D01*
X139425917Y-82909566D01*
X139418810Y-82918636D01*
X139410482Y-82927566D01*
X139400924Y-82936369D01*
X139390129Y-82945057D01*
X139378092Y-82953641D01*
X139364803Y-82962136D01*
X139350257Y-82970553D01*
X139334446Y-82978905D01*
X139317364Y-82987203D01*
X139299002Y-82995462D01*
X139279355Y-83003692D01*
X139258414Y-83011907D01*
X139236174Y-83020119D01*
X139187764Y-83036583D01*
X139051874Y-83080925D01*
X139010183Y-83094815D01*
X138994453Y-83100393D01*
X139002818Y-83150432D01*
X139026734Y-83285381D01*
X139106519Y-83727678D01*
X139151605Y-83981812D01*
X139190380Y-84211349D01*
X139218713Y-84391087D01*
X139232474Y-84495822D01*
X139250666Y-84645289D01*
X139280748Y-84828482D01*
X139318991Y-85028726D01*
X139361668Y-85229343D01*
X139405051Y-85413659D01*
X139445411Y-85564996D01*
X139463292Y-85623086D01*
X139479019Y-85666678D01*
X139492127Y-85693687D01*
X139497553Y-85700321D01*
X139502149Y-85702028D01*
X139545969Y-85689814D01*
X139587999Y-85671532D01*
X139628182Y-85647542D01*
X139666465Y-85618207D01*
X139702793Y-85583887D01*
X139737111Y-85544946D01*
X139769364Y-85501744D01*
X139799499Y-85454643D01*
X139827459Y-85404005D01*
X139853192Y-85350191D01*
X139876641Y-85293563D01*
X139897752Y-85234483D01*
X139916472Y-85173312D01*
X139932744Y-85110411D01*
X139946515Y-85046144D01*
X139957730Y-84980870D01*
X139966333Y-84914953D01*
X139972272Y-84848752D01*
X139975490Y-84782631D01*
X139975934Y-84716951D01*
X139973548Y-84652073D01*
X139968279Y-84588359D01*
X139960071Y-84526171D01*
X139948869Y-84465870D01*
X139934620Y-84407818D01*
X139917268Y-84352377D01*
X139896759Y-84299907D01*
X139873038Y-84250772D01*
X139846051Y-84205332D01*
X139815743Y-84163950D01*
X139782059Y-84126986D01*
X139744945Y-84094803D01*
X139724282Y-84077776D01*
X139705410Y-84059670D01*
X139688318Y-84040535D01*
X139672994Y-84020425D01*
X139659427Y-83999391D01*
X139647607Y-83977486D01*
X139637523Y-83954762D01*
X139629163Y-83931271D01*
X139622517Y-83907065D01*
X139617574Y-83882197D01*
X139614323Y-83856718D01*
X139612753Y-83830681D01*
X139612852Y-83804138D01*
X139614611Y-83777141D01*
X139618018Y-83749742D01*
X139623061Y-83721994D01*
X139629731Y-83693949D01*
X139638016Y-83665659D01*
X139647905Y-83637175D01*
X139659387Y-83608552D01*
X139672451Y-83579839D01*
X139687087Y-83551090D01*
X139703283Y-83522357D01*
X139721029Y-83493692D01*
X139740313Y-83465148D01*
X139761124Y-83436776D01*
X139783452Y-83408628D01*
X139807286Y-83380757D01*
X139832614Y-83353215D01*
X139859426Y-83326055D01*
X139887710Y-83299327D01*
X139917456Y-83273086D01*
X139929122Y-83263734D01*
X139941279Y-83255138D01*
X139953907Y-83247295D01*
X139966985Y-83240203D01*
X139980492Y-83233859D01*
X139994407Y-83228261D01*
X140008710Y-83223406D01*
X140023379Y-83219291D01*
X140038394Y-83215914D01*
X140053735Y-83213273D01*
X140069380Y-83211364D01*
X140085308Y-83210186D01*
X140101499Y-83209736D01*
X140117932Y-83210011D01*
X140134586Y-83211008D01*
X140151440Y-83212726D01*
X140168474Y-83215161D01*
X140185667Y-83218311D01*
X140202997Y-83222174D01*
X140220444Y-83226747D01*
X140255607Y-83238011D01*
X140290989Y-83252085D01*
X140326422Y-83268948D01*
X140361742Y-83288579D01*
X140396781Y-83310957D01*
X140431372Y-83336064D01*
X140463269Y-83361893D01*
X140493308Y-83388702D01*
X140521484Y-83416414D01*
X140547791Y-83444953D01*
X140572223Y-83474241D01*
X140594775Y-83504201D01*
X140615441Y-83534758D01*
X140634215Y-83565833D01*
X140651091Y-83597351D01*
X140666063Y-83629234D01*
X140679125Y-83661406D01*
X140690272Y-83693790D01*
X140699498Y-83726309D01*
X140706797Y-83758887D01*
X140712163Y-83791446D01*
X140715590Y-83823909D01*
X140717073Y-83856201D01*
X140716606Y-83888244D01*
X140714182Y-83919961D01*
X140709797Y-83951276D01*
X140703444Y-83982111D01*
X140695117Y-84012391D01*
X140684810Y-84042038D01*
X140672519Y-84070975D01*
X140658236Y-84099126D01*
X140641957Y-84126413D01*
X140623675Y-84152761D01*
X140603384Y-84178092D01*
X140581079Y-84202329D01*
X140556754Y-84225396D01*
X140530403Y-84247216D01*
X140502020Y-84267712D01*
X140483796Y-84280036D01*
X140467955Y-84291221D01*
X140460911Y-84296573D01*
X140454441Y-84301864D01*
X140448540Y-84307170D01*
X140443200Y-84312564D01*
X140438414Y-84318123D01*
X140434174Y-84323920D01*
X140430475Y-84330031D01*
X140427309Y-84336530D01*
X140424669Y-84343492D01*
X140422549Y-84350992D01*
X140420941Y-84359105D01*
X140419838Y-84367905D01*
X140419233Y-84377467D01*
X140419120Y-84387867D01*
X140419491Y-84399178D01*
X140420340Y-84411476D01*
X140421659Y-84424835D01*
X140423441Y-84439331D01*
X140425681Y-84455037D01*
X140428369Y-84472030D01*
X140435068Y-84510171D01*
X140443482Y-84554353D01*
X140465232Y-84663233D01*
X140485837Y-84771998D01*
X140501905Y-84873023D01*
X140508307Y-84921840D01*
X140513659Y-84970170D01*
X140517988Y-85018495D01*
X140521322Y-85067297D01*
X140523688Y-85117060D01*
X140525116Y-85168265D01*
X140525264Y-85276933D01*
X140521989Y-85397160D01*
X140515513Y-85532808D01*
X140509291Y-85622707D01*
X140500800Y-85706553D01*
X140489872Y-85784616D01*
X140476335Y-85857171D01*
X140460021Y-85924490D01*
X140440758Y-85986846D01*
X140418376Y-86044511D01*
X140392705Y-86097760D01*
X140363575Y-86146864D01*
X140330816Y-86192096D01*
X140294257Y-86233729D01*
X140253728Y-86272036D01*
X140209060Y-86307291D01*
X140160081Y-86339765D01*
X140106622Y-86369731D01*
X140048513Y-86397463D01*
X140479050Y-88378143D01*
X140485931Y-88421874D01*
X140492796Y-88470738D01*
X140499462Y-88523088D01*
X140505747Y-88577278D01*
X140511470Y-88631663D01*
X140516446Y-88684596D01*
X140520495Y-88734432D01*
X140523434Y-88779525D01*
X140535033Y-88960464D01*
X140549568Y-89139401D01*
X140566470Y-89311825D01*
X140585173Y-89473224D01*
X140605110Y-89619087D01*
X140625713Y-89744901D01*
X140646414Y-89846156D01*
X140666646Y-89918338D01*
X140672901Y-89936890D01*
X140678253Y-89954569D01*
X140682701Y-89971419D01*
X140686243Y-89987486D01*
X140688878Y-90002816D01*
X140690603Y-90017453D01*
X140691417Y-90031443D01*
X140691317Y-90044831D01*
X140690302Y-90057661D01*
X140688370Y-90069979D01*
X140685520Y-90081831D01*
X140681749Y-90093261D01*
X140677055Y-90104315D01*
X140671437Y-90115037D01*
X140664893Y-90125473D01*
X140657421Y-90135669D01*
X140648952Y-90146627D01*
X140645173Y-90151771D01*
X140641708Y-90156767D01*
X140638565Y-90161670D01*
X140635753Y-90166536D01*
X140633280Y-90171422D01*
X140631154Y-90176383D01*
X140629384Y-90181475D01*
X140627977Y-90186754D01*
X140626942Y-90192276D01*
X140626286Y-90198098D01*
X140626019Y-90204274D01*
X140626149Y-90210862D01*
X140626683Y-90217916D01*
X140627630Y-90225494D01*
X140628998Y-90233650D01*
X140630795Y-90242441D01*
X140633030Y-90251923D01*
X140635711Y-90262151D01*
X140638846Y-90273183D01*
X140642443Y-90285073D01*
X140646510Y-90297877D01*
X140651056Y-90311652D01*
X140661617Y-90342338D01*
X140674190Y-90377578D01*
X140688843Y-90417819D01*
X140705641Y-90463510D01*
X140728118Y-90527061D01*
X140747275Y-90586791D01*
X140763101Y-90642839D01*
X140775588Y-90695341D01*
X140784725Y-90744437D01*
X140790502Y-90790266D01*
X140792911Y-90832964D01*
X140791942Y-90872671D01*
X140787584Y-90909525D01*
X140779829Y-90943663D01*
X140768666Y-90975225D01*
X140754086Y-91004348D01*
X140736079Y-91031172D01*
X140714635Y-91055833D01*
X140689746Y-91078471D01*
X140661401Y-91099223D01*
X140630669Y-91116735D01*
X140589359Y-91136023D01*
X140538830Y-91156707D01*
X140480445Y-91178406D01*
X140345545Y-91223322D01*
X140195547Y-91267720D01*
X140041339Y-91308550D01*
X139893807Y-91342763D01*
X139825948Y-91356434D01*
X139763840Y-91367307D01*
X139708845Y-91375001D01*
X139662324Y-91379133D01*
X139565127Y-91384306D01*
X139502329Y-91210529D01*
X139481510Y-91153251D01*
X139465204Y-91110318D01*
X139458319Y-91093634D01*
X139452054Y-91079821D01*
X139446239Y-91068639D01*
X139440705Y-91059850D01*
X139435281Y-91053214D01*
X139432558Y-91050630D01*
X139429799Y-91048494D01*
X139426983Y-91046778D01*
X139424088Y-91045451D01*
X139421094Y-91044483D01*
X139417980Y-91043845D01*
X139411304Y-91043438D01*
X139403891Y-91043991D01*
X139386176Y-91047024D01*
X139372418Y-91050483D01*
X139354924Y-91056164D01*
X139311281Y-91072969D01*
X139260351Y-91094977D01*
X139207238Y-91119731D01*
X139157044Y-91144770D01*
X139114872Y-91167634D01*
X139098390Y-91177482D01*
X139085827Y-91185864D01*
X139077822Y-91192472D01*
X139075727Y-91195015D01*
X139075011Y-91196999D01*
X139074946Y-91197732D01*
X139074751Y-91198660D01*
X139073987Y-91201074D01*
X139072745Y-91204194D01*
X139071051Y-91207976D01*
X139068931Y-91212371D01*
X139066409Y-91217334D01*
X139060267Y-91228774D01*
X139052829Y-91241924D01*
X139044302Y-91256411D01*
X139034892Y-91271862D01*
X139024802Y-91287905D01*
X139000495Y-91326654D01*
X138971440Y-91374046D01*
X138941286Y-91424082D01*
X138913678Y-91470760D01*
X138900109Y-91493231D01*
X138884868Y-91517150D01*
X138868473Y-91541783D01*
X138851442Y-91566395D01*
X138834293Y-91590251D01*
X138817545Y-91612615D01*
X138801716Y-91632753D01*
X138787323Y-91649928D01*
X138780377Y-91658602D01*
X138773885Y-91668185D01*
X138767845Y-91678642D01*
X138762258Y-91689937D01*
X138757124Y-91702034D01*
X138752443Y-91714899D01*
X138744438Y-91742788D01*
X138738243Y-91773318D01*
X138733856Y-91806207D01*
X138731276Y-91841168D01*
X138730503Y-91877918D01*
X138731536Y-91916173D01*
X138734373Y-91955647D01*
X138739014Y-91996058D01*
X138745457Y-92037119D01*
X138753703Y-92078547D01*
X138763749Y-92120058D01*
X138775595Y-92161367D01*
X138789240Y-92202190D01*
X138813814Y-92276582D01*
X138852390Y-92400273D01*
X138899679Y-92556051D01*
X138950393Y-92726705D01*
X138996504Y-92880440D01*
X139050305Y-93056536D01*
X136500000Y-93056536D01*
X136399221Y-92504455D01*
X136358737Y-92279330D01*
X136326330Y-92085616D01*
X136301840Y-91921776D01*
X136285103Y-91786271D01*
X136275957Y-91677563D01*
X136274239Y-91594114D01*
X136276114Y-91561382D01*
X136279786Y-91534387D01*
X136285234Y-91512937D01*
X136292438Y-91496842D01*
X136295003Y-91493038D01*
X136298977Y-91487811D01*
X136310816Y-91473459D01*
X136327283Y-91454523D01*
X136347710Y-91431741D01*
X136371427Y-91405851D01*
X136397763Y-91377592D01*
X136426049Y-91347700D01*
X136455616Y-91316915D01*
X136485458Y-91285566D01*
X136512266Y-91256257D01*
X136536135Y-91228777D01*
X136557157Y-91202913D01*
X136575425Y-91178453D01*
X136591035Y-91155186D01*
X136604079Y-91132898D01*
X136614651Y-91111379D01*
X136619039Y-91100841D01*
X136622844Y-91090415D01*
X136626079Y-91080076D01*
X136628753Y-91069796D01*
X136630880Y-91059549D01*
X136632471Y-91049309D01*
X136633537Y-91039049D01*
X136634091Y-91028742D01*
X136633708Y-91007883D01*
X136631414Y-90986520D01*
X136627304Y-90964441D01*
X136621471Y-90941434D01*
X136616988Y-90925007D01*
X136612133Y-90906173D01*
X136601929Y-90863937D01*
X136592090Y-90820035D01*
X136587693Y-90799118D01*
X136583850Y-90779774D01*
X136566766Y-90691778D01*
X136549630Y-90605056D01*
X136543116Y-90567826D01*
X136538456Y-90530775D01*
X136535620Y-90494054D01*
X136534576Y-90457813D01*
X136535294Y-90422203D01*
X136537742Y-90387375D01*
X136541889Y-90353478D01*
X136547704Y-90320664D01*
X136555157Y-90289083D01*
X136564216Y-90258886D01*
X136574849Y-90230224D01*
X136587027Y-90203246D01*
X136600717Y-90178103D01*
X136615889Y-90154947D01*
X136632512Y-90133928D01*
X136650554Y-90115195D01*
X136661850Y-90104592D01*
X136671723Y-90095124D01*
X136680252Y-90086521D01*
X136684039Y-90082458D01*
X136687520Y-90078510D01*
X136690706Y-90074641D01*
X136693607Y-90070819D01*
X136696233Y-90067009D01*
X136698594Y-90063177D01*
X136700701Y-90059289D01*
X136702562Y-90055312D01*
X136704189Y-90051210D01*
X136705592Y-90046951D01*
X136706780Y-90042501D01*
X136707764Y-90037824D01*
X136708554Y-90032888D01*
X136709159Y-90027658D01*
X136709591Y-90022101D01*
X136709859Y-90016182D01*
X136709974Y-90009867D01*
X136709945Y-90003122D01*
X136709496Y-89988209D01*
X136708594Y-89971170D01*
X136705756Y-89929625D01*
X136702238Y-89845881D01*
X136703849Y-89765770D01*
X136710480Y-89689469D01*
X136722020Y-89617152D01*
X136738363Y-89548996D01*
X136759398Y-89485177D01*
X136785016Y-89425871D01*
X136799511Y-89397966D01*
X136815110Y-89371255D01*
X136831801Y-89345760D01*
X136849570Y-89321503D01*
X136868404Y-89298507D01*
X136888288Y-89276793D01*
X136909209Y-89256384D01*
X136931154Y-89237301D01*
X136954108Y-89219566D01*
X136978059Y-89203201D01*
X137002993Y-89188229D01*
X137028896Y-89174671D01*
X137055754Y-89162550D01*
X137083554Y-89151886D01*
X137112282Y-89142704D01*
X137141925Y-89135023D01*
X137172469Y-89128867D01*
X137203901Y-89124258D01*
X137222544Y-89121685D01*
X137243268Y-89118240D01*
X137265382Y-89114072D01*
X137288193Y-89109333D01*
X137311009Y-89104171D01*
X137333140Y-89098737D01*
X137353894Y-89093180D01*
X137372578Y-89087651D01*
X137457043Y-89061135D01*
X137457043Y-88928668D01*
X137457968Y-88890905D01*
X137460723Y-88854766D01*
X137465279Y-88820299D01*
X137471608Y-88787554D01*
X137479683Y-88756581D01*
X137489473Y-88727429D01*
X137500951Y-88700149D01*
X137514088Y-88674789D01*
X137528856Y-88651401D01*
X137545226Y-88630033D01*
X137563169Y-88610735D01*
X137582658Y-88593557D01*
X137603663Y-88578548D01*
X137626157Y-88565759D01*
X137650110Y-88555239D01*
X137675494Y-88547038D01*
X137693015Y-88541684D01*
X137714646Y-88534036D01*
X137739537Y-88524452D01*
X137766836Y-88513290D01*
X137795693Y-88500906D01*
X137825255Y-88487659D01*
X137854673Y-88473906D01*
X137883094Y-88460004D01*
X137965218Y-88420667D01*
X138049512Y-88383742D01*
X138134370Y-88349782D01*
X138218185Y-88319342D01*
X138299351Y-88292973D01*
X138376261Y-88271230D01*
X138412618Y-88262265D01*
X138447308Y-88254665D01*
X138480131Y-88248497D01*
X138510886Y-88243832D01*
X138526414Y-88238398D01*
X138539438Y-88226732D01*
X138550075Y-88209159D01*
X138558441Y-88186007D01*
X138564655Y-88157605D01*
X138568832Y-88124279D01*
X138571546Y-88044165D01*
X138567518Y-87948287D01*
X138557687Y-87839264D01*
X138542986Y-87719715D01*
X138524354Y-87592262D01*
X138479034Y-87324118D01*
X138429217Y-87055791D01*
X138382391Y-86808240D01*
X138346043Y-86602423D01*
X138334298Y-86596087D01*
X138322474Y-86589396D01*
X138310512Y-86582318D01*
X138298356Y-86574820D01*
X138285948Y-86566871D01*
X138273231Y-86558437D01*
X138260146Y-86549486D01*
X138246638Y-86539987D01*
X138223637Y-86522668D01*
X138200525Y-86503412D01*
X138154067Y-86459284D01*
X138107472Y-86407999D01*
X138060946Y-86349953D01*
X138014696Y-86285541D01*
X137968929Y-86215160D01*
X137923851Y-86139205D01*
X137879669Y-86058071D01*
X137836591Y-85972155D01*
X137794822Y-85881853D01*
X137754569Y-85787559D01*
X137716040Y-85689670D01*
X137679440Y-85588583D01*
X137644977Y-85484691D01*
X137612858Y-85378392D01*
X137583288Y-85270080D01*
X137526496Y-85050326D01*
X137426079Y-85026885D01*
X137360473Y-85008439D01*
X137300077Y-84985205D01*
X137244832Y-84957546D01*
X137194678Y-84925825D01*
X137149555Y-84890405D01*
X137109404Y-84851649D01*
X137074167Y-84809921D01*
X137043783Y-84765583D01*
X137018193Y-84719000D01*
X136997338Y-84670533D01*
X136981159Y-84620547D01*
X136969595Y-84569403D01*
X136962589Y-84517467D01*
X136960080Y-84465099D01*
X136962009Y-84412665D01*
X136968317Y-84360527D01*
X136978944Y-84309047D01*
X136993831Y-84258590D01*
X137012919Y-84209518D01*
X137036148Y-84162195D01*
X137063459Y-84116984D01*
X137094793Y-84074247D01*
X137130090Y-84034349D01*
X137169291Y-83997652D01*
X137212336Y-83964519D01*
X137259167Y-83935313D01*
X137309723Y-83910398D01*
X137363946Y-83890137D01*
X137421776Y-83874894D01*
X137483154Y-83865030D01*
X137548020Y-83860909D01*
X137616315Y-83862895D01*
X137644777Y-83866225D01*
X137672518Y-83871906D01*
X137699498Y-83879844D01*
X137725675Y-83889948D01*
X137751011Y-83902123D01*
X137775464Y-83916278D01*
X137798995Y-83932320D01*
X137821562Y-83950156D01*
X137843127Y-83969693D01*
X137863647Y-83990839D01*
X137883084Y-84013500D01*
X137901396Y-84037585D01*
X137918544Y-84063000D01*
X137934487Y-84089652D01*
X137949185Y-84117450D01*
X137962597Y-84146299D01*
X137974684Y-84176108D01*
X137985404Y-84206784D01*
X137994719Y-84238234D01*
X138002586Y-84270365D01*
X138008966Y-84303084D01*
X138013819Y-84336299D01*
X138017105Y-84369917D01*
X138018782Y-84403846D01*
X138018811Y-84437992D01*
X138017151Y-84472263D01*
X138013763Y-84506566D01*
X138008605Y-84540808D01*
X138001638Y-84574897D01*
X137992821Y-84608739D01*
X137982114Y-84642243D01*
X137969477Y-84675315D01*
X137926611Y-84778627D01*
X137997366Y-85029491D01*
X138020288Y-85105526D01*
X138045984Y-85181309D01*
X138074113Y-85256264D01*
X138104335Y-85329811D01*
X138136309Y-85401372D01*
X138169693Y-85470369D01*
X138204146Y-85536223D01*
X138239328Y-85598356D01*
X138274897Y-85656191D01*
X138310512Y-85709148D01*
X138345833Y-85756649D01*
X138380517Y-85798117D01*
X138414224Y-85832972D01*
X138446614Y-85860638D01*
X138477344Y-85880534D01*
X138491981Y-85887388D01*
X138506074Y-85892083D01*
X138519326Y-85895108D01*
X138534218Y-85897773D01*
X138550402Y-85900074D01*
X138567527Y-85902007D01*
X138603202Y-85904750D01*
X138638445Y-85905966D01*
X138670458Y-85905618D01*
X138684379Y-85904846D01*
X138696443Y-85903670D01*
X138706301Y-85902086D01*
X138713602Y-85900087D01*
X138716185Y-85898932D01*
X138717997Y-85897671D01*
X138718996Y-85896305D01*
X138719137Y-85894833D01*
X138710721Y-85811710D01*
X138692332Y-85621217D01*
X138683599Y-85543643D01*
X138670187Y-85444931D01*
X138652075Y-85324949D01*
X138629240Y-85183564D01*
X138569314Y-84836053D01*
X138490231Y-84401337D01*
X138363167Y-83700841D01*
X138322699Y-83466345D01*
X138305674Y-83354801D01*
X138302949Y-83323956D01*
X138301652Y-83311510D01*
X138300287Y-83300884D01*
X138298770Y-83291958D01*
X138297016Y-83284607D01*
X138296025Y-83281485D01*
X138294943Y-83278711D01*
X138293759Y-83276269D01*
X138292465Y-83274146D01*
X138291048Y-83272324D01*
X138289499Y-83270790D01*
X138287806Y-83269527D01*
X138285960Y-83268521D01*
X138283950Y-83267756D01*
X138281766Y-83267217D01*
X138279396Y-83266888D01*
X138276831Y-83266754D01*
X138271073Y-83267012D01*
X138264406Y-83267867D01*
X138248012Y-83270879D01*
X138221156Y-83275573D01*
X138193396Y-83279369D01*
X138164963Y-83282283D01*
X138136087Y-83284327D01*
X138106996Y-83285516D01*
X138077921Y-83285864D01*
X138049090Y-83285383D01*
X138020733Y-83284089D01*
X137993080Y-83281995D01*
X137966361Y-83279114D01*
X137940804Y-83275462D01*
X137916639Y-83271051D01*
X137894096Y-83265895D01*
X137873405Y-83260009D01*
X137854794Y-83253406D01*
X137838493Y-83246100D01*
X137828465Y-83240871D01*
X137818991Y-83235641D01*
X137810065Y-83230390D01*
X137801682Y-83225102D01*
X137793838Y-83219759D01*
X137786527Y-83214342D01*
X137779745Y-83208836D01*
X137773487Y-83203220D01*
X137767748Y-83197479D01*
X137762523Y-83191595D01*
X137757808Y-83185548D01*
X137753596Y-83179323D01*
X137749884Y-83172901D01*
X137746667Y-83166265D01*
X137743939Y-83159396D01*
X137741695Y-83152277D01*
X137739932Y-83144891D01*
X137738644Y-83137220D01*
X137737825Y-83129245D01*
X137737472Y-83120950D01*
X137737579Y-83112317D01*
X137738142Y-83103327D01*
X137739155Y-83093964D01*
X137740613Y-83084209D01*
X137742512Y-83074045D01*
X137744848Y-83063455D01*
X137747614Y-83052419D01*
X137750806Y-83040922D01*
X137758448Y-83016469D01*
X137767737Y-82989955D01*
X137798910Y-82890975D01*
X137835482Y-82753338D01*
X137874608Y-82590353D01*
X137913442Y-82415332D01*
X137949141Y-82241585D01*
X137978860Y-82082421D01*
X137999754Y-81951153D01*
X138006002Y-81900138D01*
X138008978Y-81861089D01*
X138012409Y-81809396D01*
X138018611Y-81761089D01*
X138027457Y-81716163D01*
X138038823Y-81674619D01*
X138052584Y-81636452D01*
X138060323Y-81618635D01*
X138068614Y-81601662D01*
X138077442Y-81585532D01*
X138086790Y-81570245D01*
X138096643Y-81555802D01*
X138106985Y-81542201D01*
X138117801Y-81529443D01*
X138129075Y-81517527D01*
X138140791Y-81506452D01*
X138152934Y-81496220D01*
X138165489Y-81486829D01*
X138178439Y-81478278D01*
X138191769Y-81470569D01*
X138205463Y-81463701D01*
X138219506Y-81457672D01*
X138233882Y-81452484D01*
X138248575Y-81448135D01*
X138263570Y-81444627D01*
X138278851Y-81441957D01*
X138294403Y-81440126D01*
X138326256Y-81438981D01*
X138342526Y-81439665D01*
G37*
X138342526Y-81439665D02*
X138359004Y-81441188D01*
X138375674Y-81443549D01*
X138392520Y-81446747D01*
X138409528Y-81450782D01*
X138426682Y-81455655D01*
X138461362Y-81467910D01*
X138496437Y-81483510D01*
X138531781Y-81502454D01*
X138567269Y-81524738D01*
X138602776Y-81550362D01*
X138638177Y-81579322D01*
X138673347Y-81611617D01*
X138708161Y-81647245D01*
X138742493Y-81686204D01*
X138776220Y-81728491D01*
X138809215Y-81774105D01*
X138841354Y-81823044D01*
X138872512Y-81875305D01*
X138920790Y-81959321D01*
X138980711Y-82062142D01*
X139044646Y-82170750D01*
X139104963Y-82272129D01*
X139132792Y-82319171D01*
X139159864Y-82366049D01*
X139185507Y-82411521D01*
X139209051Y-82454348D01*
X139229823Y-82493288D01*
X139247151Y-82527103D01*
X139260365Y-82554552D01*
X139268793Y-82574395D01*
X139272023Y-82582484D01*
X139275872Y-82591077D01*
X139280288Y-82600098D01*
X139285223Y-82609471D01*
X139290625Y-82619120D01*
X139296444Y-82628970D01*
X139302631Y-82638945D01*
X139309135Y-82648970D01*
X139315907Y-82658969D01*
X139322895Y-82668865D01*
X139330050Y-82678585D01*
X139337321Y-82688051D01*
X139344659Y-82697189D01*
X139352014Y-82705922D01*
X139359334Y-82714176D01*
X139366571Y-82721874D01*
X139379160Y-82735231D01*
X139390648Y-82748236D01*
X139401027Y-82760901D01*
X139410290Y-82773240D01*
X139418430Y-82785264D01*
X139425439Y-82796987D01*
X139431311Y-82808420D01*
X139436038Y-82819576D01*
X139439614Y-82830467D01*
X139442031Y-82841106D01*
X139443283Y-82851505D01*
X139443361Y-82861677D01*
X139442260Y-82871635D01*
X139439973Y-82881390D01*
X139436491Y-82890955D01*
X139431808Y-82900343D01*
X139425917Y-82909566D01*
X139418810Y-82918636D01*
X139410482Y-82927566D01*
X139400924Y-82936369D01*
X139390129Y-82945057D01*
X139378092Y-82953641D01*
X139364803Y-82962136D01*
X139350257Y-82970553D01*
X139334446Y-82978905D01*
X139317364Y-82987203D01*
X139299002Y-82995462D01*
X139279355Y-83003692D01*
X139258414Y-83011907D01*
X139236174Y-83020119D01*
X139187764Y-83036583D01*
X139051874Y-83080925D01*
X139010183Y-83094815D01*
X138994453Y-83100393D01*
X139002818Y-83150432D01*
X139026734Y-83285381D01*
X139106519Y-83727678D01*
X139151605Y-83981812D01*
X139190380Y-84211349D01*
X139218713Y-84391087D01*
X139232474Y-84495822D01*
X139250666Y-84645289D01*
X139280748Y-84828482D01*
X139318991Y-85028726D01*
X139361668Y-85229343D01*
X139405051Y-85413659D01*
X139445411Y-85564996D01*
X139463292Y-85623086D01*
X139479019Y-85666678D01*
X139492127Y-85693687D01*
X139497553Y-85700321D01*
X139502149Y-85702028D01*
X139545969Y-85689814D01*
X139587999Y-85671532D01*
X139628182Y-85647542D01*
X139666465Y-85618207D01*
X139702793Y-85583887D01*
X139737111Y-85544946D01*
X139769364Y-85501744D01*
X139799499Y-85454643D01*
X139827459Y-85404005D01*
X139853192Y-85350191D01*
X139876641Y-85293563D01*
X139897752Y-85234483D01*
X139916472Y-85173312D01*
X139932744Y-85110411D01*
X139946515Y-85046144D01*
X139957730Y-84980870D01*
X139966333Y-84914953D01*
X139972272Y-84848752D01*
X139975490Y-84782631D01*
X139975934Y-84716951D01*
X139973548Y-84652073D01*
X139968279Y-84588359D01*
X139960071Y-84526171D01*
X139948869Y-84465870D01*
X139934620Y-84407818D01*
X139917268Y-84352377D01*
X139896759Y-84299907D01*
X139873038Y-84250772D01*
X139846051Y-84205332D01*
X139815743Y-84163950D01*
X139782059Y-84126986D01*
X139744945Y-84094803D01*
X139724282Y-84077776D01*
X139705410Y-84059670D01*
X139688318Y-84040535D01*
X139672994Y-84020425D01*
X139659427Y-83999391D01*
X139647607Y-83977486D01*
X139637523Y-83954762D01*
X139629163Y-83931271D01*
X139622517Y-83907065D01*
X139617574Y-83882197D01*
X139614323Y-83856718D01*
X139612753Y-83830681D01*
X139612852Y-83804138D01*
X139614611Y-83777141D01*
X139618018Y-83749742D01*
X139623061Y-83721994D01*
X139629731Y-83693949D01*
X139638016Y-83665659D01*
X139647905Y-83637175D01*
X139659387Y-83608552D01*
X139672451Y-83579839D01*
X139687087Y-83551090D01*
X139703283Y-83522357D01*
X139721029Y-83493692D01*
X139740313Y-83465148D01*
X139761124Y-83436776D01*
X139783452Y-83408628D01*
X139807286Y-83380757D01*
X139832614Y-83353215D01*
X139859426Y-83326055D01*
X139887710Y-83299327D01*
X139917456Y-83273086D01*
X139929122Y-83263734D01*
X139941279Y-83255138D01*
X139953907Y-83247295D01*
X139966985Y-83240203D01*
X139980492Y-83233859D01*
X139994407Y-83228261D01*
X140008710Y-83223406D01*
X140023379Y-83219291D01*
X140038394Y-83215914D01*
X140053735Y-83213273D01*
X140069380Y-83211364D01*
X140085308Y-83210186D01*
X140101499Y-83209736D01*
X140117932Y-83210011D01*
X140134586Y-83211008D01*
X140151440Y-83212726D01*
X140168474Y-83215161D01*
X140185667Y-83218311D01*
X140202997Y-83222174D01*
X140220444Y-83226747D01*
X140255607Y-83238011D01*
X140290989Y-83252085D01*
X140326422Y-83268948D01*
X140361742Y-83288579D01*
X140396781Y-83310957D01*
X140431372Y-83336064D01*
X140463269Y-83361893D01*
X140493308Y-83388702D01*
X140521484Y-83416414D01*
X140547791Y-83444953D01*
X140572223Y-83474241D01*
X140594775Y-83504201D01*
X140615441Y-83534758D01*
X140634215Y-83565833D01*
X140651091Y-83597351D01*
X140666063Y-83629234D01*
X140679125Y-83661406D01*
X140690272Y-83693790D01*
X140699498Y-83726309D01*
X140706797Y-83758887D01*
X140712163Y-83791446D01*
X140715590Y-83823909D01*
X140717073Y-83856201D01*
X140716606Y-83888244D01*
X140714182Y-83919961D01*
X140709797Y-83951276D01*
X140703444Y-83982111D01*
X140695117Y-84012391D01*
X140684810Y-84042038D01*
X140672519Y-84070975D01*
X140658236Y-84099126D01*
X140641957Y-84126413D01*
X140623675Y-84152761D01*
X140603384Y-84178092D01*
X140581079Y-84202329D01*
X140556754Y-84225396D01*
X140530403Y-84247216D01*
X140502020Y-84267712D01*
X140483796Y-84280036D01*
X140467955Y-84291221D01*
X140460911Y-84296573D01*
X140454441Y-84301864D01*
X140448540Y-84307170D01*
X140443200Y-84312564D01*
X140438414Y-84318123D01*
X140434174Y-84323920D01*
X140430475Y-84330031D01*
X140427309Y-84336530D01*
X140424669Y-84343492D01*
X140422549Y-84350992D01*
X140420941Y-84359105D01*
X140419838Y-84367905D01*
X140419233Y-84377467D01*
X140419120Y-84387867D01*
X140419491Y-84399178D01*
X140420340Y-84411476D01*
X140421659Y-84424835D01*
X140423441Y-84439331D01*
X140425681Y-84455037D01*
X140428369Y-84472030D01*
X140435068Y-84510171D01*
X140443482Y-84554353D01*
X140465232Y-84663233D01*
X140485837Y-84771998D01*
X140501905Y-84873023D01*
X140508307Y-84921840D01*
X140513659Y-84970170D01*
X140517988Y-85018495D01*
X140521322Y-85067297D01*
X140523688Y-85117060D01*
X140525116Y-85168265D01*
X140525264Y-85276933D01*
X140521989Y-85397160D01*
X140515513Y-85532808D01*
X140509291Y-85622707D01*
X140500800Y-85706553D01*
X140489872Y-85784616D01*
X140476335Y-85857171D01*
X140460021Y-85924490D01*
X140440758Y-85986846D01*
X140418376Y-86044511D01*
X140392705Y-86097760D01*
X140363575Y-86146864D01*
X140330816Y-86192096D01*
X140294257Y-86233729D01*
X140253728Y-86272036D01*
X140209060Y-86307291D01*
X140160081Y-86339765D01*
X140106622Y-86369731D01*
X140048513Y-86397463D01*
X140479050Y-88378143D01*
X140485931Y-88421874D01*
X140492796Y-88470738D01*
X140499462Y-88523088D01*
X140505747Y-88577278D01*
X140511470Y-88631663D01*
X140516446Y-88684596D01*
X140520495Y-88734432D01*
X140523434Y-88779525D01*
X140535033Y-88960464D01*
X140549568Y-89139401D01*
X140566470Y-89311825D01*
X140585173Y-89473224D01*
X140605110Y-89619087D01*
X140625713Y-89744901D01*
X140646414Y-89846156D01*
X140666646Y-89918338D01*
X140672901Y-89936890D01*
X140678253Y-89954569D01*
X140682701Y-89971419D01*
X140686243Y-89987486D01*
X140688878Y-90002816D01*
X140690603Y-90017453D01*
X140691417Y-90031443D01*
X140691317Y-90044831D01*
X140690302Y-90057661D01*
X140688370Y-90069979D01*
X140685520Y-90081831D01*
X140681749Y-90093261D01*
X140677055Y-90104315D01*
X140671437Y-90115037D01*
X140664893Y-90125473D01*
X140657421Y-90135669D01*
X140648952Y-90146627D01*
X140645173Y-90151771D01*
X140641708Y-90156767D01*
X140638565Y-90161670D01*
X140635753Y-90166536D01*
X140633280Y-90171422D01*
X140631154Y-90176383D01*
X140629384Y-90181475D01*
X140627977Y-90186754D01*
X140626942Y-90192276D01*
X140626286Y-90198098D01*
X140626019Y-90204274D01*
X140626149Y-90210862D01*
X140626683Y-90217916D01*
X140627630Y-90225494D01*
X140628998Y-90233650D01*
X140630795Y-90242441D01*
X140633030Y-90251923D01*
X140635711Y-90262151D01*
X140638846Y-90273183D01*
X140642443Y-90285073D01*
X140646510Y-90297877D01*
X140651056Y-90311652D01*
X140661617Y-90342338D01*
X140674190Y-90377578D01*
X140688843Y-90417819D01*
X140705641Y-90463510D01*
X140728118Y-90527061D01*
X140747275Y-90586791D01*
X140763101Y-90642839D01*
X140775588Y-90695341D01*
X140784725Y-90744437D01*
X140790502Y-90790266D01*
X140792911Y-90832964D01*
X140791942Y-90872671D01*
X140787584Y-90909525D01*
X140779829Y-90943663D01*
X140768666Y-90975225D01*
X140754086Y-91004348D01*
X140736079Y-91031172D01*
X140714635Y-91055833D01*
X140689746Y-91078471D01*
X140661401Y-91099223D01*
X140630669Y-91116735D01*
X140589359Y-91136023D01*
X140538830Y-91156707D01*
X140480445Y-91178406D01*
X140345545Y-91223322D01*
X140195547Y-91267720D01*
X140041339Y-91308550D01*
X139893807Y-91342763D01*
X139825948Y-91356434D01*
X139763840Y-91367307D01*
X139708845Y-91375001D01*
X139662324Y-91379133D01*
X139565127Y-91384306D01*
X139502329Y-91210529D01*
X139481510Y-91153251D01*
X139465204Y-91110318D01*
X139458319Y-91093634D01*
X139452054Y-91079821D01*
X139446239Y-91068639D01*
X139440705Y-91059850D01*
X139435281Y-91053214D01*
X139432558Y-91050630D01*
X139429799Y-91048494D01*
X139426983Y-91046778D01*
X139424088Y-91045451D01*
X139421094Y-91044483D01*
X139417980Y-91043845D01*
X139411304Y-91043438D01*
X139403891Y-91043991D01*
X139386176Y-91047024D01*
X139372418Y-91050483D01*
X139354924Y-91056164D01*
X139311281Y-91072969D01*
X139260351Y-91094977D01*
X139207238Y-91119731D01*
X139157044Y-91144770D01*
X139114872Y-91167634D01*
X139098390Y-91177482D01*
X139085827Y-91185864D01*
X139077822Y-91192472D01*
X139075727Y-91195015D01*
X139075011Y-91196999D01*
X139074946Y-91197732D01*
X139074751Y-91198660D01*
X139073987Y-91201074D01*
X139072745Y-91204194D01*
X139071051Y-91207976D01*
X139068931Y-91212371D01*
X139066409Y-91217334D01*
X139060267Y-91228774D01*
X139052829Y-91241924D01*
X139044302Y-91256411D01*
X139034892Y-91271862D01*
X139024802Y-91287905D01*
X139000495Y-91326654D01*
X138971440Y-91374046D01*
X138941286Y-91424082D01*
X138913678Y-91470760D01*
X138900109Y-91493231D01*
X138884868Y-91517150D01*
X138868473Y-91541783D01*
X138851442Y-91566395D01*
X138834293Y-91590251D01*
X138817545Y-91612615D01*
X138801716Y-91632753D01*
X138787323Y-91649928D01*
X138780377Y-91658602D01*
X138773885Y-91668185D01*
X138767845Y-91678642D01*
X138762258Y-91689937D01*
X138757124Y-91702034D01*
X138752443Y-91714899D01*
X138744438Y-91742788D01*
X138738243Y-91773318D01*
X138733856Y-91806207D01*
X138731276Y-91841168D01*
X138730503Y-91877918D01*
X138731536Y-91916173D01*
X138734373Y-91955647D01*
X138739014Y-91996058D01*
X138745457Y-92037119D01*
X138753703Y-92078547D01*
X138763749Y-92120058D01*
X138775595Y-92161367D01*
X138789240Y-92202190D01*
X138813814Y-92276582D01*
X138852390Y-92400273D01*
X138899679Y-92556051D01*
X138950393Y-92726705D01*
X138996504Y-92880440D01*
X139050305Y-93056536D01*
X136500000Y-93056536D01*
X136399221Y-92504455D01*
X136358737Y-92279330D01*
X136326330Y-92085616D01*
X136301840Y-91921776D01*
X136285103Y-91786271D01*
X136275957Y-91677563D01*
X136274239Y-91594114D01*
X136276114Y-91561382D01*
X136279786Y-91534387D01*
X136285234Y-91512937D01*
X136292438Y-91496842D01*
X136295003Y-91493038D01*
X136298977Y-91487811D01*
X136310816Y-91473459D01*
X136327283Y-91454523D01*
X136347710Y-91431741D01*
X136371427Y-91405851D01*
X136397763Y-91377592D01*
X136426049Y-91347700D01*
X136455616Y-91316915D01*
X136485458Y-91285566D01*
X136512266Y-91256257D01*
X136536135Y-91228777D01*
X136557157Y-91202913D01*
X136575425Y-91178453D01*
X136591035Y-91155186D01*
X136604079Y-91132898D01*
X136614651Y-91111379D01*
X136619039Y-91100841D01*
X136622844Y-91090415D01*
X136626079Y-91080076D01*
X136628753Y-91069796D01*
X136630880Y-91059549D01*
X136632471Y-91049309D01*
X136633537Y-91039049D01*
X136634091Y-91028742D01*
X136633708Y-91007883D01*
X136631414Y-90986520D01*
X136627304Y-90964441D01*
X136621471Y-90941434D01*
X136616988Y-90925007D01*
X136612133Y-90906173D01*
X136601929Y-90863937D01*
X136592090Y-90820035D01*
X136587693Y-90799118D01*
X136583850Y-90779774D01*
X136566766Y-90691778D01*
X136549630Y-90605056D01*
X136543116Y-90567826D01*
X136538456Y-90530775D01*
X136535620Y-90494054D01*
X136534576Y-90457813D01*
X136535294Y-90422203D01*
X136537742Y-90387375D01*
X136541889Y-90353478D01*
X136547704Y-90320664D01*
X136555157Y-90289083D01*
X136564216Y-90258886D01*
X136574849Y-90230224D01*
X136587027Y-90203246D01*
X136600717Y-90178103D01*
X136615889Y-90154947D01*
X136632512Y-90133928D01*
X136650554Y-90115195D01*
X136661850Y-90104592D01*
X136671723Y-90095124D01*
X136680252Y-90086521D01*
X136684039Y-90082458D01*
X136687520Y-90078510D01*
X136690706Y-90074641D01*
X136693607Y-90070819D01*
X136696233Y-90067009D01*
X136698594Y-90063177D01*
X136700701Y-90059289D01*
X136702562Y-90055312D01*
X136704189Y-90051210D01*
X136705592Y-90046951D01*
X136706780Y-90042501D01*
X136707764Y-90037824D01*
X136708554Y-90032888D01*
X136709159Y-90027658D01*
X136709591Y-90022101D01*
X136709859Y-90016182D01*
X136709974Y-90009867D01*
X136709945Y-90003122D01*
X136709496Y-89988209D01*
X136708594Y-89971170D01*
X136705756Y-89929625D01*
X136702238Y-89845881D01*
X136703849Y-89765770D01*
X136710480Y-89689469D01*
X136722020Y-89617152D01*
X136738363Y-89548996D01*
X136759398Y-89485177D01*
X136785016Y-89425871D01*
X136799511Y-89397966D01*
X136815110Y-89371255D01*
X136831801Y-89345760D01*
X136849570Y-89321503D01*
X136868404Y-89298507D01*
X136888288Y-89276793D01*
X136909209Y-89256384D01*
X136931154Y-89237301D01*
X136954108Y-89219566D01*
X136978059Y-89203201D01*
X137002993Y-89188229D01*
X137028896Y-89174671D01*
X137055754Y-89162550D01*
X137083554Y-89151886D01*
X137112282Y-89142704D01*
X137141925Y-89135023D01*
X137172469Y-89128867D01*
X137203901Y-89124258D01*
X137222544Y-89121685D01*
X137243268Y-89118240D01*
X137265382Y-89114072D01*
X137288193Y-89109333D01*
X137311009Y-89104171D01*
X137333140Y-89098737D01*
X137353894Y-89093180D01*
X137372578Y-89087651D01*
X137457043Y-89061135D01*
X137457043Y-88928668D01*
X137457968Y-88890905D01*
X137460723Y-88854766D01*
X137465279Y-88820299D01*
X137471608Y-88787554D01*
X137479683Y-88756581D01*
X137489473Y-88727429D01*
X137500951Y-88700149D01*
X137514088Y-88674789D01*
X137528856Y-88651401D01*
X137545226Y-88630033D01*
X137563169Y-88610735D01*
X137582658Y-88593557D01*
X137603663Y-88578548D01*
X137626157Y-88565759D01*
X137650110Y-88555239D01*
X137675494Y-88547038D01*
X137693015Y-88541684D01*
X137714646Y-88534036D01*
X137739537Y-88524452D01*
X137766836Y-88513290D01*
X137795693Y-88500906D01*
X137825255Y-88487659D01*
X137854673Y-88473906D01*
X137883094Y-88460004D01*
X137965218Y-88420667D01*
X138049512Y-88383742D01*
X138134370Y-88349782D01*
X138218185Y-88319342D01*
X138299351Y-88292973D01*
X138376261Y-88271230D01*
X138412618Y-88262265D01*
X138447308Y-88254665D01*
X138480131Y-88248497D01*
X138510886Y-88243832D01*
X138526414Y-88238398D01*
X138539438Y-88226732D01*
X138550075Y-88209159D01*
X138558441Y-88186007D01*
X138564655Y-88157605D01*
X138568832Y-88124279D01*
X138571546Y-88044165D01*
X138567518Y-87948287D01*
X138557687Y-87839264D01*
X138542986Y-87719715D01*
X138524354Y-87592262D01*
X138479034Y-87324118D01*
X138429217Y-87055791D01*
X138382391Y-86808240D01*
X138346043Y-86602423D01*
X138334298Y-86596087D01*
X138322474Y-86589396D01*
X138310512Y-86582318D01*
X138298356Y-86574820D01*
X138285948Y-86566871D01*
X138273231Y-86558437D01*
X138260146Y-86549486D01*
X138246638Y-86539987D01*
X138223637Y-86522668D01*
X138200525Y-86503412D01*
X138154067Y-86459284D01*
X138107472Y-86407999D01*
X138060946Y-86349953D01*
X138014696Y-86285541D01*
X137968929Y-86215160D01*
X137923851Y-86139205D01*
X137879669Y-86058071D01*
X137836591Y-85972155D01*
X137794822Y-85881853D01*
X137754569Y-85787559D01*
X137716040Y-85689670D01*
X137679440Y-85588583D01*
X137644977Y-85484691D01*
X137612858Y-85378392D01*
X137583288Y-85270080D01*
X137526496Y-85050326D01*
X137426079Y-85026885D01*
X137360473Y-85008439D01*
X137300077Y-84985205D01*
X137244832Y-84957546D01*
X137194678Y-84925825D01*
X137149555Y-84890405D01*
X137109404Y-84851649D01*
X137074167Y-84809921D01*
X137043783Y-84765583D01*
X137018193Y-84719000D01*
X136997338Y-84670533D01*
X136981159Y-84620547D01*
X136969595Y-84569403D01*
X136962589Y-84517467D01*
X136960080Y-84465099D01*
X136962009Y-84412665D01*
X136968317Y-84360527D01*
X136978944Y-84309047D01*
X136993831Y-84258590D01*
X137012919Y-84209518D01*
X137036148Y-84162195D01*
X137063459Y-84116984D01*
X137094793Y-84074247D01*
X137130090Y-84034349D01*
X137169291Y-83997652D01*
X137212336Y-83964519D01*
X137259167Y-83935313D01*
X137309723Y-83910398D01*
X137363946Y-83890137D01*
X137421776Y-83874894D01*
X137483154Y-83865030D01*
X137548020Y-83860909D01*
X137616315Y-83862895D01*
X137644777Y-83866225D01*
X137672518Y-83871906D01*
X137699498Y-83879844D01*
X137725675Y-83889948D01*
X137751011Y-83902123D01*
X137775464Y-83916278D01*
X137798995Y-83932320D01*
X137821562Y-83950156D01*
X137843127Y-83969693D01*
X137863647Y-83990839D01*
X137883084Y-84013500D01*
X137901396Y-84037585D01*
X137918544Y-84063000D01*
X137934487Y-84089652D01*
X137949185Y-84117450D01*
X137962597Y-84146299D01*
X137974684Y-84176108D01*
X137985404Y-84206784D01*
X137994719Y-84238234D01*
X138002586Y-84270365D01*
X138008966Y-84303084D01*
X138013819Y-84336299D01*
X138017105Y-84369917D01*
X138018782Y-84403846D01*
X138018811Y-84437992D01*
X138017151Y-84472263D01*
X138013763Y-84506566D01*
X138008605Y-84540808D01*
X138001638Y-84574897D01*
X137992821Y-84608739D01*
X137982114Y-84642243D01*
X137969477Y-84675315D01*
X137926611Y-84778627D01*
X137997366Y-85029491D01*
X138020288Y-85105526D01*
X138045984Y-85181309D01*
X138074113Y-85256264D01*
X138104335Y-85329811D01*
X138136309Y-85401372D01*
X138169693Y-85470369D01*
X138204146Y-85536223D01*
X138239328Y-85598356D01*
X138274897Y-85656191D01*
X138310512Y-85709148D01*
X138345833Y-85756649D01*
X138380517Y-85798117D01*
X138414224Y-85832972D01*
X138446614Y-85860638D01*
X138477344Y-85880534D01*
X138491981Y-85887388D01*
X138506074Y-85892083D01*
X138519326Y-85895108D01*
X138534218Y-85897773D01*
X138550402Y-85900074D01*
X138567527Y-85902007D01*
X138603202Y-85904750D01*
X138638445Y-85905966D01*
X138670458Y-85905618D01*
X138684379Y-85904846D01*
X138696443Y-85903670D01*
X138706301Y-85902086D01*
X138713602Y-85900087D01*
X138716185Y-85898932D01*
X138717997Y-85897671D01*
X138718996Y-85896305D01*
X138719137Y-85894833D01*
X138710721Y-85811710D01*
X138692332Y-85621217D01*
X138683599Y-85543643D01*
X138670187Y-85444931D01*
X138652075Y-85324949D01*
X138629240Y-85183564D01*
X138569314Y-84836053D01*
X138490231Y-84401337D01*
X138363167Y-83700841D01*
X138322699Y-83466345D01*
X138305674Y-83354801D01*
X138302949Y-83323956D01*
X138301652Y-83311510D01*
X138300287Y-83300884D01*
X138298770Y-83291958D01*
X138297016Y-83284607D01*
X138296025Y-83281485D01*
X138294943Y-83278711D01*
X138293759Y-83276269D01*
X138292465Y-83274146D01*
X138291048Y-83272324D01*
X138289499Y-83270790D01*
X138287806Y-83269527D01*
X138285960Y-83268521D01*
X138283950Y-83267756D01*
X138281766Y-83267217D01*
X138279396Y-83266888D01*
X138276831Y-83266754D01*
X138271073Y-83267012D01*
X138264406Y-83267867D01*
X138248012Y-83270879D01*
X138221156Y-83275573D01*
X138193396Y-83279369D01*
X138164963Y-83282283D01*
X138136087Y-83284327D01*
X138106996Y-83285516D01*
X138077921Y-83285864D01*
X138049090Y-83285383D01*
X138020733Y-83284089D01*
X137993080Y-83281995D01*
X137966361Y-83279114D01*
X137940804Y-83275462D01*
X137916639Y-83271051D01*
X137894096Y-83265895D01*
X137873405Y-83260009D01*
X137854794Y-83253406D01*
X137838493Y-83246100D01*
X137828465Y-83240871D01*
X137818991Y-83235641D01*
X137810065Y-83230390D01*
X137801682Y-83225102D01*
X137793838Y-83219759D01*
X137786527Y-83214342D01*
X137779745Y-83208836D01*
X137773487Y-83203220D01*
X137767748Y-83197479D01*
X137762523Y-83191595D01*
X137757808Y-83185548D01*
X137753596Y-83179323D01*
X137749884Y-83172901D01*
X137746667Y-83166265D01*
X137743939Y-83159396D01*
X137741695Y-83152277D01*
X137739932Y-83144891D01*
X137738644Y-83137220D01*
X137737825Y-83129245D01*
X137737472Y-83120950D01*
X137737579Y-83112317D01*
X137738142Y-83103327D01*
X137739155Y-83093964D01*
X137740613Y-83084209D01*
X137742512Y-83074045D01*
X137744848Y-83063455D01*
X137747614Y-83052419D01*
X137750806Y-83040922D01*
X137758448Y-83016469D01*
X137767737Y-82989955D01*
X137798910Y-82890975D01*
X137835482Y-82753338D01*
X137874608Y-82590353D01*
X137913442Y-82415332D01*
X137949141Y-82241585D01*
X137978860Y-82082421D01*
X137999754Y-81951153D01*
X138006002Y-81900138D01*
X138008978Y-81861089D01*
X138012409Y-81809396D01*
X138018611Y-81761089D01*
X138027457Y-81716163D01*
X138038823Y-81674619D01*
X138052584Y-81636452D01*
X138060323Y-81618635D01*
X138068614Y-81601662D01*
X138077442Y-81585532D01*
X138086790Y-81570245D01*
X138096643Y-81555802D01*
X138106985Y-81542201D01*
X138117801Y-81529443D01*
X138129075Y-81517527D01*
X138140791Y-81506452D01*
X138152934Y-81496220D01*
X138165489Y-81486829D01*
X138178439Y-81478278D01*
X138191769Y-81470569D01*
X138205463Y-81463701D01*
X138219506Y-81457672D01*
X138233882Y-81452484D01*
X138248575Y-81448135D01*
X138263570Y-81444627D01*
X138278851Y-81441957D01*
X138294403Y-81440126D01*
X138326256Y-81438981D01*
X138342526Y-81439665D01*
G36*
X140506567Y-93535320D02*
G01*
X140578382Y-93537582D01*
X140645513Y-93541352D01*
X140707958Y-93546630D01*
X140765717Y-93553416D01*
X140818792Y-93561709D01*
X140867180Y-93571511D01*
X140910884Y-93582821D01*
X140938424Y-93591404D01*
X140965466Y-93600781D01*
X140992010Y-93610953D01*
X141018055Y-93621920D01*
X141043603Y-93633680D01*
X141068652Y-93646235D01*
X141093203Y-93659585D01*
X141117257Y-93673728D01*
X141140811Y-93688666D01*
X141163868Y-93704399D01*
X141186427Y-93720925D01*
X141208487Y-93738246D01*
X141230050Y-93756362D01*
X141251114Y-93775272D01*
X141271680Y-93794976D01*
X141291748Y-93815474D01*
X141311270Y-93836666D01*
X141330200Y-93858451D01*
X141348538Y-93880827D01*
X141366283Y-93903797D01*
X141383436Y-93927358D01*
X141399996Y-93951512D01*
X141415964Y-93976259D01*
X141431340Y-94001598D01*
X141446123Y-94027529D01*
X141460314Y-94054053D01*
X141473912Y-94081169D01*
X141486918Y-94108877D01*
X141499332Y-94137178D01*
X141511153Y-94166071D01*
X141522382Y-94195557D01*
X141533018Y-94225635D01*
X141543035Y-94256238D01*
X141552406Y-94287730D01*
X141561131Y-94320110D01*
X141569209Y-94353379D01*
X141576641Y-94387537D01*
X141583427Y-94422583D01*
X141589566Y-94458518D01*
X141595060Y-94495341D01*
X141599907Y-94533053D01*
X141604107Y-94571654D01*
X141610570Y-94651521D01*
X141614448Y-94734943D01*
X141615740Y-94821919D01*
X141614528Y-94898555D01*
X141610893Y-94972498D01*
X141604834Y-95043749D01*
X141596352Y-95112306D01*
X141585447Y-95178171D01*
X141572117Y-95241344D01*
X141556365Y-95301823D01*
X141547580Y-95331053D01*
X141538189Y-95359610D01*
X141526024Y-95393667D01*
X141513227Y-95426902D01*
X141499797Y-95459316D01*
X141485734Y-95490908D01*
X141471038Y-95521680D01*
X141455710Y-95551630D01*
X141439748Y-95580759D01*
X141423154Y-95609066D01*
X141405927Y-95636553D01*
X141388068Y-95663218D01*
X141369575Y-95689061D01*
X141350450Y-95714084D01*
X141330692Y-95738285D01*
X141310301Y-95761665D01*
X141289277Y-95784223D01*
X141267620Y-95805960D01*
X141250670Y-95821895D01*
X141232992Y-95837385D01*
X141214587Y-95852431D01*
X141195455Y-95867032D01*
X141175596Y-95881190D01*
X141155010Y-95894903D01*
X141133696Y-95908171D01*
X141111656Y-95920995D01*
X141088889Y-95933375D01*
X141065395Y-95945311D01*
X141041173Y-95956802D01*
X141016225Y-95967849D01*
X140990549Y-95978452D01*
X140964147Y-95988611D01*
X140937017Y-95998325D01*
X140909160Y-96007595D01*
X140887605Y-96014064D01*
X140865161Y-96020117D01*
X140841828Y-96025751D01*
X140817607Y-96030969D01*
X140792497Y-96035769D01*
X140766499Y-96040151D01*
X140739611Y-96044116D01*
X140711836Y-96047664D01*
X140653618Y-96053507D01*
X140591846Y-96057681D01*
X140526520Y-96060185D01*
X140457639Y-96061020D01*
X139497725Y-96061020D01*
X139497725Y-93961961D01*
X140007841Y-93961961D01*
X140007841Y-95635348D01*
X140388705Y-95635348D01*
X140440271Y-95634971D01*
X140488121Y-95633840D01*
X140532256Y-95631955D01*
X140572674Y-95629316D01*
X140609376Y-95625923D01*
X140642362Y-95621777D01*
X140671633Y-95616876D01*
X140697187Y-95611222D01*
X140712529Y-95607176D01*
X140727535Y-95602793D01*
X140742203Y-95598074D01*
X140756536Y-95593019D01*
X140770531Y-95587626D01*
X140784190Y-95581898D01*
X140797513Y-95575832D01*
X140810499Y-95569430D01*
X140823148Y-95562692D01*
X140835460Y-95555617D01*
X140847436Y-95548205D01*
X140859076Y-95540457D01*
X140870379Y-95532372D01*
X140881345Y-95523950D01*
X140891975Y-95515192D01*
X140902268Y-95506098D01*
X140912487Y-95496464D01*
X140922463Y-95486090D01*
X140932198Y-95474976D01*
X140941690Y-95463121D01*
X140950939Y-95450525D01*
X140959946Y-95437189D01*
X140968711Y-95423113D01*
X140977234Y-95408296D01*
X140985514Y-95392739D01*
X140993552Y-95376441D01*
X141001347Y-95359403D01*
X141008901Y-95341624D01*
X141016211Y-95323104D01*
X141023280Y-95303845D01*
X141030106Y-95283844D01*
X141036690Y-95263104D01*
X141042950Y-95241299D01*
X141048807Y-95218539D01*
X141054260Y-95194822D01*
X141059309Y-95170150D01*
X141063954Y-95144522D01*
X141068195Y-95117937D01*
X141075466Y-95061901D01*
X141081120Y-95002041D01*
X141085159Y-94938357D01*
X141087583Y-94870850D01*
X141088391Y-94799518D01*
X141087583Y-94728403D01*
X141085159Y-94661542D01*
X141081120Y-94598935D01*
X141075466Y-94540583D01*
X141068195Y-94486486D01*
X141059309Y-94436643D01*
X141048807Y-94391054D01*
X141036690Y-94349720D01*
X141030066Y-94330386D01*
X141023118Y-94311590D01*
X141015848Y-94293333D01*
X141008254Y-94275615D01*
X141000338Y-94258435D01*
X140992098Y-94241794D01*
X140983535Y-94225691D01*
X140974649Y-94210127D01*
X140965440Y-94195101D01*
X140955907Y-94180614D01*
X140946052Y-94166666D01*
X140935873Y-94153256D01*
X140925371Y-94140384D01*
X140914547Y-94128052D01*
X140903399Y-94116257D01*
X140891927Y-94105002D01*
X140880100Y-94094238D01*
X140867881Y-94083918D01*
X140855272Y-94074042D01*
X140842273Y-94064611D01*
X140828883Y-94055624D01*
X140815103Y-94047081D01*
X140800933Y-94038983D01*
X140786372Y-94031328D01*
X140771420Y-94024119D01*
X140756078Y-94017353D01*
X140740346Y-94011032D01*
X140724223Y-94005155D01*
X140707709Y-93999722D01*
X140690805Y-93994734D01*
X140673511Y-93990189D01*
X140655826Y-93986090D01*
X140641669Y-93983168D01*
X140625910Y-93980435D01*
X140589585Y-93975534D01*
X140546850Y-93971387D01*
X140497708Y-93967995D01*
X140442156Y-93965356D01*
X140380196Y-93963471D01*
X140311827Y-93962340D01*
X140237049Y-93961963D01*
X140007841Y-93961961D01*
X139497725Y-93961961D01*
X139497725Y-93534566D01*
X140430065Y-93534566D01*
X140506567Y-93535320D01*
G37*
X140506567Y-93535320D02*
X140578382Y-93537582D01*
X140645513Y-93541352D01*
X140707958Y-93546630D01*
X140765717Y-93553416D01*
X140818792Y-93561709D01*
X140867180Y-93571511D01*
X140910884Y-93582821D01*
X140938424Y-93591404D01*
X140965466Y-93600781D01*
X140992010Y-93610953D01*
X141018055Y-93621920D01*
X141043603Y-93633680D01*
X141068652Y-93646235D01*
X141093203Y-93659585D01*
X141117257Y-93673728D01*
X141140811Y-93688666D01*
X141163868Y-93704399D01*
X141186427Y-93720925D01*
X141208487Y-93738246D01*
X141230050Y-93756362D01*
X141251114Y-93775272D01*
X141271680Y-93794976D01*
X141291748Y-93815474D01*
X141311270Y-93836666D01*
X141330200Y-93858451D01*
X141348538Y-93880827D01*
X141366283Y-93903797D01*
X141383436Y-93927358D01*
X141399996Y-93951512D01*
X141415964Y-93976259D01*
X141431340Y-94001598D01*
X141446123Y-94027529D01*
X141460314Y-94054053D01*
X141473912Y-94081169D01*
X141486918Y-94108877D01*
X141499332Y-94137178D01*
X141511153Y-94166071D01*
X141522382Y-94195557D01*
X141533018Y-94225635D01*
X141543035Y-94256238D01*
X141552406Y-94287730D01*
X141561131Y-94320110D01*
X141569209Y-94353379D01*
X141576641Y-94387537D01*
X141583427Y-94422583D01*
X141589566Y-94458518D01*
X141595060Y-94495341D01*
X141599907Y-94533053D01*
X141604107Y-94571654D01*
X141610570Y-94651521D01*
X141614448Y-94734943D01*
X141615740Y-94821919D01*
X141614528Y-94898555D01*
X141610893Y-94972498D01*
X141604834Y-95043749D01*
X141596352Y-95112306D01*
X141585447Y-95178171D01*
X141572117Y-95241344D01*
X141556365Y-95301823D01*
X141547580Y-95331053D01*
X141538189Y-95359610D01*
X141526024Y-95393667D01*
X141513227Y-95426902D01*
X141499797Y-95459316D01*
X141485734Y-95490908D01*
X141471038Y-95521680D01*
X141455710Y-95551630D01*
X141439748Y-95580759D01*
X141423154Y-95609066D01*
X141405927Y-95636553D01*
X141388068Y-95663218D01*
X141369575Y-95689061D01*
X141350450Y-95714084D01*
X141330692Y-95738285D01*
X141310301Y-95761665D01*
X141289277Y-95784223D01*
X141267620Y-95805960D01*
X141250670Y-95821895D01*
X141232992Y-95837385D01*
X141214587Y-95852431D01*
X141195455Y-95867032D01*
X141175596Y-95881190D01*
X141155010Y-95894903D01*
X141133696Y-95908171D01*
X141111656Y-95920995D01*
X141088889Y-95933375D01*
X141065395Y-95945311D01*
X141041173Y-95956802D01*
X141016225Y-95967849D01*
X140990549Y-95978452D01*
X140964147Y-95988611D01*
X140937017Y-95998325D01*
X140909160Y-96007595D01*
X140887605Y-96014064D01*
X140865161Y-96020117D01*
X140841828Y-96025751D01*
X140817607Y-96030969D01*
X140792497Y-96035769D01*
X140766499Y-96040151D01*
X140739611Y-96044116D01*
X140711836Y-96047664D01*
X140653618Y-96053507D01*
X140591846Y-96057681D01*
X140526520Y-96060185D01*
X140457639Y-96061020D01*
X139497725Y-96061020D01*
X139497725Y-93961961D01*
X140007841Y-93961961D01*
X140007841Y-95635348D01*
X140388705Y-95635348D01*
X140440271Y-95634971D01*
X140488121Y-95633840D01*
X140532256Y-95631955D01*
X140572674Y-95629316D01*
X140609376Y-95625923D01*
X140642362Y-95621777D01*
X140671633Y-95616876D01*
X140697187Y-95611222D01*
X140712529Y-95607176D01*
X140727535Y-95602793D01*
X140742203Y-95598074D01*
X140756536Y-95593019D01*
X140770531Y-95587626D01*
X140784190Y-95581898D01*
X140797513Y-95575832D01*
X140810499Y-95569430D01*
X140823148Y-95562692D01*
X140835460Y-95555617D01*
X140847436Y-95548205D01*
X140859076Y-95540457D01*
X140870379Y-95532372D01*
X140881345Y-95523950D01*
X140891975Y-95515192D01*
X140902268Y-95506098D01*
X140912487Y-95496464D01*
X140922463Y-95486090D01*
X140932198Y-95474976D01*
X140941690Y-95463121D01*
X140950939Y-95450525D01*
X140959946Y-95437189D01*
X140968711Y-95423113D01*
X140977234Y-95408296D01*
X140985514Y-95392739D01*
X140993552Y-95376441D01*
X141001347Y-95359403D01*
X141008901Y-95341624D01*
X141016211Y-95323104D01*
X141023280Y-95303845D01*
X141030106Y-95283844D01*
X141036690Y-95263104D01*
X141042950Y-95241299D01*
X141048807Y-95218539D01*
X141054260Y-95194822D01*
X141059309Y-95170150D01*
X141063954Y-95144522D01*
X141068195Y-95117937D01*
X141075466Y-95061901D01*
X141081120Y-95002041D01*
X141085159Y-94938357D01*
X141087583Y-94870850D01*
X141088391Y-94799518D01*
X141087583Y-94728403D01*
X141085159Y-94661542D01*
X141081120Y-94598935D01*
X141075466Y-94540583D01*
X141068195Y-94486486D01*
X141059309Y-94436643D01*
X141048807Y-94391054D01*
X141036690Y-94349720D01*
X141030066Y-94330386D01*
X141023118Y-94311590D01*
X141015848Y-94293333D01*
X141008254Y-94275615D01*
X141000338Y-94258435D01*
X140992098Y-94241794D01*
X140983535Y-94225691D01*
X140974649Y-94210127D01*
X140965440Y-94195101D01*
X140955907Y-94180614D01*
X140946052Y-94166666D01*
X140935873Y-94153256D01*
X140925371Y-94140384D01*
X140914547Y-94128052D01*
X140903399Y-94116257D01*
X140891927Y-94105002D01*
X140880100Y-94094238D01*
X140867881Y-94083918D01*
X140855272Y-94074042D01*
X140842273Y-94064611D01*
X140828883Y-94055624D01*
X140815103Y-94047081D01*
X140800933Y-94038983D01*
X140786372Y-94031328D01*
X140771420Y-94024119D01*
X140756078Y-94017353D01*
X140740346Y-94011032D01*
X140724223Y-94005155D01*
X140707709Y-93999722D01*
X140690805Y-93994734D01*
X140673511Y-93990189D01*
X140655826Y-93986090D01*
X140641669Y-93983168D01*
X140625910Y-93980435D01*
X140589585Y-93975534D01*
X140546850Y-93971387D01*
X140497708Y-93967995D01*
X140442156Y-93965356D01*
X140380196Y-93963471D01*
X140311827Y-93962340D01*
X140237049Y-93961963D01*
X140007841Y-93961961D01*
X139497725Y-93961961D01*
X139497725Y-93534566D01*
X140430065Y-93534566D01*
X140506567Y-93535320D01*
D11*
G36*
X141525739Y-100777137D02*
G01*
X141542228Y-100778258D01*
X141558403Y-100780126D01*
X141574266Y-100782740D01*
X141589816Y-100786102D01*
X141605053Y-100790211D01*
X141619978Y-100795067D01*
X141634590Y-100800670D01*
X141648889Y-100807021D01*
X141662875Y-100814118D01*
X141676549Y-100821962D01*
X141689909Y-100830554D01*
X141702957Y-100839892D01*
X141715693Y-100849978D01*
X141728115Y-100860811D01*
X141740225Y-100872390D01*
X141751805Y-100884500D01*
X141762638Y-100896923D01*
X141772723Y-100909658D01*
X141782062Y-100922707D01*
X141790654Y-100936068D01*
X141798499Y-100949741D01*
X141805596Y-100963728D01*
X141811947Y-100978027D01*
X141817550Y-100992640D01*
X141822406Y-101007564D01*
X141826516Y-101022802D01*
X141829878Y-101038352D01*
X141832493Y-101054215D01*
X141834361Y-101070391D01*
X141835481Y-101086879D01*
X141835855Y-101103680D01*
X141835855Y-103245309D01*
X141835481Y-103262111D01*
X141834361Y-103278599D01*
X141832493Y-103294775D01*
X141829878Y-103310638D01*
X141826516Y-103326188D01*
X141822406Y-103341425D01*
X141817550Y-103356350D01*
X141811947Y-103370962D01*
X141805596Y-103385260D01*
X141798499Y-103399247D01*
X141790654Y-103412920D01*
X141782062Y-103426281D01*
X141772723Y-103439329D01*
X141762638Y-103452064D01*
X141751805Y-103464486D01*
X141740225Y-103476596D01*
X141728115Y-103488176D01*
X141715693Y-103499009D01*
X141702957Y-103509095D01*
X141689909Y-103518434D01*
X141676549Y-103527026D01*
X141662875Y-103534871D01*
X141648889Y-103541968D01*
X141634590Y-103548319D01*
X141619978Y-103553922D01*
X141605053Y-103558778D01*
X141589816Y-103562887D01*
X141574266Y-103566249D01*
X141558403Y-103568864D01*
X141542228Y-103570732D01*
X141525739Y-103571852D01*
X141508938Y-103572226D01*
X141492137Y-103571852D01*
X141475649Y-103570732D01*
X141459474Y-103568864D01*
X141443611Y-103566249D01*
X141428061Y-103562887D01*
X141412824Y-103558778D01*
X141397899Y-103553922D01*
X141383287Y-103548319D01*
X141368988Y-103541968D01*
X141355002Y-103534871D01*
X141341328Y-103527026D01*
X141327967Y-103518434D01*
X141314919Y-103509095D01*
X141302184Y-103499009D01*
X141289762Y-103488176D01*
X141277652Y-103476596D01*
X141266072Y-103464486D01*
X141255239Y-103452064D01*
X141245153Y-103439329D01*
X141235815Y-103426281D01*
X141227223Y-103412920D01*
X141219378Y-103399247D01*
X141212281Y-103385260D01*
X141205930Y-103370962D01*
X141200327Y-103356350D01*
X141195470Y-103341425D01*
X141191361Y-103326188D01*
X141187999Y-103310638D01*
X141185384Y-103294775D01*
X141183516Y-103278599D01*
X141182395Y-103262111D01*
X141182022Y-103245309D01*
X141182019Y-101103680D01*
X141182392Y-101087148D01*
X141183513Y-101070911D01*
X141185381Y-101054970D01*
X141187996Y-101039324D01*
X141191358Y-101023974D01*
X141195467Y-101008919D01*
X141200323Y-100994159D01*
X141205926Y-100979695D01*
X141212276Y-100965526D01*
X141219374Y-100951653D01*
X141227218Y-100938074D01*
X141235810Y-100924792D01*
X141245149Y-100911805D01*
X141255235Y-100899113D01*
X141266068Y-100886716D01*
X141277649Y-100874615D01*
X141289741Y-100863027D01*
X141302111Y-100852168D01*
X141314760Y-100842039D01*
X141327686Y-100832639D01*
X141340891Y-100823969D01*
X141354373Y-100816029D01*
X141368133Y-100808819D01*
X141382172Y-100802338D01*
X141396488Y-100796587D01*
X141411083Y-100791566D01*
X141425955Y-100787274D01*
X141441105Y-100783712D01*
X141456533Y-100780880D01*
X141472240Y-100778778D01*
X141488224Y-100777406D01*
X141504486Y-100776764D01*
X141508938Y-100776764D01*
X141525739Y-100777137D01*
G37*
D10*
G36*
X137018314Y-94528947D02*
G01*
X138017865Y-94528947D01*
X138017865Y-93534566D01*
X138527981Y-93534566D01*
X138527981Y-96061018D01*
X138017865Y-96061018D01*
X138017865Y-94956341D01*
X137018314Y-94956341D01*
X137018314Y-96061018D01*
X136508198Y-96061018D01*
X136508198Y-93534566D01*
X137018314Y-93534566D01*
X137018314Y-94528947D01*
G37*
X137018314Y-94528947D02*
X138017865Y-94528947D01*
X138017865Y-93534566D01*
X138527981Y-93534566D01*
X138527981Y-96061018D01*
X138017865Y-96061018D01*
X138017865Y-94956341D01*
X137018314Y-94956341D01*
X137018314Y-96061018D01*
X136508198Y-96061018D01*
X136508198Y-93534566D01*
X137018314Y-93534566D01*
X137018314Y-94528947D01*
G36*
X139281698Y-96061018D02*
G01*
X138771582Y-96061018D01*
X138771582Y-93534566D01*
X139281698Y-93534566D01*
X139281698Y-96061018D01*
G37*
X139281698Y-96061018D02*
X138771582Y-96061018D01*
X138771582Y-93534566D01*
X139281698Y-93534566D01*
X139281698Y-96061018D01*
D11*
G36*
X142689975Y-101851575D02*
G01*
X142698341Y-101851992D01*
X142706724Y-101852687D01*
X142715125Y-101853660D01*
X142723543Y-101854911D01*
X142731978Y-101856440D01*
X142740431Y-101858247D01*
X142748901Y-101860332D01*
X142757389Y-101862695D01*
X142765894Y-101865336D01*
X142774416Y-101868254D01*
X142782955Y-101871451D01*
X142791512Y-101874926D01*
X142800086Y-101878678D01*
X142808678Y-101882708D01*
X142817286Y-101887017D01*
X142834557Y-101896017D01*
X142842802Y-101900595D01*
X142850785Y-101905225D01*
X142858509Y-101909908D01*
X142865971Y-101914643D01*
X142873173Y-101919429D01*
X142880114Y-101924268D01*
X142886795Y-101929159D01*
X142893215Y-101934103D01*
X142899374Y-101939098D01*
X142905273Y-101944145D01*
X142910911Y-101949245D01*
X142916289Y-101954396D01*
X142921405Y-101959599D01*
X142926261Y-101964855D01*
X142953713Y-101996016D01*
X142980469Y-102027784D01*
X143006531Y-102060161D01*
X143031897Y-102093147D01*
X143056569Y-102126740D01*
X143080545Y-102160941D01*
X143103827Y-102195750D01*
X143126414Y-102231168D01*
X143148305Y-102267194D01*
X143169502Y-102303827D01*
X143190004Y-102341069D01*
X143209810Y-102378919D01*
X143228922Y-102417377D01*
X143247339Y-102456444D01*
X143265061Y-102496118D01*
X143282087Y-102536400D01*
X143298515Y-102577213D01*
X143313882Y-102618478D01*
X143328190Y-102660194D01*
X143341438Y-102702361D01*
X143353626Y-102744981D01*
X143364755Y-102788052D01*
X143374823Y-102831575D01*
X143383832Y-102875549D01*
X143391781Y-102919976D01*
X143398670Y-102964854D01*
X143404499Y-103010183D01*
X143409268Y-103055965D01*
X143412978Y-103102198D01*
X143415627Y-103148883D01*
X143417217Y-103196020D01*
X143417747Y-103243609D01*
X143417130Y-103293725D01*
X143415280Y-103343442D01*
X143412196Y-103392759D01*
X143407878Y-103441676D01*
X143402327Y-103490194D01*
X143395542Y-103538312D01*
X143387524Y-103586030D01*
X143378272Y-103633349D01*
X143367787Y-103680269D01*
X143356068Y-103726788D01*
X143343115Y-103772908D01*
X143328929Y-103818629D01*
X143313509Y-103863950D01*
X143296856Y-103908871D01*
X143278969Y-103953393D01*
X143259849Y-103997515D01*
X143240033Y-104040759D01*
X143219505Y-104083205D01*
X143198265Y-104124851D01*
X143176312Y-104165698D01*
X143153647Y-104205746D01*
X143130270Y-104244995D01*
X143106180Y-104283444D01*
X143081379Y-104321094D01*
X143055864Y-104357945D01*
X143029638Y-104393997D01*
X143002699Y-104429249D01*
X142975047Y-104463702D01*
X142946684Y-104497356D01*
X142917608Y-104530211D01*
X142887820Y-104562267D01*
X142857319Y-104593523D01*
X142826063Y-104624294D01*
X142794007Y-104654334D01*
X142761152Y-104683645D01*
X142727498Y-104712226D01*
X142693045Y-104740077D01*
X142657792Y-104767199D01*
X142621740Y-104793590D01*
X142584889Y-104819252D01*
X142547239Y-104844184D01*
X142508790Y-104868387D01*
X142469541Y-104891859D01*
X142429493Y-104914602D01*
X142388646Y-104936616D01*
X142347000Y-104957899D01*
X142304555Y-104978453D01*
X142261311Y-104998278D01*
X142217449Y-105017129D01*
X142173154Y-105034764D01*
X142128423Y-105051183D01*
X142083259Y-105066386D01*
X142037660Y-105080372D01*
X141991626Y-105093142D01*
X141945158Y-105104696D01*
X141898256Y-105115033D01*
X141850920Y-105124155D01*
X141803149Y-105132060D01*
X141754944Y-105138749D01*
X141706304Y-105144222D01*
X141657230Y-105148478D01*
X141607722Y-105151519D01*
X141557779Y-105153343D01*
X141507402Y-105153951D01*
X141457286Y-105153343D01*
X141407569Y-105151519D01*
X141358253Y-105148478D01*
X141309335Y-105144222D01*
X141260818Y-105138749D01*
X141212700Y-105132060D01*
X141164981Y-105124155D01*
X141117662Y-105115033D01*
X141070743Y-105104696D01*
X141024223Y-105093142D01*
X140978103Y-105080372D01*
X140932382Y-105066386D01*
X140887061Y-105051183D01*
X140842139Y-105034764D01*
X140797618Y-105017129D01*
X140753495Y-104998278D01*
X140710242Y-104978193D01*
X140667770Y-104957414D01*
X140626080Y-104935939D01*
X140585172Y-104913769D01*
X140545046Y-104890905D01*
X140505702Y-104867345D01*
X140467139Y-104843090D01*
X140429359Y-104818141D01*
X140392360Y-104792496D01*
X140356143Y-104766156D01*
X140320708Y-104739122D01*
X140286055Y-104711392D01*
X140252184Y-104682967D01*
X140219095Y-104653848D01*
X140186788Y-104624033D01*
X140155262Y-104593523D01*
X140124762Y-104562267D01*
X140094973Y-104530211D01*
X140065897Y-104497356D01*
X140037533Y-104463702D01*
X140009882Y-104429249D01*
X139982943Y-104393997D01*
X139956716Y-104357945D01*
X139931202Y-104321094D01*
X139906400Y-104283444D01*
X139882310Y-104244995D01*
X139858933Y-104205746D01*
X139836268Y-104165698D01*
X139814316Y-104124851D01*
X139793076Y-104083205D01*
X139772548Y-104040759D01*
X139752732Y-103997515D01*
X139733881Y-103953653D01*
X139716246Y-103909357D01*
X139699828Y-103864627D01*
X139684625Y-103819462D01*
X139670639Y-103773864D01*
X139657868Y-103727830D01*
X139646314Y-103681363D01*
X139635977Y-103634460D01*
X139626855Y-103587124D01*
X139618950Y-103539353D01*
X139612260Y-103491148D01*
X139606787Y-103442509D01*
X139602531Y-103393435D01*
X139599490Y-103343927D01*
X139597666Y-103293985D01*
X139597058Y-103243609D01*
X139597579Y-103196020D01*
X139599143Y-103148883D01*
X139601749Y-103102198D01*
X139605398Y-103055965D01*
X139610089Y-103010183D01*
X139615822Y-102964854D01*
X139622598Y-102919976D01*
X139630417Y-102875549D01*
X139639278Y-102831575D01*
X139649181Y-102788052D01*
X139660127Y-102744981D01*
X139672115Y-102702361D01*
X139685146Y-102660194D01*
X139699219Y-102618478D01*
X139714335Y-102577213D01*
X139730493Y-102536400D01*
X139747789Y-102496118D01*
X139765763Y-102456444D01*
X139784414Y-102417377D01*
X139803743Y-102378919D01*
X139823750Y-102341069D01*
X139844434Y-102303827D01*
X139865796Y-102267194D01*
X139887835Y-102231168D01*
X139910552Y-102195750D01*
X139933947Y-102160941D01*
X139958019Y-102126740D01*
X139982769Y-102093147D01*
X140008197Y-102060161D01*
X140034302Y-102027784D01*
X140061084Y-101996016D01*
X140088545Y-101964855D01*
X140093392Y-101959599D01*
X140098483Y-101954396D01*
X140103817Y-101949245D01*
X140109394Y-101944145D01*
X140115214Y-101939098D01*
X140121278Y-101934103D01*
X140127584Y-101929159D01*
X140134134Y-101924268D01*
X140140928Y-101919429D01*
X140147964Y-101914643D01*
X140155244Y-101909908D01*
X140162767Y-101905225D01*
X140170533Y-101900595D01*
X140178543Y-101896017D01*
X140186796Y-101891491D01*
X140195292Y-101887017D01*
X140204170Y-101882708D01*
X140213014Y-101878678D01*
X140221823Y-101874926D01*
X140230597Y-101871451D01*
X140239336Y-101868254D01*
X140248040Y-101865336D01*
X140256710Y-101862695D01*
X140265345Y-101860332D01*
X140273946Y-101858247D01*
X140282511Y-101856440D01*
X140291042Y-101854911D01*
X140299538Y-101853660D01*
X140307999Y-101852687D01*
X140316425Y-101851992D01*
X140324817Y-101851575D01*
X140333174Y-101851436D01*
X140333451Y-101851445D01*
X140333729Y-101851471D01*
X140334007Y-101851514D01*
X140334284Y-101851575D01*
X140334562Y-101851653D01*
X140334840Y-101851748D01*
X140335118Y-101851861D01*
X140335397Y-101851991D01*
X140335675Y-101852138D01*
X140335953Y-101852302D01*
X140336232Y-101852484D01*
X140336510Y-101852684D01*
X140336789Y-101852901D01*
X140337068Y-101853135D01*
X140337347Y-101853386D01*
X140337626Y-101853655D01*
X140339845Y-101853655D01*
X140356099Y-101854297D01*
X140372057Y-101855669D01*
X140387721Y-101857771D01*
X140403088Y-101860603D01*
X140418161Y-101864165D01*
X140432938Y-101868456D01*
X140447419Y-101873477D01*
X140461605Y-101879228D01*
X140475496Y-101885709D01*
X140489092Y-101892920D01*
X140502392Y-101900860D01*
X140515396Y-101909530D01*
X140528105Y-101918930D01*
X140540519Y-101929060D01*
X140552637Y-101939920D01*
X140564460Y-101951510D01*
X140576041Y-101963341D01*
X140586874Y-101975486D01*
X140596960Y-101987943D01*
X140606299Y-102000713D01*
X140614891Y-102013795D01*
X140622735Y-102027191D01*
X140629833Y-102040899D01*
X140636183Y-102054920D01*
X140641786Y-102069254D01*
X140646643Y-102083900D01*
X140650752Y-102098860D01*
X140654114Y-102114132D01*
X140656728Y-102129716D01*
X140658596Y-102145614D01*
X140659717Y-102161824D01*
X140660090Y-102178347D01*
X140659977Y-102185340D01*
X140659638Y-102192420D01*
X140659074Y-102199587D01*
X140658283Y-102206841D01*
X140657267Y-102214182D01*
X140656024Y-102221610D01*
X140654556Y-102229124D01*
X140652862Y-102236726D01*
X140650942Y-102244414D01*
X140648796Y-102252189D01*
X140646425Y-102260051D01*
X140643827Y-102268000D01*
X140641004Y-102276036D01*
X140637954Y-102284158D01*
X140634679Y-102292368D01*
X140631178Y-102300664D01*
X140624437Y-102316822D01*
X140617558Y-102331937D01*
X140610539Y-102346010D01*
X140606977Y-102352655D01*
X140603381Y-102359040D01*
X140599749Y-102365165D01*
X140596083Y-102371029D01*
X140592382Y-102376632D01*
X140588647Y-102381975D01*
X140584876Y-102387057D01*
X140581071Y-102391879D01*
X140577231Y-102396440D01*
X140573356Y-102400740D01*
X140534307Y-102446513D01*
X140497778Y-102493206D01*
X140463768Y-102540820D01*
X140432277Y-102589355D01*
X140403305Y-102638811D01*
X140376853Y-102689188D01*
X140352920Y-102740485D01*
X140331506Y-102792704D01*
X140312611Y-102845843D01*
X140296236Y-102899904D01*
X140282380Y-102954885D01*
X140271043Y-103010787D01*
X140262226Y-103067610D01*
X140255928Y-103125353D01*
X140252149Y-103184017D01*
X140250889Y-103243602D01*
X140251567Y-103288611D01*
X140253600Y-103333012D01*
X140256988Y-103376804D01*
X140261731Y-103419989D01*
X140267829Y-103462565D01*
X140275283Y-103504533D01*
X140284091Y-103545892D01*
X140294255Y-103586644D01*
X140305775Y-103626788D01*
X140318649Y-103666323D01*
X140332878Y-103705250D01*
X140348463Y-103743569D01*
X140365403Y-103781280D01*
X140383698Y-103818383D01*
X140403349Y-103854878D01*
X140424354Y-103890764D01*
X140446706Y-103925582D01*
X140469840Y-103959427D01*
X140493756Y-103992300D01*
X140518454Y-104024199D01*
X140543933Y-104055125D01*
X140570195Y-104085079D01*
X140597238Y-104114059D01*
X140625063Y-104142067D01*
X140653670Y-104169101D01*
X140683059Y-104195163D01*
X140713229Y-104220251D01*
X140744182Y-104244367D01*
X140775916Y-104267510D01*
X140808432Y-104289679D01*
X140841730Y-104310876D01*
X140875810Y-104331099D01*
X140912157Y-104351567D01*
X140948921Y-104370713D01*
X140986102Y-104388539D01*
X141023701Y-104405045D01*
X141061716Y-104420230D01*
X141100148Y-104434095D01*
X141138997Y-104446639D01*
X141178263Y-104457862D01*
X141217946Y-104467765D01*
X141258046Y-104476348D01*
X141298563Y-104483610D01*
X141339497Y-104489552D01*
X141380848Y-104494173D01*
X141422615Y-104497474D01*
X141464800Y-104499455D01*
X141507402Y-104500115D01*
X141552401Y-104499437D01*
X141596775Y-104497404D01*
X141640524Y-104494016D01*
X141683647Y-104489273D01*
X141726145Y-104483175D01*
X141768017Y-104475721D01*
X141809264Y-104466913D01*
X141849885Y-104456749D01*
X141889881Y-104445229D01*
X141929251Y-104432355D01*
X141967996Y-104418126D01*
X142006115Y-104402541D01*
X142043609Y-104385601D01*
X142080478Y-104367306D01*
X142116721Y-104347655D01*
X142152339Y-104326650D01*
X142187435Y-104304306D01*
X142221558Y-104281199D01*
X142254708Y-104257326D01*
X142286885Y-104232689D01*
X142318089Y-104207288D01*
X142348321Y-104181122D01*
X142377579Y-104154192D01*
X142405864Y-104126497D01*
X142433177Y-104098038D01*
X142459516Y-104068815D01*
X142484883Y-104038826D01*
X142509276Y-104008074D01*
X142532696Y-103976557D01*
X142555144Y-103944275D01*
X142576619Y-103911229D01*
X142597120Y-103877419D01*
X142617318Y-103840803D01*
X142636213Y-103803787D01*
X142653804Y-103766372D01*
X142670093Y-103728557D01*
X142685078Y-103690342D01*
X142698761Y-103651727D01*
X142711140Y-103612713D01*
X142722216Y-103573299D01*
X142731989Y-103533486D01*
X142740459Y-103493273D01*
X142747626Y-103452660D01*
X142753490Y-103411648D01*
X142758050Y-103370236D01*
X142761308Y-103328424D01*
X142763263Y-103286213D01*
X142763914Y-103243602D01*
X142762654Y-103184017D01*
X142758876Y-103125353D01*
X142752577Y-103067610D01*
X142743760Y-103010787D01*
X142732423Y-102954885D01*
X142718567Y-102899904D01*
X142702192Y-102845843D01*
X142683297Y-102792704D01*
X142661883Y-102740485D01*
X142637950Y-102689188D01*
X142611498Y-102638811D01*
X142582526Y-102589355D01*
X142551035Y-102540820D01*
X142517025Y-102493206D01*
X142480496Y-102446513D01*
X142441447Y-102400740D01*
X142437303Y-102396440D01*
X142433212Y-102391879D01*
X142429172Y-102387057D01*
X142425185Y-102381975D01*
X142421250Y-102376632D01*
X142417367Y-102371029D01*
X142413535Y-102365165D01*
X142409756Y-102359040D01*
X142406030Y-102352655D01*
X142402355Y-102346010D01*
X142398732Y-102339104D01*
X142395162Y-102331937D01*
X142391643Y-102324510D01*
X142388177Y-102316822D01*
X142384763Y-102308873D01*
X142381401Y-102300664D01*
X142375146Y-102284158D01*
X142369725Y-102268000D01*
X142367327Y-102260051D01*
X142365138Y-102252189D01*
X142363157Y-102244414D01*
X142361385Y-102236726D01*
X142359821Y-102229124D01*
X142358466Y-102221610D01*
X142357319Y-102214182D01*
X142356381Y-102206841D01*
X142355651Y-102199587D01*
X142355130Y-102192420D01*
X142354817Y-102185340D01*
X142354713Y-102178348D01*
X142355087Y-102161549D01*
X142356207Y-102145061D01*
X142358075Y-102128886D01*
X142360690Y-102113024D01*
X142364052Y-102097474D01*
X142368161Y-102082236D01*
X142373017Y-102067312D01*
X142378620Y-102052700D01*
X142384970Y-102038400D01*
X142392067Y-102024414D01*
X142399912Y-102010740D01*
X142408503Y-101997379D01*
X142417842Y-101984331D01*
X142427927Y-101971595D01*
X142438760Y-101959173D01*
X142450340Y-101947063D01*
X142462450Y-101935483D01*
X142474872Y-101924651D01*
X142487608Y-101914565D01*
X142500656Y-101905226D01*
X142514017Y-101896635D01*
X142527691Y-101888791D01*
X142541677Y-101881693D01*
X142555976Y-101875343D01*
X142570588Y-101869740D01*
X142585513Y-101864884D01*
X142600750Y-101860775D01*
X142616300Y-101857413D01*
X142632163Y-101854798D01*
X142648338Y-101852930D01*
X142664826Y-101851810D01*
X142681626Y-101851436D01*
X142689975Y-101851575D01*
G37*
D12*
%TO.C,REF\u002A\u002A*%
X141500000Y-98950000D03*
D13*
X118250000Y-86000000D03*
X118250000Y-107500000D03*
X169750000Y-86000000D03*
X169750000Y-107500000D03*
D14*
X127200000Y-96600000D03*
%TD*%
M02*
