%TF.GenerationSoftware,KiCad,Pcbnew,(6.0.6)*%
%TF.CreationDate,2022-11-01T14:59:24+00:00*%
%TF.ProjectId,frontcase,66726f6e-7463-4617-9365-2e6b69636164,rev?*%
%TF.SameCoordinates,Original*%
%TF.FileFunction,Legend,Top*%
%TF.FilePolarity,Positive*%
%FSLAX46Y46*%
G04 Gerber Fmt 4.6, Leading zero omitted, Abs format (unit mm)*
G04 Created by KiCad (PCBNEW (6.0.6)) date 2022-11-01 14:59:24*
%MOMM*%
%LPD*%
G01*
G04 APERTURE LIST*
%ADD10C,0.600000*%
%ADD11C,0.100000*%
%ADD12C,0.070000*%
G04 APERTURE END LIST*
D10*
X125400995Y-87408060D02*
X125398682Y-87315986D01*
X125415068Y-84243646D02*
X125427578Y-84173226D01*
X128683897Y-83606586D02*
X128723614Y-83662518D01*
X128394477Y-83317166D02*
X128448358Y-83359464D01*
X127539501Y-83034349D02*
X127539501Y-83034349D01*
X128966714Y-84461561D02*
X128966714Y-84461561D01*
X128220881Y-83206113D02*
X128280650Y-83240402D01*
D11*
G36*
X144093267Y-106679944D02*
G01*
X144005414Y-106679944D01*
X143987035Y-106680136D01*
X143969362Y-106680711D01*
X143952396Y-106681670D01*
X143936136Y-106683012D01*
X143920583Y-106684738D01*
X143905736Y-106686848D01*
X143891595Y-106689341D01*
X143878161Y-106692217D01*
X143865434Y-106695477D01*
X143853413Y-106699121D01*
X143842099Y-106703148D01*
X143831491Y-106707558D01*
X143821590Y-106712352D01*
X143812395Y-106717530D01*
X143803906Y-106723091D01*
X143796125Y-106729035D01*
X143788929Y-106734950D01*
X143782197Y-106741066D01*
X143775930Y-106747385D01*
X143770126Y-106753905D01*
X143764787Y-106760627D01*
X143759913Y-106767551D01*
X143755502Y-106774677D01*
X143751556Y-106782004D01*
X143748074Y-106789534D01*
X143745056Y-106797265D01*
X143742503Y-106805199D01*
X143740413Y-106813334D01*
X143738788Y-106821671D01*
X143737628Y-106830210D01*
X143736931Y-106838951D01*
X143736699Y-106847894D01*
X143736770Y-106854938D01*
X143736982Y-106861862D01*
X143737335Y-106868665D01*
X143737829Y-106875346D01*
X143738465Y-106881906D01*
X143739242Y-106888345D01*
X143740160Y-106894663D01*
X143741220Y-106900860D01*
X143742421Y-106906936D01*
X143743763Y-106912891D01*
X143745247Y-106918724D01*
X143746872Y-106924437D01*
X143748638Y-106930028D01*
X143750546Y-106935499D01*
X143752594Y-106940848D01*
X143754785Y-106946076D01*
X143933068Y-107214799D01*
X144367150Y-107876252D01*
X144736638Y-107424088D01*
X144803251Y-107340155D01*
X144833227Y-107300640D01*
X144860982Y-107262761D01*
X144886518Y-107226517D01*
X144909832Y-107191908D01*
X144930927Y-107158933D01*
X144949801Y-107127594D01*
X144966454Y-107097890D01*
X144980887Y-107069821D01*
X144993100Y-107043387D01*
X145003092Y-107018588D01*
X145010864Y-106995424D01*
X145016415Y-106973895D01*
X145019746Y-106954001D01*
X145020856Y-106935742D01*
X145020694Y-106927062D01*
X145020210Y-106918463D01*
X145019403Y-106909944D01*
X145018272Y-106901507D01*
X145016819Y-106893149D01*
X145015043Y-106884873D01*
X145012944Y-106876678D01*
X145010521Y-106868563D01*
X145007776Y-106860528D01*
X145004708Y-106852575D01*
X145001317Y-106844702D01*
X144997603Y-106836910D01*
X144993566Y-106829199D01*
X144989205Y-106821569D01*
X144984522Y-106814019D01*
X144979516Y-106806550D01*
X144974530Y-106799223D01*
X144969261Y-106792098D01*
X144963709Y-106785174D01*
X144957875Y-106778453D01*
X144951759Y-106771933D01*
X144945360Y-106765615D01*
X144938678Y-106759498D01*
X144931714Y-106753584D01*
X144924467Y-106747871D01*
X144916937Y-106742360D01*
X144909125Y-106737051D01*
X144901031Y-106731944D01*
X144892654Y-106727038D01*
X144883994Y-106722334D01*
X144875052Y-106717833D01*
X144865827Y-106713532D01*
X144856137Y-106709465D01*
X144845802Y-106705660D01*
X144834821Y-106702118D01*
X144823194Y-106698837D01*
X144810921Y-106695820D01*
X144798002Y-106693064D01*
X144784437Y-106690572D01*
X144770226Y-106688341D01*
X144755369Y-106686373D01*
X144739866Y-106684667D01*
X144723717Y-106683224D01*
X144706922Y-106682043D01*
X144689481Y-106681125D01*
X144671394Y-106680469D01*
X144652661Y-106680075D01*
X144633283Y-106679944D01*
X144633283Y-106584344D01*
X145922608Y-106584344D01*
X145922608Y-106679944D01*
X145885427Y-106681114D01*
X145850102Y-106683334D01*
X145816633Y-106686604D01*
X145785022Y-106690924D01*
X145755268Y-106696294D01*
X145727371Y-106702713D01*
X145714119Y-106706317D01*
X145701331Y-106710182D01*
X145689007Y-106714311D01*
X145677148Y-106718701D01*
X145665470Y-106723143D01*
X145653692Y-106728068D01*
X145641812Y-106733479D01*
X145629832Y-106739373D01*
X145617750Y-106745752D01*
X145605568Y-106752615D01*
X145593285Y-106759963D01*
X145580900Y-106767795D01*
X145568415Y-106776112D01*
X145555829Y-106784913D01*
X145543142Y-106794198D01*
X145530354Y-106803968D01*
X145517465Y-106814223D01*
X145504475Y-106824962D01*
X145491384Y-106836185D01*
X145478192Y-106847894D01*
X145469008Y-106856664D01*
X145458249Y-106867474D01*
X145432007Y-106895209D01*
X145399467Y-106931100D01*
X145360629Y-106975146D01*
X145315492Y-107027347D01*
X145264058Y-107087703D01*
X145206326Y-107156214D01*
X145142297Y-107232881D01*
X144478253Y-108033868D01*
X145444604Y-109467889D01*
X145502497Y-109552670D01*
X145556030Y-109628731D01*
X145605203Y-109696072D01*
X145650016Y-109754693D01*
X145690470Y-109804593D01*
X145726563Y-109845773D01*
X145758296Y-109878233D01*
X145772527Y-109891192D01*
X145785668Y-109901971D01*
X145798729Y-109911104D01*
X145812072Y-109919774D01*
X145825697Y-109927979D01*
X145839605Y-109935720D01*
X145853796Y-109942998D01*
X145868269Y-109949811D01*
X145883025Y-109956159D01*
X145898064Y-109962044D01*
X145913385Y-109967464D01*
X145928989Y-109972420D01*
X145944875Y-109976911D01*
X145961044Y-109980938D01*
X145977496Y-109984501D01*
X145994230Y-109987599D01*
X146011247Y-109990233D01*
X146028546Y-109992402D01*
X146028546Y-110088006D01*
X144320642Y-110088006D01*
X144320642Y-109992402D01*
X144369411Y-109988043D01*
X144413659Y-109982715D01*
X144453385Y-109976417D01*
X144471553Y-109972904D01*
X144488590Y-109969150D01*
X144504496Y-109965152D01*
X144519273Y-109960913D01*
X144532918Y-109956431D01*
X144545434Y-109951708D01*
X144556819Y-109946741D01*
X144567073Y-109941533D01*
X144576198Y-109936083D01*
X144584191Y-109930390D01*
X144591387Y-109924496D01*
X144598119Y-109918440D01*
X144604387Y-109912223D01*
X144610190Y-109905844D01*
X144615529Y-109899304D01*
X144620404Y-109892602D01*
X144624815Y-109885739D01*
X144628762Y-109878714D01*
X144632244Y-109871528D01*
X144635262Y-109864181D01*
X144637816Y-109856672D01*
X144639906Y-109849001D01*
X144641531Y-109841169D01*
X144642692Y-109833176D01*
X144643388Y-109825021D01*
X144643621Y-109816705D01*
X144643550Y-109810931D01*
X144643338Y-109805239D01*
X144642984Y-109799627D01*
X144642490Y-109794096D01*
X144641854Y-109788645D01*
X144641076Y-109783276D01*
X144640158Y-109777987D01*
X144639098Y-109772778D01*
X144637896Y-109767651D01*
X144636554Y-109762605D01*
X144635070Y-109757639D01*
X144633445Y-109752754D01*
X144631678Y-109747951D01*
X144629771Y-109743228D01*
X144627722Y-109738586D01*
X144625531Y-109734025D01*
X144614793Y-109712545D01*
X144600663Y-109686868D01*
X144583142Y-109656992D01*
X144562229Y-109622918D01*
X144537925Y-109584645D01*
X144510230Y-109542174D01*
X144479143Y-109495504D01*
X144444665Y-109444634D01*
X143933068Y-108687577D01*
X143398217Y-109341279D01*
X143341898Y-109412578D01*
X143293087Y-109477901D01*
X143271498Y-109508322D01*
X143251787Y-109537249D01*
X143233952Y-109564683D01*
X143217995Y-109590622D01*
X143203915Y-109615067D01*
X143191713Y-109638019D01*
X143181388Y-109659476D01*
X143172940Y-109679440D01*
X143166370Y-109697910D01*
X143161676Y-109714886D01*
X143158860Y-109730367D01*
X143157922Y-109744355D01*
X143158164Y-109753682D01*
X143158891Y-109762927D01*
X143160102Y-109772092D01*
X143161798Y-109781176D01*
X143163978Y-109790180D01*
X143166643Y-109799102D01*
X143169792Y-109807944D01*
X143173425Y-109816705D01*
X143177543Y-109825385D01*
X143182146Y-109833984D01*
X143187233Y-109842502D01*
X143192804Y-109850940D01*
X143198860Y-109859296D01*
X143205400Y-109867572D01*
X143212425Y-109875767D01*
X143219934Y-109883881D01*
X143227917Y-109891815D01*
X143236365Y-109899467D01*
X143245277Y-109906835D01*
X143254653Y-109913921D01*
X143264494Y-109920724D01*
X143274799Y-109927244D01*
X143285569Y-109933482D01*
X143296803Y-109939437D01*
X143308501Y-109945109D01*
X143320663Y-109950499D01*
X143333290Y-109955605D01*
X143346380Y-109960430D01*
X143359936Y-109964971D01*
X143373955Y-109969230D01*
X143388438Y-109973206D01*
X143403386Y-109976899D01*
X143410612Y-109978777D01*
X143418727Y-109980533D01*
X143427729Y-109982169D01*
X143437620Y-109983683D01*
X143448400Y-109985076D01*
X143460067Y-109986347D01*
X143486066Y-109988527D01*
X143515619Y-109990223D01*
X143548724Y-109991433D01*
X143585382Y-109992160D01*
X143625592Y-109992402D01*
X143625592Y-110088006D01*
X142279424Y-110088006D01*
X142279424Y-109992402D01*
X142307785Y-109987981D01*
X142335379Y-109983117D01*
X142362206Y-109977808D01*
X142388266Y-109972055D01*
X142413559Y-109965857D01*
X142438085Y-109959216D01*
X142461844Y-109952131D01*
X142484836Y-109944601D01*
X142507061Y-109936627D01*
X142528519Y-109928210D01*
X142549209Y-109919348D01*
X142569133Y-109910042D01*
X142588289Y-109900292D01*
X142606679Y-109890098D01*
X142624301Y-109879460D01*
X142641156Y-109868379D01*
X142663331Y-109852512D01*
X142686576Y-109834627D01*
X142710890Y-109814724D01*
X142736275Y-109792802D01*
X142762729Y-109768861D01*
X142790253Y-109742902D01*
X142818846Y-109714924D01*
X142848510Y-109684928D01*
X142879243Y-109652913D01*
X142911046Y-109618879D01*
X142943920Y-109582827D01*
X142977863Y-109544756D01*
X143048958Y-109462558D01*
X143124333Y-109372285D01*
X143819379Y-108524796D01*
X142927960Y-107214799D01*
X142829937Y-107071235D01*
X142755492Y-106963520D01*
X142704623Y-106891657D01*
X142688030Y-106869169D01*
X142677331Y-106855645D01*
X142668621Y-106845178D01*
X142659930Y-106835095D01*
X142651260Y-106825395D01*
X142642610Y-106816079D01*
X142633981Y-106807147D01*
X142625371Y-106798598D01*
X142616782Y-106790433D01*
X142608213Y-106782651D01*
X142599664Y-106775253D01*
X142591135Y-106768238D01*
X142582626Y-106761607D01*
X142574138Y-106755359D01*
X142565670Y-106749495D01*
X142557222Y-106744015D01*
X142548794Y-106738918D01*
X142540387Y-106734204D01*
X142531788Y-106729754D01*
X142522785Y-106725444D01*
X142513379Y-106721276D01*
X142503569Y-106717249D01*
X142493355Y-106713363D01*
X142482737Y-106709619D01*
X142471715Y-106706016D01*
X142460290Y-106702554D01*
X142448461Y-106699233D01*
X142436228Y-106696053D01*
X142423591Y-106693015D01*
X142410551Y-106690118D01*
X142397107Y-106687363D01*
X142383259Y-106684749D01*
X142354352Y-106679944D01*
X142354352Y-106584344D01*
X144093267Y-106584344D01*
X144093267Y-106679944D01*
G37*
X144093267Y-106679944D02*
X144005414Y-106679944D01*
X143987035Y-106680136D01*
X143969362Y-106680711D01*
X143952396Y-106681670D01*
X143936136Y-106683012D01*
X143920583Y-106684738D01*
X143905736Y-106686848D01*
X143891595Y-106689341D01*
X143878161Y-106692217D01*
X143865434Y-106695477D01*
X143853413Y-106699121D01*
X143842099Y-106703148D01*
X143831491Y-106707558D01*
X143821590Y-106712352D01*
X143812395Y-106717530D01*
X143803906Y-106723091D01*
X143796125Y-106729035D01*
X143788929Y-106734950D01*
X143782197Y-106741066D01*
X143775930Y-106747385D01*
X143770126Y-106753905D01*
X143764787Y-106760627D01*
X143759913Y-106767551D01*
X143755502Y-106774677D01*
X143751556Y-106782004D01*
X143748074Y-106789534D01*
X143745056Y-106797265D01*
X143742503Y-106805199D01*
X143740413Y-106813334D01*
X143738788Y-106821671D01*
X143737628Y-106830210D01*
X143736931Y-106838951D01*
X143736699Y-106847894D01*
X143736770Y-106854938D01*
X143736982Y-106861862D01*
X143737335Y-106868665D01*
X143737829Y-106875346D01*
X143738465Y-106881906D01*
X143739242Y-106888345D01*
X143740160Y-106894663D01*
X143741220Y-106900860D01*
X143742421Y-106906936D01*
X143743763Y-106912891D01*
X143745247Y-106918724D01*
X143746872Y-106924437D01*
X143748638Y-106930028D01*
X143750546Y-106935499D01*
X143752594Y-106940848D01*
X143754785Y-106946076D01*
X143933068Y-107214799D01*
X144367150Y-107876252D01*
X144736638Y-107424088D01*
X144803251Y-107340155D01*
X144833227Y-107300640D01*
X144860982Y-107262761D01*
X144886518Y-107226517D01*
X144909832Y-107191908D01*
X144930927Y-107158933D01*
X144949801Y-107127594D01*
X144966454Y-107097890D01*
X144980887Y-107069821D01*
X144993100Y-107043387D01*
X145003092Y-107018588D01*
X145010864Y-106995424D01*
X145016415Y-106973895D01*
X145019746Y-106954001D01*
X145020856Y-106935742D01*
X145020694Y-106927062D01*
X145020210Y-106918463D01*
X145019403Y-106909944D01*
X145018272Y-106901507D01*
X145016819Y-106893149D01*
X145015043Y-106884873D01*
X145012944Y-106876678D01*
X145010521Y-106868563D01*
X145007776Y-106860528D01*
X145004708Y-106852575D01*
X145001317Y-106844702D01*
X144997603Y-106836910D01*
X144993566Y-106829199D01*
X144989205Y-106821569D01*
X144984522Y-106814019D01*
X144979516Y-106806550D01*
X144974530Y-106799223D01*
X144969261Y-106792098D01*
X144963709Y-106785174D01*
X144957875Y-106778453D01*
X144951759Y-106771933D01*
X144945360Y-106765615D01*
X144938678Y-106759498D01*
X144931714Y-106753584D01*
X144924467Y-106747871D01*
X144916937Y-106742360D01*
X144909125Y-106737051D01*
X144901031Y-106731944D01*
X144892654Y-106727038D01*
X144883994Y-106722334D01*
X144875052Y-106717833D01*
X144865827Y-106713532D01*
X144856137Y-106709465D01*
X144845802Y-106705660D01*
X144834821Y-106702118D01*
X144823194Y-106698837D01*
X144810921Y-106695820D01*
X144798002Y-106693064D01*
X144784437Y-106690572D01*
X144770226Y-106688341D01*
X144755369Y-106686373D01*
X144739866Y-106684667D01*
X144723717Y-106683224D01*
X144706922Y-106682043D01*
X144689481Y-106681125D01*
X144671394Y-106680469D01*
X144652661Y-106680075D01*
X144633283Y-106679944D01*
X144633283Y-106584344D01*
X145922608Y-106584344D01*
X145922608Y-106679944D01*
X145885427Y-106681114D01*
X145850102Y-106683334D01*
X145816633Y-106686604D01*
X145785022Y-106690924D01*
X145755268Y-106696294D01*
X145727371Y-106702713D01*
X145714119Y-106706317D01*
X145701331Y-106710182D01*
X145689007Y-106714311D01*
X145677148Y-106718701D01*
X145665470Y-106723143D01*
X145653692Y-106728068D01*
X145641812Y-106733479D01*
X145629832Y-106739373D01*
X145617750Y-106745752D01*
X145605568Y-106752615D01*
X145593285Y-106759963D01*
X145580900Y-106767795D01*
X145568415Y-106776112D01*
X145555829Y-106784913D01*
X145543142Y-106794198D01*
X145530354Y-106803968D01*
X145517465Y-106814223D01*
X145504475Y-106824962D01*
X145491384Y-106836185D01*
X145478192Y-106847894D01*
X145469008Y-106856664D01*
X145458249Y-106867474D01*
X145432007Y-106895209D01*
X145399467Y-106931100D01*
X145360629Y-106975146D01*
X145315492Y-107027347D01*
X145264058Y-107087703D01*
X145206326Y-107156214D01*
X145142297Y-107232881D01*
X144478253Y-108033868D01*
X145444604Y-109467889D01*
X145502497Y-109552670D01*
X145556030Y-109628731D01*
X145605203Y-109696072D01*
X145650016Y-109754693D01*
X145690470Y-109804593D01*
X145726563Y-109845773D01*
X145758296Y-109878233D01*
X145772527Y-109891192D01*
X145785668Y-109901971D01*
X145798729Y-109911104D01*
X145812072Y-109919774D01*
X145825697Y-109927979D01*
X145839605Y-109935720D01*
X145853796Y-109942998D01*
X145868269Y-109949811D01*
X145883025Y-109956159D01*
X145898064Y-109962044D01*
X145913385Y-109967464D01*
X145928989Y-109972420D01*
X145944875Y-109976911D01*
X145961044Y-109980938D01*
X145977496Y-109984501D01*
X145994230Y-109987599D01*
X146011247Y-109990233D01*
X146028546Y-109992402D01*
X146028546Y-110088006D01*
X144320642Y-110088006D01*
X144320642Y-109992402D01*
X144369411Y-109988043D01*
X144413659Y-109982715D01*
X144453385Y-109976417D01*
X144471553Y-109972904D01*
X144488590Y-109969150D01*
X144504496Y-109965152D01*
X144519273Y-109960913D01*
X144532918Y-109956431D01*
X144545434Y-109951708D01*
X144556819Y-109946741D01*
X144567073Y-109941533D01*
X144576198Y-109936083D01*
X144584191Y-109930390D01*
X144591387Y-109924496D01*
X144598119Y-109918440D01*
X144604387Y-109912223D01*
X144610190Y-109905844D01*
X144615529Y-109899304D01*
X144620404Y-109892602D01*
X144624815Y-109885739D01*
X144628762Y-109878714D01*
X144632244Y-109871528D01*
X144635262Y-109864181D01*
X144637816Y-109856672D01*
X144639906Y-109849001D01*
X144641531Y-109841169D01*
X144642692Y-109833176D01*
X144643388Y-109825021D01*
X144643621Y-109816705D01*
X144643550Y-109810931D01*
X144643338Y-109805239D01*
X144642984Y-109799627D01*
X144642490Y-109794096D01*
X144641854Y-109788645D01*
X144641076Y-109783276D01*
X144640158Y-109777987D01*
X144639098Y-109772778D01*
X144637896Y-109767651D01*
X144636554Y-109762605D01*
X144635070Y-109757639D01*
X144633445Y-109752754D01*
X144631678Y-109747951D01*
X144629771Y-109743228D01*
X144627722Y-109738586D01*
X144625531Y-109734025D01*
X144614793Y-109712545D01*
X144600663Y-109686868D01*
X144583142Y-109656992D01*
X144562229Y-109622918D01*
X144537925Y-109584645D01*
X144510230Y-109542174D01*
X144479143Y-109495504D01*
X144444665Y-109444634D01*
X143933068Y-108687577D01*
X143398217Y-109341279D01*
X143341898Y-109412578D01*
X143293087Y-109477901D01*
X143271498Y-109508322D01*
X143251787Y-109537249D01*
X143233952Y-109564683D01*
X143217995Y-109590622D01*
X143203915Y-109615067D01*
X143191713Y-109638019D01*
X143181388Y-109659476D01*
X143172940Y-109679440D01*
X143166370Y-109697910D01*
X143161676Y-109714886D01*
X143158860Y-109730367D01*
X143157922Y-109744355D01*
X143158164Y-109753682D01*
X143158891Y-109762927D01*
X143160102Y-109772092D01*
X143161798Y-109781176D01*
X143163978Y-109790180D01*
X143166643Y-109799102D01*
X143169792Y-109807944D01*
X143173425Y-109816705D01*
X143177543Y-109825385D01*
X143182146Y-109833984D01*
X143187233Y-109842502D01*
X143192804Y-109850940D01*
X143198860Y-109859296D01*
X143205400Y-109867572D01*
X143212425Y-109875767D01*
X143219934Y-109883881D01*
X143227917Y-109891815D01*
X143236365Y-109899467D01*
X143245277Y-109906835D01*
X143254653Y-109913921D01*
X143264494Y-109920724D01*
X143274799Y-109927244D01*
X143285569Y-109933482D01*
X143296803Y-109939437D01*
X143308501Y-109945109D01*
X143320663Y-109950499D01*
X143333290Y-109955605D01*
X143346380Y-109960430D01*
X143359936Y-109964971D01*
X143373955Y-109969230D01*
X143388438Y-109973206D01*
X143403386Y-109976899D01*
X143410612Y-109978777D01*
X143418727Y-109980533D01*
X143427729Y-109982169D01*
X143437620Y-109983683D01*
X143448400Y-109985076D01*
X143460067Y-109986347D01*
X143486066Y-109988527D01*
X143515619Y-109990223D01*
X143548724Y-109991433D01*
X143585382Y-109992160D01*
X143625592Y-109992402D01*
X143625592Y-110088006D01*
X142279424Y-110088006D01*
X142279424Y-109992402D01*
X142307785Y-109987981D01*
X142335379Y-109983117D01*
X142362206Y-109977808D01*
X142388266Y-109972055D01*
X142413559Y-109965857D01*
X142438085Y-109959216D01*
X142461844Y-109952131D01*
X142484836Y-109944601D01*
X142507061Y-109936627D01*
X142528519Y-109928210D01*
X142549209Y-109919348D01*
X142569133Y-109910042D01*
X142588289Y-109900292D01*
X142606679Y-109890098D01*
X142624301Y-109879460D01*
X142641156Y-109868379D01*
X142663331Y-109852512D01*
X142686576Y-109834627D01*
X142710890Y-109814724D01*
X142736275Y-109792802D01*
X142762729Y-109768861D01*
X142790253Y-109742902D01*
X142818846Y-109714924D01*
X142848510Y-109684928D01*
X142879243Y-109652913D01*
X142911046Y-109618879D01*
X142943920Y-109582827D01*
X142977863Y-109544756D01*
X143048958Y-109462558D01*
X143124333Y-109372285D01*
X143819379Y-108524796D01*
X142927960Y-107214799D01*
X142829937Y-107071235D01*
X142755492Y-106963520D01*
X142704623Y-106891657D01*
X142688030Y-106869169D01*
X142677331Y-106855645D01*
X142668621Y-106845178D01*
X142659930Y-106835095D01*
X142651260Y-106825395D01*
X142642610Y-106816079D01*
X142633981Y-106807147D01*
X142625371Y-106798598D01*
X142616782Y-106790433D01*
X142608213Y-106782651D01*
X142599664Y-106775253D01*
X142591135Y-106768238D01*
X142582626Y-106761607D01*
X142574138Y-106755359D01*
X142565670Y-106749495D01*
X142557222Y-106744015D01*
X142548794Y-106738918D01*
X142540387Y-106734204D01*
X142531788Y-106729754D01*
X142522785Y-106725444D01*
X142513379Y-106721276D01*
X142503569Y-106717249D01*
X142493355Y-106713363D01*
X142482737Y-106709619D01*
X142471715Y-106706016D01*
X142460290Y-106702554D01*
X142448461Y-106699233D01*
X142436228Y-106696053D01*
X142423591Y-106693015D01*
X142410551Y-106690118D01*
X142397107Y-106687363D01*
X142383259Y-106684749D01*
X142354352Y-106679944D01*
X142354352Y-106584344D01*
X144093267Y-106584344D01*
X144093267Y-106679944D01*
D10*
X125805076Y-88452056D02*
X125752203Y-88384706D01*
X128280650Y-83240402D02*
X128338545Y-83277449D01*
X125970920Y-83317166D02*
X126026852Y-83277449D01*
X126407919Y-88924600D02*
X126330974Y-88885297D01*
X128034420Y-88885297D02*
X127957475Y-88924600D01*
X127539501Y-83034349D02*
X127613161Y-83036199D01*
X128641599Y-83552705D02*
X128683897Y-83606586D01*
X128760661Y-83720413D02*
X128794950Y-83780183D01*
X126822277Y-89063882D02*
X126735823Y-89044025D01*
X128383443Y-88637618D02*
X128318767Y-88693608D01*
X125427578Y-84173226D02*
X125443463Y-84104062D01*
X127897001Y-83079130D02*
X127964820Y-83098304D01*
X127757417Y-83050736D02*
X127827837Y-83063245D01*
X126046627Y-88693608D02*
X125981951Y-88637618D01*
X126999788Y-89090825D02*
X126910302Y-89079519D01*
X128966712Y-87315985D02*
X128966712Y-87315985D01*
X128723614Y-83662518D02*
X128760661Y-83720413D01*
X126486987Y-88960235D02*
X126407919Y-88924600D01*
X126910302Y-89079519D02*
X126822277Y-89063882D01*
X128445333Y-88578623D02*
X128383443Y-88637618D01*
X128448358Y-83359464D02*
X128500099Y-83404256D01*
X128858801Y-87930615D02*
X128826945Y-88011696D01*
X126825895Y-83034349D02*
X127539501Y-83034349D01*
X126568067Y-88992091D02*
X126486987Y-88960235D01*
D12*
G36*
X145780840Y-81440713D02*
G01*
X145950176Y-81448004D01*
X146116430Y-81460856D01*
X146277472Y-81479213D01*
X146431170Y-81503020D01*
X146575392Y-81532219D01*
X146708007Y-81566755D01*
X146826884Y-81606572D01*
X146929891Y-81651612D01*
X146954554Y-81663155D01*
X146985133Y-81675991D01*
X147020418Y-81689693D01*
X147059198Y-81703831D01*
X147100263Y-81717977D01*
X147142401Y-81731701D01*
X147184403Y-81744575D01*
X147225057Y-81756170D01*
X147307774Y-81779216D01*
X147382668Y-81801253D01*
X147450684Y-81822890D01*
X147512768Y-81844737D01*
X147569865Y-81867402D01*
X147622923Y-81891496D01*
X147672888Y-81917626D01*
X147720704Y-81946402D01*
X147767318Y-81978434D01*
X147813676Y-82014330D01*
X147860725Y-82054700D01*
X147909409Y-82100152D01*
X147960676Y-82151297D01*
X148015471Y-82208743D01*
X148139428Y-82344975D01*
X148221418Y-82441251D01*
X148300090Y-82542491D01*
X148375173Y-82648062D01*
X148446396Y-82757329D01*
X148513489Y-82869660D01*
X148576181Y-82984422D01*
X148634200Y-83100980D01*
X148687276Y-83218703D01*
X148735138Y-83336955D01*
X148777515Y-83455105D01*
X148814135Y-83572519D01*
X148844729Y-83688563D01*
X148869026Y-83802604D01*
X148886753Y-83914009D01*
X148897642Y-84022145D01*
X148901419Y-84126378D01*
X148897462Y-84265768D01*
X148886307Y-84440833D01*
X148869499Y-84637560D01*
X148848586Y-84841932D01*
X148825114Y-85039934D01*
X148800629Y-85217552D01*
X148776679Y-85360771D01*
X148765387Y-85415100D01*
X148754808Y-85455574D01*
X148736979Y-85516582D01*
X148714763Y-85597259D01*
X148690991Y-85687104D01*
X148668495Y-85775615D01*
X148645736Y-85860149D01*
X148619932Y-85942574D01*
X148591155Y-86022781D01*
X148559477Y-86100661D01*
X148524970Y-86176106D01*
X148487706Y-86249008D01*
X148447756Y-86319259D01*
X148405194Y-86386750D01*
X148360090Y-86451372D01*
X148312517Y-86513018D01*
X148262546Y-86571579D01*
X148210249Y-86626946D01*
X148155699Y-86679012D01*
X148098967Y-86727668D01*
X148040124Y-86772805D01*
X147979244Y-86814315D01*
X147952676Y-86831914D01*
X147923513Y-86852238D01*
X147892708Y-86874562D01*
X147861210Y-86898162D01*
X147829972Y-86922314D01*
X147799945Y-86946295D01*
X147772080Y-86969381D01*
X147747327Y-86990846D01*
X147660269Y-87067777D01*
X147641773Y-87084588D01*
X147625484Y-87099978D01*
X147611852Y-87113720D01*
X147606173Y-87119902D01*
X147601327Y-87125587D01*
X147597990Y-87131115D01*
X147594691Y-87139461D01*
X147588227Y-87164694D01*
X147581979Y-87201454D01*
X147575991Y-87249915D01*
X147570306Y-87310244D01*
X147564969Y-87382614D01*
X147555512Y-87564157D01*
X147547970Y-87795907D01*
X147542694Y-88079230D01*
X147540036Y-88415489D01*
X147540346Y-88806050D01*
X147541407Y-89038246D01*
X147635982Y-89198265D01*
X147686111Y-89281506D01*
X147744360Y-89375552D01*
X147876263Y-89582264D01*
X148013789Y-89790811D01*
X148079066Y-89887150D01*
X148139035Y-89973600D01*
X148176418Y-90028785D01*
X148213043Y-90086967D01*
X148248774Y-90147814D01*
X148283477Y-90210996D01*
X148317017Y-90276182D01*
X148349259Y-90343042D01*
X148380068Y-90411244D01*
X148409308Y-90480458D01*
X148436845Y-90550353D01*
X148462543Y-90620598D01*
X148486268Y-90690863D01*
X148507885Y-90760816D01*
X148527259Y-90830126D01*
X148544254Y-90898464D01*
X148558735Y-90965498D01*
X148570569Y-91030897D01*
X148594355Y-91167935D01*
X148622842Y-91316538D01*
X148654626Y-91470516D01*
X148688303Y-91623676D01*
X148722470Y-91769827D01*
X148755724Y-91902777D01*
X148786661Y-92016335D01*
X148813877Y-92104310D01*
X148821448Y-92127292D01*
X148827844Y-92148194D01*
X148833227Y-92167331D01*
X148837756Y-92185018D01*
X148841595Y-92201570D01*
X148844903Y-92217300D01*
X148850573Y-92247555D01*
X148856058Y-92278300D01*
X148862645Y-92312052D01*
X148866756Y-92330842D01*
X148871626Y-92351327D01*
X148877417Y-92373823D01*
X148884290Y-92398643D01*
X148888763Y-92419732D01*
X148894568Y-92440978D01*
X148901472Y-92462505D01*
X148909247Y-92484438D01*
X148944439Y-92578704D01*
X148953107Y-92604524D01*
X148961263Y-92631493D01*
X148968675Y-92659736D01*
X148975114Y-92689377D01*
X148980349Y-92720539D01*
X148984149Y-92753347D01*
X148985439Y-92770407D01*
X148986284Y-92787925D01*
X148986655Y-92805916D01*
X148986523Y-92824396D01*
X148981588Y-93056526D01*
X144960567Y-93061013D01*
X140939547Y-93065493D01*
X141000015Y-92945440D01*
X141012164Y-92920575D01*
X141023500Y-92895931D01*
X141033774Y-92872151D01*
X141042739Y-92849878D01*
X141050147Y-92829754D01*
X141055749Y-92812423D01*
X141057795Y-92805005D01*
X141059296Y-92798527D01*
X141060222Y-92793068D01*
X141060542Y-92788709D01*
X141060775Y-92784503D01*
X141061446Y-92779492D01*
X141062533Y-92773743D01*
X141064013Y-92767320D01*
X141065865Y-92760289D01*
X141068064Y-92752715D01*
X141070590Y-92744662D01*
X141073419Y-92736197D01*
X141079899Y-92718290D01*
X141087324Y-92699515D01*
X141095516Y-92680394D01*
X141099843Y-92670867D01*
X141104294Y-92661449D01*
X141113318Y-92642222D01*
X141122211Y-92622290D01*
X141130745Y-92602233D01*
X141138690Y-92582630D01*
X141145820Y-92564059D01*
X141151904Y-92547098D01*
X141156714Y-92532328D01*
X141160023Y-92520327D01*
X141161366Y-92515040D01*
X141162903Y-92509630D01*
X141164615Y-92504137D01*
X141166486Y-92498599D01*
X141168496Y-92493057D01*
X141170630Y-92487550D01*
X141175192Y-92476799D01*
X141177585Y-92471635D01*
X141180030Y-92466664D01*
X141182507Y-92461926D01*
X141185000Y-92457460D01*
X141187491Y-92453307D01*
X141189962Y-92449506D01*
X141192394Y-92446096D01*
X141194771Y-92443117D01*
X141197426Y-92439570D01*
X141200675Y-92434494D01*
X141204472Y-92427983D01*
X141208773Y-92420135D01*
X141218704Y-92400807D01*
X141230105Y-92377276D01*
X141242612Y-92350306D01*
X141255864Y-92320664D01*
X141269498Y-92289116D01*
X141283152Y-92256427D01*
X141296790Y-92223738D01*
X141310380Y-92192190D01*
X141323562Y-92162548D01*
X141335976Y-92135578D01*
X141347264Y-92112047D01*
X141357065Y-92092719D01*
X141365021Y-92078360D01*
X141368195Y-92073283D01*
X141370772Y-92069736D01*
X141376316Y-92061848D01*
X141382626Y-92050839D01*
X141389587Y-92037031D01*
X141397082Y-92020748D01*
X141413209Y-91982046D01*
X141430074Y-91937313D01*
X141446746Y-91889130D01*
X141462294Y-91840079D01*
X141475786Y-91792740D01*
X141481470Y-91770520D01*
X141486290Y-91749696D01*
X141492935Y-91726021D01*
X141503800Y-91695931D01*
X141518441Y-91660259D01*
X141536413Y-91619839D01*
X141580574Y-91528086D01*
X141632725Y-91427336D01*
X141689313Y-91324256D01*
X141746779Y-91225511D01*
X141801569Y-91137766D01*
X141826849Y-91100102D01*
X141850126Y-91067688D01*
X141889719Y-91014149D01*
X141927135Y-90962244D01*
X141958162Y-90917902D01*
X141969961Y-90900419D01*
X141978583Y-90887048D01*
X141992472Y-90864991D01*
X142005876Y-90844471D01*
X142018879Y-90825401D01*
X142031564Y-90807696D01*
X142044017Y-90791268D01*
X142056321Y-90776032D01*
X142068559Y-90761901D01*
X142080816Y-90748790D01*
X142093176Y-90736611D01*
X142105723Y-90725279D01*
X142118540Y-90714707D01*
X142131712Y-90704809D01*
X142145323Y-90695499D01*
X142159456Y-90686691D01*
X142174196Y-90678297D01*
X142189626Y-90670233D01*
X142208210Y-90660613D01*
X142226950Y-90650361D01*
X142245336Y-90639794D01*
X142262858Y-90629227D01*
X142279004Y-90618975D01*
X142293264Y-90609355D01*
X142305128Y-90600681D01*
X142310002Y-90596798D01*
X142314086Y-90593270D01*
X142328522Y-90581938D01*
X142349797Y-90567743D01*
X142409189Y-90532597D01*
X142484921Y-90491497D01*
X142569652Y-90448107D01*
X142656039Y-90406091D01*
X142736741Y-90369113D01*
X142804416Y-90340838D01*
X142831074Y-90331109D01*
X142851723Y-90324930D01*
X142871089Y-90319595D01*
X142893715Y-90312364D01*
X142918781Y-90303558D01*
X142945465Y-90293496D01*
X142972945Y-90282497D01*
X143000402Y-90270881D01*
X143027012Y-90258967D01*
X143051956Y-90247074D01*
X143077098Y-90235151D01*
X143104277Y-90223148D01*
X143132632Y-90211393D01*
X143161302Y-90200210D01*
X143189426Y-90189925D01*
X143216143Y-90180864D01*
X143240592Y-90173352D01*
X143261910Y-90167714D01*
X143271773Y-90165239D01*
X143281847Y-90162427D01*
X143292058Y-90159309D01*
X143302334Y-90155919D01*
X143322789Y-90148445D01*
X143342627Y-90140261D01*
X143361266Y-90131622D01*
X143369953Y-90127212D01*
X143378121Y-90122783D01*
X143385698Y-90118368D01*
X143392611Y-90113998D01*
X143398786Y-90109706D01*
X143404150Y-90105523D01*
X143415033Y-90096867D01*
X143427642Y-90087562D01*
X143441524Y-90077900D01*
X143456228Y-90068172D01*
X143471303Y-90058670D01*
X143486297Y-90049685D01*
X143500758Y-90041510D01*
X143514235Y-90034436D01*
X143531888Y-90025168D01*
X143548858Y-90015389D01*
X143565142Y-90005114D01*
X143580734Y-89994353D01*
X143595629Y-89983120D01*
X143609821Y-89971426D01*
X143623307Y-89959283D01*
X143636080Y-89946706D01*
X143648136Y-89933704D01*
X143659469Y-89920292D01*
X143670075Y-89906481D01*
X143679949Y-89892283D01*
X143689084Y-89877711D01*
X143697477Y-89862777D01*
X143705122Y-89847494D01*
X143712014Y-89831874D01*
X143718147Y-89815929D01*
X143723518Y-89799671D01*
X143728120Y-89783113D01*
X143731950Y-89766268D01*
X143735000Y-89749146D01*
X143737267Y-89731762D01*
X143738746Y-89714127D01*
X143739431Y-89696253D01*
X143739317Y-89678154D01*
X143738399Y-89659840D01*
X143736672Y-89641325D01*
X143734132Y-89622620D01*
X143730772Y-89603739D01*
X143726588Y-89584694D01*
X143721574Y-89565496D01*
X143715727Y-89546158D01*
X143710620Y-89529104D01*
X143706348Y-89512055D01*
X143702919Y-89494895D01*
X143700340Y-89477507D01*
X143698619Y-89459775D01*
X143697765Y-89441582D01*
X143697784Y-89422813D01*
X143698686Y-89403349D01*
X143700477Y-89383076D01*
X143703166Y-89361876D01*
X143706761Y-89339633D01*
X143711269Y-89316231D01*
X143716699Y-89291553D01*
X143723058Y-89265483D01*
X143730354Y-89237904D01*
X143738596Y-89208700D01*
X143740718Y-89201150D01*
X143741548Y-89197738D01*
X143742159Y-89194560D01*
X143742502Y-89191610D01*
X143742529Y-89188884D01*
X143742409Y-89187602D01*
X143742191Y-89186374D01*
X143741869Y-89185198D01*
X143741439Y-89184075D01*
X143740892Y-89183003D01*
X143740224Y-89181981D01*
X143739428Y-89181010D01*
X143738498Y-89180087D01*
X143737428Y-89179213D01*
X143736212Y-89178387D01*
X143734844Y-89177608D01*
X143733318Y-89176875D01*
X143731627Y-89176188D01*
X143729766Y-89175546D01*
X143727728Y-89174948D01*
X143725508Y-89174393D01*
X143720495Y-89173411D01*
X143714679Y-89172594D01*
X143708011Y-89171936D01*
X143700442Y-89171432D01*
X143691923Y-89171076D01*
X143682406Y-89170862D01*
X143671841Y-89170784D01*
X143660182Y-89170837D01*
X143647378Y-89171015D01*
X143633380Y-89171312D01*
X143601611Y-89172240D01*
X143564486Y-89173575D01*
X143472606Y-89177283D01*
X143381405Y-89180003D01*
X143296578Y-89180311D01*
X143217888Y-89178123D01*
X143145094Y-89173353D01*
X143077960Y-89165918D01*
X143016246Y-89155733D01*
X142959714Y-89142714D01*
X142908127Y-89126776D01*
X142861246Y-89107835D01*
X142818832Y-89085807D01*
X142780647Y-89060607D01*
X142746454Y-89032150D01*
X142716013Y-89000353D01*
X142689086Y-88965131D01*
X142665435Y-88926399D01*
X142644822Y-88884074D01*
X142571829Y-88717039D01*
X142568774Y-88708883D01*
X142566126Y-88699415D01*
X142563806Y-88688768D01*
X142561737Y-88677074D01*
X142558041Y-88651082D01*
X142554415Y-88622505D01*
X142550238Y-88592409D01*
X142547749Y-88577125D01*
X142544888Y-88561862D01*
X142541578Y-88546752D01*
X142537742Y-88531930D01*
X142533301Y-88517527D01*
X142528178Y-88503678D01*
X142481794Y-88389271D01*
X142445656Y-88297954D01*
X142428180Y-88252040D01*
X142409366Y-88201200D01*
X142362526Y-88070480D01*
X142340396Y-88016122D01*
X142321322Y-87960229D01*
X142305042Y-87903003D01*
X142291299Y-87844649D01*
X142279834Y-87785373D01*
X142270388Y-87725378D01*
X142262701Y-87664869D01*
X142256515Y-87604050D01*
X142247611Y-87482303D01*
X142241604Y-87361771D01*
X142236422Y-87244092D01*
X142229994Y-87130900D01*
X142227312Y-87091052D01*
X142225752Y-87055224D01*
X142225051Y-87023116D01*
X142224947Y-86994427D01*
X142225478Y-86946106D01*
X142225246Y-86907859D01*
X142224188Y-86891763D01*
X142222151Y-86877284D01*
X142218874Y-86864122D01*
X142214093Y-86851977D01*
X142207546Y-86840549D01*
X142198972Y-86829537D01*
X142188106Y-86818642D01*
X142174687Y-86807562D01*
X142149885Y-86790137D01*
X142123161Y-86773868D01*
X142094684Y-86758353D01*
X142064626Y-86743193D01*
X142000452Y-86712342D01*
X141966678Y-86695852D01*
X141932007Y-86678119D01*
X141896610Y-86658745D01*
X141860659Y-86637328D01*
X141824325Y-86613471D01*
X141787778Y-86586772D01*
X141751190Y-86556834D01*
X141732934Y-86540525D01*
X141714732Y-86523256D01*
X141696605Y-86504978D01*
X141678575Y-86485640D01*
X141660663Y-86465192D01*
X141642890Y-86443584D01*
X141631078Y-86427961D01*
X141620327Y-86412048D01*
X141610643Y-86395825D01*
X141602030Y-86379273D01*
X141594493Y-86362372D01*
X141588036Y-86345099D01*
X141582665Y-86327437D01*
X141578383Y-86309363D01*
X141575196Y-86290858D01*
X141573109Y-86271902D01*
X141572126Y-86252474D01*
X141572251Y-86232553D01*
X141573490Y-86212121D01*
X141575846Y-86191155D01*
X141579326Y-86169637D01*
X141583933Y-86147546D01*
X141589672Y-86124860D01*
X141596549Y-86101561D01*
X141604566Y-86077628D01*
X141613730Y-86053040D01*
X141624045Y-86027778D01*
X141635515Y-86001820D01*
X141661942Y-85947739D01*
X141693047Y-85890633D01*
X141728869Y-85830341D01*
X141769445Y-85766700D01*
X141814812Y-85699548D01*
X141842262Y-85658940D01*
X141867391Y-85619763D01*
X141890021Y-85582339D01*
X141909979Y-85546993D01*
X141927088Y-85514047D01*
X141941172Y-85483826D01*
X141947026Y-85469838D01*
X141952057Y-85456652D01*
X141956245Y-85444308D01*
X141959567Y-85432848D01*
X141987069Y-85330717D01*
X142019052Y-85215544D01*
X142028140Y-85182178D01*
X142035926Y-85150524D01*
X142042391Y-85119947D01*
X142047512Y-85089809D01*
X142051270Y-85059476D01*
X142053643Y-85028311D01*
X142054611Y-84995679D01*
X142054153Y-84960942D01*
X142052248Y-84923467D01*
X142048875Y-84882616D01*
X142044014Y-84837754D01*
X142037643Y-84788244D01*
X142029742Y-84733451D01*
X142020291Y-84672739D01*
X141996651Y-84531014D01*
X141991031Y-84499588D01*
X141984986Y-84468207D01*
X141978707Y-84437705D01*
X141972382Y-84408916D01*
X141966202Y-84382676D01*
X141960356Y-84359818D01*
X141955033Y-84341177D01*
X141950423Y-84327588D01*
X141941808Y-84301789D01*
X141934982Y-84273525D01*
X141929905Y-84242933D01*
X141926535Y-84210154D01*
X141924751Y-84138582D01*
X141929299Y-84059920D01*
X141939848Y-83975275D01*
X141956066Y-83885756D01*
X141977623Y-83792471D01*
X142004186Y-83696529D01*
X142035425Y-83599039D01*
X142071008Y-83501109D01*
X142110604Y-83403848D01*
X142153882Y-83308364D01*
X142200511Y-83215766D01*
X142250158Y-83127163D01*
X142302494Y-83043663D01*
X142357186Y-82966374D01*
X142380799Y-82937083D01*
X142411788Y-82901712D01*
X142491956Y-82816468D01*
X142589806Y-82718124D01*
X142697455Y-82614158D01*
X142807020Y-82512050D01*
X142910615Y-82419278D01*
X143000358Y-82343323D01*
X143037572Y-82313989D01*
X143068366Y-82291664D01*
X143218492Y-82192149D01*
X143360734Y-82103061D01*
X143496981Y-82023431D01*
X143629118Y-81952286D01*
X143759032Y-81888658D01*
X143823746Y-81859360D01*
X143888612Y-81831576D01*
X144019744Y-81780068D01*
X144154315Y-81733165D01*
X144277955Y-81692038D01*
X144397730Y-81651214D01*
X144499968Y-81615413D01*
X144570996Y-81589353D01*
X144688251Y-81550126D01*
X144819476Y-81516911D01*
X144962540Y-81489651D01*
X145115311Y-81468290D01*
X145275658Y-81452772D01*
X145441449Y-81443041D01*
X145610554Y-81439040D01*
X145780840Y-81440713D01*
G37*
X145780840Y-81440713D02*
X145950176Y-81448004D01*
X146116430Y-81460856D01*
X146277472Y-81479213D01*
X146431170Y-81503020D01*
X146575392Y-81532219D01*
X146708007Y-81566755D01*
X146826884Y-81606572D01*
X146929891Y-81651612D01*
X146954554Y-81663155D01*
X146985133Y-81675991D01*
X147020418Y-81689693D01*
X147059198Y-81703831D01*
X147100263Y-81717977D01*
X147142401Y-81731701D01*
X147184403Y-81744575D01*
X147225057Y-81756170D01*
X147307774Y-81779216D01*
X147382668Y-81801253D01*
X147450684Y-81822890D01*
X147512768Y-81844737D01*
X147569865Y-81867402D01*
X147622923Y-81891496D01*
X147672888Y-81917626D01*
X147720704Y-81946402D01*
X147767318Y-81978434D01*
X147813676Y-82014330D01*
X147860725Y-82054700D01*
X147909409Y-82100152D01*
X147960676Y-82151297D01*
X148015471Y-82208743D01*
X148139428Y-82344975D01*
X148221418Y-82441251D01*
X148300090Y-82542491D01*
X148375173Y-82648062D01*
X148446396Y-82757329D01*
X148513489Y-82869660D01*
X148576181Y-82984422D01*
X148634200Y-83100980D01*
X148687276Y-83218703D01*
X148735138Y-83336955D01*
X148777515Y-83455105D01*
X148814135Y-83572519D01*
X148844729Y-83688563D01*
X148869026Y-83802604D01*
X148886753Y-83914009D01*
X148897642Y-84022145D01*
X148901419Y-84126378D01*
X148897462Y-84265768D01*
X148886307Y-84440833D01*
X148869499Y-84637560D01*
X148848586Y-84841932D01*
X148825114Y-85039934D01*
X148800629Y-85217552D01*
X148776679Y-85360771D01*
X148765387Y-85415100D01*
X148754808Y-85455574D01*
X148736979Y-85516582D01*
X148714763Y-85597259D01*
X148690991Y-85687104D01*
X148668495Y-85775615D01*
X148645736Y-85860149D01*
X148619932Y-85942574D01*
X148591155Y-86022781D01*
X148559477Y-86100661D01*
X148524970Y-86176106D01*
X148487706Y-86249008D01*
X148447756Y-86319259D01*
X148405194Y-86386750D01*
X148360090Y-86451372D01*
X148312517Y-86513018D01*
X148262546Y-86571579D01*
X148210249Y-86626946D01*
X148155699Y-86679012D01*
X148098967Y-86727668D01*
X148040124Y-86772805D01*
X147979244Y-86814315D01*
X147952676Y-86831914D01*
X147923513Y-86852238D01*
X147892708Y-86874562D01*
X147861210Y-86898162D01*
X147829972Y-86922314D01*
X147799945Y-86946295D01*
X147772080Y-86969381D01*
X147747327Y-86990846D01*
X147660269Y-87067777D01*
X147641773Y-87084588D01*
X147625484Y-87099978D01*
X147611852Y-87113720D01*
X147606173Y-87119902D01*
X147601327Y-87125587D01*
X147597990Y-87131115D01*
X147594691Y-87139461D01*
X147588227Y-87164694D01*
X147581979Y-87201454D01*
X147575991Y-87249915D01*
X147570306Y-87310244D01*
X147564969Y-87382614D01*
X147555512Y-87564157D01*
X147547970Y-87795907D01*
X147542694Y-88079230D01*
X147540036Y-88415489D01*
X147540346Y-88806050D01*
X147541407Y-89038246D01*
X147635982Y-89198265D01*
X147686111Y-89281506D01*
X147744360Y-89375552D01*
X147876263Y-89582264D01*
X148013789Y-89790811D01*
X148079066Y-89887150D01*
X148139035Y-89973600D01*
X148176418Y-90028785D01*
X148213043Y-90086967D01*
X148248774Y-90147814D01*
X148283477Y-90210996D01*
X148317017Y-90276182D01*
X148349259Y-90343042D01*
X148380068Y-90411244D01*
X148409308Y-90480458D01*
X148436845Y-90550353D01*
X148462543Y-90620598D01*
X148486268Y-90690863D01*
X148507885Y-90760816D01*
X148527259Y-90830126D01*
X148544254Y-90898464D01*
X148558735Y-90965498D01*
X148570569Y-91030897D01*
X148594355Y-91167935D01*
X148622842Y-91316538D01*
X148654626Y-91470516D01*
X148688303Y-91623676D01*
X148722470Y-91769827D01*
X148755724Y-91902777D01*
X148786661Y-92016335D01*
X148813877Y-92104310D01*
X148821448Y-92127292D01*
X148827844Y-92148194D01*
X148833227Y-92167331D01*
X148837756Y-92185018D01*
X148841595Y-92201570D01*
X148844903Y-92217300D01*
X148850573Y-92247555D01*
X148856058Y-92278300D01*
X148862645Y-92312052D01*
X148866756Y-92330842D01*
X148871626Y-92351327D01*
X148877417Y-92373823D01*
X148884290Y-92398643D01*
X148888763Y-92419732D01*
X148894568Y-92440978D01*
X148901472Y-92462505D01*
X148909247Y-92484438D01*
X148944439Y-92578704D01*
X148953107Y-92604524D01*
X148961263Y-92631493D01*
X148968675Y-92659736D01*
X148975114Y-92689377D01*
X148980349Y-92720539D01*
X148984149Y-92753347D01*
X148985439Y-92770407D01*
X148986284Y-92787925D01*
X148986655Y-92805916D01*
X148986523Y-92824396D01*
X148981588Y-93056526D01*
X144960567Y-93061013D01*
X140939547Y-93065493D01*
X141000015Y-92945440D01*
X141012164Y-92920575D01*
X141023500Y-92895931D01*
X141033774Y-92872151D01*
X141042739Y-92849878D01*
X141050147Y-92829754D01*
X141055749Y-92812423D01*
X141057795Y-92805005D01*
X141059296Y-92798527D01*
X141060222Y-92793068D01*
X141060542Y-92788709D01*
X141060775Y-92784503D01*
X141061446Y-92779492D01*
X141062533Y-92773743D01*
X141064013Y-92767320D01*
X141065865Y-92760289D01*
X141068064Y-92752715D01*
X141070590Y-92744662D01*
X141073419Y-92736197D01*
X141079899Y-92718290D01*
X141087324Y-92699515D01*
X141095516Y-92680394D01*
X141099843Y-92670867D01*
X141104294Y-92661449D01*
X141113318Y-92642222D01*
X141122211Y-92622290D01*
X141130745Y-92602233D01*
X141138690Y-92582630D01*
X141145820Y-92564059D01*
X141151904Y-92547098D01*
X141156714Y-92532328D01*
X141160023Y-92520327D01*
X141161366Y-92515040D01*
X141162903Y-92509630D01*
X141164615Y-92504137D01*
X141166486Y-92498599D01*
X141168496Y-92493057D01*
X141170630Y-92487550D01*
X141175192Y-92476799D01*
X141177585Y-92471635D01*
X141180030Y-92466664D01*
X141182507Y-92461926D01*
X141185000Y-92457460D01*
X141187491Y-92453307D01*
X141189962Y-92449506D01*
X141192394Y-92446096D01*
X141194771Y-92443117D01*
X141197426Y-92439570D01*
X141200675Y-92434494D01*
X141204472Y-92427983D01*
X141208773Y-92420135D01*
X141218704Y-92400807D01*
X141230105Y-92377276D01*
X141242612Y-92350306D01*
X141255864Y-92320664D01*
X141269498Y-92289116D01*
X141283152Y-92256427D01*
X141296790Y-92223738D01*
X141310380Y-92192190D01*
X141323562Y-92162548D01*
X141335976Y-92135578D01*
X141347264Y-92112047D01*
X141357065Y-92092719D01*
X141365021Y-92078360D01*
X141368195Y-92073283D01*
X141370772Y-92069736D01*
X141376316Y-92061848D01*
X141382626Y-92050839D01*
X141389587Y-92037031D01*
X141397082Y-92020748D01*
X141413209Y-91982046D01*
X141430074Y-91937313D01*
X141446746Y-91889130D01*
X141462294Y-91840079D01*
X141475786Y-91792740D01*
X141481470Y-91770520D01*
X141486290Y-91749696D01*
X141492935Y-91726021D01*
X141503800Y-91695931D01*
X141518441Y-91660259D01*
X141536413Y-91619839D01*
X141580574Y-91528086D01*
X141632725Y-91427336D01*
X141689313Y-91324256D01*
X141746779Y-91225511D01*
X141801569Y-91137766D01*
X141826849Y-91100102D01*
X141850126Y-91067688D01*
X141889719Y-91014149D01*
X141927135Y-90962244D01*
X141958162Y-90917902D01*
X141969961Y-90900419D01*
X141978583Y-90887048D01*
X141992472Y-90864991D01*
X142005876Y-90844471D01*
X142018879Y-90825401D01*
X142031564Y-90807696D01*
X142044017Y-90791268D01*
X142056321Y-90776032D01*
X142068559Y-90761901D01*
X142080816Y-90748790D01*
X142093176Y-90736611D01*
X142105723Y-90725279D01*
X142118540Y-90714707D01*
X142131712Y-90704809D01*
X142145323Y-90695499D01*
X142159456Y-90686691D01*
X142174196Y-90678297D01*
X142189626Y-90670233D01*
X142208210Y-90660613D01*
X142226950Y-90650361D01*
X142245336Y-90639794D01*
X142262858Y-90629227D01*
X142279004Y-90618975D01*
X142293264Y-90609355D01*
X142305128Y-90600681D01*
X142310002Y-90596798D01*
X142314086Y-90593270D01*
X142328522Y-90581938D01*
X142349797Y-90567743D01*
X142409189Y-90532597D01*
X142484921Y-90491497D01*
X142569652Y-90448107D01*
X142656039Y-90406091D01*
X142736741Y-90369113D01*
X142804416Y-90340838D01*
X142831074Y-90331109D01*
X142851723Y-90324930D01*
X142871089Y-90319595D01*
X142893715Y-90312364D01*
X142918781Y-90303558D01*
X142945465Y-90293496D01*
X142972945Y-90282497D01*
X143000402Y-90270881D01*
X143027012Y-90258967D01*
X143051956Y-90247074D01*
X143077098Y-90235151D01*
X143104277Y-90223148D01*
X143132632Y-90211393D01*
X143161302Y-90200210D01*
X143189426Y-90189925D01*
X143216143Y-90180864D01*
X143240592Y-90173352D01*
X143261910Y-90167714D01*
X143271773Y-90165239D01*
X143281847Y-90162427D01*
X143292058Y-90159309D01*
X143302334Y-90155919D01*
X143322789Y-90148445D01*
X143342627Y-90140261D01*
X143361266Y-90131622D01*
X143369953Y-90127212D01*
X143378121Y-90122783D01*
X143385698Y-90118368D01*
X143392611Y-90113998D01*
X143398786Y-90109706D01*
X143404150Y-90105523D01*
X143415033Y-90096867D01*
X143427642Y-90087562D01*
X143441524Y-90077900D01*
X143456228Y-90068172D01*
X143471303Y-90058670D01*
X143486297Y-90049685D01*
X143500758Y-90041510D01*
X143514235Y-90034436D01*
X143531888Y-90025168D01*
X143548858Y-90015389D01*
X143565142Y-90005114D01*
X143580734Y-89994353D01*
X143595629Y-89983120D01*
X143609821Y-89971426D01*
X143623307Y-89959283D01*
X143636080Y-89946706D01*
X143648136Y-89933704D01*
X143659469Y-89920292D01*
X143670075Y-89906481D01*
X143679949Y-89892283D01*
X143689084Y-89877711D01*
X143697477Y-89862777D01*
X143705122Y-89847494D01*
X143712014Y-89831874D01*
X143718147Y-89815929D01*
X143723518Y-89799671D01*
X143728120Y-89783113D01*
X143731950Y-89766268D01*
X143735000Y-89749146D01*
X143737267Y-89731762D01*
X143738746Y-89714127D01*
X143739431Y-89696253D01*
X143739317Y-89678154D01*
X143738399Y-89659840D01*
X143736672Y-89641325D01*
X143734132Y-89622620D01*
X143730772Y-89603739D01*
X143726588Y-89584694D01*
X143721574Y-89565496D01*
X143715727Y-89546158D01*
X143710620Y-89529104D01*
X143706348Y-89512055D01*
X143702919Y-89494895D01*
X143700340Y-89477507D01*
X143698619Y-89459775D01*
X143697765Y-89441582D01*
X143697784Y-89422813D01*
X143698686Y-89403349D01*
X143700477Y-89383076D01*
X143703166Y-89361876D01*
X143706761Y-89339633D01*
X143711269Y-89316231D01*
X143716699Y-89291553D01*
X143723058Y-89265483D01*
X143730354Y-89237904D01*
X143738596Y-89208700D01*
X143740718Y-89201150D01*
X143741548Y-89197738D01*
X143742159Y-89194560D01*
X143742502Y-89191610D01*
X143742529Y-89188884D01*
X143742409Y-89187602D01*
X143742191Y-89186374D01*
X143741869Y-89185198D01*
X143741439Y-89184075D01*
X143740892Y-89183003D01*
X143740224Y-89181981D01*
X143739428Y-89181010D01*
X143738498Y-89180087D01*
X143737428Y-89179213D01*
X143736212Y-89178387D01*
X143734844Y-89177608D01*
X143733318Y-89176875D01*
X143731627Y-89176188D01*
X143729766Y-89175546D01*
X143727728Y-89174948D01*
X143725508Y-89174393D01*
X143720495Y-89173411D01*
X143714679Y-89172594D01*
X143708011Y-89171936D01*
X143700442Y-89171432D01*
X143691923Y-89171076D01*
X143682406Y-89170862D01*
X143671841Y-89170784D01*
X143660182Y-89170837D01*
X143647378Y-89171015D01*
X143633380Y-89171312D01*
X143601611Y-89172240D01*
X143564486Y-89173575D01*
X143472606Y-89177283D01*
X143381405Y-89180003D01*
X143296578Y-89180311D01*
X143217888Y-89178123D01*
X143145094Y-89173353D01*
X143077960Y-89165918D01*
X143016246Y-89155733D01*
X142959714Y-89142714D01*
X142908127Y-89126776D01*
X142861246Y-89107835D01*
X142818832Y-89085807D01*
X142780647Y-89060607D01*
X142746454Y-89032150D01*
X142716013Y-89000353D01*
X142689086Y-88965131D01*
X142665435Y-88926399D01*
X142644822Y-88884074D01*
X142571829Y-88717039D01*
X142568774Y-88708883D01*
X142566126Y-88699415D01*
X142563806Y-88688768D01*
X142561737Y-88677074D01*
X142558041Y-88651082D01*
X142554415Y-88622505D01*
X142550238Y-88592409D01*
X142547749Y-88577125D01*
X142544888Y-88561862D01*
X142541578Y-88546752D01*
X142537742Y-88531930D01*
X142533301Y-88517527D01*
X142528178Y-88503678D01*
X142481794Y-88389271D01*
X142445656Y-88297954D01*
X142428180Y-88252040D01*
X142409366Y-88201200D01*
X142362526Y-88070480D01*
X142340396Y-88016122D01*
X142321322Y-87960229D01*
X142305042Y-87903003D01*
X142291299Y-87844649D01*
X142279834Y-87785373D01*
X142270388Y-87725378D01*
X142262701Y-87664869D01*
X142256515Y-87604050D01*
X142247611Y-87482303D01*
X142241604Y-87361771D01*
X142236422Y-87244092D01*
X142229994Y-87130900D01*
X142227312Y-87091052D01*
X142225752Y-87055224D01*
X142225051Y-87023116D01*
X142224947Y-86994427D01*
X142225478Y-86946106D01*
X142225246Y-86907859D01*
X142224188Y-86891763D01*
X142222151Y-86877284D01*
X142218874Y-86864122D01*
X142214093Y-86851977D01*
X142207546Y-86840549D01*
X142198972Y-86829537D01*
X142188106Y-86818642D01*
X142174687Y-86807562D01*
X142149885Y-86790137D01*
X142123161Y-86773868D01*
X142094684Y-86758353D01*
X142064626Y-86743193D01*
X142000452Y-86712342D01*
X141966678Y-86695852D01*
X141932007Y-86678119D01*
X141896610Y-86658745D01*
X141860659Y-86637328D01*
X141824325Y-86613471D01*
X141787778Y-86586772D01*
X141751190Y-86556834D01*
X141732934Y-86540525D01*
X141714732Y-86523256D01*
X141696605Y-86504978D01*
X141678575Y-86485640D01*
X141660663Y-86465192D01*
X141642890Y-86443584D01*
X141631078Y-86427961D01*
X141620327Y-86412048D01*
X141610643Y-86395825D01*
X141602030Y-86379273D01*
X141594493Y-86362372D01*
X141588036Y-86345099D01*
X141582665Y-86327437D01*
X141578383Y-86309363D01*
X141575196Y-86290858D01*
X141573109Y-86271902D01*
X141572126Y-86252474D01*
X141572251Y-86232553D01*
X141573490Y-86212121D01*
X141575846Y-86191155D01*
X141579326Y-86169637D01*
X141583933Y-86147546D01*
X141589672Y-86124860D01*
X141596549Y-86101561D01*
X141604566Y-86077628D01*
X141613730Y-86053040D01*
X141624045Y-86027778D01*
X141635515Y-86001820D01*
X141661942Y-85947739D01*
X141693047Y-85890633D01*
X141728869Y-85830341D01*
X141769445Y-85766700D01*
X141814812Y-85699548D01*
X141842262Y-85658940D01*
X141867391Y-85619763D01*
X141890021Y-85582339D01*
X141909979Y-85546993D01*
X141927088Y-85514047D01*
X141941172Y-85483826D01*
X141947026Y-85469838D01*
X141952057Y-85456652D01*
X141956245Y-85444308D01*
X141959567Y-85432848D01*
X141987069Y-85330717D01*
X142019052Y-85215544D01*
X142028140Y-85182178D01*
X142035926Y-85150524D01*
X142042391Y-85119947D01*
X142047512Y-85089809D01*
X142051270Y-85059476D01*
X142053643Y-85028311D01*
X142054611Y-84995679D01*
X142054153Y-84960942D01*
X142052248Y-84923467D01*
X142048875Y-84882616D01*
X142044014Y-84837754D01*
X142037643Y-84788244D01*
X142029742Y-84733451D01*
X142020291Y-84672739D01*
X141996651Y-84531014D01*
X141991031Y-84499588D01*
X141984986Y-84468207D01*
X141978707Y-84437705D01*
X141972382Y-84408916D01*
X141966202Y-84382676D01*
X141960356Y-84359818D01*
X141955033Y-84341177D01*
X141950423Y-84327588D01*
X141941808Y-84301789D01*
X141934982Y-84273525D01*
X141929905Y-84242933D01*
X141926535Y-84210154D01*
X141924751Y-84138582D01*
X141929299Y-84059920D01*
X141939848Y-83975275D01*
X141956066Y-83885756D01*
X141977623Y-83792471D01*
X142004186Y-83696529D01*
X142035425Y-83599039D01*
X142071008Y-83501109D01*
X142110604Y-83403848D01*
X142153882Y-83308364D01*
X142200511Y-83215766D01*
X142250158Y-83127163D01*
X142302494Y-83043663D01*
X142357186Y-82966374D01*
X142380799Y-82937083D01*
X142411788Y-82901712D01*
X142491956Y-82816468D01*
X142589806Y-82718124D01*
X142697455Y-82614158D01*
X142807020Y-82512050D01*
X142910615Y-82419278D01*
X143000358Y-82343323D01*
X143037572Y-82313989D01*
X143068366Y-82291664D01*
X143218492Y-82192149D01*
X143360734Y-82103061D01*
X143496981Y-82023431D01*
X143629118Y-81952286D01*
X143759032Y-81888658D01*
X143823746Y-81859360D01*
X143888612Y-81831576D01*
X144019744Y-81780068D01*
X144154315Y-81733165D01*
X144277955Y-81692038D01*
X144397730Y-81651214D01*
X144499968Y-81615413D01*
X144570996Y-81589353D01*
X144688251Y-81550126D01*
X144819476Y-81516911D01*
X144962540Y-81489651D01*
X145115311Y-81468290D01*
X145275658Y-81452772D01*
X145441449Y-81443041D01*
X145610554Y-81439040D01*
X145780840Y-81440713D01*
D10*
X128709146Y-88242422D02*
X128662837Y-88314791D01*
X128826393Y-83841739D02*
X128854901Y-83904993D01*
X125510496Y-83904993D02*
X125539004Y-83841739D01*
X125419165Y-87588381D02*
X125407859Y-87498895D01*
X128613191Y-88384706D02*
X128560318Y-88452056D01*
X128662837Y-88314791D02*
X128613191Y-88384706D01*
X125815786Y-83451452D02*
X125865298Y-83404256D01*
X125506592Y-87930616D02*
X125478626Y-87847634D01*
X128504329Y-88516732D02*
X128445333Y-88578623D01*
X128886768Y-87847633D02*
X128858801Y-87930615D01*
X126256262Y-88842436D02*
X126183893Y-88796127D01*
X128318767Y-88693608D02*
X128251416Y-88746481D01*
X126400577Y-83098304D02*
X126468396Y-83079130D01*
X128964864Y-84387902D02*
X128966714Y-84461561D01*
X126651049Y-89020058D02*
X126568067Y-88992091D01*
X125398682Y-87315986D02*
X125398682Y-87315986D01*
X127274771Y-89097689D02*
X127182697Y-89100002D01*
X127714345Y-89020058D02*
X127629571Y-89044025D01*
X125398682Y-85175167D02*
X128966712Y-85175167D01*
X128826945Y-88011696D02*
X128791310Y-88090764D01*
X128794950Y-83780183D02*
X128826393Y-83841739D01*
X127543117Y-89063882D02*
X127455092Y-89079519D01*
X126183893Y-88796127D02*
X126113978Y-88746481D01*
X127182697Y-89100002D02*
X127090623Y-89097689D01*
D12*
G36*
X142886466Y-95323418D02*
G01*
X142957986Y-95541856D01*
X142985344Y-95627485D01*
X143007102Y-95697389D01*
X143031660Y-95620375D01*
X143062250Y-95527206D01*
X143098872Y-95417880D01*
X143141524Y-95292398D01*
X143746426Y-93534566D01*
X144196224Y-93534566D01*
X144196224Y-96044647D01*
X144189937Y-96061018D01*
X143873955Y-96061018D01*
X143873955Y-93946450D01*
X143139802Y-96061018D01*
X142838212Y-96061018D01*
X142107506Y-93910259D01*
X142107506Y-96061018D01*
X141785237Y-96061018D01*
X141785237Y-93534566D01*
X142288459Y-93534566D01*
X142886466Y-95323418D01*
G37*
X142886466Y-95323418D02*
X142957986Y-95541856D01*
X142985344Y-95627485D01*
X143007102Y-95697389D01*
X143031660Y-95620375D01*
X143062250Y-95527206D01*
X143098872Y-95417880D01*
X143141524Y-95292398D01*
X143746426Y-93534566D01*
X144196224Y-93534566D01*
X144196224Y-96044647D01*
X144189937Y-96061018D01*
X143873955Y-96061018D01*
X143873955Y-93946450D01*
X143139802Y-96061018D01*
X142838212Y-96061018D01*
X142107506Y-93910259D01*
X142107506Y-96061018D01*
X141785237Y-96061018D01*
X141785237Y-93534566D01*
X142288459Y-93534566D01*
X142886466Y-95323418D01*
D10*
X127090623Y-89097689D02*
X126999788Y-89090825D01*
X126537560Y-83063245D02*
X126607980Y-83050736D01*
X128910735Y-87762860D02*
X128886768Y-87847633D01*
X126334192Y-83120678D02*
X126400577Y-83098304D01*
X125920061Y-88578623D02*
X125861065Y-88516732D01*
X126206073Y-83174670D02*
X126269327Y-83146162D01*
X125398682Y-87315986D02*
X125398682Y-84461561D01*
X125478626Y-87847634D02*
X125454659Y-87762860D01*
X125768589Y-83500965D02*
X125815786Y-83451452D01*
X128921933Y-84104062D02*
X128937819Y-84173226D01*
X127182697Y-89100002D02*
X127182697Y-89100002D01*
X126735823Y-89044025D02*
X126651049Y-89020058D01*
D11*
G36*
X140375146Y-106511994D02*
G01*
X141638635Y-109385209D01*
X141682842Y-109482545D01*
X141725031Y-109570434D01*
X141765201Y-109648877D01*
X141803353Y-109717874D01*
X141839486Y-109777423D01*
X141856795Y-109803655D01*
X141873600Y-109827525D01*
X141889900Y-109849033D01*
X141905696Y-109868179D01*
X141920987Y-109884963D01*
X141935773Y-109899384D01*
X141947037Y-109909136D01*
X141958866Y-109918362D01*
X141971260Y-109927063D01*
X141984220Y-109935239D01*
X141997745Y-109942890D01*
X142011835Y-109950016D01*
X142026490Y-109956617D01*
X142041710Y-109962693D01*
X142057496Y-109968244D01*
X142073847Y-109973270D01*
X142090763Y-109977771D01*
X142108244Y-109981748D01*
X142126290Y-109985199D01*
X142144902Y-109988125D01*
X142164078Y-109990526D01*
X142183820Y-109992402D01*
X142183820Y-110088006D01*
X140488835Y-110088006D01*
X140488835Y-109992402D01*
X140558599Y-109992402D01*
X140607732Y-109991514D01*
X140630875Y-109990404D01*
X140653070Y-109988850D01*
X140674315Y-109986852D01*
X140694613Y-109984410D01*
X140713961Y-109981523D01*
X140732360Y-109978193D01*
X140749811Y-109974419D01*
X140766313Y-109970200D01*
X140781867Y-109965538D01*
X140796471Y-109960431D01*
X140810127Y-109954880D01*
X140822834Y-109948885D01*
X140834593Y-109942446D01*
X140845403Y-109935563D01*
X140852286Y-109930253D01*
X140858725Y-109924661D01*
X140864720Y-109918786D01*
X140870272Y-109912629D01*
X140875378Y-109906189D01*
X140880041Y-109899467D01*
X140884260Y-109892462D01*
X140888035Y-109885175D01*
X140891366Y-109877605D01*
X140894252Y-109869752D01*
X140896695Y-109861617D01*
X140898693Y-109853200D01*
X140900247Y-109844500D01*
X140901357Y-109835517D01*
X140902024Y-109826252D01*
X140902246Y-109816705D01*
X140902003Y-109805037D01*
X140901276Y-109793289D01*
X140900065Y-109781459D01*
X140898369Y-109769549D01*
X140896189Y-109757558D01*
X140893525Y-109745487D01*
X140890376Y-109733334D01*
X140886743Y-109721101D01*
X140885834Y-109717619D01*
X140884400Y-109712986D01*
X140879958Y-109700269D01*
X140873418Y-109682950D01*
X140864778Y-109661029D01*
X140854039Y-109634505D01*
X140841201Y-109603378D01*
X140809228Y-109527314D01*
X140623193Y-109090653D01*
X139385541Y-109090653D01*
X139238263Y-109431718D01*
X139221306Y-109473421D01*
X139206611Y-109513268D01*
X139194176Y-109551258D01*
X139188807Y-109569557D01*
X139184003Y-109587391D01*
X139179764Y-109604761D01*
X139176090Y-109621666D01*
X139172982Y-109638108D01*
X139170439Y-109654085D01*
X139168461Y-109669597D01*
X139167048Y-109684646D01*
X139166200Y-109699230D01*
X139165917Y-109713349D01*
X139166382Y-109731457D01*
X139167774Y-109748959D01*
X139170096Y-109765855D01*
X139173346Y-109782146D01*
X139177524Y-109797830D01*
X139182631Y-109812909D01*
X139188666Y-109827383D01*
X139195630Y-109841250D01*
X139203523Y-109854512D01*
X139212344Y-109867169D01*
X139222094Y-109879220D01*
X139232772Y-109890665D01*
X139244379Y-109901504D01*
X139256915Y-109911739D01*
X139270379Y-109921367D01*
X139284772Y-109930390D01*
X139294290Y-109935478D01*
X139305402Y-109940404D01*
X139318109Y-109945168D01*
X139332411Y-109949771D01*
X139348307Y-109954212D01*
X139365799Y-109958492D01*
X139384885Y-109962610D01*
X139405565Y-109966566D01*
X139427841Y-109970361D01*
X139451711Y-109973994D01*
X139477176Y-109977466D01*
X139504236Y-109980776D01*
X139532890Y-109983925D01*
X139563140Y-109986912D01*
X139628423Y-109992402D01*
X139628423Y-110088006D01*
X138463117Y-110088006D01*
X138463117Y-109992402D01*
X138486432Y-109988466D01*
X138509222Y-109983764D01*
X138531488Y-109978294D01*
X138553228Y-109972057D01*
X138574444Y-109965053D01*
X138595135Y-109957282D01*
X138615301Y-109948743D01*
X138634942Y-109939438D01*
X138654058Y-109929365D01*
X138672649Y-109918525D01*
X138690716Y-109906918D01*
X138708257Y-109894543D01*
X138725274Y-109881401D01*
X138741766Y-109867492D01*
X138757733Y-109852816D01*
X138773175Y-109837373D01*
X138788577Y-109820165D01*
X138804423Y-109800838D01*
X138820714Y-109779391D01*
X138837448Y-109755824D01*
X138854627Y-109730137D01*
X138872249Y-109702331D01*
X138890316Y-109672405D01*
X138908827Y-109640360D01*
X138927782Y-109606195D01*
X138947181Y-109569910D01*
X138967024Y-109531506D01*
X138987311Y-109490983D01*
X139029217Y-109403577D01*
X139072900Y-109307694D01*
X139255895Y-108899445D01*
X139475976Y-108899445D01*
X140535344Y-108899445D01*
X140013410Y-107692803D01*
X139475976Y-108899445D01*
X139255895Y-108899445D01*
X140326055Y-106511994D01*
X140375146Y-106511994D01*
G37*
X140375146Y-106511994D02*
X141638635Y-109385209D01*
X141682842Y-109482545D01*
X141725031Y-109570434D01*
X141765201Y-109648877D01*
X141803353Y-109717874D01*
X141839486Y-109777423D01*
X141856795Y-109803655D01*
X141873600Y-109827525D01*
X141889900Y-109849033D01*
X141905696Y-109868179D01*
X141920987Y-109884963D01*
X141935773Y-109899384D01*
X141947037Y-109909136D01*
X141958866Y-109918362D01*
X141971260Y-109927063D01*
X141984220Y-109935239D01*
X141997745Y-109942890D01*
X142011835Y-109950016D01*
X142026490Y-109956617D01*
X142041710Y-109962693D01*
X142057496Y-109968244D01*
X142073847Y-109973270D01*
X142090763Y-109977771D01*
X142108244Y-109981748D01*
X142126290Y-109985199D01*
X142144902Y-109988125D01*
X142164078Y-109990526D01*
X142183820Y-109992402D01*
X142183820Y-110088006D01*
X140488835Y-110088006D01*
X140488835Y-109992402D01*
X140558599Y-109992402D01*
X140607732Y-109991514D01*
X140630875Y-109990404D01*
X140653070Y-109988850D01*
X140674315Y-109986852D01*
X140694613Y-109984410D01*
X140713961Y-109981523D01*
X140732360Y-109978193D01*
X140749811Y-109974419D01*
X140766313Y-109970200D01*
X140781867Y-109965538D01*
X140796471Y-109960431D01*
X140810127Y-109954880D01*
X140822834Y-109948885D01*
X140834593Y-109942446D01*
X140845403Y-109935563D01*
X140852286Y-109930253D01*
X140858725Y-109924661D01*
X140864720Y-109918786D01*
X140870272Y-109912629D01*
X140875378Y-109906189D01*
X140880041Y-109899467D01*
X140884260Y-109892462D01*
X140888035Y-109885175D01*
X140891366Y-109877605D01*
X140894252Y-109869752D01*
X140896695Y-109861617D01*
X140898693Y-109853200D01*
X140900247Y-109844500D01*
X140901357Y-109835517D01*
X140902024Y-109826252D01*
X140902246Y-109816705D01*
X140902003Y-109805037D01*
X140901276Y-109793289D01*
X140900065Y-109781459D01*
X140898369Y-109769549D01*
X140896189Y-109757558D01*
X140893525Y-109745487D01*
X140890376Y-109733334D01*
X140886743Y-109721101D01*
X140885834Y-109717619D01*
X140884400Y-109712986D01*
X140879958Y-109700269D01*
X140873418Y-109682950D01*
X140864778Y-109661029D01*
X140854039Y-109634505D01*
X140841201Y-109603378D01*
X140809228Y-109527314D01*
X140623193Y-109090653D01*
X139385541Y-109090653D01*
X139238263Y-109431718D01*
X139221306Y-109473421D01*
X139206611Y-109513268D01*
X139194176Y-109551258D01*
X139188807Y-109569557D01*
X139184003Y-109587391D01*
X139179764Y-109604761D01*
X139176090Y-109621666D01*
X139172982Y-109638108D01*
X139170439Y-109654085D01*
X139168461Y-109669597D01*
X139167048Y-109684646D01*
X139166200Y-109699230D01*
X139165917Y-109713349D01*
X139166382Y-109731457D01*
X139167774Y-109748959D01*
X139170096Y-109765855D01*
X139173346Y-109782146D01*
X139177524Y-109797830D01*
X139182631Y-109812909D01*
X139188666Y-109827383D01*
X139195630Y-109841250D01*
X139203523Y-109854512D01*
X139212344Y-109867169D01*
X139222094Y-109879220D01*
X139232772Y-109890665D01*
X139244379Y-109901504D01*
X139256915Y-109911739D01*
X139270379Y-109921367D01*
X139284772Y-109930390D01*
X139294290Y-109935478D01*
X139305402Y-109940404D01*
X139318109Y-109945168D01*
X139332411Y-109949771D01*
X139348307Y-109954212D01*
X139365799Y-109958492D01*
X139384885Y-109962610D01*
X139405565Y-109966566D01*
X139427841Y-109970361D01*
X139451711Y-109973994D01*
X139477176Y-109977466D01*
X139504236Y-109980776D01*
X139532890Y-109983925D01*
X139563140Y-109986912D01*
X139628423Y-109992402D01*
X139628423Y-110088006D01*
X138463117Y-110088006D01*
X138463117Y-109992402D01*
X138486432Y-109988466D01*
X138509222Y-109983764D01*
X138531488Y-109978294D01*
X138553228Y-109972057D01*
X138574444Y-109965053D01*
X138595135Y-109957282D01*
X138615301Y-109948743D01*
X138634942Y-109939438D01*
X138654058Y-109929365D01*
X138672649Y-109918525D01*
X138690716Y-109906918D01*
X138708257Y-109894543D01*
X138725274Y-109881401D01*
X138741766Y-109867492D01*
X138757733Y-109852816D01*
X138773175Y-109837373D01*
X138788577Y-109820165D01*
X138804423Y-109800838D01*
X138820714Y-109779391D01*
X138837448Y-109755824D01*
X138854627Y-109730137D01*
X138872249Y-109702331D01*
X138890316Y-109672405D01*
X138908827Y-109640360D01*
X138927782Y-109606195D01*
X138947181Y-109569910D01*
X138967024Y-109531506D01*
X138987311Y-109490983D01*
X139029217Y-109403577D01*
X139072900Y-109307694D01*
X139255895Y-108899445D01*
X139475976Y-108899445D01*
X140535344Y-108899445D01*
X140013410Y-107692803D01*
X139475976Y-108899445D01*
X139255895Y-108899445D01*
X140326055Y-106511994D01*
X140375146Y-106511994D01*
D10*
X126679568Y-83041691D02*
X126752236Y-83036199D01*
X127455092Y-89079519D02*
X127365606Y-89090825D01*
X128946229Y-87588380D02*
X128930593Y-87676405D01*
X128752007Y-88167709D02*
X128709146Y-88242422D01*
X125406024Y-84315234D02*
X125415068Y-84243646D01*
X125434801Y-87676406D02*
X125419165Y-87588381D01*
X128959373Y-84315234D02*
X128964864Y-84387902D01*
X125641783Y-83662518D02*
X125681500Y-83606586D01*
X127365606Y-89090825D02*
X127274771Y-89097689D01*
X126607980Y-83050736D02*
X126679568Y-83041691D01*
X125861065Y-88516732D02*
X125805076Y-88452056D01*
X127827837Y-83063245D02*
X127897001Y-83079130D01*
D12*
G36*
X145520374Y-93534566D02*
G01*
X146549830Y-96049869D01*
X146549830Y-96061018D01*
X146173530Y-96061018D01*
X145878834Y-95295844D01*
X144822412Y-95295844D01*
X144544951Y-96061018D01*
X144196224Y-96061018D01*
X144196224Y-96044647D01*
X144588363Y-95023553D01*
X144918920Y-95023553D01*
X145775432Y-95023553D01*
X145511757Y-94323867D01*
X145455316Y-94171565D01*
X145406631Y-94033481D01*
X145365701Y-93909614D01*
X145348145Y-93853012D01*
X145332527Y-93799965D01*
X145319844Y-93860660D01*
X145305922Y-93921247D01*
X145290762Y-93981726D01*
X145274363Y-94042098D01*
X145256726Y-94102362D01*
X145237849Y-94162518D01*
X145217734Y-94222567D01*
X145196381Y-94282508D01*
X144918920Y-95023553D01*
X144588363Y-95023553D01*
X145160191Y-93534566D01*
X145520374Y-93534566D01*
G37*
X145520374Y-93534566D02*
X146549830Y-96049869D01*
X146549830Y-96061018D01*
X146173530Y-96061018D01*
X145878834Y-95295844D01*
X144822412Y-95295844D01*
X144544951Y-96061018D01*
X144196224Y-96061018D01*
X144196224Y-96044647D01*
X144588363Y-95023553D01*
X144918920Y-95023553D01*
X145775432Y-95023553D01*
X145511757Y-94323867D01*
X145455316Y-94171565D01*
X145406631Y-94033481D01*
X145365701Y-93909614D01*
X145348145Y-93853012D01*
X145332527Y-93799965D01*
X145319844Y-93860660D01*
X145305922Y-93921247D01*
X145290762Y-93981726D01*
X145274363Y-94042098D01*
X145256726Y-94102362D01*
X145237849Y-94162518D01*
X145217734Y-94222567D01*
X145196381Y-94282508D01*
X144918920Y-95023553D01*
X144588363Y-95023553D01*
X145160191Y-93534566D01*
X145520374Y-93534566D01*
D10*
X128159324Y-83174670D02*
X128220881Y-83206113D01*
X125604735Y-83720413D02*
X125641783Y-83662518D01*
X128338545Y-83277449D02*
X128394477Y-83317166D01*
X128854901Y-83904993D02*
X128880386Y-83969857D01*
X126752236Y-83036199D02*
X126825895Y-83034349D01*
X125681500Y-83606586D02*
X125723798Y-83552705D01*
X126269327Y-83146162D02*
X126334192Y-83120678D01*
X125485011Y-83969857D02*
X125510496Y-83904993D01*
X127629571Y-89044025D02*
X127543117Y-89063882D01*
X127685829Y-83041691D02*
X127757417Y-83050736D01*
X125400532Y-84387902D02*
X125406024Y-84315234D01*
X128549611Y-83451452D02*
X128596808Y-83500965D01*
X127797327Y-88992091D02*
X127714345Y-89020058D01*
X128966714Y-84461561D02*
X128966712Y-87315985D01*
X128950328Y-84243646D02*
X128959373Y-84315234D01*
X126084747Y-83240402D02*
X126144517Y-83206113D01*
X125613387Y-88167710D02*
X125574083Y-88090764D01*
X127613161Y-83036199D02*
X127685829Y-83041691D01*
X128031205Y-83120678D02*
X128096070Y-83146162D01*
X128966712Y-87315985D02*
X128964399Y-87408059D01*
X128964399Y-87408059D02*
X128957535Y-87498894D01*
X125752203Y-88384706D02*
X125702557Y-88314791D01*
X125462637Y-84036243D02*
X125485011Y-83969857D01*
X125656248Y-88242422D02*
X125613387Y-88167710D01*
X127957475Y-88924600D02*
X127878407Y-88960235D01*
X125407859Y-87498895D02*
X125400995Y-87408060D01*
D12*
G36*
X148219770Y-95518159D02*
G01*
X148219770Y-93534566D01*
X148540316Y-93534566D01*
X148540316Y-96061018D01*
X148197367Y-96061018D01*
X146870376Y-94075702D01*
X146870376Y-96061018D01*
X146554393Y-96061018D01*
X146549830Y-96049869D01*
X146549830Y-93534566D01*
X146892780Y-93534566D01*
X148219770Y-95518159D01*
G37*
X148219770Y-95518159D02*
X148219770Y-93534566D01*
X148540316Y-93534566D01*
X148540316Y-96061018D01*
X148197367Y-96061018D01*
X146870376Y-94075702D01*
X146870376Y-96061018D01*
X146554393Y-96061018D01*
X146549830Y-96049869D01*
X146549830Y-93534566D01*
X146892780Y-93534566D01*
X148219770Y-95518159D01*
D11*
G36*
X147818762Y-106585394D02*
G01*
X147908076Y-106588543D01*
X147994059Y-106593791D01*
X148076711Y-106601139D01*
X148156032Y-106610586D01*
X148232023Y-106622132D01*
X148304682Y-106635778D01*
X148374012Y-106651523D01*
X148440010Y-106669367D01*
X148502678Y-106689311D01*
X148562015Y-106711354D01*
X148618021Y-106735497D01*
X148670697Y-106761738D01*
X148720042Y-106790079D01*
X148766056Y-106820519D01*
X148808740Y-106853059D01*
X148848476Y-106887173D01*
X148885649Y-106922338D01*
X148920258Y-106958552D01*
X148952304Y-106995815D01*
X148981786Y-107034129D01*
X149008704Y-107073492D01*
X149033058Y-107113904D01*
X149054849Y-107155367D01*
X149074076Y-107197879D01*
X149090739Y-107241441D01*
X149104839Y-107286053D01*
X149116375Y-107331714D01*
X149125348Y-107378425D01*
X149131757Y-107426186D01*
X149135602Y-107474997D01*
X149136884Y-107524857D01*
X149136056Y-107567106D01*
X149133573Y-107608588D01*
X149129435Y-107649303D01*
X149123642Y-107689250D01*
X149116194Y-107728431D01*
X149107090Y-107766845D01*
X149096331Y-107804492D01*
X149083917Y-107841371D01*
X149069847Y-107877484D01*
X149054122Y-107912830D01*
X149036742Y-107947409D01*
X149017707Y-107981220D01*
X148997016Y-108014265D01*
X148974670Y-108046542D01*
X148950669Y-108078053D01*
X148925012Y-108108796D01*
X148897901Y-108138552D01*
X148869540Y-108167096D01*
X148839926Y-108194428D01*
X148809062Y-108220549D01*
X148776945Y-108245459D01*
X148743577Y-108269158D01*
X148708958Y-108291645D01*
X148673087Y-108312921D01*
X148635965Y-108332986D01*
X148597591Y-108351840D01*
X148557965Y-108369483D01*
X148517088Y-108385914D01*
X148474960Y-108401135D01*
X148431580Y-108415144D01*
X148386948Y-108427943D01*
X148341065Y-108439530D01*
X148308384Y-108447039D01*
X148272998Y-108454063D01*
X148234907Y-108460603D01*
X148194110Y-108466658D01*
X148104403Y-108477316D01*
X148003877Y-108486037D01*
X147892530Y-108492820D01*
X147770364Y-108497666D01*
X147637379Y-108500573D01*
X147493573Y-108501542D01*
X147493573Y-109473054D01*
X147494098Y-109540840D01*
X147495673Y-109602086D01*
X147498297Y-109656791D01*
X147501970Y-109704956D01*
X147506694Y-109746580D01*
X147512467Y-109781663D01*
X147515747Y-109796752D01*
X147519289Y-109810206D01*
X147523094Y-109822024D01*
X147527162Y-109832208D01*
X147531885Y-109841140D01*
X147537013Y-109849851D01*
X147542544Y-109858339D01*
X147548478Y-109866606D01*
X147554817Y-109874650D01*
X147561559Y-109882472D01*
X147568705Y-109890072D01*
X147576254Y-109897450D01*
X147584208Y-109904606D01*
X147592565Y-109911540D01*
X147601325Y-109918252D01*
X147610490Y-109924742D01*
X147620058Y-109931009D01*
X147630030Y-109937055D01*
X147640406Y-109942878D01*
X147651185Y-109948480D01*
X147663065Y-109953798D01*
X147676095Y-109958774D01*
X147690277Y-109963406D01*
X147705608Y-109967696D01*
X147722090Y-109971642D01*
X147739723Y-109975245D01*
X147758507Y-109978505D01*
X147778441Y-109981421D01*
X147799525Y-109983995D01*
X147821760Y-109986225D01*
X147845146Y-109988113D01*
X147869682Y-109989657D01*
X147895369Y-109990858D01*
X147922206Y-109991716D01*
X147950194Y-109992230D01*
X147979333Y-109992402D01*
X147979333Y-110088006D01*
X146199079Y-110088006D01*
X146199079Y-109992402D01*
X146257337Y-109991716D01*
X146310669Y-109989657D01*
X146359075Y-109986225D01*
X146402556Y-109981421D01*
X146441111Y-109975245D01*
X146458541Y-109971642D01*
X146474740Y-109967696D01*
X146489708Y-109963406D01*
X146503444Y-109958774D01*
X146515949Y-109953798D01*
X146527223Y-109948480D01*
X146537993Y-109942565D01*
X146548339Y-109936449D01*
X146558261Y-109930130D01*
X146567759Y-109923610D01*
X146576832Y-109916888D01*
X146585482Y-109909964D01*
X146593708Y-109902838D01*
X146601510Y-109895511D01*
X146608888Y-109887981D01*
X146615842Y-109880250D01*
X146622372Y-109872316D01*
X146628478Y-109864181D01*
X146634160Y-109855844D01*
X146639419Y-109847305D01*
X146644253Y-109838564D01*
X146648664Y-109829621D01*
X146653044Y-109819750D01*
X146657142Y-109808224D01*
X146660957Y-109795042D01*
X146664490Y-109780205D01*
X146667740Y-109763714D01*
X146670708Y-109745566D01*
X146673392Y-109725764D01*
X146675795Y-109704307D01*
X146677914Y-109681194D01*
X146679751Y-109656425D01*
X146681306Y-109630002D01*
X146682577Y-109601923D01*
X146684273Y-109540799D01*
X146684838Y-109473054D01*
X146684838Y-108300004D01*
X147493573Y-108300004D01*
X147533622Y-108302263D01*
X147568505Y-108303877D01*
X147598220Y-108304846D01*
X147622766Y-108305169D01*
X147661603Y-108304442D01*
X147699310Y-108302262D01*
X147735887Y-108298629D01*
X147771334Y-108293542D01*
X147805650Y-108287002D01*
X147838836Y-108279008D01*
X147870892Y-108269561D01*
X147901817Y-108258660D01*
X147931612Y-108246306D01*
X147960276Y-108232499D01*
X147987810Y-108217238D01*
X148014213Y-108200524D01*
X148039486Y-108182357D01*
X148063628Y-108162736D01*
X148086640Y-108141662D01*
X148108522Y-108119134D01*
X148129172Y-108094759D01*
X148148490Y-108068789D01*
X148166476Y-108041225D01*
X148183130Y-108012066D01*
X148198451Y-107981312D01*
X148212440Y-107948964D01*
X148225097Y-107915021D01*
X148236421Y-107879483D01*
X148246413Y-107842351D01*
X148255073Y-107803624D01*
X148262400Y-107763302D01*
X148268396Y-107721386D01*
X148273059Y-107677875D01*
X148276389Y-107632769D01*
X148278388Y-107586069D01*
X148279054Y-107537774D01*
X148278388Y-107489823D01*
X148276389Y-107443506D01*
X148273059Y-107398825D01*
X148268396Y-107355779D01*
X148262400Y-107314367D01*
X148255073Y-107274591D01*
X148246413Y-107236450D01*
X148236421Y-107199943D01*
X148225097Y-107165072D01*
X148212440Y-107131836D01*
X148198451Y-107100235D01*
X148183130Y-107070268D01*
X148166476Y-107041937D01*
X148148490Y-107015240D01*
X148129172Y-106990179D01*
X148108522Y-106966752D01*
X148086549Y-106944850D01*
X148063265Y-106924361D01*
X148038668Y-106905285D01*
X148012760Y-106887622D01*
X147985539Y-106871373D01*
X147957006Y-106856536D01*
X147927161Y-106843112D01*
X147896003Y-106831102D01*
X147863534Y-106820504D01*
X147829752Y-106811320D01*
X147794659Y-106803548D01*
X147758253Y-106797190D01*
X147720536Y-106792244D01*
X147681506Y-106788712D01*
X147641165Y-106786592D01*
X147599511Y-106785886D01*
X147493573Y-106785882D01*
X147493573Y-108300004D01*
X146684838Y-108300004D01*
X146684838Y-107199296D01*
X146684273Y-107131550D01*
X146682577Y-107070426D01*
X146679751Y-107015923D01*
X146675795Y-106968041D01*
X146670708Y-106926781D01*
X146664490Y-106892141D01*
X146660957Y-106877304D01*
X146657142Y-106864123D01*
X146653044Y-106852596D01*
X146648664Y-106842725D01*
X146644253Y-106833480D01*
X146639419Y-106824477D01*
X146634160Y-106815716D01*
X146628478Y-106807197D01*
X146622372Y-106798921D01*
X146615842Y-106790887D01*
X146611375Y-106785882D01*
X146608888Y-106783095D01*
X146601510Y-106775546D01*
X146593708Y-106768238D01*
X146585482Y-106761173D01*
X146576832Y-106754350D01*
X146567759Y-106747770D01*
X146558261Y-106741431D01*
X146548339Y-106735335D01*
X146537993Y-106729482D01*
X146527223Y-106723870D01*
X146515646Y-106718551D01*
X146502878Y-106713576D01*
X146488920Y-106708943D01*
X146473770Y-106704654D01*
X146457430Y-106700707D01*
X146439898Y-106697104D01*
X146421176Y-106693844D01*
X146401262Y-106690926D01*
X146380158Y-106688353D01*
X146357863Y-106686122D01*
X146334376Y-106684234D01*
X146309699Y-106682690D01*
X146283830Y-106681488D01*
X146256771Y-106680630D01*
X146228520Y-106680116D01*
X146199079Y-106679944D01*
X146199079Y-106584344D01*
X147726117Y-106584344D01*
X147818762Y-106585394D01*
G37*
X147818762Y-106585394D02*
X147908076Y-106588543D01*
X147994059Y-106593791D01*
X148076711Y-106601139D01*
X148156032Y-106610586D01*
X148232023Y-106622132D01*
X148304682Y-106635778D01*
X148374012Y-106651523D01*
X148440010Y-106669367D01*
X148502678Y-106689311D01*
X148562015Y-106711354D01*
X148618021Y-106735497D01*
X148670697Y-106761738D01*
X148720042Y-106790079D01*
X148766056Y-106820519D01*
X148808740Y-106853059D01*
X148848476Y-106887173D01*
X148885649Y-106922338D01*
X148920258Y-106958552D01*
X148952304Y-106995815D01*
X148981786Y-107034129D01*
X149008704Y-107073492D01*
X149033058Y-107113904D01*
X149054849Y-107155367D01*
X149074076Y-107197879D01*
X149090739Y-107241441D01*
X149104839Y-107286053D01*
X149116375Y-107331714D01*
X149125348Y-107378425D01*
X149131757Y-107426186D01*
X149135602Y-107474997D01*
X149136884Y-107524857D01*
X149136056Y-107567106D01*
X149133573Y-107608588D01*
X149129435Y-107649303D01*
X149123642Y-107689250D01*
X149116194Y-107728431D01*
X149107090Y-107766845D01*
X149096331Y-107804492D01*
X149083917Y-107841371D01*
X149069847Y-107877484D01*
X149054122Y-107912830D01*
X149036742Y-107947409D01*
X149017707Y-107981220D01*
X148997016Y-108014265D01*
X148974670Y-108046542D01*
X148950669Y-108078053D01*
X148925012Y-108108796D01*
X148897901Y-108138552D01*
X148869540Y-108167096D01*
X148839926Y-108194428D01*
X148809062Y-108220549D01*
X148776945Y-108245459D01*
X148743577Y-108269158D01*
X148708958Y-108291645D01*
X148673087Y-108312921D01*
X148635965Y-108332986D01*
X148597591Y-108351840D01*
X148557965Y-108369483D01*
X148517088Y-108385914D01*
X148474960Y-108401135D01*
X148431580Y-108415144D01*
X148386948Y-108427943D01*
X148341065Y-108439530D01*
X148308384Y-108447039D01*
X148272998Y-108454063D01*
X148234907Y-108460603D01*
X148194110Y-108466658D01*
X148104403Y-108477316D01*
X148003877Y-108486037D01*
X147892530Y-108492820D01*
X147770364Y-108497666D01*
X147637379Y-108500573D01*
X147493573Y-108501542D01*
X147493573Y-109473054D01*
X147494098Y-109540840D01*
X147495673Y-109602086D01*
X147498297Y-109656791D01*
X147501970Y-109704956D01*
X147506694Y-109746580D01*
X147512467Y-109781663D01*
X147515747Y-109796752D01*
X147519289Y-109810206D01*
X147523094Y-109822024D01*
X147527162Y-109832208D01*
X147531885Y-109841140D01*
X147537013Y-109849851D01*
X147542544Y-109858339D01*
X147548478Y-109866606D01*
X147554817Y-109874650D01*
X147561559Y-109882472D01*
X147568705Y-109890072D01*
X147576254Y-109897450D01*
X147584208Y-109904606D01*
X147592565Y-109911540D01*
X147601325Y-109918252D01*
X147610490Y-109924742D01*
X147620058Y-109931009D01*
X147630030Y-109937055D01*
X147640406Y-109942878D01*
X147651185Y-109948480D01*
X147663065Y-109953798D01*
X147676095Y-109958774D01*
X147690277Y-109963406D01*
X147705608Y-109967696D01*
X147722090Y-109971642D01*
X147739723Y-109975245D01*
X147758507Y-109978505D01*
X147778441Y-109981421D01*
X147799525Y-109983995D01*
X147821760Y-109986225D01*
X147845146Y-109988113D01*
X147869682Y-109989657D01*
X147895369Y-109990858D01*
X147922206Y-109991716D01*
X147950194Y-109992230D01*
X147979333Y-109992402D01*
X147979333Y-110088006D01*
X146199079Y-110088006D01*
X146199079Y-109992402D01*
X146257337Y-109991716D01*
X146310669Y-109989657D01*
X146359075Y-109986225D01*
X146402556Y-109981421D01*
X146441111Y-109975245D01*
X146458541Y-109971642D01*
X146474740Y-109967696D01*
X146489708Y-109963406D01*
X146503444Y-109958774D01*
X146515949Y-109953798D01*
X146527223Y-109948480D01*
X146537993Y-109942565D01*
X146548339Y-109936449D01*
X146558261Y-109930130D01*
X146567759Y-109923610D01*
X146576832Y-109916888D01*
X146585482Y-109909964D01*
X146593708Y-109902838D01*
X146601510Y-109895511D01*
X146608888Y-109887981D01*
X146615842Y-109880250D01*
X146622372Y-109872316D01*
X146628478Y-109864181D01*
X146634160Y-109855844D01*
X146639419Y-109847305D01*
X146644253Y-109838564D01*
X146648664Y-109829621D01*
X146653044Y-109819750D01*
X146657142Y-109808224D01*
X146660957Y-109795042D01*
X146664490Y-109780205D01*
X146667740Y-109763714D01*
X146670708Y-109745566D01*
X146673392Y-109725764D01*
X146675795Y-109704307D01*
X146677914Y-109681194D01*
X146679751Y-109656425D01*
X146681306Y-109630002D01*
X146682577Y-109601923D01*
X146684273Y-109540799D01*
X146684838Y-109473054D01*
X146684838Y-108300004D01*
X147493573Y-108300004D01*
X147533622Y-108302263D01*
X147568505Y-108303877D01*
X147598220Y-108304846D01*
X147622766Y-108305169D01*
X147661603Y-108304442D01*
X147699310Y-108302262D01*
X147735887Y-108298629D01*
X147771334Y-108293542D01*
X147805650Y-108287002D01*
X147838836Y-108279008D01*
X147870892Y-108269561D01*
X147901817Y-108258660D01*
X147931612Y-108246306D01*
X147960276Y-108232499D01*
X147987810Y-108217238D01*
X148014213Y-108200524D01*
X148039486Y-108182357D01*
X148063628Y-108162736D01*
X148086640Y-108141662D01*
X148108522Y-108119134D01*
X148129172Y-108094759D01*
X148148490Y-108068789D01*
X148166476Y-108041225D01*
X148183130Y-108012066D01*
X148198451Y-107981312D01*
X148212440Y-107948964D01*
X148225097Y-107915021D01*
X148236421Y-107879483D01*
X148246413Y-107842351D01*
X148255073Y-107803624D01*
X148262400Y-107763302D01*
X148268396Y-107721386D01*
X148273059Y-107677875D01*
X148276389Y-107632769D01*
X148278388Y-107586069D01*
X148279054Y-107537774D01*
X148278388Y-107489823D01*
X148276389Y-107443506D01*
X148273059Y-107398825D01*
X148268396Y-107355779D01*
X148262400Y-107314367D01*
X148255073Y-107274591D01*
X148246413Y-107236450D01*
X148236421Y-107199943D01*
X148225097Y-107165072D01*
X148212440Y-107131836D01*
X148198451Y-107100235D01*
X148183130Y-107070268D01*
X148166476Y-107041937D01*
X148148490Y-107015240D01*
X148129172Y-106990179D01*
X148108522Y-106966752D01*
X148086549Y-106944850D01*
X148063265Y-106924361D01*
X148038668Y-106905285D01*
X148012760Y-106887622D01*
X147985539Y-106871373D01*
X147957006Y-106856536D01*
X147927161Y-106843112D01*
X147896003Y-106831102D01*
X147863534Y-106820504D01*
X147829752Y-106811320D01*
X147794659Y-106803548D01*
X147758253Y-106797190D01*
X147720536Y-106792244D01*
X147681506Y-106788712D01*
X147641165Y-106786592D01*
X147599511Y-106785886D01*
X147493573Y-106785882D01*
X147493573Y-108300004D01*
X146684838Y-108300004D01*
X146684838Y-107199296D01*
X146684273Y-107131550D01*
X146682577Y-107070426D01*
X146679751Y-107015923D01*
X146675795Y-106968041D01*
X146670708Y-106926781D01*
X146664490Y-106892141D01*
X146660957Y-106877304D01*
X146657142Y-106864123D01*
X146653044Y-106852596D01*
X146648664Y-106842725D01*
X146644253Y-106833480D01*
X146639419Y-106824477D01*
X146634160Y-106815716D01*
X146628478Y-106807197D01*
X146622372Y-106798921D01*
X146615842Y-106790887D01*
X146611375Y-106785882D01*
X146608888Y-106783095D01*
X146601510Y-106775546D01*
X146593708Y-106768238D01*
X146585482Y-106761173D01*
X146576832Y-106754350D01*
X146567759Y-106747770D01*
X146558261Y-106741431D01*
X146548339Y-106735335D01*
X146537993Y-106729482D01*
X146527223Y-106723870D01*
X146515646Y-106718551D01*
X146502878Y-106713576D01*
X146488920Y-106708943D01*
X146473770Y-106704654D01*
X146457430Y-106700707D01*
X146439898Y-106697104D01*
X146421176Y-106693844D01*
X146401262Y-106690926D01*
X146380158Y-106688353D01*
X146357863Y-106686122D01*
X146334376Y-106684234D01*
X146309699Y-106682690D01*
X146283830Y-106681488D01*
X146256771Y-106680630D01*
X146228520Y-106680116D01*
X146199079Y-106679944D01*
X146199079Y-106584344D01*
X147726117Y-106584344D01*
X147818762Y-106585394D01*
D10*
X128596808Y-83500965D02*
X128641599Y-83552705D01*
X127964820Y-83098304D02*
X128031205Y-83120678D01*
X126026852Y-83277449D02*
X126084747Y-83240402D01*
X128500099Y-83404256D02*
X128549611Y-83451452D01*
X127878407Y-88960235D02*
X127797327Y-88992091D01*
X126825895Y-83034349D02*
X126825895Y-83034349D01*
X125702557Y-88314791D02*
X125656248Y-88242422D01*
X125454659Y-87762860D02*
X125434801Y-87676406D01*
X128880386Y-83969857D02*
X128902759Y-84036243D01*
X126144517Y-83206113D02*
X126206073Y-83174670D01*
X126330974Y-88885297D02*
X126256262Y-88842436D01*
X125538449Y-88011696D02*
X125506592Y-87930616D01*
X128096070Y-83146162D02*
X128159324Y-83174670D01*
X128791310Y-88090764D02*
X128752007Y-88167709D01*
X127182697Y-81963940D02*
X127182697Y-85175167D01*
X125539004Y-83841739D02*
X125570446Y-83780183D01*
X128109132Y-88842436D02*
X128034420Y-88885297D01*
X125981951Y-88637618D02*
X125920061Y-88578623D01*
X128930593Y-87676405D02*
X128910735Y-87762860D01*
X125398682Y-84461561D02*
X125400532Y-84387902D01*
X126468396Y-83079130D02*
X126537560Y-83063245D01*
X125865298Y-83404256D02*
X125917039Y-83359464D01*
X128957535Y-87498894D02*
X128946229Y-87588380D01*
X128181501Y-88796127D02*
X128109132Y-88842436D01*
X128251416Y-88746481D02*
X128181501Y-88796127D01*
X125570446Y-83780183D02*
X125604735Y-83720413D01*
X126113978Y-88746481D02*
X126046627Y-88693608D01*
X125443463Y-84104062D02*
X125462637Y-84036243D01*
X125574083Y-88090764D02*
X125538449Y-88011696D01*
X128937819Y-84173226D02*
X128950328Y-84243646D01*
X128902759Y-84036243D02*
X128921933Y-84104062D01*
X125917039Y-83359464D02*
X125970920Y-83317166D01*
X128560318Y-88452056D02*
X128504329Y-88516732D01*
X125723798Y-83552705D02*
X125768589Y-83500965D01*
M02*
