%TF.GenerationSoftware,KiCad,Pcbnew,(7.0.0)*%
%TF.CreationDate,2023-02-18T15:18:28+00:00*%
%TF.ProjectId,frontcase,66726f6e-7463-4617-9365-2e6b69636164,rev?*%
%TF.SameCoordinates,Original*%
%TF.FileFunction,Legend,Top*%
%TF.FilePolarity,Positive*%
%FSLAX46Y46*%
G04 Gerber Fmt 4.6, Leading zero omitted, Abs format (unit mm)*
G04 Created by KiCad (PCBNEW (7.0.0)) date 2023-02-18 15:18:28*
%MOMM*%
%LPD*%
G01*
G04 APERTURE LIST*
%ADD10C,0.600000*%
%ADD11C,0.073000*%
%ADD12C,0.070000*%
G04 APERTURE END LIST*
D10*
X125400995Y-87408060D02*
X125398682Y-87315986D01*
X125415068Y-84243646D02*
X125427578Y-84173226D01*
X128683897Y-83606586D02*
X128723614Y-83662518D01*
X128394477Y-83317166D02*
X128448358Y-83359464D01*
X127539501Y-83034349D02*
X127539501Y-83034349D01*
X128966714Y-84461561D02*
X128966714Y-84461561D01*
X128220881Y-83206113D02*
X128280650Y-83240402D01*
X125805076Y-88452056D02*
X125752203Y-88384706D01*
X128280650Y-83240402D02*
X128338545Y-83277449D01*
D11*
G36*
X148019613Y-96449505D02*
G01*
X148055338Y-96450764D01*
X148089731Y-96452864D01*
X148122792Y-96455803D01*
X148154521Y-96459582D01*
X148184917Y-96464200D01*
X148213981Y-96469658D01*
X148241712Y-96475956D01*
X148268112Y-96483094D01*
X148293179Y-96491072D01*
X148316914Y-96499889D01*
X148339316Y-96509546D01*
X148360386Y-96520042D01*
X148380124Y-96531379D01*
X148398530Y-96543555D01*
X148415604Y-96556571D01*
X148431498Y-96570217D01*
X148446367Y-96584282D01*
X148460211Y-96598768D01*
X148473029Y-96613673D01*
X148484822Y-96628999D01*
X148495589Y-96644744D01*
X148505331Y-96660909D01*
X148514047Y-96677494D01*
X148521738Y-96694499D01*
X148528403Y-96711924D01*
X148534043Y-96729768D01*
X148538658Y-96748033D01*
X148542247Y-96766717D01*
X148544810Y-96785822D01*
X148546349Y-96805346D01*
X148546861Y-96825290D01*
X148546530Y-96842190D01*
X148545537Y-96858782D01*
X148543882Y-96875068D01*
X148541565Y-96891047D01*
X148538585Y-96906720D01*
X148534944Y-96922085D01*
X148530640Y-96937144D01*
X148525674Y-96951896D01*
X148520047Y-96966341D01*
X148513757Y-96980479D01*
X148506805Y-96994311D01*
X148499191Y-97007835D01*
X148490914Y-97021053D01*
X148481976Y-97033964D01*
X148472375Y-97046568D01*
X148462112Y-97058866D01*
X148451268Y-97070768D01*
X148439924Y-97082185D01*
X148428078Y-97093118D01*
X148415732Y-97103567D01*
X148402886Y-97113531D01*
X148389539Y-97123010D01*
X148375691Y-97132005D01*
X148361343Y-97140516D01*
X148346494Y-97148542D01*
X148331144Y-97156083D01*
X148315294Y-97163140D01*
X148298943Y-97169713D01*
X148282092Y-97175801D01*
X148264740Y-97181405D01*
X148246887Y-97186524D01*
X148228534Y-97191159D01*
X148215461Y-97194163D01*
X148201307Y-97196972D01*
X148186070Y-97199588D01*
X148169752Y-97202011D01*
X148133869Y-97206274D01*
X148093658Y-97209762D01*
X148049120Y-97212475D01*
X148000254Y-97214413D01*
X147947059Y-97215576D01*
X147889537Y-97215964D01*
X147889537Y-97604569D01*
X147889747Y-97631683D01*
X147890377Y-97656182D01*
X147891426Y-97678064D01*
X147892896Y-97697330D01*
X147894785Y-97713979D01*
X147897094Y-97728013D01*
X147898407Y-97734048D01*
X147899824Y-97739430D01*
X147901346Y-97744157D01*
X147902972Y-97748230D01*
X147904862Y-97751803D01*
X147906913Y-97755288D01*
X147909125Y-97758683D01*
X147911499Y-97761989D01*
X147914035Y-97765207D01*
X147916731Y-97768336D01*
X147919590Y-97771376D01*
X147922610Y-97774327D01*
X147925791Y-97777190D01*
X147929134Y-97779963D01*
X147932638Y-97782648D01*
X147936304Y-97785244D01*
X147940131Y-97787751D01*
X147944120Y-97790169D01*
X147948270Y-97792498D01*
X147952582Y-97794739D01*
X147957334Y-97796867D01*
X147962546Y-97798857D01*
X147968218Y-97800710D01*
X147974351Y-97802425D01*
X147980944Y-97804004D01*
X147987997Y-97805445D01*
X147995510Y-97806749D01*
X148003484Y-97807916D01*
X148011918Y-97808945D01*
X148020812Y-97809837D01*
X148030166Y-97810592D01*
X148039981Y-97811210D01*
X148050255Y-97811690D01*
X148060990Y-97812033D01*
X148072186Y-97812239D01*
X148083841Y-97812308D01*
X148083841Y-97850550D01*
X147371739Y-97850550D01*
X147371739Y-97812308D01*
X147395042Y-97812033D01*
X147416375Y-97811210D01*
X147435738Y-97809837D01*
X147453130Y-97807916D01*
X147468552Y-97805445D01*
X147475524Y-97804004D01*
X147482004Y-97802425D01*
X147487991Y-97800710D01*
X147493485Y-97798857D01*
X147498487Y-97796867D01*
X147502997Y-97794739D01*
X147507305Y-97792373D01*
X147511443Y-97789927D01*
X147515412Y-97787399D01*
X147519211Y-97784791D01*
X147522841Y-97782102D01*
X147526301Y-97779333D01*
X147529591Y-97776483D01*
X147532712Y-97773551D01*
X147535663Y-97770540D01*
X147538445Y-97767447D01*
X147541057Y-97764274D01*
X147543499Y-97761020D01*
X147545772Y-97757685D01*
X147547875Y-97754269D01*
X147549809Y-97750773D01*
X147551573Y-97747196D01*
X147553325Y-97743247D01*
X147554965Y-97738637D01*
X147556491Y-97733364D01*
X147557904Y-97727429D01*
X147559204Y-97720833D01*
X147560391Y-97713574D01*
X147561465Y-97705653D01*
X147562426Y-97697070D01*
X147563274Y-97687825D01*
X147564008Y-97677917D01*
X147564630Y-97667348D01*
X147565139Y-97656116D01*
X147565817Y-97631667D01*
X147566043Y-97604569D01*
X147566043Y-96695066D01*
X147565817Y-96667967D01*
X147565139Y-96643518D01*
X147564008Y-96621716D01*
X147562426Y-96602564D01*
X147560391Y-96586059D01*
X147557904Y-96572204D01*
X147556491Y-96566269D01*
X147554965Y-96560996D01*
X147553325Y-96556386D01*
X147551573Y-96552437D01*
X147549809Y-96548739D01*
X147547875Y-96545138D01*
X147545772Y-96541634D01*
X147543499Y-96538226D01*
X147541057Y-96534916D01*
X147538445Y-96531702D01*
X147536658Y-96529700D01*
X147889537Y-96529700D01*
X147889537Y-97135349D01*
X147905557Y-97136252D01*
X147919510Y-97136898D01*
X147931396Y-97137286D01*
X147941214Y-97137415D01*
X147956749Y-97137124D01*
X147971832Y-97136252D01*
X147986463Y-97134799D01*
X148000641Y-97132764D01*
X148014368Y-97130148D01*
X148027642Y-97126950D01*
X148040465Y-97123171D01*
X148052835Y-97118811D01*
X148064752Y-97113870D01*
X148076218Y-97108347D01*
X148087232Y-97102243D01*
X148097793Y-97095557D01*
X148107902Y-97088290D01*
X148117559Y-97080442D01*
X148126764Y-97072012D01*
X148135516Y-97063001D01*
X148143777Y-97053251D01*
X148151504Y-97042863D01*
X148158698Y-97031837D01*
X148165360Y-97020174D01*
X148171488Y-97007872D01*
X148177084Y-96994933D01*
X148182147Y-96981356D01*
X148186676Y-96967140D01*
X148190673Y-96952288D01*
X148194137Y-96936797D01*
X148197068Y-96920668D01*
X148199466Y-96903902D01*
X148201331Y-96886497D01*
X148202663Y-96868455D01*
X148203463Y-96849775D01*
X148203729Y-96830457D01*
X148203463Y-96811276D01*
X148202663Y-96792750D01*
X148201331Y-96774877D01*
X148199466Y-96757659D01*
X148197068Y-96741094D01*
X148194137Y-96725184D01*
X148190673Y-96709927D01*
X148186676Y-96695325D01*
X148182147Y-96681376D01*
X148177084Y-96668082D01*
X148171488Y-96655441D01*
X148165360Y-96643454D01*
X148158698Y-96632122D01*
X148151504Y-96621443D01*
X148143777Y-96611419D01*
X148135516Y-96602048D01*
X148126728Y-96593287D01*
X148117414Y-96585092D01*
X148107575Y-96577461D01*
X148097212Y-96570396D01*
X148086323Y-96563896D01*
X148074910Y-96557962D01*
X148062972Y-96552592D01*
X148050509Y-96547788D01*
X148037521Y-96543549D01*
X148024009Y-96539875D01*
X148009971Y-96536766D01*
X147995409Y-96534223D01*
X147980322Y-96532245D01*
X147964710Y-96530832D01*
X147948574Y-96529984D01*
X147931912Y-96529701D01*
X147889537Y-96529700D01*
X147536658Y-96529700D01*
X147535663Y-96528585D01*
X147532712Y-96525565D01*
X147529591Y-96522642D01*
X147526301Y-96519816D01*
X147522841Y-96517087D01*
X147519211Y-96514455D01*
X147515412Y-96511920D01*
X147511443Y-96509481D01*
X147507305Y-96507140D01*
X147502997Y-96504895D01*
X147498366Y-96502768D01*
X147493259Y-96500777D01*
X147487676Y-96498924D01*
X147481616Y-96497209D01*
X147475080Y-96495630D01*
X147468067Y-96494189D01*
X147460578Y-96492885D01*
X147452613Y-96491718D01*
X147444171Y-96490688D01*
X147435253Y-96489796D01*
X147425858Y-96489041D01*
X147415987Y-96488423D01*
X147405640Y-96487943D01*
X147394816Y-96487599D01*
X147383516Y-96487393D01*
X147371739Y-96487325D01*
X147371739Y-96449085D01*
X147982555Y-96449085D01*
X148019613Y-96449505D01*
G37*
X148019613Y-96449505D02*
X148055338Y-96450764D01*
X148089731Y-96452864D01*
X148122792Y-96455803D01*
X148154521Y-96459582D01*
X148184917Y-96464200D01*
X148213981Y-96469658D01*
X148241712Y-96475956D01*
X148268112Y-96483094D01*
X148293179Y-96491072D01*
X148316914Y-96499889D01*
X148339316Y-96509546D01*
X148360386Y-96520042D01*
X148380124Y-96531379D01*
X148398530Y-96543555D01*
X148415604Y-96556571D01*
X148431498Y-96570217D01*
X148446367Y-96584282D01*
X148460211Y-96598768D01*
X148473029Y-96613673D01*
X148484822Y-96628999D01*
X148495589Y-96644744D01*
X148505331Y-96660909D01*
X148514047Y-96677494D01*
X148521738Y-96694499D01*
X148528403Y-96711924D01*
X148534043Y-96729768D01*
X148538658Y-96748033D01*
X148542247Y-96766717D01*
X148544810Y-96785822D01*
X148546349Y-96805346D01*
X148546861Y-96825290D01*
X148546530Y-96842190D01*
X148545537Y-96858782D01*
X148543882Y-96875068D01*
X148541565Y-96891047D01*
X148538585Y-96906720D01*
X148534944Y-96922085D01*
X148530640Y-96937144D01*
X148525674Y-96951896D01*
X148520047Y-96966341D01*
X148513757Y-96980479D01*
X148506805Y-96994311D01*
X148499191Y-97007835D01*
X148490914Y-97021053D01*
X148481976Y-97033964D01*
X148472375Y-97046568D01*
X148462112Y-97058866D01*
X148451268Y-97070768D01*
X148439924Y-97082185D01*
X148428078Y-97093118D01*
X148415732Y-97103567D01*
X148402886Y-97113531D01*
X148389539Y-97123010D01*
X148375691Y-97132005D01*
X148361343Y-97140516D01*
X148346494Y-97148542D01*
X148331144Y-97156083D01*
X148315294Y-97163140D01*
X148298943Y-97169713D01*
X148282092Y-97175801D01*
X148264740Y-97181405D01*
X148246887Y-97186524D01*
X148228534Y-97191159D01*
X148215461Y-97194163D01*
X148201307Y-97196972D01*
X148186070Y-97199588D01*
X148169752Y-97202011D01*
X148133869Y-97206274D01*
X148093658Y-97209762D01*
X148049120Y-97212475D01*
X148000254Y-97214413D01*
X147947059Y-97215576D01*
X147889537Y-97215964D01*
X147889537Y-97604569D01*
X147889747Y-97631683D01*
X147890377Y-97656182D01*
X147891426Y-97678064D01*
X147892896Y-97697330D01*
X147894785Y-97713979D01*
X147897094Y-97728013D01*
X147898407Y-97734048D01*
X147899824Y-97739430D01*
X147901346Y-97744157D01*
X147902972Y-97748230D01*
X147904862Y-97751803D01*
X147906913Y-97755288D01*
X147909125Y-97758683D01*
X147911499Y-97761989D01*
X147914035Y-97765207D01*
X147916731Y-97768336D01*
X147919590Y-97771376D01*
X147922610Y-97774327D01*
X147925791Y-97777190D01*
X147929134Y-97779963D01*
X147932638Y-97782648D01*
X147936304Y-97785244D01*
X147940131Y-97787751D01*
X147944120Y-97790169D01*
X147948270Y-97792498D01*
X147952582Y-97794739D01*
X147957334Y-97796867D01*
X147962546Y-97798857D01*
X147968218Y-97800710D01*
X147974351Y-97802425D01*
X147980944Y-97804004D01*
X147987997Y-97805445D01*
X147995510Y-97806749D01*
X148003484Y-97807916D01*
X148011918Y-97808945D01*
X148020812Y-97809837D01*
X148030166Y-97810592D01*
X148039981Y-97811210D01*
X148050255Y-97811690D01*
X148060990Y-97812033D01*
X148072186Y-97812239D01*
X148083841Y-97812308D01*
X148083841Y-97850550D01*
X147371739Y-97850550D01*
X147371739Y-97812308D01*
X147395042Y-97812033D01*
X147416375Y-97811210D01*
X147435738Y-97809837D01*
X147453130Y-97807916D01*
X147468552Y-97805445D01*
X147475524Y-97804004D01*
X147482004Y-97802425D01*
X147487991Y-97800710D01*
X147493485Y-97798857D01*
X147498487Y-97796867D01*
X147502997Y-97794739D01*
X147507305Y-97792373D01*
X147511443Y-97789927D01*
X147515412Y-97787399D01*
X147519211Y-97784791D01*
X147522841Y-97782102D01*
X147526301Y-97779333D01*
X147529591Y-97776483D01*
X147532712Y-97773551D01*
X147535663Y-97770540D01*
X147538445Y-97767447D01*
X147541057Y-97764274D01*
X147543499Y-97761020D01*
X147545772Y-97757685D01*
X147547875Y-97754269D01*
X147549809Y-97750773D01*
X147551573Y-97747196D01*
X147553325Y-97743247D01*
X147554965Y-97738637D01*
X147556491Y-97733364D01*
X147557904Y-97727429D01*
X147559204Y-97720833D01*
X147560391Y-97713574D01*
X147561465Y-97705653D01*
X147562426Y-97697070D01*
X147563274Y-97687825D01*
X147564008Y-97677917D01*
X147564630Y-97667348D01*
X147565139Y-97656116D01*
X147565817Y-97631667D01*
X147566043Y-97604569D01*
X147566043Y-96695066D01*
X147565817Y-96667967D01*
X147565139Y-96643518D01*
X147564008Y-96621716D01*
X147562426Y-96602564D01*
X147560391Y-96586059D01*
X147557904Y-96572204D01*
X147556491Y-96566269D01*
X147554965Y-96560996D01*
X147553325Y-96556386D01*
X147551573Y-96552437D01*
X147549809Y-96548739D01*
X147547875Y-96545138D01*
X147545772Y-96541634D01*
X147543499Y-96538226D01*
X147541057Y-96534916D01*
X147538445Y-96531702D01*
X147536658Y-96529700D01*
X147889537Y-96529700D01*
X147889537Y-97135349D01*
X147905557Y-97136252D01*
X147919510Y-97136898D01*
X147931396Y-97137286D01*
X147941214Y-97137415D01*
X147956749Y-97137124D01*
X147971832Y-97136252D01*
X147986463Y-97134799D01*
X148000641Y-97132764D01*
X148014368Y-97130148D01*
X148027642Y-97126950D01*
X148040465Y-97123171D01*
X148052835Y-97118811D01*
X148064752Y-97113870D01*
X148076218Y-97108347D01*
X148087232Y-97102243D01*
X148097793Y-97095557D01*
X148107902Y-97088290D01*
X148117559Y-97080442D01*
X148126764Y-97072012D01*
X148135516Y-97063001D01*
X148143777Y-97053251D01*
X148151504Y-97042863D01*
X148158698Y-97031837D01*
X148165360Y-97020174D01*
X148171488Y-97007872D01*
X148177084Y-96994933D01*
X148182147Y-96981356D01*
X148186676Y-96967140D01*
X148190673Y-96952288D01*
X148194137Y-96936797D01*
X148197068Y-96920668D01*
X148199466Y-96903902D01*
X148201331Y-96886497D01*
X148202663Y-96868455D01*
X148203463Y-96849775D01*
X148203729Y-96830457D01*
X148203463Y-96811276D01*
X148202663Y-96792750D01*
X148201331Y-96774877D01*
X148199466Y-96757659D01*
X148197068Y-96741094D01*
X148194137Y-96725184D01*
X148190673Y-96709927D01*
X148186676Y-96695325D01*
X148182147Y-96681376D01*
X148177084Y-96668082D01*
X148171488Y-96655441D01*
X148165360Y-96643454D01*
X148158698Y-96632122D01*
X148151504Y-96621443D01*
X148143777Y-96611419D01*
X148135516Y-96602048D01*
X148126728Y-96593287D01*
X148117414Y-96585092D01*
X148107575Y-96577461D01*
X148097212Y-96570396D01*
X148086323Y-96563896D01*
X148074910Y-96557962D01*
X148062972Y-96552592D01*
X148050509Y-96547788D01*
X148037521Y-96543549D01*
X148024009Y-96539875D01*
X148009971Y-96536766D01*
X147995409Y-96534223D01*
X147980322Y-96532245D01*
X147964710Y-96530832D01*
X147948574Y-96529984D01*
X147931912Y-96529701D01*
X147889537Y-96529700D01*
X147536658Y-96529700D01*
X147535663Y-96528585D01*
X147532712Y-96525565D01*
X147529591Y-96522642D01*
X147526301Y-96519816D01*
X147522841Y-96517087D01*
X147519211Y-96514455D01*
X147515412Y-96511920D01*
X147511443Y-96509481D01*
X147507305Y-96507140D01*
X147502997Y-96504895D01*
X147498366Y-96502768D01*
X147493259Y-96500777D01*
X147487676Y-96498924D01*
X147481616Y-96497209D01*
X147475080Y-96495630D01*
X147468067Y-96494189D01*
X147460578Y-96492885D01*
X147452613Y-96491718D01*
X147444171Y-96490688D01*
X147435253Y-96489796D01*
X147425858Y-96489041D01*
X147415987Y-96488423D01*
X147405640Y-96487943D01*
X147394816Y-96487599D01*
X147383516Y-96487393D01*
X147371739Y-96487325D01*
X147371739Y-96449085D01*
X147982555Y-96449085D01*
X148019613Y-96449505D01*
D10*
X125970920Y-83317166D02*
X126026852Y-83277449D01*
X126407919Y-88924600D02*
X126330974Y-88885297D01*
X128034420Y-88885297D02*
X127957475Y-88924600D01*
X127539501Y-83034349D02*
X127613161Y-83036199D01*
X128641599Y-83552705D02*
X128683897Y-83606586D01*
X128760661Y-83720413D02*
X128794950Y-83780183D01*
X126822277Y-89063882D02*
X126735823Y-89044025D01*
X128383443Y-88637618D02*
X128318767Y-88693608D01*
X125427578Y-84173226D02*
X125443463Y-84104062D01*
X127897001Y-83079130D02*
X127964820Y-83098304D01*
X127757417Y-83050736D02*
X127827837Y-83063245D01*
X126046627Y-88693608D02*
X125981951Y-88637618D01*
X126999788Y-89090825D02*
X126910302Y-89079519D01*
X128966712Y-87315985D02*
X128966712Y-87315985D01*
X128723614Y-83662518D02*
X128760661Y-83720413D01*
X126486987Y-88960235D02*
X126407919Y-88924600D01*
X126910302Y-89079519D02*
X126822277Y-89063882D01*
X128445333Y-88578623D02*
X128383443Y-88637618D01*
X128448358Y-83359464D02*
X128500099Y-83404256D01*
X128858801Y-87930615D02*
X128826945Y-88011696D01*
X126825895Y-83034349D02*
X127539501Y-83034349D01*
X126568067Y-88992091D02*
X126486987Y-88960235D01*
D12*
G36*
X145299252Y-81440713D02*
G01*
X145468588Y-81448004D01*
X145634842Y-81460856D01*
X145795884Y-81479213D01*
X145949582Y-81503020D01*
X146093804Y-81532219D01*
X146226419Y-81566755D01*
X146345296Y-81606572D01*
X146448303Y-81651612D01*
X146472966Y-81663155D01*
X146503545Y-81675991D01*
X146538830Y-81689693D01*
X146577610Y-81703831D01*
X146618675Y-81717977D01*
X146660813Y-81731701D01*
X146702815Y-81744575D01*
X146743469Y-81756170D01*
X146826186Y-81779216D01*
X146901080Y-81801253D01*
X146969096Y-81822890D01*
X147031180Y-81844737D01*
X147088277Y-81867402D01*
X147141335Y-81891496D01*
X147191300Y-81917626D01*
X147239116Y-81946402D01*
X147285730Y-81978434D01*
X147332088Y-82014330D01*
X147379137Y-82054700D01*
X147427821Y-82100152D01*
X147479088Y-82151297D01*
X147533883Y-82208743D01*
X147657840Y-82344975D01*
X147739830Y-82441251D01*
X147818502Y-82542491D01*
X147893585Y-82648062D01*
X147964808Y-82757329D01*
X148031901Y-82869660D01*
X148094593Y-82984422D01*
X148152612Y-83100980D01*
X148205688Y-83218703D01*
X148253550Y-83336955D01*
X148295927Y-83455105D01*
X148332547Y-83572519D01*
X148363141Y-83688563D01*
X148387438Y-83802604D01*
X148405165Y-83914009D01*
X148416054Y-84022145D01*
X148419831Y-84126378D01*
X148415874Y-84265768D01*
X148404719Y-84440833D01*
X148387911Y-84637560D01*
X148366998Y-84841932D01*
X148343526Y-85039934D01*
X148319041Y-85217552D01*
X148295091Y-85360771D01*
X148283799Y-85415100D01*
X148273220Y-85455574D01*
X148255391Y-85516582D01*
X148233175Y-85597259D01*
X148209403Y-85687104D01*
X148186907Y-85775615D01*
X148164148Y-85860149D01*
X148138344Y-85942574D01*
X148109567Y-86022781D01*
X148077889Y-86100661D01*
X148043382Y-86176106D01*
X148006118Y-86249008D01*
X147966168Y-86319259D01*
X147923606Y-86386750D01*
X147878502Y-86451372D01*
X147830929Y-86513018D01*
X147780958Y-86571579D01*
X147728661Y-86626946D01*
X147674111Y-86679012D01*
X147617379Y-86727668D01*
X147558536Y-86772805D01*
X147497656Y-86814315D01*
X147471088Y-86831914D01*
X147441925Y-86852238D01*
X147411120Y-86874562D01*
X147379622Y-86898162D01*
X147348384Y-86922314D01*
X147318357Y-86946295D01*
X147290492Y-86969381D01*
X147265739Y-86990846D01*
X147178681Y-87067777D01*
X147160185Y-87084588D01*
X147143896Y-87099978D01*
X147130264Y-87113720D01*
X147124585Y-87119902D01*
X147119739Y-87125587D01*
X147116402Y-87131115D01*
X147113103Y-87139461D01*
X147106639Y-87164694D01*
X147100391Y-87201454D01*
X147094403Y-87249915D01*
X147088718Y-87310244D01*
X147083381Y-87382614D01*
X147073924Y-87564157D01*
X147066382Y-87795907D01*
X147061106Y-88079230D01*
X147058448Y-88415489D01*
X147058758Y-88806050D01*
X147059819Y-89038246D01*
X147154394Y-89198265D01*
X147204523Y-89281506D01*
X147262772Y-89375552D01*
X147394675Y-89582264D01*
X147532201Y-89790811D01*
X147597478Y-89887150D01*
X147657447Y-89973600D01*
X147694830Y-90028785D01*
X147731455Y-90086967D01*
X147767186Y-90147814D01*
X147801889Y-90210996D01*
X147835429Y-90276182D01*
X147867671Y-90343042D01*
X147898480Y-90411244D01*
X147927720Y-90480458D01*
X147955257Y-90550353D01*
X147980955Y-90620598D01*
X148004680Y-90690863D01*
X148026297Y-90760816D01*
X148045671Y-90830126D01*
X148062666Y-90898464D01*
X148077147Y-90965498D01*
X148088981Y-91030897D01*
X148112767Y-91167935D01*
X148141254Y-91316538D01*
X148173038Y-91470516D01*
X148206715Y-91623676D01*
X148240882Y-91769827D01*
X148274136Y-91902777D01*
X148305073Y-92016335D01*
X148332289Y-92104310D01*
X148339860Y-92127292D01*
X148346256Y-92148194D01*
X148351639Y-92167331D01*
X148356168Y-92185018D01*
X148360007Y-92201570D01*
X148363315Y-92217300D01*
X148368985Y-92247555D01*
X148374470Y-92278300D01*
X148381057Y-92312052D01*
X148385168Y-92330842D01*
X148390038Y-92351327D01*
X148395829Y-92373823D01*
X148402702Y-92398643D01*
X148407175Y-92419732D01*
X148412980Y-92440978D01*
X148419884Y-92462505D01*
X148427659Y-92484438D01*
X148462851Y-92578704D01*
X148471519Y-92604524D01*
X148479675Y-92631493D01*
X148487087Y-92659736D01*
X148493526Y-92689377D01*
X148498761Y-92720539D01*
X148502561Y-92753347D01*
X148503851Y-92770407D01*
X148504696Y-92787925D01*
X148505067Y-92805916D01*
X148504935Y-92824396D01*
X148500000Y-93056526D01*
X144478979Y-93061013D01*
X140457959Y-93065493D01*
X140518427Y-92945440D01*
X140530576Y-92920575D01*
X140541912Y-92895931D01*
X140552186Y-92872151D01*
X140561151Y-92849878D01*
X140568559Y-92829754D01*
X140574161Y-92812423D01*
X140576207Y-92805005D01*
X140577708Y-92798527D01*
X140578634Y-92793068D01*
X140578954Y-92788709D01*
X140579187Y-92784503D01*
X140579858Y-92779492D01*
X140580945Y-92773743D01*
X140582425Y-92767320D01*
X140584277Y-92760289D01*
X140586476Y-92752715D01*
X140589002Y-92744662D01*
X140591831Y-92736197D01*
X140598311Y-92718290D01*
X140605736Y-92699515D01*
X140613928Y-92680394D01*
X140618255Y-92670867D01*
X140622706Y-92661449D01*
X140631730Y-92642222D01*
X140640623Y-92622290D01*
X140649157Y-92602233D01*
X140657102Y-92582630D01*
X140664232Y-92564059D01*
X140670316Y-92547098D01*
X140675126Y-92532328D01*
X140678435Y-92520327D01*
X140679778Y-92515040D01*
X140681315Y-92509630D01*
X140683027Y-92504137D01*
X140684898Y-92498599D01*
X140686908Y-92493057D01*
X140689042Y-92487550D01*
X140693604Y-92476799D01*
X140695997Y-92471635D01*
X140698442Y-92466664D01*
X140700919Y-92461926D01*
X140703412Y-92457460D01*
X140705903Y-92453307D01*
X140708374Y-92449506D01*
X140710806Y-92446096D01*
X140713183Y-92443117D01*
X140715838Y-92439570D01*
X140719087Y-92434494D01*
X140722884Y-92427983D01*
X140727185Y-92420135D01*
X140737116Y-92400807D01*
X140748517Y-92377276D01*
X140761024Y-92350306D01*
X140774276Y-92320664D01*
X140787910Y-92289116D01*
X140801564Y-92256427D01*
X140815202Y-92223738D01*
X140828792Y-92192190D01*
X140841974Y-92162548D01*
X140854388Y-92135578D01*
X140865676Y-92112047D01*
X140875477Y-92092719D01*
X140883433Y-92078360D01*
X140886607Y-92073283D01*
X140889184Y-92069736D01*
X140894728Y-92061848D01*
X140901038Y-92050839D01*
X140907999Y-92037031D01*
X140915494Y-92020748D01*
X140931621Y-91982046D01*
X140948486Y-91937313D01*
X140965158Y-91889130D01*
X140980706Y-91840079D01*
X140994198Y-91792740D01*
X140999882Y-91770520D01*
X141004702Y-91749696D01*
X141011347Y-91726021D01*
X141022212Y-91695931D01*
X141036853Y-91660259D01*
X141054825Y-91619839D01*
X141098986Y-91528086D01*
X141151137Y-91427336D01*
X141207725Y-91324256D01*
X141265191Y-91225511D01*
X141319981Y-91137766D01*
X141345261Y-91100102D01*
X141368538Y-91067688D01*
X141408131Y-91014149D01*
X141445547Y-90962244D01*
X141476574Y-90917902D01*
X141488373Y-90900419D01*
X141496995Y-90887048D01*
X141510884Y-90864991D01*
X141524288Y-90844471D01*
X141537291Y-90825401D01*
X141549976Y-90807696D01*
X141562429Y-90791268D01*
X141574733Y-90776032D01*
X141586971Y-90761901D01*
X141599228Y-90748790D01*
X141611588Y-90736611D01*
X141624135Y-90725279D01*
X141636952Y-90714707D01*
X141650124Y-90704809D01*
X141663735Y-90695499D01*
X141677868Y-90686691D01*
X141692608Y-90678297D01*
X141708038Y-90670233D01*
X141726622Y-90660613D01*
X141745362Y-90650361D01*
X141763748Y-90639794D01*
X141781270Y-90629227D01*
X141797416Y-90618975D01*
X141811676Y-90609355D01*
X141823540Y-90600681D01*
X141828414Y-90596798D01*
X141832498Y-90593270D01*
X141846934Y-90581938D01*
X141868209Y-90567743D01*
X141927601Y-90532597D01*
X142003333Y-90491497D01*
X142088064Y-90448107D01*
X142174451Y-90406091D01*
X142255153Y-90369113D01*
X142322828Y-90340838D01*
X142349486Y-90331109D01*
X142370135Y-90324930D01*
X142389501Y-90319595D01*
X142412127Y-90312364D01*
X142437193Y-90303558D01*
X142463877Y-90293496D01*
X142491357Y-90282497D01*
X142518814Y-90270881D01*
X142545424Y-90258967D01*
X142570368Y-90247074D01*
X142595510Y-90235151D01*
X142622689Y-90223148D01*
X142651044Y-90211393D01*
X142679714Y-90200210D01*
X142707838Y-90189925D01*
X142734555Y-90180864D01*
X142759004Y-90173352D01*
X142780322Y-90167714D01*
X142790185Y-90165239D01*
X142800259Y-90162427D01*
X142810470Y-90159309D01*
X142820746Y-90155919D01*
X142841201Y-90148445D01*
X142861039Y-90140261D01*
X142879678Y-90131622D01*
X142888365Y-90127212D01*
X142896533Y-90122783D01*
X142904110Y-90118368D01*
X142911023Y-90113998D01*
X142917198Y-90109706D01*
X142922562Y-90105523D01*
X142933445Y-90096867D01*
X142946054Y-90087562D01*
X142959936Y-90077900D01*
X142974640Y-90068172D01*
X142989715Y-90058670D01*
X143004709Y-90049685D01*
X143019170Y-90041510D01*
X143032647Y-90034436D01*
X143050300Y-90025168D01*
X143067270Y-90015389D01*
X143083554Y-90005114D01*
X143099146Y-89994353D01*
X143114041Y-89983120D01*
X143128233Y-89971426D01*
X143141719Y-89959283D01*
X143154492Y-89946706D01*
X143166548Y-89933704D01*
X143177881Y-89920292D01*
X143188487Y-89906481D01*
X143198361Y-89892283D01*
X143207496Y-89877711D01*
X143215889Y-89862777D01*
X143223534Y-89847494D01*
X143230426Y-89831874D01*
X143236559Y-89815929D01*
X143241930Y-89799671D01*
X143246532Y-89783113D01*
X143250362Y-89766268D01*
X143253412Y-89749146D01*
X143255679Y-89731762D01*
X143257158Y-89714127D01*
X143257843Y-89696253D01*
X143257729Y-89678154D01*
X143256811Y-89659840D01*
X143255084Y-89641325D01*
X143252544Y-89622620D01*
X143249184Y-89603739D01*
X143245000Y-89584694D01*
X143239986Y-89565496D01*
X143234139Y-89546158D01*
X143229032Y-89529104D01*
X143224760Y-89512055D01*
X143221331Y-89494895D01*
X143218752Y-89477507D01*
X143217031Y-89459775D01*
X143216177Y-89441582D01*
X143216196Y-89422813D01*
X143217098Y-89403349D01*
X143218889Y-89383076D01*
X143221578Y-89361876D01*
X143225173Y-89339633D01*
X143229681Y-89316231D01*
X143235111Y-89291553D01*
X143241470Y-89265483D01*
X143248766Y-89237904D01*
X143257008Y-89208700D01*
X143259130Y-89201150D01*
X143259960Y-89197738D01*
X143260571Y-89194560D01*
X143260914Y-89191610D01*
X143260941Y-89188884D01*
X143260821Y-89187602D01*
X143260603Y-89186374D01*
X143260281Y-89185198D01*
X143259851Y-89184075D01*
X143259304Y-89183003D01*
X143258636Y-89181981D01*
X143257840Y-89181010D01*
X143256910Y-89180087D01*
X143255840Y-89179213D01*
X143254624Y-89178387D01*
X143253256Y-89177608D01*
X143251730Y-89176875D01*
X143250039Y-89176188D01*
X143248178Y-89175546D01*
X143246140Y-89174948D01*
X143243920Y-89174393D01*
X143238907Y-89173411D01*
X143233091Y-89172594D01*
X143226423Y-89171936D01*
X143218854Y-89171432D01*
X143210335Y-89171076D01*
X143200818Y-89170862D01*
X143190253Y-89170784D01*
X143178594Y-89170837D01*
X143165790Y-89171015D01*
X143151792Y-89171312D01*
X143120023Y-89172240D01*
X143082898Y-89173575D01*
X142991018Y-89177283D01*
X142899817Y-89180003D01*
X142814990Y-89180311D01*
X142736300Y-89178123D01*
X142663506Y-89173353D01*
X142596372Y-89165918D01*
X142534658Y-89155733D01*
X142478126Y-89142714D01*
X142426539Y-89126776D01*
X142379658Y-89107835D01*
X142337244Y-89085807D01*
X142299059Y-89060607D01*
X142264866Y-89032150D01*
X142234425Y-89000353D01*
X142207498Y-88965131D01*
X142183847Y-88926399D01*
X142163234Y-88884074D01*
X142090241Y-88717039D01*
X142087186Y-88708883D01*
X142084538Y-88699415D01*
X142082218Y-88688768D01*
X142080149Y-88677074D01*
X142076453Y-88651082D01*
X142072827Y-88622505D01*
X142068650Y-88592409D01*
X142066161Y-88577125D01*
X142063300Y-88561862D01*
X142059990Y-88546752D01*
X142056154Y-88531930D01*
X142051713Y-88517527D01*
X142046590Y-88503678D01*
X142000206Y-88389271D01*
X141964068Y-88297954D01*
X141946592Y-88252040D01*
X141927778Y-88201200D01*
X141880938Y-88070480D01*
X141858808Y-88016122D01*
X141839734Y-87960229D01*
X141823454Y-87903003D01*
X141809711Y-87844649D01*
X141798246Y-87785373D01*
X141788800Y-87725378D01*
X141781113Y-87664869D01*
X141774927Y-87604050D01*
X141766023Y-87482303D01*
X141760016Y-87361771D01*
X141754834Y-87244092D01*
X141748406Y-87130900D01*
X141745724Y-87091052D01*
X141744164Y-87055224D01*
X141743463Y-87023116D01*
X141743359Y-86994427D01*
X141743890Y-86946106D01*
X141743658Y-86907859D01*
X141742600Y-86891763D01*
X141740563Y-86877284D01*
X141737286Y-86864122D01*
X141732505Y-86851977D01*
X141725958Y-86840549D01*
X141717384Y-86829537D01*
X141706518Y-86818642D01*
X141693099Y-86807562D01*
X141668297Y-86790137D01*
X141641573Y-86773868D01*
X141613096Y-86758353D01*
X141583038Y-86743193D01*
X141518864Y-86712342D01*
X141485090Y-86695852D01*
X141450419Y-86678119D01*
X141415022Y-86658745D01*
X141379071Y-86637328D01*
X141342737Y-86613471D01*
X141306190Y-86586772D01*
X141269602Y-86556834D01*
X141251346Y-86540525D01*
X141233144Y-86523256D01*
X141215017Y-86504978D01*
X141196987Y-86485640D01*
X141179075Y-86465192D01*
X141161302Y-86443584D01*
X141149490Y-86427961D01*
X141138739Y-86412048D01*
X141129055Y-86395825D01*
X141120442Y-86379273D01*
X141112905Y-86362372D01*
X141106448Y-86345099D01*
X141101077Y-86327437D01*
X141096795Y-86309363D01*
X141093608Y-86290858D01*
X141091521Y-86271902D01*
X141090538Y-86252474D01*
X141090663Y-86232553D01*
X141091902Y-86212121D01*
X141094258Y-86191155D01*
X141097738Y-86169637D01*
X141102345Y-86147546D01*
X141108084Y-86124860D01*
X141114961Y-86101561D01*
X141122978Y-86077628D01*
X141132142Y-86053040D01*
X141142457Y-86027778D01*
X141153927Y-86001820D01*
X141180354Y-85947739D01*
X141211459Y-85890633D01*
X141247281Y-85830341D01*
X141287857Y-85766700D01*
X141333224Y-85699548D01*
X141360674Y-85658940D01*
X141385803Y-85619763D01*
X141408433Y-85582339D01*
X141428391Y-85546993D01*
X141445500Y-85514047D01*
X141459584Y-85483826D01*
X141465438Y-85469838D01*
X141470469Y-85456652D01*
X141474657Y-85444308D01*
X141477979Y-85432848D01*
X141505481Y-85330717D01*
X141537464Y-85215544D01*
X141546552Y-85182178D01*
X141554338Y-85150524D01*
X141560803Y-85119947D01*
X141565924Y-85089809D01*
X141569682Y-85059476D01*
X141572055Y-85028311D01*
X141573023Y-84995679D01*
X141572565Y-84960942D01*
X141570660Y-84923467D01*
X141567287Y-84882616D01*
X141562426Y-84837754D01*
X141556055Y-84788244D01*
X141548154Y-84733451D01*
X141538703Y-84672739D01*
X141515063Y-84531014D01*
X141509443Y-84499588D01*
X141503398Y-84468207D01*
X141497119Y-84437705D01*
X141490794Y-84408916D01*
X141484614Y-84382676D01*
X141478768Y-84359818D01*
X141473445Y-84341177D01*
X141468835Y-84327588D01*
X141460220Y-84301789D01*
X141453394Y-84273525D01*
X141448317Y-84242933D01*
X141444947Y-84210154D01*
X141443163Y-84138582D01*
X141447711Y-84059920D01*
X141458260Y-83975275D01*
X141474478Y-83885756D01*
X141496035Y-83792471D01*
X141522598Y-83696529D01*
X141553837Y-83599039D01*
X141589420Y-83501109D01*
X141629016Y-83403848D01*
X141672294Y-83308364D01*
X141718923Y-83215766D01*
X141768570Y-83127163D01*
X141820906Y-83043663D01*
X141875598Y-82966374D01*
X141899211Y-82937083D01*
X141930200Y-82901712D01*
X142010368Y-82816468D01*
X142108218Y-82718124D01*
X142215867Y-82614158D01*
X142325432Y-82512050D01*
X142429027Y-82419278D01*
X142518770Y-82343323D01*
X142555984Y-82313989D01*
X142586778Y-82291664D01*
X142736904Y-82192149D01*
X142879146Y-82103061D01*
X143015393Y-82023431D01*
X143147530Y-81952286D01*
X143277444Y-81888658D01*
X143342158Y-81859360D01*
X143407024Y-81831576D01*
X143538156Y-81780068D01*
X143672727Y-81733165D01*
X143796367Y-81692038D01*
X143916142Y-81651214D01*
X144018380Y-81615413D01*
X144089408Y-81589353D01*
X144206663Y-81550126D01*
X144337888Y-81516911D01*
X144480952Y-81489651D01*
X144633723Y-81468290D01*
X144794070Y-81452772D01*
X144959861Y-81443041D01*
X145128966Y-81439040D01*
X145299252Y-81440713D01*
G37*
X145299252Y-81440713D02*
X145468588Y-81448004D01*
X145634842Y-81460856D01*
X145795884Y-81479213D01*
X145949582Y-81503020D01*
X146093804Y-81532219D01*
X146226419Y-81566755D01*
X146345296Y-81606572D01*
X146448303Y-81651612D01*
X146472966Y-81663155D01*
X146503545Y-81675991D01*
X146538830Y-81689693D01*
X146577610Y-81703831D01*
X146618675Y-81717977D01*
X146660813Y-81731701D01*
X146702815Y-81744575D01*
X146743469Y-81756170D01*
X146826186Y-81779216D01*
X146901080Y-81801253D01*
X146969096Y-81822890D01*
X147031180Y-81844737D01*
X147088277Y-81867402D01*
X147141335Y-81891496D01*
X147191300Y-81917626D01*
X147239116Y-81946402D01*
X147285730Y-81978434D01*
X147332088Y-82014330D01*
X147379137Y-82054700D01*
X147427821Y-82100152D01*
X147479088Y-82151297D01*
X147533883Y-82208743D01*
X147657840Y-82344975D01*
X147739830Y-82441251D01*
X147818502Y-82542491D01*
X147893585Y-82648062D01*
X147964808Y-82757329D01*
X148031901Y-82869660D01*
X148094593Y-82984422D01*
X148152612Y-83100980D01*
X148205688Y-83218703D01*
X148253550Y-83336955D01*
X148295927Y-83455105D01*
X148332547Y-83572519D01*
X148363141Y-83688563D01*
X148387438Y-83802604D01*
X148405165Y-83914009D01*
X148416054Y-84022145D01*
X148419831Y-84126378D01*
X148415874Y-84265768D01*
X148404719Y-84440833D01*
X148387911Y-84637560D01*
X148366998Y-84841932D01*
X148343526Y-85039934D01*
X148319041Y-85217552D01*
X148295091Y-85360771D01*
X148283799Y-85415100D01*
X148273220Y-85455574D01*
X148255391Y-85516582D01*
X148233175Y-85597259D01*
X148209403Y-85687104D01*
X148186907Y-85775615D01*
X148164148Y-85860149D01*
X148138344Y-85942574D01*
X148109567Y-86022781D01*
X148077889Y-86100661D01*
X148043382Y-86176106D01*
X148006118Y-86249008D01*
X147966168Y-86319259D01*
X147923606Y-86386750D01*
X147878502Y-86451372D01*
X147830929Y-86513018D01*
X147780958Y-86571579D01*
X147728661Y-86626946D01*
X147674111Y-86679012D01*
X147617379Y-86727668D01*
X147558536Y-86772805D01*
X147497656Y-86814315D01*
X147471088Y-86831914D01*
X147441925Y-86852238D01*
X147411120Y-86874562D01*
X147379622Y-86898162D01*
X147348384Y-86922314D01*
X147318357Y-86946295D01*
X147290492Y-86969381D01*
X147265739Y-86990846D01*
X147178681Y-87067777D01*
X147160185Y-87084588D01*
X147143896Y-87099978D01*
X147130264Y-87113720D01*
X147124585Y-87119902D01*
X147119739Y-87125587D01*
X147116402Y-87131115D01*
X147113103Y-87139461D01*
X147106639Y-87164694D01*
X147100391Y-87201454D01*
X147094403Y-87249915D01*
X147088718Y-87310244D01*
X147083381Y-87382614D01*
X147073924Y-87564157D01*
X147066382Y-87795907D01*
X147061106Y-88079230D01*
X147058448Y-88415489D01*
X147058758Y-88806050D01*
X147059819Y-89038246D01*
X147154394Y-89198265D01*
X147204523Y-89281506D01*
X147262772Y-89375552D01*
X147394675Y-89582264D01*
X147532201Y-89790811D01*
X147597478Y-89887150D01*
X147657447Y-89973600D01*
X147694830Y-90028785D01*
X147731455Y-90086967D01*
X147767186Y-90147814D01*
X147801889Y-90210996D01*
X147835429Y-90276182D01*
X147867671Y-90343042D01*
X147898480Y-90411244D01*
X147927720Y-90480458D01*
X147955257Y-90550353D01*
X147980955Y-90620598D01*
X148004680Y-90690863D01*
X148026297Y-90760816D01*
X148045671Y-90830126D01*
X148062666Y-90898464D01*
X148077147Y-90965498D01*
X148088981Y-91030897D01*
X148112767Y-91167935D01*
X148141254Y-91316538D01*
X148173038Y-91470516D01*
X148206715Y-91623676D01*
X148240882Y-91769827D01*
X148274136Y-91902777D01*
X148305073Y-92016335D01*
X148332289Y-92104310D01*
X148339860Y-92127292D01*
X148346256Y-92148194D01*
X148351639Y-92167331D01*
X148356168Y-92185018D01*
X148360007Y-92201570D01*
X148363315Y-92217300D01*
X148368985Y-92247555D01*
X148374470Y-92278300D01*
X148381057Y-92312052D01*
X148385168Y-92330842D01*
X148390038Y-92351327D01*
X148395829Y-92373823D01*
X148402702Y-92398643D01*
X148407175Y-92419732D01*
X148412980Y-92440978D01*
X148419884Y-92462505D01*
X148427659Y-92484438D01*
X148462851Y-92578704D01*
X148471519Y-92604524D01*
X148479675Y-92631493D01*
X148487087Y-92659736D01*
X148493526Y-92689377D01*
X148498761Y-92720539D01*
X148502561Y-92753347D01*
X148503851Y-92770407D01*
X148504696Y-92787925D01*
X148505067Y-92805916D01*
X148504935Y-92824396D01*
X148500000Y-93056526D01*
X144478979Y-93061013D01*
X140457959Y-93065493D01*
X140518427Y-92945440D01*
X140530576Y-92920575D01*
X140541912Y-92895931D01*
X140552186Y-92872151D01*
X140561151Y-92849878D01*
X140568559Y-92829754D01*
X140574161Y-92812423D01*
X140576207Y-92805005D01*
X140577708Y-92798527D01*
X140578634Y-92793068D01*
X140578954Y-92788709D01*
X140579187Y-92784503D01*
X140579858Y-92779492D01*
X140580945Y-92773743D01*
X140582425Y-92767320D01*
X140584277Y-92760289D01*
X140586476Y-92752715D01*
X140589002Y-92744662D01*
X140591831Y-92736197D01*
X140598311Y-92718290D01*
X140605736Y-92699515D01*
X140613928Y-92680394D01*
X140618255Y-92670867D01*
X140622706Y-92661449D01*
X140631730Y-92642222D01*
X140640623Y-92622290D01*
X140649157Y-92602233D01*
X140657102Y-92582630D01*
X140664232Y-92564059D01*
X140670316Y-92547098D01*
X140675126Y-92532328D01*
X140678435Y-92520327D01*
X140679778Y-92515040D01*
X140681315Y-92509630D01*
X140683027Y-92504137D01*
X140684898Y-92498599D01*
X140686908Y-92493057D01*
X140689042Y-92487550D01*
X140693604Y-92476799D01*
X140695997Y-92471635D01*
X140698442Y-92466664D01*
X140700919Y-92461926D01*
X140703412Y-92457460D01*
X140705903Y-92453307D01*
X140708374Y-92449506D01*
X140710806Y-92446096D01*
X140713183Y-92443117D01*
X140715838Y-92439570D01*
X140719087Y-92434494D01*
X140722884Y-92427983D01*
X140727185Y-92420135D01*
X140737116Y-92400807D01*
X140748517Y-92377276D01*
X140761024Y-92350306D01*
X140774276Y-92320664D01*
X140787910Y-92289116D01*
X140801564Y-92256427D01*
X140815202Y-92223738D01*
X140828792Y-92192190D01*
X140841974Y-92162548D01*
X140854388Y-92135578D01*
X140865676Y-92112047D01*
X140875477Y-92092719D01*
X140883433Y-92078360D01*
X140886607Y-92073283D01*
X140889184Y-92069736D01*
X140894728Y-92061848D01*
X140901038Y-92050839D01*
X140907999Y-92037031D01*
X140915494Y-92020748D01*
X140931621Y-91982046D01*
X140948486Y-91937313D01*
X140965158Y-91889130D01*
X140980706Y-91840079D01*
X140994198Y-91792740D01*
X140999882Y-91770520D01*
X141004702Y-91749696D01*
X141011347Y-91726021D01*
X141022212Y-91695931D01*
X141036853Y-91660259D01*
X141054825Y-91619839D01*
X141098986Y-91528086D01*
X141151137Y-91427336D01*
X141207725Y-91324256D01*
X141265191Y-91225511D01*
X141319981Y-91137766D01*
X141345261Y-91100102D01*
X141368538Y-91067688D01*
X141408131Y-91014149D01*
X141445547Y-90962244D01*
X141476574Y-90917902D01*
X141488373Y-90900419D01*
X141496995Y-90887048D01*
X141510884Y-90864991D01*
X141524288Y-90844471D01*
X141537291Y-90825401D01*
X141549976Y-90807696D01*
X141562429Y-90791268D01*
X141574733Y-90776032D01*
X141586971Y-90761901D01*
X141599228Y-90748790D01*
X141611588Y-90736611D01*
X141624135Y-90725279D01*
X141636952Y-90714707D01*
X141650124Y-90704809D01*
X141663735Y-90695499D01*
X141677868Y-90686691D01*
X141692608Y-90678297D01*
X141708038Y-90670233D01*
X141726622Y-90660613D01*
X141745362Y-90650361D01*
X141763748Y-90639794D01*
X141781270Y-90629227D01*
X141797416Y-90618975D01*
X141811676Y-90609355D01*
X141823540Y-90600681D01*
X141828414Y-90596798D01*
X141832498Y-90593270D01*
X141846934Y-90581938D01*
X141868209Y-90567743D01*
X141927601Y-90532597D01*
X142003333Y-90491497D01*
X142088064Y-90448107D01*
X142174451Y-90406091D01*
X142255153Y-90369113D01*
X142322828Y-90340838D01*
X142349486Y-90331109D01*
X142370135Y-90324930D01*
X142389501Y-90319595D01*
X142412127Y-90312364D01*
X142437193Y-90303558D01*
X142463877Y-90293496D01*
X142491357Y-90282497D01*
X142518814Y-90270881D01*
X142545424Y-90258967D01*
X142570368Y-90247074D01*
X142595510Y-90235151D01*
X142622689Y-90223148D01*
X142651044Y-90211393D01*
X142679714Y-90200210D01*
X142707838Y-90189925D01*
X142734555Y-90180864D01*
X142759004Y-90173352D01*
X142780322Y-90167714D01*
X142790185Y-90165239D01*
X142800259Y-90162427D01*
X142810470Y-90159309D01*
X142820746Y-90155919D01*
X142841201Y-90148445D01*
X142861039Y-90140261D01*
X142879678Y-90131622D01*
X142888365Y-90127212D01*
X142896533Y-90122783D01*
X142904110Y-90118368D01*
X142911023Y-90113998D01*
X142917198Y-90109706D01*
X142922562Y-90105523D01*
X142933445Y-90096867D01*
X142946054Y-90087562D01*
X142959936Y-90077900D01*
X142974640Y-90068172D01*
X142989715Y-90058670D01*
X143004709Y-90049685D01*
X143019170Y-90041510D01*
X143032647Y-90034436D01*
X143050300Y-90025168D01*
X143067270Y-90015389D01*
X143083554Y-90005114D01*
X143099146Y-89994353D01*
X143114041Y-89983120D01*
X143128233Y-89971426D01*
X143141719Y-89959283D01*
X143154492Y-89946706D01*
X143166548Y-89933704D01*
X143177881Y-89920292D01*
X143188487Y-89906481D01*
X143198361Y-89892283D01*
X143207496Y-89877711D01*
X143215889Y-89862777D01*
X143223534Y-89847494D01*
X143230426Y-89831874D01*
X143236559Y-89815929D01*
X143241930Y-89799671D01*
X143246532Y-89783113D01*
X143250362Y-89766268D01*
X143253412Y-89749146D01*
X143255679Y-89731762D01*
X143257158Y-89714127D01*
X143257843Y-89696253D01*
X143257729Y-89678154D01*
X143256811Y-89659840D01*
X143255084Y-89641325D01*
X143252544Y-89622620D01*
X143249184Y-89603739D01*
X143245000Y-89584694D01*
X143239986Y-89565496D01*
X143234139Y-89546158D01*
X143229032Y-89529104D01*
X143224760Y-89512055D01*
X143221331Y-89494895D01*
X143218752Y-89477507D01*
X143217031Y-89459775D01*
X143216177Y-89441582D01*
X143216196Y-89422813D01*
X143217098Y-89403349D01*
X143218889Y-89383076D01*
X143221578Y-89361876D01*
X143225173Y-89339633D01*
X143229681Y-89316231D01*
X143235111Y-89291553D01*
X143241470Y-89265483D01*
X143248766Y-89237904D01*
X143257008Y-89208700D01*
X143259130Y-89201150D01*
X143259960Y-89197738D01*
X143260571Y-89194560D01*
X143260914Y-89191610D01*
X143260941Y-89188884D01*
X143260821Y-89187602D01*
X143260603Y-89186374D01*
X143260281Y-89185198D01*
X143259851Y-89184075D01*
X143259304Y-89183003D01*
X143258636Y-89181981D01*
X143257840Y-89181010D01*
X143256910Y-89180087D01*
X143255840Y-89179213D01*
X143254624Y-89178387D01*
X143253256Y-89177608D01*
X143251730Y-89176875D01*
X143250039Y-89176188D01*
X143248178Y-89175546D01*
X143246140Y-89174948D01*
X143243920Y-89174393D01*
X143238907Y-89173411D01*
X143233091Y-89172594D01*
X143226423Y-89171936D01*
X143218854Y-89171432D01*
X143210335Y-89171076D01*
X143200818Y-89170862D01*
X143190253Y-89170784D01*
X143178594Y-89170837D01*
X143165790Y-89171015D01*
X143151792Y-89171312D01*
X143120023Y-89172240D01*
X143082898Y-89173575D01*
X142991018Y-89177283D01*
X142899817Y-89180003D01*
X142814990Y-89180311D01*
X142736300Y-89178123D01*
X142663506Y-89173353D01*
X142596372Y-89165918D01*
X142534658Y-89155733D01*
X142478126Y-89142714D01*
X142426539Y-89126776D01*
X142379658Y-89107835D01*
X142337244Y-89085807D01*
X142299059Y-89060607D01*
X142264866Y-89032150D01*
X142234425Y-89000353D01*
X142207498Y-88965131D01*
X142183847Y-88926399D01*
X142163234Y-88884074D01*
X142090241Y-88717039D01*
X142087186Y-88708883D01*
X142084538Y-88699415D01*
X142082218Y-88688768D01*
X142080149Y-88677074D01*
X142076453Y-88651082D01*
X142072827Y-88622505D01*
X142068650Y-88592409D01*
X142066161Y-88577125D01*
X142063300Y-88561862D01*
X142059990Y-88546752D01*
X142056154Y-88531930D01*
X142051713Y-88517527D01*
X142046590Y-88503678D01*
X142000206Y-88389271D01*
X141964068Y-88297954D01*
X141946592Y-88252040D01*
X141927778Y-88201200D01*
X141880938Y-88070480D01*
X141858808Y-88016122D01*
X141839734Y-87960229D01*
X141823454Y-87903003D01*
X141809711Y-87844649D01*
X141798246Y-87785373D01*
X141788800Y-87725378D01*
X141781113Y-87664869D01*
X141774927Y-87604050D01*
X141766023Y-87482303D01*
X141760016Y-87361771D01*
X141754834Y-87244092D01*
X141748406Y-87130900D01*
X141745724Y-87091052D01*
X141744164Y-87055224D01*
X141743463Y-87023116D01*
X141743359Y-86994427D01*
X141743890Y-86946106D01*
X141743658Y-86907859D01*
X141742600Y-86891763D01*
X141740563Y-86877284D01*
X141737286Y-86864122D01*
X141732505Y-86851977D01*
X141725958Y-86840549D01*
X141717384Y-86829537D01*
X141706518Y-86818642D01*
X141693099Y-86807562D01*
X141668297Y-86790137D01*
X141641573Y-86773868D01*
X141613096Y-86758353D01*
X141583038Y-86743193D01*
X141518864Y-86712342D01*
X141485090Y-86695852D01*
X141450419Y-86678119D01*
X141415022Y-86658745D01*
X141379071Y-86637328D01*
X141342737Y-86613471D01*
X141306190Y-86586772D01*
X141269602Y-86556834D01*
X141251346Y-86540525D01*
X141233144Y-86523256D01*
X141215017Y-86504978D01*
X141196987Y-86485640D01*
X141179075Y-86465192D01*
X141161302Y-86443584D01*
X141149490Y-86427961D01*
X141138739Y-86412048D01*
X141129055Y-86395825D01*
X141120442Y-86379273D01*
X141112905Y-86362372D01*
X141106448Y-86345099D01*
X141101077Y-86327437D01*
X141096795Y-86309363D01*
X141093608Y-86290858D01*
X141091521Y-86271902D01*
X141090538Y-86252474D01*
X141090663Y-86232553D01*
X141091902Y-86212121D01*
X141094258Y-86191155D01*
X141097738Y-86169637D01*
X141102345Y-86147546D01*
X141108084Y-86124860D01*
X141114961Y-86101561D01*
X141122978Y-86077628D01*
X141132142Y-86053040D01*
X141142457Y-86027778D01*
X141153927Y-86001820D01*
X141180354Y-85947739D01*
X141211459Y-85890633D01*
X141247281Y-85830341D01*
X141287857Y-85766700D01*
X141333224Y-85699548D01*
X141360674Y-85658940D01*
X141385803Y-85619763D01*
X141408433Y-85582339D01*
X141428391Y-85546993D01*
X141445500Y-85514047D01*
X141459584Y-85483826D01*
X141465438Y-85469838D01*
X141470469Y-85456652D01*
X141474657Y-85444308D01*
X141477979Y-85432848D01*
X141505481Y-85330717D01*
X141537464Y-85215544D01*
X141546552Y-85182178D01*
X141554338Y-85150524D01*
X141560803Y-85119947D01*
X141565924Y-85089809D01*
X141569682Y-85059476D01*
X141572055Y-85028311D01*
X141573023Y-84995679D01*
X141572565Y-84960942D01*
X141570660Y-84923467D01*
X141567287Y-84882616D01*
X141562426Y-84837754D01*
X141556055Y-84788244D01*
X141548154Y-84733451D01*
X141538703Y-84672739D01*
X141515063Y-84531014D01*
X141509443Y-84499588D01*
X141503398Y-84468207D01*
X141497119Y-84437705D01*
X141490794Y-84408916D01*
X141484614Y-84382676D01*
X141478768Y-84359818D01*
X141473445Y-84341177D01*
X141468835Y-84327588D01*
X141460220Y-84301789D01*
X141453394Y-84273525D01*
X141448317Y-84242933D01*
X141444947Y-84210154D01*
X141443163Y-84138582D01*
X141447711Y-84059920D01*
X141458260Y-83975275D01*
X141474478Y-83885756D01*
X141496035Y-83792471D01*
X141522598Y-83696529D01*
X141553837Y-83599039D01*
X141589420Y-83501109D01*
X141629016Y-83403848D01*
X141672294Y-83308364D01*
X141718923Y-83215766D01*
X141768570Y-83127163D01*
X141820906Y-83043663D01*
X141875598Y-82966374D01*
X141899211Y-82937083D01*
X141930200Y-82901712D01*
X142010368Y-82816468D01*
X142108218Y-82718124D01*
X142215867Y-82614158D01*
X142325432Y-82512050D01*
X142429027Y-82419278D01*
X142518770Y-82343323D01*
X142555984Y-82313989D01*
X142586778Y-82291664D01*
X142736904Y-82192149D01*
X142879146Y-82103061D01*
X143015393Y-82023431D01*
X143147530Y-81952286D01*
X143277444Y-81888658D01*
X143342158Y-81859360D01*
X143407024Y-81831576D01*
X143538156Y-81780068D01*
X143672727Y-81733165D01*
X143796367Y-81692038D01*
X143916142Y-81651214D01*
X144018380Y-81615413D01*
X144089408Y-81589353D01*
X144206663Y-81550126D01*
X144337888Y-81516911D01*
X144480952Y-81489651D01*
X144633723Y-81468290D01*
X144794070Y-81452772D01*
X144959861Y-81443041D01*
X145128966Y-81439040D01*
X145299252Y-81440713D01*
D10*
X128709146Y-88242422D02*
X128662837Y-88314791D01*
X128826393Y-83841739D02*
X128854901Y-83904993D01*
X125510496Y-83904993D02*
X125539004Y-83841739D01*
X125419165Y-87588381D02*
X125407859Y-87498895D01*
X128613191Y-88384706D02*
X128560318Y-88452056D01*
X128662837Y-88314791D02*
X128613191Y-88384706D01*
X125815786Y-83451452D02*
X125865298Y-83404256D01*
X125506592Y-87930616D02*
X125478626Y-87847634D01*
X128504329Y-88516732D02*
X128445333Y-88578623D01*
X128886768Y-87847633D02*
X128858801Y-87930615D01*
X126256262Y-88842436D02*
X126183893Y-88796127D01*
D11*
G36*
X146529414Y-96487325D02*
G01*
X146494273Y-96487325D01*
X146486922Y-96487401D01*
X146479853Y-96487632D01*
X146473066Y-96488015D01*
X146466562Y-96488552D01*
X146460341Y-96489243D01*
X146454402Y-96490086D01*
X146448746Y-96491084D01*
X146443372Y-96492234D01*
X146438281Y-96493538D01*
X146433473Y-96494996D01*
X146428947Y-96496606D01*
X146424704Y-96498371D01*
X146420744Y-96500288D01*
X146417066Y-96502359D01*
X146413670Y-96504584D01*
X146410558Y-96506961D01*
X146407679Y-96509327D01*
X146404987Y-96511774D01*
X146402480Y-96514301D01*
X146400158Y-96516909D01*
X146398023Y-96519598D01*
X146396073Y-96522368D01*
X146394309Y-96525218D01*
X146392730Y-96528149D01*
X146391337Y-96531161D01*
X146390130Y-96534253D01*
X146389109Y-96537427D01*
X146388273Y-96540681D01*
X146387623Y-96544016D01*
X146387159Y-96547431D01*
X146386880Y-96550928D01*
X146386787Y-96554505D01*
X146386816Y-96557323D01*
X146386900Y-96560092D01*
X146387042Y-96562813D01*
X146387240Y-96565486D01*
X146387494Y-96568110D01*
X146387805Y-96570685D01*
X146388172Y-96573213D01*
X146388596Y-96575691D01*
X146389076Y-96578122D01*
X146389613Y-96580504D01*
X146390207Y-96582837D01*
X146390856Y-96585122D01*
X146391563Y-96587359D01*
X146392326Y-96589547D01*
X146393146Y-96591686D01*
X146394022Y-96593778D01*
X146465335Y-96701267D01*
X146638968Y-96965848D01*
X146786763Y-96784983D01*
X146813408Y-96751409D01*
X146825399Y-96735603D01*
X146836501Y-96720452D01*
X146846715Y-96705954D01*
X146856041Y-96692110D01*
X146864478Y-96678921D01*
X146872028Y-96666385D01*
X146878689Y-96654503D01*
X146884463Y-96643276D01*
X146889348Y-96632702D01*
X146893345Y-96622783D01*
X146896453Y-96613517D01*
X146898674Y-96604905D01*
X146900006Y-96596948D01*
X146900450Y-96589644D01*
X146900386Y-96586172D01*
X146900192Y-96582732D01*
X146899869Y-96579325D01*
X146899417Y-96575950D01*
X146898835Y-96572607D01*
X146898125Y-96569296D01*
X146897285Y-96566018D01*
X146896316Y-96562772D01*
X146895218Y-96559559D01*
X146893991Y-96556377D01*
X146892635Y-96553228D01*
X146891149Y-96550111D01*
X146889534Y-96547027D01*
X146887790Y-96543975D01*
X146885917Y-96540955D01*
X146883914Y-96537967D01*
X146881920Y-96535036D01*
X146879812Y-96532186D01*
X146877592Y-96529417D01*
X146875258Y-96526728D01*
X146872811Y-96524120D01*
X146870252Y-96521593D01*
X146867579Y-96519147D01*
X146864793Y-96516781D01*
X146861895Y-96514496D01*
X146858883Y-96512291D01*
X146855758Y-96510168D01*
X146852520Y-96508125D01*
X146849169Y-96506162D01*
X146845705Y-96504281D01*
X146842128Y-96502480D01*
X146838438Y-96500760D01*
X146834563Y-96499133D01*
X146830429Y-96497611D01*
X146826036Y-96496194D01*
X146821385Y-96494882D01*
X146816476Y-96493675D01*
X146811308Y-96492573D01*
X146805882Y-96491576D01*
X146800198Y-96490684D01*
X146794255Y-96489896D01*
X146788054Y-96489214D01*
X146781595Y-96488637D01*
X146774877Y-96488164D01*
X146767900Y-96487797D01*
X146760665Y-96487535D01*
X146753172Y-96487377D01*
X146745421Y-96487325D01*
X146745421Y-96449085D01*
X147261151Y-96449085D01*
X147261151Y-96487325D01*
X147246278Y-96487793D01*
X147232148Y-96488681D01*
X147218761Y-96489989D01*
X147206117Y-96491717D01*
X147194215Y-96493865D01*
X147183056Y-96496432D01*
X147177755Y-96497874D01*
X147172640Y-96499420D01*
X147167711Y-96501071D01*
X147162967Y-96502828D01*
X147158296Y-96504604D01*
X147153584Y-96506575D01*
X147148833Y-96508739D01*
X147144040Y-96511096D01*
X147139208Y-96513648D01*
X147134335Y-96516393D01*
X147129422Y-96519332D01*
X147124468Y-96522465D01*
X147119474Y-96525792D01*
X147114439Y-96529312D01*
X147109365Y-96533026D01*
X147104249Y-96536934D01*
X147099094Y-96541036D01*
X147093898Y-96545332D01*
X147088661Y-96549821D01*
X147083385Y-96554505D01*
X147079711Y-96558013D01*
X147075407Y-96562337D01*
X147064911Y-96573431D01*
X147051895Y-96587787D01*
X147036359Y-96605405D01*
X147018305Y-96626286D01*
X146997731Y-96650428D01*
X146974638Y-96677833D01*
X146949027Y-96708499D01*
X146683409Y-97028894D01*
X147069949Y-97602503D01*
X147093107Y-97636415D01*
X147114520Y-97666840D01*
X147134189Y-97693776D01*
X147152114Y-97717224D01*
X147168296Y-97737185D01*
X147182733Y-97753657D01*
X147195426Y-97766640D01*
X147201119Y-97771824D01*
X147206375Y-97776136D01*
X147211599Y-97779789D01*
X147216936Y-97783257D01*
X147222387Y-97786539D01*
X147227950Y-97789635D01*
X147233626Y-97792546D01*
X147239415Y-97795271D01*
X147245318Y-97797811D01*
X147251333Y-97800165D01*
X147257462Y-97802333D01*
X147263703Y-97804315D01*
X147270058Y-97806112D01*
X147276525Y-97807722D01*
X147283106Y-97809148D01*
X147289800Y-97810387D01*
X147296607Y-97811440D01*
X147303526Y-97812308D01*
X147303526Y-97850550D01*
X146620364Y-97850550D01*
X146620364Y-97812308D01*
X146639872Y-97810565D01*
X146657571Y-97808433D01*
X146673462Y-97805914D01*
X146680729Y-97804509D01*
X146687544Y-97803007D01*
X146693906Y-97801408D01*
X146699817Y-97799712D01*
X146705275Y-97797920D01*
X146710281Y-97796030D01*
X146714835Y-97794044D01*
X146718937Y-97791960D01*
X146722587Y-97789780D01*
X146725784Y-97787503D01*
X146728663Y-97785146D01*
X146731355Y-97782723D01*
X146733862Y-97780236D01*
X146736184Y-97777685D01*
X146738320Y-97775069D01*
X146740270Y-97772388D01*
X146742034Y-97769643D01*
X146743613Y-97766833D01*
X146745005Y-97763959D01*
X146746213Y-97761020D01*
X146747234Y-97758016D01*
X146748070Y-97754948D01*
X146748720Y-97751815D01*
X146749185Y-97748618D01*
X146749463Y-97745356D01*
X146749556Y-97742029D01*
X146749528Y-97739720D01*
X146749443Y-97737443D01*
X146749302Y-97735198D01*
X146749104Y-97732985D01*
X146748849Y-97730805D01*
X146748538Y-97728657D01*
X146748171Y-97726542D01*
X146747747Y-97724459D01*
X146747266Y-97722408D01*
X146746729Y-97720389D01*
X146746136Y-97718403D01*
X146745486Y-97716449D01*
X146744779Y-97714527D01*
X146744016Y-97712638D01*
X146743196Y-97710782D01*
X146742320Y-97708957D01*
X146738025Y-97700365D01*
X146732373Y-97690094D01*
X146725365Y-97678144D01*
X146716999Y-97664514D01*
X146707278Y-97649205D01*
X146696200Y-97632217D01*
X146683765Y-97613549D01*
X146669974Y-97593201D01*
X146465335Y-97290378D01*
X146251395Y-97551859D01*
X146228867Y-97580378D01*
X146209343Y-97606508D01*
X146200707Y-97618676D01*
X146192822Y-97630247D01*
X146185689Y-97641220D01*
X146179306Y-97651596D01*
X146173674Y-97661374D01*
X146168793Y-97670555D01*
X146164663Y-97679138D01*
X146161284Y-97687123D01*
X146158656Y-97694511D01*
X146156778Y-97701301D01*
X146155652Y-97707494D01*
X146155277Y-97713089D01*
X146155373Y-97716820D01*
X146155664Y-97720518D01*
X146156149Y-97724184D01*
X146156827Y-97727818D01*
X146157699Y-97731419D01*
X146158765Y-97734988D01*
X146160024Y-97738525D01*
X146161478Y-97742029D01*
X146163125Y-97745501D01*
X146164966Y-97748941D01*
X146167001Y-97752348D01*
X146169229Y-97755723D01*
X146171652Y-97759066D01*
X146174268Y-97762376D01*
X146177078Y-97765654D01*
X146180081Y-97768900D01*
X146183275Y-97772073D01*
X146186654Y-97775134D01*
X146190219Y-97778081D01*
X146193969Y-97780916D01*
X146197905Y-97783637D01*
X146202028Y-97786245D01*
X146206335Y-97788740D01*
X146210829Y-97791122D01*
X146215508Y-97793391D01*
X146220373Y-97795547D01*
X146225424Y-97797589D01*
X146230660Y-97799519D01*
X146236082Y-97801336D01*
X146241690Y-97803039D01*
X146247483Y-97804630D01*
X146253462Y-97806107D01*
X146256353Y-97806858D01*
X146259599Y-97807561D01*
X146263200Y-97808215D01*
X146267156Y-97808820D01*
X146271468Y-97809377D01*
X146276135Y-97809886D01*
X146286534Y-97810758D01*
X146298355Y-97811436D01*
X146311597Y-97811921D01*
X146326260Y-97812211D01*
X146342345Y-97812308D01*
X146342345Y-97850550D01*
X145803877Y-97850550D01*
X145803877Y-97812308D01*
X145815222Y-97810540D01*
X145826259Y-97808594D01*
X145836990Y-97806470D01*
X145847414Y-97804169D01*
X145857532Y-97801690D01*
X145867342Y-97799034D01*
X145876846Y-97796199D01*
X145886042Y-97793188D01*
X145894932Y-97789998D01*
X145903515Y-97786631D01*
X145911792Y-97783086D01*
X145919761Y-97779364D01*
X145927424Y-97775464D01*
X145934779Y-97771387D01*
X145941828Y-97767131D01*
X145948570Y-97762699D01*
X145957440Y-97756352D01*
X145966738Y-97749198D01*
X145976464Y-97741237D01*
X145986618Y-97732468D01*
X145997199Y-97722892D01*
X146008209Y-97712508D01*
X146019646Y-97701317D01*
X146031512Y-97689318D01*
X146043805Y-97676512D01*
X146056526Y-97662899D01*
X146069676Y-97648478D01*
X146083253Y-97633250D01*
X146111691Y-97600370D01*
X146141841Y-97564261D01*
X146419859Y-97225266D01*
X146063292Y-96701267D01*
X146024083Y-96643841D01*
X145994305Y-96600755D01*
X145973957Y-96572010D01*
X145967320Y-96563015D01*
X145963040Y-96557605D01*
X145959556Y-96553418D01*
X145956080Y-96549385D01*
X145952612Y-96545505D01*
X145949152Y-96541779D01*
X145945700Y-96538206D01*
X145942256Y-96534786D01*
X145938820Y-96531520D01*
X145935393Y-96528408D01*
X145931973Y-96525448D01*
X145928562Y-96522642D01*
X145925158Y-96519990D01*
X145921763Y-96517491D01*
X145918376Y-96515145D01*
X145914997Y-96512953D01*
X145911626Y-96510914D01*
X145908263Y-96509029D01*
X145904823Y-96507249D01*
X145901222Y-96505525D01*
X145897459Y-96503858D01*
X145893535Y-96502247D01*
X145889450Y-96500693D01*
X145885203Y-96499195D01*
X145880794Y-96497753D01*
X145876224Y-96496369D01*
X145871492Y-96495040D01*
X145866599Y-96493769D01*
X145861544Y-96492553D01*
X145856328Y-96491395D01*
X145850951Y-96490292D01*
X145845411Y-96489247D01*
X145833849Y-96487325D01*
X145833849Y-96449085D01*
X146529414Y-96449085D01*
X146529414Y-96487325D01*
G37*
X146529414Y-96487325D02*
X146494273Y-96487325D01*
X146486922Y-96487401D01*
X146479853Y-96487632D01*
X146473066Y-96488015D01*
X146466562Y-96488552D01*
X146460341Y-96489243D01*
X146454402Y-96490086D01*
X146448746Y-96491084D01*
X146443372Y-96492234D01*
X146438281Y-96493538D01*
X146433473Y-96494996D01*
X146428947Y-96496606D01*
X146424704Y-96498371D01*
X146420744Y-96500288D01*
X146417066Y-96502359D01*
X146413670Y-96504584D01*
X146410558Y-96506961D01*
X146407679Y-96509327D01*
X146404987Y-96511774D01*
X146402480Y-96514301D01*
X146400158Y-96516909D01*
X146398023Y-96519598D01*
X146396073Y-96522368D01*
X146394309Y-96525218D01*
X146392730Y-96528149D01*
X146391337Y-96531161D01*
X146390130Y-96534253D01*
X146389109Y-96537427D01*
X146388273Y-96540681D01*
X146387623Y-96544016D01*
X146387159Y-96547431D01*
X146386880Y-96550928D01*
X146386787Y-96554505D01*
X146386816Y-96557323D01*
X146386900Y-96560092D01*
X146387042Y-96562813D01*
X146387240Y-96565486D01*
X146387494Y-96568110D01*
X146387805Y-96570685D01*
X146388172Y-96573213D01*
X146388596Y-96575691D01*
X146389076Y-96578122D01*
X146389613Y-96580504D01*
X146390207Y-96582837D01*
X146390856Y-96585122D01*
X146391563Y-96587359D01*
X146392326Y-96589547D01*
X146393146Y-96591686D01*
X146394022Y-96593778D01*
X146465335Y-96701267D01*
X146638968Y-96965848D01*
X146786763Y-96784983D01*
X146813408Y-96751409D01*
X146825399Y-96735603D01*
X146836501Y-96720452D01*
X146846715Y-96705954D01*
X146856041Y-96692110D01*
X146864478Y-96678921D01*
X146872028Y-96666385D01*
X146878689Y-96654503D01*
X146884463Y-96643276D01*
X146889348Y-96632702D01*
X146893345Y-96622783D01*
X146896453Y-96613517D01*
X146898674Y-96604905D01*
X146900006Y-96596948D01*
X146900450Y-96589644D01*
X146900386Y-96586172D01*
X146900192Y-96582732D01*
X146899869Y-96579325D01*
X146899417Y-96575950D01*
X146898835Y-96572607D01*
X146898125Y-96569296D01*
X146897285Y-96566018D01*
X146896316Y-96562772D01*
X146895218Y-96559559D01*
X146893991Y-96556377D01*
X146892635Y-96553228D01*
X146891149Y-96550111D01*
X146889534Y-96547027D01*
X146887790Y-96543975D01*
X146885917Y-96540955D01*
X146883914Y-96537967D01*
X146881920Y-96535036D01*
X146879812Y-96532186D01*
X146877592Y-96529417D01*
X146875258Y-96526728D01*
X146872811Y-96524120D01*
X146870252Y-96521593D01*
X146867579Y-96519147D01*
X146864793Y-96516781D01*
X146861895Y-96514496D01*
X146858883Y-96512291D01*
X146855758Y-96510168D01*
X146852520Y-96508125D01*
X146849169Y-96506162D01*
X146845705Y-96504281D01*
X146842128Y-96502480D01*
X146838438Y-96500760D01*
X146834563Y-96499133D01*
X146830429Y-96497611D01*
X146826036Y-96496194D01*
X146821385Y-96494882D01*
X146816476Y-96493675D01*
X146811308Y-96492573D01*
X146805882Y-96491576D01*
X146800198Y-96490684D01*
X146794255Y-96489896D01*
X146788054Y-96489214D01*
X146781595Y-96488637D01*
X146774877Y-96488164D01*
X146767900Y-96487797D01*
X146760665Y-96487535D01*
X146753172Y-96487377D01*
X146745421Y-96487325D01*
X146745421Y-96449085D01*
X147261151Y-96449085D01*
X147261151Y-96487325D01*
X147246278Y-96487793D01*
X147232148Y-96488681D01*
X147218761Y-96489989D01*
X147206117Y-96491717D01*
X147194215Y-96493865D01*
X147183056Y-96496432D01*
X147177755Y-96497874D01*
X147172640Y-96499420D01*
X147167711Y-96501071D01*
X147162967Y-96502828D01*
X147158296Y-96504604D01*
X147153584Y-96506575D01*
X147148833Y-96508739D01*
X147144040Y-96511096D01*
X147139208Y-96513648D01*
X147134335Y-96516393D01*
X147129422Y-96519332D01*
X147124468Y-96522465D01*
X147119474Y-96525792D01*
X147114439Y-96529312D01*
X147109365Y-96533026D01*
X147104249Y-96536934D01*
X147099094Y-96541036D01*
X147093898Y-96545332D01*
X147088661Y-96549821D01*
X147083385Y-96554505D01*
X147079711Y-96558013D01*
X147075407Y-96562337D01*
X147064911Y-96573431D01*
X147051895Y-96587787D01*
X147036359Y-96605405D01*
X147018305Y-96626286D01*
X146997731Y-96650428D01*
X146974638Y-96677833D01*
X146949027Y-96708499D01*
X146683409Y-97028894D01*
X147069949Y-97602503D01*
X147093107Y-97636415D01*
X147114520Y-97666840D01*
X147134189Y-97693776D01*
X147152114Y-97717224D01*
X147168296Y-97737185D01*
X147182733Y-97753657D01*
X147195426Y-97766640D01*
X147201119Y-97771824D01*
X147206375Y-97776136D01*
X147211599Y-97779789D01*
X147216936Y-97783257D01*
X147222387Y-97786539D01*
X147227950Y-97789635D01*
X147233626Y-97792546D01*
X147239415Y-97795271D01*
X147245318Y-97797811D01*
X147251333Y-97800165D01*
X147257462Y-97802333D01*
X147263703Y-97804315D01*
X147270058Y-97806112D01*
X147276525Y-97807722D01*
X147283106Y-97809148D01*
X147289800Y-97810387D01*
X147296607Y-97811440D01*
X147303526Y-97812308D01*
X147303526Y-97850550D01*
X146620364Y-97850550D01*
X146620364Y-97812308D01*
X146639872Y-97810565D01*
X146657571Y-97808433D01*
X146673462Y-97805914D01*
X146680729Y-97804509D01*
X146687544Y-97803007D01*
X146693906Y-97801408D01*
X146699817Y-97799712D01*
X146705275Y-97797920D01*
X146710281Y-97796030D01*
X146714835Y-97794044D01*
X146718937Y-97791960D01*
X146722587Y-97789780D01*
X146725784Y-97787503D01*
X146728663Y-97785146D01*
X146731355Y-97782723D01*
X146733862Y-97780236D01*
X146736184Y-97777685D01*
X146738320Y-97775069D01*
X146740270Y-97772388D01*
X146742034Y-97769643D01*
X146743613Y-97766833D01*
X146745005Y-97763959D01*
X146746213Y-97761020D01*
X146747234Y-97758016D01*
X146748070Y-97754948D01*
X146748720Y-97751815D01*
X146749185Y-97748618D01*
X146749463Y-97745356D01*
X146749556Y-97742029D01*
X146749528Y-97739720D01*
X146749443Y-97737443D01*
X146749302Y-97735198D01*
X146749104Y-97732985D01*
X146748849Y-97730805D01*
X146748538Y-97728657D01*
X146748171Y-97726542D01*
X146747747Y-97724459D01*
X146747266Y-97722408D01*
X146746729Y-97720389D01*
X146746136Y-97718403D01*
X146745486Y-97716449D01*
X146744779Y-97714527D01*
X146744016Y-97712638D01*
X146743196Y-97710782D01*
X146742320Y-97708957D01*
X146738025Y-97700365D01*
X146732373Y-97690094D01*
X146725365Y-97678144D01*
X146716999Y-97664514D01*
X146707278Y-97649205D01*
X146696200Y-97632217D01*
X146683765Y-97613549D01*
X146669974Y-97593201D01*
X146465335Y-97290378D01*
X146251395Y-97551859D01*
X146228867Y-97580378D01*
X146209343Y-97606508D01*
X146200707Y-97618676D01*
X146192822Y-97630247D01*
X146185689Y-97641220D01*
X146179306Y-97651596D01*
X146173674Y-97661374D01*
X146168793Y-97670555D01*
X146164663Y-97679138D01*
X146161284Y-97687123D01*
X146158656Y-97694511D01*
X146156778Y-97701301D01*
X146155652Y-97707494D01*
X146155277Y-97713089D01*
X146155373Y-97716820D01*
X146155664Y-97720518D01*
X146156149Y-97724184D01*
X146156827Y-97727818D01*
X146157699Y-97731419D01*
X146158765Y-97734988D01*
X146160024Y-97738525D01*
X146161478Y-97742029D01*
X146163125Y-97745501D01*
X146164966Y-97748941D01*
X146167001Y-97752348D01*
X146169229Y-97755723D01*
X146171652Y-97759066D01*
X146174268Y-97762376D01*
X146177078Y-97765654D01*
X146180081Y-97768900D01*
X146183275Y-97772073D01*
X146186654Y-97775134D01*
X146190219Y-97778081D01*
X146193969Y-97780916D01*
X146197905Y-97783637D01*
X146202028Y-97786245D01*
X146206335Y-97788740D01*
X146210829Y-97791122D01*
X146215508Y-97793391D01*
X146220373Y-97795547D01*
X146225424Y-97797589D01*
X146230660Y-97799519D01*
X146236082Y-97801336D01*
X146241690Y-97803039D01*
X146247483Y-97804630D01*
X146253462Y-97806107D01*
X146256353Y-97806858D01*
X146259599Y-97807561D01*
X146263200Y-97808215D01*
X146267156Y-97808820D01*
X146271468Y-97809377D01*
X146276135Y-97809886D01*
X146286534Y-97810758D01*
X146298355Y-97811436D01*
X146311597Y-97811921D01*
X146326260Y-97812211D01*
X146342345Y-97812308D01*
X146342345Y-97850550D01*
X145803877Y-97850550D01*
X145803877Y-97812308D01*
X145815222Y-97810540D01*
X145826259Y-97808594D01*
X145836990Y-97806470D01*
X145847414Y-97804169D01*
X145857532Y-97801690D01*
X145867342Y-97799034D01*
X145876846Y-97796199D01*
X145886042Y-97793188D01*
X145894932Y-97789998D01*
X145903515Y-97786631D01*
X145911792Y-97783086D01*
X145919761Y-97779364D01*
X145927424Y-97775464D01*
X145934779Y-97771387D01*
X145941828Y-97767131D01*
X145948570Y-97762699D01*
X145957440Y-97756352D01*
X145966738Y-97749198D01*
X145976464Y-97741237D01*
X145986618Y-97732468D01*
X145997199Y-97722892D01*
X146008209Y-97712508D01*
X146019646Y-97701317D01*
X146031512Y-97689318D01*
X146043805Y-97676512D01*
X146056526Y-97662899D01*
X146069676Y-97648478D01*
X146083253Y-97633250D01*
X146111691Y-97600370D01*
X146141841Y-97564261D01*
X146419859Y-97225266D01*
X146063292Y-96701267D01*
X146024083Y-96643841D01*
X145994305Y-96600755D01*
X145973957Y-96572010D01*
X145967320Y-96563015D01*
X145963040Y-96557605D01*
X145959556Y-96553418D01*
X145956080Y-96549385D01*
X145952612Y-96545505D01*
X145949152Y-96541779D01*
X145945700Y-96538206D01*
X145942256Y-96534786D01*
X145938820Y-96531520D01*
X145935393Y-96528408D01*
X145931973Y-96525448D01*
X145928562Y-96522642D01*
X145925158Y-96519990D01*
X145921763Y-96517491D01*
X145918376Y-96515145D01*
X145914997Y-96512953D01*
X145911626Y-96510914D01*
X145908263Y-96509029D01*
X145904823Y-96507249D01*
X145901222Y-96505525D01*
X145897459Y-96503858D01*
X145893535Y-96502247D01*
X145889450Y-96500693D01*
X145885203Y-96499195D01*
X145880794Y-96497753D01*
X145876224Y-96496369D01*
X145871492Y-96495040D01*
X145866599Y-96493769D01*
X145861544Y-96492553D01*
X145856328Y-96491395D01*
X145850951Y-96490292D01*
X145845411Y-96489247D01*
X145833849Y-96487325D01*
X145833849Y-96449085D01*
X146529414Y-96449085D01*
X146529414Y-96487325D01*
D10*
X128318767Y-88693608D02*
X128251416Y-88746481D01*
X126400577Y-83098304D02*
X126468396Y-83079130D01*
X128964864Y-84387902D02*
X128966714Y-84461561D01*
X126651049Y-89020058D02*
X126568067Y-88992091D01*
X125398682Y-87315986D02*
X125398682Y-87315986D01*
X127274771Y-89097689D02*
X127182697Y-89100002D01*
X127714345Y-89020058D02*
X127629571Y-89044025D01*
X125398682Y-85175167D02*
X128966712Y-85175167D01*
X128826945Y-88011696D02*
X128791310Y-88090764D01*
X128794950Y-83780183D02*
X128826393Y-83841739D01*
D11*
G36*
X145022530Y-96420145D02*
G01*
X145042166Y-96420145D01*
X145547562Y-97569431D01*
X145565245Y-97608365D01*
X145582120Y-97643521D01*
X145598188Y-97674898D01*
X145613449Y-97702497D01*
X145627902Y-97726316D01*
X145634826Y-97736809D01*
X145641548Y-97746357D01*
X145648068Y-97754960D01*
X145654386Y-97762619D01*
X145660502Y-97769332D01*
X145666417Y-97775101D01*
X145670923Y-97779001D01*
X145675654Y-97782692D01*
X145680612Y-97786172D01*
X145685796Y-97789443D01*
X145691206Y-97792503D01*
X145696842Y-97795354D01*
X145702704Y-97797994D01*
X145708792Y-97800424D01*
X145715106Y-97802645D01*
X145721647Y-97804655D01*
X145728413Y-97806456D01*
X145735405Y-97808046D01*
X145742624Y-97809427D01*
X145750068Y-97810597D01*
X145757739Y-97811558D01*
X145765636Y-97812308D01*
X145765636Y-97850550D01*
X145087642Y-97850550D01*
X145087642Y-97812308D01*
X145115547Y-97812308D01*
X145135200Y-97811953D01*
X145144458Y-97811509D01*
X145153336Y-97810887D01*
X145161834Y-97810088D01*
X145169953Y-97809111D01*
X145177692Y-97807957D01*
X145185052Y-97806624D01*
X145192032Y-97805115D01*
X145198633Y-97803427D01*
X145204854Y-97801562D01*
X145210696Y-97799520D01*
X145216159Y-97797299D01*
X145221242Y-97794901D01*
X145225945Y-97792326D01*
X145230269Y-97789572D01*
X145233022Y-97787449D01*
X145235598Y-97785212D01*
X145237996Y-97782862D01*
X145240216Y-97780399D01*
X145242259Y-97777823D01*
X145244124Y-97775134D01*
X145245812Y-97772332D01*
X145247322Y-97769417D01*
X145248654Y-97766389D01*
X145249809Y-97763248D01*
X145250786Y-97759994D01*
X145251585Y-97756627D01*
X145252207Y-97753147D01*
X145252651Y-97749554D01*
X145252917Y-97745848D01*
X145253006Y-97742029D01*
X145252909Y-97737362D01*
X145252618Y-97732663D01*
X145252134Y-97727931D01*
X145251456Y-97723167D01*
X145250583Y-97718371D01*
X145249518Y-97713542D01*
X145248258Y-97708681D01*
X145246805Y-97703787D01*
X145246441Y-97702395D01*
X145245868Y-97700542D01*
X145244091Y-97695455D01*
X145241475Y-97688527D01*
X145238019Y-97679759D01*
X145233724Y-97669149D01*
X145228588Y-97656698D01*
X145215799Y-97626273D01*
X145141385Y-97451609D01*
X144646324Y-97451609D01*
X144587413Y-97588034D01*
X144580630Y-97604716D01*
X144574752Y-97620655D01*
X144569778Y-97635850D01*
X144567631Y-97643170D01*
X144565709Y-97650304D01*
X144564013Y-97657252D01*
X144562544Y-97664014D01*
X144561301Y-97670590D01*
X144560283Y-97676981D01*
X144559492Y-97683186D01*
X144558927Y-97689205D01*
X144558588Y-97695039D01*
X144558475Y-97700687D01*
X144558660Y-97707930D01*
X144559218Y-97714931D01*
X144560146Y-97721689D01*
X144561446Y-97728205D01*
X144563117Y-97734479D01*
X144565160Y-97740511D01*
X144567574Y-97746300D01*
X144570360Y-97751847D01*
X144573517Y-97757152D01*
X144577045Y-97762215D01*
X144580945Y-97767035D01*
X144585217Y-97771613D01*
X144589859Y-97775949D01*
X144594874Y-97780043D01*
X144600259Y-97783894D01*
X144606017Y-97787503D01*
X144609824Y-97789538D01*
X144614269Y-97791509D01*
X144619351Y-97793414D01*
X144625072Y-97795256D01*
X144631431Y-97797032D01*
X144638427Y-97798744D01*
X144646062Y-97800391D01*
X144654334Y-97801974D01*
X144663244Y-97803492D01*
X144672792Y-97804945D01*
X144682978Y-97806334D01*
X144693802Y-97807658D01*
X144705264Y-97808917D01*
X144717364Y-97810112D01*
X144743477Y-97812308D01*
X144743477Y-97850550D01*
X144277354Y-97850550D01*
X144277354Y-97812308D01*
X144286681Y-97810734D01*
X144295797Y-97808853D01*
X144304703Y-97806665D01*
X144313399Y-97804170D01*
X144321885Y-97801368D01*
X144330162Y-97798260D01*
X144338228Y-97794845D01*
X144346084Y-97791122D01*
X144353731Y-97787093D01*
X144361167Y-97782757D01*
X144368394Y-97778114D01*
X144375411Y-97773164D01*
X144382217Y-97767908D01*
X144388814Y-97762344D01*
X144395201Y-97756474D01*
X144401378Y-97750296D01*
X144407539Y-97743413D01*
X144413877Y-97735682D01*
X144420393Y-97727103D01*
X144427087Y-97717677D01*
X144433958Y-97707402D01*
X144441008Y-97696280D01*
X144448234Y-97684309D01*
X144455639Y-97671491D01*
X144463221Y-97657825D01*
X144470980Y-97643311D01*
X144478917Y-97627950D01*
X144487032Y-97611740D01*
X144503795Y-97576778D01*
X144521268Y-97538425D01*
X144594466Y-97375125D01*
X144682498Y-97375125D01*
X145106245Y-97375125D01*
X144897472Y-96892469D01*
X144682498Y-97375125D01*
X144594466Y-97375125D01*
X145022530Y-96420145D01*
G37*
X145022530Y-96420145D02*
X145042166Y-96420145D01*
X145547562Y-97569431D01*
X145565245Y-97608365D01*
X145582120Y-97643521D01*
X145598188Y-97674898D01*
X145613449Y-97702497D01*
X145627902Y-97726316D01*
X145634826Y-97736809D01*
X145641548Y-97746357D01*
X145648068Y-97754960D01*
X145654386Y-97762619D01*
X145660502Y-97769332D01*
X145666417Y-97775101D01*
X145670923Y-97779001D01*
X145675654Y-97782692D01*
X145680612Y-97786172D01*
X145685796Y-97789443D01*
X145691206Y-97792503D01*
X145696842Y-97795354D01*
X145702704Y-97797994D01*
X145708792Y-97800424D01*
X145715106Y-97802645D01*
X145721647Y-97804655D01*
X145728413Y-97806456D01*
X145735405Y-97808046D01*
X145742624Y-97809427D01*
X145750068Y-97810597D01*
X145757739Y-97811558D01*
X145765636Y-97812308D01*
X145765636Y-97850550D01*
X145087642Y-97850550D01*
X145087642Y-97812308D01*
X145115547Y-97812308D01*
X145135200Y-97811953D01*
X145144458Y-97811509D01*
X145153336Y-97810887D01*
X145161834Y-97810088D01*
X145169953Y-97809111D01*
X145177692Y-97807957D01*
X145185052Y-97806624D01*
X145192032Y-97805115D01*
X145198633Y-97803427D01*
X145204854Y-97801562D01*
X145210696Y-97799520D01*
X145216159Y-97797299D01*
X145221242Y-97794901D01*
X145225945Y-97792326D01*
X145230269Y-97789572D01*
X145233022Y-97787449D01*
X145235598Y-97785212D01*
X145237996Y-97782862D01*
X145240216Y-97780399D01*
X145242259Y-97777823D01*
X145244124Y-97775134D01*
X145245812Y-97772332D01*
X145247322Y-97769417D01*
X145248654Y-97766389D01*
X145249809Y-97763248D01*
X145250786Y-97759994D01*
X145251585Y-97756627D01*
X145252207Y-97753147D01*
X145252651Y-97749554D01*
X145252917Y-97745848D01*
X145253006Y-97742029D01*
X145252909Y-97737362D01*
X145252618Y-97732663D01*
X145252134Y-97727931D01*
X145251456Y-97723167D01*
X145250583Y-97718371D01*
X145249518Y-97713542D01*
X145248258Y-97708681D01*
X145246805Y-97703787D01*
X145246441Y-97702395D01*
X145245868Y-97700542D01*
X145244091Y-97695455D01*
X145241475Y-97688527D01*
X145238019Y-97679759D01*
X145233724Y-97669149D01*
X145228588Y-97656698D01*
X145215799Y-97626273D01*
X145141385Y-97451609D01*
X144646324Y-97451609D01*
X144587413Y-97588034D01*
X144580630Y-97604716D01*
X144574752Y-97620655D01*
X144569778Y-97635850D01*
X144567631Y-97643170D01*
X144565709Y-97650304D01*
X144564013Y-97657252D01*
X144562544Y-97664014D01*
X144561301Y-97670590D01*
X144560283Y-97676981D01*
X144559492Y-97683186D01*
X144558927Y-97689205D01*
X144558588Y-97695039D01*
X144558475Y-97700687D01*
X144558660Y-97707930D01*
X144559218Y-97714931D01*
X144560146Y-97721689D01*
X144561446Y-97728205D01*
X144563117Y-97734479D01*
X144565160Y-97740511D01*
X144567574Y-97746300D01*
X144570360Y-97751847D01*
X144573517Y-97757152D01*
X144577045Y-97762215D01*
X144580945Y-97767035D01*
X144585217Y-97771613D01*
X144589859Y-97775949D01*
X144594874Y-97780043D01*
X144600259Y-97783894D01*
X144606017Y-97787503D01*
X144609824Y-97789538D01*
X144614269Y-97791509D01*
X144619351Y-97793414D01*
X144625072Y-97795256D01*
X144631431Y-97797032D01*
X144638427Y-97798744D01*
X144646062Y-97800391D01*
X144654334Y-97801974D01*
X144663244Y-97803492D01*
X144672792Y-97804945D01*
X144682978Y-97806334D01*
X144693802Y-97807658D01*
X144705264Y-97808917D01*
X144717364Y-97810112D01*
X144743477Y-97812308D01*
X144743477Y-97850550D01*
X144277354Y-97850550D01*
X144277354Y-97812308D01*
X144286681Y-97810734D01*
X144295797Y-97808853D01*
X144304703Y-97806665D01*
X144313399Y-97804170D01*
X144321885Y-97801368D01*
X144330162Y-97798260D01*
X144338228Y-97794845D01*
X144346084Y-97791122D01*
X144353731Y-97787093D01*
X144361167Y-97782757D01*
X144368394Y-97778114D01*
X144375411Y-97773164D01*
X144382217Y-97767908D01*
X144388814Y-97762344D01*
X144395201Y-97756474D01*
X144401378Y-97750296D01*
X144407539Y-97743413D01*
X144413877Y-97735682D01*
X144420393Y-97727103D01*
X144427087Y-97717677D01*
X144433958Y-97707402D01*
X144441008Y-97696280D01*
X144448234Y-97684309D01*
X144455639Y-97671491D01*
X144463221Y-97657825D01*
X144470980Y-97643311D01*
X144478917Y-97627950D01*
X144487032Y-97611740D01*
X144503795Y-97576778D01*
X144521268Y-97538425D01*
X144594466Y-97375125D01*
X144682498Y-97375125D01*
X145106245Y-97375125D01*
X144897472Y-96892469D01*
X144682498Y-97375125D01*
X144594466Y-97375125D01*
X145022530Y-96420145D01*
D10*
X127543117Y-89063882D02*
X127455092Y-89079519D01*
X126183893Y-88796127D02*
X126113978Y-88746481D01*
X127182697Y-89100002D02*
X127090623Y-89097689D01*
D12*
G36*
X142886466Y-95323418D02*
G01*
X142957986Y-95541856D01*
X142985344Y-95627485D01*
X143007102Y-95697389D01*
X143031660Y-95620375D01*
X143062250Y-95527206D01*
X143098872Y-95417880D01*
X143141524Y-95292398D01*
X143746426Y-93534566D01*
X144196224Y-93534566D01*
X144196224Y-96044647D01*
X144189937Y-96061018D01*
X143873955Y-96061018D01*
X143873955Y-93946450D01*
X143139802Y-96061018D01*
X142838212Y-96061018D01*
X142107506Y-93910259D01*
X142107506Y-96061018D01*
X141785237Y-96061018D01*
X141785237Y-93534566D01*
X142288459Y-93534566D01*
X142886466Y-95323418D01*
G37*
X142886466Y-95323418D02*
X142957986Y-95541856D01*
X142985344Y-95627485D01*
X143007102Y-95697389D01*
X143031660Y-95620375D01*
X143062250Y-95527206D01*
X143098872Y-95417880D01*
X143141524Y-95292398D01*
X143746426Y-93534566D01*
X144196224Y-93534566D01*
X144196224Y-96044647D01*
X144189937Y-96061018D01*
X143873955Y-96061018D01*
X143873955Y-93946450D01*
X143139802Y-96061018D01*
X142838212Y-96061018D01*
X142107506Y-93910259D01*
X142107506Y-96061018D01*
X141785237Y-96061018D01*
X141785237Y-93534566D01*
X142288459Y-93534566D01*
X142886466Y-95323418D01*
D10*
X127090623Y-89097689D02*
X126999788Y-89090825D01*
X126537560Y-83063245D02*
X126607980Y-83050736D01*
X128910735Y-87762860D02*
X128886768Y-87847633D01*
X126334192Y-83120678D02*
X126400577Y-83098304D01*
X125920061Y-88578623D02*
X125861065Y-88516732D01*
X126206073Y-83174670D02*
X126269327Y-83146162D01*
X125398682Y-87315986D02*
X125398682Y-84461561D01*
X125478626Y-87847634D02*
X125454659Y-87762860D01*
X125768589Y-83500965D02*
X125815786Y-83451452D01*
X128921933Y-84104062D02*
X128937819Y-84173226D01*
X127182697Y-89100002D02*
X127182697Y-89100002D01*
X126735823Y-89044025D02*
X126651049Y-89020058D01*
X126679568Y-83041691D02*
X126752236Y-83036199D01*
X127455092Y-89079519D02*
X127365606Y-89090825D01*
X128946229Y-87588380D02*
X128930593Y-87676405D01*
X128752007Y-88167709D02*
X128709146Y-88242422D01*
X125406024Y-84315234D02*
X125415068Y-84243646D01*
X125434801Y-87676406D02*
X125419165Y-87588381D01*
X128959373Y-84315234D02*
X128964864Y-84387902D01*
X125641783Y-83662518D02*
X125681500Y-83606586D01*
X127365606Y-89090825D02*
X127274771Y-89097689D01*
X126607980Y-83050736D02*
X126679568Y-83041691D01*
X125861065Y-88516732D02*
X125805076Y-88452056D01*
X127827837Y-83063245D02*
X127897001Y-83079130D01*
D12*
G36*
X145160191Y-93534566D02*
G01*
X145520374Y-93534566D01*
X146549830Y-96049869D01*
X146549830Y-96061018D01*
X146173530Y-96061018D01*
X145878834Y-95295844D01*
X144822412Y-95295844D01*
X144544951Y-96061018D01*
X144196224Y-96061018D01*
X144196224Y-96044647D01*
X144588363Y-95023553D01*
X144918920Y-95023553D01*
X145775432Y-95023553D01*
X145511757Y-94323867D01*
X145455316Y-94171565D01*
X145406631Y-94033481D01*
X145365701Y-93909614D01*
X145348145Y-93853012D01*
X145332527Y-93799965D01*
X145319844Y-93860660D01*
X145305922Y-93921247D01*
X145290762Y-93981726D01*
X145274363Y-94042098D01*
X145256726Y-94102362D01*
X145237849Y-94162518D01*
X145217734Y-94222567D01*
X145196381Y-94282508D01*
X144918920Y-95023553D01*
X144588363Y-95023553D01*
X145160191Y-93534566D01*
G37*
X145160191Y-93534566D02*
X145520374Y-93534566D01*
X146549830Y-96049869D01*
X146549830Y-96061018D01*
X146173530Y-96061018D01*
X145878834Y-95295844D01*
X144822412Y-95295844D01*
X144544951Y-96061018D01*
X144196224Y-96061018D01*
X144196224Y-96044647D01*
X144588363Y-95023553D01*
X144918920Y-95023553D01*
X145775432Y-95023553D01*
X145511757Y-94323867D01*
X145455316Y-94171565D01*
X145406631Y-94033481D01*
X145365701Y-93909614D01*
X145348145Y-93853012D01*
X145332527Y-93799965D01*
X145319844Y-93860660D01*
X145305922Y-93921247D01*
X145290762Y-93981726D01*
X145274363Y-94042098D01*
X145256726Y-94102362D01*
X145237849Y-94162518D01*
X145217734Y-94222567D01*
X145196381Y-94282508D01*
X144918920Y-95023553D01*
X144588363Y-95023553D01*
X145160191Y-93534566D01*
D10*
X128159324Y-83174670D02*
X128220881Y-83206113D01*
X125604735Y-83720413D02*
X125641783Y-83662518D01*
X128338545Y-83277449D02*
X128394477Y-83317166D01*
X128854901Y-83904993D02*
X128880386Y-83969857D01*
X126752236Y-83036199D02*
X126825895Y-83034349D01*
X125681500Y-83606586D02*
X125723798Y-83552705D01*
X126269327Y-83146162D02*
X126334192Y-83120678D01*
X125485011Y-83969857D02*
X125510496Y-83904993D01*
X127629571Y-89044025D02*
X127543117Y-89063882D01*
X127685829Y-83041691D02*
X127757417Y-83050736D01*
X125400532Y-84387902D02*
X125406024Y-84315234D01*
X128549611Y-83451452D02*
X128596808Y-83500965D01*
X127797327Y-88992091D02*
X127714345Y-89020058D01*
X128966714Y-84461561D02*
X128966712Y-87315985D01*
X128950328Y-84243646D02*
X128959373Y-84315234D01*
X126084747Y-83240402D02*
X126144517Y-83206113D01*
X125613387Y-88167710D02*
X125574083Y-88090764D01*
X127613161Y-83036199D02*
X127685829Y-83041691D01*
X128031205Y-83120678D02*
X128096070Y-83146162D01*
X128966712Y-87315985D02*
X128964399Y-87408059D01*
X128964399Y-87408059D02*
X128957535Y-87498894D01*
X125752203Y-88384706D02*
X125702557Y-88314791D01*
X125462637Y-84036243D02*
X125485011Y-83969857D01*
X125656248Y-88242422D02*
X125613387Y-88167710D01*
X127957475Y-88924600D02*
X127878407Y-88960235D01*
X125407859Y-87498895D02*
X125400995Y-87408060D01*
D12*
G36*
X148219770Y-95518159D02*
G01*
X148219770Y-93534566D01*
X148540316Y-93534566D01*
X148540316Y-96061018D01*
X148197367Y-96061018D01*
X146870376Y-94075702D01*
X146870376Y-96061018D01*
X146554393Y-96061018D01*
X146549830Y-96049869D01*
X146549830Y-93534566D01*
X146892780Y-93534566D01*
X148219770Y-95518159D01*
G37*
X148219770Y-95518159D02*
X148219770Y-93534566D01*
X148540316Y-93534566D01*
X148540316Y-96061018D01*
X148197367Y-96061018D01*
X146870376Y-94075702D01*
X146870376Y-96061018D01*
X146554393Y-96061018D01*
X146549830Y-96049869D01*
X146549830Y-93534566D01*
X146892780Y-93534566D01*
X148219770Y-95518159D01*
D10*
X128596808Y-83500965D02*
X128641599Y-83552705D01*
X127964820Y-83098304D02*
X128031205Y-83120678D01*
X126026852Y-83277449D02*
X126084747Y-83240402D01*
X128500099Y-83404256D02*
X128549611Y-83451452D01*
X127878407Y-88960235D02*
X127797327Y-88992091D01*
X126825895Y-83034349D02*
X126825895Y-83034349D01*
X125702557Y-88314791D02*
X125656248Y-88242422D01*
X125454659Y-87762860D02*
X125434801Y-87676406D01*
X128880386Y-83969857D02*
X128902759Y-84036243D01*
X126144517Y-83206113D02*
X126206073Y-83174670D01*
X126330974Y-88885297D02*
X126256262Y-88842436D01*
X125538449Y-88011696D02*
X125506592Y-87930616D01*
X128096070Y-83146162D02*
X128159324Y-83174670D01*
X128791310Y-88090764D02*
X128752007Y-88167709D01*
X127182697Y-81963940D02*
X127182697Y-85175167D01*
X125539004Y-83841739D02*
X125570446Y-83780183D01*
X128109132Y-88842436D02*
X128034420Y-88885297D01*
X125981951Y-88637618D02*
X125920061Y-88578623D01*
X128930593Y-87676405D02*
X128910735Y-87762860D01*
X125398682Y-84461561D02*
X125400532Y-84387902D01*
X126468396Y-83079130D02*
X126537560Y-83063245D01*
X125865298Y-83404256D02*
X125917039Y-83359464D01*
X128957535Y-87498894D02*
X128946229Y-87588380D01*
X128181501Y-88796127D02*
X128109132Y-88842436D01*
X128251416Y-88746481D02*
X128181501Y-88796127D01*
X125570446Y-83780183D02*
X125604735Y-83720413D01*
X126113978Y-88746481D02*
X126046627Y-88693608D01*
X125443463Y-84104062D02*
X125462637Y-84036243D01*
X125574083Y-88090764D02*
X125538449Y-88011696D01*
X128937819Y-84173226D02*
X128950328Y-84243646D01*
X128902759Y-84036243D02*
X128921933Y-84104062D01*
X125917039Y-83359464D02*
X125970920Y-83317166D01*
X128560318Y-88452056D02*
X128504329Y-88516732D01*
X125723798Y-83552705D02*
X125768589Y-83500965D01*
M02*
