%TF.GenerationSoftware,KiCad,Pcbnew,(6.0.6)*%
%TF.CreationDate,2022-11-01T14:59:24+00:00*%
%TF.ProjectId,frontcase,66726f6e-7463-4617-9365-2e6b69636164,rev?*%
%TF.SameCoordinates,Original*%
%TF.FileFunction,Soldermask,Bot*%
%TF.FilePolarity,Negative*%
%FSLAX46Y46*%
G04 Gerber Fmt 4.6, Leading zero omitted, Abs format (unit mm)*
G04 Created by KiCad (PCBNEW (6.0.6)) date 2022-11-01 14:59:24*
%MOMM*%
%LPD*%
G01*
G04 APERTURE LIST*
%ADD10C,3.067801*%
%ADD11C,0.150000*%
%ADD12C,0.100000*%
%ADD13C,4.000000*%
%ADD14C,5.000000*%
%ADD15C,13.000000*%
G04 APERTURE END LIST*
D10*
X138833900Y-103200000D02*
G75*
G03*
X138833900Y-103200000I-1533900J0D01*
G01*
D11*
X111750000Y-80500000D02*
X176250000Y-80500000D01*
X176250000Y-80500000D02*
X176250000Y-111500000D01*
X176250000Y-111500000D02*
X111750000Y-111500000D01*
X111750000Y-111500000D02*
X111750000Y-80500000D01*
G36*
X111750000Y-80500000D02*
G01*
X176250000Y-80500000D01*
X176250000Y-111500000D01*
X111750000Y-111500000D01*
X111750000Y-80500000D01*
G37*
D12*
X138453429Y-101805745D02*
X138461795Y-101806162D01*
X138470178Y-101806857D01*
X138478579Y-101807830D01*
X138486997Y-101809081D01*
X138495432Y-101810610D01*
X138503885Y-101812417D01*
X138512355Y-101814502D01*
X138520843Y-101816865D01*
X138529348Y-101819506D01*
X138537870Y-101822424D01*
X138546409Y-101825621D01*
X138554966Y-101829096D01*
X138563540Y-101832848D01*
X138572132Y-101836878D01*
X138580740Y-101841187D01*
X138598011Y-101850187D01*
X138606256Y-101854765D01*
X138614239Y-101859395D01*
X138621963Y-101864078D01*
X138629425Y-101868813D01*
X138636627Y-101873599D01*
X138643568Y-101878438D01*
X138650249Y-101883329D01*
X138656669Y-101888273D01*
X138662828Y-101893268D01*
X138668727Y-101898315D01*
X138674365Y-101903415D01*
X138679743Y-101908566D01*
X138684859Y-101913769D01*
X138689715Y-101919025D01*
X138717167Y-101950186D01*
X138743923Y-101981954D01*
X138769985Y-102014331D01*
X138795351Y-102047317D01*
X138820023Y-102080910D01*
X138843999Y-102115111D01*
X138867281Y-102149920D01*
X138889868Y-102185338D01*
X138911759Y-102221364D01*
X138932956Y-102257997D01*
X138953458Y-102295239D01*
X138973264Y-102333089D01*
X138992376Y-102371547D01*
X139010793Y-102410614D01*
X139028515Y-102450288D01*
X139045541Y-102490570D01*
X139061969Y-102531383D01*
X139077336Y-102572648D01*
X139091644Y-102614364D01*
X139104892Y-102656531D01*
X139117080Y-102699151D01*
X139128209Y-102742222D01*
X139138277Y-102785745D01*
X139147286Y-102829719D01*
X139155235Y-102874146D01*
X139162124Y-102919024D01*
X139167953Y-102964353D01*
X139172722Y-103010135D01*
X139176432Y-103056368D01*
X139179081Y-103103053D01*
X139180671Y-103150190D01*
X139181201Y-103197779D01*
X139180584Y-103247895D01*
X139178734Y-103297612D01*
X139175650Y-103346929D01*
X139171332Y-103395846D01*
X139165781Y-103444364D01*
X139158996Y-103492482D01*
X139150978Y-103540200D01*
X139141726Y-103587519D01*
X139131241Y-103634439D01*
X139119522Y-103680958D01*
X139106569Y-103727078D01*
X139092383Y-103772799D01*
X139076963Y-103818120D01*
X139060310Y-103863041D01*
X139042423Y-103907563D01*
X139023303Y-103951685D01*
X139003487Y-103994929D01*
X138982959Y-104037375D01*
X138961719Y-104079021D01*
X138939766Y-104119868D01*
X138917101Y-104159916D01*
X138893724Y-104199165D01*
X138869634Y-104237614D01*
X138844833Y-104275264D01*
X138819318Y-104312115D01*
X138793092Y-104348167D01*
X138766153Y-104383419D01*
X138738501Y-104417872D01*
X138710138Y-104451526D01*
X138681062Y-104484381D01*
X138651274Y-104516437D01*
X138620773Y-104547693D01*
X138589517Y-104578464D01*
X138557461Y-104608504D01*
X138524606Y-104637815D01*
X138490952Y-104666396D01*
X138456499Y-104694247D01*
X138421246Y-104721369D01*
X138385194Y-104747760D01*
X138348343Y-104773422D01*
X138310693Y-104798354D01*
X138272244Y-104822557D01*
X138232995Y-104846029D01*
X138192947Y-104868772D01*
X138152100Y-104890786D01*
X138110454Y-104912069D01*
X138068009Y-104932623D01*
X138024765Y-104952448D01*
X137980903Y-104971299D01*
X137936608Y-104988934D01*
X137891877Y-105005353D01*
X137846713Y-105020556D01*
X137801114Y-105034542D01*
X137755080Y-105047312D01*
X137708612Y-105058866D01*
X137661710Y-105069203D01*
X137614374Y-105078325D01*
X137566603Y-105086230D01*
X137518398Y-105092919D01*
X137469758Y-105098392D01*
X137420684Y-105102648D01*
X137371176Y-105105689D01*
X137321233Y-105107513D01*
X137270856Y-105108121D01*
X137220740Y-105107513D01*
X137171023Y-105105689D01*
X137121707Y-105102648D01*
X137072789Y-105098392D01*
X137024272Y-105092919D01*
X136976154Y-105086230D01*
X136928435Y-105078325D01*
X136881116Y-105069203D01*
X136834197Y-105058866D01*
X136787677Y-105047312D01*
X136741557Y-105034542D01*
X136695836Y-105020556D01*
X136650515Y-105005353D01*
X136605593Y-104988934D01*
X136561072Y-104971299D01*
X136516949Y-104952448D01*
X136473696Y-104932363D01*
X136431224Y-104911584D01*
X136389534Y-104890109D01*
X136348626Y-104867939D01*
X136308500Y-104845075D01*
X136269156Y-104821515D01*
X136230593Y-104797260D01*
X136192813Y-104772311D01*
X136155814Y-104746666D01*
X136119597Y-104720326D01*
X136084162Y-104693292D01*
X136049509Y-104665562D01*
X136015638Y-104637137D01*
X135982549Y-104608018D01*
X135950242Y-104578203D01*
X135918716Y-104547693D01*
X135888216Y-104516437D01*
X135858427Y-104484381D01*
X135829351Y-104451526D01*
X135800987Y-104417872D01*
X135773336Y-104383419D01*
X135746397Y-104348167D01*
X135720170Y-104312115D01*
X135694656Y-104275264D01*
X135669854Y-104237614D01*
X135645764Y-104199165D01*
X135622387Y-104159916D01*
X135599722Y-104119868D01*
X135577770Y-104079021D01*
X135556530Y-104037375D01*
X135536002Y-103994929D01*
X135516186Y-103951685D01*
X135497335Y-103907823D01*
X135479700Y-103863527D01*
X135463282Y-103818797D01*
X135448079Y-103773632D01*
X135434093Y-103728034D01*
X135421322Y-103682000D01*
X135409768Y-103635533D01*
X135399431Y-103588630D01*
X135390309Y-103541294D01*
X135382404Y-103493523D01*
X135375714Y-103445318D01*
X135370241Y-103396679D01*
X135365985Y-103347605D01*
X135362944Y-103298097D01*
X135361120Y-103248155D01*
X135360512Y-103197779D01*
X135361033Y-103150190D01*
X135362597Y-103103053D01*
X135365203Y-103056368D01*
X135368852Y-103010135D01*
X135373543Y-102964353D01*
X135379276Y-102919024D01*
X135386052Y-102874146D01*
X135393871Y-102829719D01*
X135402732Y-102785745D01*
X135412635Y-102742222D01*
X135423581Y-102699151D01*
X135435569Y-102656531D01*
X135448600Y-102614364D01*
X135462673Y-102572648D01*
X135477789Y-102531383D01*
X135493947Y-102490570D01*
X135511243Y-102450288D01*
X135529217Y-102410614D01*
X135547868Y-102371547D01*
X135567197Y-102333089D01*
X135587204Y-102295239D01*
X135607888Y-102257997D01*
X135629250Y-102221364D01*
X135651289Y-102185338D01*
X135674006Y-102149920D01*
X135697401Y-102115111D01*
X135721473Y-102080910D01*
X135746223Y-102047317D01*
X135771651Y-102014331D01*
X135797756Y-101981954D01*
X135824538Y-101950186D01*
X135851999Y-101919025D01*
X135856846Y-101913769D01*
X135861937Y-101908566D01*
X135867271Y-101903415D01*
X135872848Y-101898315D01*
X135878668Y-101893268D01*
X135884732Y-101888273D01*
X135891038Y-101883329D01*
X135897588Y-101878438D01*
X135904382Y-101873599D01*
X135911418Y-101868813D01*
X135918698Y-101864078D01*
X135926221Y-101859395D01*
X135933987Y-101854765D01*
X135941997Y-101850187D01*
X135950250Y-101845661D01*
X135958746Y-101841187D01*
X135967624Y-101836878D01*
X135976468Y-101832848D01*
X135985277Y-101829096D01*
X135994051Y-101825621D01*
X136002790Y-101822424D01*
X136011494Y-101819506D01*
X136020164Y-101816865D01*
X136028799Y-101814502D01*
X136037400Y-101812417D01*
X136045965Y-101810610D01*
X136054496Y-101809081D01*
X136062992Y-101807830D01*
X136071453Y-101806857D01*
X136079879Y-101806162D01*
X136088271Y-101805745D01*
X136096628Y-101805606D01*
X136096905Y-101805615D01*
X136097183Y-101805641D01*
X136097461Y-101805684D01*
X136097738Y-101805745D01*
X136098016Y-101805823D01*
X136098294Y-101805918D01*
X136098572Y-101806031D01*
X136098851Y-101806161D01*
X136099129Y-101806308D01*
X136099407Y-101806472D01*
X136099686Y-101806654D01*
X136099964Y-101806854D01*
X136100243Y-101807071D01*
X136100522Y-101807305D01*
X136100801Y-101807556D01*
X136101080Y-101807825D01*
X136103299Y-101807825D01*
X136119553Y-101808467D01*
X136135511Y-101809839D01*
X136151175Y-101811941D01*
X136166542Y-101814773D01*
X136181615Y-101818335D01*
X136196392Y-101822626D01*
X136210873Y-101827647D01*
X136225059Y-101833398D01*
X136238950Y-101839879D01*
X136252546Y-101847090D01*
X136265846Y-101855030D01*
X136278850Y-101863700D01*
X136291559Y-101873100D01*
X136303973Y-101883230D01*
X136316091Y-101894090D01*
X136327914Y-101905680D01*
X136339495Y-101917511D01*
X136350328Y-101929656D01*
X136360414Y-101942113D01*
X136369753Y-101954883D01*
X136378345Y-101967965D01*
X136386189Y-101981361D01*
X136393287Y-101995069D01*
X136399637Y-102009090D01*
X136405240Y-102023424D01*
X136410097Y-102038070D01*
X136414206Y-102053030D01*
X136417568Y-102068302D01*
X136420182Y-102083886D01*
X136422050Y-102099784D01*
X136423171Y-102115994D01*
X136423544Y-102132517D01*
X136423431Y-102139510D01*
X136423092Y-102146590D01*
X136422528Y-102153757D01*
X136421737Y-102161011D01*
X136420721Y-102168352D01*
X136419478Y-102175780D01*
X136418010Y-102183294D01*
X136416316Y-102190896D01*
X136414396Y-102198584D01*
X136412250Y-102206359D01*
X136409879Y-102214221D01*
X136407281Y-102222170D01*
X136404458Y-102230206D01*
X136401408Y-102238328D01*
X136398133Y-102246538D01*
X136394632Y-102254834D01*
X136387891Y-102270992D01*
X136381012Y-102286107D01*
X136373993Y-102300180D01*
X136370431Y-102306825D01*
X136366835Y-102313210D01*
X136363203Y-102319335D01*
X136359537Y-102325199D01*
X136355836Y-102330802D01*
X136352101Y-102336145D01*
X136348330Y-102341227D01*
X136344525Y-102346049D01*
X136340685Y-102350610D01*
X136336810Y-102354910D01*
X136297761Y-102400683D01*
X136261232Y-102447376D01*
X136227222Y-102494990D01*
X136195731Y-102543525D01*
X136166759Y-102592981D01*
X136140307Y-102643358D01*
X136116374Y-102694655D01*
X136094960Y-102746874D01*
X136076065Y-102800013D01*
X136059690Y-102854074D01*
X136045834Y-102909055D01*
X136034497Y-102964957D01*
X136025680Y-103021780D01*
X136019382Y-103079523D01*
X136015603Y-103138187D01*
X136014343Y-103197772D01*
X136015021Y-103242781D01*
X136017054Y-103287182D01*
X136020442Y-103330974D01*
X136025185Y-103374159D01*
X136031283Y-103416735D01*
X136038737Y-103458703D01*
X136047545Y-103500062D01*
X136057709Y-103540814D01*
X136069229Y-103580958D01*
X136082103Y-103620493D01*
X136096332Y-103659420D01*
X136111917Y-103697739D01*
X136128857Y-103735450D01*
X136147152Y-103772553D01*
X136166803Y-103809048D01*
X136187808Y-103844934D01*
X136210160Y-103879752D01*
X136233294Y-103913597D01*
X136257210Y-103946470D01*
X136281908Y-103978369D01*
X136307387Y-104009295D01*
X136333649Y-104039249D01*
X136360692Y-104068229D01*
X136388517Y-104096237D01*
X136417124Y-104123271D01*
X136446513Y-104149333D01*
X136476683Y-104174421D01*
X136507636Y-104198537D01*
X136539370Y-104221680D01*
X136571886Y-104243849D01*
X136605184Y-104265046D01*
X136639264Y-104285269D01*
X136675611Y-104305737D01*
X136712375Y-104324883D01*
X136749556Y-104342709D01*
X136787155Y-104359215D01*
X136825170Y-104374400D01*
X136863602Y-104388265D01*
X136902451Y-104400809D01*
X136941717Y-104412032D01*
X136981400Y-104421935D01*
X137021500Y-104430518D01*
X137062017Y-104437780D01*
X137102951Y-104443722D01*
X137144302Y-104448343D01*
X137186069Y-104451644D01*
X137228254Y-104453625D01*
X137270856Y-104454285D01*
X137315855Y-104453607D01*
X137360229Y-104451574D01*
X137403978Y-104448186D01*
X137447101Y-104443443D01*
X137489599Y-104437345D01*
X137531471Y-104429891D01*
X137572718Y-104421083D01*
X137613339Y-104410919D01*
X137653335Y-104399399D01*
X137692705Y-104386525D01*
X137731450Y-104372296D01*
X137769569Y-104356711D01*
X137807063Y-104339771D01*
X137843932Y-104321476D01*
X137880175Y-104301825D01*
X137915793Y-104280820D01*
X137950889Y-104258476D01*
X137985012Y-104235369D01*
X138018162Y-104211496D01*
X138050339Y-104186859D01*
X138081543Y-104161458D01*
X138111775Y-104135292D01*
X138141033Y-104108362D01*
X138169318Y-104080667D01*
X138196631Y-104052208D01*
X138222970Y-104022985D01*
X138248337Y-103992996D01*
X138272730Y-103962244D01*
X138296150Y-103930727D01*
X138318598Y-103898445D01*
X138340073Y-103865399D01*
X138360574Y-103831589D01*
X138380772Y-103794973D01*
X138399667Y-103757957D01*
X138417258Y-103720542D01*
X138433547Y-103682727D01*
X138448532Y-103644512D01*
X138462215Y-103605897D01*
X138474594Y-103566883D01*
X138485670Y-103527469D01*
X138495443Y-103487656D01*
X138503913Y-103447443D01*
X138511080Y-103406830D01*
X138516944Y-103365818D01*
X138521504Y-103324406D01*
X138524762Y-103282594D01*
X138526717Y-103240383D01*
X138527368Y-103197772D01*
X138526108Y-103138187D01*
X138522330Y-103079523D01*
X138516031Y-103021780D01*
X138507214Y-102964957D01*
X138495877Y-102909055D01*
X138482021Y-102854074D01*
X138465646Y-102800013D01*
X138446751Y-102746874D01*
X138425337Y-102694655D01*
X138401404Y-102643358D01*
X138374952Y-102592981D01*
X138345980Y-102543525D01*
X138314489Y-102494990D01*
X138280479Y-102447376D01*
X138243950Y-102400683D01*
X138204901Y-102354910D01*
X138200757Y-102350610D01*
X138196666Y-102346049D01*
X138192626Y-102341227D01*
X138188639Y-102336145D01*
X138184704Y-102330802D01*
X138180821Y-102325199D01*
X138176989Y-102319335D01*
X138173210Y-102313210D01*
X138169484Y-102306825D01*
X138165809Y-102300180D01*
X138162186Y-102293274D01*
X138158616Y-102286107D01*
X138155097Y-102278680D01*
X138151631Y-102270992D01*
X138148217Y-102263043D01*
X138144855Y-102254834D01*
X138138600Y-102238328D01*
X138133179Y-102222170D01*
X138130781Y-102214221D01*
X138128592Y-102206359D01*
X138126611Y-102198584D01*
X138124839Y-102190896D01*
X138123275Y-102183294D01*
X138121920Y-102175780D01*
X138120773Y-102168352D01*
X138119835Y-102161011D01*
X138119105Y-102153757D01*
X138118584Y-102146590D01*
X138118271Y-102139510D01*
X138118167Y-102132518D01*
X138118541Y-102115719D01*
X138119661Y-102099231D01*
X138121529Y-102083056D01*
X138124144Y-102067194D01*
X138127506Y-102051644D01*
X138131615Y-102036406D01*
X138136471Y-102021482D01*
X138142074Y-102006870D01*
X138148424Y-101992570D01*
X138155521Y-101978584D01*
X138163366Y-101964910D01*
X138171957Y-101951549D01*
X138181296Y-101938501D01*
X138191381Y-101925765D01*
X138202214Y-101913343D01*
X138213794Y-101901233D01*
X138225904Y-101889653D01*
X138238326Y-101878821D01*
X138251062Y-101868735D01*
X138264110Y-101859396D01*
X138277471Y-101850805D01*
X138291145Y-101842961D01*
X138305131Y-101835863D01*
X138319430Y-101829513D01*
X138334042Y-101823910D01*
X138348967Y-101819054D01*
X138364204Y-101814945D01*
X138379754Y-101811583D01*
X138395617Y-101808968D01*
X138411792Y-101807100D01*
X138428280Y-101805980D01*
X138445080Y-101805606D01*
X138453429Y-101805745D01*
X138453429Y-101805745D02*
X138461795Y-101806162D01*
X138470178Y-101806857D01*
X138478579Y-101807830D01*
X138486997Y-101809081D01*
X138495432Y-101810610D01*
X138503885Y-101812417D01*
X138512355Y-101814502D01*
X138520843Y-101816865D01*
X138529348Y-101819506D01*
X138537870Y-101822424D01*
X138546409Y-101825621D01*
X138554966Y-101829096D01*
X138563540Y-101832848D01*
X138572132Y-101836878D01*
X138580740Y-101841187D01*
X138598011Y-101850187D01*
X138606256Y-101854765D01*
X138614239Y-101859395D01*
X138621963Y-101864078D01*
X138629425Y-101868813D01*
X138636627Y-101873599D01*
X138643568Y-101878438D01*
X138650249Y-101883329D01*
X138656669Y-101888273D01*
X138662828Y-101893268D01*
X138668727Y-101898315D01*
X138674365Y-101903415D01*
X138679743Y-101908566D01*
X138684859Y-101913769D01*
X138689715Y-101919025D01*
X138717167Y-101950186D01*
X138743923Y-101981954D01*
X138769985Y-102014331D01*
X138795351Y-102047317D01*
X138820023Y-102080910D01*
X138843999Y-102115111D01*
X138867281Y-102149920D01*
X138889868Y-102185338D01*
X138911759Y-102221364D01*
X138932956Y-102257997D01*
X138953458Y-102295239D01*
X138973264Y-102333089D01*
X138992376Y-102371547D01*
X139010793Y-102410614D01*
X139028515Y-102450288D01*
X139045541Y-102490570D01*
X139061969Y-102531383D01*
X139077336Y-102572648D01*
X139091644Y-102614364D01*
X139104892Y-102656531D01*
X139117080Y-102699151D01*
X139128209Y-102742222D01*
X139138277Y-102785745D01*
X139147286Y-102829719D01*
X139155235Y-102874146D01*
X139162124Y-102919024D01*
X139167953Y-102964353D01*
X139172722Y-103010135D01*
X139176432Y-103056368D01*
X139179081Y-103103053D01*
X139180671Y-103150190D01*
X139181201Y-103197779D01*
X139180584Y-103247895D01*
X139178734Y-103297612D01*
X139175650Y-103346929D01*
X139171332Y-103395846D01*
X139165781Y-103444364D01*
X139158996Y-103492482D01*
X139150978Y-103540200D01*
X139141726Y-103587519D01*
X139131241Y-103634439D01*
X139119522Y-103680958D01*
X139106569Y-103727078D01*
X139092383Y-103772799D01*
X139076963Y-103818120D01*
X139060310Y-103863041D01*
X139042423Y-103907563D01*
X139023303Y-103951685D01*
X139003487Y-103994929D01*
X138982959Y-104037375D01*
X138961719Y-104079021D01*
X138939766Y-104119868D01*
X138917101Y-104159916D01*
X138893724Y-104199165D01*
X138869634Y-104237614D01*
X138844833Y-104275264D01*
X138819318Y-104312115D01*
X138793092Y-104348167D01*
X138766153Y-104383419D01*
X138738501Y-104417872D01*
X138710138Y-104451526D01*
X138681062Y-104484381D01*
X138651274Y-104516437D01*
X138620773Y-104547693D01*
X138589517Y-104578464D01*
X138557461Y-104608504D01*
X138524606Y-104637815D01*
X138490952Y-104666396D01*
X138456499Y-104694247D01*
X138421246Y-104721369D01*
X138385194Y-104747760D01*
X138348343Y-104773422D01*
X138310693Y-104798354D01*
X138272244Y-104822557D01*
X138232995Y-104846029D01*
X138192947Y-104868772D01*
X138152100Y-104890786D01*
X138110454Y-104912069D01*
X138068009Y-104932623D01*
X138024765Y-104952448D01*
X137980903Y-104971299D01*
X137936608Y-104988934D01*
X137891877Y-105005353D01*
X137846713Y-105020556D01*
X137801114Y-105034542D01*
X137755080Y-105047312D01*
X137708612Y-105058866D01*
X137661710Y-105069203D01*
X137614374Y-105078325D01*
X137566603Y-105086230D01*
X137518398Y-105092919D01*
X137469758Y-105098392D01*
X137420684Y-105102648D01*
X137371176Y-105105689D01*
X137321233Y-105107513D01*
X137270856Y-105108121D01*
X137220740Y-105107513D01*
X137171023Y-105105689D01*
X137121707Y-105102648D01*
X137072789Y-105098392D01*
X137024272Y-105092919D01*
X136976154Y-105086230D01*
X136928435Y-105078325D01*
X136881116Y-105069203D01*
X136834197Y-105058866D01*
X136787677Y-105047312D01*
X136741557Y-105034542D01*
X136695836Y-105020556D01*
X136650515Y-105005353D01*
X136605593Y-104988934D01*
X136561072Y-104971299D01*
X136516949Y-104952448D01*
X136473696Y-104932363D01*
X136431224Y-104911584D01*
X136389534Y-104890109D01*
X136348626Y-104867939D01*
X136308500Y-104845075D01*
X136269156Y-104821515D01*
X136230593Y-104797260D01*
X136192813Y-104772311D01*
X136155814Y-104746666D01*
X136119597Y-104720326D01*
X136084162Y-104693292D01*
X136049509Y-104665562D01*
X136015638Y-104637137D01*
X135982549Y-104608018D01*
X135950242Y-104578203D01*
X135918716Y-104547693D01*
X135888216Y-104516437D01*
X135858427Y-104484381D01*
X135829351Y-104451526D01*
X135800987Y-104417872D01*
X135773336Y-104383419D01*
X135746397Y-104348167D01*
X135720170Y-104312115D01*
X135694656Y-104275264D01*
X135669854Y-104237614D01*
X135645764Y-104199165D01*
X135622387Y-104159916D01*
X135599722Y-104119868D01*
X135577770Y-104079021D01*
X135556530Y-104037375D01*
X135536002Y-103994929D01*
X135516186Y-103951685D01*
X135497335Y-103907823D01*
X135479700Y-103863527D01*
X135463282Y-103818797D01*
X135448079Y-103773632D01*
X135434093Y-103728034D01*
X135421322Y-103682000D01*
X135409768Y-103635533D01*
X135399431Y-103588630D01*
X135390309Y-103541294D01*
X135382404Y-103493523D01*
X135375714Y-103445318D01*
X135370241Y-103396679D01*
X135365985Y-103347605D01*
X135362944Y-103298097D01*
X135361120Y-103248155D01*
X135360512Y-103197779D01*
X135361033Y-103150190D01*
X135362597Y-103103053D01*
X135365203Y-103056368D01*
X135368852Y-103010135D01*
X135373543Y-102964353D01*
X135379276Y-102919024D01*
X135386052Y-102874146D01*
X135393871Y-102829719D01*
X135402732Y-102785745D01*
X135412635Y-102742222D01*
X135423581Y-102699151D01*
X135435569Y-102656531D01*
X135448600Y-102614364D01*
X135462673Y-102572648D01*
X135477789Y-102531383D01*
X135493947Y-102490570D01*
X135511243Y-102450288D01*
X135529217Y-102410614D01*
X135547868Y-102371547D01*
X135567197Y-102333089D01*
X135587204Y-102295239D01*
X135607888Y-102257997D01*
X135629250Y-102221364D01*
X135651289Y-102185338D01*
X135674006Y-102149920D01*
X135697401Y-102115111D01*
X135721473Y-102080910D01*
X135746223Y-102047317D01*
X135771651Y-102014331D01*
X135797756Y-101981954D01*
X135824538Y-101950186D01*
X135851999Y-101919025D01*
X135856846Y-101913769D01*
X135861937Y-101908566D01*
X135867271Y-101903415D01*
X135872848Y-101898315D01*
X135878668Y-101893268D01*
X135884732Y-101888273D01*
X135891038Y-101883329D01*
X135897588Y-101878438D01*
X135904382Y-101873599D01*
X135911418Y-101868813D01*
X135918698Y-101864078D01*
X135926221Y-101859395D01*
X135933987Y-101854765D01*
X135941997Y-101850187D01*
X135950250Y-101845661D01*
X135958746Y-101841187D01*
X135967624Y-101836878D01*
X135976468Y-101832848D01*
X135985277Y-101829096D01*
X135994051Y-101825621D01*
X136002790Y-101822424D01*
X136011494Y-101819506D01*
X136020164Y-101816865D01*
X136028799Y-101814502D01*
X136037400Y-101812417D01*
X136045965Y-101810610D01*
X136054496Y-101809081D01*
X136062992Y-101807830D01*
X136071453Y-101806857D01*
X136079879Y-101806162D01*
X136088271Y-101805745D01*
X136096628Y-101805606D01*
X136096905Y-101805615D01*
X136097183Y-101805641D01*
X136097461Y-101805684D01*
X136097738Y-101805745D01*
X136098016Y-101805823D01*
X136098294Y-101805918D01*
X136098572Y-101806031D01*
X136098851Y-101806161D01*
X136099129Y-101806308D01*
X136099407Y-101806472D01*
X136099686Y-101806654D01*
X136099964Y-101806854D01*
X136100243Y-101807071D01*
X136100522Y-101807305D01*
X136100801Y-101807556D01*
X136101080Y-101807825D01*
X136103299Y-101807825D01*
X136119553Y-101808467D01*
X136135511Y-101809839D01*
X136151175Y-101811941D01*
X136166542Y-101814773D01*
X136181615Y-101818335D01*
X136196392Y-101822626D01*
X136210873Y-101827647D01*
X136225059Y-101833398D01*
X136238950Y-101839879D01*
X136252546Y-101847090D01*
X136265846Y-101855030D01*
X136278850Y-101863700D01*
X136291559Y-101873100D01*
X136303973Y-101883230D01*
X136316091Y-101894090D01*
X136327914Y-101905680D01*
X136339495Y-101917511D01*
X136350328Y-101929656D01*
X136360414Y-101942113D01*
X136369753Y-101954883D01*
X136378345Y-101967965D01*
X136386189Y-101981361D01*
X136393287Y-101995069D01*
X136399637Y-102009090D01*
X136405240Y-102023424D01*
X136410097Y-102038070D01*
X136414206Y-102053030D01*
X136417568Y-102068302D01*
X136420182Y-102083886D01*
X136422050Y-102099784D01*
X136423171Y-102115994D01*
X136423544Y-102132517D01*
X136423431Y-102139510D01*
X136423092Y-102146590D01*
X136422528Y-102153757D01*
X136421737Y-102161011D01*
X136420721Y-102168352D01*
X136419478Y-102175780D01*
X136418010Y-102183294D01*
X136416316Y-102190896D01*
X136414396Y-102198584D01*
X136412250Y-102206359D01*
X136409879Y-102214221D01*
X136407281Y-102222170D01*
X136404458Y-102230206D01*
X136401408Y-102238328D01*
X136398133Y-102246538D01*
X136394632Y-102254834D01*
X136387891Y-102270992D01*
X136381012Y-102286107D01*
X136373993Y-102300180D01*
X136370431Y-102306825D01*
X136366835Y-102313210D01*
X136363203Y-102319335D01*
X136359537Y-102325199D01*
X136355836Y-102330802D01*
X136352101Y-102336145D01*
X136348330Y-102341227D01*
X136344525Y-102346049D01*
X136340685Y-102350610D01*
X136336810Y-102354910D01*
X136297761Y-102400683D01*
X136261232Y-102447376D01*
X136227222Y-102494990D01*
X136195731Y-102543525D01*
X136166759Y-102592981D01*
X136140307Y-102643358D01*
X136116374Y-102694655D01*
X136094960Y-102746874D01*
X136076065Y-102800013D01*
X136059690Y-102854074D01*
X136045834Y-102909055D01*
X136034497Y-102964957D01*
X136025680Y-103021780D01*
X136019382Y-103079523D01*
X136015603Y-103138187D01*
X136014343Y-103197772D01*
X136015021Y-103242781D01*
X136017054Y-103287182D01*
X136020442Y-103330974D01*
X136025185Y-103374159D01*
X136031283Y-103416735D01*
X136038737Y-103458703D01*
X136047545Y-103500062D01*
X136057709Y-103540814D01*
X136069229Y-103580958D01*
X136082103Y-103620493D01*
X136096332Y-103659420D01*
X136111917Y-103697739D01*
X136128857Y-103735450D01*
X136147152Y-103772553D01*
X136166803Y-103809048D01*
X136187808Y-103844934D01*
X136210160Y-103879752D01*
X136233294Y-103913597D01*
X136257210Y-103946470D01*
X136281908Y-103978369D01*
X136307387Y-104009295D01*
X136333649Y-104039249D01*
X136360692Y-104068229D01*
X136388517Y-104096237D01*
X136417124Y-104123271D01*
X136446513Y-104149333D01*
X136476683Y-104174421D01*
X136507636Y-104198537D01*
X136539370Y-104221680D01*
X136571886Y-104243849D01*
X136605184Y-104265046D01*
X136639264Y-104285269D01*
X136675611Y-104305737D01*
X136712375Y-104324883D01*
X136749556Y-104342709D01*
X136787155Y-104359215D01*
X136825170Y-104374400D01*
X136863602Y-104388265D01*
X136902451Y-104400809D01*
X136941717Y-104412032D01*
X136981400Y-104421935D01*
X137021500Y-104430518D01*
X137062017Y-104437780D01*
X137102951Y-104443722D01*
X137144302Y-104448343D01*
X137186069Y-104451644D01*
X137228254Y-104453625D01*
X137270856Y-104454285D01*
X137315855Y-104453607D01*
X137360229Y-104451574D01*
X137403978Y-104448186D01*
X137447101Y-104443443D01*
X137489599Y-104437345D01*
X137531471Y-104429891D01*
X137572718Y-104421083D01*
X137613339Y-104410919D01*
X137653335Y-104399399D01*
X137692705Y-104386525D01*
X137731450Y-104372296D01*
X137769569Y-104356711D01*
X137807063Y-104339771D01*
X137843932Y-104321476D01*
X137880175Y-104301825D01*
X137915793Y-104280820D01*
X137950889Y-104258476D01*
X137985012Y-104235369D01*
X138018162Y-104211496D01*
X138050339Y-104186859D01*
X138081543Y-104161458D01*
X138111775Y-104135292D01*
X138141033Y-104108362D01*
X138169318Y-104080667D01*
X138196631Y-104052208D01*
X138222970Y-104022985D01*
X138248337Y-103992996D01*
X138272730Y-103962244D01*
X138296150Y-103930727D01*
X138318598Y-103898445D01*
X138340073Y-103865399D01*
X138360574Y-103831589D01*
X138380772Y-103794973D01*
X138399667Y-103757957D01*
X138417258Y-103720542D01*
X138433547Y-103682727D01*
X138448532Y-103644512D01*
X138462215Y-103605897D01*
X138474594Y-103566883D01*
X138485670Y-103527469D01*
X138495443Y-103487656D01*
X138503913Y-103447443D01*
X138511080Y-103406830D01*
X138516944Y-103365818D01*
X138521504Y-103324406D01*
X138524762Y-103282594D01*
X138526717Y-103240383D01*
X138527368Y-103197772D01*
X138526108Y-103138187D01*
X138522330Y-103079523D01*
X138516031Y-103021780D01*
X138507214Y-102964957D01*
X138495877Y-102909055D01*
X138482021Y-102854074D01*
X138465646Y-102800013D01*
X138446751Y-102746874D01*
X138425337Y-102694655D01*
X138401404Y-102643358D01*
X138374952Y-102592981D01*
X138345980Y-102543525D01*
X138314489Y-102494990D01*
X138280479Y-102447376D01*
X138243950Y-102400683D01*
X138204901Y-102354910D01*
X138200757Y-102350610D01*
X138196666Y-102346049D01*
X138192626Y-102341227D01*
X138188639Y-102336145D01*
X138184704Y-102330802D01*
X138180821Y-102325199D01*
X138176989Y-102319335D01*
X138173210Y-102313210D01*
X138169484Y-102306825D01*
X138165809Y-102300180D01*
X138162186Y-102293274D01*
X138158616Y-102286107D01*
X138155097Y-102278680D01*
X138151631Y-102270992D01*
X138148217Y-102263043D01*
X138144855Y-102254834D01*
X138138600Y-102238328D01*
X138133179Y-102222170D01*
X138130781Y-102214221D01*
X138128592Y-102206359D01*
X138126611Y-102198584D01*
X138124839Y-102190896D01*
X138123275Y-102183294D01*
X138121920Y-102175780D01*
X138120773Y-102168352D01*
X138119835Y-102161011D01*
X138119105Y-102153757D01*
X138118584Y-102146590D01*
X138118271Y-102139510D01*
X138118167Y-102132518D01*
X138118541Y-102115719D01*
X138119661Y-102099231D01*
X138121529Y-102083056D01*
X138124144Y-102067194D01*
X138127506Y-102051644D01*
X138131615Y-102036406D01*
X138136471Y-102021482D01*
X138142074Y-102006870D01*
X138148424Y-101992570D01*
X138155521Y-101978584D01*
X138163366Y-101964910D01*
X138171957Y-101951549D01*
X138181296Y-101938501D01*
X138191381Y-101925765D01*
X138202214Y-101913343D01*
X138213794Y-101901233D01*
X138225904Y-101889653D01*
X138238326Y-101878821D01*
X138251062Y-101868735D01*
X138264110Y-101859396D01*
X138277471Y-101850805D01*
X138291145Y-101842961D01*
X138305131Y-101835863D01*
X138319430Y-101829513D01*
X138334042Y-101823910D01*
X138348967Y-101819054D01*
X138364204Y-101814945D01*
X138379754Y-101811583D01*
X138395617Y-101808968D01*
X138411792Y-101807100D01*
X138428280Y-101805980D01*
X138445080Y-101805606D01*
X138453429Y-101805745D01*
D10*
X138833900Y-103200000D02*
G75*
G03*
X138833900Y-103200000I-1533900J0D01*
G01*
D13*
%TO.C,REF\u002A\u002A*%
X144000000Y-98950000D03*
D14*
X169750000Y-107500000D03*
X118250000Y-86000000D03*
X118250000Y-107500000D03*
X169750000Y-86000000D03*
D15*
X127200000Y-96600000D03*
%TD*%
M02*
