%TF.GenerationSoftware,KiCad,Pcbnew,(6.0.6)*%
%TF.CreationDate,2022-11-01T14:59:24+00:00*%
%TF.ProjectId,frontcase,66726f6e-7463-4617-9365-2e6b69636164,rev?*%
%TF.SameCoordinates,Original*%
%TF.FileFunction,Soldermask,Top*%
%TF.FilePolarity,Negative*%
%FSLAX46Y46*%
G04 Gerber Fmt 4.6, Leading zero omitted, Abs format (unit mm)*
G04 Created by KiCad (PCBNEW (6.0.6)) date 2022-11-01 14:59:24*
%MOMM*%
%LPD*%
G01*
G04 APERTURE LIST*
%ADD10C,0.070000*%
%ADD11C,0.000000*%
%ADD12C,4.000000*%
%ADD13C,5.000000*%
%ADD14C,13.000000*%
G04 APERTURE END LIST*
D10*
G36*
X138564949Y-81439665D02*
G01*
X138581427Y-81441188D01*
X138598097Y-81443549D01*
X138614943Y-81446747D01*
X138631951Y-81450782D01*
X138649105Y-81455655D01*
X138683785Y-81467910D01*
X138718860Y-81483510D01*
X138754204Y-81502454D01*
X138789692Y-81524738D01*
X138825199Y-81550362D01*
X138860600Y-81579322D01*
X138895770Y-81611617D01*
X138930584Y-81647245D01*
X138964916Y-81686204D01*
X138998643Y-81728491D01*
X139031638Y-81774105D01*
X139063777Y-81823044D01*
X139094935Y-81875305D01*
X139143213Y-81959321D01*
X139203134Y-82062142D01*
X139267069Y-82170750D01*
X139327386Y-82272129D01*
X139355215Y-82319171D01*
X139382287Y-82366049D01*
X139407930Y-82411521D01*
X139431474Y-82454348D01*
X139452246Y-82493288D01*
X139469574Y-82527103D01*
X139482788Y-82554552D01*
X139491216Y-82574395D01*
X139494446Y-82582484D01*
X139498295Y-82591077D01*
X139502711Y-82600098D01*
X139507646Y-82609471D01*
X139513048Y-82619120D01*
X139518867Y-82628970D01*
X139525054Y-82638945D01*
X139531558Y-82648970D01*
X139538330Y-82658969D01*
X139545318Y-82668865D01*
X139552473Y-82678585D01*
X139559744Y-82688051D01*
X139567082Y-82697189D01*
X139574437Y-82705922D01*
X139581757Y-82714176D01*
X139588994Y-82721874D01*
X139601583Y-82735231D01*
X139613071Y-82748236D01*
X139623450Y-82760901D01*
X139632713Y-82773240D01*
X139640853Y-82785264D01*
X139647862Y-82796987D01*
X139653734Y-82808420D01*
X139658461Y-82819576D01*
X139662037Y-82830467D01*
X139664454Y-82841106D01*
X139665706Y-82851505D01*
X139665784Y-82861677D01*
X139664683Y-82871635D01*
X139662396Y-82881390D01*
X139658914Y-82890955D01*
X139654231Y-82900343D01*
X139648340Y-82909566D01*
X139641233Y-82918636D01*
X139632905Y-82927566D01*
X139623347Y-82936369D01*
X139612552Y-82945057D01*
X139600515Y-82953641D01*
X139587226Y-82962136D01*
X139572680Y-82970553D01*
X139556869Y-82978905D01*
X139539787Y-82987203D01*
X139521425Y-82995462D01*
X139501778Y-83003692D01*
X139480837Y-83011907D01*
X139458597Y-83020119D01*
X139410187Y-83036583D01*
X139274297Y-83080925D01*
X139232606Y-83094815D01*
X139216876Y-83100393D01*
X139225241Y-83150432D01*
X139249157Y-83285381D01*
X139328942Y-83727678D01*
X139374028Y-83981812D01*
X139412803Y-84211349D01*
X139441136Y-84391087D01*
X139454897Y-84495822D01*
X139473089Y-84645289D01*
X139503171Y-84828482D01*
X139541414Y-85028726D01*
X139584091Y-85229343D01*
X139627474Y-85413659D01*
X139667834Y-85564996D01*
X139685715Y-85623086D01*
X139701442Y-85666678D01*
X139714550Y-85693687D01*
X139719976Y-85700321D01*
X139724572Y-85702028D01*
X139768392Y-85689814D01*
X139810422Y-85671532D01*
X139850605Y-85647542D01*
X139888888Y-85618207D01*
X139925216Y-85583887D01*
X139959534Y-85544946D01*
X139991787Y-85501744D01*
X140021922Y-85454643D01*
X140049882Y-85404005D01*
X140075615Y-85350191D01*
X140099064Y-85293563D01*
X140120175Y-85234483D01*
X140138895Y-85173312D01*
X140155167Y-85110411D01*
X140168938Y-85046144D01*
X140180153Y-84980870D01*
X140188756Y-84914953D01*
X140194695Y-84848752D01*
X140197913Y-84782631D01*
X140198357Y-84716951D01*
X140195971Y-84652073D01*
X140190702Y-84588359D01*
X140182494Y-84526171D01*
X140171292Y-84465870D01*
X140157043Y-84407818D01*
X140139691Y-84352377D01*
X140119182Y-84299907D01*
X140095461Y-84250772D01*
X140068474Y-84205332D01*
X140038166Y-84163950D01*
X140004482Y-84126986D01*
X139967368Y-84094803D01*
X139946705Y-84077776D01*
X139927833Y-84059670D01*
X139910741Y-84040535D01*
X139895417Y-84020425D01*
X139881850Y-83999391D01*
X139870030Y-83977486D01*
X139859946Y-83954762D01*
X139851586Y-83931271D01*
X139844940Y-83907065D01*
X139839997Y-83882197D01*
X139836746Y-83856718D01*
X139835176Y-83830681D01*
X139835275Y-83804138D01*
X139837034Y-83777141D01*
X139840441Y-83749742D01*
X139845484Y-83721994D01*
X139852154Y-83693949D01*
X139860439Y-83665659D01*
X139870328Y-83637175D01*
X139881810Y-83608552D01*
X139894874Y-83579839D01*
X139909510Y-83551090D01*
X139925706Y-83522357D01*
X139943452Y-83493692D01*
X139962736Y-83465148D01*
X139983547Y-83436776D01*
X140005875Y-83408628D01*
X140029709Y-83380757D01*
X140055037Y-83353215D01*
X140081849Y-83326055D01*
X140110133Y-83299327D01*
X140139879Y-83273086D01*
X140151545Y-83263734D01*
X140163702Y-83255138D01*
X140176330Y-83247295D01*
X140189408Y-83240203D01*
X140202915Y-83233859D01*
X140216830Y-83228261D01*
X140231133Y-83223406D01*
X140245802Y-83219291D01*
X140260817Y-83215914D01*
X140276158Y-83213273D01*
X140291803Y-83211364D01*
X140307731Y-83210186D01*
X140323922Y-83209736D01*
X140340355Y-83210011D01*
X140357009Y-83211008D01*
X140373863Y-83212726D01*
X140390897Y-83215161D01*
X140408090Y-83218311D01*
X140425420Y-83222174D01*
X140442867Y-83226747D01*
X140478030Y-83238011D01*
X140513412Y-83252085D01*
X140548845Y-83268948D01*
X140584165Y-83288579D01*
X140619204Y-83310957D01*
X140653795Y-83336064D01*
X140685692Y-83361893D01*
X140715731Y-83388702D01*
X140743907Y-83416414D01*
X140770214Y-83444953D01*
X140794646Y-83474241D01*
X140817198Y-83504201D01*
X140837864Y-83534758D01*
X140856638Y-83565833D01*
X140873514Y-83597351D01*
X140888486Y-83629234D01*
X140901548Y-83661406D01*
X140912695Y-83693790D01*
X140921921Y-83726309D01*
X140929220Y-83758887D01*
X140934586Y-83791446D01*
X140938013Y-83823909D01*
X140939496Y-83856201D01*
X140939029Y-83888244D01*
X140936605Y-83919961D01*
X140932220Y-83951276D01*
X140925867Y-83982111D01*
X140917540Y-84012391D01*
X140907233Y-84042038D01*
X140894942Y-84070975D01*
X140880659Y-84099126D01*
X140864380Y-84126413D01*
X140846098Y-84152761D01*
X140825807Y-84178092D01*
X140803502Y-84202329D01*
X140779177Y-84225396D01*
X140752826Y-84247216D01*
X140724443Y-84267712D01*
X140706219Y-84280036D01*
X140690378Y-84291221D01*
X140683334Y-84296573D01*
X140676864Y-84301864D01*
X140670963Y-84307170D01*
X140665623Y-84312564D01*
X140660837Y-84318123D01*
X140656597Y-84323920D01*
X140652898Y-84330031D01*
X140649732Y-84336530D01*
X140647092Y-84343492D01*
X140644972Y-84350992D01*
X140643364Y-84359105D01*
X140642261Y-84367905D01*
X140641656Y-84377467D01*
X140641543Y-84387867D01*
X140641914Y-84399178D01*
X140642763Y-84411476D01*
X140644082Y-84424835D01*
X140645864Y-84439331D01*
X140648104Y-84455037D01*
X140650792Y-84472030D01*
X140657491Y-84510171D01*
X140665905Y-84554353D01*
X140687655Y-84663233D01*
X140708260Y-84771998D01*
X140724328Y-84873023D01*
X140730730Y-84921840D01*
X140736082Y-84970170D01*
X140740411Y-85018495D01*
X140743745Y-85067297D01*
X140746111Y-85117060D01*
X140747539Y-85168265D01*
X140747687Y-85276933D01*
X140744412Y-85397160D01*
X140737936Y-85532808D01*
X140731714Y-85622707D01*
X140723223Y-85706553D01*
X140712295Y-85784616D01*
X140698758Y-85857171D01*
X140682444Y-85924490D01*
X140663181Y-85986846D01*
X140640799Y-86044511D01*
X140615128Y-86097760D01*
X140585998Y-86146864D01*
X140553239Y-86192096D01*
X140516680Y-86233729D01*
X140476151Y-86272036D01*
X140431483Y-86307291D01*
X140382504Y-86339765D01*
X140329045Y-86369731D01*
X140270936Y-86397463D01*
X140701473Y-88378143D01*
X140708354Y-88421874D01*
X140715219Y-88470738D01*
X140721885Y-88523088D01*
X140728170Y-88577278D01*
X140733893Y-88631663D01*
X140738869Y-88684596D01*
X140742918Y-88734432D01*
X140745857Y-88779525D01*
X140757456Y-88960464D01*
X140771991Y-89139401D01*
X140788893Y-89311825D01*
X140807596Y-89473224D01*
X140827533Y-89619087D01*
X140848136Y-89744901D01*
X140868837Y-89846156D01*
X140889069Y-89918338D01*
X140895324Y-89936890D01*
X140900676Y-89954569D01*
X140905124Y-89971419D01*
X140908666Y-89987486D01*
X140911301Y-90002816D01*
X140913026Y-90017453D01*
X140913840Y-90031443D01*
X140913740Y-90044831D01*
X140912725Y-90057661D01*
X140910793Y-90069979D01*
X140907943Y-90081831D01*
X140904172Y-90093261D01*
X140899478Y-90104315D01*
X140893860Y-90115037D01*
X140887316Y-90125473D01*
X140879844Y-90135669D01*
X140871375Y-90146627D01*
X140867596Y-90151771D01*
X140864131Y-90156767D01*
X140860988Y-90161670D01*
X140858176Y-90166536D01*
X140855703Y-90171422D01*
X140853577Y-90176383D01*
X140851807Y-90181475D01*
X140850400Y-90186754D01*
X140849365Y-90192276D01*
X140848709Y-90198098D01*
X140848442Y-90204274D01*
X140848572Y-90210862D01*
X140849106Y-90217916D01*
X140850053Y-90225494D01*
X140851421Y-90233650D01*
X140853218Y-90242441D01*
X140855453Y-90251923D01*
X140858134Y-90262151D01*
X140861269Y-90273183D01*
X140864866Y-90285073D01*
X140868933Y-90297877D01*
X140873479Y-90311652D01*
X140884040Y-90342338D01*
X140896613Y-90377578D01*
X140911266Y-90417819D01*
X140928064Y-90463510D01*
X140950541Y-90527061D01*
X140969698Y-90586791D01*
X140985524Y-90642839D01*
X140998011Y-90695341D01*
X141007148Y-90744437D01*
X141012925Y-90790266D01*
X141015334Y-90832964D01*
X141014365Y-90872671D01*
X141010007Y-90909525D01*
X141002252Y-90943663D01*
X140991089Y-90975225D01*
X140976509Y-91004348D01*
X140958502Y-91031172D01*
X140937058Y-91055833D01*
X140912169Y-91078471D01*
X140883824Y-91099223D01*
X140853092Y-91116735D01*
X140811782Y-91136023D01*
X140761253Y-91156707D01*
X140702868Y-91178406D01*
X140567968Y-91223322D01*
X140417970Y-91267720D01*
X140263762Y-91308550D01*
X140116230Y-91342763D01*
X140048371Y-91356434D01*
X139986263Y-91367307D01*
X139931268Y-91375001D01*
X139884747Y-91379133D01*
X139787550Y-91384306D01*
X139724752Y-91210529D01*
X139703933Y-91153251D01*
X139687627Y-91110318D01*
X139680742Y-91093634D01*
X139674477Y-91079821D01*
X139668662Y-91068639D01*
X139663128Y-91059850D01*
X139657704Y-91053214D01*
X139654981Y-91050630D01*
X139652222Y-91048494D01*
X139649406Y-91046778D01*
X139646511Y-91045451D01*
X139643517Y-91044483D01*
X139640403Y-91043845D01*
X139633727Y-91043438D01*
X139626314Y-91043991D01*
X139608599Y-91047024D01*
X139594841Y-91050483D01*
X139577347Y-91056164D01*
X139533704Y-91072969D01*
X139482774Y-91094977D01*
X139429661Y-91119731D01*
X139379467Y-91144770D01*
X139337295Y-91167634D01*
X139320813Y-91177482D01*
X139308250Y-91185864D01*
X139300245Y-91192472D01*
X139298150Y-91195015D01*
X139297434Y-91196999D01*
X139297369Y-91197732D01*
X139297174Y-91198660D01*
X139296410Y-91201074D01*
X139295168Y-91204194D01*
X139293474Y-91207976D01*
X139291354Y-91212371D01*
X139288832Y-91217334D01*
X139282690Y-91228774D01*
X139275252Y-91241924D01*
X139266725Y-91256411D01*
X139257315Y-91271862D01*
X139247225Y-91287905D01*
X139222918Y-91326654D01*
X139193863Y-91374046D01*
X139163709Y-91424082D01*
X139136101Y-91470760D01*
X139122532Y-91493231D01*
X139107291Y-91517150D01*
X139090896Y-91541783D01*
X139073865Y-91566395D01*
X139056716Y-91590251D01*
X139039968Y-91612615D01*
X139024139Y-91632753D01*
X139009746Y-91649928D01*
X139002800Y-91658602D01*
X138996308Y-91668185D01*
X138990268Y-91678642D01*
X138984681Y-91689937D01*
X138979547Y-91702034D01*
X138974866Y-91714899D01*
X138966861Y-91742788D01*
X138960666Y-91773318D01*
X138956279Y-91806207D01*
X138953699Y-91841168D01*
X138952926Y-91877918D01*
X138953959Y-91916173D01*
X138956796Y-91955647D01*
X138961437Y-91996058D01*
X138967880Y-92037119D01*
X138976126Y-92078547D01*
X138986172Y-92120058D01*
X138998018Y-92161367D01*
X139011663Y-92202190D01*
X139036237Y-92276582D01*
X139074813Y-92400273D01*
X139122102Y-92556051D01*
X139172816Y-92726705D01*
X139218927Y-92880440D01*
X139272728Y-93056536D01*
X136722423Y-93056536D01*
X136621644Y-92504455D01*
X136581160Y-92279330D01*
X136548753Y-92085616D01*
X136524263Y-91921776D01*
X136507526Y-91786271D01*
X136498380Y-91677563D01*
X136496662Y-91594114D01*
X136498537Y-91561382D01*
X136502209Y-91534387D01*
X136507657Y-91512937D01*
X136514861Y-91496842D01*
X136517426Y-91493038D01*
X136521400Y-91487811D01*
X136533239Y-91473459D01*
X136549706Y-91454523D01*
X136570133Y-91431741D01*
X136593850Y-91405851D01*
X136620186Y-91377592D01*
X136648472Y-91347700D01*
X136678039Y-91316915D01*
X136707881Y-91285566D01*
X136734689Y-91256257D01*
X136758558Y-91228777D01*
X136779580Y-91202913D01*
X136797848Y-91178453D01*
X136813458Y-91155186D01*
X136826502Y-91132898D01*
X136837074Y-91111379D01*
X136841462Y-91100841D01*
X136845267Y-91090415D01*
X136848502Y-91080076D01*
X136851176Y-91069796D01*
X136853303Y-91059549D01*
X136854894Y-91049309D01*
X136855960Y-91039049D01*
X136856514Y-91028742D01*
X136856131Y-91007883D01*
X136853837Y-90986520D01*
X136849727Y-90964441D01*
X136843894Y-90941434D01*
X136839411Y-90925007D01*
X136834556Y-90906173D01*
X136824352Y-90863937D01*
X136814513Y-90820035D01*
X136810116Y-90799118D01*
X136806273Y-90779774D01*
X136789189Y-90691778D01*
X136772053Y-90605056D01*
X136765539Y-90567826D01*
X136760879Y-90530775D01*
X136758043Y-90494054D01*
X136756999Y-90457813D01*
X136757717Y-90422203D01*
X136760165Y-90387375D01*
X136764312Y-90353478D01*
X136770127Y-90320664D01*
X136777580Y-90289083D01*
X136786639Y-90258886D01*
X136797272Y-90230224D01*
X136809450Y-90203246D01*
X136823140Y-90178103D01*
X136838312Y-90154947D01*
X136854935Y-90133928D01*
X136872977Y-90115195D01*
X136884273Y-90104592D01*
X136894146Y-90095124D01*
X136902675Y-90086521D01*
X136906462Y-90082458D01*
X136909943Y-90078510D01*
X136913129Y-90074641D01*
X136916030Y-90070819D01*
X136918656Y-90067009D01*
X136921017Y-90063177D01*
X136923124Y-90059289D01*
X136924985Y-90055312D01*
X136926612Y-90051210D01*
X136928015Y-90046951D01*
X136929203Y-90042501D01*
X136930187Y-90037824D01*
X136930977Y-90032888D01*
X136931582Y-90027658D01*
X136932014Y-90022101D01*
X136932282Y-90016182D01*
X136932397Y-90009867D01*
X136932368Y-90003122D01*
X136931919Y-89988209D01*
X136931017Y-89971170D01*
X136928179Y-89929625D01*
X136924661Y-89845881D01*
X136926272Y-89765770D01*
X136932903Y-89689469D01*
X136944443Y-89617152D01*
X136960786Y-89548996D01*
X136981821Y-89485177D01*
X137007439Y-89425871D01*
X137021934Y-89397966D01*
X137037533Y-89371255D01*
X137054224Y-89345760D01*
X137071993Y-89321503D01*
X137090827Y-89298507D01*
X137110711Y-89276793D01*
X137131632Y-89256384D01*
X137153577Y-89237301D01*
X137176531Y-89219566D01*
X137200482Y-89203201D01*
X137225416Y-89188229D01*
X137251319Y-89174671D01*
X137278177Y-89162550D01*
X137305977Y-89151886D01*
X137334705Y-89142704D01*
X137364348Y-89135023D01*
X137394892Y-89128867D01*
X137426324Y-89124258D01*
X137444967Y-89121685D01*
X137465691Y-89118240D01*
X137487805Y-89114072D01*
X137510616Y-89109333D01*
X137533432Y-89104171D01*
X137555563Y-89098737D01*
X137576317Y-89093180D01*
X137595001Y-89087651D01*
X137679466Y-89061135D01*
X137679466Y-88928668D01*
X137680391Y-88890905D01*
X137683146Y-88854766D01*
X137687702Y-88820299D01*
X137694031Y-88787554D01*
X137702106Y-88756581D01*
X137711896Y-88727429D01*
X137723374Y-88700149D01*
X137736511Y-88674789D01*
X137751279Y-88651401D01*
X137767649Y-88630033D01*
X137785592Y-88610735D01*
X137805081Y-88593557D01*
X137826086Y-88578548D01*
X137848580Y-88565759D01*
X137872533Y-88555239D01*
X137897917Y-88547038D01*
X137915438Y-88541684D01*
X137937069Y-88534036D01*
X137961960Y-88524452D01*
X137989259Y-88513290D01*
X138018116Y-88500906D01*
X138047678Y-88487659D01*
X138077096Y-88473906D01*
X138105517Y-88460004D01*
X138187641Y-88420667D01*
X138271935Y-88383742D01*
X138356793Y-88349782D01*
X138440608Y-88319342D01*
X138521774Y-88292973D01*
X138598684Y-88271230D01*
X138635041Y-88262265D01*
X138669731Y-88254665D01*
X138702554Y-88248497D01*
X138733309Y-88243832D01*
X138748837Y-88238398D01*
X138761861Y-88226732D01*
X138772498Y-88209159D01*
X138780864Y-88186007D01*
X138787078Y-88157605D01*
X138791255Y-88124279D01*
X138793969Y-88044165D01*
X138789941Y-87948287D01*
X138780110Y-87839264D01*
X138765409Y-87719715D01*
X138746777Y-87592262D01*
X138701457Y-87324118D01*
X138651640Y-87055791D01*
X138604814Y-86808240D01*
X138568466Y-86602423D01*
X138556721Y-86596087D01*
X138544897Y-86589396D01*
X138532935Y-86582318D01*
X138520779Y-86574820D01*
X138508371Y-86566871D01*
X138495654Y-86558437D01*
X138482569Y-86549486D01*
X138469061Y-86539987D01*
X138446060Y-86522668D01*
X138422948Y-86503412D01*
X138376490Y-86459284D01*
X138329895Y-86407999D01*
X138283369Y-86349953D01*
X138237119Y-86285541D01*
X138191352Y-86215160D01*
X138146274Y-86139205D01*
X138102092Y-86058071D01*
X138059014Y-85972155D01*
X138017245Y-85881853D01*
X137976992Y-85787559D01*
X137938463Y-85689670D01*
X137901863Y-85588583D01*
X137867400Y-85484691D01*
X137835281Y-85378392D01*
X137805711Y-85270080D01*
X137748919Y-85050326D01*
X137648502Y-85026885D01*
X137582896Y-85008439D01*
X137522500Y-84985205D01*
X137467255Y-84957546D01*
X137417101Y-84925825D01*
X137371978Y-84890405D01*
X137331827Y-84851649D01*
X137296590Y-84809921D01*
X137266206Y-84765583D01*
X137240616Y-84719000D01*
X137219761Y-84670533D01*
X137203582Y-84620547D01*
X137192018Y-84569403D01*
X137185012Y-84517467D01*
X137182503Y-84465099D01*
X137184432Y-84412665D01*
X137190740Y-84360527D01*
X137201367Y-84309047D01*
X137216254Y-84258590D01*
X137235342Y-84209518D01*
X137258571Y-84162195D01*
X137285882Y-84116984D01*
X137317216Y-84074247D01*
X137352513Y-84034349D01*
X137391714Y-83997652D01*
X137434759Y-83964519D01*
X137481590Y-83935313D01*
X137532146Y-83910398D01*
X137586369Y-83890137D01*
X137644199Y-83874894D01*
X137705577Y-83865030D01*
X137770443Y-83860909D01*
X137838738Y-83862895D01*
X137867200Y-83866225D01*
X137894941Y-83871906D01*
X137921921Y-83879844D01*
X137948098Y-83889948D01*
X137973434Y-83902123D01*
X137997887Y-83916278D01*
X138021418Y-83932320D01*
X138043985Y-83950156D01*
X138065550Y-83969693D01*
X138086070Y-83990839D01*
X138105507Y-84013500D01*
X138123819Y-84037585D01*
X138140967Y-84063000D01*
X138156910Y-84089652D01*
X138171608Y-84117450D01*
X138185020Y-84146299D01*
X138197107Y-84176108D01*
X138207827Y-84206784D01*
X138217142Y-84238234D01*
X138225009Y-84270365D01*
X138231389Y-84303084D01*
X138236242Y-84336299D01*
X138239528Y-84369917D01*
X138241205Y-84403846D01*
X138241234Y-84437992D01*
X138239574Y-84472263D01*
X138236186Y-84506566D01*
X138231028Y-84540808D01*
X138224061Y-84574897D01*
X138215244Y-84608739D01*
X138204537Y-84642243D01*
X138191900Y-84675315D01*
X138149034Y-84778627D01*
X138219789Y-85029491D01*
X138242711Y-85105526D01*
X138268407Y-85181309D01*
X138296536Y-85256264D01*
X138326758Y-85329811D01*
X138358732Y-85401372D01*
X138392116Y-85470369D01*
X138426569Y-85536223D01*
X138461751Y-85598356D01*
X138497320Y-85656191D01*
X138532935Y-85709148D01*
X138568256Y-85756649D01*
X138602940Y-85798117D01*
X138636647Y-85832972D01*
X138669037Y-85860638D01*
X138699767Y-85880534D01*
X138714404Y-85887388D01*
X138728497Y-85892083D01*
X138741749Y-85895108D01*
X138756641Y-85897773D01*
X138772825Y-85900074D01*
X138789950Y-85902007D01*
X138825625Y-85904750D01*
X138860868Y-85905966D01*
X138892881Y-85905618D01*
X138906802Y-85904846D01*
X138918866Y-85903670D01*
X138928724Y-85902086D01*
X138936025Y-85900087D01*
X138938608Y-85898932D01*
X138940420Y-85897671D01*
X138941419Y-85896305D01*
X138941560Y-85894833D01*
X138933144Y-85811710D01*
X138914755Y-85621217D01*
X138906022Y-85543643D01*
X138892610Y-85444931D01*
X138874498Y-85324949D01*
X138851663Y-85183564D01*
X138791737Y-84836053D01*
X138712654Y-84401337D01*
X138585590Y-83700841D01*
X138545122Y-83466345D01*
X138528097Y-83354801D01*
X138525372Y-83323956D01*
X138524075Y-83311510D01*
X138522710Y-83300884D01*
X138521193Y-83291958D01*
X138519439Y-83284607D01*
X138518448Y-83281485D01*
X138517366Y-83278711D01*
X138516182Y-83276269D01*
X138514888Y-83274146D01*
X138513471Y-83272324D01*
X138511922Y-83270790D01*
X138510229Y-83269527D01*
X138508383Y-83268521D01*
X138506373Y-83267756D01*
X138504189Y-83267217D01*
X138501819Y-83266888D01*
X138499254Y-83266754D01*
X138493496Y-83267012D01*
X138486829Y-83267867D01*
X138470435Y-83270879D01*
X138443579Y-83275573D01*
X138415819Y-83279369D01*
X138387386Y-83282283D01*
X138358510Y-83284327D01*
X138329419Y-83285516D01*
X138300344Y-83285864D01*
X138271513Y-83285383D01*
X138243156Y-83284089D01*
X138215503Y-83281995D01*
X138188784Y-83279114D01*
X138163227Y-83275462D01*
X138139062Y-83271051D01*
X138116519Y-83265895D01*
X138095828Y-83260009D01*
X138077217Y-83253406D01*
X138060916Y-83246100D01*
X138050888Y-83240871D01*
X138041414Y-83235641D01*
X138032488Y-83230390D01*
X138024105Y-83225102D01*
X138016261Y-83219759D01*
X138008950Y-83214342D01*
X138002168Y-83208836D01*
X137995910Y-83203220D01*
X137990171Y-83197479D01*
X137984946Y-83191595D01*
X137980231Y-83185548D01*
X137976019Y-83179323D01*
X137972307Y-83172901D01*
X137969090Y-83166265D01*
X137966362Y-83159396D01*
X137964118Y-83152277D01*
X137962355Y-83144891D01*
X137961067Y-83137220D01*
X137960248Y-83129245D01*
X137959895Y-83120950D01*
X137960002Y-83112317D01*
X137960565Y-83103327D01*
X137961578Y-83093964D01*
X137963036Y-83084209D01*
X137964935Y-83074045D01*
X137967271Y-83063455D01*
X137970037Y-83052419D01*
X137973229Y-83040922D01*
X137980871Y-83016469D01*
X137990160Y-82989955D01*
X138021333Y-82890975D01*
X138057905Y-82753338D01*
X138097031Y-82590353D01*
X138135865Y-82415332D01*
X138171564Y-82241585D01*
X138201283Y-82082421D01*
X138222177Y-81951153D01*
X138228425Y-81900138D01*
X138231401Y-81861089D01*
X138234832Y-81809396D01*
X138241034Y-81761089D01*
X138249880Y-81716163D01*
X138261246Y-81674619D01*
X138275007Y-81636452D01*
X138282746Y-81618635D01*
X138291037Y-81601662D01*
X138299865Y-81585532D01*
X138309213Y-81570245D01*
X138319066Y-81555802D01*
X138329408Y-81542201D01*
X138340224Y-81529443D01*
X138351498Y-81517527D01*
X138363214Y-81506452D01*
X138375357Y-81496220D01*
X138387912Y-81486829D01*
X138400862Y-81478278D01*
X138414192Y-81470569D01*
X138427886Y-81463701D01*
X138441929Y-81457672D01*
X138456305Y-81452484D01*
X138470998Y-81448135D01*
X138485993Y-81444627D01*
X138501274Y-81441957D01*
X138516826Y-81440126D01*
X138548679Y-81438981D01*
X138564949Y-81439665D01*
G37*
X138564949Y-81439665D02*
X138581427Y-81441188D01*
X138598097Y-81443549D01*
X138614943Y-81446747D01*
X138631951Y-81450782D01*
X138649105Y-81455655D01*
X138683785Y-81467910D01*
X138718860Y-81483510D01*
X138754204Y-81502454D01*
X138789692Y-81524738D01*
X138825199Y-81550362D01*
X138860600Y-81579322D01*
X138895770Y-81611617D01*
X138930584Y-81647245D01*
X138964916Y-81686204D01*
X138998643Y-81728491D01*
X139031638Y-81774105D01*
X139063777Y-81823044D01*
X139094935Y-81875305D01*
X139143213Y-81959321D01*
X139203134Y-82062142D01*
X139267069Y-82170750D01*
X139327386Y-82272129D01*
X139355215Y-82319171D01*
X139382287Y-82366049D01*
X139407930Y-82411521D01*
X139431474Y-82454348D01*
X139452246Y-82493288D01*
X139469574Y-82527103D01*
X139482788Y-82554552D01*
X139491216Y-82574395D01*
X139494446Y-82582484D01*
X139498295Y-82591077D01*
X139502711Y-82600098D01*
X139507646Y-82609471D01*
X139513048Y-82619120D01*
X139518867Y-82628970D01*
X139525054Y-82638945D01*
X139531558Y-82648970D01*
X139538330Y-82658969D01*
X139545318Y-82668865D01*
X139552473Y-82678585D01*
X139559744Y-82688051D01*
X139567082Y-82697189D01*
X139574437Y-82705922D01*
X139581757Y-82714176D01*
X139588994Y-82721874D01*
X139601583Y-82735231D01*
X139613071Y-82748236D01*
X139623450Y-82760901D01*
X139632713Y-82773240D01*
X139640853Y-82785264D01*
X139647862Y-82796987D01*
X139653734Y-82808420D01*
X139658461Y-82819576D01*
X139662037Y-82830467D01*
X139664454Y-82841106D01*
X139665706Y-82851505D01*
X139665784Y-82861677D01*
X139664683Y-82871635D01*
X139662396Y-82881390D01*
X139658914Y-82890955D01*
X139654231Y-82900343D01*
X139648340Y-82909566D01*
X139641233Y-82918636D01*
X139632905Y-82927566D01*
X139623347Y-82936369D01*
X139612552Y-82945057D01*
X139600515Y-82953641D01*
X139587226Y-82962136D01*
X139572680Y-82970553D01*
X139556869Y-82978905D01*
X139539787Y-82987203D01*
X139521425Y-82995462D01*
X139501778Y-83003692D01*
X139480837Y-83011907D01*
X139458597Y-83020119D01*
X139410187Y-83036583D01*
X139274297Y-83080925D01*
X139232606Y-83094815D01*
X139216876Y-83100393D01*
X139225241Y-83150432D01*
X139249157Y-83285381D01*
X139328942Y-83727678D01*
X139374028Y-83981812D01*
X139412803Y-84211349D01*
X139441136Y-84391087D01*
X139454897Y-84495822D01*
X139473089Y-84645289D01*
X139503171Y-84828482D01*
X139541414Y-85028726D01*
X139584091Y-85229343D01*
X139627474Y-85413659D01*
X139667834Y-85564996D01*
X139685715Y-85623086D01*
X139701442Y-85666678D01*
X139714550Y-85693687D01*
X139719976Y-85700321D01*
X139724572Y-85702028D01*
X139768392Y-85689814D01*
X139810422Y-85671532D01*
X139850605Y-85647542D01*
X139888888Y-85618207D01*
X139925216Y-85583887D01*
X139959534Y-85544946D01*
X139991787Y-85501744D01*
X140021922Y-85454643D01*
X140049882Y-85404005D01*
X140075615Y-85350191D01*
X140099064Y-85293563D01*
X140120175Y-85234483D01*
X140138895Y-85173312D01*
X140155167Y-85110411D01*
X140168938Y-85046144D01*
X140180153Y-84980870D01*
X140188756Y-84914953D01*
X140194695Y-84848752D01*
X140197913Y-84782631D01*
X140198357Y-84716951D01*
X140195971Y-84652073D01*
X140190702Y-84588359D01*
X140182494Y-84526171D01*
X140171292Y-84465870D01*
X140157043Y-84407818D01*
X140139691Y-84352377D01*
X140119182Y-84299907D01*
X140095461Y-84250772D01*
X140068474Y-84205332D01*
X140038166Y-84163950D01*
X140004482Y-84126986D01*
X139967368Y-84094803D01*
X139946705Y-84077776D01*
X139927833Y-84059670D01*
X139910741Y-84040535D01*
X139895417Y-84020425D01*
X139881850Y-83999391D01*
X139870030Y-83977486D01*
X139859946Y-83954762D01*
X139851586Y-83931271D01*
X139844940Y-83907065D01*
X139839997Y-83882197D01*
X139836746Y-83856718D01*
X139835176Y-83830681D01*
X139835275Y-83804138D01*
X139837034Y-83777141D01*
X139840441Y-83749742D01*
X139845484Y-83721994D01*
X139852154Y-83693949D01*
X139860439Y-83665659D01*
X139870328Y-83637175D01*
X139881810Y-83608552D01*
X139894874Y-83579839D01*
X139909510Y-83551090D01*
X139925706Y-83522357D01*
X139943452Y-83493692D01*
X139962736Y-83465148D01*
X139983547Y-83436776D01*
X140005875Y-83408628D01*
X140029709Y-83380757D01*
X140055037Y-83353215D01*
X140081849Y-83326055D01*
X140110133Y-83299327D01*
X140139879Y-83273086D01*
X140151545Y-83263734D01*
X140163702Y-83255138D01*
X140176330Y-83247295D01*
X140189408Y-83240203D01*
X140202915Y-83233859D01*
X140216830Y-83228261D01*
X140231133Y-83223406D01*
X140245802Y-83219291D01*
X140260817Y-83215914D01*
X140276158Y-83213273D01*
X140291803Y-83211364D01*
X140307731Y-83210186D01*
X140323922Y-83209736D01*
X140340355Y-83210011D01*
X140357009Y-83211008D01*
X140373863Y-83212726D01*
X140390897Y-83215161D01*
X140408090Y-83218311D01*
X140425420Y-83222174D01*
X140442867Y-83226747D01*
X140478030Y-83238011D01*
X140513412Y-83252085D01*
X140548845Y-83268948D01*
X140584165Y-83288579D01*
X140619204Y-83310957D01*
X140653795Y-83336064D01*
X140685692Y-83361893D01*
X140715731Y-83388702D01*
X140743907Y-83416414D01*
X140770214Y-83444953D01*
X140794646Y-83474241D01*
X140817198Y-83504201D01*
X140837864Y-83534758D01*
X140856638Y-83565833D01*
X140873514Y-83597351D01*
X140888486Y-83629234D01*
X140901548Y-83661406D01*
X140912695Y-83693790D01*
X140921921Y-83726309D01*
X140929220Y-83758887D01*
X140934586Y-83791446D01*
X140938013Y-83823909D01*
X140939496Y-83856201D01*
X140939029Y-83888244D01*
X140936605Y-83919961D01*
X140932220Y-83951276D01*
X140925867Y-83982111D01*
X140917540Y-84012391D01*
X140907233Y-84042038D01*
X140894942Y-84070975D01*
X140880659Y-84099126D01*
X140864380Y-84126413D01*
X140846098Y-84152761D01*
X140825807Y-84178092D01*
X140803502Y-84202329D01*
X140779177Y-84225396D01*
X140752826Y-84247216D01*
X140724443Y-84267712D01*
X140706219Y-84280036D01*
X140690378Y-84291221D01*
X140683334Y-84296573D01*
X140676864Y-84301864D01*
X140670963Y-84307170D01*
X140665623Y-84312564D01*
X140660837Y-84318123D01*
X140656597Y-84323920D01*
X140652898Y-84330031D01*
X140649732Y-84336530D01*
X140647092Y-84343492D01*
X140644972Y-84350992D01*
X140643364Y-84359105D01*
X140642261Y-84367905D01*
X140641656Y-84377467D01*
X140641543Y-84387867D01*
X140641914Y-84399178D01*
X140642763Y-84411476D01*
X140644082Y-84424835D01*
X140645864Y-84439331D01*
X140648104Y-84455037D01*
X140650792Y-84472030D01*
X140657491Y-84510171D01*
X140665905Y-84554353D01*
X140687655Y-84663233D01*
X140708260Y-84771998D01*
X140724328Y-84873023D01*
X140730730Y-84921840D01*
X140736082Y-84970170D01*
X140740411Y-85018495D01*
X140743745Y-85067297D01*
X140746111Y-85117060D01*
X140747539Y-85168265D01*
X140747687Y-85276933D01*
X140744412Y-85397160D01*
X140737936Y-85532808D01*
X140731714Y-85622707D01*
X140723223Y-85706553D01*
X140712295Y-85784616D01*
X140698758Y-85857171D01*
X140682444Y-85924490D01*
X140663181Y-85986846D01*
X140640799Y-86044511D01*
X140615128Y-86097760D01*
X140585998Y-86146864D01*
X140553239Y-86192096D01*
X140516680Y-86233729D01*
X140476151Y-86272036D01*
X140431483Y-86307291D01*
X140382504Y-86339765D01*
X140329045Y-86369731D01*
X140270936Y-86397463D01*
X140701473Y-88378143D01*
X140708354Y-88421874D01*
X140715219Y-88470738D01*
X140721885Y-88523088D01*
X140728170Y-88577278D01*
X140733893Y-88631663D01*
X140738869Y-88684596D01*
X140742918Y-88734432D01*
X140745857Y-88779525D01*
X140757456Y-88960464D01*
X140771991Y-89139401D01*
X140788893Y-89311825D01*
X140807596Y-89473224D01*
X140827533Y-89619087D01*
X140848136Y-89744901D01*
X140868837Y-89846156D01*
X140889069Y-89918338D01*
X140895324Y-89936890D01*
X140900676Y-89954569D01*
X140905124Y-89971419D01*
X140908666Y-89987486D01*
X140911301Y-90002816D01*
X140913026Y-90017453D01*
X140913840Y-90031443D01*
X140913740Y-90044831D01*
X140912725Y-90057661D01*
X140910793Y-90069979D01*
X140907943Y-90081831D01*
X140904172Y-90093261D01*
X140899478Y-90104315D01*
X140893860Y-90115037D01*
X140887316Y-90125473D01*
X140879844Y-90135669D01*
X140871375Y-90146627D01*
X140867596Y-90151771D01*
X140864131Y-90156767D01*
X140860988Y-90161670D01*
X140858176Y-90166536D01*
X140855703Y-90171422D01*
X140853577Y-90176383D01*
X140851807Y-90181475D01*
X140850400Y-90186754D01*
X140849365Y-90192276D01*
X140848709Y-90198098D01*
X140848442Y-90204274D01*
X140848572Y-90210862D01*
X140849106Y-90217916D01*
X140850053Y-90225494D01*
X140851421Y-90233650D01*
X140853218Y-90242441D01*
X140855453Y-90251923D01*
X140858134Y-90262151D01*
X140861269Y-90273183D01*
X140864866Y-90285073D01*
X140868933Y-90297877D01*
X140873479Y-90311652D01*
X140884040Y-90342338D01*
X140896613Y-90377578D01*
X140911266Y-90417819D01*
X140928064Y-90463510D01*
X140950541Y-90527061D01*
X140969698Y-90586791D01*
X140985524Y-90642839D01*
X140998011Y-90695341D01*
X141007148Y-90744437D01*
X141012925Y-90790266D01*
X141015334Y-90832964D01*
X141014365Y-90872671D01*
X141010007Y-90909525D01*
X141002252Y-90943663D01*
X140991089Y-90975225D01*
X140976509Y-91004348D01*
X140958502Y-91031172D01*
X140937058Y-91055833D01*
X140912169Y-91078471D01*
X140883824Y-91099223D01*
X140853092Y-91116735D01*
X140811782Y-91136023D01*
X140761253Y-91156707D01*
X140702868Y-91178406D01*
X140567968Y-91223322D01*
X140417970Y-91267720D01*
X140263762Y-91308550D01*
X140116230Y-91342763D01*
X140048371Y-91356434D01*
X139986263Y-91367307D01*
X139931268Y-91375001D01*
X139884747Y-91379133D01*
X139787550Y-91384306D01*
X139724752Y-91210529D01*
X139703933Y-91153251D01*
X139687627Y-91110318D01*
X139680742Y-91093634D01*
X139674477Y-91079821D01*
X139668662Y-91068639D01*
X139663128Y-91059850D01*
X139657704Y-91053214D01*
X139654981Y-91050630D01*
X139652222Y-91048494D01*
X139649406Y-91046778D01*
X139646511Y-91045451D01*
X139643517Y-91044483D01*
X139640403Y-91043845D01*
X139633727Y-91043438D01*
X139626314Y-91043991D01*
X139608599Y-91047024D01*
X139594841Y-91050483D01*
X139577347Y-91056164D01*
X139533704Y-91072969D01*
X139482774Y-91094977D01*
X139429661Y-91119731D01*
X139379467Y-91144770D01*
X139337295Y-91167634D01*
X139320813Y-91177482D01*
X139308250Y-91185864D01*
X139300245Y-91192472D01*
X139298150Y-91195015D01*
X139297434Y-91196999D01*
X139297369Y-91197732D01*
X139297174Y-91198660D01*
X139296410Y-91201074D01*
X139295168Y-91204194D01*
X139293474Y-91207976D01*
X139291354Y-91212371D01*
X139288832Y-91217334D01*
X139282690Y-91228774D01*
X139275252Y-91241924D01*
X139266725Y-91256411D01*
X139257315Y-91271862D01*
X139247225Y-91287905D01*
X139222918Y-91326654D01*
X139193863Y-91374046D01*
X139163709Y-91424082D01*
X139136101Y-91470760D01*
X139122532Y-91493231D01*
X139107291Y-91517150D01*
X139090896Y-91541783D01*
X139073865Y-91566395D01*
X139056716Y-91590251D01*
X139039968Y-91612615D01*
X139024139Y-91632753D01*
X139009746Y-91649928D01*
X139002800Y-91658602D01*
X138996308Y-91668185D01*
X138990268Y-91678642D01*
X138984681Y-91689937D01*
X138979547Y-91702034D01*
X138974866Y-91714899D01*
X138966861Y-91742788D01*
X138960666Y-91773318D01*
X138956279Y-91806207D01*
X138953699Y-91841168D01*
X138952926Y-91877918D01*
X138953959Y-91916173D01*
X138956796Y-91955647D01*
X138961437Y-91996058D01*
X138967880Y-92037119D01*
X138976126Y-92078547D01*
X138986172Y-92120058D01*
X138998018Y-92161367D01*
X139011663Y-92202190D01*
X139036237Y-92276582D01*
X139074813Y-92400273D01*
X139122102Y-92556051D01*
X139172816Y-92726705D01*
X139218927Y-92880440D01*
X139272728Y-93056536D01*
X136722423Y-93056536D01*
X136621644Y-92504455D01*
X136581160Y-92279330D01*
X136548753Y-92085616D01*
X136524263Y-91921776D01*
X136507526Y-91786271D01*
X136498380Y-91677563D01*
X136496662Y-91594114D01*
X136498537Y-91561382D01*
X136502209Y-91534387D01*
X136507657Y-91512937D01*
X136514861Y-91496842D01*
X136517426Y-91493038D01*
X136521400Y-91487811D01*
X136533239Y-91473459D01*
X136549706Y-91454523D01*
X136570133Y-91431741D01*
X136593850Y-91405851D01*
X136620186Y-91377592D01*
X136648472Y-91347700D01*
X136678039Y-91316915D01*
X136707881Y-91285566D01*
X136734689Y-91256257D01*
X136758558Y-91228777D01*
X136779580Y-91202913D01*
X136797848Y-91178453D01*
X136813458Y-91155186D01*
X136826502Y-91132898D01*
X136837074Y-91111379D01*
X136841462Y-91100841D01*
X136845267Y-91090415D01*
X136848502Y-91080076D01*
X136851176Y-91069796D01*
X136853303Y-91059549D01*
X136854894Y-91049309D01*
X136855960Y-91039049D01*
X136856514Y-91028742D01*
X136856131Y-91007883D01*
X136853837Y-90986520D01*
X136849727Y-90964441D01*
X136843894Y-90941434D01*
X136839411Y-90925007D01*
X136834556Y-90906173D01*
X136824352Y-90863937D01*
X136814513Y-90820035D01*
X136810116Y-90799118D01*
X136806273Y-90779774D01*
X136789189Y-90691778D01*
X136772053Y-90605056D01*
X136765539Y-90567826D01*
X136760879Y-90530775D01*
X136758043Y-90494054D01*
X136756999Y-90457813D01*
X136757717Y-90422203D01*
X136760165Y-90387375D01*
X136764312Y-90353478D01*
X136770127Y-90320664D01*
X136777580Y-90289083D01*
X136786639Y-90258886D01*
X136797272Y-90230224D01*
X136809450Y-90203246D01*
X136823140Y-90178103D01*
X136838312Y-90154947D01*
X136854935Y-90133928D01*
X136872977Y-90115195D01*
X136884273Y-90104592D01*
X136894146Y-90095124D01*
X136902675Y-90086521D01*
X136906462Y-90082458D01*
X136909943Y-90078510D01*
X136913129Y-90074641D01*
X136916030Y-90070819D01*
X136918656Y-90067009D01*
X136921017Y-90063177D01*
X136923124Y-90059289D01*
X136924985Y-90055312D01*
X136926612Y-90051210D01*
X136928015Y-90046951D01*
X136929203Y-90042501D01*
X136930187Y-90037824D01*
X136930977Y-90032888D01*
X136931582Y-90027658D01*
X136932014Y-90022101D01*
X136932282Y-90016182D01*
X136932397Y-90009867D01*
X136932368Y-90003122D01*
X136931919Y-89988209D01*
X136931017Y-89971170D01*
X136928179Y-89929625D01*
X136924661Y-89845881D01*
X136926272Y-89765770D01*
X136932903Y-89689469D01*
X136944443Y-89617152D01*
X136960786Y-89548996D01*
X136981821Y-89485177D01*
X137007439Y-89425871D01*
X137021934Y-89397966D01*
X137037533Y-89371255D01*
X137054224Y-89345760D01*
X137071993Y-89321503D01*
X137090827Y-89298507D01*
X137110711Y-89276793D01*
X137131632Y-89256384D01*
X137153577Y-89237301D01*
X137176531Y-89219566D01*
X137200482Y-89203201D01*
X137225416Y-89188229D01*
X137251319Y-89174671D01*
X137278177Y-89162550D01*
X137305977Y-89151886D01*
X137334705Y-89142704D01*
X137364348Y-89135023D01*
X137394892Y-89128867D01*
X137426324Y-89124258D01*
X137444967Y-89121685D01*
X137465691Y-89118240D01*
X137487805Y-89114072D01*
X137510616Y-89109333D01*
X137533432Y-89104171D01*
X137555563Y-89098737D01*
X137576317Y-89093180D01*
X137595001Y-89087651D01*
X137679466Y-89061135D01*
X137679466Y-88928668D01*
X137680391Y-88890905D01*
X137683146Y-88854766D01*
X137687702Y-88820299D01*
X137694031Y-88787554D01*
X137702106Y-88756581D01*
X137711896Y-88727429D01*
X137723374Y-88700149D01*
X137736511Y-88674789D01*
X137751279Y-88651401D01*
X137767649Y-88630033D01*
X137785592Y-88610735D01*
X137805081Y-88593557D01*
X137826086Y-88578548D01*
X137848580Y-88565759D01*
X137872533Y-88555239D01*
X137897917Y-88547038D01*
X137915438Y-88541684D01*
X137937069Y-88534036D01*
X137961960Y-88524452D01*
X137989259Y-88513290D01*
X138018116Y-88500906D01*
X138047678Y-88487659D01*
X138077096Y-88473906D01*
X138105517Y-88460004D01*
X138187641Y-88420667D01*
X138271935Y-88383742D01*
X138356793Y-88349782D01*
X138440608Y-88319342D01*
X138521774Y-88292973D01*
X138598684Y-88271230D01*
X138635041Y-88262265D01*
X138669731Y-88254665D01*
X138702554Y-88248497D01*
X138733309Y-88243832D01*
X138748837Y-88238398D01*
X138761861Y-88226732D01*
X138772498Y-88209159D01*
X138780864Y-88186007D01*
X138787078Y-88157605D01*
X138791255Y-88124279D01*
X138793969Y-88044165D01*
X138789941Y-87948287D01*
X138780110Y-87839264D01*
X138765409Y-87719715D01*
X138746777Y-87592262D01*
X138701457Y-87324118D01*
X138651640Y-87055791D01*
X138604814Y-86808240D01*
X138568466Y-86602423D01*
X138556721Y-86596087D01*
X138544897Y-86589396D01*
X138532935Y-86582318D01*
X138520779Y-86574820D01*
X138508371Y-86566871D01*
X138495654Y-86558437D01*
X138482569Y-86549486D01*
X138469061Y-86539987D01*
X138446060Y-86522668D01*
X138422948Y-86503412D01*
X138376490Y-86459284D01*
X138329895Y-86407999D01*
X138283369Y-86349953D01*
X138237119Y-86285541D01*
X138191352Y-86215160D01*
X138146274Y-86139205D01*
X138102092Y-86058071D01*
X138059014Y-85972155D01*
X138017245Y-85881853D01*
X137976992Y-85787559D01*
X137938463Y-85689670D01*
X137901863Y-85588583D01*
X137867400Y-85484691D01*
X137835281Y-85378392D01*
X137805711Y-85270080D01*
X137748919Y-85050326D01*
X137648502Y-85026885D01*
X137582896Y-85008439D01*
X137522500Y-84985205D01*
X137467255Y-84957546D01*
X137417101Y-84925825D01*
X137371978Y-84890405D01*
X137331827Y-84851649D01*
X137296590Y-84809921D01*
X137266206Y-84765583D01*
X137240616Y-84719000D01*
X137219761Y-84670533D01*
X137203582Y-84620547D01*
X137192018Y-84569403D01*
X137185012Y-84517467D01*
X137182503Y-84465099D01*
X137184432Y-84412665D01*
X137190740Y-84360527D01*
X137201367Y-84309047D01*
X137216254Y-84258590D01*
X137235342Y-84209518D01*
X137258571Y-84162195D01*
X137285882Y-84116984D01*
X137317216Y-84074247D01*
X137352513Y-84034349D01*
X137391714Y-83997652D01*
X137434759Y-83964519D01*
X137481590Y-83935313D01*
X137532146Y-83910398D01*
X137586369Y-83890137D01*
X137644199Y-83874894D01*
X137705577Y-83865030D01*
X137770443Y-83860909D01*
X137838738Y-83862895D01*
X137867200Y-83866225D01*
X137894941Y-83871906D01*
X137921921Y-83879844D01*
X137948098Y-83889948D01*
X137973434Y-83902123D01*
X137997887Y-83916278D01*
X138021418Y-83932320D01*
X138043985Y-83950156D01*
X138065550Y-83969693D01*
X138086070Y-83990839D01*
X138105507Y-84013500D01*
X138123819Y-84037585D01*
X138140967Y-84063000D01*
X138156910Y-84089652D01*
X138171608Y-84117450D01*
X138185020Y-84146299D01*
X138197107Y-84176108D01*
X138207827Y-84206784D01*
X138217142Y-84238234D01*
X138225009Y-84270365D01*
X138231389Y-84303084D01*
X138236242Y-84336299D01*
X138239528Y-84369917D01*
X138241205Y-84403846D01*
X138241234Y-84437992D01*
X138239574Y-84472263D01*
X138236186Y-84506566D01*
X138231028Y-84540808D01*
X138224061Y-84574897D01*
X138215244Y-84608739D01*
X138204537Y-84642243D01*
X138191900Y-84675315D01*
X138149034Y-84778627D01*
X138219789Y-85029491D01*
X138242711Y-85105526D01*
X138268407Y-85181309D01*
X138296536Y-85256264D01*
X138326758Y-85329811D01*
X138358732Y-85401372D01*
X138392116Y-85470369D01*
X138426569Y-85536223D01*
X138461751Y-85598356D01*
X138497320Y-85656191D01*
X138532935Y-85709148D01*
X138568256Y-85756649D01*
X138602940Y-85798117D01*
X138636647Y-85832972D01*
X138669037Y-85860638D01*
X138699767Y-85880534D01*
X138714404Y-85887388D01*
X138728497Y-85892083D01*
X138741749Y-85895108D01*
X138756641Y-85897773D01*
X138772825Y-85900074D01*
X138789950Y-85902007D01*
X138825625Y-85904750D01*
X138860868Y-85905966D01*
X138892881Y-85905618D01*
X138906802Y-85904846D01*
X138918866Y-85903670D01*
X138928724Y-85902086D01*
X138936025Y-85900087D01*
X138938608Y-85898932D01*
X138940420Y-85897671D01*
X138941419Y-85896305D01*
X138941560Y-85894833D01*
X138933144Y-85811710D01*
X138914755Y-85621217D01*
X138906022Y-85543643D01*
X138892610Y-85444931D01*
X138874498Y-85324949D01*
X138851663Y-85183564D01*
X138791737Y-84836053D01*
X138712654Y-84401337D01*
X138585590Y-83700841D01*
X138545122Y-83466345D01*
X138528097Y-83354801D01*
X138525372Y-83323956D01*
X138524075Y-83311510D01*
X138522710Y-83300884D01*
X138521193Y-83291958D01*
X138519439Y-83284607D01*
X138518448Y-83281485D01*
X138517366Y-83278711D01*
X138516182Y-83276269D01*
X138514888Y-83274146D01*
X138513471Y-83272324D01*
X138511922Y-83270790D01*
X138510229Y-83269527D01*
X138508383Y-83268521D01*
X138506373Y-83267756D01*
X138504189Y-83267217D01*
X138501819Y-83266888D01*
X138499254Y-83266754D01*
X138493496Y-83267012D01*
X138486829Y-83267867D01*
X138470435Y-83270879D01*
X138443579Y-83275573D01*
X138415819Y-83279369D01*
X138387386Y-83282283D01*
X138358510Y-83284327D01*
X138329419Y-83285516D01*
X138300344Y-83285864D01*
X138271513Y-83285383D01*
X138243156Y-83284089D01*
X138215503Y-83281995D01*
X138188784Y-83279114D01*
X138163227Y-83275462D01*
X138139062Y-83271051D01*
X138116519Y-83265895D01*
X138095828Y-83260009D01*
X138077217Y-83253406D01*
X138060916Y-83246100D01*
X138050888Y-83240871D01*
X138041414Y-83235641D01*
X138032488Y-83230390D01*
X138024105Y-83225102D01*
X138016261Y-83219759D01*
X138008950Y-83214342D01*
X138002168Y-83208836D01*
X137995910Y-83203220D01*
X137990171Y-83197479D01*
X137984946Y-83191595D01*
X137980231Y-83185548D01*
X137976019Y-83179323D01*
X137972307Y-83172901D01*
X137969090Y-83166265D01*
X137966362Y-83159396D01*
X137964118Y-83152277D01*
X137962355Y-83144891D01*
X137961067Y-83137220D01*
X137960248Y-83129245D01*
X137959895Y-83120950D01*
X137960002Y-83112317D01*
X137960565Y-83103327D01*
X137961578Y-83093964D01*
X137963036Y-83084209D01*
X137964935Y-83074045D01*
X137967271Y-83063455D01*
X137970037Y-83052419D01*
X137973229Y-83040922D01*
X137980871Y-83016469D01*
X137990160Y-82989955D01*
X138021333Y-82890975D01*
X138057905Y-82753338D01*
X138097031Y-82590353D01*
X138135865Y-82415332D01*
X138171564Y-82241585D01*
X138201283Y-82082421D01*
X138222177Y-81951153D01*
X138228425Y-81900138D01*
X138231401Y-81861089D01*
X138234832Y-81809396D01*
X138241034Y-81761089D01*
X138249880Y-81716163D01*
X138261246Y-81674619D01*
X138275007Y-81636452D01*
X138282746Y-81618635D01*
X138291037Y-81601662D01*
X138299865Y-81585532D01*
X138309213Y-81570245D01*
X138319066Y-81555802D01*
X138329408Y-81542201D01*
X138340224Y-81529443D01*
X138351498Y-81517527D01*
X138363214Y-81506452D01*
X138375357Y-81496220D01*
X138387912Y-81486829D01*
X138400862Y-81478278D01*
X138414192Y-81470569D01*
X138427886Y-81463701D01*
X138441929Y-81457672D01*
X138456305Y-81452484D01*
X138470998Y-81448135D01*
X138485993Y-81444627D01*
X138501274Y-81441957D01*
X138516826Y-81440126D01*
X138548679Y-81438981D01*
X138564949Y-81439665D01*
G36*
X140430065Y-93534566D02*
G01*
X140506567Y-93535320D01*
X140578382Y-93537582D01*
X140645513Y-93541352D01*
X140707958Y-93546630D01*
X140765717Y-93553416D01*
X140818792Y-93561709D01*
X140867180Y-93571511D01*
X140910884Y-93582821D01*
X140938424Y-93591404D01*
X140965466Y-93600781D01*
X140992010Y-93610953D01*
X141018055Y-93621920D01*
X141043603Y-93633680D01*
X141068652Y-93646235D01*
X141093203Y-93659585D01*
X141117257Y-93673728D01*
X141140811Y-93688666D01*
X141163868Y-93704399D01*
X141186427Y-93720925D01*
X141208487Y-93738246D01*
X141230050Y-93756362D01*
X141251114Y-93775272D01*
X141271680Y-93794976D01*
X141291748Y-93815474D01*
X141311270Y-93836666D01*
X141330200Y-93858451D01*
X141348538Y-93880827D01*
X141366283Y-93903797D01*
X141383436Y-93927358D01*
X141399996Y-93951512D01*
X141415964Y-93976259D01*
X141431340Y-94001598D01*
X141446123Y-94027529D01*
X141460314Y-94054053D01*
X141473912Y-94081169D01*
X141486918Y-94108877D01*
X141499332Y-94137178D01*
X141511153Y-94166071D01*
X141522382Y-94195557D01*
X141533018Y-94225635D01*
X141543035Y-94256238D01*
X141552406Y-94287730D01*
X141561131Y-94320110D01*
X141569209Y-94353379D01*
X141576641Y-94387537D01*
X141583427Y-94422583D01*
X141589566Y-94458518D01*
X141595060Y-94495341D01*
X141599907Y-94533053D01*
X141604107Y-94571654D01*
X141610570Y-94651521D01*
X141614448Y-94734943D01*
X141615740Y-94821919D01*
X141614528Y-94898555D01*
X141610893Y-94972498D01*
X141604834Y-95043749D01*
X141596352Y-95112306D01*
X141585447Y-95178171D01*
X141572117Y-95241344D01*
X141556365Y-95301823D01*
X141547580Y-95331053D01*
X141538189Y-95359610D01*
X141526024Y-95393667D01*
X141513227Y-95426902D01*
X141499797Y-95459316D01*
X141485734Y-95490908D01*
X141471038Y-95521680D01*
X141455710Y-95551630D01*
X141439748Y-95580759D01*
X141423154Y-95609066D01*
X141405927Y-95636553D01*
X141388068Y-95663218D01*
X141369575Y-95689061D01*
X141350450Y-95714084D01*
X141330692Y-95738285D01*
X141310301Y-95761665D01*
X141289277Y-95784223D01*
X141267620Y-95805960D01*
X141250670Y-95821895D01*
X141232992Y-95837385D01*
X141214587Y-95852431D01*
X141195455Y-95867032D01*
X141175596Y-95881190D01*
X141155010Y-95894903D01*
X141133696Y-95908171D01*
X141111656Y-95920995D01*
X141088889Y-95933375D01*
X141065395Y-95945311D01*
X141041173Y-95956802D01*
X141016225Y-95967849D01*
X140990549Y-95978452D01*
X140964147Y-95988611D01*
X140937017Y-95998325D01*
X140909160Y-96007595D01*
X140887605Y-96014064D01*
X140865161Y-96020117D01*
X140841828Y-96025751D01*
X140817607Y-96030969D01*
X140792497Y-96035769D01*
X140766499Y-96040151D01*
X140739611Y-96044116D01*
X140711836Y-96047664D01*
X140653618Y-96053507D01*
X140591846Y-96057681D01*
X140526520Y-96060185D01*
X140457639Y-96061020D01*
X139497725Y-96061020D01*
X139497725Y-95635348D01*
X140007841Y-95635348D01*
X140388705Y-95635348D01*
X140440271Y-95634971D01*
X140488121Y-95633840D01*
X140532256Y-95631955D01*
X140572674Y-95629316D01*
X140609376Y-95625923D01*
X140642362Y-95621777D01*
X140671633Y-95616876D01*
X140697187Y-95611222D01*
X140712529Y-95607176D01*
X140727535Y-95602793D01*
X140742203Y-95598074D01*
X140756536Y-95593019D01*
X140770531Y-95587626D01*
X140784190Y-95581898D01*
X140797513Y-95575832D01*
X140810499Y-95569430D01*
X140823148Y-95562692D01*
X140835460Y-95555617D01*
X140847436Y-95548205D01*
X140859076Y-95540457D01*
X140870379Y-95532372D01*
X140881345Y-95523950D01*
X140891975Y-95515192D01*
X140902268Y-95506098D01*
X140912487Y-95496464D01*
X140922463Y-95486090D01*
X140932198Y-95474976D01*
X140941690Y-95463121D01*
X140950939Y-95450525D01*
X140959946Y-95437189D01*
X140968711Y-95423113D01*
X140977234Y-95408296D01*
X140985514Y-95392739D01*
X140993552Y-95376441D01*
X141001347Y-95359403D01*
X141008901Y-95341624D01*
X141016211Y-95323104D01*
X141023280Y-95303845D01*
X141030106Y-95283844D01*
X141036690Y-95263104D01*
X141042950Y-95241299D01*
X141048807Y-95218539D01*
X141054260Y-95194822D01*
X141059309Y-95170150D01*
X141063954Y-95144522D01*
X141068195Y-95117937D01*
X141075466Y-95061901D01*
X141081120Y-95002041D01*
X141085159Y-94938357D01*
X141087583Y-94870850D01*
X141088391Y-94799518D01*
X141087583Y-94728403D01*
X141085159Y-94661542D01*
X141081120Y-94598935D01*
X141075466Y-94540583D01*
X141068195Y-94486486D01*
X141059309Y-94436643D01*
X141048807Y-94391054D01*
X141036690Y-94349720D01*
X141030066Y-94330386D01*
X141023118Y-94311590D01*
X141015848Y-94293333D01*
X141008254Y-94275615D01*
X141000338Y-94258435D01*
X140992098Y-94241794D01*
X140983535Y-94225691D01*
X140974649Y-94210127D01*
X140965440Y-94195101D01*
X140955907Y-94180614D01*
X140946052Y-94166666D01*
X140935873Y-94153256D01*
X140925371Y-94140384D01*
X140914547Y-94128052D01*
X140903399Y-94116257D01*
X140891927Y-94105002D01*
X140880100Y-94094238D01*
X140867881Y-94083918D01*
X140855272Y-94074042D01*
X140842273Y-94064611D01*
X140828883Y-94055624D01*
X140815103Y-94047081D01*
X140800933Y-94038983D01*
X140786372Y-94031328D01*
X140771420Y-94024119D01*
X140756078Y-94017353D01*
X140740346Y-94011032D01*
X140724223Y-94005155D01*
X140707709Y-93999722D01*
X140690805Y-93994734D01*
X140673511Y-93990189D01*
X140655826Y-93986090D01*
X140641669Y-93983168D01*
X140625910Y-93980435D01*
X140589585Y-93975534D01*
X140546850Y-93971387D01*
X140497708Y-93967995D01*
X140442156Y-93965356D01*
X140380196Y-93963471D01*
X140311827Y-93962340D01*
X140237049Y-93961963D01*
X140007841Y-93961961D01*
X140007841Y-95635348D01*
X139497725Y-95635348D01*
X139497725Y-93534566D01*
X140430065Y-93534566D01*
G37*
X140430065Y-93534566D02*
X140506567Y-93535320D01*
X140578382Y-93537582D01*
X140645513Y-93541352D01*
X140707958Y-93546630D01*
X140765717Y-93553416D01*
X140818792Y-93561709D01*
X140867180Y-93571511D01*
X140910884Y-93582821D01*
X140938424Y-93591404D01*
X140965466Y-93600781D01*
X140992010Y-93610953D01*
X141018055Y-93621920D01*
X141043603Y-93633680D01*
X141068652Y-93646235D01*
X141093203Y-93659585D01*
X141117257Y-93673728D01*
X141140811Y-93688666D01*
X141163868Y-93704399D01*
X141186427Y-93720925D01*
X141208487Y-93738246D01*
X141230050Y-93756362D01*
X141251114Y-93775272D01*
X141271680Y-93794976D01*
X141291748Y-93815474D01*
X141311270Y-93836666D01*
X141330200Y-93858451D01*
X141348538Y-93880827D01*
X141366283Y-93903797D01*
X141383436Y-93927358D01*
X141399996Y-93951512D01*
X141415964Y-93976259D01*
X141431340Y-94001598D01*
X141446123Y-94027529D01*
X141460314Y-94054053D01*
X141473912Y-94081169D01*
X141486918Y-94108877D01*
X141499332Y-94137178D01*
X141511153Y-94166071D01*
X141522382Y-94195557D01*
X141533018Y-94225635D01*
X141543035Y-94256238D01*
X141552406Y-94287730D01*
X141561131Y-94320110D01*
X141569209Y-94353379D01*
X141576641Y-94387537D01*
X141583427Y-94422583D01*
X141589566Y-94458518D01*
X141595060Y-94495341D01*
X141599907Y-94533053D01*
X141604107Y-94571654D01*
X141610570Y-94651521D01*
X141614448Y-94734943D01*
X141615740Y-94821919D01*
X141614528Y-94898555D01*
X141610893Y-94972498D01*
X141604834Y-95043749D01*
X141596352Y-95112306D01*
X141585447Y-95178171D01*
X141572117Y-95241344D01*
X141556365Y-95301823D01*
X141547580Y-95331053D01*
X141538189Y-95359610D01*
X141526024Y-95393667D01*
X141513227Y-95426902D01*
X141499797Y-95459316D01*
X141485734Y-95490908D01*
X141471038Y-95521680D01*
X141455710Y-95551630D01*
X141439748Y-95580759D01*
X141423154Y-95609066D01*
X141405927Y-95636553D01*
X141388068Y-95663218D01*
X141369575Y-95689061D01*
X141350450Y-95714084D01*
X141330692Y-95738285D01*
X141310301Y-95761665D01*
X141289277Y-95784223D01*
X141267620Y-95805960D01*
X141250670Y-95821895D01*
X141232992Y-95837385D01*
X141214587Y-95852431D01*
X141195455Y-95867032D01*
X141175596Y-95881190D01*
X141155010Y-95894903D01*
X141133696Y-95908171D01*
X141111656Y-95920995D01*
X141088889Y-95933375D01*
X141065395Y-95945311D01*
X141041173Y-95956802D01*
X141016225Y-95967849D01*
X140990549Y-95978452D01*
X140964147Y-95988611D01*
X140937017Y-95998325D01*
X140909160Y-96007595D01*
X140887605Y-96014064D01*
X140865161Y-96020117D01*
X140841828Y-96025751D01*
X140817607Y-96030969D01*
X140792497Y-96035769D01*
X140766499Y-96040151D01*
X140739611Y-96044116D01*
X140711836Y-96047664D01*
X140653618Y-96053507D01*
X140591846Y-96057681D01*
X140526520Y-96060185D01*
X140457639Y-96061020D01*
X139497725Y-96061020D01*
X139497725Y-95635348D01*
X140007841Y-95635348D01*
X140388705Y-95635348D01*
X140440271Y-95634971D01*
X140488121Y-95633840D01*
X140532256Y-95631955D01*
X140572674Y-95629316D01*
X140609376Y-95625923D01*
X140642362Y-95621777D01*
X140671633Y-95616876D01*
X140697187Y-95611222D01*
X140712529Y-95607176D01*
X140727535Y-95602793D01*
X140742203Y-95598074D01*
X140756536Y-95593019D01*
X140770531Y-95587626D01*
X140784190Y-95581898D01*
X140797513Y-95575832D01*
X140810499Y-95569430D01*
X140823148Y-95562692D01*
X140835460Y-95555617D01*
X140847436Y-95548205D01*
X140859076Y-95540457D01*
X140870379Y-95532372D01*
X140881345Y-95523950D01*
X140891975Y-95515192D01*
X140902268Y-95506098D01*
X140912487Y-95496464D01*
X140922463Y-95486090D01*
X140932198Y-95474976D01*
X140941690Y-95463121D01*
X140950939Y-95450525D01*
X140959946Y-95437189D01*
X140968711Y-95423113D01*
X140977234Y-95408296D01*
X140985514Y-95392739D01*
X140993552Y-95376441D01*
X141001347Y-95359403D01*
X141008901Y-95341624D01*
X141016211Y-95323104D01*
X141023280Y-95303845D01*
X141030106Y-95283844D01*
X141036690Y-95263104D01*
X141042950Y-95241299D01*
X141048807Y-95218539D01*
X141054260Y-95194822D01*
X141059309Y-95170150D01*
X141063954Y-95144522D01*
X141068195Y-95117937D01*
X141075466Y-95061901D01*
X141081120Y-95002041D01*
X141085159Y-94938357D01*
X141087583Y-94870850D01*
X141088391Y-94799518D01*
X141087583Y-94728403D01*
X141085159Y-94661542D01*
X141081120Y-94598935D01*
X141075466Y-94540583D01*
X141068195Y-94486486D01*
X141059309Y-94436643D01*
X141048807Y-94391054D01*
X141036690Y-94349720D01*
X141030066Y-94330386D01*
X141023118Y-94311590D01*
X141015848Y-94293333D01*
X141008254Y-94275615D01*
X141000338Y-94258435D01*
X140992098Y-94241794D01*
X140983535Y-94225691D01*
X140974649Y-94210127D01*
X140965440Y-94195101D01*
X140955907Y-94180614D01*
X140946052Y-94166666D01*
X140935873Y-94153256D01*
X140925371Y-94140384D01*
X140914547Y-94128052D01*
X140903399Y-94116257D01*
X140891927Y-94105002D01*
X140880100Y-94094238D01*
X140867881Y-94083918D01*
X140855272Y-94074042D01*
X140842273Y-94064611D01*
X140828883Y-94055624D01*
X140815103Y-94047081D01*
X140800933Y-94038983D01*
X140786372Y-94031328D01*
X140771420Y-94024119D01*
X140756078Y-94017353D01*
X140740346Y-94011032D01*
X140724223Y-94005155D01*
X140707709Y-93999722D01*
X140690805Y-93994734D01*
X140673511Y-93990189D01*
X140655826Y-93986090D01*
X140641669Y-93983168D01*
X140625910Y-93980435D01*
X140589585Y-93975534D01*
X140546850Y-93971387D01*
X140497708Y-93967995D01*
X140442156Y-93965356D01*
X140380196Y-93963471D01*
X140311827Y-93962340D01*
X140237049Y-93961963D01*
X140007841Y-93961961D01*
X140007841Y-95635348D01*
X139497725Y-95635348D01*
X139497725Y-93534566D01*
X140430065Y-93534566D01*
D11*
G36*
X137289884Y-100731828D02*
G01*
X137306373Y-100732949D01*
X137322548Y-100734817D01*
X137338411Y-100737431D01*
X137353961Y-100740793D01*
X137369198Y-100744902D01*
X137384123Y-100749758D01*
X137398735Y-100755361D01*
X137413034Y-100761712D01*
X137427020Y-100768809D01*
X137440694Y-100776653D01*
X137454054Y-100785245D01*
X137467102Y-100794583D01*
X137479838Y-100804669D01*
X137492260Y-100815502D01*
X137504370Y-100827081D01*
X137515950Y-100839191D01*
X137526783Y-100851614D01*
X137536868Y-100864349D01*
X137546207Y-100877398D01*
X137554799Y-100890759D01*
X137562644Y-100904432D01*
X137569741Y-100918419D01*
X137576092Y-100932718D01*
X137581695Y-100947331D01*
X137586551Y-100962255D01*
X137590661Y-100977493D01*
X137594023Y-100993043D01*
X137596638Y-101008906D01*
X137598506Y-101025082D01*
X137599626Y-101041570D01*
X137600000Y-101058371D01*
X137600000Y-103200000D01*
X137599626Y-103216802D01*
X137598506Y-103233290D01*
X137596638Y-103249466D01*
X137594023Y-103265329D01*
X137590661Y-103280879D01*
X137586551Y-103296116D01*
X137581695Y-103311041D01*
X137576092Y-103325653D01*
X137569741Y-103339951D01*
X137562644Y-103353938D01*
X137554799Y-103367611D01*
X137546207Y-103380972D01*
X137536868Y-103394020D01*
X137526783Y-103406755D01*
X137515950Y-103419177D01*
X137504370Y-103431287D01*
X137492260Y-103442867D01*
X137479838Y-103453700D01*
X137467102Y-103463786D01*
X137454054Y-103473125D01*
X137440694Y-103481717D01*
X137427020Y-103489562D01*
X137413034Y-103496659D01*
X137398735Y-103503010D01*
X137384123Y-103508613D01*
X137369198Y-103513469D01*
X137353961Y-103517578D01*
X137338411Y-103520940D01*
X137322548Y-103523555D01*
X137306373Y-103525423D01*
X137289884Y-103526543D01*
X137273083Y-103526917D01*
X137256282Y-103526543D01*
X137239794Y-103525423D01*
X137223619Y-103523555D01*
X137207756Y-103520940D01*
X137192206Y-103517578D01*
X137176969Y-103513469D01*
X137162044Y-103508613D01*
X137147432Y-103503010D01*
X137133133Y-103496659D01*
X137119147Y-103489562D01*
X137105473Y-103481717D01*
X137092112Y-103473125D01*
X137079064Y-103463786D01*
X137066329Y-103453700D01*
X137053907Y-103442867D01*
X137041797Y-103431287D01*
X137030217Y-103419177D01*
X137019384Y-103406755D01*
X137009298Y-103394020D01*
X136999960Y-103380972D01*
X136991368Y-103367611D01*
X136983523Y-103353938D01*
X136976426Y-103339951D01*
X136970075Y-103325653D01*
X136964472Y-103311041D01*
X136959615Y-103296116D01*
X136955506Y-103280879D01*
X136952144Y-103265329D01*
X136949529Y-103249466D01*
X136947661Y-103233290D01*
X136946540Y-103216802D01*
X136946167Y-103200000D01*
X136946164Y-101058371D01*
X136946537Y-101041839D01*
X136947658Y-101025602D01*
X136949526Y-101009661D01*
X136952141Y-100994015D01*
X136955503Y-100978665D01*
X136959612Y-100963610D01*
X136964468Y-100948850D01*
X136970071Y-100934386D01*
X136976421Y-100920217D01*
X136983519Y-100906344D01*
X136991363Y-100892765D01*
X136999955Y-100879483D01*
X137009294Y-100866496D01*
X137019380Y-100853804D01*
X137030213Y-100841407D01*
X137041794Y-100829306D01*
X137053886Y-100817718D01*
X137066256Y-100806859D01*
X137078905Y-100796730D01*
X137091831Y-100787330D01*
X137105036Y-100778660D01*
X137118518Y-100770720D01*
X137132278Y-100763510D01*
X137146317Y-100757029D01*
X137160633Y-100751278D01*
X137175228Y-100746257D01*
X137190100Y-100741965D01*
X137205250Y-100738403D01*
X137220678Y-100735571D01*
X137236385Y-100733469D01*
X137252369Y-100732097D01*
X137268631Y-100731455D01*
X137273083Y-100731455D01*
X137289884Y-100731828D01*
G37*
D10*
G36*
X137018314Y-94528947D02*
G01*
X138017865Y-94528947D01*
X138017865Y-93534566D01*
X138527981Y-93534566D01*
X138527981Y-96061018D01*
X138017865Y-96061018D01*
X138017865Y-94956341D01*
X137018314Y-94956341D01*
X137018314Y-96061018D01*
X136508198Y-96061018D01*
X136508198Y-93534566D01*
X137018314Y-93534566D01*
X137018314Y-94528947D01*
G37*
X137018314Y-94528947D02*
X138017865Y-94528947D01*
X138017865Y-93534566D01*
X138527981Y-93534566D01*
X138527981Y-96061018D01*
X138017865Y-96061018D01*
X138017865Y-94956341D01*
X137018314Y-94956341D01*
X137018314Y-96061018D01*
X136508198Y-96061018D01*
X136508198Y-93534566D01*
X137018314Y-93534566D01*
X137018314Y-94528947D01*
G36*
X139281698Y-96061018D02*
G01*
X138771582Y-96061018D01*
X138771582Y-93534566D01*
X139281698Y-93534566D01*
X139281698Y-96061018D01*
G37*
X139281698Y-96061018D02*
X138771582Y-96061018D01*
X138771582Y-93534566D01*
X139281698Y-93534566D01*
X139281698Y-96061018D01*
D11*
G36*
X138453429Y-101805745D02*
G01*
X138461795Y-101806162D01*
X138470178Y-101806857D01*
X138478579Y-101807830D01*
X138486997Y-101809081D01*
X138495432Y-101810610D01*
X138503885Y-101812417D01*
X138512355Y-101814502D01*
X138520843Y-101816865D01*
X138529348Y-101819506D01*
X138537870Y-101822424D01*
X138546409Y-101825621D01*
X138554966Y-101829096D01*
X138563540Y-101832848D01*
X138572132Y-101836878D01*
X138580740Y-101841187D01*
X138598011Y-101850187D01*
X138606256Y-101854765D01*
X138614239Y-101859395D01*
X138621963Y-101864078D01*
X138629425Y-101868813D01*
X138636627Y-101873599D01*
X138643568Y-101878438D01*
X138650249Y-101883329D01*
X138656669Y-101888273D01*
X138662828Y-101893268D01*
X138668727Y-101898315D01*
X138674365Y-101903415D01*
X138679743Y-101908566D01*
X138684859Y-101913769D01*
X138689715Y-101919025D01*
X138717167Y-101950186D01*
X138743923Y-101981954D01*
X138769985Y-102014331D01*
X138795351Y-102047317D01*
X138820023Y-102080910D01*
X138843999Y-102115111D01*
X138867281Y-102149920D01*
X138889868Y-102185338D01*
X138911759Y-102221364D01*
X138932956Y-102257997D01*
X138953458Y-102295239D01*
X138973264Y-102333089D01*
X138992376Y-102371547D01*
X139010793Y-102410614D01*
X139028515Y-102450288D01*
X139045541Y-102490570D01*
X139061969Y-102531383D01*
X139077336Y-102572648D01*
X139091644Y-102614364D01*
X139104892Y-102656531D01*
X139117080Y-102699151D01*
X139128209Y-102742222D01*
X139138277Y-102785745D01*
X139147286Y-102829719D01*
X139155235Y-102874146D01*
X139162124Y-102919024D01*
X139167953Y-102964353D01*
X139172722Y-103010135D01*
X139176432Y-103056368D01*
X139179081Y-103103053D01*
X139180671Y-103150190D01*
X139181201Y-103197779D01*
X139180584Y-103247895D01*
X139178734Y-103297612D01*
X139175650Y-103346929D01*
X139171332Y-103395846D01*
X139165781Y-103444364D01*
X139158996Y-103492482D01*
X139150978Y-103540200D01*
X139141726Y-103587519D01*
X139131241Y-103634439D01*
X139119522Y-103680958D01*
X139106569Y-103727078D01*
X139092383Y-103772799D01*
X139076963Y-103818120D01*
X139060310Y-103863041D01*
X139042423Y-103907563D01*
X139023303Y-103951685D01*
X139003487Y-103994929D01*
X138982959Y-104037375D01*
X138961719Y-104079021D01*
X138939766Y-104119868D01*
X138917101Y-104159916D01*
X138893724Y-104199165D01*
X138869634Y-104237614D01*
X138844833Y-104275264D01*
X138819318Y-104312115D01*
X138793092Y-104348167D01*
X138766153Y-104383419D01*
X138738501Y-104417872D01*
X138710138Y-104451526D01*
X138681062Y-104484381D01*
X138651274Y-104516437D01*
X138620773Y-104547693D01*
X138589517Y-104578464D01*
X138557461Y-104608504D01*
X138524606Y-104637815D01*
X138490952Y-104666396D01*
X138456499Y-104694247D01*
X138421246Y-104721369D01*
X138385194Y-104747760D01*
X138348343Y-104773422D01*
X138310693Y-104798354D01*
X138272244Y-104822557D01*
X138232995Y-104846029D01*
X138192947Y-104868772D01*
X138152100Y-104890786D01*
X138110454Y-104912069D01*
X138068009Y-104932623D01*
X138024765Y-104952448D01*
X137980903Y-104971299D01*
X137936608Y-104988934D01*
X137891877Y-105005353D01*
X137846713Y-105020556D01*
X137801114Y-105034542D01*
X137755080Y-105047312D01*
X137708612Y-105058866D01*
X137661710Y-105069203D01*
X137614374Y-105078325D01*
X137566603Y-105086230D01*
X137518398Y-105092919D01*
X137469758Y-105098392D01*
X137420684Y-105102648D01*
X137371176Y-105105689D01*
X137321233Y-105107513D01*
X137270856Y-105108121D01*
X137220740Y-105107513D01*
X137171023Y-105105689D01*
X137121707Y-105102648D01*
X137072789Y-105098392D01*
X137024272Y-105092919D01*
X136976154Y-105086230D01*
X136928435Y-105078325D01*
X136881116Y-105069203D01*
X136834197Y-105058866D01*
X136787677Y-105047312D01*
X136741557Y-105034542D01*
X136695836Y-105020556D01*
X136650515Y-105005353D01*
X136605593Y-104988934D01*
X136561072Y-104971299D01*
X136516949Y-104952448D01*
X136473696Y-104932363D01*
X136431224Y-104911584D01*
X136389534Y-104890109D01*
X136348626Y-104867939D01*
X136308500Y-104845075D01*
X136269156Y-104821515D01*
X136230593Y-104797260D01*
X136192813Y-104772311D01*
X136155814Y-104746666D01*
X136119597Y-104720326D01*
X136084162Y-104693292D01*
X136049509Y-104665562D01*
X136015638Y-104637137D01*
X135982549Y-104608018D01*
X135950242Y-104578203D01*
X135918716Y-104547693D01*
X135888216Y-104516437D01*
X135858427Y-104484381D01*
X135829351Y-104451526D01*
X135800987Y-104417872D01*
X135773336Y-104383419D01*
X135746397Y-104348167D01*
X135720170Y-104312115D01*
X135694656Y-104275264D01*
X135669854Y-104237614D01*
X135645764Y-104199165D01*
X135622387Y-104159916D01*
X135599722Y-104119868D01*
X135577770Y-104079021D01*
X135556530Y-104037375D01*
X135536002Y-103994929D01*
X135516186Y-103951685D01*
X135497335Y-103907823D01*
X135479700Y-103863527D01*
X135463282Y-103818797D01*
X135448079Y-103773632D01*
X135434093Y-103728034D01*
X135421322Y-103682000D01*
X135409768Y-103635533D01*
X135399431Y-103588630D01*
X135390309Y-103541294D01*
X135382404Y-103493523D01*
X135375714Y-103445318D01*
X135370241Y-103396679D01*
X135365985Y-103347605D01*
X135362944Y-103298097D01*
X135361120Y-103248155D01*
X135360512Y-103197779D01*
X135361033Y-103150190D01*
X135362597Y-103103053D01*
X135365203Y-103056368D01*
X135368852Y-103010135D01*
X135373543Y-102964353D01*
X135379276Y-102919024D01*
X135386052Y-102874146D01*
X135393871Y-102829719D01*
X135402732Y-102785745D01*
X135412635Y-102742222D01*
X135423581Y-102699151D01*
X135435569Y-102656531D01*
X135448600Y-102614364D01*
X135462673Y-102572648D01*
X135477789Y-102531383D01*
X135493947Y-102490570D01*
X135511243Y-102450288D01*
X135529217Y-102410614D01*
X135547868Y-102371547D01*
X135567197Y-102333089D01*
X135587204Y-102295239D01*
X135607888Y-102257997D01*
X135629250Y-102221364D01*
X135651289Y-102185338D01*
X135674006Y-102149920D01*
X135697401Y-102115111D01*
X135721473Y-102080910D01*
X135746223Y-102047317D01*
X135771651Y-102014331D01*
X135797756Y-101981954D01*
X135824538Y-101950186D01*
X135851999Y-101919025D01*
X135856846Y-101913769D01*
X135861937Y-101908566D01*
X135867271Y-101903415D01*
X135872848Y-101898315D01*
X135878668Y-101893268D01*
X135884732Y-101888273D01*
X135891038Y-101883329D01*
X135897588Y-101878438D01*
X135904382Y-101873599D01*
X135911418Y-101868813D01*
X135918698Y-101864078D01*
X135926221Y-101859395D01*
X135933987Y-101854765D01*
X135941997Y-101850187D01*
X135950250Y-101845661D01*
X135958746Y-101841187D01*
X135967624Y-101836878D01*
X135976468Y-101832848D01*
X135985277Y-101829096D01*
X135994051Y-101825621D01*
X136002790Y-101822424D01*
X136011494Y-101819506D01*
X136020164Y-101816865D01*
X136028799Y-101814502D01*
X136037400Y-101812417D01*
X136045965Y-101810610D01*
X136054496Y-101809081D01*
X136062992Y-101807830D01*
X136071453Y-101806857D01*
X136079879Y-101806162D01*
X136088271Y-101805745D01*
X136096628Y-101805606D01*
X136096905Y-101805615D01*
X136097183Y-101805641D01*
X136097461Y-101805684D01*
X136097738Y-101805745D01*
X136098016Y-101805823D01*
X136098294Y-101805918D01*
X136098572Y-101806031D01*
X136098851Y-101806161D01*
X136099129Y-101806308D01*
X136099407Y-101806472D01*
X136099686Y-101806654D01*
X136099964Y-101806854D01*
X136100243Y-101807071D01*
X136100522Y-101807305D01*
X136100801Y-101807556D01*
X136101080Y-101807825D01*
X136103299Y-101807825D01*
X136119553Y-101808467D01*
X136135511Y-101809839D01*
X136151175Y-101811941D01*
X136166542Y-101814773D01*
X136181615Y-101818335D01*
X136196392Y-101822626D01*
X136210873Y-101827647D01*
X136225059Y-101833398D01*
X136238950Y-101839879D01*
X136252546Y-101847090D01*
X136265846Y-101855030D01*
X136278850Y-101863700D01*
X136291559Y-101873100D01*
X136303973Y-101883230D01*
X136316091Y-101894090D01*
X136327914Y-101905680D01*
X136339495Y-101917511D01*
X136350328Y-101929656D01*
X136360414Y-101942113D01*
X136369753Y-101954883D01*
X136378345Y-101967965D01*
X136386189Y-101981361D01*
X136393287Y-101995069D01*
X136399637Y-102009090D01*
X136405240Y-102023424D01*
X136410097Y-102038070D01*
X136414206Y-102053030D01*
X136417568Y-102068302D01*
X136420182Y-102083886D01*
X136422050Y-102099784D01*
X136423171Y-102115994D01*
X136423544Y-102132517D01*
X136423431Y-102139510D01*
X136423092Y-102146590D01*
X136422528Y-102153757D01*
X136421737Y-102161011D01*
X136420721Y-102168352D01*
X136419478Y-102175780D01*
X136418010Y-102183294D01*
X136416316Y-102190896D01*
X136414396Y-102198584D01*
X136412250Y-102206359D01*
X136409879Y-102214221D01*
X136407281Y-102222170D01*
X136404458Y-102230206D01*
X136401408Y-102238328D01*
X136398133Y-102246538D01*
X136394632Y-102254834D01*
X136387891Y-102270992D01*
X136381012Y-102286107D01*
X136373993Y-102300180D01*
X136370431Y-102306825D01*
X136366835Y-102313210D01*
X136363203Y-102319335D01*
X136359537Y-102325199D01*
X136355836Y-102330802D01*
X136352101Y-102336145D01*
X136348330Y-102341227D01*
X136344525Y-102346049D01*
X136340685Y-102350610D01*
X136336810Y-102354910D01*
X136297761Y-102400683D01*
X136261232Y-102447376D01*
X136227222Y-102494990D01*
X136195731Y-102543525D01*
X136166759Y-102592981D01*
X136140307Y-102643358D01*
X136116374Y-102694655D01*
X136094960Y-102746874D01*
X136076065Y-102800013D01*
X136059690Y-102854074D01*
X136045834Y-102909055D01*
X136034497Y-102964957D01*
X136025680Y-103021780D01*
X136019382Y-103079523D01*
X136015603Y-103138187D01*
X136014343Y-103197772D01*
X136015021Y-103242781D01*
X136017054Y-103287182D01*
X136020442Y-103330974D01*
X136025185Y-103374159D01*
X136031283Y-103416735D01*
X136038737Y-103458703D01*
X136047545Y-103500062D01*
X136057709Y-103540814D01*
X136069229Y-103580958D01*
X136082103Y-103620493D01*
X136096332Y-103659420D01*
X136111917Y-103697739D01*
X136128857Y-103735450D01*
X136147152Y-103772553D01*
X136166803Y-103809048D01*
X136187808Y-103844934D01*
X136210160Y-103879752D01*
X136233294Y-103913597D01*
X136257210Y-103946470D01*
X136281908Y-103978369D01*
X136307387Y-104009295D01*
X136333649Y-104039249D01*
X136360692Y-104068229D01*
X136388517Y-104096237D01*
X136417124Y-104123271D01*
X136446513Y-104149333D01*
X136476683Y-104174421D01*
X136507636Y-104198537D01*
X136539370Y-104221680D01*
X136571886Y-104243849D01*
X136605184Y-104265046D01*
X136639264Y-104285269D01*
X136675611Y-104305737D01*
X136712375Y-104324883D01*
X136749556Y-104342709D01*
X136787155Y-104359215D01*
X136825170Y-104374400D01*
X136863602Y-104388265D01*
X136902451Y-104400809D01*
X136941717Y-104412032D01*
X136981400Y-104421935D01*
X137021500Y-104430518D01*
X137062017Y-104437780D01*
X137102951Y-104443722D01*
X137144302Y-104448343D01*
X137186069Y-104451644D01*
X137228254Y-104453625D01*
X137270856Y-104454285D01*
X137315855Y-104453607D01*
X137360229Y-104451574D01*
X137403978Y-104448186D01*
X137447101Y-104443443D01*
X137489599Y-104437345D01*
X137531471Y-104429891D01*
X137572718Y-104421083D01*
X137613339Y-104410919D01*
X137653335Y-104399399D01*
X137692705Y-104386525D01*
X137731450Y-104372296D01*
X137769569Y-104356711D01*
X137807063Y-104339771D01*
X137843932Y-104321476D01*
X137880175Y-104301825D01*
X137915793Y-104280820D01*
X137950889Y-104258476D01*
X137985012Y-104235369D01*
X138018162Y-104211496D01*
X138050339Y-104186859D01*
X138081543Y-104161458D01*
X138111775Y-104135292D01*
X138141033Y-104108362D01*
X138169318Y-104080667D01*
X138196631Y-104052208D01*
X138222970Y-104022985D01*
X138248337Y-103992996D01*
X138272730Y-103962244D01*
X138296150Y-103930727D01*
X138318598Y-103898445D01*
X138340073Y-103865399D01*
X138360574Y-103831589D01*
X138380772Y-103794973D01*
X138399667Y-103757957D01*
X138417258Y-103720542D01*
X138433547Y-103682727D01*
X138448532Y-103644512D01*
X138462215Y-103605897D01*
X138474594Y-103566883D01*
X138485670Y-103527469D01*
X138495443Y-103487656D01*
X138503913Y-103447443D01*
X138511080Y-103406830D01*
X138516944Y-103365818D01*
X138521504Y-103324406D01*
X138524762Y-103282594D01*
X138526717Y-103240383D01*
X138527368Y-103197772D01*
X138526108Y-103138187D01*
X138522330Y-103079523D01*
X138516031Y-103021780D01*
X138507214Y-102964957D01*
X138495877Y-102909055D01*
X138482021Y-102854074D01*
X138465646Y-102800013D01*
X138446751Y-102746874D01*
X138425337Y-102694655D01*
X138401404Y-102643358D01*
X138374952Y-102592981D01*
X138345980Y-102543525D01*
X138314489Y-102494990D01*
X138280479Y-102447376D01*
X138243950Y-102400683D01*
X138204901Y-102354910D01*
X138200757Y-102350610D01*
X138196666Y-102346049D01*
X138192626Y-102341227D01*
X138188639Y-102336145D01*
X138184704Y-102330802D01*
X138180821Y-102325199D01*
X138176989Y-102319335D01*
X138173210Y-102313210D01*
X138169484Y-102306825D01*
X138165809Y-102300180D01*
X138162186Y-102293274D01*
X138158616Y-102286107D01*
X138155097Y-102278680D01*
X138151631Y-102270992D01*
X138148217Y-102263043D01*
X138144855Y-102254834D01*
X138138600Y-102238328D01*
X138133179Y-102222170D01*
X138130781Y-102214221D01*
X138128592Y-102206359D01*
X138126611Y-102198584D01*
X138124839Y-102190896D01*
X138123275Y-102183294D01*
X138121920Y-102175780D01*
X138120773Y-102168352D01*
X138119835Y-102161011D01*
X138119105Y-102153757D01*
X138118584Y-102146590D01*
X138118271Y-102139510D01*
X138118167Y-102132518D01*
X138118541Y-102115719D01*
X138119661Y-102099231D01*
X138121529Y-102083056D01*
X138124144Y-102067194D01*
X138127506Y-102051644D01*
X138131615Y-102036406D01*
X138136471Y-102021482D01*
X138142074Y-102006870D01*
X138148424Y-101992570D01*
X138155521Y-101978584D01*
X138163366Y-101964910D01*
X138171957Y-101951549D01*
X138181296Y-101938501D01*
X138191381Y-101925765D01*
X138202214Y-101913343D01*
X138213794Y-101901233D01*
X138225904Y-101889653D01*
X138238326Y-101878821D01*
X138251062Y-101868735D01*
X138264110Y-101859396D01*
X138277471Y-101850805D01*
X138291145Y-101842961D01*
X138305131Y-101835863D01*
X138319430Y-101829513D01*
X138334042Y-101823910D01*
X138348967Y-101819054D01*
X138364204Y-101814945D01*
X138379754Y-101811583D01*
X138395617Y-101808968D01*
X138411792Y-101807100D01*
X138428280Y-101805980D01*
X138445080Y-101805606D01*
X138453429Y-101805745D01*
G37*
D12*
%TO.C,REF\u002A\u002A*%
X144000000Y-98950000D03*
D13*
X169750000Y-107500000D03*
X118250000Y-86000000D03*
X118250000Y-107500000D03*
X169750000Y-86000000D03*
D14*
X127200000Y-96600000D03*
%TD*%
M02*
