%TF.GenerationSoftware,KiCad,Pcbnew,(6.0.6)*%
%TF.CreationDate,2022-11-01T14:59:24+00:00*%
%TF.ProjectId,frontcase,66726f6e-7463-4617-9365-2e6b69636164,rev?*%
%TF.SameCoordinates,Original*%
%TF.FileFunction,Copper,L2,Bot*%
%TF.FilePolarity,Positive*%
%FSLAX46Y46*%
G04 Gerber Fmt 4.6, Leading zero omitted, Abs format (unit mm)*
G04 Created by KiCad (PCBNEW (6.0.6)) date 2022-11-01 14:59:24*
%MOMM*%
%LPD*%
G01*
G04 APERTURE LIST*
%TA.AperFunction,ComponentPad*%
%ADD10C,5.000000*%
%TD*%
%TA.AperFunction,ComponentPad*%
%ADD11C,13.000000*%
%TD*%
G04 APERTURE END LIST*
D10*
%TO.P,REF\u002A\u002A,1*%
%TO.N,GND*%
X169750000Y-107500000D03*
X118250000Y-86000000D03*
X118250000Y-107500000D03*
X169750000Y-86000000D03*
D11*
%TO.P,REF\u002A\u002A,2*%
X127200000Y-96600000D03*
%TD*%
%TA.AperFunction,Conductor*%
%TO.N,GND*%
G36*
X173754122Y-81001270D02*
G01*
X173917113Y-81011953D01*
X173917430Y-81011975D01*
X174007453Y-81018413D01*
X174023042Y-81020513D01*
X174165622Y-81048874D01*
X174167823Y-81049332D01*
X174239488Y-81064921D01*
X174275795Y-81072819D01*
X174289502Y-81076624D01*
X174423370Y-81122066D01*
X174426875Y-81123314D01*
X174534080Y-81163299D01*
X174545769Y-81168347D01*
X174613557Y-81201776D01*
X174671129Y-81230167D01*
X174675748Y-81232565D01*
X174728077Y-81261139D01*
X174777492Y-81288122D01*
X174787107Y-81293944D01*
X174862445Y-81344282D01*
X174902694Y-81371177D01*
X174908174Y-81375054D01*
X174974383Y-81424617D01*
X175001478Y-81444901D01*
X175009046Y-81451036D01*
X175113336Y-81542496D01*
X175119353Y-81548133D01*
X175201867Y-81630647D01*
X175207504Y-81636664D01*
X175298964Y-81740954D01*
X175305097Y-81748519D01*
X175374946Y-81841826D01*
X175378830Y-81847315D01*
X175456056Y-81962893D01*
X175461878Y-81972508D01*
X175488861Y-82021923D01*
X175517435Y-82074252D01*
X175519843Y-82078890D01*
X175581653Y-82204231D01*
X175586703Y-82215925D01*
X175626677Y-82323099D01*
X175627932Y-82326625D01*
X175673376Y-82460498D01*
X175677182Y-82474210D01*
X175700668Y-82582177D01*
X175701126Y-82584378D01*
X175729487Y-82726958D01*
X175731587Y-82742547D01*
X175738025Y-82832570D01*
X175738047Y-82832887D01*
X175748730Y-82995877D01*
X175749000Y-83004118D01*
X175749000Y-108995882D01*
X175748730Y-109004122D01*
X175738047Y-109167113D01*
X175738025Y-109167430D01*
X175731587Y-109257451D01*
X175729487Y-109273042D01*
X175701126Y-109415622D01*
X175700668Y-109417823D01*
X175677182Y-109525790D01*
X175673376Y-109539502D01*
X175627934Y-109673370D01*
X175626677Y-109676901D01*
X175586703Y-109784075D01*
X175581653Y-109795769D01*
X175519843Y-109921110D01*
X175517435Y-109925748D01*
X175488861Y-109978077D01*
X175461878Y-110027492D01*
X175456056Y-110037107D01*
X175378830Y-110152685D01*
X175374946Y-110158174D01*
X175325383Y-110224383D01*
X175305099Y-110251478D01*
X175298964Y-110259046D01*
X175207504Y-110363336D01*
X175201867Y-110369353D01*
X175119353Y-110451867D01*
X175113336Y-110457504D01*
X175009046Y-110548964D01*
X175001478Y-110555099D01*
X174908174Y-110624946D01*
X174902694Y-110628823D01*
X174862445Y-110655718D01*
X174787107Y-110706056D01*
X174777492Y-110711878D01*
X174728077Y-110738861D01*
X174675748Y-110767435D01*
X174671129Y-110769833D01*
X174613557Y-110798224D01*
X174545769Y-110831653D01*
X174534080Y-110836701D01*
X174426875Y-110876686D01*
X174423375Y-110877932D01*
X174289502Y-110923376D01*
X174275795Y-110927181D01*
X174239488Y-110935079D01*
X174167823Y-110950668D01*
X174165622Y-110951126D01*
X174023042Y-110979487D01*
X174007453Y-110981587D01*
X173917430Y-110988025D01*
X173917113Y-110988047D01*
X173754122Y-110998730D01*
X173745882Y-110999000D01*
X114254118Y-110999000D01*
X114245878Y-110998730D01*
X114082887Y-110988047D01*
X114082570Y-110988025D01*
X113992547Y-110981587D01*
X113976958Y-110979487D01*
X113834378Y-110951126D01*
X113832177Y-110950668D01*
X113760512Y-110935079D01*
X113724205Y-110927181D01*
X113710498Y-110923376D01*
X113576625Y-110877932D01*
X113573125Y-110876686D01*
X113465920Y-110836701D01*
X113454231Y-110831653D01*
X113386443Y-110798224D01*
X113328871Y-110769833D01*
X113324252Y-110767435D01*
X113271923Y-110738861D01*
X113222508Y-110711878D01*
X113212893Y-110706056D01*
X113137871Y-110655928D01*
X113097302Y-110628821D01*
X113091830Y-110624950D01*
X112998513Y-110555094D01*
X112990971Y-110548979D01*
X112886648Y-110457490D01*
X112880647Y-110451868D01*
X112798132Y-110369353D01*
X112792510Y-110363352D01*
X112701021Y-110259029D01*
X112694902Y-110251481D01*
X112694900Y-110251478D01*
X112625050Y-110158170D01*
X112621172Y-110152688D01*
X112543944Y-110037107D01*
X112538122Y-110027492D01*
X112511139Y-109978077D01*
X112482565Y-109925748D01*
X112480157Y-109921110D01*
X112418347Y-109795769D01*
X112413297Y-109784075D01*
X112373323Y-109676901D01*
X112372066Y-109673370D01*
X112326624Y-109539502D01*
X112322818Y-109525790D01*
X112299332Y-109417823D01*
X112298874Y-109415622D01*
X112270513Y-109273042D01*
X112268413Y-109257451D01*
X112261975Y-109167430D01*
X112261953Y-109167113D01*
X112251270Y-109004122D01*
X112251000Y-108995882D01*
X112251000Y-103111341D01*
X134478817Y-103111341D01*
X134478912Y-103114971D01*
X134478912Y-103114972D01*
X134481139Y-103200000D01*
X134487323Y-103436187D01*
X134533110Y-103757903D01*
X134615571Y-104072224D01*
X134733612Y-104374984D01*
X134735309Y-104378189D01*
X134860330Y-104614313D01*
X134885669Y-104662171D01*
X135069727Y-104929977D01*
X135072104Y-104932701D01*
X135072108Y-104932707D01*
X135243693Y-105129397D01*
X135283347Y-105174853D01*
X135523695Y-105393554D01*
X135787588Y-105583180D01*
X136071527Y-105741218D01*
X136371749Y-105865574D01*
X136375243Y-105866569D01*
X136375245Y-105866570D01*
X136680773Y-105953602D01*
X136680778Y-105953603D01*
X136684274Y-105954599D01*
X136687855Y-105955185D01*
X136687862Y-105955187D01*
X137001380Y-106006528D01*
X137001384Y-106006528D01*
X137004960Y-106007114D01*
X137008586Y-106007285D01*
X137325930Y-106022250D01*
X137325931Y-106022250D01*
X137329557Y-106022421D01*
X137340043Y-106021706D01*
X137650132Y-106000567D01*
X137650140Y-106000566D01*
X137653763Y-106000319D01*
X137657339Y-105999656D01*
X137657341Y-105999656D01*
X137969714Y-105941761D01*
X137969718Y-105941760D01*
X137973279Y-105941100D01*
X138283871Y-105845550D01*
X138581423Y-105714934D01*
X138861990Y-105550984D01*
X139121853Y-105355872D01*
X139357569Y-105132186D01*
X139566013Y-104882890D01*
X139744423Y-104611288D01*
X139890432Y-104320980D01*
X140002107Y-104015814D01*
X140002952Y-104012292D01*
X140002955Y-104012284D01*
X140077120Y-103703364D01*
X140077121Y-103703360D01*
X140077967Y-103699835D01*
X140109872Y-103436187D01*
X140116670Y-103380010D01*
X140116670Y-103380003D01*
X140117006Y-103377231D01*
X140122576Y-103200000D01*
X140122415Y-103197204D01*
X140104079Y-102879201D01*
X140104078Y-102879196D01*
X140103870Y-102875581D01*
X140048000Y-102555462D01*
X140021506Y-102466018D01*
X140010068Y-102427406D01*
X140001950Y-102400000D01*
X150998918Y-102400000D01*
X150999000Y-102400198D01*
X150999235Y-102400765D01*
X151000000Y-102401082D01*
X151000198Y-102401000D01*
X164499802Y-102401000D01*
X164500000Y-102401082D01*
X164500765Y-102400765D01*
X164501000Y-102400198D01*
X164501082Y-102400000D01*
X164501000Y-102399802D01*
X164501000Y-96100198D01*
X164501082Y-96100000D01*
X164500765Y-96099235D01*
X164500198Y-96099000D01*
X164500000Y-96098918D01*
X164499802Y-96099000D01*
X151000198Y-96099000D01*
X151000000Y-96098918D01*
X150999802Y-96099000D01*
X150999235Y-96099235D01*
X150998918Y-96100000D01*
X150999000Y-96100198D01*
X150999000Y-102399802D01*
X150998918Y-102400000D01*
X140001950Y-102400000D01*
X139955707Y-102243886D01*
X139954286Y-102240555D01*
X139954283Y-102240546D01*
X139829637Y-101948317D01*
X139828215Y-101944983D01*
X139667211Y-101662715D01*
X139474832Y-101400822D01*
X139253627Y-101162777D01*
X139095150Y-101027425D01*
X139009299Y-100954101D01*
X139009294Y-100954097D01*
X139006527Y-100951734D01*
X138993878Y-100943234D01*
X138739816Y-100772511D01*
X138739812Y-100772509D01*
X138736808Y-100770490D01*
X138448045Y-100621449D01*
X138444664Y-100620171D01*
X138444654Y-100620167D01*
X138201050Y-100528117D01*
X138144065Y-100506584D01*
X138140544Y-100505700D01*
X138140539Y-100505698D01*
X137989664Y-100467801D01*
X137828898Y-100427420D01*
X137805319Y-100424316D01*
X137510324Y-100385478D01*
X137510316Y-100385477D01*
X137506720Y-100385004D01*
X137372076Y-100382889D01*
X137185445Y-100379957D01*
X137185441Y-100379957D01*
X137181803Y-100379900D01*
X137178189Y-100380261D01*
X137178183Y-100380261D01*
X137057336Y-100392324D01*
X136858452Y-100412175D01*
X136854906Y-100412948D01*
X136854907Y-100412948D01*
X136544492Y-100480628D01*
X136544486Y-100480630D01*
X136540953Y-100481400D01*
X136413784Y-100524940D01*
X136236947Y-100585485D01*
X136236942Y-100585487D01*
X136233516Y-100586660D01*
X136230248Y-100588219D01*
X136230240Y-100588222D01*
X136080866Y-100659470D01*
X135940214Y-100726558D01*
X135664935Y-100899240D01*
X135662099Y-100901512D01*
X135662092Y-100901517D01*
X135461330Y-101062358D01*
X135411328Y-101102417D01*
X135182754Y-101333397D01*
X134982244Y-101589118D01*
X134812454Y-101866190D01*
X134810927Y-101869480D01*
X134810922Y-101869489D01*
X134696956Y-102115007D01*
X134675635Y-102160940D01*
X134573601Y-102469464D01*
X134507704Y-102787670D01*
X134478817Y-103111341D01*
X112251000Y-103111341D01*
X112251000Y-98997236D01*
X141744958Y-98997236D01*
X141771014Y-99295065D01*
X141836232Y-99586832D01*
X141939464Y-99867410D01*
X142078898Y-100131870D01*
X142252084Y-100375565D01*
X142301263Y-100428303D01*
X142450390Y-100588222D01*
X142455979Y-100594216D01*
X142687000Y-100783979D01*
X142941090Y-100941521D01*
X143213783Y-101064074D01*
X143334781Y-101100145D01*
X143496290Y-101148293D01*
X143496292Y-101148293D01*
X143500289Y-101149485D01*
X143504409Y-101150138D01*
X143504411Y-101150138D01*
X143569342Y-101160422D01*
X143795575Y-101196254D01*
X143838135Y-101198187D01*
X143887659Y-101200436D01*
X143887678Y-101200436D01*
X143889078Y-101200500D01*
X144075834Y-101200500D01*
X144298309Y-101185723D01*
X144591377Y-101126630D01*
X144874056Y-101029296D01*
X144877789Y-101027427D01*
X144877793Y-101027425D01*
X145137640Y-100897303D01*
X145137642Y-100897302D01*
X145141378Y-100895431D01*
X145388647Y-100727387D01*
X145611520Y-100528117D01*
X145806079Y-100301120D01*
X145968908Y-100050386D01*
X146097145Y-99780319D01*
X146188538Y-99495664D01*
X146241480Y-99201422D01*
X146250564Y-99001389D01*
X146254853Y-98906934D01*
X146254853Y-98906929D01*
X146255042Y-98902764D01*
X146228986Y-98604935D01*
X146163768Y-98313168D01*
X146060536Y-98032590D01*
X145921102Y-97768130D01*
X145747916Y-97524435D01*
X145544021Y-97305784D01*
X145313000Y-97116021D01*
X145058910Y-96958479D01*
X144786217Y-96835926D01*
X144573603Y-96772543D01*
X144503710Y-96751707D01*
X144503708Y-96751707D01*
X144499711Y-96750515D01*
X144495591Y-96749862D01*
X144495589Y-96749862D01*
X144377577Y-96731171D01*
X144204425Y-96703746D01*
X144161865Y-96701813D01*
X144112341Y-96699564D01*
X144112322Y-96699564D01*
X144110922Y-96699500D01*
X143924166Y-96699500D01*
X143701691Y-96714277D01*
X143408623Y-96773370D01*
X143125944Y-96870704D01*
X143122211Y-96872573D01*
X143122207Y-96872575D01*
X142946268Y-96960679D01*
X142858622Y-97004569D01*
X142611353Y-97172613D01*
X142388480Y-97371883D01*
X142193921Y-97598880D01*
X142031092Y-97849614D01*
X141902855Y-98119681D01*
X141811462Y-98404336D01*
X141758520Y-98698578D01*
X141758331Y-98702745D01*
X141758330Y-98702752D01*
X141745147Y-98993066D01*
X141744958Y-98997236D01*
X112251000Y-98997236D01*
X112251000Y-93700000D01*
X150998918Y-93700000D01*
X150999000Y-93700198D01*
X150999235Y-93700765D01*
X151000000Y-93701082D01*
X151000198Y-93701000D01*
X164499802Y-93701000D01*
X164500000Y-93701082D01*
X164500765Y-93700765D01*
X164501000Y-93700198D01*
X164501082Y-93700000D01*
X164501000Y-93699802D01*
X164501000Y-87560198D01*
X164501082Y-87560000D01*
X164500765Y-87559235D01*
X164500198Y-87559000D01*
X164500000Y-87558918D01*
X164499802Y-87559000D01*
X151000198Y-87559000D01*
X151000000Y-87558918D01*
X150999802Y-87559000D01*
X150999235Y-87559235D01*
X150998918Y-87560000D01*
X150999000Y-87560198D01*
X150999000Y-93699802D01*
X150998918Y-93700000D01*
X112251000Y-93700000D01*
X112251000Y-83004118D01*
X112251270Y-82995877D01*
X112261953Y-82832887D01*
X112261975Y-82832570D01*
X112268413Y-82742547D01*
X112270513Y-82726958D01*
X112298874Y-82584378D01*
X112299332Y-82582177D01*
X112322818Y-82474210D01*
X112326624Y-82460498D01*
X112372068Y-82326625D01*
X112373323Y-82323099D01*
X112413297Y-82215925D01*
X112418347Y-82204231D01*
X112480157Y-82078890D01*
X112482565Y-82074252D01*
X112511139Y-82021923D01*
X112538122Y-81972508D01*
X112543944Y-81962893D01*
X112621172Y-81847312D01*
X112625050Y-81841830D01*
X112694906Y-81748513D01*
X112701021Y-81740971D01*
X112792510Y-81636648D01*
X112798132Y-81630647D01*
X112880647Y-81548132D01*
X112886648Y-81542510D01*
X112990971Y-81451021D01*
X112998519Y-81444902D01*
X113091830Y-81375050D01*
X113097302Y-81371179D01*
X113137871Y-81344072D01*
X113212893Y-81293944D01*
X113222508Y-81288122D01*
X113271923Y-81261139D01*
X113324252Y-81232565D01*
X113328871Y-81230167D01*
X113386443Y-81201776D01*
X113454231Y-81168347D01*
X113465920Y-81163299D01*
X113573125Y-81123314D01*
X113576630Y-81122066D01*
X113710498Y-81076624D01*
X113724205Y-81072819D01*
X113760512Y-81064921D01*
X113832177Y-81049332D01*
X113834378Y-81048874D01*
X113976958Y-81020513D01*
X113992547Y-81018413D01*
X114082570Y-81011975D01*
X114082887Y-81011953D01*
X114245878Y-81001270D01*
X114254118Y-81001000D01*
X173745882Y-81001000D01*
X173754122Y-81001270D01*
G37*
%TD.AperFunction*%
%TD*%
%TA.AperFunction,NonConductor*%
G36*
X173754122Y-81001270D02*
G01*
X173917113Y-81011953D01*
X173917430Y-81011975D01*
X174007453Y-81018413D01*
X174023042Y-81020513D01*
X174165622Y-81048874D01*
X174167823Y-81049332D01*
X174239488Y-81064921D01*
X174275795Y-81072819D01*
X174289502Y-81076624D01*
X174423370Y-81122066D01*
X174426875Y-81123314D01*
X174534080Y-81163299D01*
X174545769Y-81168347D01*
X174613557Y-81201776D01*
X174671129Y-81230167D01*
X174675748Y-81232565D01*
X174728077Y-81261139D01*
X174777492Y-81288122D01*
X174787107Y-81293944D01*
X174862445Y-81344282D01*
X174902694Y-81371177D01*
X174908174Y-81375054D01*
X174974383Y-81424617D01*
X175001478Y-81444901D01*
X175009046Y-81451036D01*
X175113336Y-81542496D01*
X175119353Y-81548133D01*
X175201867Y-81630647D01*
X175207504Y-81636664D01*
X175298964Y-81740954D01*
X175305097Y-81748519D01*
X175374946Y-81841826D01*
X175378830Y-81847315D01*
X175456056Y-81962893D01*
X175461878Y-81972508D01*
X175488861Y-82021923D01*
X175517435Y-82074252D01*
X175519843Y-82078890D01*
X175581653Y-82204231D01*
X175586703Y-82215925D01*
X175626677Y-82323099D01*
X175627932Y-82326625D01*
X175673376Y-82460498D01*
X175677182Y-82474210D01*
X175700668Y-82582177D01*
X175701126Y-82584378D01*
X175729487Y-82726958D01*
X175731587Y-82742547D01*
X175738025Y-82832570D01*
X175738047Y-82832887D01*
X175748730Y-82995877D01*
X175749000Y-83004118D01*
X175749000Y-108995882D01*
X175748730Y-109004122D01*
X175738047Y-109167113D01*
X175738025Y-109167430D01*
X175731587Y-109257451D01*
X175729487Y-109273042D01*
X175701126Y-109415622D01*
X175700668Y-109417823D01*
X175677182Y-109525790D01*
X175673376Y-109539502D01*
X175666583Y-109559515D01*
X175627934Y-109673370D01*
X175626686Y-109676875D01*
X175586703Y-109784075D01*
X175581653Y-109795769D01*
X175548224Y-109863557D01*
X175521151Y-109918458D01*
X175519843Y-109921110D01*
X175517435Y-109925748D01*
X175488861Y-109978077D01*
X175461878Y-110027492D01*
X175456056Y-110037107D01*
X175378830Y-110152685D01*
X175374946Y-110158174D01*
X175340031Y-110204815D01*
X175305099Y-110251478D01*
X175298964Y-110259046D01*
X175207504Y-110363336D01*
X175201867Y-110369353D01*
X175119353Y-110451867D01*
X175113336Y-110457504D01*
X175009046Y-110548964D01*
X175001478Y-110555099D01*
X174908174Y-110624946D01*
X174902694Y-110628823D01*
X174862445Y-110655718D01*
X174787107Y-110706056D01*
X174777492Y-110711878D01*
X174728077Y-110738861D01*
X174675748Y-110767435D01*
X174671129Y-110769833D01*
X174613557Y-110798224D01*
X174545769Y-110831653D01*
X174534080Y-110836701D01*
X174426875Y-110876686D01*
X174423375Y-110877932D01*
X174289502Y-110923376D01*
X174275795Y-110927181D01*
X174239488Y-110935079D01*
X174167823Y-110950668D01*
X174165622Y-110951126D01*
X174023042Y-110979487D01*
X174007453Y-110981587D01*
X173917430Y-110988025D01*
X173917113Y-110988047D01*
X173754122Y-110998730D01*
X173745882Y-110999000D01*
X114254118Y-110999000D01*
X114245878Y-110998730D01*
X114082887Y-110988047D01*
X114082570Y-110988025D01*
X113992547Y-110981587D01*
X113976958Y-110979487D01*
X113834378Y-110951126D01*
X113832177Y-110950668D01*
X113760512Y-110935079D01*
X113724205Y-110927181D01*
X113710498Y-110923376D01*
X113576625Y-110877932D01*
X113573125Y-110876686D01*
X113465920Y-110836701D01*
X113454231Y-110831653D01*
X113386443Y-110798224D01*
X113328871Y-110769833D01*
X113324252Y-110767435D01*
X113271923Y-110738861D01*
X113222508Y-110711878D01*
X113212893Y-110706056D01*
X113137871Y-110655928D01*
X113097302Y-110628821D01*
X113091830Y-110624950D01*
X112998513Y-110555094D01*
X112990971Y-110548979D01*
X112886648Y-110457490D01*
X112880647Y-110451868D01*
X112798132Y-110369353D01*
X112792510Y-110363352D01*
X112701021Y-110259029D01*
X112694902Y-110251481D01*
X112694900Y-110251478D01*
X112625050Y-110158170D01*
X112621172Y-110152688D01*
X112543944Y-110037107D01*
X112538122Y-110027492D01*
X112511139Y-109978077D01*
X112482565Y-109925748D01*
X112480157Y-109921110D01*
X112478850Y-109918458D01*
X112451776Y-109863557D01*
X112418347Y-109795769D01*
X112413297Y-109784075D01*
X112373314Y-109676875D01*
X112372066Y-109673370D01*
X112333417Y-109559515D01*
X112326624Y-109539502D01*
X112322818Y-109525790D01*
X112299332Y-109417823D01*
X112298874Y-109415622D01*
X112270513Y-109273042D01*
X112268413Y-109257451D01*
X112261975Y-109167430D01*
X112261953Y-109167113D01*
X112251270Y-109004122D01*
X112251000Y-108995882D01*
X112251000Y-107471669D01*
X115544712Y-107471669D01*
X115560902Y-107796879D01*
X115561543Y-107800610D01*
X115561544Y-107800618D01*
X115576030Y-107884916D01*
X115616045Y-108117789D01*
X115617133Y-108121428D01*
X115617134Y-108121431D01*
X115640697Y-108200218D01*
X115709341Y-108429749D01*
X115839439Y-108728242D01*
X116004455Y-109008944D01*
X116006756Y-109011959D01*
X116199698Y-109264775D01*
X116199703Y-109264781D01*
X116201998Y-109267788D01*
X116429208Y-109501025D01*
X116682792Y-109705276D01*
X116959078Y-109877583D01*
X117254063Y-110015451D01*
X117563474Y-110116881D01*
X117882830Y-110180405D01*
X117886602Y-110180692D01*
X117886610Y-110180693D01*
X118203728Y-110204815D01*
X118203733Y-110204815D01*
X118207505Y-110205102D01*
X118532795Y-110190615D01*
X118853989Y-110137154D01*
X119166434Y-110045493D01*
X119465604Y-109916959D01*
X119468882Y-109915055D01*
X119468888Y-109915052D01*
X119694380Y-109784075D01*
X119747165Y-109753415D01*
X120007040Y-109557230D01*
X120241464Y-109331245D01*
X120243862Y-109328300D01*
X120444643Y-109081678D01*
X120444647Y-109081672D01*
X120447040Y-109078733D01*
X120620792Y-108803354D01*
X120760202Y-108509095D01*
X120863251Y-108200218D01*
X120928446Y-107881199D01*
X120954843Y-107556658D01*
X120955436Y-107500000D01*
X120953728Y-107471669D01*
X167044712Y-107471669D01*
X167060902Y-107796879D01*
X167061543Y-107800610D01*
X167061544Y-107800618D01*
X167076030Y-107884916D01*
X167116045Y-108117789D01*
X167117133Y-108121428D01*
X167117134Y-108121431D01*
X167140697Y-108200218D01*
X167209341Y-108429749D01*
X167339439Y-108728242D01*
X167504455Y-109008944D01*
X167506756Y-109011959D01*
X167699698Y-109264775D01*
X167699703Y-109264781D01*
X167701998Y-109267788D01*
X167929208Y-109501025D01*
X168182792Y-109705276D01*
X168459078Y-109877583D01*
X168754063Y-110015451D01*
X169063474Y-110116881D01*
X169382830Y-110180405D01*
X169386602Y-110180692D01*
X169386610Y-110180693D01*
X169703728Y-110204815D01*
X169703733Y-110204815D01*
X169707505Y-110205102D01*
X170032795Y-110190615D01*
X170353989Y-110137154D01*
X170666434Y-110045493D01*
X170965604Y-109916959D01*
X170968882Y-109915055D01*
X170968888Y-109915052D01*
X171194380Y-109784075D01*
X171247165Y-109753415D01*
X171507040Y-109557230D01*
X171741464Y-109331245D01*
X171743862Y-109328300D01*
X171944643Y-109081678D01*
X171944647Y-109081672D01*
X171947040Y-109078733D01*
X172120792Y-108803354D01*
X172260202Y-108509095D01*
X172363251Y-108200218D01*
X172428446Y-107881199D01*
X172454843Y-107556658D01*
X172455436Y-107500000D01*
X172435841Y-107174977D01*
X172431399Y-107150651D01*
X172378025Y-106858404D01*
X172377342Y-106854663D01*
X172280784Y-106543696D01*
X172147567Y-106246582D01*
X171979621Y-105967624D01*
X171977294Y-105964640D01*
X171977289Y-105964633D01*
X171781713Y-105713858D01*
X171781711Y-105713856D01*
X171779377Y-105710863D01*
X171549738Y-105480018D01*
X171294029Y-105278433D01*
X171015954Y-105109029D01*
X170897453Y-105055150D01*
X170722994Y-104975827D01*
X170722986Y-104975824D01*
X170719542Y-104974258D01*
X170409085Y-104876073D01*
X170267071Y-104849368D01*
X170092805Y-104816597D01*
X170092800Y-104816596D01*
X170089081Y-104815897D01*
X169764166Y-104794601D01*
X169760386Y-104794809D01*
X169760385Y-104794809D01*
X169663156Y-104800160D01*
X169439045Y-104812494D01*
X169435318Y-104813155D01*
X169435314Y-104813155D01*
X169176625Y-104859001D01*
X169118429Y-104869315D01*
X169114804Y-104870420D01*
X169114799Y-104870421D01*
X168929200Y-104926988D01*
X168806961Y-104964244D01*
X168803497Y-104965775D01*
X168803490Y-104965778D01*
X168619938Y-105046926D01*
X168509153Y-105095903D01*
X168505899Y-105097839D01*
X168505893Y-105097842D01*
X168376449Y-105174853D01*
X168229319Y-105262386D01*
X168226318Y-105264701D01*
X168226314Y-105264704D01*
X168108144Y-105355872D01*
X167971513Y-105461282D01*
X167968812Y-105463941D01*
X167968805Y-105463947D01*
X167847685Y-105583180D01*
X167739469Y-105689710D01*
X167737105Y-105692677D01*
X167737102Y-105692680D01*
X167598536Y-105866570D01*
X167536548Y-105944360D01*
X167365690Y-106221544D01*
X167229369Y-106517247D01*
X167228210Y-106520848D01*
X167228207Y-106520854D01*
X167219682Y-106547327D01*
X167129560Y-106827185D01*
X167128841Y-106830901D01*
X167128839Y-106830909D01*
X167068428Y-107143151D01*
X167068427Y-107143160D01*
X167067709Y-107146870D01*
X167067442Y-107150646D01*
X167067441Y-107150651D01*
X167065719Y-107174977D01*
X167044712Y-107471669D01*
X120953728Y-107471669D01*
X120935841Y-107174977D01*
X120931399Y-107150651D01*
X120878025Y-106858404D01*
X120877342Y-106854663D01*
X120780784Y-106543696D01*
X120647567Y-106246582D01*
X120479621Y-105967624D01*
X120477294Y-105964640D01*
X120477289Y-105964633D01*
X120281713Y-105713858D01*
X120281711Y-105713856D01*
X120279377Y-105710863D01*
X120049738Y-105480018D01*
X119794029Y-105278433D01*
X119515954Y-105109029D01*
X119397453Y-105055150D01*
X119222994Y-104975827D01*
X119222986Y-104975824D01*
X119219542Y-104974258D01*
X118909085Y-104876073D01*
X118767071Y-104849368D01*
X118592805Y-104816597D01*
X118592800Y-104816596D01*
X118589081Y-104815897D01*
X118264166Y-104794601D01*
X118260386Y-104794809D01*
X118260385Y-104794809D01*
X118163156Y-104800160D01*
X117939045Y-104812494D01*
X117935318Y-104813155D01*
X117935314Y-104813155D01*
X117676625Y-104859001D01*
X117618429Y-104869315D01*
X117614804Y-104870420D01*
X117614799Y-104870421D01*
X117429200Y-104926988D01*
X117306961Y-104964244D01*
X117303497Y-104965775D01*
X117303490Y-104965778D01*
X117119938Y-105046926D01*
X117009153Y-105095903D01*
X117005899Y-105097839D01*
X117005893Y-105097842D01*
X116876449Y-105174853D01*
X116729319Y-105262386D01*
X116726318Y-105264701D01*
X116726314Y-105264704D01*
X116608144Y-105355872D01*
X116471513Y-105461282D01*
X116468812Y-105463941D01*
X116468805Y-105463947D01*
X116347685Y-105583180D01*
X116239469Y-105689710D01*
X116237105Y-105692677D01*
X116237102Y-105692680D01*
X116098536Y-105866570D01*
X116036548Y-105944360D01*
X115865690Y-106221544D01*
X115729369Y-106517247D01*
X115728210Y-106520848D01*
X115728207Y-106520854D01*
X115719682Y-106547327D01*
X115629560Y-106827185D01*
X115628841Y-106830901D01*
X115628839Y-106830909D01*
X115568428Y-107143151D01*
X115568427Y-107143160D01*
X115567709Y-107146870D01*
X115567442Y-107150646D01*
X115567441Y-107150651D01*
X115565719Y-107174977D01*
X115544712Y-107471669D01*
X112251000Y-107471669D01*
X112251000Y-96635476D01*
X120424621Y-96635476D01*
X120446353Y-97143386D01*
X120450142Y-97175398D01*
X120500679Y-97602382D01*
X120506106Y-97648236D01*
X120506558Y-97650549D01*
X120506558Y-97650551D01*
X120589582Y-98075692D01*
X120603543Y-98147185D01*
X120738118Y-98637424D01*
X120738912Y-98639647D01*
X120738913Y-98639651D01*
X120885498Y-99050177D01*
X120909070Y-99116192D01*
X120910036Y-99118366D01*
X121087065Y-99516916D01*
X121115439Y-99580796D01*
X121356063Y-100028618D01*
X121476836Y-100217829D01*
X121610618Y-100427420D01*
X121629586Y-100457137D01*
X121631009Y-100459036D01*
X121631012Y-100459040D01*
X121753976Y-100623111D01*
X121934469Y-100863943D01*
X122110406Y-101065268D01*
X122228529Y-101200436D01*
X122268996Y-101246743D01*
X122631283Y-101603383D01*
X122633080Y-101604904D01*
X122633083Y-101604907D01*
X123017486Y-101930328D01*
X123019291Y-101931856D01*
X123021196Y-101933238D01*
X123021203Y-101933243D01*
X123041989Y-101948317D01*
X123430835Y-102230312D01*
X123432838Y-102231547D01*
X123432846Y-102231552D01*
X123861584Y-102495830D01*
X123861593Y-102495835D01*
X123863598Y-102497071D01*
X123865704Y-102498160D01*
X123865707Y-102498162D01*
X124313038Y-102729541D01*
X124313045Y-102729544D01*
X124315144Y-102730630D01*
X124317309Y-102731551D01*
X124317317Y-102731555D01*
X124457683Y-102791281D01*
X124782932Y-102929676D01*
X125264326Y-103093088D01*
X125266609Y-103093676D01*
X125266608Y-103093676D01*
X125754328Y-103219355D01*
X125754337Y-103219357D01*
X125756619Y-103219945D01*
X126016224Y-103266422D01*
X126254700Y-103309116D01*
X126254710Y-103309117D01*
X126257037Y-103309534D01*
X126259392Y-103309775D01*
X126259397Y-103309776D01*
X126562498Y-103340831D01*
X126762763Y-103361349D01*
X126824900Y-103363356D01*
X127045066Y-103370468D01*
X127045094Y-103370468D01*
X127046071Y-103370500D01*
X127332438Y-103370500D01*
X127333624Y-103370455D01*
X127333649Y-103370455D01*
X127705648Y-103356489D01*
X127705651Y-103356489D01*
X127708016Y-103356400D01*
X128213173Y-103299291D01*
X128712625Y-103204467D01*
X129058968Y-103111341D01*
X134478817Y-103111341D01*
X134478912Y-103114971D01*
X134478912Y-103114972D01*
X134485358Y-103361125D01*
X134487323Y-103436187D01*
X134533110Y-103757903D01*
X134615571Y-104072224D01*
X134733612Y-104374984D01*
X134735309Y-104378189D01*
X134860330Y-104614313D01*
X134885669Y-104662171D01*
X135069727Y-104929977D01*
X135072104Y-104932701D01*
X135072108Y-104932707D01*
X135227642Y-105110998D01*
X135283347Y-105174853D01*
X135523695Y-105393554D01*
X135787588Y-105583180D01*
X136071527Y-105741218D01*
X136371749Y-105865574D01*
X136375243Y-105866569D01*
X136375245Y-105866570D01*
X136680773Y-105953602D01*
X136680778Y-105953603D01*
X136684274Y-105954599D01*
X136687855Y-105955185D01*
X136687862Y-105955187D01*
X137001380Y-106006528D01*
X137001384Y-106006528D01*
X137004960Y-106007114D01*
X137008586Y-106007285D01*
X137325930Y-106022250D01*
X137325931Y-106022250D01*
X137329557Y-106022421D01*
X137340043Y-106021706D01*
X137650132Y-106000567D01*
X137650140Y-106000566D01*
X137653763Y-106000319D01*
X137657339Y-105999656D01*
X137657341Y-105999656D01*
X137969714Y-105941761D01*
X137969718Y-105941760D01*
X137973279Y-105941100D01*
X138283871Y-105845550D01*
X138581423Y-105714934D01*
X138861990Y-105550984D01*
X139121853Y-105355872D01*
X139357569Y-105132186D01*
X139566013Y-104882890D01*
X139570952Y-104875372D01*
X139742436Y-104614313D01*
X139742436Y-104614312D01*
X139744423Y-104611288D01*
X139890432Y-104320980D01*
X140002107Y-104015814D01*
X140002952Y-104012292D01*
X140002955Y-104012284D01*
X140077120Y-103703364D01*
X140077121Y-103703360D01*
X140077967Y-103699835D01*
X140109872Y-103436187D01*
X140116670Y-103380010D01*
X140116670Y-103380003D01*
X140117006Y-103377231D01*
X140119456Y-103299291D01*
X140122488Y-103202797D01*
X140122576Y-103200000D01*
X140122415Y-103197204D01*
X140104079Y-102879201D01*
X140104078Y-102879196D01*
X140103870Y-102875581D01*
X140048000Y-102555462D01*
X140021506Y-102466018D01*
X140010068Y-102427406D01*
X140001950Y-102400000D01*
X150998918Y-102400000D01*
X150999000Y-102400198D01*
X150999235Y-102400765D01*
X151000000Y-102401082D01*
X151000198Y-102401000D01*
X164499802Y-102401000D01*
X164500000Y-102401082D01*
X164500765Y-102400765D01*
X164501000Y-102400198D01*
X164501082Y-102400000D01*
X164501000Y-102399802D01*
X164501000Y-96100198D01*
X164501082Y-96100000D01*
X164500765Y-96099235D01*
X164500198Y-96099000D01*
X164500000Y-96098918D01*
X164499802Y-96099000D01*
X151000198Y-96099000D01*
X151000000Y-96098918D01*
X150999802Y-96099000D01*
X150999235Y-96099235D01*
X150998918Y-96100000D01*
X150999000Y-96100198D01*
X150999000Y-102399802D01*
X150998918Y-102400000D01*
X140001950Y-102400000D01*
X139955707Y-102243886D01*
X139954286Y-102240555D01*
X139954283Y-102240546D01*
X139829637Y-101948317D01*
X139828215Y-101944983D01*
X139667211Y-101662715D01*
X139624747Y-101604907D01*
X139476975Y-101403739D01*
X139476973Y-101403736D01*
X139474832Y-101400822D01*
X139253627Y-101162777D01*
X139095150Y-101027425D01*
X139009299Y-100954101D01*
X139009294Y-100954097D01*
X139006527Y-100951734D01*
X138993878Y-100943234D01*
X138739816Y-100772511D01*
X138739812Y-100772509D01*
X138736808Y-100770490D01*
X138448045Y-100621449D01*
X138444664Y-100620171D01*
X138444654Y-100620167D01*
X138201050Y-100528117D01*
X138144065Y-100506584D01*
X138140544Y-100505700D01*
X138140539Y-100505698D01*
X137947207Y-100457137D01*
X137828898Y-100427420D01*
X137805319Y-100424316D01*
X137510324Y-100385478D01*
X137510316Y-100385477D01*
X137506720Y-100385004D01*
X137372076Y-100382889D01*
X137185445Y-100379957D01*
X137185441Y-100379957D01*
X137181803Y-100379900D01*
X137178189Y-100380261D01*
X137178183Y-100380261D01*
X137057336Y-100392324D01*
X136858452Y-100412175D01*
X136854906Y-100412948D01*
X136854907Y-100412948D01*
X136544492Y-100480628D01*
X136544486Y-100480630D01*
X136540953Y-100481400D01*
X136413784Y-100524940D01*
X136236947Y-100585485D01*
X136236942Y-100585487D01*
X136233516Y-100586660D01*
X136230248Y-100588219D01*
X136230240Y-100588222D01*
X136080866Y-100659470D01*
X135940214Y-100726558D01*
X135664935Y-100899240D01*
X135662099Y-100901512D01*
X135662092Y-100901517D01*
X135461330Y-101062358D01*
X135411328Y-101102417D01*
X135182754Y-101333397D01*
X134982244Y-101589118D01*
X134812454Y-101866190D01*
X134810927Y-101869480D01*
X134810922Y-101869489D01*
X134696956Y-102115007D01*
X134675635Y-102160940D01*
X134573601Y-102469464D01*
X134507704Y-102787670D01*
X134497320Y-102904018D01*
X134480394Y-103093676D01*
X134478817Y-103111341D01*
X129058968Y-103111341D01*
X129203562Y-103072462D01*
X129612790Y-102928751D01*
X129680990Y-102904801D01*
X129680995Y-102904799D01*
X129683219Y-102904018D01*
X130148896Y-102700085D01*
X130533853Y-102495830D01*
X130595890Y-102462914D01*
X130595896Y-102462910D01*
X130597972Y-102461809D01*
X130694219Y-102401082D01*
X130792857Y-102338845D01*
X131027918Y-102190533D01*
X131029799Y-102189138D01*
X131029813Y-102189129D01*
X131434420Y-101889188D01*
X131436314Y-101887784D01*
X131765216Y-101603383D01*
X131819070Y-101556816D01*
X131819075Y-101556812D01*
X131820861Y-101555267D01*
X132179393Y-101194852D01*
X132435575Y-100895431D01*
X132508365Y-100810355D01*
X132508366Y-100810354D01*
X132509893Y-100808569D01*
X132526310Y-100786180D01*
X132713486Y-100530904D01*
X132810500Y-100398594D01*
X132818976Y-100385004D01*
X133027662Y-100050386D01*
X133079521Y-99967233D01*
X133175464Y-99784101D01*
X133314348Y-99519002D01*
X133315441Y-99516916D01*
X133316368Y-99514768D01*
X133316375Y-99514754D01*
X133516001Y-99052339D01*
X133516004Y-99052331D01*
X133516934Y-99050177D01*
X133535215Y-98997236D01*
X141744958Y-98997236D01*
X141745321Y-99001384D01*
X141745321Y-99001389D01*
X141749779Y-99052339D01*
X141771014Y-99295065D01*
X141836232Y-99586832D01*
X141939464Y-99867410D01*
X141941415Y-99871110D01*
X141941417Y-99871115D01*
X141993147Y-99969229D01*
X142078898Y-100131870D01*
X142252084Y-100375565D01*
X142301263Y-100428303D01*
X142450390Y-100588222D01*
X142455979Y-100594216D01*
X142687000Y-100783979D01*
X142941090Y-100941521D01*
X143213783Y-101064074D01*
X143334781Y-101100145D01*
X143496290Y-101148293D01*
X143496292Y-101148293D01*
X143500289Y-101149485D01*
X143504409Y-101150138D01*
X143504411Y-101150138D01*
X143569342Y-101160422D01*
X143795575Y-101196254D01*
X143838135Y-101198187D01*
X143887659Y-101200436D01*
X143887678Y-101200436D01*
X143889078Y-101200500D01*
X144075834Y-101200500D01*
X144298309Y-101185723D01*
X144591377Y-101126630D01*
X144874056Y-101029296D01*
X144877789Y-101027427D01*
X144877793Y-101027425D01*
X145137640Y-100897303D01*
X145137642Y-100897302D01*
X145141378Y-100895431D01*
X145388647Y-100727387D01*
X145611520Y-100528117D01*
X145806079Y-100301120D01*
X145968908Y-100050386D01*
X146097145Y-99780319D01*
X146188538Y-99495664D01*
X146241480Y-99201422D01*
X146245351Y-99116192D01*
X146254853Y-98906934D01*
X146254853Y-98906929D01*
X146255042Y-98902764D01*
X146228986Y-98604935D01*
X146163768Y-98313168D01*
X146060536Y-98032590D01*
X145921102Y-97768130D01*
X145747916Y-97524435D01*
X145544021Y-97305784D01*
X145313000Y-97116021D01*
X145058910Y-96958479D01*
X144786217Y-96835926D01*
X144573603Y-96772543D01*
X144503710Y-96751707D01*
X144503708Y-96751707D01*
X144499711Y-96750515D01*
X144495591Y-96749862D01*
X144495589Y-96749862D01*
X144377577Y-96731171D01*
X144204425Y-96703746D01*
X144161865Y-96701813D01*
X144112341Y-96699564D01*
X144112322Y-96699564D01*
X144110922Y-96699500D01*
X143924166Y-96699500D01*
X143701691Y-96714277D01*
X143408623Y-96773370D01*
X143125944Y-96870704D01*
X143122211Y-96872573D01*
X143122207Y-96872575D01*
X142946268Y-96960679D01*
X142858622Y-97004569D01*
X142611353Y-97172613D01*
X142388480Y-97371883D01*
X142193921Y-97598880D01*
X142031092Y-97849614D01*
X141902855Y-98119681D01*
X141901576Y-98123664D01*
X141901575Y-98123667D01*
X141841993Y-98309243D01*
X141811462Y-98404336D01*
X141810721Y-98408455D01*
X141769123Y-98639651D01*
X141758520Y-98698578D01*
X141758331Y-98702745D01*
X141758330Y-98702752D01*
X141745147Y-98993066D01*
X141744958Y-98997236D01*
X133535215Y-98997236D01*
X133669240Y-98609101D01*
X133682093Y-98571879D01*
X133682096Y-98571869D01*
X133682864Y-98569645D01*
X133749314Y-98317252D01*
X133811695Y-98080310D01*
X133811696Y-98080307D01*
X133812297Y-98078023D01*
X133820677Y-98032590D01*
X133837620Y-97940721D01*
X133904504Y-97578081D01*
X133909918Y-97527842D01*
X133933515Y-97308840D01*
X133958967Y-97072633D01*
X133961090Y-97006918D01*
X133975303Y-96566884D01*
X133975303Y-96566878D01*
X133975379Y-96564524D01*
X133953647Y-96056614D01*
X133902474Y-95624254D01*
X133894171Y-95554101D01*
X133894169Y-95554091D01*
X133893894Y-95551764D01*
X133893442Y-95549449D01*
X133796909Y-95055129D01*
X133796908Y-95055126D01*
X133796457Y-95052815D01*
X133661882Y-94562576D01*
X133515300Y-94152057D01*
X133491730Y-94086048D01*
X133491728Y-94086044D01*
X133490930Y-94083808D01*
X133320449Y-93700000D01*
X150998918Y-93700000D01*
X150999000Y-93700198D01*
X150999235Y-93700765D01*
X151000000Y-93701082D01*
X151000198Y-93701000D01*
X164499802Y-93701000D01*
X164500000Y-93701082D01*
X164500765Y-93700765D01*
X164501000Y-93700198D01*
X164501082Y-93700000D01*
X164501000Y-93699802D01*
X164501000Y-87560198D01*
X164501082Y-87560000D01*
X164500765Y-87559235D01*
X164500198Y-87559000D01*
X164500000Y-87558918D01*
X164499802Y-87559000D01*
X151000198Y-87559000D01*
X151000000Y-87558918D01*
X150999802Y-87559000D01*
X150999235Y-87559235D01*
X150998918Y-87560000D01*
X150999000Y-87560198D01*
X150999000Y-93699802D01*
X150998918Y-93700000D01*
X133320449Y-93700000D01*
X133313896Y-93685246D01*
X133285530Y-93621385D01*
X133285527Y-93621380D01*
X133284561Y-93619204D01*
X133043937Y-93171382D01*
X132770414Y-92742863D01*
X132465531Y-92336057D01*
X132131004Y-91953257D01*
X131768717Y-91596617D01*
X131431111Y-91310812D01*
X131382514Y-91269672D01*
X131382513Y-91269671D01*
X131380709Y-91268144D01*
X131378804Y-91266762D01*
X131378797Y-91266757D01*
X130971076Y-90971074D01*
X130969165Y-90969688D01*
X130967162Y-90968453D01*
X130967154Y-90968448D01*
X130538416Y-90704170D01*
X130538407Y-90704165D01*
X130536402Y-90702929D01*
X130534293Y-90701838D01*
X130086962Y-90470459D01*
X130086955Y-90470456D01*
X130084856Y-90469370D01*
X130082691Y-90468449D01*
X130082683Y-90468445D01*
X129850962Y-90369847D01*
X129617068Y-90270324D01*
X129135674Y-90106912D01*
X129085120Y-90093885D01*
X128645672Y-89980645D01*
X128645663Y-89980643D01*
X128643381Y-89980055D01*
X128383776Y-89933578D01*
X128145300Y-89890884D01*
X128145290Y-89890883D01*
X128142963Y-89890466D01*
X128140608Y-89890225D01*
X128140603Y-89890224D01*
X127837502Y-89859169D01*
X127637237Y-89838651D01*
X127575100Y-89836644D01*
X127354934Y-89829532D01*
X127354906Y-89829532D01*
X127353929Y-89829500D01*
X127067562Y-89829500D01*
X127066376Y-89829545D01*
X127066351Y-89829545D01*
X126694352Y-89843511D01*
X126694349Y-89843511D01*
X126691984Y-89843600D01*
X126186827Y-89900709D01*
X125687375Y-89995533D01*
X125196438Y-90127538D01*
X124867595Y-90243020D01*
X124719010Y-90295199D01*
X124719005Y-90295201D01*
X124716781Y-90295982D01*
X124251104Y-90499915D01*
X123967120Y-90650594D01*
X123804110Y-90737086D01*
X123804104Y-90737090D01*
X123802028Y-90738191D01*
X123372082Y-91009467D01*
X123370201Y-91010862D01*
X123370187Y-91010871D01*
X123025008Y-91266757D01*
X122963686Y-91312216D01*
X122961902Y-91313759D01*
X122632875Y-91598268D01*
X122579139Y-91644733D01*
X122220607Y-92005148D01*
X121890107Y-92391431D01*
X121589500Y-92801406D01*
X121320479Y-93232767D01*
X121084559Y-93683084D01*
X121083632Y-93685232D01*
X121083625Y-93685246D01*
X121076789Y-93701082D01*
X120883066Y-94149823D01*
X120717136Y-94630355D01*
X120716538Y-94632627D01*
X120716536Y-94632633D01*
X120588305Y-95119690D01*
X120587703Y-95121977D01*
X120495496Y-95621919D01*
X120441033Y-96127367D01*
X120440956Y-96129746D01*
X120440956Y-96129748D01*
X120426837Y-96566884D01*
X120424621Y-96635476D01*
X112251000Y-96635476D01*
X112251000Y-85971669D01*
X115544712Y-85971669D01*
X115560902Y-86296879D01*
X115561543Y-86300610D01*
X115561544Y-86300618D01*
X115576030Y-86384916D01*
X115616045Y-86617789D01*
X115617133Y-86621428D01*
X115617134Y-86621431D01*
X115640697Y-86700218D01*
X115709341Y-86929749D01*
X115839439Y-87228242D01*
X116004455Y-87508944D01*
X116006756Y-87511959D01*
X116199698Y-87764775D01*
X116199703Y-87764781D01*
X116201998Y-87767788D01*
X116429208Y-88001025D01*
X116682792Y-88205276D01*
X116959078Y-88377583D01*
X117254063Y-88515451D01*
X117563474Y-88616881D01*
X117882830Y-88680405D01*
X117886602Y-88680692D01*
X117886610Y-88680693D01*
X118203728Y-88704815D01*
X118203733Y-88704815D01*
X118207505Y-88705102D01*
X118532795Y-88690615D01*
X118853989Y-88637154D01*
X119166434Y-88545493D01*
X119465604Y-88416959D01*
X119468882Y-88415055D01*
X119468888Y-88415052D01*
X119632708Y-88319897D01*
X119747165Y-88253415D01*
X120007040Y-88057230D01*
X120241464Y-87831245D01*
X120243862Y-87828300D01*
X120444643Y-87581678D01*
X120444647Y-87581672D01*
X120447040Y-87578733D01*
X120620792Y-87303354D01*
X120760202Y-87009095D01*
X120863251Y-86700218D01*
X120928446Y-86381199D01*
X120954843Y-86056658D01*
X120955436Y-86000000D01*
X120953728Y-85971669D01*
X167044712Y-85971669D01*
X167060902Y-86296879D01*
X167061543Y-86300610D01*
X167061544Y-86300618D01*
X167076030Y-86384916D01*
X167116045Y-86617789D01*
X167117133Y-86621428D01*
X167117134Y-86621431D01*
X167140697Y-86700218D01*
X167209341Y-86929749D01*
X167339439Y-87228242D01*
X167504455Y-87508944D01*
X167506756Y-87511959D01*
X167699698Y-87764775D01*
X167699703Y-87764781D01*
X167701998Y-87767788D01*
X167929208Y-88001025D01*
X168182792Y-88205276D01*
X168459078Y-88377583D01*
X168754063Y-88515451D01*
X169063474Y-88616881D01*
X169382830Y-88680405D01*
X169386602Y-88680692D01*
X169386610Y-88680693D01*
X169703728Y-88704815D01*
X169703733Y-88704815D01*
X169707505Y-88705102D01*
X170032795Y-88690615D01*
X170353989Y-88637154D01*
X170666434Y-88545493D01*
X170965604Y-88416959D01*
X170968882Y-88415055D01*
X170968888Y-88415052D01*
X171132708Y-88319897D01*
X171247165Y-88253415D01*
X171507040Y-88057230D01*
X171741464Y-87831245D01*
X171743862Y-87828300D01*
X171944643Y-87581678D01*
X171944647Y-87581672D01*
X171947040Y-87578733D01*
X172120792Y-87303354D01*
X172260202Y-87009095D01*
X172363251Y-86700218D01*
X172428446Y-86381199D01*
X172454843Y-86056658D01*
X172455436Y-86000000D01*
X172435841Y-85674977D01*
X172431399Y-85650651D01*
X172378025Y-85358404D01*
X172377342Y-85354663D01*
X172280784Y-85043696D01*
X172147567Y-84746582D01*
X171979621Y-84467624D01*
X171977294Y-84464640D01*
X171977289Y-84464633D01*
X171781713Y-84213858D01*
X171781711Y-84213856D01*
X171779377Y-84210863D01*
X171549738Y-83980018D01*
X171294029Y-83778433D01*
X171015954Y-83609029D01*
X170897453Y-83555150D01*
X170722994Y-83475827D01*
X170722986Y-83475824D01*
X170719542Y-83474258D01*
X170409085Y-83376073D01*
X170267071Y-83349368D01*
X170092805Y-83316597D01*
X170092800Y-83316596D01*
X170089081Y-83315897D01*
X169764166Y-83294601D01*
X169760386Y-83294809D01*
X169760385Y-83294809D01*
X169663156Y-83300160D01*
X169439045Y-83312494D01*
X169435318Y-83313155D01*
X169435314Y-83313155D01*
X169176625Y-83359001D01*
X169118429Y-83369315D01*
X169114804Y-83370420D01*
X169114799Y-83370421D01*
X168913196Y-83431866D01*
X168806961Y-83464244D01*
X168803497Y-83465775D01*
X168803490Y-83465778D01*
X168619938Y-83546926D01*
X168509153Y-83595903D01*
X168505899Y-83597839D01*
X168505893Y-83597842D01*
X168483780Y-83610998D01*
X168229319Y-83762386D01*
X167971513Y-83961282D01*
X167968812Y-83963941D01*
X167968805Y-83963947D01*
X167742177Y-84187044D01*
X167739469Y-84189710D01*
X167737105Y-84192677D01*
X167737102Y-84192680D01*
X167722613Y-84210863D01*
X167536548Y-84444360D01*
X167365690Y-84721544D01*
X167229369Y-85017247D01*
X167228210Y-85020848D01*
X167228207Y-85020854D01*
X167219682Y-85047327D01*
X167129560Y-85327185D01*
X167128841Y-85330901D01*
X167128839Y-85330909D01*
X167068428Y-85643151D01*
X167068427Y-85643160D01*
X167067709Y-85646870D01*
X167067442Y-85650646D01*
X167067441Y-85650651D01*
X167065719Y-85674977D01*
X167044712Y-85971669D01*
X120953728Y-85971669D01*
X120935841Y-85674977D01*
X120931399Y-85650651D01*
X120878025Y-85358404D01*
X120877342Y-85354663D01*
X120780784Y-85043696D01*
X120647567Y-84746582D01*
X120479621Y-84467624D01*
X120477294Y-84464640D01*
X120477289Y-84464633D01*
X120281713Y-84213858D01*
X120281711Y-84213856D01*
X120279377Y-84210863D01*
X120049738Y-83980018D01*
X119794029Y-83778433D01*
X119515954Y-83609029D01*
X119397453Y-83555150D01*
X119222994Y-83475827D01*
X119222986Y-83475824D01*
X119219542Y-83474258D01*
X118909085Y-83376073D01*
X118767071Y-83349368D01*
X118592805Y-83316597D01*
X118592800Y-83316596D01*
X118589081Y-83315897D01*
X118264166Y-83294601D01*
X118260386Y-83294809D01*
X118260385Y-83294809D01*
X118163156Y-83300160D01*
X117939045Y-83312494D01*
X117935318Y-83313155D01*
X117935314Y-83313155D01*
X117676625Y-83359001D01*
X117618429Y-83369315D01*
X117614804Y-83370420D01*
X117614799Y-83370421D01*
X117413196Y-83431866D01*
X117306961Y-83464244D01*
X117303497Y-83465775D01*
X117303490Y-83465778D01*
X117119938Y-83546926D01*
X117009153Y-83595903D01*
X117005899Y-83597839D01*
X117005893Y-83597842D01*
X116983780Y-83610998D01*
X116729319Y-83762386D01*
X116471513Y-83961282D01*
X116468812Y-83963941D01*
X116468805Y-83963947D01*
X116242177Y-84187044D01*
X116239469Y-84189710D01*
X116237105Y-84192677D01*
X116237102Y-84192680D01*
X116222613Y-84210863D01*
X116036548Y-84444360D01*
X115865690Y-84721544D01*
X115729369Y-85017247D01*
X115728210Y-85020848D01*
X115728207Y-85020854D01*
X115719682Y-85047327D01*
X115629560Y-85327185D01*
X115628841Y-85330901D01*
X115628839Y-85330909D01*
X115568428Y-85643151D01*
X115568427Y-85643160D01*
X115567709Y-85646870D01*
X115567442Y-85650646D01*
X115567441Y-85650651D01*
X115565719Y-85674977D01*
X115544712Y-85971669D01*
X112251000Y-85971669D01*
X112251000Y-83004118D01*
X112251270Y-82995877D01*
X112261953Y-82832887D01*
X112261975Y-82832570D01*
X112268413Y-82742547D01*
X112270513Y-82726958D01*
X112298874Y-82584378D01*
X112299332Y-82582177D01*
X112322818Y-82474210D01*
X112326624Y-82460498D01*
X112372068Y-82326625D01*
X112373323Y-82323099D01*
X112413297Y-82215925D01*
X112418347Y-82204231D01*
X112480157Y-82078890D01*
X112482565Y-82074252D01*
X112511139Y-82021923D01*
X112538122Y-81972508D01*
X112543944Y-81962893D01*
X112621172Y-81847312D01*
X112625050Y-81841830D01*
X112694906Y-81748513D01*
X112701021Y-81740971D01*
X112792510Y-81636648D01*
X112798132Y-81630647D01*
X112880647Y-81548132D01*
X112886648Y-81542510D01*
X112990971Y-81451021D01*
X112998519Y-81444902D01*
X113091830Y-81375050D01*
X113097302Y-81371179D01*
X113137871Y-81344072D01*
X113212893Y-81293944D01*
X113222508Y-81288122D01*
X113271923Y-81261139D01*
X113324252Y-81232565D01*
X113328871Y-81230167D01*
X113386443Y-81201776D01*
X113454231Y-81168347D01*
X113465920Y-81163299D01*
X113573125Y-81123314D01*
X113576630Y-81122066D01*
X113710498Y-81076624D01*
X113724205Y-81072819D01*
X113760512Y-81064921D01*
X113832177Y-81049332D01*
X113834378Y-81048874D01*
X113976958Y-81020513D01*
X113992547Y-81018413D01*
X114082570Y-81011975D01*
X114082887Y-81011953D01*
X114245878Y-81001270D01*
X114254118Y-81001000D01*
X173745882Y-81001000D01*
X173754122Y-81001270D01*
G37*
%TD.AperFunction*%
M02*
