<?xml version="1.0" encoding="UTF-8" standalone="no"?>
<!-- Created with Inkscape (http://www.inkscape.org/) -->

<svg
   width="210mm"
   height="297mm"
   viewBox="0 0 210 297"
   version="1.1"
   id="svg5"
   xml:space="preserve"
   sodipodi:docname="hidmanlogo4.svg"
   inkscape:version="1.2 (dc2aedaf03, 2022-05-15)"
   xmlns:inkscape="http://www.inkscape.org/namespaces/inkscape"
   xmlns:sodipodi="http://sodipodi.sourceforge.net/DTD/sodipodi-0.dtd"
   xmlns="http://www.w3.org/2000/svg"
   xmlns:svg="http://www.w3.org/2000/svg"><sodipodi:namedview
     id="namedview21"
     pagecolor="#ffffff"
     bordercolor="#666666"
     borderopacity="1.0"
     inkscape:showpageshadow="2"
     inkscape:pageopacity="0.0"
     inkscape:pagecheckerboard="0"
     inkscape:deskcolor="#d1d1d1"
     inkscape:document-units="mm"
     showgrid="false"
     inkscape:zoom="0.26362495"
     inkscape:cx="326.22103"
     inkscape:cy="656.23532"
     inkscape:window-width="1920"
     inkscape:window-height="1009"
     inkscape:window-x="-8"
     inkscape:window-y="-8"
     inkscape:window-maximized="1"
     inkscape:current-layer="svg5" /><defs
     id="defs2"><rect
       x="51.209115"
       y="682.7882"
       width="656.23532"
       height="182.07685"
       id="rect784" /><rect
       x="39.829312"
       y="688.4781"
       width="678.99493"
       height="288.28835"
       id="rect690" /><rect
       x="36.036044"
       y="669.51176"
       width="715.03097"
       height="193.45666"
       id="rect634" /><rect
       x="39.829311"
       y="688.47809"
       width="678.99493"
       height="288.28836"
       id="rect690-0" /></defs><path
     style="fill:#000000;stroke-width:0.254"
     d="m 75.794404,237.98228 c 0.47513,-0.94328 0.86423,-1.95083 0.86466,-2.23901 5.1e-4,-0.28818 0.2817,-1.10628 0.62504,-1.818 0.34335,-0.71172 0.7016,-1.61893 0.79612,-2.01604 0.0945,-0.3971 0.3179,-0.89345 0.4964,-1.103 0.17851,-0.20955 0.74667,-1.4097 1.26259,-2.667 0.51592,-1.2573 1.07919,-2.45745 1.25172,-2.667 0.39019,-0.47392 1.31885,-3.04677 1.65025,-4.572 0.33422,-1.53826 3.51173,-7.49446 5.19766,-9.74296 0.7481,-0.99772 1.57389,-2.15898 1.83509,-2.58056 1.07883,-1.74127 1.81082,-2.49327 3.01491,-3.09736 0.6985,-0.35044 1.4986,-0.8452 1.778,-1.09947 0.8161,-0.74271 6.359546,-3.5095 7.680526,-3.83342 0.6652,-0.16312 1.95242,-0.66363 2.86047,-1.11223 0.90805,-0.44861 2.25776,-0.95878 2.99935,-1.13372 0.7416,-0.17494 1.656,-0.57474 2.032,-0.88844 0.37601,-0.3137 1.0837,-0.7707 1.57265,-1.01554 2.74156,-1.37286 3.83337,-4.01866 2.87845,-6.97541 -0.42066,-1.30249 -0.33741,-2.5309 0.3267,-4.82083 0.17776,-0.61293 0.17776,-0.61293 -3.79986,-0.4488 -7.19748,0.29699 -10.36463,-0.82485 -11.825489,-4.1887 -0.32331,-0.74446 -0.79255,-1.81825 -1.04275,-2.38621 -0.25021,-0.56796 -0.20531,-2.01733 -0.62359,-3.048 -1.047127,-2.58021 -1.307747,-3.19404 -2.366457,-6.18855 -1.80896,-4.07778 -1.59843,-9.21678 -1.8933,-13.42256 -0.25374,-3.19683 0.33623,-3.76029 -0.79011,-4.61913 -1.81203,-1.38168 -4.90057,-1.81623 -7.59709,-5.19967 -1.88068,-2.35977 -1.18399,-5.37486 2.45602,-10.62909 1.08774,-1.57011 1.84837,-2.97151 2.06793,-3.81 0.19102,-0.72949 0.57343,-2.12645 0.84979,-3.10435 0.74143,-2.62353 0.70241,-3.81591 -0.32002,-9.779 -0.2036,-1.18745 -0.50078,-2.49519 -0.66039,-2.90609 -1.45136,-3.73631 1.5625,-13.82204 5.8109,-19.445907 1.49299,-1.97635 8.083076,-8.22851 10.159706,-9.63871 5.89321,-4.00201 10.29758,-6.26716 15.51356,-7.97856 2.30505,-0.75631 4.98371,-1.68081 5.95259,-2.05446 8.34739,-3.21915 26.50906,-2.73981 33.6985,0.88941 0.81147,0.40963 2.70896,1.08179 4.21665,1.49369 6.62437,1.80978 7.90327,2.63332 13.06245,8.41149 6.36635,7.13018 10.87551,17.671827 10.88559,25.448617 0.006,4.45258 -1.32055,16.47711 -2.09445,18.98852 -0.27982,0.90805 -0.83469,2.96545 -1.23304,4.572 -1.61624,6.51834 -5.13214,11.81679 -9.84644,14.83858 -0.95063,0.60934 -2.44153,1.74418 -3.3131,2.52187 -0.87158,0.7777 -1.74968,1.51138 -2.08573,1.92486 -0.51101,0.62875 -0.94394,8.07647 -0.87116,24.00662 l 0.0152,3.31707 1.35107,2.286 c 1.72663,2.92145 5.03145,8.01502 7.18648,11.07621 2.87367,4.082 5.3675,10.19212 6.16476,15.10423 0.7988,4.92157 2.5277,12.54899 3.47584,15.33447 0.6257,1.83819 0.43694,2.21717 1.0059,4.20476 0.28425,1.60391 1.52029,3.22815 1.46047,6.08219 l -0.0705,3.31614 -57.44316,0.0641 -57.443136,0.064 z"
     id="path676" /><path
     id="path355"
     style="fill:#808080;stroke-width:0.254"
     d="m 40.775314,73.604293 c 2.46256,0.04047 5.47031,2.124876 7.80366,6.233211 0.76025,1.338564 2.25471,3.889391 3.32073,5.668905 1.06603,1.779508 2.11907,3.722809 2.34042,4.318082 0.2213,0.595274 0.84996,1.543424 1.39682,2.106849 2.00209,2.062756 1.33461,3.237446 -2.55437,4.495849 -1.50675,0.487557 -2.74949,0.897792 -2.76159,0.911572 -0.01212,0.01378 0.70826,4.046319 1.60094,8.961209 0.89267,4.91489 1.70227,9.85285 1.79937,10.97349 0.4192,4.83978 3.21832,17.36004 3.85248,17.23151 6.81116,-1.38039 9.38814,-18.43882 3.46852,-22.96036 -3.28555,-2.50957 -2.17912,-7.77972 2.46445,-11.738816 1.73911,-1.482747 4.72736,-1.116562 7.34167,0.899686 5.00156,3.85733 5.48936,10.29084 1.00924,13.30927 -1.4807,0.99758 -1.47487,0.93585 -0.52555,5.6503 0.87422,4.33982 1.02312,6.91225 0.71831,12.42249 -0.39204,7.08706 -2.06256,10.3175 -6.67143,12.35222 1.34068,6.69617 5.9244,26.9504 6.15053,28.29543 0.26013,1.54728 0.54556,4.12747 0.63407,5.73402 0.37873,6.87375 1.29126,14.12999 2.04587,16.26877 0.51085,1.44787 0.47293,2.33597 -0.13178,3.10472 -0.69019,0.87744 -0.67434,0.9833 0.68885,4.68344 1.8388,4.99109 1.65954,7.5688 -0.632,9.08162 -1.90385,1.25684 -11.08543,3.82917 -14.27252,3.99872 l -1.38854,0.0739 -0.89711,-2.48254 c -0.89629,-2.47953 -0.89817,-2.48204 -1.65933,-2.33578 -0.88974,0.17097 -4.4452,1.88465 -4.4452,2.14251 0,0.0966 -0.32262,0.68096 -0.71727,1.29863 -0.39465,0.61768 -1.10902,1.79318 -1.5875,2.61224 -0.47848,0.81906 -1.29072,1.97099 -1.80506,2.55954 -1.09294,1.2506 -1.08076,4.8049 0.02739,7.88944 0.30114,0.8382 1.33715,4.21013 2.30218,7.49308 0.37435,1.27346 0.90647,3.0125 1.42731,4.71186 h -36.43292 c -0.4791,-2.63687 -0.9609,-5.29462 -1.43971,-7.88686 -1.69821,-9.19403 -2.14066,-13.3672 -1.52548,-14.39447 0.1397,-0.23328 1.18889,-1.38996 2.33112,-2.57039 2.39164,-2.47159 2.87704,-3.57034 2.36936,-5.36401 -0.16177,-0.57153 -0.40355,-1.61092 -0.53743,-2.30942 -0.13387,-0.6985 -0.35404,-1.82174 -0.48886,-2.49597 -0.56779,-2.83958 0.01382,-5.66175 1.44177,-6.99802 0.91693,-0.85806 0.91686,-0.85803 0.78859,-2.65101 -0.4661,-6.5144 2.25986,-10.92176 7.11636,-11.50524 0.66178,-0.0795 1.74609,-0.31476 2.40967,-0.52296 l 1.20664,-0.37879 v -1.89239 c 0,-2.93768 1.13289,-4.91661 3.12074,-5.45186 0.57833,-0.15573 1.91277,-0.71546 2.96571,-1.24334 3.06679,-1.53749 6.70911,-2.79169 8.96845,-3.08818 2.56293,-0.33634 -1.26492,-16.66912 -2.3549,-23.4487 -0.44662,-0.23502 -0.89665,-0.5192 -1.42007,-0.89194 -3.49503,-2.48888 -7.32592,-9.82262 -9.47642,-18.14152 l -0.81132,-3.13935 -1.43454,-0.33486 c -10.39695,-2.42754 -7.94747,-17.41475 2.71767,-16.62844 4.38997,0.32367 7.12001,6.60402 5.04517,11.60601 l -0.61237,1.47588 1.01079,3.58376 c 1.63202,5.78803 5.16315,11.77547 7.26726,12.32276 0.93824,0.244 3.08984,0.27176 3.04374,0.0393 -0.01029,-0.0523 -0.18267,-1.8113 -0.38292,-3.9088 -0.24386,-2.55426 -1.19725,-8.30926 -2.88716,-17.42685 -1.38774,-7.48718 -2.57394,-14.21486 -2.63654,-14.95051 -0.11352,-1.335559 -0.11509,-1.337401 -0.82372,-1.198888 -2.00601,0.392148 -4.70215,0.229088 -5.85029,-0.353984 -1.57041,-0.797493 -1.78016,-1.556975 -1.01079,-3.659208 1.04863,-2.865316 3.3533,-13.649552 3.4463,-16.126664 0.15275,-4.067475 2.06999,-6.070595 4.53254,-6.030123 z" /><text
     xml:space="preserve"
     transform="scale(0.26458333)"
     id="text632"
     style="font-style:normal;font-weight:normal;font-size:192px;line-height:1.25;font-family:sans-serif;letter-spacing:0px;word-spacing:0px;white-space:pre;shape-inside:url(#rect634);display:inline;fill:#000000;fill-opacity:1;stroke:none"><tspan
       x="36.035156"
       y="1037.6648"
       id="tspan5353"><tspan
         dx="0 11.106743 5.1887894 10.371067 12.584602 10.371071"
         style="font-weight:900;font-size:13.3333px;font-family:Arial;-inkscape-font-specification:'Arial Heavy'"
         id="tspan5351">HIDMAN</tspan></tspan></text><path
     d="m 14.881669,282.49054 v -36.09217 h 7.28737 v 14.20544 h 14.279307 v -14.20544 h 7.28737 v 36.09217 h -7.28737 V 266.70945 H 22.169039 v 15.78109 z"
     style="font-weight:bold;font-size:40px;line-height:1.25;font-family:Arial;-inkscape-font-specification:'Arial Bold';letter-spacing:-3.04px;word-spacing:0px;white-space:pre;stroke-width:1.26052;fill:#808080"
     id="path836" /><path
     d="M 47.215729,282.49054 V 246.39837 H 54.5031 v 36.09217 z"
     style="font-weight:bold;font-size:40px;line-height:1.25;font-family:Arial;-inkscape-font-specification:'Arial Bold';letter-spacing:-3.04px;word-spacing:0px;white-space:pre;stroke-width:1.26052;fill:#808080"
     id="path838" /><path
     d="m 57.589202,246.39837 h 13.319146 q 4.505364,0 6.868835,0.68934 3.175914,0.93554 5.440913,3.32363 2.264988,2.38809 3.446723,5.85944 1.181736,3.44673 1.181736,8.51834 0,4.45614 -1.107869,7.68129 -1.354074,3.93912 -3.865266,6.37644 -1.895693,1.84647 -5.120854,2.88049 -2.412708,0.7632 -6.450306,0.7632 H 57.589202 Z m 7.28737,6.10563 v 23.90553 h 5.440908 q 3.052819,0 4.406892,-0.34468 1.772604,-0.44315 2.929722,-1.50178 1.181736,-1.05865 1.920311,-3.47135 0.738588,-2.43733 0.738588,-6.62265 0,-4.18531 -0.738588,-6.42568 -0.738575,-2.24039 -2.068031,-3.49597 -1.329456,-1.25559 -3.372869,-1.69875 -1.526412,-0.34467 -5.98254,-0.34467 z"
     style="font-weight:bold;font-size:40px;line-height:1.25;font-family:Arial;-inkscape-font-specification:'Arial Bold';letter-spacing:-3.04px;word-spacing:0px;white-space:pre;stroke-width:1.26052;fill:#808080"
     id="path840" /><path
     d="m 90.267935,282.49054 v -36.09217 h 7.188898 l 8.542957,25.55502 q 1.18174,3.56984 1.72337,5.34244 0.61549,-1.96956 1.92032,-5.78558 l 8.64145,-25.11188 h 6.42568 v 36.09217 h -4.60384 v -30.20811 l -10.4879,30.20811 h -4.30842 L 94.871788,251.76541 v 30.72513 z"
     id="path842"
     style="font-size:40px;line-height:1.25;font-family:Arial;-inkscape-font-specification:Arial;letter-spacing:-3.04px;word-spacing:0px;white-space:pre;stroke-width:1.26052" /><path
     d="m 124.6208,282.49054 13.86077,-36.09217 h 5.14547 l 14.7717,36.09217 h -5.4409 l -4.20995,-10.93106 h -15.09174 l -3.96373,10.93106 z m 10.41404,-14.82093 h 12.23589 l -3.76678,-9.99552 q -1.72337,-4.5546 -2.56043,-7.48432 -0.68935,3.47135 -1.94494,6.89345 z"
     id="path844"
     style="font-size:40px;line-height:1.25;font-family:Arial;-inkscape-font-specification:Arial;letter-spacing:-3.04px;word-spacing:0px;white-space:pre;stroke-width:1.26052" /><path
     d="m 158.33355,282.49054 v -36.09217 h 4.89929 l 18.957,28.33704 v -28.33704 h 4.57923 v 36.09217 h -4.89927 l -18.95702,-28.36165 v 28.36165 z"
     id="path846"
     style="font-size:40px;line-height:1.25;font-family:Arial;-inkscape-font-specification:Arial;letter-spacing:-3.04px;word-spacing:0px;white-space:pre;stroke-width:1.26052" /></svg>
