<?xml version="1.0" encoding="UTF-8" standalone="no"?>
<!-- Created with Inkscape (http://www.inkscape.org/) -->

<svg
   width="210mm"
   height="297mm"
   viewBox="0 0 210 297"
   version="1.1"
   id="svg5"
   inkscape:version="1.2 (dc2aedaf03, 2022-05-15)"
   sodipodi:docname="usbtoyes.svg"
   xmlns:inkscape="http://www.inkscape.org/namespaces/inkscape"
   xmlns:sodipodi="http://sodipodi.sourceforge.net/DTD/sodipodi-0.dtd"
   xmlns="http://www.w3.org/2000/svg"
   xmlns:svg="http://www.w3.org/2000/svg">
  <sodipodi:namedview
     id="namedview7"
     pagecolor="#ffffff"
     bordercolor="#666666"
     borderopacity="1.0"
     inkscape:showpageshadow="2"
     inkscape:pageopacity="0.0"
     inkscape:pagecheckerboard="0"
     inkscape:deskcolor="#d1d1d1"
     inkscape:document-units="mm"
     showgrid="false"
     inkscape:zoom="1.0544998"
     inkscape:cx="493.59897"
     inkscape:cy="238.02755"
     inkscape:window-width="1920"
     inkscape:window-height="1017"
     inkscape:window-x="-8"
     inkscape:window-y="-8"
     inkscape:window-maximized="1"
     inkscape:current-layer="layer1" />
  <defs
     id="defs2">
    <rect
       x="185.07493"
       y="168.98146"
       width="514.99111"
       height="50.96266"
       id="rect186" />
  </defs>
  <g
     inkscape:label="Layer 1"
     inkscape:groupmode="layer"
     id="layer1">
    <g
       aria-label="USB TO YES CONVERTER"
       transform="scale(0.26458333)"
       id="text184"
       style="font-size:40px;line-height:1.25;font-family:Arial;-inkscape-font-specification:Arial;letter-spacing:-3.34px;word-spacing:0px;white-space:pre;shape-inside:url(#rect186)">
      <path
         d="m 187.94531,176.37979 h 5.78125 v 15.50781 q 0,3.69141 0.21485,4.78516 0.37109,1.75781 1.75781,2.83203 1.40625,1.05468 3.82812,1.05468 2.46094,0 3.71094,-0.99609 1.25,-1.01562 1.50391,-2.48047 0.2539,-1.46484 0.2539,-4.86328 v -15.83984 h 5.78125 v 15.03906 q 0,5.15625 -0.46875,7.28516 -0.46875,2.1289 -1.73828,3.59375 -1.25,1.46484 -3.35937,2.34375 -2.10938,0.85937 -5.50782,0.85937 -4.10156,0 -6.23046,-0.9375 -2.10938,-0.95703 -3.33985,-2.46094 -1.23047,-1.52343 -1.62109,-3.18359 -0.56641,-2.46094 -0.56641,-7.26563 z"
         style="font-weight:bold;-inkscape-font-specification:'Arial Bold'"
         id="path398" />
      <path
         d="m 212.06625,195.69619 5.625,-0.54687 q 0.50781,2.83203 2.05078,4.16015 1.5625,1.32813 4.19922,1.32813 2.79297,0 4.19922,-1.17188 1.42578,-1.1914 1.42578,-2.77343 0,-1.01563 -0.60547,-1.71875 -0.58594,-0.72266 -2.07031,-1.25 -1.01563,-0.35157 -4.62891,-1.25 -4.64844,-1.15235 -6.52344,-2.83203 -2.63671,-2.36329 -2.63671,-5.76172 0,-2.1875 1.23046,-4.08203 1.25,-1.91407 3.57422,-2.91016 2.34375,-0.99609 5.64453,-0.99609 5.39063,0 8.10547,2.36328 2.73438,2.36328 2.8711,6.30859 l -5.78125,0.25391 q -0.3711,-2.20703 -1.60157,-3.16407 -1.21093,-0.97656 -3.65234,-0.97656 -2.51953,0 -3.94531,1.03516 -0.91797,0.66406 -0.91797,1.77734 0,1.01563 0.85937,1.73828 1.09375,0.91797 5.3125,1.91407 4.21875,0.99609 6.23047,2.07031 2.03125,1.05469 3.16407,2.91015 1.15234,1.83594 1.15234,4.55079 0,2.46093 -1.36719,4.60937 -1.36719,2.14844 -3.86719,3.20313 -2.5,1.03515 -6.23046,1.03515 -5.42969,0 -8.33985,-2.5 -2.91015,-2.51953 -3.47656,-7.32422 z"
         style="font-weight:bold;-inkscape-font-specification:'Arial Bold'"
         id="path400" />
      <path
         d="m 236.89031,176.37979 h 11.44531 q 3.39844,0 5.0586,0.29297 1.67969,0.27343 2.98828,1.17187 1.32812,0.89844 2.20703,2.40234 0.87891,1.48438 0.87891,3.33985 0,2.01172 -1.09375,3.6914 -1.07422,1.67969 -2.92969,2.51954 2.61719,0.76171 4.02344,2.59765 1.40625,1.83594 1.40625,4.31641 0,1.95312 -0.91797,3.80859 -0.89844,1.83594 -2.48047,2.94922 -1.5625,1.09375 -3.86719,1.34766 -1.44531,0.15625 -6.97265,0.19531 h -9.7461 z m 5.78125,4.76562 v 6.6211 h 3.78906 q 3.37891,0 4.19922,-0.0977 1.48438,-0.17578 2.32422,-1.01563 0.85938,-0.85937 0.85938,-2.24609 0,-1.32812 -0.74219,-2.14844 -0.72266,-0.83984 -2.16797,-1.01562 -0.85937,-0.0977 -4.94141,-0.0977 z m 0,11.38672 v 7.65625 h 5.35156 q 3.125,0 3.96485,-0.17578 1.28906,-0.23438 2.08984,-1.13281 0.82031,-0.91797 0.82031,-2.44141 0,-1.28906 -0.625,-2.1875 -0.625,-0.89844 -1.8164,-1.30859 -1.17188,-0.41016 -5.11719,-0.41016 z"
         style="font-weight:bold;-inkscape-font-specification:'Arial Bold'"
         id="path402" />
      <path
         d="M 276.63609,205.0126 V 181.22354 H 268.14 v -4.84375 h 22.75391 v 4.84375 h -8.47657 v 23.78906 z"
         style="font-weight:bold;-inkscape-font-specification:'Arial Bold'"
         id="path404" />
      <path
         d="m 289.38985,190.87197 q 0,-4.375 1.30859,-7.34375 0.97656,-2.1875 2.65625,-3.92578 1.69922,-1.73828 3.71094,-2.57812 2.67578,-1.13281 6.17187,-1.13281 6.32813,0 10.11719,3.92578 3.80859,3.92578 3.80859,10.91797 0,6.93359 -3.76953,10.85937 -3.76953,3.90625 -10.07812,3.90625 -6.38672,0 -10.15625,-3.88672 -3.76953,-3.90625 -3.76953,-10.74219 z m 5.95703,-0.19531 q 0,4.86328 2.24609,7.38281 2.2461,2.5 5.70313,2.5 3.45703,0 5.66406,-2.48046 2.22656,-2.5 2.22656,-7.48047 0,-4.92188 -2.16797,-7.34375 -2.14843,-2.42188 -5.72265,-2.42188 -3.57422,0 -5.76172,2.46094 -2.1875,2.44141 -2.1875,7.38281 z"
         style="font-weight:bold;-inkscape-font-specification:'Arial Bold'"
         id="path406" />
      <path
         d="m 332.90515,205.0126 v -12.05078 l -10.48828,-16.58203 h 6.77734 l 6.73829,11.32812 6.60156,-11.32812 h 6.66015 l -10.52734,16.62109 v 12.01172 z"
         style="font-weight:bold;-inkscape-font-specification:'Arial Bold'"
         id="path408" />
      <path
         d="m 348.72531,205.0126 v -28.63281 h 21.23047 v 4.84375 h -15.44922 v 6.34765 h 14.375 v 4.82422 h -14.375 v 7.79297 h 15.9961 v 4.82422 z"
         style="font-weight:bold;-inkscape-font-specification:'Arial Bold'"
         id="path410" />
      <path
         d="m 370.60016,195.69619 5.625,-0.54687 q 0.50781,2.83203 2.05078,4.16015 1.5625,1.32813 4.19922,1.32813 2.79297,0 4.19922,-1.17188 1.42578,-1.1914 1.42578,-2.77343 0,-1.01563 -0.60547,-1.71875 -0.58594,-0.72266 -2.07031,-1.25 -1.01563,-0.35157 -4.62891,-1.25 -4.64844,-1.15235 -6.52344,-2.83203 -2.63672,-2.36329 -2.63672,-5.76172 0,-2.1875 1.23047,-4.08203 1.25,-1.91407 3.57422,-2.91016 2.34375,-0.99609 5.64453,-0.99609 5.39063,0 8.10547,2.36328 2.73438,2.36328 2.8711,6.30859 l -5.78125,0.25391 q -0.3711,-2.20703 -1.60157,-3.16407 -1.21093,-0.97656 -3.65234,-0.97656 -2.51953,0 -3.94531,1.03516 -0.91797,0.66406 -0.91797,1.77734 0,1.01563 0.85937,1.73828 1.09375,0.91797 5.3125,1.91407 4.21875,0.99609 6.23047,2.07031 2.03125,1.05469 3.16406,2.91015 1.15235,1.83594 1.15235,4.55079 0,2.46093 -1.36719,4.60937 -1.36719,2.14844 -3.86719,3.20313 -2.5,1.03515 -6.23047,1.03515 -5.42968,0 -8.33984,-2.5 -2.91016,-2.51953 -3.47656,-7.32422 z"
         style="font-weight:bold;-inkscape-font-specification:'Arial Bold'"
         id="path412" />
      <path
         d="m 421.49828,194.48526 5.60546,1.77734 q -1.28906,4.6875 -4.29687,6.97266 -2.98828,2.26562 -7.59766,2.26562 -5.70312,0 -9.375,-3.88672 -3.67187,-3.90625 -3.67187,-10.66406 0,-7.14844 3.6914,-11.09375 3.69141,-3.96484 9.70704,-3.96484 5.2539,0 8.53515,3.10546 1.95313,1.83594 2.92969,5.27344 l -5.72266,1.36719 q -0.50781,-2.22656 -2.1289,-3.51563 -1.60157,-1.28906 -3.90625,-1.28906 -3.1836,0 -5.17578,2.28516 -1.97266,2.28515 -1.97266,7.40234 0,5.42969 1.95312,7.73438 1.95313,2.30468 5.07813,2.30468 2.30469,0 3.96484,-1.46484 1.66016,-1.46484 2.38282,-4.60937 z"
         style="font-weight:bold;-inkscape-font-specification:'Arial Bold'"
         id="path414" />
      <path
         d="m 427.55281,190.87197 q 0,-4.375 1.30859,-7.34375 0.97657,-2.1875 2.65625,-3.92578 1.69922,-1.73828 3.71094,-2.57812 2.67578,-1.13281 6.17188,-1.13281 6.32812,0 10.11718,3.92578 3.8086,3.92578 3.8086,10.91797 0,6.93359 -3.76953,10.85937 -3.76953,3.90625 -10.07813,3.90625 -6.38672,0 -10.15625,-3.88672 -3.76953,-3.90625 -3.76953,-10.74219 z m 5.95703,-0.19531 q 0,4.86328 2.2461,7.38281 2.24609,2.5 5.70312,2.5 3.45703,0 5.66406,-2.48046 2.22657,-2.5 2.22657,-7.48047 0,-4.92188 -2.16797,-7.34375 -2.14844,-2.42188 -5.72266,-2.42188 -3.57422,0 -5.76172,2.46094 -2.1875,2.44141 -2.1875,7.38281 z"
         style="font-weight:bold;-inkscape-font-specification:'Arial Bold'"
         id="path416" />
      <path
         d="m 456.55655,205.0126 v -28.63281 h 5.625 l 11.71875,19.12109 v -19.12109 h 5.37109 v 28.63281 h -5.80078 l -11.54297,-18.67188 v 18.67188 z"
         style="font-weight:bold;-inkscape-font-specification:'Arial Bold'"
         id="path418" />
      <path
         d="m 489.34937,205.0126 -10.23438,-28.63281 h 6.26953 l 7.2461,21.1914 7.01171,-21.1914 h 6.13282 l -10.25391,28.63281 z"
         style="font-weight:bold;-inkscape-font-specification:'Arial Bold'"
         id="path420" />
      <path
         d="m 505.38437,205.0126 v -28.63281 h 21.23047 v 4.84375 h -15.44922 v 6.34765 h 14.375 v 4.82422 h -14.375 v 7.79297 h 15.99609 v 4.82422 z"
         style="font-weight:bold;-inkscape-font-specification:'Arial Bold'"
         id="path422" />
      <path
         d="m 528.74359,205.0126 v -28.63281 h 12.16797 q 4.58984,0 6.66016,0.78125 2.08984,0.76172 3.33984,2.73437 1.25,1.97266 1.25,4.51172 0,3.22266 -1.89453,5.33203 -1.89453,2.08985 -5.66406,2.63672 1.875,1.09375 3.08593,2.40234 1.23047,1.3086 3.30079,4.64844 l 3.49609,5.58594 h -6.91406 l -4.17969,-6.23047 q -2.22656,-3.33984 -3.04688,-4.19922 -0.82031,-0.8789 -1.73828,-1.1914 -0.91797,-0.33204 -2.91015,-0.33204 h -1.17188 v 11.95313 z m 5.78125,-16.52344 h 4.27735 q 4.16015,0 5.19531,-0.35156 1.03515,-0.35156 1.62109,-1.21094 0.58594,-0.85937 0.58594,-2.14844 0,-1.44531 -0.78125,-2.32421 -0.76172,-0.89844 -2.16797,-1.13282 -0.70312,-0.0976 -4.21875,-0.0976 h -4.51172 z"
         style="font-weight:bold;-inkscape-font-specification:'Arial Bold'"
         id="path424" />
      <path
         d="M 560.71609,205.0126 V 181.22354 H 552.22 v -4.84375 h 22.75391 v 4.84375 h -8.47657 v 23.78906 z"
         style="font-weight:bold;-inkscape-font-specification:'Arial Bold'"
         id="path426" />
      <path
         d="m 575.36438,205.0126 v -28.63281 h 21.23047 v 4.84375 h -15.44922 v 6.34765 h 14.375 v 4.82422 h -14.375 v 7.79297 h 15.99609 v 4.82422 z"
         style="font-weight:bold;-inkscape-font-specification:'Arial Bold'"
         id="path428" />
      <path
         d="m 598.7236,205.0126 v -28.63281 h 12.16797 q 4.58984,0 6.66016,0.78125 2.08984,0.76172 3.33984,2.73437 1.25,1.97266 1.25,4.51172 0,3.22266 -1.89453,5.33203 -1.89453,2.08985 -5.66406,2.63672 1.875,1.09375 3.08593,2.40234 1.23047,1.3086 3.30079,4.64844 l 3.49609,5.58594 h -6.91406 l -4.17969,-6.23047 q -2.22656,-3.33984 -3.04688,-4.19922 -0.82031,-0.8789 -1.73828,-1.1914 -0.91797,-0.33204 -2.91015,-0.33204 h -1.17188 v 11.95313 z m 5.78125,-16.52344 h 4.27735 q 4.16015,0 5.19531,-0.35156 1.03515,-0.35156 1.62109,-1.21094 0.58594,-0.85937 0.58594,-2.14844 0,-1.44531 -0.78125,-2.32421 -0.76172,-0.89844 -2.16797,-1.13282 -0.70312,-0.0976 -4.21875,-0.0976 h -4.51172 z"
         style="font-weight:bold;-inkscape-font-specification:'Arial Bold'"
         id="path430" />
    </g>
  </g>
</svg>
